%TF.GenerationSoftware,KiCad,Pcbnew,(6.0.7)*%
%TF.CreationDate,2022-09-01T12:01:24+02:00*%
%TF.ProjectId,bmp2,626d7032-2e6b-4696-9361-645f70636258,rev?*%
%TF.SameCoordinates,Original*%
%TF.FileFunction,Soldermask,Top*%
%TF.FilePolarity,Negative*%
%FSLAX46Y46*%
G04 Gerber Fmt 4.6, Leading zero omitted, Abs format (unit mm)*
G04 Created by KiCad (PCBNEW (6.0.7)) date 2022-09-01 12:01:24*
%MOMM*%
%LPD*%
G01*
G04 APERTURE LIST*
G04 Aperture macros list*
%AMRoundRect*
0 Rectangle with rounded corners*
0 $1 Rounding radius*
0 $2 $3 $4 $5 $6 $7 $8 $9 X,Y pos of 4 corners*
0 Add a 4 corners polygon primitive as box body*
4,1,4,$2,$3,$4,$5,$6,$7,$8,$9,$2,$3,0*
0 Add four circle primitives for the rounded corners*
1,1,$1+$1,$2,$3*
1,1,$1+$1,$4,$5*
1,1,$1+$1,$6,$7*
1,1,$1+$1,$8,$9*
0 Add four rect primitives between the rounded corners*
20,1,$1+$1,$2,$3,$4,$5,0*
20,1,$1+$1,$4,$5,$6,$7,0*
20,1,$1+$1,$6,$7,$8,$9,0*
20,1,$1+$1,$8,$9,$2,$3,0*%
G04 Aperture macros list end*
%ADD10R,1.050000X0.700000*%
%ADD11R,2.400000X0.750000*%
%ADD12R,2.400000X1.900000*%
%ADD13RoundRect,0.076200X0.750000X-0.150000X0.750000X0.150000X-0.750000X0.150000X-0.750000X-0.150000X0*%
%ADD14RoundRect,0.076200X0.150000X-0.750000X0.150000X0.750000X-0.150000X0.750000X-0.150000X-0.750000X0*%
%ADD15RoundRect,0.150000X-0.512500X-0.150000X0.512500X-0.150000X0.512500X0.150000X-0.512500X0.150000X0*%
%ADD16RoundRect,0.200000X0.200000X0.275000X-0.200000X0.275000X-0.200000X-0.275000X0.200000X-0.275000X0*%
%ADD17RoundRect,0.200000X-0.200000X-0.275000X0.200000X-0.275000X0.200000X0.275000X-0.200000X0.275000X0*%
%ADD18RoundRect,0.200000X-0.275000X0.200000X-0.275000X-0.200000X0.275000X-0.200000X0.275000X0.200000X0*%
%ADD19RoundRect,0.200000X0.275000X-0.200000X0.275000X0.200000X-0.275000X0.200000X-0.275000X-0.200000X0*%
%ADD20RoundRect,0.150000X0.150000X-0.587500X0.150000X0.587500X-0.150000X0.587500X-0.150000X-0.587500X0*%
%ADD21R,4.572000X2.033000*%
%ADD22R,1.700000X1.700000*%
%ADD23O,1.700000X1.700000*%
%ADD24C,0.900000*%
%ADD25R,2.600000X0.450000*%
%ADD26R,2.500000X2.000000*%
%ADD27RoundRect,0.243750X0.456250X-0.243750X0.456250X0.243750X-0.456250X0.243750X-0.456250X-0.243750X0*%
%ADD28RoundRect,0.225000X0.250000X-0.225000X0.250000X0.225000X-0.250000X0.225000X-0.250000X-0.225000X0*%
%ADD29RoundRect,0.225000X-0.250000X0.225000X-0.250000X-0.225000X0.250000X-0.225000X0.250000X0.225000X0*%
%ADD30RoundRect,0.225000X0.225000X0.250000X-0.225000X0.250000X-0.225000X-0.250000X0.225000X-0.250000X0*%
%ADD31RoundRect,0.225000X-0.225000X-0.250000X0.225000X-0.250000X0.225000X0.250000X-0.225000X0.250000X0*%
%ADD32RoundRect,0.250000X-0.475000X0.250000X-0.475000X-0.250000X0.475000X-0.250000X0.475000X0.250000X0*%
%ADD33RoundRect,0.250000X0.250000X0.475000X-0.250000X0.475000X-0.250000X-0.475000X0.250000X-0.475000X0*%
G04 APERTURE END LIST*
D10*
%TO.C,S1*%
X105950000Y-23125000D03*
X101750000Y-23125000D03*
X105950000Y-20975000D03*
X101750000Y-20975000D03*
%TD*%
D11*
%TO.C,J3*%
X145900000Y-32810000D03*
X149800000Y-32810000D03*
X145900000Y-34080000D03*
X149800000Y-34080000D03*
X145900000Y-35350000D03*
X149800000Y-35350000D03*
X145900000Y-36620000D03*
X149800000Y-36620000D03*
X145900000Y-37890000D03*
X149800000Y-37890000D03*
%TD*%
D12*
%TO.C,X1*%
X132425000Y-39775000D03*
X132425000Y-35875000D03*
%TD*%
D13*
%TO.C,U2*%
X129300000Y-37875000D03*
X129300000Y-37375000D03*
X129300000Y-36875000D03*
X129300000Y-36375000D03*
X129300000Y-35875000D03*
X129300000Y-35375000D03*
X129300000Y-34875000D03*
X129300000Y-34375000D03*
X129300000Y-33875000D03*
X129300000Y-33375000D03*
X129300000Y-32875000D03*
X129300000Y-32375000D03*
D14*
X127800000Y-30875000D03*
X127300000Y-30875000D03*
X126800000Y-30875000D03*
X126300000Y-30875000D03*
X125800000Y-30875000D03*
X125300000Y-30875000D03*
X124800000Y-30875000D03*
X124300000Y-30875000D03*
X123800000Y-30875000D03*
X123300000Y-30875000D03*
X122800000Y-30875000D03*
X122300000Y-30875000D03*
D13*
X120800000Y-32375000D03*
X120800000Y-32875000D03*
X120800000Y-33375000D03*
X120800000Y-33875000D03*
X120800000Y-34375000D03*
X120800000Y-34875000D03*
X120800000Y-35375000D03*
X120800000Y-35875000D03*
X120800000Y-36375000D03*
X120800000Y-36875000D03*
X120800000Y-37375000D03*
X120800000Y-37875000D03*
D14*
X122300000Y-39375000D03*
X122800000Y-39375000D03*
X123300000Y-39375000D03*
X123800000Y-39375000D03*
X124300000Y-39375000D03*
X124800000Y-39375000D03*
X125300000Y-39375000D03*
X125800000Y-39375000D03*
X126300000Y-39375000D03*
X126800000Y-39375000D03*
X127300000Y-39375000D03*
X127800000Y-39375000D03*
%TD*%
D15*
%TO.C,U1*%
X109887500Y-24525000D03*
X109887500Y-25475000D03*
X109887500Y-26425000D03*
X112162500Y-26425000D03*
X112162500Y-24525000D03*
%TD*%
D16*
%TO.C,R12*%
X115875000Y-30275000D03*
X114225000Y-30275000D03*
%TD*%
D17*
%TO.C,R11*%
X114250000Y-31900000D03*
X115900000Y-31900000D03*
%TD*%
D16*
%TO.C,R10*%
X115175000Y-22800000D03*
X113525000Y-22800000D03*
%TD*%
D18*
%TO.C,R9*%
X133575000Y-27575000D03*
X133575000Y-29225000D03*
%TD*%
%TO.C,R8*%
X131650000Y-27575000D03*
X131650000Y-29225000D03*
%TD*%
D19*
%TO.C,R7*%
X128050000Y-27375000D03*
X128050000Y-25725000D03*
%TD*%
%TO.C,R6*%
X125575000Y-27375000D03*
X125575000Y-25725000D03*
%TD*%
%TO.C,R5*%
X123175000Y-27400000D03*
X123175000Y-25750000D03*
%TD*%
%TO.C,R4*%
X120650000Y-27375000D03*
X120650000Y-25725000D03*
%TD*%
D16*
%TO.C,R3*%
X115900000Y-35075000D03*
X114250000Y-35075000D03*
%TD*%
%TO.C,R2*%
X115900000Y-33500000D03*
X114250000Y-33500000D03*
%TD*%
%TO.C,R1*%
X115900000Y-36675000D03*
X114250000Y-36675000D03*
%TD*%
D20*
%TO.C,Q1*%
X130650000Y-23162500D03*
X132550000Y-23162500D03*
X131600000Y-21287500D03*
%TD*%
D21*
%TO.C,J6*%
X156075000Y-22560000D03*
X156075000Y-22560000D03*
X156075000Y-25100000D03*
X156075000Y-25100000D03*
X156075000Y-27640000D03*
X156075000Y-27640000D03*
X156075000Y-30180000D03*
X156075000Y-30180000D03*
X156075000Y-32720000D03*
X156075000Y-32720000D03*
X156075000Y-35260000D03*
X156075000Y-35260000D03*
X156075000Y-37800000D03*
X156075000Y-37800000D03*
X156075000Y-40340000D03*
X156075000Y-40340000D03*
X156075000Y-42880000D03*
X156075000Y-42880000D03*
X156075000Y-45420000D03*
X156075000Y-45420000D03*
%TD*%
D22*
%TO.C,J5*%
X139650000Y-28875000D03*
D23*
X139650000Y-31415000D03*
X139650000Y-33955000D03*
X139650000Y-36495000D03*
X139650000Y-39035000D03*
X139650000Y-41575000D03*
%TD*%
D22*
%TO.C,J4*%
X113745000Y-43575000D03*
D23*
X116285000Y-43575000D03*
X118825000Y-43575000D03*
X121365000Y-43575000D03*
%TD*%
D24*
%TO.C,J2*%
X106600000Y-36575000D03*
X106600000Y-32175000D03*
D25*
X109700000Y-32775000D03*
X109700000Y-33575000D03*
X109700000Y-34375000D03*
X109700000Y-35175000D03*
X109700000Y-35975000D03*
D26*
X109192000Y-38820000D03*
X103604000Y-38820000D03*
X109192000Y-29930000D03*
X103604000Y-29930000D03*
%TD*%
D22*
%TO.C,J1*%
X102250000Y-43600000D03*
D23*
X104790000Y-43600000D03*
X107330000Y-43600000D03*
X109870000Y-43600000D03*
%TD*%
D27*
%TO.C,D4*%
X128025000Y-22900000D03*
X128025000Y-21025000D03*
%TD*%
%TO.C,D3*%
X125550000Y-22887500D03*
X125550000Y-21012500D03*
%TD*%
%TO.C,D2*%
X123200000Y-22912500D03*
X123200000Y-21037500D03*
%TD*%
%TO.C,D1*%
X120600000Y-22837500D03*
X120600000Y-20962500D03*
%TD*%
D28*
%TO.C,C9*%
X135550000Y-29200000D03*
X135550000Y-27650000D03*
%TD*%
%TO.C,C8*%
X135350000Y-36875000D03*
X135350000Y-35325000D03*
%TD*%
D29*
%TO.C,C7*%
X135350000Y-38425000D03*
X135350000Y-39975000D03*
%TD*%
D30*
%TO.C,C6*%
X119050000Y-40525000D03*
X117500000Y-40525000D03*
%TD*%
D28*
%TO.C,C5*%
X117950000Y-29600000D03*
X117950000Y-28050000D03*
%TD*%
D31*
%TO.C,C4*%
X131625000Y-33525000D03*
X133175000Y-33525000D03*
%TD*%
D30*
%TO.C,C3*%
X128875000Y-42375000D03*
X127325000Y-42375000D03*
%TD*%
D32*
%TO.C,C2*%
X114525000Y-24525000D03*
X114525000Y-26425000D03*
%TD*%
D33*
%TO.C,C1*%
X103400000Y-25550000D03*
X101500000Y-25550000D03*
%TD*%
M02*
