%TF.GenerationSoftware,KiCad,Pcbnew,(6.0.7)*%
%TF.CreationDate,2022-09-01T12:01:24+02:00*%
%TF.ProjectId,bmp2,626d7032-2e6b-4696-9361-645f70636258,rev?*%
%TF.SameCoordinates,Original*%
%TF.FileFunction,Copper,L2,Bot*%
%TF.FilePolarity,Positive*%
%FSLAX46Y46*%
G04 Gerber Fmt 4.6, Leading zero omitted, Abs format (unit mm)*
G04 Created by KiCad (PCBNEW (6.0.7)) date 2022-09-01 12:01:24*
%MOMM*%
%LPD*%
G01*
G04 APERTURE LIST*
%TA.AperFunction,SMDPad,CuDef*%
%ADD10R,4.572000X2.033000*%
%TD*%
%TA.AperFunction,ComponentPad*%
%ADD11R,1.700000X1.700000*%
%TD*%
%TA.AperFunction,ComponentPad*%
%ADD12O,1.700000X1.700000*%
%TD*%
%TA.AperFunction,ViaPad*%
%ADD13C,0.800000*%
%TD*%
%TA.AperFunction,ViaPad*%
%ADD14C,0.558800*%
%TD*%
%TA.AperFunction,Conductor*%
%ADD15C,0.400000*%
%TD*%
%TA.AperFunction,Conductor*%
%ADD16C,0.200000*%
%TD*%
G04 APERTURE END LIST*
D10*
%TO.P,J6,1,Pin_1*%
%TO.N,/TPWR*%
X156075000Y-22560000D03*
%TO.P,J6,3,Pin_3*%
%TO.N,/TRST*%
X156075000Y-25100000D03*
%TO.P,J6,5,Pin_5*%
%TO.N,/TDI*%
X156075000Y-27640000D03*
%TO.P,J6,7,Pin_7*%
%TO.N,/TMS*%
X156075000Y-30180000D03*
%TO.P,J6,9,Pin_9*%
%TO.N,/TCK*%
X156075000Y-32720000D03*
%TO.P,J6,11,Pin_11*%
%TO.N,unconnected-(J6-Pad11)*%
X156075000Y-35260000D03*
%TO.P,J6,13,Pin_13*%
%TO.N,/TDO*%
X156075000Y-37800000D03*
%TO.P,J6,15,Pin_15*%
%TO.N,/RST*%
X156075000Y-40340000D03*
%TO.P,J6,17,Pin_17*%
%TO.N,unconnected-(J6-Pad17)*%
X156075000Y-42880000D03*
%TO.P,J6,19,Pin_19*%
%TO.N,unconnected-(J6-Pad19)*%
X156075000Y-45420000D03*
%TD*%
D11*
%TO.P,J5,1,Pin_1*%
%TO.N,/TPWR*%
X139650000Y-28875000D03*
D12*
%TO.P,J5,2,Pin_2*%
%TO.N,/TCK*%
X139650000Y-31415000D03*
%TO.P,J5,3,Pin_3*%
%TO.N,GND*%
X139650000Y-33955000D03*
%TO.P,J5,4,Pin_4*%
%TO.N,/TMS*%
X139650000Y-36495000D03*
%TO.P,J5,5,Pin_5*%
%TO.N,/RST*%
X139650000Y-39035000D03*
%TO.P,J5,6,Pin_6*%
%TO.N,/TDO*%
X139650000Y-41575000D03*
%TD*%
D11*
%TO.P,J4,1,Pin_1*%
%TO.N,+3V3*%
X113745000Y-43575000D03*
D12*
%TO.P,J4,2,Pin_2*%
%TO.N,/SWCLK*%
X116285000Y-43575000D03*
%TO.P,J4,3,Pin_3*%
%TO.N,GND*%
X118825000Y-43575000D03*
%TO.P,J4,4,Pin_4*%
%TO.N,/SWDIO*%
X121365000Y-43575000D03*
%TD*%
D11*
%TO.P,J1,1,Pin_1*%
%TO.N,+3V3*%
X102250000Y-43600000D03*
D12*
%TO.P,J1,2,Pin_2*%
%TO.N,/TXD*%
X104790000Y-43600000D03*
%TO.P,J1,3,Pin_3*%
%TO.N,/RXD*%
X107330000Y-43600000D03*
%TO.P,J1,4,Pin_4*%
%TO.N,GND*%
X109870000Y-43600000D03*
%TD*%
D13*
%TO.N,GND*%
X143500000Y-35425000D03*
D14*
X122550000Y-36300000D03*
D13*
X112525000Y-37800000D03*
X101500000Y-27425000D03*
D14*
%TO.N,/TMS*%
X144750000Y-29850000D03*
X142200000Y-33475000D03*
%TO.N,/TDO*%
X136850000Y-29700000D03*
%TO.N,/RST*%
X148082500Y-39607500D03*
%TO.N,/TDI*%
X151400000Y-27700000D03*
D13*
%TO.N,+3V3*%
X111150000Y-22750000D03*
%TO.N,GND*%
X112500000Y-30200000D03*
D14*
%TO.N,/TMS*%
X146850000Y-29475000D03*
%TO.N,/TDO*%
X152575000Y-38275000D03*
%TO.N,GND*%
X123900000Y-32825000D03*
D13*
X125800000Y-42275000D03*
D14*
%TO.N,Net-(R10-Pad1)*%
X116000000Y-27100000D03*
%TO.N,/TXD*%
X118525000Y-34300000D03*
%TO.N,/RXD*%
X117975000Y-35025000D03*
%TO.N,/TXD*%
X117000000Y-37725000D03*
%TO.N,/RXD*%
X116300000Y-38375000D03*
%TO.N,GND*%
X111200000Y-25475000D03*
X116600000Y-28050000D03*
X127625000Y-34675000D03*
X136487500Y-37612500D03*
%TO.N,/TDO*%
X152625000Y-35400000D03*
%TO.N,/TCK*%
X152650000Y-34150000D03*
%TO.N,/TMS*%
X152600000Y-32825000D03*
%TO.N,GND*%
X152125000Y-45450000D03*
%TO.N,/TPWR*%
X151215000Y-22560000D03*
%TO.N,GND*%
X133625000Y-26100000D03*
X118512500Y-20962500D03*
%TO.N,Net-(R10-Pad1)*%
X116975000Y-24300000D03*
%TD*%
D15*
%TO.N,+3V3*%
X112800000Y-45750000D02*
X113745000Y-44805000D01*
X103425000Y-45750000D02*
X112800000Y-45750000D01*
X113745000Y-44805000D02*
X113745000Y-43575000D01*
X102250000Y-44575000D02*
X103425000Y-45750000D01*
X102250000Y-43600000D02*
X102250000Y-44575000D01*
D16*
%TO.N,/TCK*%
X141765000Y-31415000D02*
X144500000Y-34150000D01*
X144500000Y-34150000D02*
X152650000Y-34150000D01*
X139650000Y-31415000D02*
X141765000Y-31415000D01*
%TO.N,/TMS*%
X146475000Y-29850000D02*
X146850000Y-29475000D01*
X144750000Y-29850000D02*
X146475000Y-29850000D01*
X142200000Y-35000000D02*
X142200000Y-33475000D01*
X142150000Y-35050000D02*
X142200000Y-35000000D01*
X140705000Y-36495000D02*
X142150000Y-35050000D01*
X139650000Y-36495000D02*
X140705000Y-36495000D01*
%TO.N,/TDO*%
X136950000Y-29700000D02*
X137825000Y-30575000D01*
X137825000Y-30575000D02*
X137825000Y-40525000D01*
X137825000Y-40525000D02*
X138875000Y-41575000D01*
X136850000Y-29700000D02*
X136950000Y-29700000D01*
X138875000Y-41575000D02*
X139650000Y-41575000D01*
%TO.N,/TXD*%
X118525000Y-36200000D02*
X118525000Y-34300000D01*
X117000000Y-37725000D02*
X118525000Y-36200000D01*
%TO.N,/RXD*%
X117975000Y-35025000D02*
X116300000Y-36700000D01*
X116300000Y-36700000D02*
X116300000Y-38375000D01*
%TO.N,Net-(R10-Pad1)*%
X116975000Y-26125000D02*
X116975000Y-24300000D01*
X116000000Y-27100000D02*
X116975000Y-26125000D01*
%TO.N,/RST*%
X148815000Y-40340000D02*
X156075000Y-40340000D01*
X148082500Y-39607500D02*
X148815000Y-40340000D01*
%TO.N,/TDO*%
X155600000Y-38275000D02*
X156075000Y-37800000D01*
X152575000Y-38275000D02*
X155600000Y-38275000D01*
X152575000Y-35450000D02*
X152575000Y-38275000D01*
X152625000Y-35400000D02*
X152575000Y-35450000D01*
%TO.N,/TCK*%
X152650000Y-34150000D02*
X154080000Y-32720000D01*
X154080000Y-32720000D02*
X156075000Y-32720000D01*
%TO.N,/TMS*%
X152600000Y-31925000D02*
X152600000Y-32825000D01*
X154345000Y-30180000D02*
X152600000Y-31925000D01*
X156075000Y-30180000D02*
X154345000Y-30180000D01*
%TO.N,/TDI*%
X151460000Y-27640000D02*
X151400000Y-27700000D01*
X156075000Y-27640000D02*
X151460000Y-27640000D01*
%TO.N,/TPWR*%
X156075000Y-22560000D02*
X151215000Y-22560000D01*
D15*
%TO.N,+3V3*%
X109125000Y-22750000D02*
X111150000Y-22750000D01*
X108800000Y-23075000D02*
X109125000Y-22750000D01*
X102250000Y-29625000D02*
X108800000Y-23075000D01*
X102250000Y-43600000D02*
X102250000Y-29625000D01*
%TD*%
%TA.AperFunction,Conductor*%
%TO.N,GND*%
G36*
X153013685Y-20161906D02*
G01*
X153022690Y-20183676D01*
X153020930Y-22160722D01*
X153020827Y-22276377D01*
X153011801Y-22298113D01*
X152990077Y-22307100D01*
X151581870Y-22307100D01*
X151558575Y-22296422D01*
X151503538Y-22232548D01*
X151502105Y-22230885D01*
X151500267Y-22229693D01*
X151500265Y-22229692D01*
X151400032Y-22164724D01*
X151400030Y-22164723D01*
X151398194Y-22163533D01*
X151331354Y-22143543D01*
X151281656Y-22128680D01*
X151281654Y-22128680D01*
X151279555Y-22128052D01*
X151218093Y-22127677D01*
X151157923Y-22127309D01*
X151157920Y-22127309D01*
X151155727Y-22127296D01*
X151036664Y-22161324D01*
X150987524Y-22192329D01*
X150933789Y-22226233D01*
X150933787Y-22226235D01*
X150931937Y-22227402D01*
X150849965Y-22320217D01*
X150849032Y-22322203D01*
X150849032Y-22322204D01*
X150798269Y-22430326D01*
X150798268Y-22430329D01*
X150797339Y-22432308D01*
X150797002Y-22434470D01*
X150797002Y-22434471D01*
X150785830Y-22506227D01*
X150778288Y-22554664D01*
X150794344Y-22677449D01*
X150844216Y-22790793D01*
X150845622Y-22792465D01*
X150845624Y-22792469D01*
X150870369Y-22821906D01*
X150923895Y-22885583D01*
X150925722Y-22886799D01*
X150925724Y-22886801D01*
X150941309Y-22897175D01*
X151026976Y-22954200D01*
X151029068Y-22954854D01*
X151029069Y-22954854D01*
X151048181Y-22960825D01*
X151145173Y-22991127D01*
X151188728Y-22991925D01*
X151266793Y-22993356D01*
X151266794Y-22993356D01*
X151268982Y-22993396D01*
X151271094Y-22992820D01*
X151271096Y-22992820D01*
X151312155Y-22981626D01*
X151388452Y-22960825D01*
X151390314Y-22959682D01*
X151390318Y-22959680D01*
X151492116Y-22897175D01*
X151492117Y-22897175D01*
X151493979Y-22896031D01*
X151560071Y-22823014D01*
X151582869Y-22812900D01*
X152989572Y-22812900D01*
X153011316Y-22821906D01*
X153020322Y-22843677D01*
X153019926Y-23287897D01*
X153016303Y-27356377D01*
X153007277Y-27378113D01*
X152985553Y-27387100D01*
X151715172Y-27387100D01*
X151691877Y-27376423D01*
X151688536Y-27372546D01*
X151687105Y-27370885D01*
X151685267Y-27369693D01*
X151685265Y-27369692D01*
X151585032Y-27304724D01*
X151585030Y-27304723D01*
X151583194Y-27303533D01*
X151516354Y-27283543D01*
X151466656Y-27268680D01*
X151466654Y-27268680D01*
X151464555Y-27268052D01*
X151403093Y-27267677D01*
X151342923Y-27267309D01*
X151342920Y-27267309D01*
X151340727Y-27267296D01*
X151221664Y-27301324D01*
X151178135Y-27328789D01*
X151118789Y-27366233D01*
X151118787Y-27366235D01*
X151116937Y-27367402D01*
X151034965Y-27460217D01*
X151034032Y-27462203D01*
X151034032Y-27462204D01*
X150983269Y-27570326D01*
X150983268Y-27570329D01*
X150982339Y-27572308D01*
X150963288Y-27694664D01*
X150979344Y-27817449D01*
X151008034Y-27882653D01*
X151016506Y-27901906D01*
X151029216Y-27930793D01*
X151030622Y-27932465D01*
X151030624Y-27932469D01*
X151094501Y-28008459D01*
X151108895Y-28025583D01*
X151110722Y-28026799D01*
X151110724Y-28026801D01*
X151126309Y-28037175D01*
X151211976Y-28094200D01*
X151214068Y-28094854D01*
X151214069Y-28094854D01*
X151233181Y-28100825D01*
X151330173Y-28131127D01*
X151373728Y-28131925D01*
X151451793Y-28133356D01*
X151451794Y-28133356D01*
X151453982Y-28133396D01*
X151456094Y-28132820D01*
X151456096Y-28132820D01*
X151497155Y-28121626D01*
X151573452Y-28100825D01*
X151575314Y-28099682D01*
X151575318Y-28099680D01*
X151677116Y-28037175D01*
X151677117Y-28037175D01*
X151678979Y-28036031D01*
X151740275Y-27968313D01*
X151760613Y-27945844D01*
X151760614Y-27945842D01*
X151762078Y-27944225D01*
X151772035Y-27923675D01*
X151778543Y-27910242D01*
X151796129Y-27894602D01*
X151806216Y-27892900D01*
X152985049Y-27892900D01*
X153006793Y-27901906D01*
X153015798Y-27923675D01*
X153014570Y-29302906D01*
X153012932Y-31141702D01*
X153003926Y-31163419D01*
X152440927Y-31726418D01*
X152436267Y-31730242D01*
X152417669Y-31742669D01*
X152415986Y-31745188D01*
X152403560Y-31763785D01*
X152403558Y-31763787D01*
X152387839Y-31787313D01*
X152361773Y-31826323D01*
X152342145Y-31925000D01*
X152342736Y-31927971D01*
X152346509Y-31946940D01*
X152347100Y-31952939D01*
X152347100Y-32456414D01*
X152338094Y-32478158D01*
X152332758Y-32482420D01*
X152316937Y-32492402D01*
X152315491Y-32494039D01*
X152315489Y-32494041D01*
X152276958Y-32537669D01*
X152234965Y-32585217D01*
X152234032Y-32587203D01*
X152234032Y-32587204D01*
X152183269Y-32695326D01*
X152183268Y-32695329D01*
X152182339Y-32697308D01*
X152182002Y-32699470D01*
X152182002Y-32699471D01*
X152166194Y-32801001D01*
X152163288Y-32819664D01*
X152172615Y-32890993D01*
X152178007Y-32932222D01*
X152179344Y-32942449D01*
X152206595Y-33004382D01*
X152223543Y-33042899D01*
X152229216Y-33055793D01*
X152230622Y-33057465D01*
X152230624Y-33057469D01*
X152302018Y-33142402D01*
X152308895Y-33150583D01*
X152310722Y-33151799D01*
X152310724Y-33151801D01*
X152326309Y-33162175D01*
X152411976Y-33219200D01*
X152414068Y-33219854D01*
X152414069Y-33219854D01*
X152469604Y-33237204D01*
X152530173Y-33256127D01*
X152573728Y-33256925D01*
X152651793Y-33258356D01*
X152651794Y-33258356D01*
X152653982Y-33258396D01*
X152656094Y-33257820D01*
X152656096Y-33257820D01*
X152715252Y-33241692D01*
X152773452Y-33225825D01*
X152775314Y-33224682D01*
X152775318Y-33224680D01*
X152877116Y-33162175D01*
X152877117Y-33162175D01*
X152878979Y-33161031D01*
X152933842Y-33100420D01*
X152957646Y-33074122D01*
X152978915Y-33064046D01*
X153001080Y-33071960D01*
X153011194Y-33094784D01*
X153011048Y-33258356D01*
X153010905Y-33418729D01*
X153001899Y-33440446D01*
X152733317Y-33709028D01*
X152711386Y-33718033D01*
X152656319Y-33717696D01*
X152592923Y-33717309D01*
X152592920Y-33717309D01*
X152590727Y-33717296D01*
X152471664Y-33751324D01*
X152468818Y-33753120D01*
X152368789Y-33816233D01*
X152368787Y-33816235D01*
X152366937Y-33817402D01*
X152322205Y-33868052D01*
X152305731Y-33886705D01*
X152282683Y-33897100D01*
X144617493Y-33897100D01*
X144595749Y-33888094D01*
X141963582Y-31255927D01*
X141959758Y-31251267D01*
X141949015Y-31235189D01*
X141949014Y-31235188D01*
X141947331Y-31232669D01*
X141926214Y-31218559D01*
X141926213Y-31218558D01*
X141908876Y-31206974D01*
X141866195Y-31178455D01*
X141866193Y-31178454D01*
X141863677Y-31176773D01*
X141765000Y-31157145D01*
X141762029Y-31157736D01*
X141743060Y-31161509D01*
X141737061Y-31162100D01*
X140644140Y-31162100D01*
X140622396Y-31153094D01*
X140614702Y-31140238D01*
X140582146Y-31032407D01*
X140581714Y-31030975D01*
X140489379Y-30857318D01*
X140437130Y-30793255D01*
X140366022Y-30706067D01*
X140366018Y-30706063D01*
X140365072Y-30704903D01*
X140241819Y-30602939D01*
X140214690Y-30580496D01*
X140214688Y-30580495D01*
X140213528Y-30579535D01*
X140040520Y-30485990D01*
X139852637Y-30427830D01*
X139657035Y-30407272D01*
X139655540Y-30407408D01*
X139655538Y-30407408D01*
X139462668Y-30424960D01*
X139462665Y-30424961D01*
X139461166Y-30425097D01*
X139272489Y-30480628D01*
X139271160Y-30481323D01*
X139271157Y-30481324D01*
X139172522Y-30532889D01*
X139098192Y-30571748D01*
X139097027Y-30572685D01*
X139097025Y-30572686D01*
X138946078Y-30694050D01*
X138946075Y-30694053D01*
X138944912Y-30694988D01*
X138943952Y-30696132D01*
X138943950Y-30696134D01*
X138829676Y-30832321D01*
X138818489Y-30845653D01*
X138723739Y-31018004D01*
X138664269Y-31205476D01*
X138642345Y-31400930D01*
X138642471Y-31402431D01*
X138649953Y-31491524D01*
X138658803Y-31596919D01*
X138680090Y-31671155D01*
X138709087Y-31772279D01*
X138713015Y-31785979D01*
X138802916Y-31960908D01*
X138803850Y-31962086D01*
X138803851Y-31962088D01*
X138924151Y-32113869D01*
X138924155Y-32113873D01*
X138925083Y-32115044D01*
X139074862Y-32242516D01*
X139076168Y-32243246D01*
X139076171Y-32243248D01*
X139245233Y-32337733D01*
X139245236Y-32337734D01*
X139246547Y-32338467D01*
X139433600Y-32399244D01*
X139542794Y-32412265D01*
X139627407Y-32422355D01*
X139627411Y-32422355D01*
X139628895Y-32422532D01*
X139630390Y-32422417D01*
X139630393Y-32422417D01*
X139823490Y-32407559D01*
X139823493Y-32407559D01*
X139824994Y-32407443D01*
X139826442Y-32407039D01*
X139826446Y-32407038D01*
X139935374Y-32376624D01*
X140014428Y-32354552D01*
X140189981Y-32265874D01*
X140344966Y-32144786D01*
X140387295Y-32095748D01*
X140472501Y-31997035D01*
X140473480Y-31995901D01*
X140513758Y-31925000D01*
X140569886Y-31826196D01*
X140570628Y-31824890D01*
X140571103Y-31823463D01*
X140615852Y-31688944D01*
X140631262Y-31671155D01*
X140645030Y-31667900D01*
X141647507Y-31667900D01*
X141669251Y-31676906D01*
X144301418Y-34309073D01*
X144305242Y-34313733D01*
X144317669Y-34332331D01*
X144320188Y-34334014D01*
X144338786Y-34346441D01*
X144338787Y-34346442D01*
X144390197Y-34380793D01*
X144398805Y-34386545D01*
X144398807Y-34386546D01*
X144401323Y-34388227D01*
X144468921Y-34401673D01*
X144500000Y-34407855D01*
X144502971Y-34407264D01*
X144521940Y-34403491D01*
X144527939Y-34402900D01*
X152283476Y-34402900D01*
X152305220Y-34411906D01*
X152307015Y-34413864D01*
X152351696Y-34467019D01*
X152358895Y-34475583D01*
X152360722Y-34476799D01*
X152360724Y-34476801D01*
X152441835Y-34530793D01*
X152461976Y-34544200D01*
X152464068Y-34544854D01*
X152464069Y-34544854D01*
X152483181Y-34550825D01*
X152580173Y-34581127D01*
X152623728Y-34581925D01*
X152701793Y-34583356D01*
X152701794Y-34583356D01*
X152703982Y-34583396D01*
X152706094Y-34582820D01*
X152706096Y-34582820D01*
X152747155Y-34571626D01*
X152823452Y-34550825D01*
X152825314Y-34549682D01*
X152825318Y-34549680D01*
X152927116Y-34487175D01*
X152927117Y-34487175D01*
X152928979Y-34486031D01*
X152930446Y-34484410D01*
X152930450Y-34484407D01*
X152956417Y-34455720D01*
X152977686Y-34445644D01*
X152999850Y-34453559D01*
X153009963Y-34476382D01*
X153009571Y-34917533D01*
X153009407Y-35101042D01*
X153000381Y-35122778D01*
X152978630Y-35131765D01*
X152955362Y-35121087D01*
X152913538Y-35072548D01*
X152912105Y-35070885D01*
X152910267Y-35069693D01*
X152910265Y-35069692D01*
X152810032Y-35004724D01*
X152810030Y-35004723D01*
X152808194Y-35003533D01*
X152741354Y-34983543D01*
X152691656Y-34968680D01*
X152691654Y-34968680D01*
X152689555Y-34968052D01*
X152628093Y-34967677D01*
X152567923Y-34967309D01*
X152567920Y-34967309D01*
X152565727Y-34967296D01*
X152563617Y-34967899D01*
X152451297Y-35000000D01*
X152446664Y-35001324D01*
X152417597Y-35019664D01*
X152343789Y-35066233D01*
X152343787Y-35066235D01*
X152341937Y-35067402D01*
X152259965Y-35160217D01*
X152259032Y-35162203D01*
X152259032Y-35162204D01*
X152208269Y-35270326D01*
X152208268Y-35270329D01*
X152207339Y-35272308D01*
X152207002Y-35274470D01*
X152207002Y-35274471D01*
X152193525Y-35361031D01*
X152188288Y-35394664D01*
X152192213Y-35424679D01*
X152203066Y-35507673D01*
X152204344Y-35517449D01*
X152254216Y-35630793D01*
X152293177Y-35677142D01*
X152314889Y-35702972D01*
X152322100Y-35722758D01*
X152322100Y-37906414D01*
X152313094Y-37928158D01*
X152307758Y-37932420D01*
X152291937Y-37942402D01*
X152290491Y-37944039D01*
X152290489Y-37944041D01*
X152248683Y-37991377D01*
X152209965Y-38035217D01*
X152209032Y-38037203D01*
X152209032Y-38037204D01*
X152158269Y-38145326D01*
X152158268Y-38145329D01*
X152157339Y-38147308D01*
X152157002Y-38149470D01*
X152157002Y-38149471D01*
X152140635Y-38254593D01*
X152138288Y-38269664D01*
X152138573Y-38271840D01*
X152153458Y-38385671D01*
X152154344Y-38392449D01*
X152186048Y-38464503D01*
X152198345Y-38492449D01*
X152204216Y-38505793D01*
X152205622Y-38507465D01*
X152205624Y-38507469D01*
X152280432Y-38596463D01*
X152283895Y-38600583D01*
X152285722Y-38601799D01*
X152285724Y-38601801D01*
X152340111Y-38638004D01*
X152386976Y-38669200D01*
X152389068Y-38669854D01*
X152389069Y-38669854D01*
X152408181Y-38675825D01*
X152505173Y-38706127D01*
X152548728Y-38706925D01*
X152626793Y-38708356D01*
X152626794Y-38708356D01*
X152628982Y-38708396D01*
X152631094Y-38707820D01*
X152631096Y-38707820D01*
X152672155Y-38696626D01*
X152748452Y-38675825D01*
X152750314Y-38674682D01*
X152750318Y-38674680D01*
X152852116Y-38612175D01*
X152852117Y-38612175D01*
X152853979Y-38611031D01*
X152920071Y-38538014D01*
X152942869Y-38527900D01*
X152975579Y-38527900D01*
X152997323Y-38536906D01*
X153006328Y-38558675D01*
X153005686Y-39280048D01*
X153004994Y-40056377D01*
X152995968Y-40078113D01*
X152974244Y-40087100D01*
X148932493Y-40087100D01*
X148910749Y-40078094D01*
X148520491Y-39687836D01*
X148511485Y-39666092D01*
X148511911Y-39660990D01*
X148518918Y-39619339D01*
X148519115Y-39618171D01*
X148519245Y-39607500D01*
X148518793Y-39604340D01*
X148502001Y-39487093D01*
X148501690Y-39484920D01*
X148450437Y-39372195D01*
X148369605Y-39278385D01*
X148367767Y-39277193D01*
X148367765Y-39277192D01*
X148267532Y-39212224D01*
X148267530Y-39212223D01*
X148265694Y-39211033D01*
X148198854Y-39191043D01*
X148149156Y-39176180D01*
X148149154Y-39176180D01*
X148147055Y-39175552D01*
X148085593Y-39175177D01*
X148025423Y-39174809D01*
X148025420Y-39174809D01*
X148023227Y-39174796D01*
X147904164Y-39208824D01*
X147851801Y-39241863D01*
X147801289Y-39273733D01*
X147801287Y-39273735D01*
X147799437Y-39274902D01*
X147717465Y-39367717D01*
X147716532Y-39369703D01*
X147716532Y-39369704D01*
X147665769Y-39477826D01*
X147665768Y-39477829D01*
X147664839Y-39479808D01*
X147664502Y-39481970D01*
X147664502Y-39481971D01*
X147648914Y-39582088D01*
X147645788Y-39602164D01*
X147661844Y-39724949D01*
X147711716Y-39838293D01*
X147713122Y-39839965D01*
X147713124Y-39839969D01*
X147752284Y-39886555D01*
X147791395Y-39933083D01*
X147793222Y-39934299D01*
X147793224Y-39934301D01*
X147853692Y-39974552D01*
X147894476Y-40001700D01*
X147896568Y-40002354D01*
X147896569Y-40002354D01*
X147976875Y-40027443D01*
X148012673Y-40038627D01*
X148060949Y-40039512D01*
X148134294Y-40040856D01*
X148134295Y-40040856D01*
X148136482Y-40040896D01*
X148138593Y-40040320D01*
X148140636Y-40040066D01*
X148163326Y-40046316D01*
X148166181Y-40048836D01*
X148616418Y-40499073D01*
X148620242Y-40503733D01*
X148632669Y-40522331D01*
X148641110Y-40527971D01*
X148653786Y-40536441D01*
X148653787Y-40536442D01*
X148673945Y-40549911D01*
X148713805Y-40576545D01*
X148713807Y-40576546D01*
X148716323Y-40578227D01*
X148764601Y-40587830D01*
X148815000Y-40597855D01*
X148817971Y-40597264D01*
X148836939Y-40593491D01*
X148842938Y-40592900D01*
X152973740Y-40592900D01*
X152995484Y-40601906D01*
X153004489Y-40623676D01*
X153001475Y-44008463D01*
X152998003Y-47907377D01*
X152988977Y-47929113D01*
X152967253Y-47938100D01*
X100183650Y-47938100D01*
X100161906Y-47929094D01*
X100152900Y-47907350D01*
X100152900Y-42734943D01*
X101247100Y-42734943D01*
X101247101Y-44465056D01*
X101247396Y-44466537D01*
X101247396Y-44466541D01*
X101255381Y-44506687D01*
X101255972Y-44509658D01*
X101257653Y-44512173D01*
X101257653Y-44512174D01*
X101263633Y-44521123D01*
X101289766Y-44560234D01*
X101340342Y-44594028D01*
X101343313Y-44594619D01*
X101383459Y-44602605D01*
X101383461Y-44602605D01*
X101384943Y-44602900D01*
X101870589Y-44602900D01*
X101892333Y-44611906D01*
X101901126Y-44630036D01*
X101906426Y-44674817D01*
X101907524Y-44677103D01*
X101907524Y-44677104D01*
X101908217Y-44678546D01*
X101910831Y-44686812D01*
X101911510Y-44690891D01*
X101930480Y-44726049D01*
X101935112Y-44734634D01*
X101935770Y-44735925D01*
X101957283Y-44780725D01*
X101960623Y-44784699D01*
X101961083Y-44785159D01*
X101961545Y-44785663D01*
X101961436Y-44785763D01*
X101966023Y-44791922D01*
X101967298Y-44794286D01*
X101969164Y-44796011D01*
X101969165Y-44796012D01*
X102005356Y-44829466D01*
X102006227Y-44830303D01*
X103146511Y-45970587D01*
X103150600Y-45975651D01*
X103160375Y-45990790D01*
X103162373Y-45992365D01*
X103188893Y-46013272D01*
X103191600Y-46015676D01*
X103196193Y-46020269D01*
X103197223Y-46021005D01*
X103197230Y-46021011D01*
X103212454Y-46031890D01*
X103213611Y-46032758D01*
X103252638Y-46063525D01*
X103255035Y-46064367D01*
X103255037Y-46064368D01*
X103256549Y-46064899D01*
X103264231Y-46068890D01*
X103265497Y-46069794D01*
X103267599Y-46071296D01*
X103270030Y-46072023D01*
X103315228Y-46085541D01*
X103316605Y-46085989D01*
X103338205Y-46093574D01*
X103363487Y-46102452D01*
X103365413Y-46102619D01*
X103365414Y-46102619D01*
X103367997Y-46102843D01*
X103368005Y-46102843D01*
X103368659Y-46102900D01*
X103369318Y-46102900D01*
X103369990Y-46102929D01*
X103369984Y-46103077D01*
X103377583Y-46104189D01*
X103380158Y-46104959D01*
X103431946Y-46102924D01*
X103433153Y-46102900D01*
X112759055Y-46102900D01*
X112765527Y-46103589D01*
X112780659Y-46106847D01*
X112780661Y-46106847D01*
X112783146Y-46107382D01*
X112819217Y-46103113D01*
X112822831Y-46102900D01*
X112829318Y-46102900D01*
X112830565Y-46102692D01*
X112830570Y-46102692D01*
X112843255Y-46100580D01*
X112849042Y-46099617D01*
X112850461Y-46099415D01*
X112899817Y-46093574D01*
X112903548Y-46091782D01*
X112911812Y-46089169D01*
X112915891Y-46088490D01*
X112956930Y-46066347D01*
X112959634Y-46064888D01*
X112960925Y-46064230D01*
X113003987Y-46043552D01*
X113003990Y-46043550D01*
X113005725Y-46042717D01*
X113009699Y-46039377D01*
X113010159Y-46038917D01*
X113010663Y-46038455D01*
X113010763Y-46038564D01*
X113016922Y-46033977D01*
X113019286Y-46032702D01*
X113035025Y-46015676D01*
X113054466Y-45994644D01*
X113055303Y-45993773D01*
X113965587Y-45083489D01*
X113970651Y-45079400D01*
X113983654Y-45071004D01*
X113985790Y-45069625D01*
X114008273Y-45041106D01*
X114010676Y-45038400D01*
X114015269Y-45033807D01*
X114016005Y-45032777D01*
X114016011Y-45032770D01*
X114026890Y-45017546D01*
X114027760Y-45016387D01*
X114056950Y-44979360D01*
X114058525Y-44977362D01*
X114059899Y-44973451D01*
X114063890Y-44965769D01*
X114064819Y-44964468D01*
X114066296Y-44962401D01*
X114080541Y-44914772D01*
X114080989Y-44913395D01*
X114096811Y-44868338D01*
X114097452Y-44866513D01*
X114097900Y-44861341D01*
X114097900Y-44860682D01*
X114097929Y-44860010D01*
X114098077Y-44860016D01*
X114099189Y-44852417D01*
X114099230Y-44852279D01*
X114099959Y-44849842D01*
X114097924Y-44798054D01*
X114097900Y-44796847D01*
X114097900Y-44608649D01*
X114106906Y-44586905D01*
X114128650Y-44577899D01*
X114610056Y-44577899D01*
X114611537Y-44577604D01*
X114611541Y-44577604D01*
X114651688Y-44569619D01*
X114651689Y-44569618D01*
X114654658Y-44569028D01*
X114664379Y-44562533D01*
X114679598Y-44552363D01*
X114705234Y-44535234D01*
X114739028Y-44484658D01*
X114746519Y-44447001D01*
X114747605Y-44441541D01*
X114747605Y-44441539D01*
X114747900Y-44440057D01*
X114747899Y-43560930D01*
X115277345Y-43560930D01*
X115277471Y-43562431D01*
X115288058Y-43688500D01*
X115293803Y-43756919D01*
X115348015Y-43945979D01*
X115437916Y-44120908D01*
X115438850Y-44122086D01*
X115438851Y-44122088D01*
X115559151Y-44273869D01*
X115559155Y-44273873D01*
X115560083Y-44275044D01*
X115709862Y-44402516D01*
X115711168Y-44403246D01*
X115711171Y-44403248D01*
X115880233Y-44497733D01*
X115880236Y-44497734D01*
X115881547Y-44498467D01*
X116068600Y-44559244D01*
X116177794Y-44572265D01*
X116262407Y-44582355D01*
X116262411Y-44582355D01*
X116263895Y-44582532D01*
X116265390Y-44582417D01*
X116265393Y-44582417D01*
X116458490Y-44567559D01*
X116458493Y-44567559D01*
X116459994Y-44567443D01*
X116461442Y-44567039D01*
X116461446Y-44567038D01*
X116570995Y-44536451D01*
X116649428Y-44514552D01*
X116820281Y-44428248D01*
X116823633Y-44426555D01*
X116823634Y-44426555D01*
X116824981Y-44425874D01*
X116979966Y-44304786D01*
X116985074Y-44298869D01*
X117095452Y-44170994D01*
X117108480Y-44155901D01*
X117113487Y-44147088D01*
X117204886Y-43986196D01*
X117205628Y-43984890D01*
X117206847Y-43981227D01*
X117267237Y-43799689D01*
X117267238Y-43799685D01*
X117267710Y-43798266D01*
X117269965Y-43780421D01*
X117284092Y-43668586D01*
X117802200Y-43668586D01*
X117809859Y-43759792D01*
X117810399Y-43762733D01*
X117865085Y-43953450D01*
X117866185Y-43956227D01*
X117956873Y-44132688D01*
X117958496Y-44135206D01*
X118081732Y-44290691D01*
X118083807Y-44292838D01*
X118234899Y-44421429D01*
X118237350Y-44423133D01*
X118410538Y-44519924D01*
X118413283Y-44521123D01*
X118601973Y-44582432D01*
X118604888Y-44583073D01*
X118730426Y-44598043D01*
X118734933Y-44596776D01*
X118736500Y-44593984D01*
X118736500Y-44592153D01*
X118913500Y-44592153D01*
X118915025Y-44595835D01*
X118920212Y-44597754D01*
X119002696Y-44591407D01*
X119005652Y-44590886D01*
X119196737Y-44537533D01*
X119199527Y-44536451D01*
X119376609Y-44447001D01*
X119379146Y-44445391D01*
X119535482Y-44323248D01*
X119537646Y-44321188D01*
X119667289Y-44170994D01*
X119669009Y-44168556D01*
X119767009Y-43996046D01*
X119768226Y-43993313D01*
X119830851Y-43805054D01*
X119831512Y-43802145D01*
X119848260Y-43669568D01*
X119847025Y-43665053D01*
X119844303Y-43663500D01*
X118919617Y-43663500D01*
X118915292Y-43665292D01*
X118913500Y-43669617D01*
X118913500Y-44592153D01*
X118736500Y-44592153D01*
X118736500Y-43669617D01*
X118734708Y-43665292D01*
X118730383Y-43663500D01*
X117807890Y-43663500D01*
X117803565Y-43665292D01*
X117802200Y-43668586D01*
X117284092Y-43668586D01*
X117292254Y-43603977D01*
X117292360Y-43603138D01*
X117292753Y-43575000D01*
X117291521Y-43562431D01*
X117291374Y-43560930D01*
X120357345Y-43560930D01*
X120357471Y-43562431D01*
X120368058Y-43688500D01*
X120373803Y-43756919D01*
X120428015Y-43945979D01*
X120517916Y-44120908D01*
X120518850Y-44122086D01*
X120518851Y-44122088D01*
X120639151Y-44273869D01*
X120639155Y-44273873D01*
X120640083Y-44275044D01*
X120789862Y-44402516D01*
X120791168Y-44403246D01*
X120791171Y-44403248D01*
X120960233Y-44497733D01*
X120960236Y-44497734D01*
X120961547Y-44498467D01*
X121148600Y-44559244D01*
X121257794Y-44572265D01*
X121342407Y-44582355D01*
X121342411Y-44582355D01*
X121343895Y-44582532D01*
X121345390Y-44582417D01*
X121345393Y-44582417D01*
X121538490Y-44567559D01*
X121538493Y-44567559D01*
X121539994Y-44567443D01*
X121541442Y-44567039D01*
X121541446Y-44567038D01*
X121650995Y-44536451D01*
X121729428Y-44514552D01*
X121900281Y-44428248D01*
X121903633Y-44426555D01*
X121903634Y-44426555D01*
X121904981Y-44425874D01*
X122059966Y-44304786D01*
X122065074Y-44298869D01*
X122175452Y-44170994D01*
X122188480Y-44155901D01*
X122193487Y-44147088D01*
X122284886Y-43986196D01*
X122285628Y-43984890D01*
X122286847Y-43981227D01*
X122347237Y-43799689D01*
X122347238Y-43799685D01*
X122347710Y-43798266D01*
X122349965Y-43780421D01*
X122372254Y-43603977D01*
X122372360Y-43603138D01*
X122372753Y-43575000D01*
X122371521Y-43562431D01*
X122353708Y-43380756D01*
X122353707Y-43380753D01*
X122353561Y-43379260D01*
X122353129Y-43377829D01*
X122353128Y-43377824D01*
X122301908Y-43208179D01*
X122296714Y-43190975D01*
X122281428Y-43162226D01*
X122205085Y-43018645D01*
X122205083Y-43018642D01*
X122204379Y-43017318D01*
X122100462Y-42889903D01*
X122081022Y-42866067D01*
X122081018Y-42866063D01*
X122080072Y-42864903D01*
X122078913Y-42863944D01*
X121929690Y-42740496D01*
X121929688Y-42740495D01*
X121928528Y-42739535D01*
X121755520Y-42645990D01*
X121567637Y-42587830D01*
X121372035Y-42567272D01*
X121370540Y-42567408D01*
X121370538Y-42567408D01*
X121177668Y-42584960D01*
X121177665Y-42584961D01*
X121176166Y-42585097D01*
X120987489Y-42640628D01*
X120986160Y-42641323D01*
X120986157Y-42641324D01*
X120928042Y-42671706D01*
X120813192Y-42731748D01*
X120812027Y-42732685D01*
X120812025Y-42732686D01*
X120661078Y-42854050D01*
X120661075Y-42854053D01*
X120659912Y-42854988D01*
X120658952Y-42856132D01*
X120658950Y-42856134D01*
X120630615Y-42889903D01*
X120533489Y-43005653D01*
X120438739Y-43178004D01*
X120379269Y-43365476D01*
X120357345Y-43560930D01*
X117291374Y-43560930D01*
X117283480Y-43480421D01*
X117802125Y-43480421D01*
X117803423Y-43484919D01*
X117806288Y-43486500D01*
X118730383Y-43486500D01*
X118734708Y-43484708D01*
X118736500Y-43480383D01*
X118913500Y-43480383D01*
X118915292Y-43484708D01*
X118919617Y-43486500D01*
X119842174Y-43486500D01*
X119846499Y-43484708D01*
X119847806Y-43481554D01*
X119837462Y-43376052D01*
X119836882Y-43373120D01*
X119779535Y-43183179D01*
X119778400Y-43180425D01*
X119685255Y-43005244D01*
X119683600Y-43002753D01*
X119558205Y-42849003D01*
X119556096Y-42846880D01*
X119403232Y-42720420D01*
X119400742Y-42718741D01*
X119226228Y-42624382D01*
X119223468Y-42623222D01*
X119033943Y-42564554D01*
X119031011Y-42563952D01*
X118919581Y-42552240D01*
X118915095Y-42553569D01*
X118913500Y-42556507D01*
X118913500Y-43480383D01*
X118736500Y-43480383D01*
X118736500Y-42557883D01*
X118734708Y-42553558D01*
X118731485Y-42552222D01*
X118633130Y-42561173D01*
X118630184Y-42561735D01*
X118439860Y-42617751D01*
X118437086Y-42618871D01*
X118261260Y-42710791D01*
X118258765Y-42712423D01*
X118104135Y-42836748D01*
X118102007Y-42838832D01*
X117974473Y-42990822D01*
X117972783Y-42993291D01*
X117877206Y-43167145D01*
X117876027Y-43169895D01*
X117816037Y-43359008D01*
X117815414Y-43361940D01*
X117802125Y-43480421D01*
X117283480Y-43480421D01*
X117273708Y-43380756D01*
X117273707Y-43380753D01*
X117273561Y-43379260D01*
X117273129Y-43377829D01*
X117273128Y-43377824D01*
X117221908Y-43208179D01*
X117216714Y-43190975D01*
X117201428Y-43162226D01*
X117125085Y-43018645D01*
X117125083Y-43018642D01*
X117124379Y-43017318D01*
X117020462Y-42889903D01*
X117001022Y-42866067D01*
X117001018Y-42866063D01*
X117000072Y-42864903D01*
X116998913Y-42863944D01*
X116849690Y-42740496D01*
X116849688Y-42740495D01*
X116848528Y-42739535D01*
X116675520Y-42645990D01*
X116487637Y-42587830D01*
X116292035Y-42567272D01*
X116290540Y-42567408D01*
X116290538Y-42567408D01*
X116097668Y-42584960D01*
X116097665Y-42584961D01*
X116096166Y-42585097D01*
X115907489Y-42640628D01*
X115906160Y-42641323D01*
X115906157Y-42641324D01*
X115848042Y-42671706D01*
X115733192Y-42731748D01*
X115732027Y-42732685D01*
X115732025Y-42732686D01*
X115581078Y-42854050D01*
X115581075Y-42854053D01*
X115579912Y-42854988D01*
X115578952Y-42856132D01*
X115578950Y-42856134D01*
X115550615Y-42889903D01*
X115453489Y-43005653D01*
X115358739Y-43178004D01*
X115299269Y-43365476D01*
X115277345Y-43560930D01*
X114747899Y-43560930D01*
X114747899Y-42709944D01*
X114744592Y-42693313D01*
X114739619Y-42668312D01*
X114739618Y-42668311D01*
X114739028Y-42665342D01*
X114705234Y-42614766D01*
X114654658Y-42580972D01*
X114642578Y-42578569D01*
X114611541Y-42572395D01*
X114611539Y-42572395D01*
X114610057Y-42572100D01*
X114608544Y-42572100D01*
X113745001Y-42572101D01*
X112879944Y-42572101D01*
X112878463Y-42572396D01*
X112878459Y-42572396D01*
X112838312Y-42580381D01*
X112838311Y-42580382D01*
X112835342Y-42580972D01*
X112832827Y-42582653D01*
X112832826Y-42582653D01*
X112828532Y-42585522D01*
X112784766Y-42614766D01*
X112750972Y-42665342D01*
X112750381Y-42668312D01*
X112750381Y-42668313D01*
X112749849Y-42670990D01*
X112742100Y-42709943D01*
X112742101Y-44440056D01*
X112742396Y-44441537D01*
X112742396Y-44441541D01*
X112750381Y-44481687D01*
X112750972Y-44484658D01*
X112784766Y-44535234D01*
X112835342Y-44569028D01*
X112838313Y-44569619D01*
X112878459Y-44577605D01*
X112878461Y-44577605D01*
X112879943Y-44577900D01*
X113361350Y-44577900D01*
X113383094Y-44586906D01*
X113392100Y-44608650D01*
X113392100Y-44646086D01*
X113383094Y-44667830D01*
X112662830Y-45388094D01*
X112641086Y-45397100D01*
X103583914Y-45397100D01*
X103562170Y-45388094D01*
X102829469Y-44655393D01*
X102820463Y-44633649D01*
X102829469Y-44611905D01*
X102851213Y-44602899D01*
X103115056Y-44602899D01*
X103116537Y-44602604D01*
X103116541Y-44602604D01*
X103156688Y-44594619D01*
X103156689Y-44594618D01*
X103159658Y-44594028D01*
X103164361Y-44590886D01*
X103207715Y-44561917D01*
X103210234Y-44560234D01*
X103244028Y-44509658D01*
X103252900Y-44465057D01*
X103252899Y-43585930D01*
X103782345Y-43585930D01*
X103782471Y-43587431D01*
X103796704Y-43756919D01*
X103798803Y-43781919D01*
X103825909Y-43876449D01*
X103847989Y-43953450D01*
X103853015Y-43970979D01*
X103942916Y-44145908D01*
X103943850Y-44147086D01*
X103943851Y-44147088D01*
X104064151Y-44298869D01*
X104064155Y-44298873D01*
X104065083Y-44300044D01*
X104214862Y-44427516D01*
X104216168Y-44428246D01*
X104216171Y-44428248D01*
X104385233Y-44522733D01*
X104385236Y-44522734D01*
X104386547Y-44523467D01*
X104573600Y-44584244D01*
X104682794Y-44597265D01*
X104767407Y-44607355D01*
X104767411Y-44607355D01*
X104768895Y-44607532D01*
X104770390Y-44607417D01*
X104770393Y-44607417D01*
X104963490Y-44592559D01*
X104963493Y-44592559D01*
X104964994Y-44592443D01*
X104966442Y-44592039D01*
X104966446Y-44592038D01*
X105075995Y-44561451D01*
X105154428Y-44539552D01*
X105268980Y-44481688D01*
X105328633Y-44451555D01*
X105328634Y-44451555D01*
X105329981Y-44450874D01*
X105484966Y-44329786D01*
X105490610Y-44323248D01*
X105600452Y-44195994D01*
X105613480Y-44180901D01*
X105625237Y-44160206D01*
X105709886Y-44011196D01*
X105710628Y-44009890D01*
X105711103Y-44008463D01*
X105772237Y-43824689D01*
X105772238Y-43824685D01*
X105772710Y-43823266D01*
X105775689Y-43799689D01*
X105797254Y-43628977D01*
X105797360Y-43628138D01*
X105797753Y-43600000D01*
X105796521Y-43587431D01*
X105796374Y-43585930D01*
X106322345Y-43585930D01*
X106322471Y-43587431D01*
X106336704Y-43756919D01*
X106338803Y-43781919D01*
X106365909Y-43876449D01*
X106387989Y-43953450D01*
X106393015Y-43970979D01*
X106482916Y-44145908D01*
X106483850Y-44147086D01*
X106483851Y-44147088D01*
X106604151Y-44298869D01*
X106604155Y-44298873D01*
X106605083Y-44300044D01*
X106754862Y-44427516D01*
X106756168Y-44428246D01*
X106756171Y-44428248D01*
X106925233Y-44522733D01*
X106925236Y-44522734D01*
X106926547Y-44523467D01*
X107113600Y-44584244D01*
X107222794Y-44597265D01*
X107307407Y-44607355D01*
X107307411Y-44607355D01*
X107308895Y-44607532D01*
X107310390Y-44607417D01*
X107310393Y-44607417D01*
X107503490Y-44592559D01*
X107503493Y-44592559D01*
X107504994Y-44592443D01*
X107506442Y-44592039D01*
X107506446Y-44592038D01*
X107615995Y-44561451D01*
X107694428Y-44539552D01*
X107808980Y-44481688D01*
X107868633Y-44451555D01*
X107868634Y-44451555D01*
X107869981Y-44450874D01*
X108024966Y-44329786D01*
X108030610Y-44323248D01*
X108140452Y-44195994D01*
X108153480Y-44180901D01*
X108165237Y-44160206D01*
X108249886Y-44011196D01*
X108250628Y-44009890D01*
X108251103Y-44008463D01*
X108312237Y-43824689D01*
X108312238Y-43824685D01*
X108312710Y-43823266D01*
X108315689Y-43799689D01*
X108329092Y-43693586D01*
X108847200Y-43693586D01*
X108854859Y-43784792D01*
X108855399Y-43787733D01*
X108910085Y-43978450D01*
X108911185Y-43981227D01*
X109001873Y-44157688D01*
X109003496Y-44160206D01*
X109126732Y-44315691D01*
X109128807Y-44317838D01*
X109279899Y-44446429D01*
X109282350Y-44448133D01*
X109455538Y-44544924D01*
X109458283Y-44546123D01*
X109646973Y-44607432D01*
X109649888Y-44608073D01*
X109775426Y-44623043D01*
X109779933Y-44621776D01*
X109781500Y-44618984D01*
X109781500Y-44617153D01*
X109958500Y-44617153D01*
X109960025Y-44620835D01*
X109965212Y-44622754D01*
X110047696Y-44616407D01*
X110050652Y-44615886D01*
X110241737Y-44562533D01*
X110244527Y-44561451D01*
X110421609Y-44472001D01*
X110424146Y-44470391D01*
X110580482Y-44348248D01*
X110582646Y-44346188D01*
X110712289Y-44195994D01*
X110714009Y-44193556D01*
X110812009Y-44021046D01*
X110813226Y-44018313D01*
X110875851Y-43830054D01*
X110876512Y-43827145D01*
X110893260Y-43694568D01*
X110892025Y-43690053D01*
X110889303Y-43688500D01*
X109964617Y-43688500D01*
X109960292Y-43690292D01*
X109958500Y-43694617D01*
X109958500Y-44617153D01*
X109781500Y-44617153D01*
X109781500Y-43694617D01*
X109779708Y-43690292D01*
X109775383Y-43688500D01*
X108852890Y-43688500D01*
X108848565Y-43690292D01*
X108847200Y-43693586D01*
X108329092Y-43693586D01*
X108337254Y-43628977D01*
X108337360Y-43628138D01*
X108337753Y-43600000D01*
X108336521Y-43587431D01*
X108328480Y-43505421D01*
X108847125Y-43505421D01*
X108848423Y-43509919D01*
X108851288Y-43511500D01*
X109775383Y-43511500D01*
X109779708Y-43509708D01*
X109781500Y-43505383D01*
X109958500Y-43505383D01*
X109960292Y-43509708D01*
X109964617Y-43511500D01*
X110887174Y-43511500D01*
X110891499Y-43509708D01*
X110892806Y-43506554D01*
X110882462Y-43401052D01*
X110881882Y-43398120D01*
X110824535Y-43208179D01*
X110823400Y-43205425D01*
X110730255Y-43030244D01*
X110728600Y-43027753D01*
X110603205Y-42874003D01*
X110601096Y-42871880D01*
X110448232Y-42745420D01*
X110445742Y-42743741D01*
X110271228Y-42649382D01*
X110268468Y-42648222D01*
X110078943Y-42589554D01*
X110076011Y-42588952D01*
X109964581Y-42577240D01*
X109960095Y-42578569D01*
X109958500Y-42581507D01*
X109958500Y-43505383D01*
X109781500Y-43505383D01*
X109781500Y-42582883D01*
X109779708Y-42578558D01*
X109776485Y-42577222D01*
X109678130Y-42586173D01*
X109675184Y-42586735D01*
X109484860Y-42642751D01*
X109482086Y-42643871D01*
X109306260Y-42735791D01*
X109303765Y-42737423D01*
X109149135Y-42861748D01*
X109147007Y-42863832D01*
X109019473Y-43015822D01*
X109017783Y-43018291D01*
X108922206Y-43192145D01*
X108921027Y-43194895D01*
X108861037Y-43384008D01*
X108860414Y-43386940D01*
X108847125Y-43505421D01*
X108328480Y-43505421D01*
X108318708Y-43405756D01*
X108318707Y-43405753D01*
X108318561Y-43404260D01*
X108318129Y-43402829D01*
X108318128Y-43402824D01*
X108262146Y-43217407D01*
X108261714Y-43215975D01*
X108242285Y-43179435D01*
X108170085Y-43043645D01*
X108170083Y-43043642D01*
X108169379Y-43042318D01*
X108117130Y-42978255D01*
X108046022Y-42891067D01*
X108046018Y-42891063D01*
X108045072Y-42889903D01*
X108013558Y-42863832D01*
X107894690Y-42765496D01*
X107894688Y-42765495D01*
X107893528Y-42764535D01*
X107720520Y-42670990D01*
X107532637Y-42612830D01*
X107337035Y-42592272D01*
X107335540Y-42592408D01*
X107335538Y-42592408D01*
X107142668Y-42609960D01*
X107142665Y-42609961D01*
X107141166Y-42610097D01*
X106952489Y-42665628D01*
X106951160Y-42666323D01*
X106951157Y-42666324D01*
X106867722Y-42709943D01*
X106778192Y-42756748D01*
X106777027Y-42757685D01*
X106777025Y-42757686D01*
X106626078Y-42879050D01*
X106626075Y-42879053D01*
X106624912Y-42879988D01*
X106623952Y-42881132D01*
X106623950Y-42881134D01*
X106531911Y-42990822D01*
X106498489Y-43030653D01*
X106403739Y-43203004D01*
X106344269Y-43390476D01*
X106322345Y-43585930D01*
X105796374Y-43585930D01*
X105778708Y-43405756D01*
X105778707Y-43405753D01*
X105778561Y-43404260D01*
X105778129Y-43402829D01*
X105778128Y-43402824D01*
X105722146Y-43217407D01*
X105721714Y-43215975D01*
X105702285Y-43179435D01*
X105630085Y-43043645D01*
X105630083Y-43043642D01*
X105629379Y-43042318D01*
X105577130Y-42978255D01*
X105506022Y-42891067D01*
X105506018Y-42891063D01*
X105505072Y-42889903D01*
X105473558Y-42863832D01*
X105354690Y-42765496D01*
X105354688Y-42765495D01*
X105353528Y-42764535D01*
X105180520Y-42670990D01*
X104992637Y-42612830D01*
X104797035Y-42592272D01*
X104795540Y-42592408D01*
X104795538Y-42592408D01*
X104602668Y-42609960D01*
X104602665Y-42609961D01*
X104601166Y-42610097D01*
X104412489Y-42665628D01*
X104411160Y-42666323D01*
X104411157Y-42666324D01*
X104327722Y-42709943D01*
X104238192Y-42756748D01*
X104237027Y-42757685D01*
X104237025Y-42757686D01*
X104086078Y-42879050D01*
X104086075Y-42879053D01*
X104084912Y-42879988D01*
X104083952Y-42881132D01*
X104083950Y-42881134D01*
X103991911Y-42990822D01*
X103958489Y-43030653D01*
X103863739Y-43203004D01*
X103804269Y-43390476D01*
X103782345Y-43585930D01*
X103252899Y-43585930D01*
X103252899Y-42734944D01*
X103252264Y-42731748D01*
X103244619Y-42693312D01*
X103244618Y-42693311D01*
X103244028Y-42690342D01*
X103210234Y-42639766D01*
X103159658Y-42605972D01*
X103156687Y-42605381D01*
X103116541Y-42597395D01*
X103116539Y-42597395D01*
X103115057Y-42597100D01*
X102633650Y-42597100D01*
X102611906Y-42588094D01*
X102602900Y-42566350D01*
X102602900Y-38369664D01*
X115863288Y-38369664D01*
X115866530Y-38394457D01*
X115875690Y-38464503D01*
X115879344Y-38492449D01*
X115899393Y-38538014D01*
X115926924Y-38600583D01*
X115929216Y-38605793D01*
X115930622Y-38607465D01*
X115930624Y-38607469D01*
X115987121Y-38674680D01*
X116008895Y-38700583D01*
X116010722Y-38701799D01*
X116010724Y-38701801D01*
X116026309Y-38712175D01*
X116111976Y-38769200D01*
X116114068Y-38769854D01*
X116114069Y-38769854D01*
X116133181Y-38775825D01*
X116230173Y-38806127D01*
X116273728Y-38806925D01*
X116351793Y-38808356D01*
X116351794Y-38808356D01*
X116353982Y-38808396D01*
X116356094Y-38807820D01*
X116356096Y-38807820D01*
X116397155Y-38796626D01*
X116473452Y-38775825D01*
X116475314Y-38774682D01*
X116475318Y-38774680D01*
X116577116Y-38712175D01*
X116577117Y-38712175D01*
X116578979Y-38711031D01*
X116610846Y-38675825D01*
X116660607Y-38620851D01*
X116660609Y-38620848D01*
X116662078Y-38619225D01*
X116701961Y-38536906D01*
X116715114Y-38509759D01*
X116715115Y-38509757D01*
X116716070Y-38507785D01*
X116716743Y-38503789D01*
X116724559Y-38457331D01*
X116736615Y-38385671D01*
X116736745Y-38375000D01*
X116736293Y-38371840D01*
X116721971Y-38271840D01*
X116719190Y-38252420D01*
X116667937Y-38139695D01*
X116650278Y-38119200D01*
X116588538Y-38047548D01*
X116587105Y-38045885D01*
X116585267Y-38044693D01*
X116585265Y-38044692D01*
X116573047Y-38036773D01*
X116566925Y-38032805D01*
X116553578Y-38013421D01*
X116552900Y-38007001D01*
X116552900Y-37928587D01*
X116561906Y-37906843D01*
X116583650Y-37897837D01*
X116605394Y-37906843D01*
X116611796Y-37916203D01*
X116629216Y-37955793D01*
X116630622Y-37957465D01*
X116630624Y-37957469D01*
X116697649Y-38037204D01*
X116708895Y-38050583D01*
X116710722Y-38051799D01*
X116710724Y-38051801D01*
X116810149Y-38117984D01*
X116811976Y-38119200D01*
X116814068Y-38119854D01*
X116814069Y-38119854D01*
X116869604Y-38137204D01*
X116930173Y-38156127D01*
X116973728Y-38156925D01*
X117051793Y-38158356D01*
X117051794Y-38158356D01*
X117053982Y-38158396D01*
X117056094Y-38157820D01*
X117056096Y-38157820D01*
X117097155Y-38146626D01*
X117173452Y-38125825D01*
X117175314Y-38124682D01*
X117175318Y-38124680D01*
X117277116Y-38062175D01*
X117277117Y-38062175D01*
X117278979Y-38061031D01*
X117304528Y-38032805D01*
X117360607Y-37970851D01*
X117360609Y-37970848D01*
X117362078Y-37969225D01*
X117416070Y-37857785D01*
X117436615Y-37735671D01*
X117436745Y-37725000D01*
X117429018Y-37671045D01*
X117434851Y-37648245D01*
X117437713Y-37644942D01*
X118684070Y-36398584D01*
X118688730Y-36394760D01*
X118704811Y-36384015D01*
X118704812Y-36384014D01*
X118707331Y-36382331D01*
X118763227Y-36298677D01*
X118777900Y-36224911D01*
X118782855Y-36200000D01*
X118778491Y-36178060D01*
X118777900Y-36172061D01*
X118777900Y-34669246D01*
X118786906Y-34647502D01*
X118792556Y-34643045D01*
X118803979Y-34636031D01*
X118831998Y-34605076D01*
X118885607Y-34545851D01*
X118885609Y-34545848D01*
X118887078Y-34544225D01*
X118915273Y-34486031D01*
X118940114Y-34434759D01*
X118940115Y-34434757D01*
X118941070Y-34432785D01*
X118943313Y-34419457D01*
X118951076Y-34373313D01*
X118961615Y-34310671D01*
X118961745Y-34300000D01*
X118961293Y-34296840D01*
X118945283Y-34185054D01*
X118944190Y-34177420D01*
X118892937Y-34064695D01*
X118876013Y-34045053D01*
X118813538Y-33972548D01*
X118812105Y-33970885D01*
X118810267Y-33969693D01*
X118810265Y-33969692D01*
X118710032Y-33904724D01*
X118710030Y-33904723D01*
X118708194Y-33903533D01*
X118641354Y-33883543D01*
X118591656Y-33868680D01*
X118591654Y-33868680D01*
X118589555Y-33868052D01*
X118528093Y-33867677D01*
X118467923Y-33867309D01*
X118467920Y-33867309D01*
X118465727Y-33867296D01*
X118463617Y-33867899D01*
X118361444Y-33897100D01*
X118346664Y-33901324D01*
X118294300Y-33934363D01*
X118243789Y-33966233D01*
X118243787Y-33966235D01*
X118241937Y-33967402D01*
X118159965Y-34060217D01*
X118159032Y-34062203D01*
X118159032Y-34062204D01*
X118108269Y-34170326D01*
X118108268Y-34170329D01*
X118107339Y-34172308D01*
X118107002Y-34174470D01*
X118107002Y-34174471D01*
X118090138Y-34282785D01*
X118088288Y-34294664D01*
X118104344Y-34417449D01*
X118135024Y-34487175D01*
X118147358Y-34515206D01*
X118154216Y-34530793D01*
X118155622Y-34532465D01*
X118155624Y-34532469D01*
X118197795Y-34582637D01*
X118204891Y-34605076D01*
X118194042Y-34625962D01*
X118171603Y-34633058D01*
X118161356Y-34630336D01*
X118160030Y-34629723D01*
X118158194Y-34628533D01*
X118156102Y-34627907D01*
X118156099Y-34627906D01*
X118041656Y-34593680D01*
X118041654Y-34593680D01*
X118039555Y-34593052D01*
X117978093Y-34592677D01*
X117917923Y-34592309D01*
X117917920Y-34592309D01*
X117915727Y-34592296D01*
X117913617Y-34592899D01*
X117799257Y-34625583D01*
X117796664Y-34626324D01*
X117744301Y-34659363D01*
X117693789Y-34691233D01*
X117693787Y-34691235D01*
X117691937Y-34692402D01*
X117609965Y-34785217D01*
X117609032Y-34787203D01*
X117609032Y-34787204D01*
X117558269Y-34895326D01*
X117558268Y-34895329D01*
X117557339Y-34897308D01*
X117557002Y-34899470D01*
X117557002Y-34899471D01*
X117540800Y-35003533D01*
X117538288Y-35019664D01*
X117545204Y-35072548D01*
X117546084Y-35079277D01*
X117539973Y-35102004D01*
X117537338Y-35105008D01*
X116767845Y-35874500D01*
X116140927Y-36501418D01*
X116136267Y-36505242D01*
X116117669Y-36517669D01*
X116103559Y-36538786D01*
X116103558Y-36538787D01*
X116061773Y-36601323D01*
X116042145Y-36700000D01*
X116042736Y-36702971D01*
X116046509Y-36721940D01*
X116047100Y-36727939D01*
X116047100Y-38006414D01*
X116038094Y-38028158D01*
X116032758Y-38032420D01*
X116016937Y-38042402D01*
X116015491Y-38044039D01*
X116015489Y-38044041D01*
X115960145Y-38106706D01*
X115934965Y-38135217D01*
X115934032Y-38137203D01*
X115934032Y-38137204D01*
X115883269Y-38245326D01*
X115883268Y-38245329D01*
X115882339Y-38247308D01*
X115882002Y-38249470D01*
X115882002Y-38249471D01*
X115870407Y-38323944D01*
X115863288Y-38369664D01*
X102602900Y-38369664D01*
X102602900Y-36656105D01*
X105899031Y-36656105D01*
X105899464Y-36657908D01*
X105899464Y-36657909D01*
X105937778Y-36817493D01*
X105938612Y-36820968D01*
X106016375Y-36971631D01*
X106017595Y-36973029D01*
X106017596Y-36973031D01*
X106106198Y-37074597D01*
X106127831Y-37099396D01*
X106266547Y-37196887D01*
X106424513Y-37258476D01*
X106426347Y-37258717D01*
X106426349Y-37258718D01*
X106491771Y-37267330D01*
X106553826Y-37275500D01*
X106642516Y-37275500D01*
X106643430Y-37275389D01*
X106643437Y-37275389D01*
X106709499Y-37267394D01*
X106768320Y-37260276D01*
X106862242Y-37224786D01*
X106925188Y-37201001D01*
X106925191Y-37201000D01*
X106926923Y-37200345D01*
X106931955Y-37196887D01*
X107065120Y-37105364D01*
X107066651Y-37104312D01*
X107091965Y-37075901D01*
X107178207Y-36979105D01*
X107178207Y-36979104D01*
X107179440Y-36977721D01*
X107181923Y-36973031D01*
X107257912Y-36829514D01*
X107257914Y-36829510D01*
X107258776Y-36827881D01*
X107260513Y-36820968D01*
X107283880Y-36727939D01*
X107300081Y-36663441D01*
X107300120Y-36656105D01*
X107300853Y-36515985D01*
X107300969Y-36493895D01*
X107297497Y-36479432D01*
X107261821Y-36330834D01*
X107261820Y-36330831D01*
X107261388Y-36329032D01*
X107183625Y-36178369D01*
X107180764Y-36175089D01*
X107073388Y-36052001D01*
X107073386Y-36052000D01*
X107072169Y-36050604D01*
X106933453Y-35953113D01*
X106775487Y-35891524D01*
X106773653Y-35891283D01*
X106773651Y-35891282D01*
X106708229Y-35882670D01*
X106646174Y-35874500D01*
X106557484Y-35874500D01*
X106556570Y-35874611D01*
X106556563Y-35874611D01*
X106490501Y-35882606D01*
X106431680Y-35889724D01*
X106425133Y-35892198D01*
X106274812Y-35948999D01*
X106274809Y-35949000D01*
X106273077Y-35949655D01*
X106271550Y-35950704D01*
X106271549Y-35950705D01*
X106266496Y-35954178D01*
X106133349Y-36045688D01*
X106020560Y-36172279D01*
X106019694Y-36173914D01*
X106019693Y-36173916D01*
X105942088Y-36320486D01*
X105942086Y-36320490D01*
X105941224Y-36322119D01*
X105940774Y-36323909D01*
X105940774Y-36323910D01*
X105939035Y-36330834D01*
X105899919Y-36486559D01*
X105899909Y-36488411D01*
X105899909Y-36488413D01*
X105899871Y-36495748D01*
X105899031Y-36656105D01*
X102602900Y-36656105D01*
X102602900Y-32256105D01*
X105899031Y-32256105D01*
X105899464Y-32257908D01*
X105899464Y-32257909D01*
X105935393Y-32407559D01*
X105938612Y-32420968D01*
X106016375Y-32571631D01*
X106017595Y-32573029D01*
X106017596Y-32573031D01*
X106126010Y-32697308D01*
X106127831Y-32699396D01*
X106266547Y-32796887D01*
X106424513Y-32858476D01*
X106426347Y-32858717D01*
X106426349Y-32858718D01*
X106491771Y-32867330D01*
X106553826Y-32875500D01*
X106642516Y-32875500D01*
X106643430Y-32875389D01*
X106643437Y-32875389D01*
X106709499Y-32867394D01*
X106768320Y-32860276D01*
X106833435Y-32835671D01*
X106925188Y-32801001D01*
X106925191Y-32801000D01*
X106926923Y-32800345D01*
X106931955Y-32796887D01*
X107065120Y-32705364D01*
X107066651Y-32704312D01*
X107072892Y-32697308D01*
X107178207Y-32579105D01*
X107178207Y-32579104D01*
X107179440Y-32577721D01*
X107181923Y-32573031D01*
X107257912Y-32429514D01*
X107257914Y-32429510D01*
X107258776Y-32427881D01*
X107260149Y-32422417D01*
X107277195Y-32354552D01*
X107300081Y-32263441D01*
X107300120Y-32256105D01*
X107300521Y-32179410D01*
X107300969Y-32093895D01*
X107283408Y-32020749D01*
X107261821Y-31930834D01*
X107261820Y-31930831D01*
X107261388Y-31929032D01*
X107257774Y-31922029D01*
X107184477Y-31780020D01*
X107183625Y-31778369D01*
X107182404Y-31776969D01*
X107073388Y-31652001D01*
X107073386Y-31652000D01*
X107072169Y-31650604D01*
X106933453Y-31553113D01*
X106775487Y-31491524D01*
X106773653Y-31491283D01*
X106773651Y-31491282D01*
X106708229Y-31482670D01*
X106646174Y-31474500D01*
X106557484Y-31474500D01*
X106556570Y-31474611D01*
X106556563Y-31474611D01*
X106490501Y-31482606D01*
X106431680Y-31489724D01*
X106425133Y-31492198D01*
X106274812Y-31548999D01*
X106274809Y-31549000D01*
X106273077Y-31549655D01*
X106271550Y-31550704D01*
X106271549Y-31550705D01*
X106266496Y-31554178D01*
X106133349Y-31645688D01*
X106132114Y-31647074D01*
X106132113Y-31647075D01*
X106094809Y-31688944D01*
X106020560Y-31772279D01*
X106019694Y-31773914D01*
X106019693Y-31773916D01*
X105942088Y-31920486D01*
X105942086Y-31920490D01*
X105941224Y-31922119D01*
X105940774Y-31923909D01*
X105940774Y-31923910D01*
X105939035Y-31930834D01*
X105899919Y-32086559D01*
X105899909Y-32088411D01*
X105899909Y-32088413D01*
X105899871Y-32095748D01*
X105899031Y-32256105D01*
X102602900Y-32256105D01*
X102602900Y-29783914D01*
X102611906Y-29762170D01*
X102679412Y-29694664D01*
X136413288Y-29694664D01*
X136416903Y-29722308D01*
X136428505Y-29811031D01*
X136429344Y-29817449D01*
X136452039Y-29869028D01*
X136469344Y-29908356D01*
X136479216Y-29930793D01*
X136480622Y-29932465D01*
X136480624Y-29932469D01*
X136510028Y-29967449D01*
X136558895Y-30025583D01*
X136560722Y-30026799D01*
X136560724Y-30026801D01*
X136641835Y-30080793D01*
X136661976Y-30094200D01*
X136664068Y-30094854D01*
X136664069Y-30094854D01*
X136703945Y-30107312D01*
X136780173Y-30131127D01*
X136823728Y-30131925D01*
X136901793Y-30133356D01*
X136901794Y-30133356D01*
X136903982Y-30133396D01*
X136906094Y-30132820D01*
X136906096Y-30132820D01*
X136971549Y-30114975D01*
X136982443Y-30112005D01*
X137005789Y-30114975D01*
X137012270Y-30119925D01*
X137287534Y-30395188D01*
X137563094Y-30670748D01*
X137572100Y-30692492D01*
X137572100Y-40497061D01*
X137571509Y-40503060D01*
X137567145Y-40525000D01*
X137572100Y-40549911D01*
X137586773Y-40623677D01*
X137642669Y-40707331D01*
X137645188Y-40709014D01*
X137645189Y-40709015D01*
X137661267Y-40719758D01*
X137665927Y-40723582D01*
X138647138Y-41704793D01*
X138656036Y-41723963D01*
X138658803Y-41756919D01*
X138713015Y-41945979D01*
X138802916Y-42120908D01*
X138803850Y-42122086D01*
X138803851Y-42122088D01*
X138924151Y-42273869D01*
X138924155Y-42273873D01*
X138925083Y-42275044D01*
X139074862Y-42402516D01*
X139076168Y-42403246D01*
X139076171Y-42403248D01*
X139245233Y-42497733D01*
X139245236Y-42497734D01*
X139246547Y-42498467D01*
X139433600Y-42559244D01*
X139541411Y-42572100D01*
X139627407Y-42582355D01*
X139627411Y-42582355D01*
X139628895Y-42582532D01*
X139630390Y-42582417D01*
X139630393Y-42582417D01*
X139823490Y-42567559D01*
X139823493Y-42567559D01*
X139824994Y-42567443D01*
X139826442Y-42567039D01*
X139826446Y-42567038D01*
X139935374Y-42536624D01*
X140014428Y-42514552D01*
X140189981Y-42425874D01*
X140344966Y-42304786D01*
X140473480Y-42155901D01*
X140570628Y-41984890D01*
X140571103Y-41983463D01*
X140632237Y-41799689D01*
X140632238Y-41799685D01*
X140632710Y-41798266D01*
X140638123Y-41755422D01*
X140657254Y-41603977D01*
X140657360Y-41603138D01*
X140657753Y-41575000D01*
X140638561Y-41379260D01*
X140638129Y-41377829D01*
X140638128Y-41377824D01*
X140582146Y-41192407D01*
X140581714Y-41190975D01*
X140536418Y-41105786D01*
X140490085Y-41018645D01*
X140490083Y-41018642D01*
X140489379Y-41017318D01*
X140437130Y-40953255D01*
X140366022Y-40866067D01*
X140366018Y-40866063D01*
X140365072Y-40864903D01*
X140213528Y-40739535D01*
X140040520Y-40645990D01*
X139852637Y-40587830D01*
X139657035Y-40567272D01*
X139655540Y-40567408D01*
X139655538Y-40567408D01*
X139462668Y-40584960D01*
X139462665Y-40584961D01*
X139461166Y-40585097D01*
X139272489Y-40640628D01*
X139271160Y-40641323D01*
X139271157Y-40641324D01*
X139172522Y-40692889D01*
X139098192Y-40731748D01*
X139097027Y-40732685D01*
X139097025Y-40732686D01*
X138946078Y-40854050D01*
X138946075Y-40854053D01*
X138944912Y-40854988D01*
X138943952Y-40856132D01*
X138943950Y-40856134D01*
X138829676Y-40992321D01*
X138818489Y-41005653D01*
X138817764Y-41006972D01*
X138783171Y-41069896D01*
X138764804Y-41084611D01*
X138741411Y-41082028D01*
X138734481Y-41076826D01*
X138086906Y-40429251D01*
X138077900Y-40407507D01*
X138077900Y-39020930D01*
X138642345Y-39020930D01*
X138642471Y-39022431D01*
X138658073Y-39208222D01*
X138658803Y-39216919D01*
X138659217Y-39218362D01*
X138703328Y-39372195D01*
X138713015Y-39405979D01*
X138802916Y-39580908D01*
X138803850Y-39582086D01*
X138803851Y-39582088D01*
X138924151Y-39733869D01*
X138924155Y-39733873D01*
X138925083Y-39735044D01*
X139074862Y-39862516D01*
X139076168Y-39863246D01*
X139076171Y-39863248D01*
X139245233Y-39957733D01*
X139245236Y-39957734D01*
X139246547Y-39958467D01*
X139433600Y-40019244D01*
X139542794Y-40032265D01*
X139627407Y-40042355D01*
X139627411Y-40042355D01*
X139628895Y-40042532D01*
X139630390Y-40042417D01*
X139630393Y-40042417D01*
X139823490Y-40027559D01*
X139823493Y-40027559D01*
X139824994Y-40027443D01*
X139826442Y-40027039D01*
X139826446Y-40027038D01*
X139935374Y-39996624D01*
X140014428Y-39974552D01*
X140189981Y-39885874D01*
X140344966Y-39764786D01*
X140379353Y-39724949D01*
X140470512Y-39619339D01*
X140473480Y-39615901D01*
X140478253Y-39607500D01*
X140569886Y-39446196D01*
X140570628Y-39444890D01*
X140571103Y-39443463D01*
X140632237Y-39259689D01*
X140632238Y-39259685D01*
X140632710Y-39258266D01*
X140638123Y-39215421D01*
X140657254Y-39063977D01*
X140657360Y-39063138D01*
X140657753Y-39035000D01*
X140656521Y-39022431D01*
X140638708Y-38840756D01*
X140638707Y-38840753D01*
X140638561Y-38839260D01*
X140638129Y-38837829D01*
X140638128Y-38837824D01*
X140603724Y-38723875D01*
X140581714Y-38650975D01*
X140559614Y-38609410D01*
X140490085Y-38478645D01*
X140490083Y-38478642D01*
X140489379Y-38477318D01*
X140415586Y-38386839D01*
X140366022Y-38326067D01*
X140366018Y-38326063D01*
X140365072Y-38324903D01*
X140300930Y-38271840D01*
X140214690Y-38200496D01*
X140214688Y-38200495D01*
X140213528Y-38199535D01*
X140040520Y-38105990D01*
X139852637Y-38047830D01*
X139657035Y-38027272D01*
X139655540Y-38027408D01*
X139655538Y-38027408D01*
X139462668Y-38044960D01*
X139462665Y-38044961D01*
X139461166Y-38045097D01*
X139272489Y-38100628D01*
X139271160Y-38101323D01*
X139271157Y-38101324D01*
X139186989Y-38145326D01*
X139098192Y-38191748D01*
X139097027Y-38192685D01*
X139097025Y-38192686D01*
X138946078Y-38314050D01*
X138946075Y-38314053D01*
X138944912Y-38314988D01*
X138943952Y-38316132D01*
X138943950Y-38316134D01*
X138829676Y-38452321D01*
X138818489Y-38465653D01*
X138796422Y-38505793D01*
X138739459Y-38609410D01*
X138723739Y-38638004D01*
X138723285Y-38639434D01*
X138723285Y-38639435D01*
X138712105Y-38674680D01*
X138664269Y-38825476D01*
X138642345Y-39020930D01*
X138077900Y-39020930D01*
X138077900Y-36480930D01*
X138642345Y-36480930D01*
X138642471Y-36482431D01*
X138657516Y-36661587D01*
X138658803Y-36676919D01*
X138679326Y-36748491D01*
X138702091Y-36827881D01*
X138713015Y-36865979D01*
X138802916Y-37040908D01*
X138803850Y-37042086D01*
X138803851Y-37042088D01*
X138924151Y-37193869D01*
X138924155Y-37193873D01*
X138925083Y-37195044D01*
X138926225Y-37196016D01*
X138928039Y-37197560D01*
X139074862Y-37322516D01*
X139076168Y-37323246D01*
X139076171Y-37323248D01*
X139245233Y-37417733D01*
X139245236Y-37417734D01*
X139246547Y-37418467D01*
X139433600Y-37479244D01*
X139542794Y-37492265D01*
X139627407Y-37502355D01*
X139627411Y-37502355D01*
X139628895Y-37502532D01*
X139630390Y-37502417D01*
X139630393Y-37502417D01*
X139823490Y-37487559D01*
X139823493Y-37487559D01*
X139824994Y-37487443D01*
X139826442Y-37487039D01*
X139826446Y-37487038D01*
X139935374Y-37456624D01*
X140014428Y-37434552D01*
X140189981Y-37345874D01*
X140344966Y-37224786D01*
X140473480Y-37075901D01*
X140570628Y-36904890D01*
X140571103Y-36903463D01*
X140615852Y-36768944D01*
X140631262Y-36751155D01*
X140645030Y-36747900D01*
X140677061Y-36747900D01*
X140683060Y-36748491D01*
X140705000Y-36752855D01*
X140707971Y-36752264D01*
X140713547Y-36751155D01*
X140803677Y-36733227D01*
X140806193Y-36731546D01*
X140806195Y-36731545D01*
X140866213Y-36691442D01*
X140866214Y-36691441D01*
X140884812Y-36679014D01*
X140887331Y-36677331D01*
X140899758Y-36658733D01*
X140903582Y-36654073D01*
X142311210Y-35246444D01*
X142311213Y-35246442D01*
X142359074Y-35198580D01*
X142363728Y-35194761D01*
X142379812Y-35184014D01*
X142382331Y-35182331D01*
X142438227Y-35098677D01*
X142443993Y-35069692D01*
X142452900Y-35024911D01*
X142457264Y-35002971D01*
X142457855Y-35000000D01*
X142453491Y-34978060D01*
X142452900Y-34972061D01*
X142452900Y-33844246D01*
X142461906Y-33822502D01*
X142467556Y-33818045D01*
X142478979Y-33811031D01*
X142531398Y-33753120D01*
X142560607Y-33720851D01*
X142560609Y-33720848D01*
X142562078Y-33719225D01*
X142616070Y-33607785D01*
X142618313Y-33594457D01*
X142636418Y-33486839D01*
X142636615Y-33485671D01*
X142636745Y-33475000D01*
X142636293Y-33471840D01*
X142619501Y-33354593D01*
X142619190Y-33352420D01*
X142567937Y-33239695D01*
X142550278Y-33219200D01*
X142488538Y-33147548D01*
X142487105Y-33145885D01*
X142485267Y-33144693D01*
X142485265Y-33144692D01*
X142385032Y-33079724D01*
X142385030Y-33079723D01*
X142383194Y-33078533D01*
X142300457Y-33053789D01*
X142266656Y-33043680D01*
X142266654Y-33043680D01*
X142264555Y-33043052D01*
X142203093Y-33042677D01*
X142142923Y-33042309D01*
X142142920Y-33042309D01*
X142140727Y-33042296D01*
X142138617Y-33042899D01*
X142029369Y-33074122D01*
X142021664Y-33076324D01*
X141983474Y-33100420D01*
X141918789Y-33141233D01*
X141918787Y-33141235D01*
X141916937Y-33142402D01*
X141834965Y-33235217D01*
X141834032Y-33237203D01*
X141834032Y-33237204D01*
X141783269Y-33345326D01*
X141783268Y-33345329D01*
X141782339Y-33347308D01*
X141782002Y-33349470D01*
X141782002Y-33349471D01*
X141771219Y-33418729D01*
X141763288Y-33469664D01*
X141765534Y-33486839D01*
X141775517Y-33563179D01*
X141779344Y-33592449D01*
X141829216Y-33705793D01*
X141830622Y-33707465D01*
X141830624Y-33707469D01*
X141868471Y-33752493D01*
X141908895Y-33800583D01*
X141910722Y-33801799D01*
X141910724Y-33801801D01*
X141933389Y-33816888D01*
X141946499Y-33836434D01*
X141947100Y-33842485D01*
X141947100Y-34882508D01*
X141938094Y-34904252D01*
X140652751Y-36189594D01*
X140631007Y-36198600D01*
X140609263Y-36189594D01*
X140601569Y-36176738D01*
X140582146Y-36112407D01*
X140581714Y-36110975D01*
X140498344Y-35954178D01*
X140490085Y-35938645D01*
X140490083Y-35938642D01*
X140489379Y-35937318D01*
X140437130Y-35873255D01*
X140366022Y-35786067D01*
X140366018Y-35786063D01*
X140365072Y-35784903D01*
X140362462Y-35782744D01*
X140214690Y-35660496D01*
X140214688Y-35660495D01*
X140213528Y-35659535D01*
X140040520Y-35565990D01*
X139852637Y-35507830D01*
X139657035Y-35487272D01*
X139655540Y-35487408D01*
X139655538Y-35487408D01*
X139462668Y-35504960D01*
X139462665Y-35504961D01*
X139461166Y-35505097D01*
X139272489Y-35560628D01*
X139271160Y-35561323D01*
X139271157Y-35561324D01*
X139172522Y-35612889D01*
X139098192Y-35651748D01*
X139097027Y-35652685D01*
X139097025Y-35652686D01*
X138946078Y-35774050D01*
X138946075Y-35774053D01*
X138944912Y-35774988D01*
X138943952Y-35776132D01*
X138943950Y-35776134D01*
X138848824Y-35889501D01*
X138818489Y-35925653D01*
X138723739Y-36098004D01*
X138664269Y-36285476D01*
X138642345Y-36480930D01*
X138077900Y-36480930D01*
X138077900Y-34048586D01*
X138627200Y-34048586D01*
X138634859Y-34139792D01*
X138635399Y-34142733D01*
X138690085Y-34333450D01*
X138691185Y-34336227D01*
X138781873Y-34512688D01*
X138783496Y-34515206D01*
X138906732Y-34670691D01*
X138908807Y-34672838D01*
X139059899Y-34801429D01*
X139062350Y-34803133D01*
X139235538Y-34899924D01*
X139238283Y-34901123D01*
X139426973Y-34962432D01*
X139429888Y-34963073D01*
X139555426Y-34978043D01*
X139559933Y-34976776D01*
X139561500Y-34973984D01*
X139561500Y-34972153D01*
X139738500Y-34972153D01*
X139740025Y-34975835D01*
X139745212Y-34977754D01*
X139827696Y-34971407D01*
X139830652Y-34970886D01*
X140021737Y-34917533D01*
X140024527Y-34916451D01*
X140201609Y-34827001D01*
X140204146Y-34825391D01*
X140360482Y-34703248D01*
X140362646Y-34701188D01*
X140492289Y-34550994D01*
X140494009Y-34548556D01*
X140592009Y-34376046D01*
X140593226Y-34373313D01*
X140655851Y-34185054D01*
X140656512Y-34182145D01*
X140673260Y-34049568D01*
X140672025Y-34045053D01*
X140669303Y-34043500D01*
X139744617Y-34043500D01*
X139740292Y-34045292D01*
X139738500Y-34049617D01*
X139738500Y-34972153D01*
X139561500Y-34972153D01*
X139561500Y-34049617D01*
X139559708Y-34045292D01*
X139555383Y-34043500D01*
X138632890Y-34043500D01*
X138628565Y-34045292D01*
X138627200Y-34048586D01*
X138077900Y-34048586D01*
X138077900Y-33860421D01*
X138627125Y-33860421D01*
X138628423Y-33864919D01*
X138631288Y-33866500D01*
X139555383Y-33866500D01*
X139559708Y-33864708D01*
X139561500Y-33860383D01*
X139738500Y-33860383D01*
X139740292Y-33864708D01*
X139744617Y-33866500D01*
X140667174Y-33866500D01*
X140671499Y-33864708D01*
X140672806Y-33861554D01*
X140662462Y-33756052D01*
X140661882Y-33753120D01*
X140604535Y-33563179D01*
X140603400Y-33560425D01*
X140510255Y-33385244D01*
X140508600Y-33382753D01*
X140383205Y-33229003D01*
X140381096Y-33226880D01*
X140228232Y-33100420D01*
X140225742Y-33098741D01*
X140051228Y-33004382D01*
X140048468Y-33003222D01*
X139858943Y-32944554D01*
X139856011Y-32943952D01*
X139744581Y-32932240D01*
X139740095Y-32933569D01*
X139738500Y-32936507D01*
X139738500Y-33860383D01*
X139561500Y-33860383D01*
X139561500Y-32937883D01*
X139559708Y-32933558D01*
X139556485Y-32932222D01*
X139458130Y-32941173D01*
X139455184Y-32941735D01*
X139264860Y-32997751D01*
X139262086Y-32998871D01*
X139086260Y-33090791D01*
X139083765Y-33092423D01*
X138929135Y-33216748D01*
X138927007Y-33218832D01*
X138799473Y-33370822D01*
X138797783Y-33373291D01*
X138702206Y-33547145D01*
X138701027Y-33549895D01*
X138641037Y-33739008D01*
X138640414Y-33741940D01*
X138627125Y-33860421D01*
X138077900Y-33860421D01*
X138077900Y-30602939D01*
X138078491Y-30596940D01*
X138082264Y-30577971D01*
X138082855Y-30575000D01*
X138063227Y-30476323D01*
X138021442Y-30413788D01*
X138007331Y-30392669D01*
X137988730Y-30380240D01*
X137984070Y-30376416D01*
X137290492Y-29682837D01*
X137281797Y-29665452D01*
X137277172Y-29633153D01*
X137269190Y-29577420D01*
X137217937Y-29464695D01*
X137214472Y-29460673D01*
X137138538Y-29372548D01*
X137137105Y-29370885D01*
X137135267Y-29369693D01*
X137135265Y-29369692D01*
X137035032Y-29304724D01*
X137035030Y-29304723D01*
X137033194Y-29303533D01*
X136966354Y-29283543D01*
X136916656Y-29268680D01*
X136916654Y-29268680D01*
X136914555Y-29268052D01*
X136853093Y-29267677D01*
X136792923Y-29267309D01*
X136792920Y-29267309D01*
X136790727Y-29267296D01*
X136671664Y-29301324D01*
X136619300Y-29334363D01*
X136568789Y-29366233D01*
X136568787Y-29366235D01*
X136566937Y-29367402D01*
X136484965Y-29460217D01*
X136484032Y-29462203D01*
X136484032Y-29462204D01*
X136433269Y-29570326D01*
X136433268Y-29570329D01*
X136432339Y-29572308D01*
X136432002Y-29574470D01*
X136432002Y-29574471D01*
X136426437Y-29610217D01*
X136413288Y-29694664D01*
X102679412Y-29694664D01*
X104364133Y-28009943D01*
X138647100Y-28009943D01*
X138647101Y-29740056D01*
X138647396Y-29741537D01*
X138647396Y-29741541D01*
X138655381Y-29781687D01*
X138655972Y-29784658D01*
X138689766Y-29835234D01*
X138740342Y-29869028D01*
X138743313Y-29869619D01*
X138783459Y-29877605D01*
X138783461Y-29877605D01*
X138784943Y-29877900D01*
X139650000Y-29877900D01*
X140515056Y-29877899D01*
X140516537Y-29877604D01*
X140516541Y-29877604D01*
X140556688Y-29869619D01*
X140556689Y-29869618D01*
X140559658Y-29869028D01*
X140596121Y-29844664D01*
X144313288Y-29844664D01*
X144329344Y-29967449D01*
X144379216Y-30080793D01*
X144380622Y-30082465D01*
X144380624Y-30082469D01*
X144423433Y-30133396D01*
X144458895Y-30175583D01*
X144460722Y-30176799D01*
X144460724Y-30176801D01*
X144476309Y-30187175D01*
X144561976Y-30244200D01*
X144564068Y-30244854D01*
X144564069Y-30244854D01*
X144583181Y-30250825D01*
X144680173Y-30281127D01*
X144723728Y-30281925D01*
X144801793Y-30283356D01*
X144801794Y-30283356D01*
X144803982Y-30283396D01*
X144806094Y-30282820D01*
X144806096Y-30282820D01*
X144847155Y-30271626D01*
X144923452Y-30250825D01*
X144925314Y-30249682D01*
X144925318Y-30249680D01*
X145027116Y-30187175D01*
X145027117Y-30187175D01*
X145028979Y-30186031D01*
X145095071Y-30113014D01*
X145117869Y-30102900D01*
X146447061Y-30102900D01*
X146453060Y-30103491D01*
X146475000Y-30107855D01*
X146477971Y-30107264D01*
X146506080Y-30101673D01*
X146570706Y-30088818D01*
X146573677Y-30088227D01*
X146576193Y-30086546D01*
X146576195Y-30086545D01*
X146584803Y-30080793D01*
X146636213Y-30046442D01*
X146636214Y-30046441D01*
X146654812Y-30034014D01*
X146657331Y-30032331D01*
X146669758Y-30013733D01*
X146673582Y-30009073D01*
X146767353Y-29915302D01*
X146789660Y-29906301D01*
X146901793Y-29908356D01*
X146901794Y-29908356D01*
X146903982Y-29908396D01*
X146906094Y-29907820D01*
X146906096Y-29907820D01*
X146947155Y-29896626D01*
X147023452Y-29875825D01*
X147025314Y-29874682D01*
X147025318Y-29874680D01*
X147127116Y-29812175D01*
X147127117Y-29812175D01*
X147128979Y-29811031D01*
X147173206Y-29762170D01*
X147210607Y-29720851D01*
X147210609Y-29720848D01*
X147212078Y-29719225D01*
X147238131Y-29665452D01*
X147265114Y-29609759D01*
X147265115Y-29609757D01*
X147266070Y-29607785D01*
X147271877Y-29573273D01*
X147276751Y-29544298D01*
X147286615Y-29485671D01*
X147286745Y-29475000D01*
X147286293Y-29471840D01*
X147274413Y-29388893D01*
X147269190Y-29352420D01*
X147217937Y-29239695D01*
X147137105Y-29145885D01*
X147135267Y-29144693D01*
X147135265Y-29144692D01*
X147035032Y-29079724D01*
X147035030Y-29079723D01*
X147033194Y-29078533D01*
X146966354Y-29058543D01*
X146916656Y-29043680D01*
X146916654Y-29043680D01*
X146914555Y-29043052D01*
X146853093Y-29042677D01*
X146792923Y-29042309D01*
X146792920Y-29042309D01*
X146790727Y-29042296D01*
X146671664Y-29076324D01*
X146619301Y-29109363D01*
X146568789Y-29141233D01*
X146568787Y-29141235D01*
X146566937Y-29142402D01*
X146484965Y-29235217D01*
X146484032Y-29237203D01*
X146484032Y-29237204D01*
X146433269Y-29345326D01*
X146433268Y-29345329D01*
X146432339Y-29347308D01*
X146432002Y-29349470D01*
X146432002Y-29349471D01*
X146413751Y-29466692D01*
X146413288Y-29469664D01*
X146415381Y-29485671D01*
X146421083Y-29529277D01*
X146414972Y-29552005D01*
X146412337Y-29555008D01*
X146379251Y-29588094D01*
X146357507Y-29597100D01*
X145116870Y-29597100D01*
X145093575Y-29586422D01*
X145085819Y-29577420D01*
X145037105Y-29520885D01*
X145035267Y-29519693D01*
X145035265Y-29519692D01*
X144935032Y-29454724D01*
X144935030Y-29454723D01*
X144933194Y-29453533D01*
X144866354Y-29433543D01*
X144816656Y-29418680D01*
X144816654Y-29418680D01*
X144814555Y-29418052D01*
X144753093Y-29417677D01*
X144692923Y-29417309D01*
X144692920Y-29417309D01*
X144690727Y-29417296D01*
X144571664Y-29451324D01*
X144545870Y-29467599D01*
X144468789Y-29516233D01*
X144468787Y-29516235D01*
X144466937Y-29517402D01*
X144384965Y-29610217D01*
X144384032Y-29612203D01*
X144384032Y-29612204D01*
X144333269Y-29720326D01*
X144333268Y-29720329D01*
X144332339Y-29722308D01*
X144332002Y-29724470D01*
X144332002Y-29724471D01*
X144317213Y-29819457D01*
X144313288Y-29844664D01*
X140596121Y-29844664D01*
X140610234Y-29835234D01*
X140644028Y-29784658D01*
X140652900Y-29740057D01*
X140652899Y-28009944D01*
X140644028Y-27965342D01*
X140610234Y-27914766D01*
X140559658Y-27880972D01*
X140556687Y-27880381D01*
X140516541Y-27872395D01*
X140516539Y-27872395D01*
X140515057Y-27872100D01*
X140513544Y-27872100D01*
X139650001Y-27872101D01*
X138784944Y-27872101D01*
X138783463Y-27872396D01*
X138783459Y-27872396D01*
X138743312Y-27880381D01*
X138743311Y-27880382D01*
X138740342Y-27880972D01*
X138689766Y-27914766D01*
X138655972Y-27965342D01*
X138647100Y-28009943D01*
X104364133Y-28009943D01*
X105279412Y-27094664D01*
X115563288Y-27094664D01*
X115579344Y-27217449D01*
X115601277Y-27267296D01*
X115616946Y-27302906D01*
X115629216Y-27330793D01*
X115630622Y-27332465D01*
X115630624Y-27332469D01*
X115688881Y-27401773D01*
X115708895Y-27425583D01*
X115710722Y-27426799D01*
X115710724Y-27426801D01*
X115760924Y-27460217D01*
X115811976Y-27494200D01*
X115814068Y-27494854D01*
X115814069Y-27494854D01*
X115833181Y-27500825D01*
X115930173Y-27531127D01*
X115973728Y-27531925D01*
X116051793Y-27533356D01*
X116051794Y-27533356D01*
X116053982Y-27533396D01*
X116056094Y-27532820D01*
X116056096Y-27532820D01*
X116097155Y-27521626D01*
X116173452Y-27500825D01*
X116175314Y-27499682D01*
X116175318Y-27499680D01*
X116277116Y-27437175D01*
X116277117Y-27437175D01*
X116278979Y-27436031D01*
X116309988Y-27401773D01*
X116360607Y-27345851D01*
X116360609Y-27345848D01*
X116362078Y-27344225D01*
X116398679Y-27268680D01*
X116415114Y-27234759D01*
X116415115Y-27234757D01*
X116416070Y-27232785D01*
X116418313Y-27219457D01*
X116436418Y-27111839D01*
X116436615Y-27110671D01*
X116436745Y-27100000D01*
X116436293Y-27096840D01*
X116429018Y-27046045D01*
X116434851Y-27023245D01*
X116437713Y-27019942D01*
X117134073Y-26323582D01*
X117138733Y-26319758D01*
X117154811Y-26309015D01*
X117154812Y-26309014D01*
X117157331Y-26307331D01*
X117213227Y-26223677D01*
X117227900Y-26149911D01*
X117232855Y-26125000D01*
X117228491Y-26103060D01*
X117227900Y-26097061D01*
X117227900Y-24669246D01*
X117236906Y-24647502D01*
X117242556Y-24643045D01*
X117253979Y-24636031D01*
X117264958Y-24623902D01*
X117335607Y-24545851D01*
X117335609Y-24545848D01*
X117337078Y-24544225D01*
X117391070Y-24432785D01*
X117393313Y-24419457D01*
X117411418Y-24311839D01*
X117411615Y-24310671D01*
X117411745Y-24300000D01*
X117411293Y-24296840D01*
X117394501Y-24179593D01*
X117394190Y-24177420D01*
X117342937Y-24064695D01*
X117262105Y-23970885D01*
X117260267Y-23969693D01*
X117260265Y-23969692D01*
X117160032Y-23904724D01*
X117160030Y-23904723D01*
X117158194Y-23903533D01*
X117091354Y-23883543D01*
X117041656Y-23868680D01*
X117041654Y-23868680D01*
X117039555Y-23868052D01*
X116978093Y-23867677D01*
X116917923Y-23867309D01*
X116917920Y-23867309D01*
X116915727Y-23867296D01*
X116796664Y-23901324D01*
X116744301Y-23934363D01*
X116693789Y-23966233D01*
X116693787Y-23966235D01*
X116691937Y-23967402D01*
X116609965Y-24060217D01*
X116609032Y-24062203D01*
X116609032Y-24062204D01*
X116558269Y-24170326D01*
X116558268Y-24170329D01*
X116557339Y-24172308D01*
X116557002Y-24174470D01*
X116557002Y-24174471D01*
X116556205Y-24179593D01*
X116538288Y-24294664D01*
X116554344Y-24417449D01*
X116604216Y-24530793D01*
X116605622Y-24532465D01*
X116605624Y-24532469D01*
X116680432Y-24621463D01*
X116683895Y-24625583D01*
X116685722Y-24626799D01*
X116685724Y-24626801D01*
X116708389Y-24641888D01*
X116721499Y-24661434D01*
X116722100Y-24667485D01*
X116722100Y-26007507D01*
X116713094Y-26029251D01*
X116083317Y-26659028D01*
X116061386Y-26668033D01*
X116006319Y-26667696D01*
X115942923Y-26667309D01*
X115942920Y-26667309D01*
X115940727Y-26667296D01*
X115821664Y-26701324D01*
X115769301Y-26734363D01*
X115718789Y-26766233D01*
X115718787Y-26766235D01*
X115716937Y-26767402D01*
X115634965Y-26860217D01*
X115634032Y-26862203D01*
X115634032Y-26862204D01*
X115583269Y-26970326D01*
X115583268Y-26970329D01*
X115582339Y-26972308D01*
X115563288Y-27094664D01*
X105279412Y-27094664D01*
X109262170Y-23111906D01*
X109283914Y-23102900D01*
X110708711Y-23102900D01*
X110730455Y-23111906D01*
X110733103Y-23114927D01*
X110755667Y-23144333D01*
X110871164Y-23232957D01*
X111005664Y-23288669D01*
X111150000Y-23307671D01*
X111294336Y-23288669D01*
X111428836Y-23232957D01*
X111544333Y-23144333D01*
X111632957Y-23028835D01*
X111688669Y-22894336D01*
X111707671Y-22750000D01*
X111688669Y-22605664D01*
X111632957Y-22471165D01*
X111631423Y-22469165D01*
X111545563Y-22357270D01*
X111544333Y-22355667D01*
X111500723Y-22322204D01*
X111430438Y-22268272D01*
X111430437Y-22268271D01*
X111428836Y-22267043D01*
X111345558Y-22232548D01*
X111296200Y-22212103D01*
X111296199Y-22212103D01*
X111294336Y-22211331D01*
X111150000Y-22192329D01*
X111005664Y-22211331D01*
X110871165Y-22267043D01*
X110869564Y-22268271D01*
X110869563Y-22268272D01*
X110832877Y-22296422D01*
X110755667Y-22355667D01*
X110754437Y-22357270D01*
X110733107Y-22385069D01*
X110712725Y-22396837D01*
X110708711Y-22397100D01*
X109165944Y-22397100D01*
X109159472Y-22396411D01*
X109144341Y-22393153D01*
X109144338Y-22393153D01*
X109141854Y-22392618D01*
X109109805Y-22396411D01*
X109105783Y-22396887D01*
X109102169Y-22397100D01*
X109095682Y-22397100D01*
X109094433Y-22397308D01*
X109094432Y-22397308D01*
X109090794Y-22397914D01*
X109075954Y-22400384D01*
X109074542Y-22400585D01*
X109059444Y-22402371D01*
X109027705Y-22406127D01*
X109027703Y-22406128D01*
X109025182Y-22406426D01*
X109021452Y-22408217D01*
X109013192Y-22410830D01*
X109009109Y-22411510D01*
X109006874Y-22412716D01*
X109006871Y-22412717D01*
X108965368Y-22435110D01*
X108964078Y-22435768D01*
X108921013Y-22456448D01*
X108921011Y-22456450D01*
X108919275Y-22457283D01*
X108915301Y-22460623D01*
X108914841Y-22461083D01*
X108914337Y-22461545D01*
X108914237Y-22461436D01*
X108908078Y-22466023D01*
X108905714Y-22467298D01*
X108903989Y-22469164D01*
X108903988Y-22469165D01*
X108870534Y-22505356D01*
X108869697Y-22506227D01*
X102029413Y-29346511D01*
X102024349Y-29350600D01*
X102009210Y-29360375D01*
X101986728Y-29388893D01*
X101984324Y-29391600D01*
X101979731Y-29396193D01*
X101978995Y-29397223D01*
X101978989Y-29397230D01*
X101968110Y-29412454D01*
X101967242Y-29413611D01*
X101936475Y-29452638D01*
X101935633Y-29455035D01*
X101935632Y-29455037D01*
X101935101Y-29456549D01*
X101931110Y-29464231D01*
X101930779Y-29464695D01*
X101928704Y-29467599D01*
X101927977Y-29470030D01*
X101914459Y-29515228D01*
X101914011Y-29516605D01*
X101897548Y-29563487D01*
X101897100Y-29568659D01*
X101897100Y-29569318D01*
X101897071Y-29569990D01*
X101896923Y-29569984D01*
X101895811Y-29577583D01*
X101895041Y-29580158D01*
X101895141Y-29582701D01*
X101897076Y-29631946D01*
X101897100Y-29633153D01*
X101897100Y-42566351D01*
X101888094Y-42588095D01*
X101866350Y-42597101D01*
X101384944Y-42597101D01*
X101383463Y-42597396D01*
X101383459Y-42597396D01*
X101343312Y-42605381D01*
X101343311Y-42605382D01*
X101340342Y-42605972D01*
X101337827Y-42607653D01*
X101337826Y-42607653D01*
X101333532Y-42610522D01*
X101289766Y-42639766D01*
X101255972Y-42690342D01*
X101255381Y-42693312D01*
X101255381Y-42693313D01*
X101247736Y-42731748D01*
X101247100Y-42734943D01*
X100152900Y-42734943D01*
X100152900Y-20183650D01*
X100161906Y-20161906D01*
X100183650Y-20152900D01*
X152991941Y-20152900D01*
X153013685Y-20161906D01*
G37*
%TD.AperFunction*%
%TD*%
M02*
