M48
; DRILL file {KiCad (6.0.7)} date Thu Sep  1 12:01:26 2022
; FORMAT={2:4/ absolute / inch / suppress leading zeros}
; #@! TF.CreationDate,2022-09-01T12:01:26+02:00
; #@! TF.GenerationSoftware,Kicad,Pcbnew,(6.0.7)
; #@! TF.FileFunction,Plated,1,2,PTH
FMAT,2
INCH,TZ
; #@! TA.AperFunction,Plated,PTH,ViaDrill
T1C0.0120
; #@! TA.AperFunction,Plated,PTH,ViaDrill
T2C0.0157
; #@! TA.AperFunction,Plated,PTH,ComponentDrill
T3C0.0394
%
G90
G05
T1
X43780Y-10030
X45669Y-10669
X45787Y-15108
X45906Y-11043
X46053Y-9567
X46063Y-14852
X46447Y-13789
X46658Y-8253
X46663Y-13504
X48248Y-14291
X48780Y-12923
X50246Y-13652
X52608Y-10276
X53735Y-14808
X53878Y-11693
X55984Y-13179
X56988Y-11752
X57815Y-11604
X58300Y-15594
X59533Y-8882
X59606Y-10906
X59892Y-17894
X60069Y-15069
X60079Y-12923
X60089Y-13937
X60098Y-13445
T2
X39961Y-10797
X43760Y-8957
X44291Y-11890
X44301Y-14882
X49528Y-16644
X56496Y-13947
T3
X40256Y-17165
X41256Y-17165
X42256Y-17165
X43256Y-17165
X44781Y-17156
X45781Y-17156
X46781Y-17156
X47781Y-17156
X54980Y-11368
X54980Y-12368
X54980Y-13368
X54980Y-14368
X54980Y-15368
X54980Y-16368
T0
M30
