%TF.GenerationSoftware,KiCad,Pcbnew,(5.1.6-rc1)*%
%TF.CreationDate,2020-08-04T22:03:52+02:00*%
%TF.ProjectId,bmp22,626d7032-322e-46b6-9963-61645f706362,rev?*%
%TF.SameCoordinates,Original*%
%TF.FileFunction,Copper,L2,Bot*%
%TF.FilePolarity,Positive*%
%FSLAX46Y46*%
G04 Gerber Fmt 4.6, Leading zero omitted, Abs format (unit mm)*
G04 Created by KiCad (PCBNEW (5.1.6-rc1)) date 2020-08-04 22:03:52*
%MOMM*%
%LPD*%
G01*
G04 APERTURE LIST*
%TA.AperFunction,SMDPad,CuDef*%
%ADD10C,1.500000*%
%TD*%
%TA.AperFunction,SMDPad,CuDef*%
%ADD11C,1.000000*%
%TD*%
%TA.AperFunction,ComponentPad*%
%ADD12O,1.700000X0.900000*%
%TD*%
%TA.AperFunction,ComponentPad*%
%ADD13O,2.000000X0.900000*%
%TD*%
%TA.AperFunction,ViaPad*%
%ADD14C,0.600000*%
%TD*%
%TA.AperFunction,ViaPad*%
%ADD15C,0.800000*%
%TD*%
%TA.AperFunction,Conductor*%
%ADD16C,0.400000*%
%TD*%
%TA.AperFunction,Conductor*%
%ADD17C,0.200000*%
%TD*%
%TA.AperFunction,Conductor*%
%ADD18C,0.250000*%
%TD*%
%TA.AperFunction,Conductor*%
%ADD19C,0.150000*%
%TD*%
G04 APERTURE END LIST*
D10*
%TO.P,TP309,1*%
%TO.N,GND*%
X141000000Y-134000000D03*
%TD*%
%TO.P,TP308,1*%
%TO.N,/Sheet5F25207C/SDWIO*%
X134500000Y-134500000D03*
%TD*%
%TO.P,TP307,1*%
%TO.N,/Sheet5F25207C/SWDCLK*%
X132000000Y-134500000D03*
%TD*%
%TO.P,TP306,1*%
%TO.N,/Sheet5F25207C/TRACESWO*%
X129500000Y-134500000D03*
%TD*%
%TO.P,TP305,1*%
%TO.N,GND*%
X128500000Y-124000000D03*
%TD*%
%TO.P,TP304,1*%
%TO.N,/Sheet5F25207C/USBx1+*%
X122000000Y-131500000D03*
%TD*%
%TO.P,TP303,1*%
%TO.N,/Sheet5F25207C/USBx1-*%
X122000000Y-129000000D03*
%TD*%
%TO.P,TP302,1*%
%TO.N,+5V*%
X128500000Y-121500000D03*
%TD*%
%TO.P,TP301,1*%
%TO.N,/Sheet5F25207C/~RST*%
X137000000Y-134500000D03*
%TD*%
D11*
%TO.P,FID6,*%
%TO.N,*%
X121500000Y-138500000D03*
%TD*%
%TO.P,FID5,*%
%TO.N,*%
X160500000Y-138500000D03*
%TD*%
%TO.P,FID4,*%
%TO.N,*%
X121500000Y-123000000D03*
%TD*%
%TO.P,J202,MP*%
%TO.N,N/C*%
%TA.AperFunction,SMDPad,CuDef*%
G36*
G01*
X166450000Y-134600000D02*
X169350000Y-134600000D01*
G75*
G02*
X169600000Y-134850000I0J-250000D01*
G01*
X169600000Y-135850000D01*
G75*
G02*
X169350000Y-136100000I-250000J0D01*
G01*
X166450000Y-136100000D01*
G75*
G02*
X166200000Y-135850000I0J250000D01*
G01*
X166200000Y-134850000D01*
G75*
G02*
X166450000Y-134600000I250000J0D01*
G01*
G37*
%TD.AperFunction*%
%TA.AperFunction,SMDPad,CuDef*%
G36*
G01*
X166450000Y-123900000D02*
X169350000Y-123900000D01*
G75*
G02*
X169600000Y-124150000I0J-250000D01*
G01*
X169600000Y-125150000D01*
G75*
G02*
X169350000Y-125400000I-250000J0D01*
G01*
X166450000Y-125400000D01*
G75*
G02*
X166200000Y-125150000I0J250000D01*
G01*
X166200000Y-124150000D01*
G75*
G02*
X166450000Y-123900000I250000J0D01*
G01*
G37*
%TD.AperFunction*%
%TO.P,J202,4*%
%TO.N,GND*%
%TA.AperFunction,SMDPad,CuDef*%
G36*
G01*
X160650000Y-132500000D02*
X163650000Y-132500000D01*
G75*
G02*
X163900000Y-132750000I0J-250000D01*
G01*
X163900000Y-133250000D01*
G75*
G02*
X163650000Y-133500000I-250000J0D01*
G01*
X160650000Y-133500000D01*
G75*
G02*
X160400000Y-133250000I0J250000D01*
G01*
X160400000Y-132750000D01*
G75*
G02*
X160650000Y-132500000I250000J0D01*
G01*
G37*
%TD.AperFunction*%
%TO.P,J202,3*%
%TO.N,/Sheet5F21D67E/RXD*%
%TA.AperFunction,SMDPad,CuDef*%
G36*
G01*
X160650000Y-130500000D02*
X163650000Y-130500000D01*
G75*
G02*
X163900000Y-130750000I0J-250000D01*
G01*
X163900000Y-131250000D01*
G75*
G02*
X163650000Y-131500000I-250000J0D01*
G01*
X160650000Y-131500000D01*
G75*
G02*
X160400000Y-131250000I0J250000D01*
G01*
X160400000Y-130750000D01*
G75*
G02*
X160650000Y-130500000I250000J0D01*
G01*
G37*
%TD.AperFunction*%
%TO.P,J202,2*%
%TO.N,/Sheet5F21D67E/TXD*%
%TA.AperFunction,SMDPad,CuDef*%
G36*
G01*
X160650000Y-128500000D02*
X163650000Y-128500000D01*
G75*
G02*
X163900000Y-128750000I0J-250000D01*
G01*
X163900000Y-129250000D01*
G75*
G02*
X163650000Y-129500000I-250000J0D01*
G01*
X160650000Y-129500000D01*
G75*
G02*
X160400000Y-129250000I0J250000D01*
G01*
X160400000Y-128750000D01*
G75*
G02*
X160650000Y-128500000I250000J0D01*
G01*
G37*
%TD.AperFunction*%
%TO.P,J202,1*%
%TO.N,TPWR*%
%TA.AperFunction,SMDPad,CuDef*%
G36*
G01*
X160650000Y-126500000D02*
X163650000Y-126500000D01*
G75*
G02*
X163900000Y-126750000I0J-250000D01*
G01*
X163900000Y-127250000D01*
G75*
G02*
X163650000Y-127500000I-250000J0D01*
G01*
X160650000Y-127500000D01*
G75*
G02*
X160400000Y-127250000I0J250000D01*
G01*
X160400000Y-126750000D01*
G75*
G02*
X160650000Y-126500000I250000J0D01*
G01*
G37*
%TD.AperFunction*%
%TD*%
D12*
%TO.P,J301,S1*%
%TO.N,GND*%
X121260000Y-134320000D03*
X121260000Y-125680000D03*
D13*
X125430000Y-134320000D03*
X125430000Y-125680000D03*
%TD*%
D14*
%TO.N,GND*%
X153162000Y-121031000D03*
X153924000Y-131699000D03*
X158242000Y-136779000D03*
X159131000Y-125603000D03*
X148145500Y-122999500D03*
X151384000Y-123825000D03*
X153900000Y-123300000D03*
X159156400Y-129286000D03*
X129667000Y-124968000D03*
X130810000Y-125095000D03*
X145800000Y-120500000D03*
X138900000Y-120900000D03*
X127762000Y-134112000D03*
X130302000Y-128905000D03*
X131445000Y-128143000D03*
X138176000Y-137033000D03*
X152654000Y-133096000D03*
X159131000Y-133350000D03*
X154051000Y-129286000D03*
X154051000Y-127825500D03*
X137668000Y-135509000D03*
X135890000Y-135509000D03*
X136779000Y-132715000D03*
X160528000Y-120650000D03*
X161417000Y-120650000D03*
X156718000Y-120523000D03*
X137200000Y-124700000D03*
X138900000Y-126200000D03*
X132588000Y-127508000D03*
X129286000Y-125857000D03*
X148400000Y-120800000D03*
X154305000Y-139319000D03*
X127635000Y-135890000D03*
X127762000Y-137668000D03*
X127635000Y-138938000D03*
X121285000Y-136398000D03*
X123317000Y-133477000D03*
X123190000Y-127000000D03*
X159258000Y-136144000D03*
X161290000Y-135128000D03*
X168910000Y-133858000D03*
X167767000Y-137033000D03*
X168529000Y-126238000D03*
X166900000Y-120700000D03*
X136652000Y-127381000D03*
X141300000Y-125800000D03*
X139400000Y-123700000D03*
X149400000Y-136500000D03*
X149500000Y-137700000D03*
X143400000Y-138700000D03*
X127200000Y-125800000D03*
X133200000Y-139300000D03*
X133100000Y-135700000D03*
X141000000Y-137300000D03*
X152300000Y-130600000D03*
X159200000Y-130600000D03*
X156200000Y-131200000D03*
X165900000Y-127500000D03*
X145276000Y-136424000D03*
D15*
%TO.N,+5V*%
X128016000Y-130429000D03*
X127508000Y-132587992D03*
X128016000Y-126949200D03*
D14*
X129032000Y-122681992D03*
%TO.N,+3V3*%
X140843000Y-135636000D03*
X148335990Y-135636000D03*
X158115000Y-128270000D03*
X143259701Y-136486878D03*
X158369000Y-124333000D03*
X156799994Y-123444000D03*
X149600000Y-129600000D03*
X141200000Y-128300000D03*
X152120000Y-128600000D03*
X155933000Y-128567000D03*
%TO.N,xTPWR*%
X153924000Y-126085600D03*
X156768800Y-125222000D03*
%TO.N,/Sheet5F25207C/~RST*%
X137800000Y-137999979D03*
%TO.N,KEY*%
X160528000Y-136017000D03*
X166400000Y-128700000D03*
%TO.N,TCK*%
X160528000Y-128016000D03*
X165608000Y-131318000D03*
%TO.N,TMS*%
X159893000Y-130048000D03*
X165608000Y-132588000D03*
%TO.N,TPWR*%
X162306000Y-125857000D03*
X152799988Y-123312799D03*
X166300000Y-132000000D03*
%TO.N,/Sheet5F21D67E/RXD*%
X164592000Y-133604000D03*
%TO.N,/Sheet5F21D67E/TXD*%
X161756000Y-125229909D03*
%TO.N,/Sheet5F25207C/USBx1+*%
X124206000Y-130937000D03*
%TO.N,/Sheet5F25207C/USBx1-*%
X124206000Y-129032000D03*
%TO.N,/Sheet5F25207C/TRACESWO*%
X131191000Y-138938000D03*
X141624047Y-138516031D03*
%TO.N,/Sheet5F25207C/SWDCLK*%
X131826000Y-136042400D03*
X141000000Y-138100000D03*
%TO.N,/Sheet5F25207C/SDWIO*%
X134366000Y-136017000D03*
%TO.N,xTDI*%
X160994000Y-124213909D03*
X159131000Y-127889000D03*
%TO.N,Net-(Q201-Pad1)*%
X150495000Y-121158000D03*
X153074849Y-122247318D03*
%TO.N,xRST*%
X154051000Y-121920000D03*
X159512000Y-120777000D03*
%TO.N,iRST*%
X149352000Y-127952500D03*
X150241000Y-123571000D03*
%TO.N,/Sheet5F25207C/VBUS*%
X138176000Y-129921000D03*
X132700000Y-132100000D03*
%TO.N,Net-(R309-Pad2)*%
X137033000Y-130302000D03*
X135585200Y-132080000D03*
%TO.N,iTXD*%
X152273000Y-138557000D03*
X147300000Y-138700000D03*
X155200000Y-124400000D03*
X138800000Y-132000000D03*
%TO.N,iRXD*%
X154432000Y-137541000D03*
X151500000Y-138200000D03*
X148800000Y-138449990D03*
X139698317Y-132050010D03*
%TO.N,iTDO*%
X152527000Y-126200000D03*
X155800000Y-135000000D03*
%TO.N,iTMS_DIR*%
X159131000Y-132207000D03*
X156033586Y-132229980D03*
%TO.N,iTMS*%
X150622000Y-127127000D03*
X150740014Y-128862181D03*
%TD*%
D16*
%TO.N,+5V*%
X127508000Y-130937000D02*
X127508000Y-132587992D01*
X128016000Y-130429000D02*
X127508000Y-130937000D01*
X128016000Y-126949200D02*
X128016000Y-130429000D01*
X129032000Y-122174000D02*
X129032000Y-122681992D01*
X128500000Y-121500000D02*
X128500000Y-121642000D01*
X128500000Y-121642000D02*
X129032000Y-122174000D01*
%TO.N,+3V3*%
X143764000Y-135636000D02*
X148335990Y-135636000D01*
X143036000Y-135636000D02*
X143764000Y-135636000D01*
X140843000Y-135636000D02*
X143036000Y-135636000D01*
D17*
X143036000Y-135636000D02*
X143259701Y-135859701D01*
X143259701Y-135859701D02*
X143259701Y-136486878D01*
X158369000Y-124333000D02*
X157480000Y-123444000D01*
X157480000Y-123444000D02*
X156799994Y-123444000D01*
D16*
X148300000Y-128300000D02*
X141200000Y-128300000D01*
X148844000Y-128844000D02*
X148300000Y-128300000D01*
X148844000Y-135127990D02*
X148844000Y-128844000D01*
X148335990Y-135636000D02*
X148844000Y-135127990D01*
X148844000Y-128844000D02*
X149600000Y-129600000D01*
X151120000Y-129600000D02*
X152120000Y-128600000D01*
X149600000Y-129600000D02*
X151120000Y-129600000D01*
D18*
X157818000Y-128567000D02*
X158115000Y-128270000D01*
X155933000Y-128567000D02*
X157818000Y-128567000D01*
D17*
%TO.N,xTPWR*%
X153924000Y-126085600D02*
X155905200Y-126085600D01*
X155905200Y-126085600D02*
X156768800Y-125222000D01*
%TO.N,/Sheet5F25207C/~RST*%
X137800000Y-137458954D02*
X137800000Y-137999979D01*
X137000000Y-136658954D02*
X137800000Y-137458954D01*
X137000000Y-134500000D02*
X137000000Y-136658954D01*
%TO.N,KEY*%
X160528000Y-134874000D02*
X161163000Y-134239000D01*
X160528000Y-136017000D02*
X160528000Y-134874000D01*
X166400000Y-128700000D02*
X167100000Y-129400000D01*
X167100000Y-132200000D02*
X165061000Y-134239000D01*
X167100000Y-129400000D02*
X167100000Y-132200000D01*
X161163000Y-134239000D02*
X165061000Y-134239000D01*
%TO.N,TCK*%
X165608000Y-129216992D02*
X165608000Y-131318000D01*
X160528000Y-128016000D02*
X164407008Y-128016000D01*
X164407008Y-128016000D02*
X165608000Y-129216992D01*
%TO.N,TMS*%
X164973000Y-130683000D02*
X164973000Y-131953000D01*
X164973000Y-131953000D02*
X165608000Y-132588000D01*
X159893000Y-130048000D02*
X164338000Y-130048000D01*
X164338000Y-130048000D02*
X164973000Y-130683000D01*
%TO.N,TPWR*%
X162200800Y-126949200D02*
X162150000Y-127000000D01*
X162306000Y-126844000D02*
X162150000Y-127000000D01*
X162306000Y-125857000D02*
X162306000Y-126844000D01*
X162306000Y-124714000D02*
X160909000Y-123317000D01*
X158369000Y-122682000D02*
X153430787Y-122682000D01*
X159004000Y-123317000D02*
X158369000Y-122682000D01*
X160909000Y-123317000D02*
X159004000Y-123317000D01*
X162306000Y-125857000D02*
X162306000Y-124714000D01*
X153430787Y-122682000D02*
X152799988Y-123312799D01*
X166300000Y-129414002D02*
X166300000Y-132000000D01*
X162742998Y-125857000D02*
X166300000Y-129414002D01*
X162306000Y-125857000D02*
X162742998Y-125857000D01*
%TO.N,/Sheet5F21D67E/RXD*%
X162150000Y-131000000D02*
X164274000Y-131000000D01*
X164274000Y-131000000D02*
X164592000Y-131318000D01*
X164592000Y-131318000D02*
X164592000Y-133604000D01*
%TO.N,/Sheet5F21D67E/TXD*%
X162150000Y-129000000D02*
X160369000Y-129000000D01*
X160369000Y-129000000D02*
X159893000Y-128524000D01*
X159893000Y-128524000D02*
X159893000Y-126492000D01*
X159893000Y-126492000D02*
X161155091Y-125229909D01*
X161155091Y-125229909D02*
X161756000Y-125229909D01*
%TO.N,/Sheet5F25207C/USBx1+*%
X123643000Y-131500000D02*
X122000000Y-131500000D01*
X124206000Y-130937000D02*
X123643000Y-131500000D01*
%TO.N,/Sheet5F25207C/USBx1-*%
X122032000Y-129032000D02*
X122000000Y-129000000D01*
X124206000Y-129032000D02*
X122032000Y-129032000D01*
%TO.N,/Sheet5F25207C/TRACESWO*%
X133900000Y-138900000D02*
X141240078Y-138900000D01*
X141240078Y-138900000D02*
X141624047Y-138516031D01*
X131191000Y-138938000D02*
X131729000Y-138400000D01*
X133300000Y-138400000D02*
X133350000Y-138350000D01*
X131729000Y-138400000D02*
X133300000Y-138400000D01*
X133350000Y-138350000D02*
X133900000Y-138900000D01*
X129500000Y-134500000D02*
X133350000Y-138350000D01*
%TO.N,/Sheet5F25207C/SWDCLK*%
X132000000Y-135868400D02*
X131826000Y-136042400D01*
X132000000Y-134500000D02*
X132000000Y-135868400D01*
X134333589Y-138549989D02*
X140550011Y-138549989D01*
X131826000Y-136042400D02*
X134333589Y-138549989D01*
X140550011Y-138549989D02*
X141000000Y-138100000D01*
%TO.N,/Sheet5F25207C/SDWIO*%
X134500000Y-135883000D02*
X134366000Y-136017000D01*
X134500000Y-134500000D02*
X134500000Y-135883000D01*
%TO.N,xTDI*%
X160994000Y-124638173D02*
X159131000Y-126501173D01*
X160994000Y-124213909D02*
X160994000Y-124638173D01*
X159131000Y-126501173D02*
X159131000Y-127889000D01*
%TO.N,Net-(Q201-Pad1)*%
X151985531Y-121158000D02*
X153074849Y-122247318D01*
X150495000Y-121158000D02*
X151985531Y-121158000D01*
%TO.N,xRST*%
X158496000Y-121793000D02*
X159512000Y-120777000D01*
X154051000Y-121920000D02*
X154178000Y-121793000D01*
X154178000Y-121793000D02*
X158496000Y-121793000D01*
%TO.N,iRST*%
X149352000Y-127952500D02*
X149352000Y-124460000D01*
X149352000Y-124460000D02*
X150241000Y-123571000D01*
%TO.N,/Sheet5F25207C/VBUS*%
X132700000Y-129428000D02*
X132700000Y-132100000D01*
X137134600Y-128879600D02*
X133248400Y-128879600D01*
X133248400Y-128879600D02*
X132700000Y-129428000D01*
X138176000Y-129921000D02*
X137134600Y-128879600D01*
%TO.N,Net-(R309-Pad2)*%
X133858000Y-132080000D02*
X135585200Y-132080000D01*
X136144000Y-129413000D02*
X133604000Y-129413000D01*
X137033000Y-130302000D02*
X136144000Y-129413000D01*
X133350000Y-129667000D02*
X133350000Y-131572000D01*
X133604000Y-129413000D02*
X133350000Y-129667000D01*
X133350000Y-131572000D02*
X133858000Y-132080000D01*
%TO.N,iTXD*%
X154678000Y-124400000D02*
X153289000Y-125789000D01*
X153289000Y-125789000D02*
X153289000Y-131994010D01*
X153289000Y-131994010D02*
X155279990Y-133985000D01*
X155200000Y-124400000D02*
X154678000Y-124400000D01*
X155279990Y-133985000D02*
X155585000Y-133985000D01*
X156400000Y-137500000D02*
X155343000Y-138557000D01*
X155585000Y-133985000D02*
X156400000Y-134800000D01*
X156400000Y-134800000D02*
X156400000Y-137500000D01*
X155343000Y-138557000D02*
X152697264Y-138557000D01*
X152697264Y-138557000D02*
X152273000Y-138557000D01*
X139700000Y-136600000D02*
X139700000Y-136500000D01*
X142100000Y-136600000D02*
X139700000Y-136600000D01*
X139700000Y-136500000D02*
X139300000Y-136100000D01*
X139300000Y-132500000D02*
X138800000Y-132000000D01*
X139300000Y-136100000D02*
X139300000Y-132500000D01*
X146200000Y-137600000D02*
X147300000Y-138700000D01*
X143100000Y-137600000D02*
X146200000Y-137600000D01*
X143100000Y-137600000D02*
X142100000Y-136600000D01*
%TO.N,iRXD*%
X152908000Y-137922000D02*
X154051000Y-137922000D01*
X154051000Y-137922000D02*
X154432000Y-137541000D01*
X151778000Y-137922000D02*
X151500000Y-138200000D01*
X152908000Y-137922000D02*
X151778000Y-137922000D01*
X147775005Y-137424995D02*
X148800000Y-138449990D01*
X143197495Y-137202505D02*
X147552515Y-137202505D01*
X142244980Y-136249990D02*
X143197495Y-137202505D01*
X139944979Y-136249989D02*
X142244980Y-136249990D01*
X139698317Y-136003327D02*
X139944979Y-136249989D01*
X147552515Y-137202505D02*
X147775005Y-137424995D01*
X139698317Y-132050010D02*
X139698317Y-136003327D01*
%TO.N,iTDO*%
X152908000Y-132334000D02*
X154093000Y-133519000D01*
X152527000Y-126200000D02*
X152908000Y-126581000D01*
X152908000Y-126581000D02*
X152908000Y-132334000D01*
X155800000Y-135000000D02*
X154319000Y-133519000D01*
X154319000Y-133519000D02*
X154093000Y-133519000D01*
%TO.N,iTMS_DIR*%
X156056566Y-132207000D02*
X156033586Y-132229980D01*
X159131000Y-132207000D02*
X156056566Y-132207000D01*
%TO.N,iTMS*%
X150622000Y-128744167D02*
X150740014Y-128862181D01*
X150622000Y-127127000D02*
X150622000Y-128744167D01*
%TD*%
D19*
%TO.N,GND*%
G36*
X169145443Y-120265460D02*
G01*
X169285346Y-120307699D01*
X169414381Y-120376308D01*
X169527631Y-120468672D01*
X169620785Y-120581275D01*
X169690290Y-120709823D01*
X169733508Y-120849437D01*
X169750001Y-121006356D01*
X169750001Y-123893260D01*
X169745853Y-123885500D01*
X169686645Y-123813355D01*
X169614500Y-123754147D01*
X169532191Y-123710152D01*
X169442880Y-123683060D01*
X169350000Y-123673912D01*
X166450000Y-123673912D01*
X166357120Y-123683060D01*
X166267809Y-123710152D01*
X166185500Y-123754147D01*
X166113355Y-123813355D01*
X166054147Y-123885500D01*
X166010152Y-123967809D01*
X165983060Y-124057120D01*
X165973912Y-124150000D01*
X165973912Y-125150000D01*
X165983060Y-125242880D01*
X166010152Y-125332191D01*
X166054147Y-125414500D01*
X166113355Y-125486645D01*
X166185500Y-125545853D01*
X166267809Y-125589848D01*
X166357120Y-125616940D01*
X166450000Y-125626088D01*
X169350000Y-125626088D01*
X169442880Y-125616940D01*
X169532191Y-125589848D01*
X169614500Y-125545853D01*
X169686645Y-125486645D01*
X169745853Y-125414500D01*
X169750001Y-125406740D01*
X169750000Y-134593259D01*
X169745853Y-134585500D01*
X169686645Y-134513355D01*
X169614500Y-134454147D01*
X169532191Y-134410152D01*
X169442880Y-134383060D01*
X169350000Y-134373912D01*
X166450000Y-134373912D01*
X166357120Y-134383060D01*
X166267809Y-134410152D01*
X166185500Y-134454147D01*
X166113355Y-134513355D01*
X166054147Y-134585500D01*
X166010152Y-134667809D01*
X165983060Y-134757120D01*
X165973912Y-134850000D01*
X165973912Y-135850000D01*
X165983060Y-135942880D01*
X166010152Y-136032191D01*
X166054147Y-136114500D01*
X166113355Y-136186645D01*
X166185500Y-136245853D01*
X166267809Y-136289848D01*
X166357120Y-136316940D01*
X166450000Y-136326088D01*
X169350000Y-136326088D01*
X169442880Y-136316940D01*
X169532191Y-136289848D01*
X169614500Y-136245853D01*
X169686645Y-136186645D01*
X169745853Y-136114500D01*
X169750000Y-136106741D01*
X169750000Y-138987771D01*
X169734540Y-139145443D01*
X169692301Y-139285346D01*
X169623691Y-139414383D01*
X169531330Y-139527629D01*
X169418724Y-139620785D01*
X169290175Y-139690291D01*
X169150563Y-139733508D01*
X168993654Y-139750000D01*
X121012229Y-139750000D01*
X120854557Y-139734540D01*
X120714654Y-139692301D01*
X120585617Y-139623691D01*
X120472371Y-139531330D01*
X120379215Y-139418724D01*
X120309709Y-139290175D01*
X120266492Y-139150563D01*
X120250000Y-138993654D01*
X120250000Y-138394122D01*
X120425000Y-138394122D01*
X120425000Y-138605878D01*
X120466312Y-138813566D01*
X120547348Y-139009203D01*
X120664993Y-139185272D01*
X120814728Y-139335007D01*
X120990797Y-139452652D01*
X121186434Y-139533688D01*
X121394122Y-139575000D01*
X121605878Y-139575000D01*
X121813566Y-139533688D01*
X122009203Y-139452652D01*
X122185272Y-139335007D01*
X122335007Y-139185272D01*
X122452652Y-139009203D01*
X122533688Y-138813566D01*
X122575000Y-138605878D01*
X122575000Y-138394122D01*
X122533688Y-138186434D01*
X122452652Y-137990797D01*
X122335007Y-137814728D01*
X122185272Y-137664993D01*
X122009203Y-137547348D01*
X121813566Y-137466312D01*
X121605878Y-137425000D01*
X121394122Y-137425000D01*
X121186434Y-137466312D01*
X120990797Y-137547348D01*
X120814728Y-137664993D01*
X120664993Y-137814728D01*
X120547348Y-137990797D01*
X120466312Y-138186434D01*
X120425000Y-138394122D01*
X120250000Y-138394122D01*
X120250000Y-137344876D01*
X122925000Y-137344876D01*
X122925000Y-137655124D01*
X122985526Y-137959411D01*
X123104253Y-138246042D01*
X123276617Y-138504004D01*
X123495996Y-138723383D01*
X123753958Y-138895747D01*
X124040589Y-139014474D01*
X124344876Y-139075000D01*
X124655124Y-139075000D01*
X124959411Y-139014474D01*
X125246042Y-138895747D01*
X125504004Y-138723383D01*
X125614330Y-138613057D01*
X128565700Y-138613057D01*
X128565700Y-138754943D01*
X128593381Y-138894104D01*
X128647679Y-139025190D01*
X128726507Y-139143164D01*
X128826836Y-139243493D01*
X128944810Y-139322321D01*
X129075896Y-139376619D01*
X129215057Y-139404300D01*
X129356943Y-139404300D01*
X129496104Y-139376619D01*
X129627190Y-139322321D01*
X129745164Y-139243493D01*
X129845493Y-139143164D01*
X129924321Y-139025190D01*
X129978619Y-138894104D01*
X130006300Y-138754943D01*
X130006300Y-138613057D01*
X129978619Y-138473896D01*
X129924321Y-138342810D01*
X129845493Y-138224836D01*
X129745164Y-138124507D01*
X129627190Y-138045679D01*
X129496104Y-137991381D01*
X129356943Y-137963700D01*
X129215057Y-137963700D01*
X129075896Y-137991381D01*
X128944810Y-138045679D01*
X128826836Y-138124507D01*
X128726507Y-138224836D01*
X128647679Y-138342810D01*
X128593381Y-138473896D01*
X128565700Y-138613057D01*
X125614330Y-138613057D01*
X125723383Y-138504004D01*
X125895747Y-138246042D01*
X126014474Y-137959411D01*
X126075000Y-137655124D01*
X126075000Y-137344876D01*
X126014474Y-137040589D01*
X125895747Y-136753958D01*
X125780219Y-136581057D01*
X128565700Y-136581057D01*
X128565700Y-136722943D01*
X128593381Y-136862104D01*
X128647679Y-136993190D01*
X128726507Y-137111164D01*
X128826836Y-137211493D01*
X128944810Y-137290321D01*
X129075896Y-137344619D01*
X129215057Y-137372300D01*
X129356943Y-137372300D01*
X129496104Y-137344619D01*
X129627190Y-137290321D01*
X129745164Y-137211493D01*
X129845493Y-137111164D01*
X129924321Y-136993190D01*
X129978619Y-136862104D01*
X130006300Y-136722943D01*
X130006300Y-136581057D01*
X129978619Y-136441896D01*
X129924321Y-136310810D01*
X129845493Y-136192836D01*
X129745164Y-136092507D01*
X129627190Y-136013679D01*
X129496104Y-135959381D01*
X129356943Y-135931700D01*
X129215057Y-135931700D01*
X129075896Y-135959381D01*
X128944810Y-136013679D01*
X128826836Y-136092507D01*
X128726507Y-136192836D01*
X128647679Y-136310810D01*
X128593381Y-136441896D01*
X128565700Y-136581057D01*
X125780219Y-136581057D01*
X125723383Y-136495996D01*
X125504004Y-136276617D01*
X125246042Y-136104253D01*
X124959411Y-135985526D01*
X124655124Y-135925000D01*
X124344876Y-135925000D01*
X124040589Y-135985526D01*
X123753958Y-136104253D01*
X123495996Y-136276617D01*
X123276617Y-136495996D01*
X123104253Y-136753958D01*
X122985526Y-137040589D01*
X122925000Y-137344876D01*
X120250000Y-137344876D01*
X120250000Y-134901051D01*
X120256147Y-134908738D01*
X120382607Y-135015231D01*
X120527413Y-135095007D01*
X120685000Y-135145000D01*
X121085000Y-135145000D01*
X121085000Y-134495000D01*
X121435000Y-134495000D01*
X121435000Y-135145000D01*
X121835000Y-135145000D01*
X121992587Y-135095007D01*
X122137393Y-135015231D01*
X122263853Y-134908738D01*
X122367107Y-134779620D01*
X122428924Y-134618967D01*
X124111076Y-134618967D01*
X124172893Y-134779620D01*
X124276147Y-134908738D01*
X124402607Y-135015231D01*
X124547413Y-135095007D01*
X124705000Y-135145000D01*
X125255000Y-135145000D01*
X125255000Y-134495000D01*
X125605000Y-134495000D01*
X125605000Y-135145000D01*
X126155000Y-135145000D01*
X126312587Y-135095007D01*
X126457393Y-135015231D01*
X126583853Y-134908738D01*
X126687107Y-134779620D01*
X126748924Y-134618967D01*
X126690001Y-134495000D01*
X125605000Y-134495000D01*
X125255000Y-134495000D01*
X124169999Y-134495000D01*
X124111076Y-134618967D01*
X122428924Y-134618967D01*
X122370001Y-134495000D01*
X121435000Y-134495000D01*
X121085000Y-134495000D01*
X121065000Y-134495000D01*
X121065000Y-134403971D01*
X128525000Y-134403971D01*
X128525000Y-134596029D01*
X128562468Y-134784397D01*
X128635966Y-134961836D01*
X128742668Y-135121527D01*
X128878473Y-135257332D01*
X129038164Y-135364034D01*
X129215603Y-135437532D01*
X129403971Y-135475000D01*
X129596029Y-135475000D01*
X129784397Y-135437532D01*
X129921234Y-135380852D01*
X132615381Y-138075000D01*
X131744953Y-138075000D01*
X131729000Y-138073429D01*
X131713047Y-138075000D01*
X131713039Y-138075000D01*
X131665289Y-138079703D01*
X131604026Y-138098287D01*
X131547566Y-138128465D01*
X131498079Y-138169079D01*
X131487904Y-138181477D01*
X131254113Y-138415269D01*
X131242708Y-138413000D01*
X131139292Y-138413000D01*
X131037863Y-138433176D01*
X130942319Y-138472751D01*
X130856332Y-138530206D01*
X130783206Y-138603332D01*
X130725751Y-138689319D01*
X130686176Y-138784863D01*
X130666000Y-138886292D01*
X130666000Y-138989708D01*
X130686176Y-139091137D01*
X130725751Y-139186681D01*
X130783206Y-139272668D01*
X130856332Y-139345794D01*
X130942319Y-139403249D01*
X131037863Y-139442824D01*
X131139292Y-139463000D01*
X131242708Y-139463000D01*
X131344137Y-139442824D01*
X131439681Y-139403249D01*
X131525668Y-139345794D01*
X131598794Y-139272668D01*
X131656249Y-139186681D01*
X131695824Y-139091137D01*
X131716000Y-138989708D01*
X131716000Y-138886292D01*
X131713731Y-138874887D01*
X131863619Y-138725000D01*
X133265382Y-138725000D01*
X133658904Y-139118523D01*
X133669079Y-139130921D01*
X133718566Y-139171535D01*
X133775026Y-139201713D01*
X133817901Y-139214719D01*
X133836288Y-139220297D01*
X133842362Y-139220895D01*
X133884039Y-139225000D01*
X133884046Y-139225000D01*
X133899999Y-139226571D01*
X133915952Y-139225000D01*
X141224125Y-139225000D01*
X141240078Y-139226571D01*
X141256031Y-139225000D01*
X141256039Y-139225000D01*
X141303789Y-139220297D01*
X141365052Y-139201713D01*
X141421512Y-139171535D01*
X141470999Y-139130921D01*
X141481179Y-139118517D01*
X141560934Y-139038762D01*
X141572339Y-139041031D01*
X141675755Y-139041031D01*
X141777184Y-139020855D01*
X141872728Y-138981280D01*
X141958715Y-138923825D01*
X142031841Y-138850699D01*
X142089296Y-138764712D01*
X142128871Y-138669168D01*
X142149047Y-138567739D01*
X142149047Y-138464323D01*
X142128871Y-138362894D01*
X142089296Y-138267350D01*
X142031841Y-138181363D01*
X141958715Y-138108237D01*
X141872728Y-138050782D01*
X141777184Y-138011207D01*
X141675755Y-137991031D01*
X141572339Y-137991031D01*
X141515845Y-138002269D01*
X141504824Y-137946863D01*
X141465249Y-137851319D01*
X141407794Y-137765332D01*
X141334668Y-137692206D01*
X141248681Y-137634751D01*
X141153137Y-137595176D01*
X141051708Y-137575000D01*
X140948292Y-137575000D01*
X140846863Y-137595176D01*
X140751319Y-137634751D01*
X140665332Y-137692206D01*
X140592206Y-137765332D01*
X140534751Y-137851319D01*
X140495176Y-137946863D01*
X140475000Y-138048292D01*
X140475000Y-138151708D01*
X140477269Y-138163113D01*
X140415393Y-138224989D01*
X138275054Y-138224989D01*
X138304824Y-138153116D01*
X138325000Y-138051687D01*
X138325000Y-137948271D01*
X138304824Y-137846842D01*
X138265249Y-137751298D01*
X138207794Y-137665311D01*
X138134668Y-137592185D01*
X138125000Y-137585725D01*
X138125000Y-137474907D01*
X138126571Y-137458954D01*
X138125000Y-137443001D01*
X138125000Y-137442993D01*
X138120297Y-137395243D01*
X138101713Y-137333980D01*
X138071535Y-137277520D01*
X138030921Y-137228033D01*
X138018524Y-137217859D01*
X137325000Y-136524336D01*
X137325000Y-135420714D01*
X137461836Y-135364034D01*
X137621527Y-135257332D01*
X137757332Y-135121527D01*
X137864034Y-134961836D01*
X137937532Y-134784397D01*
X137975000Y-134596029D01*
X137975000Y-134403971D01*
X137937532Y-134215603D01*
X137864034Y-134038164D01*
X137757332Y-133878473D01*
X137621527Y-133742668D01*
X137461836Y-133635966D01*
X137284397Y-133562468D01*
X137096029Y-133525000D01*
X136903971Y-133525000D01*
X136715603Y-133562468D01*
X136538164Y-133635966D01*
X136378473Y-133742668D01*
X136242668Y-133878473D01*
X136135966Y-134038164D01*
X136062468Y-134215603D01*
X136025000Y-134403971D01*
X136025000Y-134596029D01*
X136062468Y-134784397D01*
X136135966Y-134961836D01*
X136242668Y-135121527D01*
X136378473Y-135257332D01*
X136538164Y-135364034D01*
X136675000Y-135420714D01*
X136675001Y-136642991D01*
X136673429Y-136658954D01*
X136679703Y-136722665D01*
X136698287Y-136783927D01*
X136710714Y-136807175D01*
X136728466Y-136840388D01*
X136769080Y-136889875D01*
X136781478Y-136900050D01*
X136830112Y-136948684D01*
X136695896Y-136975381D01*
X136564810Y-137029679D01*
X136446836Y-137108507D01*
X136346507Y-137208836D01*
X136267679Y-137326810D01*
X136213381Y-137457896D01*
X136185700Y-137597057D01*
X136185700Y-137738943D01*
X136213381Y-137878104D01*
X136267679Y-138009190D01*
X136346507Y-138127164D01*
X136444332Y-138224989D01*
X134468208Y-138224989D01*
X132348731Y-136105513D01*
X132351000Y-136094108D01*
X132351000Y-135990692D01*
X132330824Y-135889263D01*
X132325728Y-135876960D01*
X132326571Y-135868401D01*
X132325000Y-135852448D01*
X132325000Y-135420714D01*
X132461836Y-135364034D01*
X132621527Y-135257332D01*
X132757332Y-135121527D01*
X132864034Y-134961836D01*
X132937532Y-134784397D01*
X132975000Y-134596029D01*
X132975000Y-134403971D01*
X133525000Y-134403971D01*
X133525000Y-134596029D01*
X133562468Y-134784397D01*
X133635966Y-134961836D01*
X133742668Y-135121527D01*
X133878473Y-135257332D01*
X134038164Y-135364034D01*
X134175001Y-135420714D01*
X134175001Y-135527859D01*
X134117319Y-135551751D01*
X134031332Y-135609206D01*
X133958206Y-135682332D01*
X133900751Y-135768319D01*
X133861176Y-135863863D01*
X133841000Y-135965292D01*
X133841000Y-136068708D01*
X133861176Y-136170137D01*
X133900751Y-136265681D01*
X133958206Y-136351668D01*
X134031332Y-136424794D01*
X134117319Y-136482249D01*
X134212863Y-136521824D01*
X134314292Y-136542000D01*
X134417708Y-136542000D01*
X134519137Y-136521824D01*
X134614681Y-136482249D01*
X134700668Y-136424794D01*
X134773794Y-136351668D01*
X134831249Y-136265681D01*
X134870824Y-136170137D01*
X134891000Y-136068708D01*
X134891000Y-135965292D01*
X134870824Y-135863863D01*
X134831249Y-135768319D01*
X134825000Y-135758967D01*
X134825000Y-135420714D01*
X134961836Y-135364034D01*
X135121527Y-135257332D01*
X135257332Y-135121527D01*
X135364034Y-134961836D01*
X135437532Y-134784397D01*
X135475000Y-134596029D01*
X135475000Y-134403971D01*
X135437532Y-134215603D01*
X135364034Y-134038164D01*
X135257332Y-133878473D01*
X135121527Y-133742668D01*
X134961836Y-133635966D01*
X134784397Y-133562468D01*
X134596029Y-133525000D01*
X134403971Y-133525000D01*
X134215603Y-133562468D01*
X134038164Y-133635966D01*
X133878473Y-133742668D01*
X133742668Y-133878473D01*
X133635966Y-134038164D01*
X133562468Y-134215603D01*
X133525000Y-134403971D01*
X132975000Y-134403971D01*
X132937532Y-134215603D01*
X132864034Y-134038164D01*
X132757332Y-133878473D01*
X132621527Y-133742668D01*
X132461836Y-133635966D01*
X132284397Y-133562468D01*
X132096029Y-133525000D01*
X131903971Y-133525000D01*
X131715603Y-133562468D01*
X131538164Y-133635966D01*
X131378473Y-133742668D01*
X131242668Y-133878473D01*
X131135966Y-134038164D01*
X131062468Y-134215603D01*
X131025000Y-134403971D01*
X131025000Y-134596029D01*
X131062468Y-134784397D01*
X131135966Y-134961836D01*
X131242668Y-135121527D01*
X131378473Y-135257332D01*
X131538164Y-135364034D01*
X131675001Y-135420714D01*
X131675001Y-135537151D01*
X131672863Y-135537576D01*
X131577319Y-135577151D01*
X131491332Y-135634606D01*
X131418206Y-135707732D01*
X131360751Y-135793719D01*
X131329291Y-135869672D01*
X130380852Y-134921234D01*
X130437532Y-134784397D01*
X130475000Y-134596029D01*
X130475000Y-134403971D01*
X130437532Y-134215603D01*
X130364034Y-134038164D01*
X130257332Y-133878473D01*
X130121527Y-133742668D01*
X129961836Y-133635966D01*
X129784397Y-133562468D01*
X129596029Y-133525000D01*
X129403971Y-133525000D01*
X129215603Y-133562468D01*
X129038164Y-133635966D01*
X128878473Y-133742668D01*
X128742668Y-133878473D01*
X128635966Y-134038164D01*
X128562468Y-134215603D01*
X128525000Y-134403971D01*
X121065000Y-134403971D01*
X121065000Y-134145000D01*
X121085000Y-134145000D01*
X121085000Y-133495000D01*
X121435000Y-133495000D01*
X121435000Y-134145000D01*
X122370001Y-134145000D01*
X122428924Y-134021033D01*
X124111076Y-134021033D01*
X124169999Y-134145000D01*
X125255000Y-134145000D01*
X125255000Y-133495000D01*
X125605000Y-133495000D01*
X125605000Y-134145000D01*
X126690001Y-134145000D01*
X126748924Y-134021033D01*
X126687107Y-133860380D01*
X126583853Y-133731262D01*
X126457393Y-133624769D01*
X126312587Y-133544993D01*
X126155000Y-133495000D01*
X125605000Y-133495000D01*
X125255000Y-133495000D01*
X124705000Y-133495000D01*
X124547413Y-133544993D01*
X124402607Y-133624769D01*
X124276147Y-133731262D01*
X124172893Y-133860380D01*
X124111076Y-134021033D01*
X122428924Y-134021033D01*
X122367107Y-133860380D01*
X122263853Y-133731262D01*
X122137393Y-133624769D01*
X121992587Y-133544993D01*
X121835000Y-133495000D01*
X121435000Y-133495000D01*
X121085000Y-133495000D01*
X120685000Y-133495000D01*
X120527413Y-133544993D01*
X120382607Y-133624769D01*
X120256147Y-133731262D01*
X120250000Y-133738949D01*
X120250000Y-132838292D01*
X124425000Y-132838292D01*
X124425000Y-132941708D01*
X124445176Y-133043137D01*
X124484751Y-133138681D01*
X124542206Y-133224668D01*
X124615332Y-133297794D01*
X124701319Y-133355249D01*
X124796863Y-133394824D01*
X124898292Y-133415000D01*
X125001708Y-133415000D01*
X125103137Y-133394824D01*
X125198681Y-133355249D01*
X125284668Y-133297794D01*
X125357794Y-133224668D01*
X125415249Y-133138681D01*
X125454824Y-133043137D01*
X125475000Y-132941708D01*
X125475000Y-132838292D01*
X125454824Y-132736863D01*
X125415249Y-132641319D01*
X125357794Y-132555332D01*
X125328897Y-132526435D01*
X126883000Y-132526435D01*
X126883000Y-132649549D01*
X126907019Y-132770298D01*
X126954132Y-132884040D01*
X127022531Y-132986406D01*
X127109586Y-133073461D01*
X127211952Y-133141860D01*
X127325694Y-133188973D01*
X127446443Y-133212992D01*
X127569557Y-133212992D01*
X127690306Y-133188973D01*
X127804048Y-133141860D01*
X127906414Y-133073461D01*
X127993469Y-132986406D01*
X128061868Y-132884040D01*
X128108981Y-132770298D01*
X128133000Y-132649549D01*
X128133000Y-132526435D01*
X128108981Y-132405686D01*
X128061868Y-132291944D01*
X127993469Y-132189578D01*
X127933000Y-132129109D01*
X127933000Y-132048292D01*
X132175000Y-132048292D01*
X132175000Y-132151708D01*
X132195176Y-132253137D01*
X132234751Y-132348681D01*
X132292206Y-132434668D01*
X132365332Y-132507794D01*
X132451319Y-132565249D01*
X132546863Y-132604824D01*
X132648292Y-132625000D01*
X132751708Y-132625000D01*
X132853137Y-132604824D01*
X132948681Y-132565249D01*
X133034668Y-132507794D01*
X133107794Y-132434668D01*
X133165249Y-132348681D01*
X133204824Y-132253137D01*
X133225000Y-132151708D01*
X133225000Y-132048292D01*
X133204824Y-131946863D01*
X133165249Y-131851319D01*
X133156284Y-131837902D01*
X133616904Y-132298523D01*
X133627079Y-132310921D01*
X133676566Y-132351535D01*
X133733026Y-132381713D01*
X133780030Y-132395971D01*
X133794288Y-132400297D01*
X133800362Y-132400895D01*
X133842039Y-132405000D01*
X133842046Y-132405000D01*
X133857999Y-132406571D01*
X133873952Y-132405000D01*
X135170946Y-132405000D01*
X135177406Y-132414668D01*
X135250532Y-132487794D01*
X135336519Y-132545249D01*
X135432063Y-132584824D01*
X135533492Y-132605000D01*
X135636908Y-132605000D01*
X135738337Y-132584824D01*
X135833881Y-132545249D01*
X135919868Y-132487794D01*
X135992994Y-132414668D01*
X136050449Y-132328681D01*
X136090024Y-132233137D01*
X136110200Y-132131708D01*
X136110200Y-132028292D01*
X136094287Y-131948292D01*
X138275000Y-131948292D01*
X138275000Y-132051708D01*
X138295176Y-132153137D01*
X138334751Y-132248681D01*
X138392206Y-132334668D01*
X138465332Y-132407794D01*
X138551319Y-132465249D01*
X138646863Y-132504824D01*
X138748292Y-132525000D01*
X138851708Y-132525000D01*
X138863113Y-132522731D01*
X138975001Y-132634620D01*
X138975000Y-136084047D01*
X138973429Y-136100000D01*
X138975000Y-136115953D01*
X138975000Y-136115960D01*
X138977449Y-136140824D01*
X138979703Y-136163711D01*
X138986660Y-136186645D01*
X138998287Y-136224973D01*
X139028465Y-136281433D01*
X139069079Y-136330921D01*
X139081483Y-136341101D01*
X139377038Y-136636657D01*
X139379703Y-136663711D01*
X139398287Y-136724974D01*
X139428465Y-136781434D01*
X139449591Y-136807175D01*
X139469079Y-136830921D01*
X139518566Y-136871535D01*
X139575026Y-136901713D01*
X139636289Y-136920297D01*
X139700000Y-136926572D01*
X139715960Y-136925000D01*
X141965382Y-136925000D01*
X142858908Y-137818528D01*
X142869079Y-137830921D01*
X142881472Y-137841092D01*
X142881476Y-137841096D01*
X142888478Y-137846842D01*
X142918566Y-137871535D01*
X142975026Y-137901713D01*
X143036289Y-137920297D01*
X143084039Y-137925000D01*
X143084047Y-137925000D01*
X143100000Y-137926571D01*
X143115953Y-137925000D01*
X146065382Y-137925000D01*
X146777269Y-138636887D01*
X146775000Y-138648292D01*
X146775000Y-138751708D01*
X146795176Y-138853137D01*
X146834751Y-138948681D01*
X146892206Y-139034668D01*
X146965332Y-139107794D01*
X147051319Y-139165249D01*
X147146863Y-139204824D01*
X147248292Y-139225000D01*
X147351708Y-139225000D01*
X147453137Y-139204824D01*
X147548681Y-139165249D01*
X147634668Y-139107794D01*
X147707794Y-139034668D01*
X147765249Y-138948681D01*
X147804824Y-138853137D01*
X147825000Y-138751708D01*
X147825000Y-138648292D01*
X147804824Y-138546863D01*
X147765249Y-138451319D01*
X147707794Y-138365332D01*
X147634668Y-138292206D01*
X147548681Y-138234751D01*
X147453137Y-138195176D01*
X147351708Y-138175000D01*
X147248292Y-138175000D01*
X147236887Y-138177269D01*
X146587123Y-137527505D01*
X147417897Y-137527505D01*
X147556481Y-137666090D01*
X147556486Y-137666094D01*
X148277269Y-138386877D01*
X148275000Y-138398282D01*
X148275000Y-138501698D01*
X148295176Y-138603127D01*
X148334751Y-138698671D01*
X148392206Y-138784658D01*
X148465332Y-138857784D01*
X148551319Y-138915239D01*
X148646863Y-138954814D01*
X148748292Y-138974990D01*
X148851708Y-138974990D01*
X148953137Y-138954814D01*
X149048681Y-138915239D01*
X149134668Y-138857784D01*
X149207794Y-138784658D01*
X149265249Y-138698671D01*
X149304824Y-138603127D01*
X149325000Y-138501698D01*
X149325000Y-138398282D01*
X149304824Y-138296853D01*
X149265249Y-138201309D01*
X149207794Y-138115322D01*
X149134668Y-138042196D01*
X149048681Y-137984741D01*
X148953137Y-137945166D01*
X148851708Y-137924990D01*
X148748292Y-137924990D01*
X148736887Y-137927259D01*
X148016104Y-137206476D01*
X148016100Y-137206471D01*
X147793615Y-136983987D01*
X147783436Y-136971584D01*
X147733949Y-136930970D01*
X147677489Y-136900792D01*
X147616226Y-136882208D01*
X147568476Y-136877505D01*
X147568468Y-136877505D01*
X147552515Y-136875934D01*
X147536562Y-136877505D01*
X143611536Y-136877505D01*
X143667495Y-136821546D01*
X143724950Y-136735559D01*
X143764525Y-136640015D01*
X143784701Y-136538586D01*
X143784701Y-136435170D01*
X143764525Y-136333741D01*
X143724950Y-136238197D01*
X143667495Y-136152210D01*
X143594369Y-136079084D01*
X143584701Y-136072624D01*
X143584701Y-136061000D01*
X148027072Y-136061000D01*
X148087309Y-136101249D01*
X148182853Y-136140824D01*
X148284282Y-136161000D01*
X148387698Y-136161000D01*
X148489127Y-136140824D01*
X148584671Y-136101249D01*
X148670658Y-136043794D01*
X148743784Y-135970668D01*
X148801239Y-135884681D01*
X148840814Y-135789137D01*
X148854948Y-135718082D01*
X149129758Y-135443272D01*
X149145974Y-135429964D01*
X149199084Y-135365250D01*
X149238548Y-135291417D01*
X149262850Y-135211304D01*
X149269000Y-135148864D01*
X149269000Y-135148857D01*
X149271055Y-135127990D01*
X149269000Y-135107123D01*
X149269000Y-130010245D01*
X149351319Y-130065249D01*
X149446863Y-130104824D01*
X149548292Y-130125000D01*
X149651708Y-130125000D01*
X149753137Y-130104824D01*
X149848681Y-130065249D01*
X149908918Y-130025000D01*
X151099133Y-130025000D01*
X151120000Y-130027055D01*
X151140867Y-130025000D01*
X151140874Y-130025000D01*
X151203314Y-130018850D01*
X151283427Y-129994548D01*
X151357260Y-129955084D01*
X151421974Y-129901974D01*
X151435284Y-129885756D01*
X152202082Y-129118958D01*
X152273137Y-129104824D01*
X152368681Y-129065249D01*
X152454668Y-129007794D01*
X152527794Y-128934668D01*
X152583000Y-128852046D01*
X152583001Y-132318037D01*
X152581429Y-132334000D01*
X152587703Y-132397711D01*
X152606287Y-132458973D01*
X152609642Y-132465249D01*
X152636466Y-132515434D01*
X152677080Y-132564921D01*
X152689478Y-132575096D01*
X153851904Y-133737523D01*
X153862079Y-133749921D01*
X153911566Y-133790535D01*
X153954174Y-133813309D01*
X153968026Y-133820713D01*
X154029288Y-133839297D01*
X154035362Y-133839895D01*
X154077039Y-133844000D01*
X154077046Y-133844000D01*
X154092999Y-133845571D01*
X154108952Y-133844000D01*
X154184382Y-133844000D01*
X155277269Y-134936887D01*
X155275000Y-134948292D01*
X155275000Y-135051708D01*
X155295176Y-135153137D01*
X155334751Y-135248681D01*
X155392206Y-135334668D01*
X155465332Y-135407794D01*
X155551319Y-135465249D01*
X155646863Y-135504824D01*
X155748292Y-135525000D01*
X155851708Y-135525000D01*
X155953137Y-135504824D01*
X156048681Y-135465249D01*
X156075000Y-135447663D01*
X156075001Y-137365379D01*
X155208382Y-138232000D01*
X154148656Y-138232000D01*
X154175974Y-138223713D01*
X154232434Y-138193535D01*
X154281921Y-138152921D01*
X154292101Y-138140517D01*
X154368887Y-138063731D01*
X154380292Y-138066000D01*
X154483708Y-138066000D01*
X154585137Y-138045824D01*
X154680681Y-138006249D01*
X154766668Y-137948794D01*
X154839794Y-137875668D01*
X154897249Y-137789681D01*
X154936824Y-137694137D01*
X154957000Y-137592708D01*
X154957000Y-137489292D01*
X154936824Y-137387863D01*
X154897249Y-137292319D01*
X154839794Y-137206332D01*
X154766668Y-137133206D01*
X154680681Y-137075751D01*
X154585137Y-137036176D01*
X154483708Y-137016000D01*
X154380292Y-137016000D01*
X154278863Y-137036176D01*
X154183319Y-137075751D01*
X154097332Y-137133206D01*
X154024206Y-137206332D01*
X153966751Y-137292319D01*
X153927176Y-137387863D01*
X153907000Y-137489292D01*
X153907000Y-137592708D01*
X153907854Y-137597000D01*
X151793952Y-137597000D01*
X151777999Y-137595429D01*
X151762046Y-137597000D01*
X151762039Y-137597000D01*
X151720362Y-137601105D01*
X151714288Y-137601703D01*
X151653026Y-137620287D01*
X151596566Y-137650465D01*
X151563752Y-137677396D01*
X151551708Y-137675000D01*
X151448292Y-137675000D01*
X151346863Y-137695176D01*
X151251319Y-137734751D01*
X151165332Y-137792206D01*
X151092206Y-137865332D01*
X151034751Y-137951319D01*
X150995176Y-138046863D01*
X150975000Y-138148292D01*
X150975000Y-138251708D01*
X150995176Y-138353137D01*
X151034751Y-138448681D01*
X151092206Y-138534668D01*
X151165332Y-138607794D01*
X151251319Y-138665249D01*
X151346863Y-138704824D01*
X151448292Y-138725000D01*
X151551708Y-138725000D01*
X151653137Y-138704824D01*
X151748681Y-138665249D01*
X151758007Y-138659017D01*
X151768176Y-138710137D01*
X151807751Y-138805681D01*
X151865206Y-138891668D01*
X151938332Y-138964794D01*
X152024319Y-139022249D01*
X152119863Y-139061824D01*
X152221292Y-139082000D01*
X152324708Y-139082000D01*
X152426137Y-139061824D01*
X152521681Y-139022249D01*
X152607668Y-138964794D01*
X152680794Y-138891668D01*
X152687254Y-138882000D01*
X155327047Y-138882000D01*
X155343000Y-138883571D01*
X155358953Y-138882000D01*
X155358961Y-138882000D01*
X155406711Y-138877297D01*
X155467974Y-138858713D01*
X155524434Y-138828535D01*
X155573921Y-138787921D01*
X155584101Y-138775517D01*
X155965496Y-138394122D01*
X159425000Y-138394122D01*
X159425000Y-138605878D01*
X159466312Y-138813566D01*
X159547348Y-139009203D01*
X159664993Y-139185272D01*
X159814728Y-139335007D01*
X159990797Y-139452652D01*
X160186434Y-139533688D01*
X160394122Y-139575000D01*
X160605878Y-139575000D01*
X160813566Y-139533688D01*
X161009203Y-139452652D01*
X161185272Y-139335007D01*
X161335007Y-139185272D01*
X161452652Y-139009203D01*
X161533688Y-138813566D01*
X161575000Y-138605878D01*
X161575000Y-138394122D01*
X161533688Y-138186434D01*
X161452652Y-137990797D01*
X161335007Y-137814728D01*
X161185272Y-137664993D01*
X161009203Y-137547348D01*
X160813566Y-137466312D01*
X160605878Y-137425000D01*
X160394122Y-137425000D01*
X160186434Y-137466312D01*
X159990797Y-137547348D01*
X159814728Y-137664993D01*
X159664993Y-137814728D01*
X159547348Y-137990797D01*
X159466312Y-138186434D01*
X159425000Y-138394122D01*
X155965496Y-138394122D01*
X156618528Y-137741092D01*
X156630921Y-137730921D01*
X156641092Y-137718528D01*
X156641096Y-137718524D01*
X156656258Y-137700049D01*
X156671535Y-137681434D01*
X156701713Y-137624974D01*
X156720297Y-137563711D01*
X156725000Y-137515961D01*
X156725000Y-137515953D01*
X156726571Y-137500000D01*
X156725000Y-137484047D01*
X156725000Y-137344876D01*
X162425000Y-137344876D01*
X162425000Y-137655124D01*
X162485526Y-137959411D01*
X162604253Y-138246042D01*
X162776617Y-138504004D01*
X162995996Y-138723383D01*
X163253958Y-138895747D01*
X163540589Y-139014474D01*
X163844876Y-139075000D01*
X164155124Y-139075000D01*
X164459411Y-139014474D01*
X164746042Y-138895747D01*
X165004004Y-138723383D01*
X165223383Y-138504004D01*
X165395747Y-138246042D01*
X165514474Y-137959411D01*
X165575000Y-137655124D01*
X165575000Y-137344876D01*
X165514474Y-137040589D01*
X165395747Y-136753958D01*
X165223383Y-136495996D01*
X165004004Y-136276617D01*
X164746042Y-136104253D01*
X164459411Y-135985526D01*
X164155124Y-135925000D01*
X163844876Y-135925000D01*
X163540589Y-135985526D01*
X163253958Y-136104253D01*
X162995996Y-136276617D01*
X162776617Y-136495996D01*
X162604253Y-136753958D01*
X162485526Y-137040589D01*
X162425000Y-137344876D01*
X156725000Y-137344876D01*
X156725000Y-134815952D01*
X156726571Y-134799999D01*
X156725000Y-134784046D01*
X156725000Y-134784039D01*
X156720297Y-134736289D01*
X156719434Y-134733442D01*
X156701713Y-134675026D01*
X156697855Y-134667809D01*
X156671535Y-134618566D01*
X156630921Y-134569079D01*
X156618524Y-134558905D01*
X155826101Y-133766483D01*
X155815921Y-133754079D01*
X155766434Y-133713465D01*
X155709974Y-133683287D01*
X155648711Y-133664703D01*
X155600961Y-133660000D01*
X155600953Y-133660000D01*
X155585000Y-133658429D01*
X155569047Y-133660000D01*
X155414609Y-133660000D01*
X155254609Y-133500000D01*
X160023186Y-133500000D01*
X160030426Y-133573513D01*
X160051869Y-133644200D01*
X160086691Y-133709347D01*
X160133552Y-133766448D01*
X160190653Y-133813309D01*
X160255800Y-133848131D01*
X160326487Y-133869574D01*
X160400000Y-133876814D01*
X161881250Y-133875000D01*
X161975000Y-133781250D01*
X161975000Y-133175000D01*
X160118750Y-133175000D01*
X160025000Y-133268750D01*
X160023186Y-133500000D01*
X155254609Y-133500000D01*
X153932881Y-132178272D01*
X155508586Y-132178272D01*
X155508586Y-132281688D01*
X155528762Y-132383117D01*
X155568337Y-132478661D01*
X155625792Y-132564648D01*
X155698918Y-132637774D01*
X155784905Y-132695229D01*
X155880449Y-132734804D01*
X155981878Y-132754980D01*
X156085294Y-132754980D01*
X156186723Y-132734804D01*
X156282267Y-132695229D01*
X156368254Y-132637774D01*
X156441380Y-132564648D01*
X156463195Y-132532000D01*
X158716746Y-132532000D01*
X158723206Y-132541668D01*
X158796332Y-132614794D01*
X158882319Y-132672249D01*
X158977863Y-132711824D01*
X159079292Y-132732000D01*
X159182708Y-132732000D01*
X159284137Y-132711824D01*
X159379681Y-132672249D01*
X159465668Y-132614794D01*
X159538794Y-132541668D01*
X159566635Y-132500000D01*
X160023186Y-132500000D01*
X160025000Y-132731250D01*
X160118750Y-132825000D01*
X161975000Y-132825000D01*
X161975000Y-132218750D01*
X161881250Y-132125000D01*
X160400000Y-132123186D01*
X160326487Y-132130426D01*
X160255800Y-132151869D01*
X160190653Y-132186691D01*
X160133552Y-132233552D01*
X160086691Y-132290653D01*
X160051869Y-132355800D01*
X160030426Y-132426487D01*
X160023186Y-132500000D01*
X159566635Y-132500000D01*
X159596249Y-132455681D01*
X159635824Y-132360137D01*
X159656000Y-132258708D01*
X159656000Y-132155292D01*
X159635824Y-132053863D01*
X159596249Y-131958319D01*
X159538794Y-131872332D01*
X159465668Y-131799206D01*
X159379681Y-131741751D01*
X159284137Y-131702176D01*
X159182708Y-131682000D01*
X159079292Y-131682000D01*
X158977863Y-131702176D01*
X158882319Y-131741751D01*
X158796332Y-131799206D01*
X158723206Y-131872332D01*
X158716746Y-131882000D01*
X156428068Y-131882000D01*
X156368254Y-131822186D01*
X156282267Y-131764731D01*
X156186723Y-131725156D01*
X156085294Y-131704980D01*
X155981878Y-131704980D01*
X155880449Y-131725156D01*
X155784905Y-131764731D01*
X155698918Y-131822186D01*
X155625792Y-131895312D01*
X155568337Y-131981299D01*
X155528762Y-132076843D01*
X155508586Y-132178272D01*
X153932881Y-132178272D01*
X153614000Y-131859392D01*
X153614000Y-128515292D01*
X155408000Y-128515292D01*
X155408000Y-128618708D01*
X155428176Y-128720137D01*
X155467751Y-128815681D01*
X155525206Y-128901668D01*
X155598332Y-128974794D01*
X155684319Y-129032249D01*
X155779863Y-129071824D01*
X155881292Y-129092000D01*
X155984708Y-129092000D01*
X156086137Y-129071824D01*
X156181681Y-129032249D01*
X156267668Y-128974794D01*
X156325462Y-128917000D01*
X157800812Y-128917000D01*
X157818000Y-128918693D01*
X157835188Y-128917000D01*
X157835189Y-128917000D01*
X157886612Y-128911935D01*
X157952587Y-128891922D01*
X158013390Y-128859422D01*
X158066685Y-128815685D01*
X158077653Y-128802320D01*
X158084973Y-128795000D01*
X158166708Y-128795000D01*
X158268137Y-128774824D01*
X158363681Y-128735249D01*
X158449668Y-128677794D01*
X158522794Y-128604668D01*
X158580249Y-128518681D01*
X158619824Y-128423137D01*
X158640000Y-128321708D01*
X158640000Y-128218292D01*
X158619824Y-128116863D01*
X158580249Y-128021319D01*
X158522794Y-127935332D01*
X158449668Y-127862206D01*
X158363681Y-127804751D01*
X158268137Y-127765176D01*
X158166708Y-127745000D01*
X158063292Y-127745000D01*
X157961863Y-127765176D01*
X157866319Y-127804751D01*
X157780332Y-127862206D01*
X157707206Y-127935332D01*
X157649751Y-128021319D01*
X157610176Y-128116863D01*
X157590257Y-128217000D01*
X156325462Y-128217000D01*
X156267668Y-128159206D01*
X156181681Y-128101751D01*
X156086137Y-128062176D01*
X155984708Y-128042000D01*
X155881292Y-128042000D01*
X155779863Y-128062176D01*
X155684319Y-128101751D01*
X155598332Y-128159206D01*
X155525206Y-128232332D01*
X155467751Y-128318319D01*
X155428176Y-128413863D01*
X155408000Y-128515292D01*
X153614000Y-128515292D01*
X153614000Y-126509877D01*
X153675319Y-126550849D01*
X153770863Y-126590424D01*
X153872292Y-126610600D01*
X153975708Y-126610600D01*
X154077137Y-126590424D01*
X154172681Y-126550849D01*
X154258668Y-126493394D01*
X154331794Y-126420268D01*
X154338254Y-126410600D01*
X155889247Y-126410600D01*
X155905200Y-126412171D01*
X155921153Y-126410600D01*
X155921161Y-126410600D01*
X155968911Y-126405897D01*
X156030174Y-126387313D01*
X156086634Y-126357135D01*
X156136121Y-126316521D01*
X156146301Y-126304117D01*
X156705687Y-125744731D01*
X156717092Y-125747000D01*
X156820508Y-125747000D01*
X156921937Y-125726824D01*
X157017481Y-125687249D01*
X157103468Y-125629794D01*
X157176594Y-125556668D01*
X157234049Y-125470681D01*
X157273624Y-125375137D01*
X157293800Y-125273708D01*
X157293800Y-125170292D01*
X157273624Y-125068863D01*
X157234049Y-124973319D01*
X157176594Y-124887332D01*
X157103468Y-124814206D01*
X157017481Y-124756751D01*
X156921937Y-124717176D01*
X156820508Y-124697000D01*
X156717092Y-124697000D01*
X156615663Y-124717176D01*
X156520119Y-124756751D01*
X156434132Y-124814206D01*
X156361006Y-124887332D01*
X156303551Y-124973319D01*
X156263976Y-125068863D01*
X156243800Y-125170292D01*
X156243800Y-125273708D01*
X156246069Y-125285113D01*
X155770582Y-125760600D01*
X154338254Y-125760600D01*
X154331794Y-125750932D01*
X154258668Y-125677806D01*
X154172681Y-125620351D01*
X154077137Y-125580776D01*
X153976801Y-125560817D01*
X154797579Y-124740041D01*
X154865332Y-124807794D01*
X154951319Y-124865249D01*
X155046863Y-124904824D01*
X155148292Y-124925000D01*
X155251708Y-124925000D01*
X155353137Y-124904824D01*
X155448681Y-124865249D01*
X155534668Y-124807794D01*
X155607794Y-124734668D01*
X155665249Y-124648681D01*
X155704824Y-124553137D01*
X155725000Y-124451708D01*
X155725000Y-124348292D01*
X155704824Y-124246863D01*
X155665249Y-124151319D01*
X155607794Y-124065332D01*
X155534668Y-123992206D01*
X155448681Y-123934751D01*
X155353137Y-123895176D01*
X155251708Y-123875000D01*
X155148292Y-123875000D01*
X155046863Y-123895176D01*
X154951319Y-123934751D01*
X154865332Y-123992206D01*
X154792206Y-124065332D01*
X154785746Y-124075000D01*
X154693953Y-124075000D01*
X154678000Y-124073429D01*
X154662047Y-124075000D01*
X154662039Y-124075000D01*
X154614289Y-124079703D01*
X154553026Y-124098287D01*
X154496566Y-124128465D01*
X154482873Y-124139703D01*
X154459476Y-124158904D01*
X154459472Y-124158908D01*
X154447079Y-124169079D01*
X154436908Y-124181472D01*
X153070483Y-125547899D01*
X153058079Y-125558079D01*
X153017465Y-125607567D01*
X152987287Y-125664027D01*
X152968703Y-125725290D01*
X152964000Y-125773040D01*
X152964000Y-125773047D01*
X152962429Y-125789000D01*
X152964000Y-125804953D01*
X152964000Y-125909042D01*
X152934794Y-125865332D01*
X152861668Y-125792206D01*
X152775681Y-125734751D01*
X152680137Y-125695176D01*
X152578708Y-125675000D01*
X152475292Y-125675000D01*
X152373863Y-125695176D01*
X152278319Y-125734751D01*
X152192332Y-125792206D01*
X152119206Y-125865332D01*
X152061751Y-125951319D01*
X152022176Y-126046863D01*
X152002000Y-126148292D01*
X152002000Y-126251708D01*
X152022176Y-126353137D01*
X152061751Y-126448681D01*
X152119206Y-126534668D01*
X152192332Y-126607794D01*
X152278319Y-126665249D01*
X152373863Y-126704824D01*
X152475292Y-126725000D01*
X152578708Y-126725000D01*
X152583000Y-126724146D01*
X152583000Y-128347954D01*
X152527794Y-128265332D01*
X152454668Y-128192206D01*
X152368681Y-128134751D01*
X152273137Y-128095176D01*
X152171708Y-128075000D01*
X152068292Y-128075000D01*
X151966863Y-128095176D01*
X151871319Y-128134751D01*
X151785332Y-128192206D01*
X151712206Y-128265332D01*
X151654751Y-128351319D01*
X151615176Y-128446863D01*
X151601042Y-128517918D01*
X151265014Y-128853946D01*
X151265014Y-128810473D01*
X151244838Y-128709044D01*
X151205263Y-128613500D01*
X151147808Y-128527513D01*
X151074682Y-128454387D01*
X150988695Y-128396932D01*
X150947000Y-128379662D01*
X150947000Y-127541254D01*
X150956668Y-127534794D01*
X151029794Y-127461668D01*
X151087249Y-127375681D01*
X151126824Y-127280137D01*
X151147000Y-127178708D01*
X151147000Y-127075292D01*
X151126824Y-126973863D01*
X151087249Y-126878319D01*
X151029794Y-126792332D01*
X150956668Y-126719206D01*
X150870681Y-126661751D01*
X150775137Y-126622176D01*
X150673708Y-126602000D01*
X150570292Y-126602000D01*
X150468863Y-126622176D01*
X150373319Y-126661751D01*
X150287332Y-126719206D01*
X150214206Y-126792332D01*
X150156751Y-126878319D01*
X150117176Y-126973863D01*
X150097000Y-127075292D01*
X150097000Y-127178708D01*
X150117176Y-127280137D01*
X150156751Y-127375681D01*
X150214206Y-127461668D01*
X150287332Y-127534794D01*
X150297000Y-127541254D01*
X150297001Y-128580222D01*
X150274765Y-128613500D01*
X150235190Y-128709044D01*
X150215014Y-128810473D01*
X150215014Y-128913889D01*
X150235190Y-129015318D01*
X150274765Y-129110862D01*
X150317621Y-129175000D01*
X149908918Y-129175000D01*
X149848681Y-129134751D01*
X149753137Y-129095176D01*
X149682083Y-129081042D01*
X149159283Y-128558243D01*
X149145974Y-128542026D01*
X149129761Y-128528720D01*
X148615283Y-128014243D01*
X148601974Y-127998026D01*
X148537260Y-127944916D01*
X148463427Y-127905452D01*
X148448066Y-127900792D01*
X148827000Y-127900792D01*
X148827000Y-128004208D01*
X148847176Y-128105637D01*
X148886751Y-128201181D01*
X148944206Y-128287168D01*
X149017332Y-128360294D01*
X149103319Y-128417749D01*
X149198863Y-128457324D01*
X149300292Y-128477500D01*
X149403708Y-128477500D01*
X149505137Y-128457324D01*
X149600681Y-128417749D01*
X149686668Y-128360294D01*
X149759794Y-128287168D01*
X149817249Y-128201181D01*
X149856824Y-128105637D01*
X149877000Y-128004208D01*
X149877000Y-127900792D01*
X149856824Y-127799363D01*
X149817249Y-127703819D01*
X149759794Y-127617832D01*
X149686668Y-127544706D01*
X149677000Y-127538246D01*
X149677000Y-124594618D01*
X150177887Y-124093731D01*
X150189292Y-124096000D01*
X150292708Y-124096000D01*
X150394137Y-124075824D01*
X150489681Y-124036249D01*
X150575668Y-123978794D01*
X150648794Y-123905668D01*
X150706249Y-123819681D01*
X150745824Y-123724137D01*
X150766000Y-123622708D01*
X150766000Y-123519292D01*
X150745824Y-123417863D01*
X150706249Y-123322319D01*
X150648794Y-123236332D01*
X150575668Y-123163206D01*
X150489681Y-123105751D01*
X150394137Y-123066176D01*
X150292708Y-123046000D01*
X150189292Y-123046000D01*
X150087863Y-123066176D01*
X149992319Y-123105751D01*
X149906332Y-123163206D01*
X149833206Y-123236332D01*
X149775751Y-123322319D01*
X149736176Y-123417863D01*
X149716000Y-123519292D01*
X149716000Y-123622708D01*
X149718269Y-123634113D01*
X149133478Y-124218904D01*
X149121080Y-124229079D01*
X149080466Y-124278566D01*
X149079009Y-124281292D01*
X149050287Y-124335027D01*
X149031703Y-124396289D01*
X149025429Y-124460000D01*
X149027001Y-124475963D01*
X149027000Y-127538246D01*
X149017332Y-127544706D01*
X148944206Y-127617832D01*
X148886751Y-127703819D01*
X148847176Y-127799363D01*
X148827000Y-127900792D01*
X148448066Y-127900792D01*
X148383314Y-127881150D01*
X148320874Y-127875000D01*
X148320867Y-127875000D01*
X148300000Y-127872945D01*
X148279133Y-127875000D01*
X141508918Y-127875000D01*
X141448681Y-127834751D01*
X141353137Y-127795176D01*
X141251708Y-127775000D01*
X141148292Y-127775000D01*
X141046863Y-127795176D01*
X140951319Y-127834751D01*
X140865332Y-127892206D01*
X140792206Y-127965332D01*
X140734751Y-128051319D01*
X140695176Y-128146863D01*
X140675000Y-128248292D01*
X140675000Y-128351708D01*
X140695176Y-128453137D01*
X140734751Y-128548681D01*
X140792206Y-128634668D01*
X140865332Y-128707794D01*
X140951319Y-128765249D01*
X141046863Y-128804824D01*
X141148292Y-128825000D01*
X141251708Y-128825000D01*
X141353137Y-128804824D01*
X141448681Y-128765249D01*
X141508918Y-128725000D01*
X148123960Y-128725000D01*
X148419001Y-129020042D01*
X148419000Y-134951950D01*
X148253908Y-135117042D01*
X148182853Y-135131176D01*
X148087309Y-135170751D01*
X148027072Y-135211000D01*
X141151918Y-135211000D01*
X141091681Y-135170751D01*
X140996137Y-135131176D01*
X140968819Y-135125742D01*
X141131019Y-135122824D01*
X141347554Y-135075688D01*
X141514869Y-135006385D01*
X141598789Y-134846277D01*
X141000000Y-134247487D01*
X140401211Y-134846277D01*
X140485131Y-135006385D01*
X140691359Y-135087493D01*
X140821751Y-135111000D01*
X140791292Y-135111000D01*
X140689863Y-135131176D01*
X140594319Y-135170751D01*
X140508332Y-135228206D01*
X140435206Y-135301332D01*
X140377751Y-135387319D01*
X140338176Y-135482863D01*
X140318000Y-135584292D01*
X140318000Y-135687708D01*
X140338176Y-135789137D01*
X140377751Y-135884681D01*
X140404684Y-135924989D01*
X140079598Y-135924989D01*
X140023317Y-135868708D01*
X140023317Y-134530437D01*
X140153723Y-134598789D01*
X140752513Y-134000000D01*
X141247487Y-134000000D01*
X141846277Y-134598789D01*
X142006385Y-134514869D01*
X142087493Y-134308641D01*
X142126810Y-134090551D01*
X142122824Y-133868981D01*
X142075688Y-133652446D01*
X142006385Y-133485131D01*
X141846277Y-133401211D01*
X141247487Y-134000000D01*
X140752513Y-134000000D01*
X140153723Y-133401211D01*
X140023317Y-133469563D01*
X140023317Y-133153723D01*
X140401211Y-133153723D01*
X141000000Y-133752513D01*
X141598789Y-133153723D01*
X141514869Y-132993615D01*
X141308641Y-132912507D01*
X141090551Y-132873190D01*
X140868981Y-132877176D01*
X140652446Y-132924312D01*
X140485131Y-132993615D01*
X140401211Y-133153723D01*
X140023317Y-133153723D01*
X140023317Y-132464264D01*
X140032985Y-132457804D01*
X140106111Y-132384678D01*
X140163566Y-132298691D01*
X140203141Y-132203147D01*
X140223317Y-132101718D01*
X140223317Y-131998302D01*
X140203141Y-131896873D01*
X140163566Y-131801329D01*
X140106111Y-131715342D01*
X140032985Y-131642216D01*
X139946998Y-131584761D01*
X139851454Y-131545186D01*
X139750025Y-131525010D01*
X139646609Y-131525010D01*
X139545180Y-131545186D01*
X139449636Y-131584761D01*
X139363649Y-131642216D01*
X139290523Y-131715342D01*
X139265722Y-131752460D01*
X139265249Y-131751319D01*
X139207794Y-131665332D01*
X139134668Y-131592206D01*
X139048681Y-131534751D01*
X138953137Y-131495176D01*
X138851708Y-131475000D01*
X138748292Y-131475000D01*
X138646863Y-131495176D01*
X138551319Y-131534751D01*
X138465332Y-131592206D01*
X138392206Y-131665332D01*
X138334751Y-131751319D01*
X138295176Y-131846863D01*
X138275000Y-131948292D01*
X136094287Y-131948292D01*
X136090024Y-131926863D01*
X136050449Y-131831319D01*
X135992994Y-131745332D01*
X135919868Y-131672206D01*
X135833881Y-131614751D01*
X135738337Y-131575176D01*
X135636908Y-131555000D01*
X135533492Y-131555000D01*
X135432063Y-131575176D01*
X135336519Y-131614751D01*
X135250532Y-131672206D01*
X135177406Y-131745332D01*
X135170946Y-131755000D01*
X133992619Y-131755000D01*
X133675000Y-131437382D01*
X133675000Y-129801618D01*
X133738619Y-129738000D01*
X136009382Y-129738000D01*
X136510269Y-130238887D01*
X136508000Y-130250292D01*
X136508000Y-130353708D01*
X136528176Y-130455137D01*
X136567751Y-130550681D01*
X136625206Y-130636668D01*
X136698332Y-130709794D01*
X136784319Y-130767249D01*
X136879863Y-130806824D01*
X136981292Y-130827000D01*
X137084708Y-130827000D01*
X137186137Y-130806824D01*
X137281681Y-130767249D01*
X137367668Y-130709794D01*
X137440794Y-130636668D01*
X137498249Y-130550681D01*
X137537824Y-130455137D01*
X137558000Y-130353708D01*
X137558000Y-130250292D01*
X137537824Y-130148863D01*
X137498249Y-130053319D01*
X137440794Y-129967332D01*
X137367668Y-129894206D01*
X137281681Y-129836751D01*
X137186137Y-129797176D01*
X137084708Y-129777000D01*
X136981292Y-129777000D01*
X136969887Y-129779269D01*
X136395218Y-129204600D01*
X136999982Y-129204600D01*
X137653269Y-129857887D01*
X137651000Y-129869292D01*
X137651000Y-129972708D01*
X137671176Y-130074137D01*
X137710751Y-130169681D01*
X137768206Y-130255668D01*
X137841332Y-130328794D01*
X137927319Y-130386249D01*
X138022863Y-130425824D01*
X138124292Y-130446000D01*
X138227708Y-130446000D01*
X138329137Y-130425824D01*
X138424681Y-130386249D01*
X138510668Y-130328794D01*
X138583794Y-130255668D01*
X138641249Y-130169681D01*
X138680824Y-130074137D01*
X138701000Y-129972708D01*
X138701000Y-129869292D01*
X138680824Y-129767863D01*
X138641249Y-129672319D01*
X138583794Y-129586332D01*
X138510668Y-129513206D01*
X138424681Y-129455751D01*
X138329137Y-129416176D01*
X138227708Y-129396000D01*
X138124292Y-129396000D01*
X138112887Y-129398269D01*
X137375701Y-128661083D01*
X137365521Y-128648679D01*
X137316034Y-128608065D01*
X137259574Y-128577887D01*
X137198311Y-128559303D01*
X137150561Y-128554600D01*
X137150553Y-128554600D01*
X137134600Y-128553029D01*
X137118647Y-128554600D01*
X133264353Y-128554600D01*
X133248400Y-128553029D01*
X133232447Y-128554600D01*
X133232439Y-128554600D01*
X133184689Y-128559303D01*
X133123426Y-128577887D01*
X133066966Y-128608065D01*
X133060344Y-128613500D01*
X133029876Y-128638504D01*
X133029872Y-128638508D01*
X133017479Y-128648679D01*
X133007308Y-128661072D01*
X132481482Y-129186900D01*
X132469079Y-129197079D01*
X132428465Y-129246567D01*
X132405769Y-129289029D01*
X132398287Y-129303027D01*
X132383638Y-129351319D01*
X132379703Y-129364290D01*
X132375000Y-129412040D01*
X132375000Y-129412047D01*
X132373429Y-129428000D01*
X132375000Y-129443953D01*
X132375001Y-131685745D01*
X132365332Y-131692206D01*
X132292206Y-131765332D01*
X132234751Y-131851319D01*
X132195176Y-131946863D01*
X132175000Y-132048292D01*
X127933000Y-132048292D01*
X127933000Y-131113040D01*
X127992040Y-131054000D01*
X128077557Y-131054000D01*
X128198306Y-131029981D01*
X128312048Y-130982868D01*
X128414414Y-130914469D01*
X128501469Y-130827414D01*
X128569868Y-130725048D01*
X128616981Y-130611306D01*
X128641000Y-130490557D01*
X128641000Y-130367443D01*
X128616981Y-130246694D01*
X128569868Y-130132952D01*
X128501469Y-130030586D01*
X128441000Y-129970117D01*
X128441000Y-127408083D01*
X128501469Y-127347614D01*
X128569868Y-127245248D01*
X128616981Y-127131506D01*
X128641000Y-127010757D01*
X128641000Y-126887643D01*
X128616981Y-126766894D01*
X128569868Y-126653152D01*
X128501469Y-126550786D01*
X128414414Y-126463731D01*
X128312048Y-126395332D01*
X128198306Y-126348219D01*
X128077557Y-126324200D01*
X127954443Y-126324200D01*
X127833694Y-126348219D01*
X127719952Y-126395332D01*
X127617586Y-126463731D01*
X127530531Y-126550786D01*
X127462132Y-126653152D01*
X127415019Y-126766894D01*
X127391000Y-126887643D01*
X127391000Y-127010757D01*
X127415019Y-127131506D01*
X127462132Y-127245248D01*
X127530531Y-127347614D01*
X127591000Y-127408083D01*
X127591001Y-129970116D01*
X127530531Y-130030586D01*
X127462132Y-130132952D01*
X127415019Y-130246694D01*
X127391000Y-130367443D01*
X127391000Y-130452960D01*
X127222243Y-130621717D01*
X127206026Y-130635026D01*
X127152916Y-130699741D01*
X127113452Y-130773574D01*
X127101439Y-130813176D01*
X127090921Y-130847850D01*
X127089150Y-130853687D01*
X127083000Y-130916127D01*
X127083000Y-130916133D01*
X127080945Y-130937000D01*
X127083000Y-130957867D01*
X127083001Y-132129108D01*
X127022531Y-132189578D01*
X126954132Y-132291944D01*
X126907019Y-132405686D01*
X126883000Y-132526435D01*
X125328897Y-132526435D01*
X125284668Y-132482206D01*
X125198681Y-132424751D01*
X125103137Y-132385176D01*
X125001708Y-132365000D01*
X124898292Y-132365000D01*
X124796863Y-132385176D01*
X124701319Y-132424751D01*
X124615332Y-132482206D01*
X124542206Y-132555332D01*
X124484751Y-132641319D01*
X124445176Y-132736863D01*
X124425000Y-132838292D01*
X120250000Y-132838292D01*
X120250000Y-131403971D01*
X121025000Y-131403971D01*
X121025000Y-131596029D01*
X121062468Y-131784397D01*
X121135966Y-131961836D01*
X121242668Y-132121527D01*
X121378473Y-132257332D01*
X121538164Y-132364034D01*
X121715603Y-132437532D01*
X121903971Y-132475000D01*
X122096029Y-132475000D01*
X122284397Y-132437532D01*
X122461836Y-132364034D01*
X122621527Y-132257332D01*
X122757332Y-132121527D01*
X122864034Y-131961836D01*
X122920714Y-131825000D01*
X123627047Y-131825000D01*
X123643000Y-131826571D01*
X123658953Y-131825000D01*
X123658961Y-131825000D01*
X123706711Y-131820297D01*
X123767974Y-131801713D01*
X123824434Y-131771535D01*
X123873921Y-131730921D01*
X123884101Y-131718517D01*
X124142887Y-131459731D01*
X124154292Y-131462000D01*
X124257708Y-131462000D01*
X124359137Y-131441824D01*
X124454681Y-131402249D01*
X124540668Y-131344794D01*
X124613794Y-131271668D01*
X124671249Y-131185681D01*
X124710824Y-131090137D01*
X124731000Y-130988708D01*
X124731000Y-130885292D01*
X124710824Y-130783863D01*
X124671249Y-130688319D01*
X124613794Y-130602332D01*
X124540668Y-130529206D01*
X124454681Y-130471751D01*
X124359137Y-130432176D01*
X124257708Y-130412000D01*
X124154292Y-130412000D01*
X124052863Y-130432176D01*
X123957319Y-130471751D01*
X123871332Y-130529206D01*
X123798206Y-130602332D01*
X123740751Y-130688319D01*
X123701176Y-130783863D01*
X123681000Y-130885292D01*
X123681000Y-130988708D01*
X123683269Y-131000113D01*
X123508382Y-131175000D01*
X122920714Y-131175000D01*
X122864034Y-131038164D01*
X122757332Y-130878473D01*
X122621527Y-130742668D01*
X122461836Y-130635966D01*
X122284397Y-130562468D01*
X122096029Y-130525000D01*
X121903971Y-130525000D01*
X121715603Y-130562468D01*
X121538164Y-130635966D01*
X121378473Y-130742668D01*
X121242668Y-130878473D01*
X121135966Y-131038164D01*
X121062468Y-131215603D01*
X121025000Y-131403971D01*
X120250000Y-131403971D01*
X120250000Y-128903971D01*
X121025000Y-128903971D01*
X121025000Y-129096029D01*
X121062468Y-129284397D01*
X121135966Y-129461836D01*
X121242668Y-129621527D01*
X121378473Y-129757332D01*
X121538164Y-129864034D01*
X121715603Y-129937532D01*
X121903971Y-129975000D01*
X122096029Y-129975000D01*
X122284397Y-129937532D01*
X122461836Y-129864034D01*
X122621527Y-129757332D01*
X122757332Y-129621527D01*
X122864034Y-129461836D01*
X122907459Y-129357000D01*
X123791746Y-129357000D01*
X123798206Y-129366668D01*
X123871332Y-129439794D01*
X123957319Y-129497249D01*
X124052863Y-129536824D01*
X124154292Y-129557000D01*
X124257708Y-129557000D01*
X124359137Y-129536824D01*
X124454681Y-129497249D01*
X124540668Y-129439794D01*
X124613794Y-129366668D01*
X124671249Y-129280681D01*
X124710824Y-129185137D01*
X124731000Y-129083708D01*
X124731000Y-128980292D01*
X124710824Y-128878863D01*
X124671249Y-128783319D01*
X124613794Y-128697332D01*
X124540668Y-128624206D01*
X124454681Y-128566751D01*
X124359137Y-128527176D01*
X124257708Y-128507000D01*
X124154292Y-128507000D01*
X124052863Y-128527176D01*
X123957319Y-128566751D01*
X123871332Y-128624206D01*
X123798206Y-128697332D01*
X123791746Y-128707000D01*
X122933969Y-128707000D01*
X122864034Y-128538164D01*
X122757332Y-128378473D01*
X122621527Y-128242668D01*
X122461836Y-128135966D01*
X122284397Y-128062468D01*
X122096029Y-128025000D01*
X121903971Y-128025000D01*
X121715603Y-128062468D01*
X121538164Y-128135966D01*
X121378473Y-128242668D01*
X121242668Y-128378473D01*
X121135966Y-128538164D01*
X121062468Y-128715603D01*
X121025000Y-128903971D01*
X120250000Y-128903971D01*
X120250000Y-127058292D01*
X124425000Y-127058292D01*
X124425000Y-127161708D01*
X124445176Y-127263137D01*
X124484751Y-127358681D01*
X124542206Y-127444668D01*
X124615332Y-127517794D01*
X124701319Y-127575249D01*
X124796863Y-127614824D01*
X124898292Y-127635000D01*
X125001708Y-127635000D01*
X125103137Y-127614824D01*
X125198681Y-127575249D01*
X125284668Y-127517794D01*
X125357794Y-127444668D01*
X125415249Y-127358681D01*
X125454824Y-127263137D01*
X125475000Y-127161708D01*
X125475000Y-127058292D01*
X125454824Y-126956863D01*
X125415249Y-126861319D01*
X125357794Y-126775332D01*
X125284668Y-126702206D01*
X125198681Y-126644751D01*
X125103137Y-126605176D01*
X125001708Y-126585000D01*
X124898292Y-126585000D01*
X124796863Y-126605176D01*
X124701319Y-126644751D01*
X124615332Y-126702206D01*
X124542206Y-126775332D01*
X124484751Y-126861319D01*
X124445176Y-126956863D01*
X124425000Y-127058292D01*
X120250000Y-127058292D01*
X120250000Y-126261051D01*
X120256147Y-126268738D01*
X120382607Y-126375231D01*
X120527413Y-126455007D01*
X120685000Y-126505000D01*
X121085000Y-126505000D01*
X121085000Y-125855000D01*
X121435000Y-125855000D01*
X121435000Y-126505000D01*
X121835000Y-126505000D01*
X121992587Y-126455007D01*
X122137393Y-126375231D01*
X122263853Y-126268738D01*
X122367107Y-126139620D01*
X122428924Y-125978967D01*
X124111076Y-125978967D01*
X124172893Y-126139620D01*
X124276147Y-126268738D01*
X124402607Y-126375231D01*
X124547413Y-126455007D01*
X124705000Y-126505000D01*
X125255000Y-126505000D01*
X125255000Y-125855000D01*
X125605000Y-125855000D01*
X125605000Y-126505000D01*
X126155000Y-126505000D01*
X126312587Y-126455007D01*
X126457393Y-126375231D01*
X126583853Y-126268738D01*
X126687107Y-126139620D01*
X126748924Y-125978967D01*
X126690001Y-125855000D01*
X125605000Y-125855000D01*
X125255000Y-125855000D01*
X124169999Y-125855000D01*
X124111076Y-125978967D01*
X122428924Y-125978967D01*
X122370001Y-125855000D01*
X121435000Y-125855000D01*
X121085000Y-125855000D01*
X121065000Y-125855000D01*
X121065000Y-125505000D01*
X121085000Y-125505000D01*
X121085000Y-124855000D01*
X121435000Y-124855000D01*
X121435000Y-125505000D01*
X122370001Y-125505000D01*
X122428924Y-125381033D01*
X124111076Y-125381033D01*
X124169999Y-125505000D01*
X125255000Y-125505000D01*
X125255000Y-124855000D01*
X125605000Y-124855000D01*
X125605000Y-125505000D01*
X126690001Y-125505000D01*
X126748924Y-125381033D01*
X126687107Y-125220380D01*
X126583853Y-125091262D01*
X126457393Y-124984769D01*
X126312587Y-124904993D01*
X126155000Y-124855000D01*
X125605000Y-124855000D01*
X125255000Y-124855000D01*
X124705000Y-124855000D01*
X124547413Y-124904993D01*
X124402607Y-124984769D01*
X124276147Y-125091262D01*
X124172893Y-125220380D01*
X124111076Y-125381033D01*
X122428924Y-125381033D01*
X122367107Y-125220380D01*
X122263853Y-125091262D01*
X122137393Y-124984769D01*
X121992587Y-124904993D01*
X121835000Y-124855000D01*
X121435000Y-124855000D01*
X121085000Y-124855000D01*
X120685000Y-124855000D01*
X120527413Y-124904993D01*
X120382607Y-124984769D01*
X120256147Y-125091262D01*
X120250000Y-125098949D01*
X120250000Y-124846277D01*
X127901211Y-124846277D01*
X127985131Y-125006385D01*
X128191359Y-125087493D01*
X128409449Y-125126810D01*
X128631019Y-125122824D01*
X128847554Y-125075688D01*
X129014869Y-125006385D01*
X129098789Y-124846277D01*
X128500000Y-124247487D01*
X127901211Y-124846277D01*
X120250000Y-124846277D01*
X120250000Y-122894122D01*
X120425000Y-122894122D01*
X120425000Y-123105878D01*
X120466312Y-123313566D01*
X120547348Y-123509203D01*
X120664993Y-123685272D01*
X120814728Y-123835007D01*
X120990797Y-123952652D01*
X121186434Y-124033688D01*
X121394122Y-124075000D01*
X121605878Y-124075000D01*
X121813566Y-124033688D01*
X122009203Y-123952652D01*
X122185272Y-123835007D01*
X122335007Y-123685272D01*
X122452652Y-123509203D01*
X122533688Y-123313566D01*
X122575000Y-123105878D01*
X122575000Y-122894122D01*
X122533688Y-122686434D01*
X122452652Y-122490797D01*
X122355152Y-122344876D01*
X122925000Y-122344876D01*
X122925000Y-122655124D01*
X122985526Y-122959411D01*
X123104253Y-123246042D01*
X123276617Y-123504004D01*
X123495996Y-123723383D01*
X123753958Y-123895747D01*
X124040589Y-124014474D01*
X124344876Y-124075000D01*
X124655124Y-124075000D01*
X124959411Y-124014474D01*
X125212962Y-123909449D01*
X127373190Y-123909449D01*
X127377176Y-124131019D01*
X127424312Y-124347554D01*
X127493615Y-124514869D01*
X127653723Y-124598789D01*
X128252513Y-124000000D01*
X128747487Y-124000000D01*
X129346277Y-124598789D01*
X129506385Y-124514869D01*
X129587493Y-124308641D01*
X129626810Y-124090551D01*
X129622824Y-123868981D01*
X129575688Y-123652446D01*
X129506385Y-123485131D01*
X129346277Y-123401211D01*
X128747487Y-124000000D01*
X128252513Y-124000000D01*
X127653723Y-123401211D01*
X127493615Y-123485131D01*
X127412507Y-123691359D01*
X127373190Y-123909449D01*
X125212962Y-123909449D01*
X125246042Y-123895747D01*
X125504004Y-123723383D01*
X125723383Y-123504004D01*
X125895747Y-123246042D01*
X126014474Y-122959411D01*
X126075000Y-122655124D01*
X126075000Y-122344876D01*
X126014474Y-122040589D01*
X125895747Y-121753958D01*
X125723383Y-121495996D01*
X125631358Y-121403971D01*
X127525000Y-121403971D01*
X127525000Y-121596029D01*
X127562468Y-121784397D01*
X127635966Y-121961836D01*
X127742668Y-122121527D01*
X127878473Y-122257332D01*
X128038164Y-122364034D01*
X128215603Y-122437532D01*
X128403971Y-122475000D01*
X128549483Y-122475000D01*
X128527176Y-122528855D01*
X128507000Y-122630284D01*
X128507000Y-122733700D01*
X128527176Y-122835129D01*
X128543293Y-122874040D01*
X128368981Y-122877176D01*
X128152446Y-122924312D01*
X127985131Y-122993615D01*
X127901211Y-123153723D01*
X128500000Y-123752513D01*
X129045520Y-123206992D01*
X129083708Y-123206992D01*
X129185137Y-123186816D01*
X129280681Y-123147241D01*
X129366668Y-123089786D01*
X129439794Y-123016660D01*
X129497249Y-122930673D01*
X129536824Y-122835129D01*
X129557000Y-122733700D01*
X129557000Y-122630284D01*
X129536824Y-122528855D01*
X129497249Y-122433311D01*
X129457000Y-122373074D01*
X129457000Y-122194867D01*
X129459055Y-122174000D01*
X129457000Y-122153133D01*
X129457000Y-122153126D01*
X129450850Y-122090686D01*
X129426548Y-122010573D01*
X129387084Y-121936740D01*
X129378674Y-121926492D01*
X129437532Y-121784397D01*
X129475000Y-121596029D01*
X129475000Y-121403971D01*
X129437532Y-121215603D01*
X129392254Y-121106292D01*
X149970000Y-121106292D01*
X149970000Y-121209708D01*
X149990176Y-121311137D01*
X150029751Y-121406681D01*
X150087206Y-121492668D01*
X150160332Y-121565794D01*
X150246319Y-121623249D01*
X150341863Y-121662824D01*
X150443292Y-121683000D01*
X150546708Y-121683000D01*
X150648137Y-121662824D01*
X150743681Y-121623249D01*
X150829668Y-121565794D01*
X150902794Y-121492668D01*
X150909254Y-121483000D01*
X151850913Y-121483000D01*
X152552118Y-122184205D01*
X152549849Y-122195610D01*
X152549849Y-122299026D01*
X152570025Y-122400455D01*
X152609600Y-122495999D01*
X152667055Y-122581986D01*
X152740181Y-122655112D01*
X152826168Y-122712567D01*
X152907085Y-122746083D01*
X152863101Y-122790068D01*
X152851696Y-122787799D01*
X152748280Y-122787799D01*
X152646851Y-122807975D01*
X152551307Y-122847550D01*
X152465320Y-122905005D01*
X152392194Y-122978131D01*
X152334739Y-123064118D01*
X152295164Y-123159662D01*
X152274988Y-123261091D01*
X152274988Y-123364507D01*
X152295164Y-123465936D01*
X152334739Y-123561480D01*
X152392194Y-123647467D01*
X152465320Y-123720593D01*
X152551307Y-123778048D01*
X152646851Y-123817623D01*
X152748280Y-123837799D01*
X152851696Y-123837799D01*
X152953125Y-123817623D01*
X153048669Y-123778048D01*
X153134656Y-123720593D01*
X153207782Y-123647467D01*
X153265237Y-123561480D01*
X153304812Y-123465936D01*
X153324988Y-123364507D01*
X153324988Y-123261091D01*
X153322719Y-123249686D01*
X153565407Y-123007000D01*
X156509036Y-123007000D01*
X156465326Y-123036206D01*
X156392200Y-123109332D01*
X156334745Y-123195319D01*
X156295170Y-123290863D01*
X156274994Y-123392292D01*
X156274994Y-123495708D01*
X156295170Y-123597137D01*
X156334745Y-123692681D01*
X156392200Y-123778668D01*
X156465326Y-123851794D01*
X156551313Y-123909249D01*
X156646857Y-123948824D01*
X156748286Y-123969000D01*
X156851702Y-123969000D01*
X156953131Y-123948824D01*
X157048675Y-123909249D01*
X157134662Y-123851794D01*
X157207788Y-123778668D01*
X157214248Y-123769000D01*
X157345382Y-123769000D01*
X157846269Y-124269887D01*
X157844000Y-124281292D01*
X157844000Y-124384708D01*
X157864176Y-124486137D01*
X157903751Y-124581681D01*
X157961206Y-124667668D01*
X158034332Y-124740794D01*
X158120319Y-124798249D01*
X158215863Y-124837824D01*
X158317292Y-124858000D01*
X158420708Y-124858000D01*
X158522137Y-124837824D01*
X158617681Y-124798249D01*
X158703668Y-124740794D01*
X158776794Y-124667668D01*
X158834249Y-124581681D01*
X158873824Y-124486137D01*
X158894000Y-124384708D01*
X158894000Y-124281292D01*
X158873824Y-124179863D01*
X158834249Y-124084319D01*
X158776794Y-123998332D01*
X158703668Y-123925206D01*
X158617681Y-123867751D01*
X158522137Y-123828176D01*
X158420708Y-123808000D01*
X158317292Y-123808000D01*
X158305887Y-123810269D01*
X157721101Y-123225483D01*
X157710921Y-123213079D01*
X157661434Y-123172465D01*
X157604974Y-123142287D01*
X157543711Y-123123703D01*
X157495961Y-123119000D01*
X157495953Y-123119000D01*
X157480000Y-123117429D01*
X157464047Y-123119000D01*
X157214248Y-123119000D01*
X157207788Y-123109332D01*
X157134662Y-123036206D01*
X157090952Y-123007000D01*
X158234382Y-123007000D01*
X158762908Y-123535528D01*
X158773079Y-123547921D01*
X158785472Y-123558092D01*
X158785476Y-123558096D01*
X158789600Y-123561480D01*
X158822566Y-123588535D01*
X158879026Y-123618713D01*
X158940289Y-123637297D01*
X158988039Y-123642000D01*
X158988047Y-123642000D01*
X159004000Y-123643571D01*
X159019953Y-123642000D01*
X160774382Y-123642000D01*
X160841367Y-123708985D01*
X160840863Y-123709085D01*
X160745319Y-123748660D01*
X160659332Y-123806115D01*
X160586206Y-123879241D01*
X160528751Y-123965228D01*
X160489176Y-124060772D01*
X160469000Y-124162201D01*
X160469000Y-124265617D01*
X160489176Y-124367046D01*
X160528751Y-124462590D01*
X160586206Y-124548577D01*
X160605092Y-124567463D01*
X158912483Y-126260072D01*
X158900079Y-126270252D01*
X158859465Y-126319740D01*
X158829287Y-126376200D01*
X158810703Y-126437463D01*
X158806000Y-126485213D01*
X158806000Y-126485220D01*
X158804429Y-126501173D01*
X158806000Y-126517126D01*
X158806001Y-127474746D01*
X158796332Y-127481206D01*
X158723206Y-127554332D01*
X158665751Y-127640319D01*
X158626176Y-127735863D01*
X158606000Y-127837292D01*
X158606000Y-127940708D01*
X158626176Y-128042137D01*
X158665751Y-128137681D01*
X158723206Y-128223668D01*
X158796332Y-128296794D01*
X158882319Y-128354249D01*
X158977863Y-128393824D01*
X159079292Y-128414000D01*
X159182708Y-128414000D01*
X159284137Y-128393824D01*
X159379681Y-128354249D01*
X159465668Y-128296794D01*
X159538794Y-128223668D01*
X159568000Y-128179958D01*
X159568000Y-128508047D01*
X159566429Y-128524000D01*
X159568000Y-128539953D01*
X159568000Y-128539960D01*
X159569905Y-128559303D01*
X159572703Y-128587711D01*
X159583774Y-128624206D01*
X159591287Y-128648973D01*
X159621465Y-128705433D01*
X159662079Y-128754921D01*
X159674482Y-128765100D01*
X160127908Y-129218528D01*
X160138079Y-129230921D01*
X160150472Y-129241092D01*
X160150476Y-129241096D01*
X160157143Y-129246567D01*
X160175019Y-129261238D01*
X160183060Y-129342880D01*
X160210152Y-129432191D01*
X160254147Y-129514500D01*
X160313355Y-129586645D01*
X160385500Y-129645853D01*
X160467809Y-129689848D01*
X160557120Y-129716940D01*
X160618647Y-129723000D01*
X160307254Y-129723000D01*
X160300794Y-129713332D01*
X160227668Y-129640206D01*
X160141681Y-129582751D01*
X160046137Y-129543176D01*
X159944708Y-129523000D01*
X159841292Y-129523000D01*
X159739863Y-129543176D01*
X159644319Y-129582751D01*
X159558332Y-129640206D01*
X159485206Y-129713332D01*
X159427751Y-129799319D01*
X159388176Y-129894863D01*
X159368000Y-129996292D01*
X159368000Y-130099708D01*
X159388176Y-130201137D01*
X159427751Y-130296681D01*
X159485206Y-130382668D01*
X159558332Y-130455794D01*
X159644319Y-130513249D01*
X159739863Y-130552824D01*
X159841292Y-130573000D01*
X159944708Y-130573000D01*
X160046137Y-130552824D01*
X160141681Y-130513249D01*
X160227668Y-130455794D01*
X160300794Y-130382668D01*
X160307254Y-130373000D01*
X160362528Y-130373000D01*
X160313355Y-130413355D01*
X160254147Y-130485500D01*
X160210152Y-130567809D01*
X160183060Y-130657120D01*
X160173912Y-130750000D01*
X160173912Y-131250000D01*
X160183060Y-131342880D01*
X160210152Y-131432191D01*
X160254147Y-131514500D01*
X160313355Y-131586645D01*
X160385500Y-131645853D01*
X160467809Y-131689848D01*
X160557120Y-131716940D01*
X160650000Y-131726088D01*
X163650000Y-131726088D01*
X163742880Y-131716940D01*
X163832191Y-131689848D01*
X163914500Y-131645853D01*
X163986645Y-131586645D01*
X164045853Y-131514500D01*
X164089848Y-131432191D01*
X164116940Y-131342880D01*
X164118701Y-131325000D01*
X164139382Y-131325000D01*
X164267000Y-131452619D01*
X164267000Y-132418003D01*
X164248131Y-132355800D01*
X164213309Y-132290653D01*
X164166448Y-132233552D01*
X164109347Y-132186691D01*
X164044200Y-132151869D01*
X163973513Y-132130426D01*
X163900000Y-132123186D01*
X162418750Y-132125000D01*
X162325000Y-132218750D01*
X162325000Y-132825000D01*
X162345000Y-132825000D01*
X162345000Y-133175000D01*
X162325000Y-133175000D01*
X162325000Y-133781250D01*
X162418750Y-133875000D01*
X163900000Y-133876814D01*
X163973513Y-133869574D01*
X164044200Y-133848131D01*
X164109347Y-133813309D01*
X164110165Y-133812638D01*
X164126751Y-133852681D01*
X164167723Y-133914000D01*
X161178953Y-133914000D01*
X161163000Y-133912429D01*
X161147047Y-133914000D01*
X161147039Y-133914000D01*
X161099289Y-133918703D01*
X161038026Y-133937287D01*
X160981566Y-133967465D01*
X160960697Y-133984592D01*
X160944476Y-133997904D01*
X160944472Y-133997908D01*
X160932079Y-134008079D01*
X160921908Y-134020472D01*
X160309478Y-134632904D01*
X160297080Y-134643079D01*
X160256466Y-134692566D01*
X160251993Y-134700935D01*
X160226287Y-134749027D01*
X160207703Y-134810289D01*
X160201429Y-134874000D01*
X160203001Y-134889963D01*
X160203000Y-135602746D01*
X160193332Y-135609206D01*
X160120206Y-135682332D01*
X160062751Y-135768319D01*
X160023176Y-135863863D01*
X160003000Y-135965292D01*
X160003000Y-136068708D01*
X160023176Y-136170137D01*
X160062751Y-136265681D01*
X160120206Y-136351668D01*
X160193332Y-136424794D01*
X160279319Y-136482249D01*
X160374863Y-136521824D01*
X160476292Y-136542000D01*
X160579708Y-136542000D01*
X160681137Y-136521824D01*
X160776681Y-136482249D01*
X160862668Y-136424794D01*
X160935794Y-136351668D01*
X160993249Y-136265681D01*
X161032824Y-136170137D01*
X161053000Y-136068708D01*
X161053000Y-135965292D01*
X161032824Y-135863863D01*
X160993249Y-135768319D01*
X160935794Y-135682332D01*
X160862668Y-135609206D01*
X160853000Y-135602746D01*
X160853000Y-135008618D01*
X161297620Y-134564000D01*
X165045047Y-134564000D01*
X165061000Y-134565571D01*
X165076953Y-134564000D01*
X165076961Y-134564000D01*
X165124711Y-134559297D01*
X165185974Y-134540713D01*
X165242434Y-134510535D01*
X165291921Y-134469921D01*
X165302101Y-134457517D01*
X167318523Y-132441096D01*
X167330921Y-132430921D01*
X167371535Y-132381434D01*
X167401713Y-132324974D01*
X167420297Y-132263711D01*
X167425000Y-132215961D01*
X167425000Y-132215954D01*
X167426571Y-132200001D01*
X167425000Y-132184048D01*
X167425000Y-129415952D01*
X167426571Y-129399999D01*
X167425000Y-129384046D01*
X167425000Y-129384039D01*
X167420297Y-129336289D01*
X167401713Y-129275026D01*
X167371535Y-129218566D01*
X167330921Y-129169079D01*
X167318524Y-129158905D01*
X166922731Y-128763113D01*
X166925000Y-128751708D01*
X166925000Y-128648292D01*
X166904824Y-128546863D01*
X166865249Y-128451319D01*
X166807794Y-128365332D01*
X166734668Y-128292206D01*
X166648681Y-128234751D01*
X166553137Y-128195176D01*
X166451708Y-128175000D01*
X166348292Y-128175000D01*
X166246863Y-128195176D01*
X166151319Y-128234751D01*
X166065332Y-128292206D01*
X165992206Y-128365332D01*
X165934751Y-128451319D01*
X165895176Y-128546863D01*
X165894729Y-128549112D01*
X164126088Y-126780472D01*
X164126088Y-126750000D01*
X164116940Y-126657120D01*
X164089848Y-126567809D01*
X164045853Y-126485500D01*
X163986645Y-126413355D01*
X163914500Y-126354147D01*
X163832191Y-126310152D01*
X163742880Y-126283060D01*
X163650000Y-126273912D01*
X163619528Y-126273912D01*
X162984099Y-125638483D01*
X162973919Y-125626079D01*
X162924432Y-125585465D01*
X162867972Y-125555287D01*
X162806709Y-125536703D01*
X162758959Y-125532000D01*
X162758951Y-125532000D01*
X162742998Y-125530429D01*
X162727045Y-125532000D01*
X162720254Y-125532000D01*
X162713794Y-125522332D01*
X162640668Y-125449206D01*
X162631000Y-125442746D01*
X162631000Y-124729952D01*
X162632571Y-124713999D01*
X162631000Y-124698046D01*
X162631000Y-124698039D01*
X162626297Y-124650289D01*
X162625810Y-124648681D01*
X162607713Y-124589026D01*
X162603655Y-124581434D01*
X162577535Y-124532566D01*
X162536921Y-124483079D01*
X162524523Y-124472904D01*
X161150101Y-123098483D01*
X161139921Y-123086079D01*
X161090434Y-123045465D01*
X161033974Y-123015287D01*
X160972711Y-122996703D01*
X160924961Y-122992000D01*
X160924953Y-122992000D01*
X160909000Y-122990429D01*
X160893047Y-122992000D01*
X159138620Y-122992000D01*
X158610101Y-122463482D01*
X158599921Y-122451079D01*
X158550434Y-122410465D01*
X158493974Y-122380287D01*
X158432711Y-122361703D01*
X158384961Y-122357000D01*
X158384953Y-122357000D01*
X158369000Y-122355429D01*
X158353047Y-122357000D01*
X154341958Y-122357000D01*
X154360102Y-122344876D01*
X162425000Y-122344876D01*
X162425000Y-122655124D01*
X162485526Y-122959411D01*
X162604253Y-123246042D01*
X162776617Y-123504004D01*
X162995996Y-123723383D01*
X163253958Y-123895747D01*
X163540589Y-124014474D01*
X163844876Y-124075000D01*
X164155124Y-124075000D01*
X164459411Y-124014474D01*
X164746042Y-123895747D01*
X165004004Y-123723383D01*
X165223383Y-123504004D01*
X165395747Y-123246042D01*
X165514474Y-122959411D01*
X165575000Y-122655124D01*
X165575000Y-122344876D01*
X165514474Y-122040589D01*
X165395747Y-121753958D01*
X165223383Y-121495996D01*
X165004004Y-121276617D01*
X164746042Y-121104253D01*
X164459411Y-120985526D01*
X164155124Y-120925000D01*
X163844876Y-120925000D01*
X163540589Y-120985526D01*
X163253958Y-121104253D01*
X162995996Y-121276617D01*
X162776617Y-121495996D01*
X162604253Y-121753958D01*
X162485526Y-122040589D01*
X162425000Y-122344876D01*
X154360102Y-122344876D01*
X154385668Y-122327794D01*
X154458794Y-122254668D01*
X154516249Y-122168681D01*
X154537241Y-122118000D01*
X158480047Y-122118000D01*
X158496000Y-122119571D01*
X158511953Y-122118000D01*
X158511961Y-122118000D01*
X158559711Y-122113297D01*
X158620974Y-122094713D01*
X158677434Y-122064535D01*
X158726921Y-122023921D01*
X158737101Y-122011517D01*
X159448887Y-121299731D01*
X159460292Y-121302000D01*
X159563708Y-121302000D01*
X159665137Y-121281824D01*
X159760681Y-121242249D01*
X159846668Y-121184794D01*
X159919794Y-121111668D01*
X159977249Y-121025681D01*
X160016824Y-120930137D01*
X160037000Y-120828708D01*
X160037000Y-120725292D01*
X160016824Y-120623863D01*
X159977249Y-120528319D01*
X159919794Y-120442332D01*
X159846668Y-120369206D01*
X159760681Y-120311751D01*
X159665137Y-120272176D01*
X159563708Y-120252000D01*
X159460292Y-120252000D01*
X159358863Y-120272176D01*
X159263319Y-120311751D01*
X159177332Y-120369206D01*
X159104206Y-120442332D01*
X159046751Y-120528319D01*
X159007176Y-120623863D01*
X158987000Y-120725292D01*
X158987000Y-120828708D01*
X158989269Y-120840113D01*
X158361382Y-121468000D01*
X154319509Y-121468000D01*
X154299681Y-121454751D01*
X154204137Y-121415176D01*
X154102708Y-121395000D01*
X153999292Y-121395000D01*
X153897863Y-121415176D01*
X153802319Y-121454751D01*
X153716332Y-121512206D01*
X153643206Y-121585332D01*
X153585751Y-121671319D01*
X153546176Y-121766863D01*
X153526000Y-121868292D01*
X153526000Y-121971708D01*
X153527651Y-121980009D01*
X153482643Y-121912650D01*
X153409517Y-121839524D01*
X153323530Y-121782069D01*
X153227986Y-121742494D01*
X153126557Y-121722318D01*
X153023141Y-121722318D01*
X153011736Y-121724587D01*
X152226632Y-120939483D01*
X152216452Y-120927079D01*
X152166965Y-120886465D01*
X152110505Y-120856287D01*
X152049242Y-120837703D01*
X152001492Y-120833000D01*
X152001484Y-120833000D01*
X151985531Y-120831429D01*
X151969578Y-120833000D01*
X150909254Y-120833000D01*
X150902794Y-120823332D01*
X150829668Y-120750206D01*
X150743681Y-120692751D01*
X150648137Y-120653176D01*
X150546708Y-120633000D01*
X150443292Y-120633000D01*
X150341863Y-120653176D01*
X150246319Y-120692751D01*
X150160332Y-120750206D01*
X150087206Y-120823332D01*
X150029751Y-120909319D01*
X149990176Y-121004863D01*
X149970000Y-121106292D01*
X129392254Y-121106292D01*
X129364034Y-121038164D01*
X129257332Y-120878473D01*
X129121527Y-120742668D01*
X128961836Y-120635966D01*
X128784397Y-120562468D01*
X128596029Y-120525000D01*
X128403971Y-120525000D01*
X128215603Y-120562468D01*
X128038164Y-120635966D01*
X127878473Y-120742668D01*
X127742668Y-120878473D01*
X127635966Y-121038164D01*
X127562468Y-121215603D01*
X127525000Y-121403971D01*
X125631358Y-121403971D01*
X125504004Y-121276617D01*
X125246042Y-121104253D01*
X124959411Y-120985526D01*
X124655124Y-120925000D01*
X124344876Y-120925000D01*
X124040589Y-120985526D01*
X123753958Y-121104253D01*
X123495996Y-121276617D01*
X123276617Y-121495996D01*
X123104253Y-121753958D01*
X122985526Y-122040589D01*
X122925000Y-122344876D01*
X122355152Y-122344876D01*
X122335007Y-122314728D01*
X122185272Y-122164993D01*
X122009203Y-122047348D01*
X121813566Y-121966312D01*
X121605878Y-121925000D01*
X121394122Y-121925000D01*
X121186434Y-121966312D01*
X120990797Y-122047348D01*
X120814728Y-122164993D01*
X120664993Y-122314728D01*
X120547348Y-122490797D01*
X120466312Y-122686434D01*
X120425000Y-122894122D01*
X120250000Y-122894122D01*
X120250000Y-121012229D01*
X120265460Y-120854557D01*
X120307699Y-120714654D01*
X120376308Y-120585619D01*
X120468672Y-120472369D01*
X120581275Y-120379215D01*
X120709823Y-120309710D01*
X120849437Y-120266492D01*
X121006346Y-120250000D01*
X168987771Y-120250000D01*
X169145443Y-120265460D01*
G37*
X169145443Y-120265460D02*
X169285346Y-120307699D01*
X169414381Y-120376308D01*
X169527631Y-120468672D01*
X169620785Y-120581275D01*
X169690290Y-120709823D01*
X169733508Y-120849437D01*
X169750001Y-121006356D01*
X169750001Y-123893260D01*
X169745853Y-123885500D01*
X169686645Y-123813355D01*
X169614500Y-123754147D01*
X169532191Y-123710152D01*
X169442880Y-123683060D01*
X169350000Y-123673912D01*
X166450000Y-123673912D01*
X166357120Y-123683060D01*
X166267809Y-123710152D01*
X166185500Y-123754147D01*
X166113355Y-123813355D01*
X166054147Y-123885500D01*
X166010152Y-123967809D01*
X165983060Y-124057120D01*
X165973912Y-124150000D01*
X165973912Y-125150000D01*
X165983060Y-125242880D01*
X166010152Y-125332191D01*
X166054147Y-125414500D01*
X166113355Y-125486645D01*
X166185500Y-125545853D01*
X166267809Y-125589848D01*
X166357120Y-125616940D01*
X166450000Y-125626088D01*
X169350000Y-125626088D01*
X169442880Y-125616940D01*
X169532191Y-125589848D01*
X169614500Y-125545853D01*
X169686645Y-125486645D01*
X169745853Y-125414500D01*
X169750001Y-125406740D01*
X169750000Y-134593259D01*
X169745853Y-134585500D01*
X169686645Y-134513355D01*
X169614500Y-134454147D01*
X169532191Y-134410152D01*
X169442880Y-134383060D01*
X169350000Y-134373912D01*
X166450000Y-134373912D01*
X166357120Y-134383060D01*
X166267809Y-134410152D01*
X166185500Y-134454147D01*
X166113355Y-134513355D01*
X166054147Y-134585500D01*
X166010152Y-134667809D01*
X165983060Y-134757120D01*
X165973912Y-134850000D01*
X165973912Y-135850000D01*
X165983060Y-135942880D01*
X166010152Y-136032191D01*
X166054147Y-136114500D01*
X166113355Y-136186645D01*
X166185500Y-136245853D01*
X166267809Y-136289848D01*
X166357120Y-136316940D01*
X166450000Y-136326088D01*
X169350000Y-136326088D01*
X169442880Y-136316940D01*
X169532191Y-136289848D01*
X169614500Y-136245853D01*
X169686645Y-136186645D01*
X169745853Y-136114500D01*
X169750000Y-136106741D01*
X169750000Y-138987771D01*
X169734540Y-139145443D01*
X169692301Y-139285346D01*
X169623691Y-139414383D01*
X169531330Y-139527629D01*
X169418724Y-139620785D01*
X169290175Y-139690291D01*
X169150563Y-139733508D01*
X168993654Y-139750000D01*
X121012229Y-139750000D01*
X120854557Y-139734540D01*
X120714654Y-139692301D01*
X120585617Y-139623691D01*
X120472371Y-139531330D01*
X120379215Y-139418724D01*
X120309709Y-139290175D01*
X120266492Y-139150563D01*
X120250000Y-138993654D01*
X120250000Y-138394122D01*
X120425000Y-138394122D01*
X120425000Y-138605878D01*
X120466312Y-138813566D01*
X120547348Y-139009203D01*
X120664993Y-139185272D01*
X120814728Y-139335007D01*
X120990797Y-139452652D01*
X121186434Y-139533688D01*
X121394122Y-139575000D01*
X121605878Y-139575000D01*
X121813566Y-139533688D01*
X122009203Y-139452652D01*
X122185272Y-139335007D01*
X122335007Y-139185272D01*
X122452652Y-139009203D01*
X122533688Y-138813566D01*
X122575000Y-138605878D01*
X122575000Y-138394122D01*
X122533688Y-138186434D01*
X122452652Y-137990797D01*
X122335007Y-137814728D01*
X122185272Y-137664993D01*
X122009203Y-137547348D01*
X121813566Y-137466312D01*
X121605878Y-137425000D01*
X121394122Y-137425000D01*
X121186434Y-137466312D01*
X120990797Y-137547348D01*
X120814728Y-137664993D01*
X120664993Y-137814728D01*
X120547348Y-137990797D01*
X120466312Y-138186434D01*
X120425000Y-138394122D01*
X120250000Y-138394122D01*
X120250000Y-137344876D01*
X122925000Y-137344876D01*
X122925000Y-137655124D01*
X122985526Y-137959411D01*
X123104253Y-138246042D01*
X123276617Y-138504004D01*
X123495996Y-138723383D01*
X123753958Y-138895747D01*
X124040589Y-139014474D01*
X124344876Y-139075000D01*
X124655124Y-139075000D01*
X124959411Y-139014474D01*
X125246042Y-138895747D01*
X125504004Y-138723383D01*
X125614330Y-138613057D01*
X128565700Y-138613057D01*
X128565700Y-138754943D01*
X128593381Y-138894104D01*
X128647679Y-139025190D01*
X128726507Y-139143164D01*
X128826836Y-139243493D01*
X128944810Y-139322321D01*
X129075896Y-139376619D01*
X129215057Y-139404300D01*
X129356943Y-139404300D01*
X129496104Y-139376619D01*
X129627190Y-139322321D01*
X129745164Y-139243493D01*
X129845493Y-139143164D01*
X129924321Y-139025190D01*
X129978619Y-138894104D01*
X130006300Y-138754943D01*
X130006300Y-138613057D01*
X129978619Y-138473896D01*
X129924321Y-138342810D01*
X129845493Y-138224836D01*
X129745164Y-138124507D01*
X129627190Y-138045679D01*
X129496104Y-137991381D01*
X129356943Y-137963700D01*
X129215057Y-137963700D01*
X129075896Y-137991381D01*
X128944810Y-138045679D01*
X128826836Y-138124507D01*
X128726507Y-138224836D01*
X128647679Y-138342810D01*
X128593381Y-138473896D01*
X128565700Y-138613057D01*
X125614330Y-138613057D01*
X125723383Y-138504004D01*
X125895747Y-138246042D01*
X126014474Y-137959411D01*
X126075000Y-137655124D01*
X126075000Y-137344876D01*
X126014474Y-137040589D01*
X125895747Y-136753958D01*
X125780219Y-136581057D01*
X128565700Y-136581057D01*
X128565700Y-136722943D01*
X128593381Y-136862104D01*
X128647679Y-136993190D01*
X128726507Y-137111164D01*
X128826836Y-137211493D01*
X128944810Y-137290321D01*
X129075896Y-137344619D01*
X129215057Y-137372300D01*
X129356943Y-137372300D01*
X129496104Y-137344619D01*
X129627190Y-137290321D01*
X129745164Y-137211493D01*
X129845493Y-137111164D01*
X129924321Y-136993190D01*
X129978619Y-136862104D01*
X130006300Y-136722943D01*
X130006300Y-136581057D01*
X129978619Y-136441896D01*
X129924321Y-136310810D01*
X129845493Y-136192836D01*
X129745164Y-136092507D01*
X129627190Y-136013679D01*
X129496104Y-135959381D01*
X129356943Y-135931700D01*
X129215057Y-135931700D01*
X129075896Y-135959381D01*
X128944810Y-136013679D01*
X128826836Y-136092507D01*
X128726507Y-136192836D01*
X128647679Y-136310810D01*
X128593381Y-136441896D01*
X128565700Y-136581057D01*
X125780219Y-136581057D01*
X125723383Y-136495996D01*
X125504004Y-136276617D01*
X125246042Y-136104253D01*
X124959411Y-135985526D01*
X124655124Y-135925000D01*
X124344876Y-135925000D01*
X124040589Y-135985526D01*
X123753958Y-136104253D01*
X123495996Y-136276617D01*
X123276617Y-136495996D01*
X123104253Y-136753958D01*
X122985526Y-137040589D01*
X122925000Y-137344876D01*
X120250000Y-137344876D01*
X120250000Y-134901051D01*
X120256147Y-134908738D01*
X120382607Y-135015231D01*
X120527413Y-135095007D01*
X120685000Y-135145000D01*
X121085000Y-135145000D01*
X121085000Y-134495000D01*
X121435000Y-134495000D01*
X121435000Y-135145000D01*
X121835000Y-135145000D01*
X121992587Y-135095007D01*
X122137393Y-135015231D01*
X122263853Y-134908738D01*
X122367107Y-134779620D01*
X122428924Y-134618967D01*
X124111076Y-134618967D01*
X124172893Y-134779620D01*
X124276147Y-134908738D01*
X124402607Y-135015231D01*
X124547413Y-135095007D01*
X124705000Y-135145000D01*
X125255000Y-135145000D01*
X125255000Y-134495000D01*
X125605000Y-134495000D01*
X125605000Y-135145000D01*
X126155000Y-135145000D01*
X126312587Y-135095007D01*
X126457393Y-135015231D01*
X126583853Y-134908738D01*
X126687107Y-134779620D01*
X126748924Y-134618967D01*
X126690001Y-134495000D01*
X125605000Y-134495000D01*
X125255000Y-134495000D01*
X124169999Y-134495000D01*
X124111076Y-134618967D01*
X122428924Y-134618967D01*
X122370001Y-134495000D01*
X121435000Y-134495000D01*
X121085000Y-134495000D01*
X121065000Y-134495000D01*
X121065000Y-134403971D01*
X128525000Y-134403971D01*
X128525000Y-134596029D01*
X128562468Y-134784397D01*
X128635966Y-134961836D01*
X128742668Y-135121527D01*
X128878473Y-135257332D01*
X129038164Y-135364034D01*
X129215603Y-135437532D01*
X129403971Y-135475000D01*
X129596029Y-135475000D01*
X129784397Y-135437532D01*
X129921234Y-135380852D01*
X132615381Y-138075000D01*
X131744953Y-138075000D01*
X131729000Y-138073429D01*
X131713047Y-138075000D01*
X131713039Y-138075000D01*
X131665289Y-138079703D01*
X131604026Y-138098287D01*
X131547566Y-138128465D01*
X131498079Y-138169079D01*
X131487904Y-138181477D01*
X131254113Y-138415269D01*
X131242708Y-138413000D01*
X131139292Y-138413000D01*
X131037863Y-138433176D01*
X130942319Y-138472751D01*
X130856332Y-138530206D01*
X130783206Y-138603332D01*
X130725751Y-138689319D01*
X130686176Y-138784863D01*
X130666000Y-138886292D01*
X130666000Y-138989708D01*
X130686176Y-139091137D01*
X130725751Y-139186681D01*
X130783206Y-139272668D01*
X130856332Y-139345794D01*
X130942319Y-139403249D01*
X131037863Y-139442824D01*
X131139292Y-139463000D01*
X131242708Y-139463000D01*
X131344137Y-139442824D01*
X131439681Y-139403249D01*
X131525668Y-139345794D01*
X131598794Y-139272668D01*
X131656249Y-139186681D01*
X131695824Y-139091137D01*
X131716000Y-138989708D01*
X131716000Y-138886292D01*
X131713731Y-138874887D01*
X131863619Y-138725000D01*
X133265382Y-138725000D01*
X133658904Y-139118523D01*
X133669079Y-139130921D01*
X133718566Y-139171535D01*
X133775026Y-139201713D01*
X133817901Y-139214719D01*
X133836288Y-139220297D01*
X133842362Y-139220895D01*
X133884039Y-139225000D01*
X133884046Y-139225000D01*
X133899999Y-139226571D01*
X133915952Y-139225000D01*
X141224125Y-139225000D01*
X141240078Y-139226571D01*
X141256031Y-139225000D01*
X141256039Y-139225000D01*
X141303789Y-139220297D01*
X141365052Y-139201713D01*
X141421512Y-139171535D01*
X141470999Y-139130921D01*
X141481179Y-139118517D01*
X141560934Y-139038762D01*
X141572339Y-139041031D01*
X141675755Y-139041031D01*
X141777184Y-139020855D01*
X141872728Y-138981280D01*
X141958715Y-138923825D01*
X142031841Y-138850699D01*
X142089296Y-138764712D01*
X142128871Y-138669168D01*
X142149047Y-138567739D01*
X142149047Y-138464323D01*
X142128871Y-138362894D01*
X142089296Y-138267350D01*
X142031841Y-138181363D01*
X141958715Y-138108237D01*
X141872728Y-138050782D01*
X141777184Y-138011207D01*
X141675755Y-137991031D01*
X141572339Y-137991031D01*
X141515845Y-138002269D01*
X141504824Y-137946863D01*
X141465249Y-137851319D01*
X141407794Y-137765332D01*
X141334668Y-137692206D01*
X141248681Y-137634751D01*
X141153137Y-137595176D01*
X141051708Y-137575000D01*
X140948292Y-137575000D01*
X140846863Y-137595176D01*
X140751319Y-137634751D01*
X140665332Y-137692206D01*
X140592206Y-137765332D01*
X140534751Y-137851319D01*
X140495176Y-137946863D01*
X140475000Y-138048292D01*
X140475000Y-138151708D01*
X140477269Y-138163113D01*
X140415393Y-138224989D01*
X138275054Y-138224989D01*
X138304824Y-138153116D01*
X138325000Y-138051687D01*
X138325000Y-137948271D01*
X138304824Y-137846842D01*
X138265249Y-137751298D01*
X138207794Y-137665311D01*
X138134668Y-137592185D01*
X138125000Y-137585725D01*
X138125000Y-137474907D01*
X138126571Y-137458954D01*
X138125000Y-137443001D01*
X138125000Y-137442993D01*
X138120297Y-137395243D01*
X138101713Y-137333980D01*
X138071535Y-137277520D01*
X138030921Y-137228033D01*
X138018524Y-137217859D01*
X137325000Y-136524336D01*
X137325000Y-135420714D01*
X137461836Y-135364034D01*
X137621527Y-135257332D01*
X137757332Y-135121527D01*
X137864034Y-134961836D01*
X137937532Y-134784397D01*
X137975000Y-134596029D01*
X137975000Y-134403971D01*
X137937532Y-134215603D01*
X137864034Y-134038164D01*
X137757332Y-133878473D01*
X137621527Y-133742668D01*
X137461836Y-133635966D01*
X137284397Y-133562468D01*
X137096029Y-133525000D01*
X136903971Y-133525000D01*
X136715603Y-133562468D01*
X136538164Y-133635966D01*
X136378473Y-133742668D01*
X136242668Y-133878473D01*
X136135966Y-134038164D01*
X136062468Y-134215603D01*
X136025000Y-134403971D01*
X136025000Y-134596029D01*
X136062468Y-134784397D01*
X136135966Y-134961836D01*
X136242668Y-135121527D01*
X136378473Y-135257332D01*
X136538164Y-135364034D01*
X136675000Y-135420714D01*
X136675001Y-136642991D01*
X136673429Y-136658954D01*
X136679703Y-136722665D01*
X136698287Y-136783927D01*
X136710714Y-136807175D01*
X136728466Y-136840388D01*
X136769080Y-136889875D01*
X136781478Y-136900050D01*
X136830112Y-136948684D01*
X136695896Y-136975381D01*
X136564810Y-137029679D01*
X136446836Y-137108507D01*
X136346507Y-137208836D01*
X136267679Y-137326810D01*
X136213381Y-137457896D01*
X136185700Y-137597057D01*
X136185700Y-137738943D01*
X136213381Y-137878104D01*
X136267679Y-138009190D01*
X136346507Y-138127164D01*
X136444332Y-138224989D01*
X134468208Y-138224989D01*
X132348731Y-136105513D01*
X132351000Y-136094108D01*
X132351000Y-135990692D01*
X132330824Y-135889263D01*
X132325728Y-135876960D01*
X132326571Y-135868401D01*
X132325000Y-135852448D01*
X132325000Y-135420714D01*
X132461836Y-135364034D01*
X132621527Y-135257332D01*
X132757332Y-135121527D01*
X132864034Y-134961836D01*
X132937532Y-134784397D01*
X132975000Y-134596029D01*
X132975000Y-134403971D01*
X133525000Y-134403971D01*
X133525000Y-134596029D01*
X133562468Y-134784397D01*
X133635966Y-134961836D01*
X133742668Y-135121527D01*
X133878473Y-135257332D01*
X134038164Y-135364034D01*
X134175001Y-135420714D01*
X134175001Y-135527859D01*
X134117319Y-135551751D01*
X134031332Y-135609206D01*
X133958206Y-135682332D01*
X133900751Y-135768319D01*
X133861176Y-135863863D01*
X133841000Y-135965292D01*
X133841000Y-136068708D01*
X133861176Y-136170137D01*
X133900751Y-136265681D01*
X133958206Y-136351668D01*
X134031332Y-136424794D01*
X134117319Y-136482249D01*
X134212863Y-136521824D01*
X134314292Y-136542000D01*
X134417708Y-136542000D01*
X134519137Y-136521824D01*
X134614681Y-136482249D01*
X134700668Y-136424794D01*
X134773794Y-136351668D01*
X134831249Y-136265681D01*
X134870824Y-136170137D01*
X134891000Y-136068708D01*
X134891000Y-135965292D01*
X134870824Y-135863863D01*
X134831249Y-135768319D01*
X134825000Y-135758967D01*
X134825000Y-135420714D01*
X134961836Y-135364034D01*
X135121527Y-135257332D01*
X135257332Y-135121527D01*
X135364034Y-134961836D01*
X135437532Y-134784397D01*
X135475000Y-134596029D01*
X135475000Y-134403971D01*
X135437532Y-134215603D01*
X135364034Y-134038164D01*
X135257332Y-133878473D01*
X135121527Y-133742668D01*
X134961836Y-133635966D01*
X134784397Y-133562468D01*
X134596029Y-133525000D01*
X134403971Y-133525000D01*
X134215603Y-133562468D01*
X134038164Y-133635966D01*
X133878473Y-133742668D01*
X133742668Y-133878473D01*
X133635966Y-134038164D01*
X133562468Y-134215603D01*
X133525000Y-134403971D01*
X132975000Y-134403971D01*
X132937532Y-134215603D01*
X132864034Y-134038164D01*
X132757332Y-133878473D01*
X132621527Y-133742668D01*
X132461836Y-133635966D01*
X132284397Y-133562468D01*
X132096029Y-133525000D01*
X131903971Y-133525000D01*
X131715603Y-133562468D01*
X131538164Y-133635966D01*
X131378473Y-133742668D01*
X131242668Y-133878473D01*
X131135966Y-134038164D01*
X131062468Y-134215603D01*
X131025000Y-134403971D01*
X131025000Y-134596029D01*
X131062468Y-134784397D01*
X131135966Y-134961836D01*
X131242668Y-135121527D01*
X131378473Y-135257332D01*
X131538164Y-135364034D01*
X131675001Y-135420714D01*
X131675001Y-135537151D01*
X131672863Y-135537576D01*
X131577319Y-135577151D01*
X131491332Y-135634606D01*
X131418206Y-135707732D01*
X131360751Y-135793719D01*
X131329291Y-135869672D01*
X130380852Y-134921234D01*
X130437532Y-134784397D01*
X130475000Y-134596029D01*
X130475000Y-134403971D01*
X130437532Y-134215603D01*
X130364034Y-134038164D01*
X130257332Y-133878473D01*
X130121527Y-133742668D01*
X129961836Y-133635966D01*
X129784397Y-133562468D01*
X129596029Y-133525000D01*
X129403971Y-133525000D01*
X129215603Y-133562468D01*
X129038164Y-133635966D01*
X128878473Y-133742668D01*
X128742668Y-133878473D01*
X128635966Y-134038164D01*
X128562468Y-134215603D01*
X128525000Y-134403971D01*
X121065000Y-134403971D01*
X121065000Y-134145000D01*
X121085000Y-134145000D01*
X121085000Y-133495000D01*
X121435000Y-133495000D01*
X121435000Y-134145000D01*
X122370001Y-134145000D01*
X122428924Y-134021033D01*
X124111076Y-134021033D01*
X124169999Y-134145000D01*
X125255000Y-134145000D01*
X125255000Y-133495000D01*
X125605000Y-133495000D01*
X125605000Y-134145000D01*
X126690001Y-134145000D01*
X126748924Y-134021033D01*
X126687107Y-133860380D01*
X126583853Y-133731262D01*
X126457393Y-133624769D01*
X126312587Y-133544993D01*
X126155000Y-133495000D01*
X125605000Y-133495000D01*
X125255000Y-133495000D01*
X124705000Y-133495000D01*
X124547413Y-133544993D01*
X124402607Y-133624769D01*
X124276147Y-133731262D01*
X124172893Y-133860380D01*
X124111076Y-134021033D01*
X122428924Y-134021033D01*
X122367107Y-133860380D01*
X122263853Y-133731262D01*
X122137393Y-133624769D01*
X121992587Y-133544993D01*
X121835000Y-133495000D01*
X121435000Y-133495000D01*
X121085000Y-133495000D01*
X120685000Y-133495000D01*
X120527413Y-133544993D01*
X120382607Y-133624769D01*
X120256147Y-133731262D01*
X120250000Y-133738949D01*
X120250000Y-132838292D01*
X124425000Y-132838292D01*
X124425000Y-132941708D01*
X124445176Y-133043137D01*
X124484751Y-133138681D01*
X124542206Y-133224668D01*
X124615332Y-133297794D01*
X124701319Y-133355249D01*
X124796863Y-133394824D01*
X124898292Y-133415000D01*
X125001708Y-133415000D01*
X125103137Y-133394824D01*
X125198681Y-133355249D01*
X125284668Y-133297794D01*
X125357794Y-133224668D01*
X125415249Y-133138681D01*
X125454824Y-133043137D01*
X125475000Y-132941708D01*
X125475000Y-132838292D01*
X125454824Y-132736863D01*
X125415249Y-132641319D01*
X125357794Y-132555332D01*
X125328897Y-132526435D01*
X126883000Y-132526435D01*
X126883000Y-132649549D01*
X126907019Y-132770298D01*
X126954132Y-132884040D01*
X127022531Y-132986406D01*
X127109586Y-133073461D01*
X127211952Y-133141860D01*
X127325694Y-133188973D01*
X127446443Y-133212992D01*
X127569557Y-133212992D01*
X127690306Y-133188973D01*
X127804048Y-133141860D01*
X127906414Y-133073461D01*
X127993469Y-132986406D01*
X128061868Y-132884040D01*
X128108981Y-132770298D01*
X128133000Y-132649549D01*
X128133000Y-132526435D01*
X128108981Y-132405686D01*
X128061868Y-132291944D01*
X127993469Y-132189578D01*
X127933000Y-132129109D01*
X127933000Y-132048292D01*
X132175000Y-132048292D01*
X132175000Y-132151708D01*
X132195176Y-132253137D01*
X132234751Y-132348681D01*
X132292206Y-132434668D01*
X132365332Y-132507794D01*
X132451319Y-132565249D01*
X132546863Y-132604824D01*
X132648292Y-132625000D01*
X132751708Y-132625000D01*
X132853137Y-132604824D01*
X132948681Y-132565249D01*
X133034668Y-132507794D01*
X133107794Y-132434668D01*
X133165249Y-132348681D01*
X133204824Y-132253137D01*
X133225000Y-132151708D01*
X133225000Y-132048292D01*
X133204824Y-131946863D01*
X133165249Y-131851319D01*
X133156284Y-131837902D01*
X133616904Y-132298523D01*
X133627079Y-132310921D01*
X133676566Y-132351535D01*
X133733026Y-132381713D01*
X133780030Y-132395971D01*
X133794288Y-132400297D01*
X133800362Y-132400895D01*
X133842039Y-132405000D01*
X133842046Y-132405000D01*
X133857999Y-132406571D01*
X133873952Y-132405000D01*
X135170946Y-132405000D01*
X135177406Y-132414668D01*
X135250532Y-132487794D01*
X135336519Y-132545249D01*
X135432063Y-132584824D01*
X135533492Y-132605000D01*
X135636908Y-132605000D01*
X135738337Y-132584824D01*
X135833881Y-132545249D01*
X135919868Y-132487794D01*
X135992994Y-132414668D01*
X136050449Y-132328681D01*
X136090024Y-132233137D01*
X136110200Y-132131708D01*
X136110200Y-132028292D01*
X136094287Y-131948292D01*
X138275000Y-131948292D01*
X138275000Y-132051708D01*
X138295176Y-132153137D01*
X138334751Y-132248681D01*
X138392206Y-132334668D01*
X138465332Y-132407794D01*
X138551319Y-132465249D01*
X138646863Y-132504824D01*
X138748292Y-132525000D01*
X138851708Y-132525000D01*
X138863113Y-132522731D01*
X138975001Y-132634620D01*
X138975000Y-136084047D01*
X138973429Y-136100000D01*
X138975000Y-136115953D01*
X138975000Y-136115960D01*
X138977449Y-136140824D01*
X138979703Y-136163711D01*
X138986660Y-136186645D01*
X138998287Y-136224973D01*
X139028465Y-136281433D01*
X139069079Y-136330921D01*
X139081483Y-136341101D01*
X139377038Y-136636657D01*
X139379703Y-136663711D01*
X139398287Y-136724974D01*
X139428465Y-136781434D01*
X139449591Y-136807175D01*
X139469079Y-136830921D01*
X139518566Y-136871535D01*
X139575026Y-136901713D01*
X139636289Y-136920297D01*
X139700000Y-136926572D01*
X139715960Y-136925000D01*
X141965382Y-136925000D01*
X142858908Y-137818528D01*
X142869079Y-137830921D01*
X142881472Y-137841092D01*
X142881476Y-137841096D01*
X142888478Y-137846842D01*
X142918566Y-137871535D01*
X142975026Y-137901713D01*
X143036289Y-137920297D01*
X143084039Y-137925000D01*
X143084047Y-137925000D01*
X143100000Y-137926571D01*
X143115953Y-137925000D01*
X146065382Y-137925000D01*
X146777269Y-138636887D01*
X146775000Y-138648292D01*
X146775000Y-138751708D01*
X146795176Y-138853137D01*
X146834751Y-138948681D01*
X146892206Y-139034668D01*
X146965332Y-139107794D01*
X147051319Y-139165249D01*
X147146863Y-139204824D01*
X147248292Y-139225000D01*
X147351708Y-139225000D01*
X147453137Y-139204824D01*
X147548681Y-139165249D01*
X147634668Y-139107794D01*
X147707794Y-139034668D01*
X147765249Y-138948681D01*
X147804824Y-138853137D01*
X147825000Y-138751708D01*
X147825000Y-138648292D01*
X147804824Y-138546863D01*
X147765249Y-138451319D01*
X147707794Y-138365332D01*
X147634668Y-138292206D01*
X147548681Y-138234751D01*
X147453137Y-138195176D01*
X147351708Y-138175000D01*
X147248292Y-138175000D01*
X147236887Y-138177269D01*
X146587123Y-137527505D01*
X147417897Y-137527505D01*
X147556481Y-137666090D01*
X147556486Y-137666094D01*
X148277269Y-138386877D01*
X148275000Y-138398282D01*
X148275000Y-138501698D01*
X148295176Y-138603127D01*
X148334751Y-138698671D01*
X148392206Y-138784658D01*
X148465332Y-138857784D01*
X148551319Y-138915239D01*
X148646863Y-138954814D01*
X148748292Y-138974990D01*
X148851708Y-138974990D01*
X148953137Y-138954814D01*
X149048681Y-138915239D01*
X149134668Y-138857784D01*
X149207794Y-138784658D01*
X149265249Y-138698671D01*
X149304824Y-138603127D01*
X149325000Y-138501698D01*
X149325000Y-138398282D01*
X149304824Y-138296853D01*
X149265249Y-138201309D01*
X149207794Y-138115322D01*
X149134668Y-138042196D01*
X149048681Y-137984741D01*
X148953137Y-137945166D01*
X148851708Y-137924990D01*
X148748292Y-137924990D01*
X148736887Y-137927259D01*
X148016104Y-137206476D01*
X148016100Y-137206471D01*
X147793615Y-136983987D01*
X147783436Y-136971584D01*
X147733949Y-136930970D01*
X147677489Y-136900792D01*
X147616226Y-136882208D01*
X147568476Y-136877505D01*
X147568468Y-136877505D01*
X147552515Y-136875934D01*
X147536562Y-136877505D01*
X143611536Y-136877505D01*
X143667495Y-136821546D01*
X143724950Y-136735559D01*
X143764525Y-136640015D01*
X143784701Y-136538586D01*
X143784701Y-136435170D01*
X143764525Y-136333741D01*
X143724950Y-136238197D01*
X143667495Y-136152210D01*
X143594369Y-136079084D01*
X143584701Y-136072624D01*
X143584701Y-136061000D01*
X148027072Y-136061000D01*
X148087309Y-136101249D01*
X148182853Y-136140824D01*
X148284282Y-136161000D01*
X148387698Y-136161000D01*
X148489127Y-136140824D01*
X148584671Y-136101249D01*
X148670658Y-136043794D01*
X148743784Y-135970668D01*
X148801239Y-135884681D01*
X148840814Y-135789137D01*
X148854948Y-135718082D01*
X149129758Y-135443272D01*
X149145974Y-135429964D01*
X149199084Y-135365250D01*
X149238548Y-135291417D01*
X149262850Y-135211304D01*
X149269000Y-135148864D01*
X149269000Y-135148857D01*
X149271055Y-135127990D01*
X149269000Y-135107123D01*
X149269000Y-130010245D01*
X149351319Y-130065249D01*
X149446863Y-130104824D01*
X149548292Y-130125000D01*
X149651708Y-130125000D01*
X149753137Y-130104824D01*
X149848681Y-130065249D01*
X149908918Y-130025000D01*
X151099133Y-130025000D01*
X151120000Y-130027055D01*
X151140867Y-130025000D01*
X151140874Y-130025000D01*
X151203314Y-130018850D01*
X151283427Y-129994548D01*
X151357260Y-129955084D01*
X151421974Y-129901974D01*
X151435284Y-129885756D01*
X152202082Y-129118958D01*
X152273137Y-129104824D01*
X152368681Y-129065249D01*
X152454668Y-129007794D01*
X152527794Y-128934668D01*
X152583000Y-128852046D01*
X152583001Y-132318037D01*
X152581429Y-132334000D01*
X152587703Y-132397711D01*
X152606287Y-132458973D01*
X152609642Y-132465249D01*
X152636466Y-132515434D01*
X152677080Y-132564921D01*
X152689478Y-132575096D01*
X153851904Y-133737523D01*
X153862079Y-133749921D01*
X153911566Y-133790535D01*
X153954174Y-133813309D01*
X153968026Y-133820713D01*
X154029288Y-133839297D01*
X154035362Y-133839895D01*
X154077039Y-133844000D01*
X154077046Y-133844000D01*
X154092999Y-133845571D01*
X154108952Y-133844000D01*
X154184382Y-133844000D01*
X155277269Y-134936887D01*
X155275000Y-134948292D01*
X155275000Y-135051708D01*
X155295176Y-135153137D01*
X155334751Y-135248681D01*
X155392206Y-135334668D01*
X155465332Y-135407794D01*
X155551319Y-135465249D01*
X155646863Y-135504824D01*
X155748292Y-135525000D01*
X155851708Y-135525000D01*
X155953137Y-135504824D01*
X156048681Y-135465249D01*
X156075000Y-135447663D01*
X156075001Y-137365379D01*
X155208382Y-138232000D01*
X154148656Y-138232000D01*
X154175974Y-138223713D01*
X154232434Y-138193535D01*
X154281921Y-138152921D01*
X154292101Y-138140517D01*
X154368887Y-138063731D01*
X154380292Y-138066000D01*
X154483708Y-138066000D01*
X154585137Y-138045824D01*
X154680681Y-138006249D01*
X154766668Y-137948794D01*
X154839794Y-137875668D01*
X154897249Y-137789681D01*
X154936824Y-137694137D01*
X154957000Y-137592708D01*
X154957000Y-137489292D01*
X154936824Y-137387863D01*
X154897249Y-137292319D01*
X154839794Y-137206332D01*
X154766668Y-137133206D01*
X154680681Y-137075751D01*
X154585137Y-137036176D01*
X154483708Y-137016000D01*
X154380292Y-137016000D01*
X154278863Y-137036176D01*
X154183319Y-137075751D01*
X154097332Y-137133206D01*
X154024206Y-137206332D01*
X153966751Y-137292319D01*
X153927176Y-137387863D01*
X153907000Y-137489292D01*
X153907000Y-137592708D01*
X153907854Y-137597000D01*
X151793952Y-137597000D01*
X151777999Y-137595429D01*
X151762046Y-137597000D01*
X151762039Y-137597000D01*
X151720362Y-137601105D01*
X151714288Y-137601703D01*
X151653026Y-137620287D01*
X151596566Y-137650465D01*
X151563752Y-137677396D01*
X151551708Y-137675000D01*
X151448292Y-137675000D01*
X151346863Y-137695176D01*
X151251319Y-137734751D01*
X151165332Y-137792206D01*
X151092206Y-137865332D01*
X151034751Y-137951319D01*
X150995176Y-138046863D01*
X150975000Y-138148292D01*
X150975000Y-138251708D01*
X150995176Y-138353137D01*
X151034751Y-138448681D01*
X151092206Y-138534668D01*
X151165332Y-138607794D01*
X151251319Y-138665249D01*
X151346863Y-138704824D01*
X151448292Y-138725000D01*
X151551708Y-138725000D01*
X151653137Y-138704824D01*
X151748681Y-138665249D01*
X151758007Y-138659017D01*
X151768176Y-138710137D01*
X151807751Y-138805681D01*
X151865206Y-138891668D01*
X151938332Y-138964794D01*
X152024319Y-139022249D01*
X152119863Y-139061824D01*
X152221292Y-139082000D01*
X152324708Y-139082000D01*
X152426137Y-139061824D01*
X152521681Y-139022249D01*
X152607668Y-138964794D01*
X152680794Y-138891668D01*
X152687254Y-138882000D01*
X155327047Y-138882000D01*
X155343000Y-138883571D01*
X155358953Y-138882000D01*
X155358961Y-138882000D01*
X155406711Y-138877297D01*
X155467974Y-138858713D01*
X155524434Y-138828535D01*
X155573921Y-138787921D01*
X155584101Y-138775517D01*
X155965496Y-138394122D01*
X159425000Y-138394122D01*
X159425000Y-138605878D01*
X159466312Y-138813566D01*
X159547348Y-139009203D01*
X159664993Y-139185272D01*
X159814728Y-139335007D01*
X159990797Y-139452652D01*
X160186434Y-139533688D01*
X160394122Y-139575000D01*
X160605878Y-139575000D01*
X160813566Y-139533688D01*
X161009203Y-139452652D01*
X161185272Y-139335007D01*
X161335007Y-139185272D01*
X161452652Y-139009203D01*
X161533688Y-138813566D01*
X161575000Y-138605878D01*
X161575000Y-138394122D01*
X161533688Y-138186434D01*
X161452652Y-137990797D01*
X161335007Y-137814728D01*
X161185272Y-137664993D01*
X161009203Y-137547348D01*
X160813566Y-137466312D01*
X160605878Y-137425000D01*
X160394122Y-137425000D01*
X160186434Y-137466312D01*
X159990797Y-137547348D01*
X159814728Y-137664993D01*
X159664993Y-137814728D01*
X159547348Y-137990797D01*
X159466312Y-138186434D01*
X159425000Y-138394122D01*
X155965496Y-138394122D01*
X156618528Y-137741092D01*
X156630921Y-137730921D01*
X156641092Y-137718528D01*
X156641096Y-137718524D01*
X156656258Y-137700049D01*
X156671535Y-137681434D01*
X156701713Y-137624974D01*
X156720297Y-137563711D01*
X156725000Y-137515961D01*
X156725000Y-137515953D01*
X156726571Y-137500000D01*
X156725000Y-137484047D01*
X156725000Y-137344876D01*
X162425000Y-137344876D01*
X162425000Y-137655124D01*
X162485526Y-137959411D01*
X162604253Y-138246042D01*
X162776617Y-138504004D01*
X162995996Y-138723383D01*
X163253958Y-138895747D01*
X163540589Y-139014474D01*
X163844876Y-139075000D01*
X164155124Y-139075000D01*
X164459411Y-139014474D01*
X164746042Y-138895747D01*
X165004004Y-138723383D01*
X165223383Y-138504004D01*
X165395747Y-138246042D01*
X165514474Y-137959411D01*
X165575000Y-137655124D01*
X165575000Y-137344876D01*
X165514474Y-137040589D01*
X165395747Y-136753958D01*
X165223383Y-136495996D01*
X165004004Y-136276617D01*
X164746042Y-136104253D01*
X164459411Y-135985526D01*
X164155124Y-135925000D01*
X163844876Y-135925000D01*
X163540589Y-135985526D01*
X163253958Y-136104253D01*
X162995996Y-136276617D01*
X162776617Y-136495996D01*
X162604253Y-136753958D01*
X162485526Y-137040589D01*
X162425000Y-137344876D01*
X156725000Y-137344876D01*
X156725000Y-134815952D01*
X156726571Y-134799999D01*
X156725000Y-134784046D01*
X156725000Y-134784039D01*
X156720297Y-134736289D01*
X156719434Y-134733442D01*
X156701713Y-134675026D01*
X156697855Y-134667809D01*
X156671535Y-134618566D01*
X156630921Y-134569079D01*
X156618524Y-134558905D01*
X155826101Y-133766483D01*
X155815921Y-133754079D01*
X155766434Y-133713465D01*
X155709974Y-133683287D01*
X155648711Y-133664703D01*
X155600961Y-133660000D01*
X155600953Y-133660000D01*
X155585000Y-133658429D01*
X155569047Y-133660000D01*
X155414609Y-133660000D01*
X155254609Y-133500000D01*
X160023186Y-133500000D01*
X160030426Y-133573513D01*
X160051869Y-133644200D01*
X160086691Y-133709347D01*
X160133552Y-133766448D01*
X160190653Y-133813309D01*
X160255800Y-133848131D01*
X160326487Y-133869574D01*
X160400000Y-133876814D01*
X161881250Y-133875000D01*
X161975000Y-133781250D01*
X161975000Y-133175000D01*
X160118750Y-133175000D01*
X160025000Y-133268750D01*
X160023186Y-133500000D01*
X155254609Y-133500000D01*
X153932881Y-132178272D01*
X155508586Y-132178272D01*
X155508586Y-132281688D01*
X155528762Y-132383117D01*
X155568337Y-132478661D01*
X155625792Y-132564648D01*
X155698918Y-132637774D01*
X155784905Y-132695229D01*
X155880449Y-132734804D01*
X155981878Y-132754980D01*
X156085294Y-132754980D01*
X156186723Y-132734804D01*
X156282267Y-132695229D01*
X156368254Y-132637774D01*
X156441380Y-132564648D01*
X156463195Y-132532000D01*
X158716746Y-132532000D01*
X158723206Y-132541668D01*
X158796332Y-132614794D01*
X158882319Y-132672249D01*
X158977863Y-132711824D01*
X159079292Y-132732000D01*
X159182708Y-132732000D01*
X159284137Y-132711824D01*
X159379681Y-132672249D01*
X159465668Y-132614794D01*
X159538794Y-132541668D01*
X159566635Y-132500000D01*
X160023186Y-132500000D01*
X160025000Y-132731250D01*
X160118750Y-132825000D01*
X161975000Y-132825000D01*
X161975000Y-132218750D01*
X161881250Y-132125000D01*
X160400000Y-132123186D01*
X160326487Y-132130426D01*
X160255800Y-132151869D01*
X160190653Y-132186691D01*
X160133552Y-132233552D01*
X160086691Y-132290653D01*
X160051869Y-132355800D01*
X160030426Y-132426487D01*
X160023186Y-132500000D01*
X159566635Y-132500000D01*
X159596249Y-132455681D01*
X159635824Y-132360137D01*
X159656000Y-132258708D01*
X159656000Y-132155292D01*
X159635824Y-132053863D01*
X159596249Y-131958319D01*
X159538794Y-131872332D01*
X159465668Y-131799206D01*
X159379681Y-131741751D01*
X159284137Y-131702176D01*
X159182708Y-131682000D01*
X159079292Y-131682000D01*
X158977863Y-131702176D01*
X158882319Y-131741751D01*
X158796332Y-131799206D01*
X158723206Y-131872332D01*
X158716746Y-131882000D01*
X156428068Y-131882000D01*
X156368254Y-131822186D01*
X156282267Y-131764731D01*
X156186723Y-131725156D01*
X156085294Y-131704980D01*
X155981878Y-131704980D01*
X155880449Y-131725156D01*
X155784905Y-131764731D01*
X155698918Y-131822186D01*
X155625792Y-131895312D01*
X155568337Y-131981299D01*
X155528762Y-132076843D01*
X155508586Y-132178272D01*
X153932881Y-132178272D01*
X153614000Y-131859392D01*
X153614000Y-128515292D01*
X155408000Y-128515292D01*
X155408000Y-128618708D01*
X155428176Y-128720137D01*
X155467751Y-128815681D01*
X155525206Y-128901668D01*
X155598332Y-128974794D01*
X155684319Y-129032249D01*
X155779863Y-129071824D01*
X155881292Y-129092000D01*
X155984708Y-129092000D01*
X156086137Y-129071824D01*
X156181681Y-129032249D01*
X156267668Y-128974794D01*
X156325462Y-128917000D01*
X157800812Y-128917000D01*
X157818000Y-128918693D01*
X157835188Y-128917000D01*
X157835189Y-128917000D01*
X157886612Y-128911935D01*
X157952587Y-128891922D01*
X158013390Y-128859422D01*
X158066685Y-128815685D01*
X158077653Y-128802320D01*
X158084973Y-128795000D01*
X158166708Y-128795000D01*
X158268137Y-128774824D01*
X158363681Y-128735249D01*
X158449668Y-128677794D01*
X158522794Y-128604668D01*
X158580249Y-128518681D01*
X158619824Y-128423137D01*
X158640000Y-128321708D01*
X158640000Y-128218292D01*
X158619824Y-128116863D01*
X158580249Y-128021319D01*
X158522794Y-127935332D01*
X158449668Y-127862206D01*
X158363681Y-127804751D01*
X158268137Y-127765176D01*
X158166708Y-127745000D01*
X158063292Y-127745000D01*
X157961863Y-127765176D01*
X157866319Y-127804751D01*
X157780332Y-127862206D01*
X157707206Y-127935332D01*
X157649751Y-128021319D01*
X157610176Y-128116863D01*
X157590257Y-128217000D01*
X156325462Y-128217000D01*
X156267668Y-128159206D01*
X156181681Y-128101751D01*
X156086137Y-128062176D01*
X155984708Y-128042000D01*
X155881292Y-128042000D01*
X155779863Y-128062176D01*
X155684319Y-128101751D01*
X155598332Y-128159206D01*
X155525206Y-128232332D01*
X155467751Y-128318319D01*
X155428176Y-128413863D01*
X155408000Y-128515292D01*
X153614000Y-128515292D01*
X153614000Y-126509877D01*
X153675319Y-126550849D01*
X153770863Y-126590424D01*
X153872292Y-126610600D01*
X153975708Y-126610600D01*
X154077137Y-126590424D01*
X154172681Y-126550849D01*
X154258668Y-126493394D01*
X154331794Y-126420268D01*
X154338254Y-126410600D01*
X155889247Y-126410600D01*
X155905200Y-126412171D01*
X155921153Y-126410600D01*
X155921161Y-126410600D01*
X155968911Y-126405897D01*
X156030174Y-126387313D01*
X156086634Y-126357135D01*
X156136121Y-126316521D01*
X156146301Y-126304117D01*
X156705687Y-125744731D01*
X156717092Y-125747000D01*
X156820508Y-125747000D01*
X156921937Y-125726824D01*
X157017481Y-125687249D01*
X157103468Y-125629794D01*
X157176594Y-125556668D01*
X157234049Y-125470681D01*
X157273624Y-125375137D01*
X157293800Y-125273708D01*
X157293800Y-125170292D01*
X157273624Y-125068863D01*
X157234049Y-124973319D01*
X157176594Y-124887332D01*
X157103468Y-124814206D01*
X157017481Y-124756751D01*
X156921937Y-124717176D01*
X156820508Y-124697000D01*
X156717092Y-124697000D01*
X156615663Y-124717176D01*
X156520119Y-124756751D01*
X156434132Y-124814206D01*
X156361006Y-124887332D01*
X156303551Y-124973319D01*
X156263976Y-125068863D01*
X156243800Y-125170292D01*
X156243800Y-125273708D01*
X156246069Y-125285113D01*
X155770582Y-125760600D01*
X154338254Y-125760600D01*
X154331794Y-125750932D01*
X154258668Y-125677806D01*
X154172681Y-125620351D01*
X154077137Y-125580776D01*
X153976801Y-125560817D01*
X154797579Y-124740041D01*
X154865332Y-124807794D01*
X154951319Y-124865249D01*
X155046863Y-124904824D01*
X155148292Y-124925000D01*
X155251708Y-124925000D01*
X155353137Y-124904824D01*
X155448681Y-124865249D01*
X155534668Y-124807794D01*
X155607794Y-124734668D01*
X155665249Y-124648681D01*
X155704824Y-124553137D01*
X155725000Y-124451708D01*
X155725000Y-124348292D01*
X155704824Y-124246863D01*
X155665249Y-124151319D01*
X155607794Y-124065332D01*
X155534668Y-123992206D01*
X155448681Y-123934751D01*
X155353137Y-123895176D01*
X155251708Y-123875000D01*
X155148292Y-123875000D01*
X155046863Y-123895176D01*
X154951319Y-123934751D01*
X154865332Y-123992206D01*
X154792206Y-124065332D01*
X154785746Y-124075000D01*
X154693953Y-124075000D01*
X154678000Y-124073429D01*
X154662047Y-124075000D01*
X154662039Y-124075000D01*
X154614289Y-124079703D01*
X154553026Y-124098287D01*
X154496566Y-124128465D01*
X154482873Y-124139703D01*
X154459476Y-124158904D01*
X154459472Y-124158908D01*
X154447079Y-124169079D01*
X154436908Y-124181472D01*
X153070483Y-125547899D01*
X153058079Y-125558079D01*
X153017465Y-125607567D01*
X152987287Y-125664027D01*
X152968703Y-125725290D01*
X152964000Y-125773040D01*
X152964000Y-125773047D01*
X152962429Y-125789000D01*
X152964000Y-125804953D01*
X152964000Y-125909042D01*
X152934794Y-125865332D01*
X152861668Y-125792206D01*
X152775681Y-125734751D01*
X152680137Y-125695176D01*
X152578708Y-125675000D01*
X152475292Y-125675000D01*
X152373863Y-125695176D01*
X152278319Y-125734751D01*
X152192332Y-125792206D01*
X152119206Y-125865332D01*
X152061751Y-125951319D01*
X152022176Y-126046863D01*
X152002000Y-126148292D01*
X152002000Y-126251708D01*
X152022176Y-126353137D01*
X152061751Y-126448681D01*
X152119206Y-126534668D01*
X152192332Y-126607794D01*
X152278319Y-126665249D01*
X152373863Y-126704824D01*
X152475292Y-126725000D01*
X152578708Y-126725000D01*
X152583000Y-126724146D01*
X152583000Y-128347954D01*
X152527794Y-128265332D01*
X152454668Y-128192206D01*
X152368681Y-128134751D01*
X152273137Y-128095176D01*
X152171708Y-128075000D01*
X152068292Y-128075000D01*
X151966863Y-128095176D01*
X151871319Y-128134751D01*
X151785332Y-128192206D01*
X151712206Y-128265332D01*
X151654751Y-128351319D01*
X151615176Y-128446863D01*
X151601042Y-128517918D01*
X151265014Y-128853946D01*
X151265014Y-128810473D01*
X151244838Y-128709044D01*
X151205263Y-128613500D01*
X151147808Y-128527513D01*
X151074682Y-128454387D01*
X150988695Y-128396932D01*
X150947000Y-128379662D01*
X150947000Y-127541254D01*
X150956668Y-127534794D01*
X151029794Y-127461668D01*
X151087249Y-127375681D01*
X151126824Y-127280137D01*
X151147000Y-127178708D01*
X151147000Y-127075292D01*
X151126824Y-126973863D01*
X151087249Y-126878319D01*
X151029794Y-126792332D01*
X150956668Y-126719206D01*
X150870681Y-126661751D01*
X150775137Y-126622176D01*
X150673708Y-126602000D01*
X150570292Y-126602000D01*
X150468863Y-126622176D01*
X150373319Y-126661751D01*
X150287332Y-126719206D01*
X150214206Y-126792332D01*
X150156751Y-126878319D01*
X150117176Y-126973863D01*
X150097000Y-127075292D01*
X150097000Y-127178708D01*
X150117176Y-127280137D01*
X150156751Y-127375681D01*
X150214206Y-127461668D01*
X150287332Y-127534794D01*
X150297000Y-127541254D01*
X150297001Y-128580222D01*
X150274765Y-128613500D01*
X150235190Y-128709044D01*
X150215014Y-128810473D01*
X150215014Y-128913889D01*
X150235190Y-129015318D01*
X150274765Y-129110862D01*
X150317621Y-129175000D01*
X149908918Y-129175000D01*
X149848681Y-129134751D01*
X149753137Y-129095176D01*
X149682083Y-129081042D01*
X149159283Y-128558243D01*
X149145974Y-128542026D01*
X149129761Y-128528720D01*
X148615283Y-128014243D01*
X148601974Y-127998026D01*
X148537260Y-127944916D01*
X148463427Y-127905452D01*
X148448066Y-127900792D01*
X148827000Y-127900792D01*
X148827000Y-128004208D01*
X148847176Y-128105637D01*
X148886751Y-128201181D01*
X148944206Y-128287168D01*
X149017332Y-128360294D01*
X149103319Y-128417749D01*
X149198863Y-128457324D01*
X149300292Y-128477500D01*
X149403708Y-128477500D01*
X149505137Y-128457324D01*
X149600681Y-128417749D01*
X149686668Y-128360294D01*
X149759794Y-128287168D01*
X149817249Y-128201181D01*
X149856824Y-128105637D01*
X149877000Y-128004208D01*
X149877000Y-127900792D01*
X149856824Y-127799363D01*
X149817249Y-127703819D01*
X149759794Y-127617832D01*
X149686668Y-127544706D01*
X149677000Y-127538246D01*
X149677000Y-124594618D01*
X150177887Y-124093731D01*
X150189292Y-124096000D01*
X150292708Y-124096000D01*
X150394137Y-124075824D01*
X150489681Y-124036249D01*
X150575668Y-123978794D01*
X150648794Y-123905668D01*
X150706249Y-123819681D01*
X150745824Y-123724137D01*
X150766000Y-123622708D01*
X150766000Y-123519292D01*
X150745824Y-123417863D01*
X150706249Y-123322319D01*
X150648794Y-123236332D01*
X150575668Y-123163206D01*
X150489681Y-123105751D01*
X150394137Y-123066176D01*
X150292708Y-123046000D01*
X150189292Y-123046000D01*
X150087863Y-123066176D01*
X149992319Y-123105751D01*
X149906332Y-123163206D01*
X149833206Y-123236332D01*
X149775751Y-123322319D01*
X149736176Y-123417863D01*
X149716000Y-123519292D01*
X149716000Y-123622708D01*
X149718269Y-123634113D01*
X149133478Y-124218904D01*
X149121080Y-124229079D01*
X149080466Y-124278566D01*
X149079009Y-124281292D01*
X149050287Y-124335027D01*
X149031703Y-124396289D01*
X149025429Y-124460000D01*
X149027001Y-124475963D01*
X149027000Y-127538246D01*
X149017332Y-127544706D01*
X148944206Y-127617832D01*
X148886751Y-127703819D01*
X148847176Y-127799363D01*
X148827000Y-127900792D01*
X148448066Y-127900792D01*
X148383314Y-127881150D01*
X148320874Y-127875000D01*
X148320867Y-127875000D01*
X148300000Y-127872945D01*
X148279133Y-127875000D01*
X141508918Y-127875000D01*
X141448681Y-127834751D01*
X141353137Y-127795176D01*
X141251708Y-127775000D01*
X141148292Y-127775000D01*
X141046863Y-127795176D01*
X140951319Y-127834751D01*
X140865332Y-127892206D01*
X140792206Y-127965332D01*
X140734751Y-128051319D01*
X140695176Y-128146863D01*
X140675000Y-128248292D01*
X140675000Y-128351708D01*
X140695176Y-128453137D01*
X140734751Y-128548681D01*
X140792206Y-128634668D01*
X140865332Y-128707794D01*
X140951319Y-128765249D01*
X141046863Y-128804824D01*
X141148292Y-128825000D01*
X141251708Y-128825000D01*
X141353137Y-128804824D01*
X141448681Y-128765249D01*
X141508918Y-128725000D01*
X148123960Y-128725000D01*
X148419001Y-129020042D01*
X148419000Y-134951950D01*
X148253908Y-135117042D01*
X148182853Y-135131176D01*
X148087309Y-135170751D01*
X148027072Y-135211000D01*
X141151918Y-135211000D01*
X141091681Y-135170751D01*
X140996137Y-135131176D01*
X140968819Y-135125742D01*
X141131019Y-135122824D01*
X141347554Y-135075688D01*
X141514869Y-135006385D01*
X141598789Y-134846277D01*
X141000000Y-134247487D01*
X140401211Y-134846277D01*
X140485131Y-135006385D01*
X140691359Y-135087493D01*
X140821751Y-135111000D01*
X140791292Y-135111000D01*
X140689863Y-135131176D01*
X140594319Y-135170751D01*
X140508332Y-135228206D01*
X140435206Y-135301332D01*
X140377751Y-135387319D01*
X140338176Y-135482863D01*
X140318000Y-135584292D01*
X140318000Y-135687708D01*
X140338176Y-135789137D01*
X140377751Y-135884681D01*
X140404684Y-135924989D01*
X140079598Y-135924989D01*
X140023317Y-135868708D01*
X140023317Y-134530437D01*
X140153723Y-134598789D01*
X140752513Y-134000000D01*
X141247487Y-134000000D01*
X141846277Y-134598789D01*
X142006385Y-134514869D01*
X142087493Y-134308641D01*
X142126810Y-134090551D01*
X142122824Y-133868981D01*
X142075688Y-133652446D01*
X142006385Y-133485131D01*
X141846277Y-133401211D01*
X141247487Y-134000000D01*
X140752513Y-134000000D01*
X140153723Y-133401211D01*
X140023317Y-133469563D01*
X140023317Y-133153723D01*
X140401211Y-133153723D01*
X141000000Y-133752513D01*
X141598789Y-133153723D01*
X141514869Y-132993615D01*
X141308641Y-132912507D01*
X141090551Y-132873190D01*
X140868981Y-132877176D01*
X140652446Y-132924312D01*
X140485131Y-132993615D01*
X140401211Y-133153723D01*
X140023317Y-133153723D01*
X140023317Y-132464264D01*
X140032985Y-132457804D01*
X140106111Y-132384678D01*
X140163566Y-132298691D01*
X140203141Y-132203147D01*
X140223317Y-132101718D01*
X140223317Y-131998302D01*
X140203141Y-131896873D01*
X140163566Y-131801329D01*
X140106111Y-131715342D01*
X140032985Y-131642216D01*
X139946998Y-131584761D01*
X139851454Y-131545186D01*
X139750025Y-131525010D01*
X139646609Y-131525010D01*
X139545180Y-131545186D01*
X139449636Y-131584761D01*
X139363649Y-131642216D01*
X139290523Y-131715342D01*
X139265722Y-131752460D01*
X139265249Y-131751319D01*
X139207794Y-131665332D01*
X139134668Y-131592206D01*
X139048681Y-131534751D01*
X138953137Y-131495176D01*
X138851708Y-131475000D01*
X138748292Y-131475000D01*
X138646863Y-131495176D01*
X138551319Y-131534751D01*
X138465332Y-131592206D01*
X138392206Y-131665332D01*
X138334751Y-131751319D01*
X138295176Y-131846863D01*
X138275000Y-131948292D01*
X136094287Y-131948292D01*
X136090024Y-131926863D01*
X136050449Y-131831319D01*
X135992994Y-131745332D01*
X135919868Y-131672206D01*
X135833881Y-131614751D01*
X135738337Y-131575176D01*
X135636908Y-131555000D01*
X135533492Y-131555000D01*
X135432063Y-131575176D01*
X135336519Y-131614751D01*
X135250532Y-131672206D01*
X135177406Y-131745332D01*
X135170946Y-131755000D01*
X133992619Y-131755000D01*
X133675000Y-131437382D01*
X133675000Y-129801618D01*
X133738619Y-129738000D01*
X136009382Y-129738000D01*
X136510269Y-130238887D01*
X136508000Y-130250292D01*
X136508000Y-130353708D01*
X136528176Y-130455137D01*
X136567751Y-130550681D01*
X136625206Y-130636668D01*
X136698332Y-130709794D01*
X136784319Y-130767249D01*
X136879863Y-130806824D01*
X136981292Y-130827000D01*
X137084708Y-130827000D01*
X137186137Y-130806824D01*
X137281681Y-130767249D01*
X137367668Y-130709794D01*
X137440794Y-130636668D01*
X137498249Y-130550681D01*
X137537824Y-130455137D01*
X137558000Y-130353708D01*
X137558000Y-130250292D01*
X137537824Y-130148863D01*
X137498249Y-130053319D01*
X137440794Y-129967332D01*
X137367668Y-129894206D01*
X137281681Y-129836751D01*
X137186137Y-129797176D01*
X137084708Y-129777000D01*
X136981292Y-129777000D01*
X136969887Y-129779269D01*
X136395218Y-129204600D01*
X136999982Y-129204600D01*
X137653269Y-129857887D01*
X137651000Y-129869292D01*
X137651000Y-129972708D01*
X137671176Y-130074137D01*
X137710751Y-130169681D01*
X137768206Y-130255668D01*
X137841332Y-130328794D01*
X137927319Y-130386249D01*
X138022863Y-130425824D01*
X138124292Y-130446000D01*
X138227708Y-130446000D01*
X138329137Y-130425824D01*
X138424681Y-130386249D01*
X138510668Y-130328794D01*
X138583794Y-130255668D01*
X138641249Y-130169681D01*
X138680824Y-130074137D01*
X138701000Y-129972708D01*
X138701000Y-129869292D01*
X138680824Y-129767863D01*
X138641249Y-129672319D01*
X138583794Y-129586332D01*
X138510668Y-129513206D01*
X138424681Y-129455751D01*
X138329137Y-129416176D01*
X138227708Y-129396000D01*
X138124292Y-129396000D01*
X138112887Y-129398269D01*
X137375701Y-128661083D01*
X137365521Y-128648679D01*
X137316034Y-128608065D01*
X137259574Y-128577887D01*
X137198311Y-128559303D01*
X137150561Y-128554600D01*
X137150553Y-128554600D01*
X137134600Y-128553029D01*
X137118647Y-128554600D01*
X133264353Y-128554600D01*
X133248400Y-128553029D01*
X133232447Y-128554600D01*
X133232439Y-128554600D01*
X133184689Y-128559303D01*
X133123426Y-128577887D01*
X133066966Y-128608065D01*
X133060344Y-128613500D01*
X133029876Y-128638504D01*
X133029872Y-128638508D01*
X133017479Y-128648679D01*
X133007308Y-128661072D01*
X132481482Y-129186900D01*
X132469079Y-129197079D01*
X132428465Y-129246567D01*
X132405769Y-129289029D01*
X132398287Y-129303027D01*
X132383638Y-129351319D01*
X132379703Y-129364290D01*
X132375000Y-129412040D01*
X132375000Y-129412047D01*
X132373429Y-129428000D01*
X132375000Y-129443953D01*
X132375001Y-131685745D01*
X132365332Y-131692206D01*
X132292206Y-131765332D01*
X132234751Y-131851319D01*
X132195176Y-131946863D01*
X132175000Y-132048292D01*
X127933000Y-132048292D01*
X127933000Y-131113040D01*
X127992040Y-131054000D01*
X128077557Y-131054000D01*
X128198306Y-131029981D01*
X128312048Y-130982868D01*
X128414414Y-130914469D01*
X128501469Y-130827414D01*
X128569868Y-130725048D01*
X128616981Y-130611306D01*
X128641000Y-130490557D01*
X128641000Y-130367443D01*
X128616981Y-130246694D01*
X128569868Y-130132952D01*
X128501469Y-130030586D01*
X128441000Y-129970117D01*
X128441000Y-127408083D01*
X128501469Y-127347614D01*
X128569868Y-127245248D01*
X128616981Y-127131506D01*
X128641000Y-127010757D01*
X128641000Y-126887643D01*
X128616981Y-126766894D01*
X128569868Y-126653152D01*
X128501469Y-126550786D01*
X128414414Y-126463731D01*
X128312048Y-126395332D01*
X128198306Y-126348219D01*
X128077557Y-126324200D01*
X127954443Y-126324200D01*
X127833694Y-126348219D01*
X127719952Y-126395332D01*
X127617586Y-126463731D01*
X127530531Y-126550786D01*
X127462132Y-126653152D01*
X127415019Y-126766894D01*
X127391000Y-126887643D01*
X127391000Y-127010757D01*
X127415019Y-127131506D01*
X127462132Y-127245248D01*
X127530531Y-127347614D01*
X127591000Y-127408083D01*
X127591001Y-129970116D01*
X127530531Y-130030586D01*
X127462132Y-130132952D01*
X127415019Y-130246694D01*
X127391000Y-130367443D01*
X127391000Y-130452960D01*
X127222243Y-130621717D01*
X127206026Y-130635026D01*
X127152916Y-130699741D01*
X127113452Y-130773574D01*
X127101439Y-130813176D01*
X127090921Y-130847850D01*
X127089150Y-130853687D01*
X127083000Y-130916127D01*
X127083000Y-130916133D01*
X127080945Y-130937000D01*
X127083000Y-130957867D01*
X127083001Y-132129108D01*
X127022531Y-132189578D01*
X126954132Y-132291944D01*
X126907019Y-132405686D01*
X126883000Y-132526435D01*
X125328897Y-132526435D01*
X125284668Y-132482206D01*
X125198681Y-132424751D01*
X125103137Y-132385176D01*
X125001708Y-132365000D01*
X124898292Y-132365000D01*
X124796863Y-132385176D01*
X124701319Y-132424751D01*
X124615332Y-132482206D01*
X124542206Y-132555332D01*
X124484751Y-132641319D01*
X124445176Y-132736863D01*
X124425000Y-132838292D01*
X120250000Y-132838292D01*
X120250000Y-131403971D01*
X121025000Y-131403971D01*
X121025000Y-131596029D01*
X121062468Y-131784397D01*
X121135966Y-131961836D01*
X121242668Y-132121527D01*
X121378473Y-132257332D01*
X121538164Y-132364034D01*
X121715603Y-132437532D01*
X121903971Y-132475000D01*
X122096029Y-132475000D01*
X122284397Y-132437532D01*
X122461836Y-132364034D01*
X122621527Y-132257332D01*
X122757332Y-132121527D01*
X122864034Y-131961836D01*
X122920714Y-131825000D01*
X123627047Y-131825000D01*
X123643000Y-131826571D01*
X123658953Y-131825000D01*
X123658961Y-131825000D01*
X123706711Y-131820297D01*
X123767974Y-131801713D01*
X123824434Y-131771535D01*
X123873921Y-131730921D01*
X123884101Y-131718517D01*
X124142887Y-131459731D01*
X124154292Y-131462000D01*
X124257708Y-131462000D01*
X124359137Y-131441824D01*
X124454681Y-131402249D01*
X124540668Y-131344794D01*
X124613794Y-131271668D01*
X124671249Y-131185681D01*
X124710824Y-131090137D01*
X124731000Y-130988708D01*
X124731000Y-130885292D01*
X124710824Y-130783863D01*
X124671249Y-130688319D01*
X124613794Y-130602332D01*
X124540668Y-130529206D01*
X124454681Y-130471751D01*
X124359137Y-130432176D01*
X124257708Y-130412000D01*
X124154292Y-130412000D01*
X124052863Y-130432176D01*
X123957319Y-130471751D01*
X123871332Y-130529206D01*
X123798206Y-130602332D01*
X123740751Y-130688319D01*
X123701176Y-130783863D01*
X123681000Y-130885292D01*
X123681000Y-130988708D01*
X123683269Y-131000113D01*
X123508382Y-131175000D01*
X122920714Y-131175000D01*
X122864034Y-131038164D01*
X122757332Y-130878473D01*
X122621527Y-130742668D01*
X122461836Y-130635966D01*
X122284397Y-130562468D01*
X122096029Y-130525000D01*
X121903971Y-130525000D01*
X121715603Y-130562468D01*
X121538164Y-130635966D01*
X121378473Y-130742668D01*
X121242668Y-130878473D01*
X121135966Y-131038164D01*
X121062468Y-131215603D01*
X121025000Y-131403971D01*
X120250000Y-131403971D01*
X120250000Y-128903971D01*
X121025000Y-128903971D01*
X121025000Y-129096029D01*
X121062468Y-129284397D01*
X121135966Y-129461836D01*
X121242668Y-129621527D01*
X121378473Y-129757332D01*
X121538164Y-129864034D01*
X121715603Y-129937532D01*
X121903971Y-129975000D01*
X122096029Y-129975000D01*
X122284397Y-129937532D01*
X122461836Y-129864034D01*
X122621527Y-129757332D01*
X122757332Y-129621527D01*
X122864034Y-129461836D01*
X122907459Y-129357000D01*
X123791746Y-129357000D01*
X123798206Y-129366668D01*
X123871332Y-129439794D01*
X123957319Y-129497249D01*
X124052863Y-129536824D01*
X124154292Y-129557000D01*
X124257708Y-129557000D01*
X124359137Y-129536824D01*
X124454681Y-129497249D01*
X124540668Y-129439794D01*
X124613794Y-129366668D01*
X124671249Y-129280681D01*
X124710824Y-129185137D01*
X124731000Y-129083708D01*
X124731000Y-128980292D01*
X124710824Y-128878863D01*
X124671249Y-128783319D01*
X124613794Y-128697332D01*
X124540668Y-128624206D01*
X124454681Y-128566751D01*
X124359137Y-128527176D01*
X124257708Y-128507000D01*
X124154292Y-128507000D01*
X124052863Y-128527176D01*
X123957319Y-128566751D01*
X123871332Y-128624206D01*
X123798206Y-128697332D01*
X123791746Y-128707000D01*
X122933969Y-128707000D01*
X122864034Y-128538164D01*
X122757332Y-128378473D01*
X122621527Y-128242668D01*
X122461836Y-128135966D01*
X122284397Y-128062468D01*
X122096029Y-128025000D01*
X121903971Y-128025000D01*
X121715603Y-128062468D01*
X121538164Y-128135966D01*
X121378473Y-128242668D01*
X121242668Y-128378473D01*
X121135966Y-128538164D01*
X121062468Y-128715603D01*
X121025000Y-128903971D01*
X120250000Y-128903971D01*
X120250000Y-127058292D01*
X124425000Y-127058292D01*
X124425000Y-127161708D01*
X124445176Y-127263137D01*
X124484751Y-127358681D01*
X124542206Y-127444668D01*
X124615332Y-127517794D01*
X124701319Y-127575249D01*
X124796863Y-127614824D01*
X124898292Y-127635000D01*
X125001708Y-127635000D01*
X125103137Y-127614824D01*
X125198681Y-127575249D01*
X125284668Y-127517794D01*
X125357794Y-127444668D01*
X125415249Y-127358681D01*
X125454824Y-127263137D01*
X125475000Y-127161708D01*
X125475000Y-127058292D01*
X125454824Y-126956863D01*
X125415249Y-126861319D01*
X125357794Y-126775332D01*
X125284668Y-126702206D01*
X125198681Y-126644751D01*
X125103137Y-126605176D01*
X125001708Y-126585000D01*
X124898292Y-126585000D01*
X124796863Y-126605176D01*
X124701319Y-126644751D01*
X124615332Y-126702206D01*
X124542206Y-126775332D01*
X124484751Y-126861319D01*
X124445176Y-126956863D01*
X124425000Y-127058292D01*
X120250000Y-127058292D01*
X120250000Y-126261051D01*
X120256147Y-126268738D01*
X120382607Y-126375231D01*
X120527413Y-126455007D01*
X120685000Y-126505000D01*
X121085000Y-126505000D01*
X121085000Y-125855000D01*
X121435000Y-125855000D01*
X121435000Y-126505000D01*
X121835000Y-126505000D01*
X121992587Y-126455007D01*
X122137393Y-126375231D01*
X122263853Y-126268738D01*
X122367107Y-126139620D01*
X122428924Y-125978967D01*
X124111076Y-125978967D01*
X124172893Y-126139620D01*
X124276147Y-126268738D01*
X124402607Y-126375231D01*
X124547413Y-126455007D01*
X124705000Y-126505000D01*
X125255000Y-126505000D01*
X125255000Y-125855000D01*
X125605000Y-125855000D01*
X125605000Y-126505000D01*
X126155000Y-126505000D01*
X126312587Y-126455007D01*
X126457393Y-126375231D01*
X126583853Y-126268738D01*
X126687107Y-126139620D01*
X126748924Y-125978967D01*
X126690001Y-125855000D01*
X125605000Y-125855000D01*
X125255000Y-125855000D01*
X124169999Y-125855000D01*
X124111076Y-125978967D01*
X122428924Y-125978967D01*
X122370001Y-125855000D01*
X121435000Y-125855000D01*
X121085000Y-125855000D01*
X121065000Y-125855000D01*
X121065000Y-125505000D01*
X121085000Y-125505000D01*
X121085000Y-124855000D01*
X121435000Y-124855000D01*
X121435000Y-125505000D01*
X122370001Y-125505000D01*
X122428924Y-125381033D01*
X124111076Y-125381033D01*
X124169999Y-125505000D01*
X125255000Y-125505000D01*
X125255000Y-124855000D01*
X125605000Y-124855000D01*
X125605000Y-125505000D01*
X126690001Y-125505000D01*
X126748924Y-125381033D01*
X126687107Y-125220380D01*
X126583853Y-125091262D01*
X126457393Y-124984769D01*
X126312587Y-124904993D01*
X126155000Y-124855000D01*
X125605000Y-124855000D01*
X125255000Y-124855000D01*
X124705000Y-124855000D01*
X124547413Y-124904993D01*
X124402607Y-124984769D01*
X124276147Y-125091262D01*
X124172893Y-125220380D01*
X124111076Y-125381033D01*
X122428924Y-125381033D01*
X122367107Y-125220380D01*
X122263853Y-125091262D01*
X122137393Y-124984769D01*
X121992587Y-124904993D01*
X121835000Y-124855000D01*
X121435000Y-124855000D01*
X121085000Y-124855000D01*
X120685000Y-124855000D01*
X120527413Y-124904993D01*
X120382607Y-124984769D01*
X120256147Y-125091262D01*
X120250000Y-125098949D01*
X120250000Y-124846277D01*
X127901211Y-124846277D01*
X127985131Y-125006385D01*
X128191359Y-125087493D01*
X128409449Y-125126810D01*
X128631019Y-125122824D01*
X128847554Y-125075688D01*
X129014869Y-125006385D01*
X129098789Y-124846277D01*
X128500000Y-124247487D01*
X127901211Y-124846277D01*
X120250000Y-124846277D01*
X120250000Y-122894122D01*
X120425000Y-122894122D01*
X120425000Y-123105878D01*
X120466312Y-123313566D01*
X120547348Y-123509203D01*
X120664993Y-123685272D01*
X120814728Y-123835007D01*
X120990797Y-123952652D01*
X121186434Y-124033688D01*
X121394122Y-124075000D01*
X121605878Y-124075000D01*
X121813566Y-124033688D01*
X122009203Y-123952652D01*
X122185272Y-123835007D01*
X122335007Y-123685272D01*
X122452652Y-123509203D01*
X122533688Y-123313566D01*
X122575000Y-123105878D01*
X122575000Y-122894122D01*
X122533688Y-122686434D01*
X122452652Y-122490797D01*
X122355152Y-122344876D01*
X122925000Y-122344876D01*
X122925000Y-122655124D01*
X122985526Y-122959411D01*
X123104253Y-123246042D01*
X123276617Y-123504004D01*
X123495996Y-123723383D01*
X123753958Y-123895747D01*
X124040589Y-124014474D01*
X124344876Y-124075000D01*
X124655124Y-124075000D01*
X124959411Y-124014474D01*
X125212962Y-123909449D01*
X127373190Y-123909449D01*
X127377176Y-124131019D01*
X127424312Y-124347554D01*
X127493615Y-124514869D01*
X127653723Y-124598789D01*
X128252513Y-124000000D01*
X128747487Y-124000000D01*
X129346277Y-124598789D01*
X129506385Y-124514869D01*
X129587493Y-124308641D01*
X129626810Y-124090551D01*
X129622824Y-123868981D01*
X129575688Y-123652446D01*
X129506385Y-123485131D01*
X129346277Y-123401211D01*
X128747487Y-124000000D01*
X128252513Y-124000000D01*
X127653723Y-123401211D01*
X127493615Y-123485131D01*
X127412507Y-123691359D01*
X127373190Y-123909449D01*
X125212962Y-123909449D01*
X125246042Y-123895747D01*
X125504004Y-123723383D01*
X125723383Y-123504004D01*
X125895747Y-123246042D01*
X126014474Y-122959411D01*
X126075000Y-122655124D01*
X126075000Y-122344876D01*
X126014474Y-122040589D01*
X125895747Y-121753958D01*
X125723383Y-121495996D01*
X125631358Y-121403971D01*
X127525000Y-121403971D01*
X127525000Y-121596029D01*
X127562468Y-121784397D01*
X127635966Y-121961836D01*
X127742668Y-122121527D01*
X127878473Y-122257332D01*
X128038164Y-122364034D01*
X128215603Y-122437532D01*
X128403971Y-122475000D01*
X128549483Y-122475000D01*
X128527176Y-122528855D01*
X128507000Y-122630284D01*
X128507000Y-122733700D01*
X128527176Y-122835129D01*
X128543293Y-122874040D01*
X128368981Y-122877176D01*
X128152446Y-122924312D01*
X127985131Y-122993615D01*
X127901211Y-123153723D01*
X128500000Y-123752513D01*
X129045520Y-123206992D01*
X129083708Y-123206992D01*
X129185137Y-123186816D01*
X129280681Y-123147241D01*
X129366668Y-123089786D01*
X129439794Y-123016660D01*
X129497249Y-122930673D01*
X129536824Y-122835129D01*
X129557000Y-122733700D01*
X129557000Y-122630284D01*
X129536824Y-122528855D01*
X129497249Y-122433311D01*
X129457000Y-122373074D01*
X129457000Y-122194867D01*
X129459055Y-122174000D01*
X129457000Y-122153133D01*
X129457000Y-122153126D01*
X129450850Y-122090686D01*
X129426548Y-122010573D01*
X129387084Y-121936740D01*
X129378674Y-121926492D01*
X129437532Y-121784397D01*
X129475000Y-121596029D01*
X129475000Y-121403971D01*
X129437532Y-121215603D01*
X129392254Y-121106292D01*
X149970000Y-121106292D01*
X149970000Y-121209708D01*
X149990176Y-121311137D01*
X150029751Y-121406681D01*
X150087206Y-121492668D01*
X150160332Y-121565794D01*
X150246319Y-121623249D01*
X150341863Y-121662824D01*
X150443292Y-121683000D01*
X150546708Y-121683000D01*
X150648137Y-121662824D01*
X150743681Y-121623249D01*
X150829668Y-121565794D01*
X150902794Y-121492668D01*
X150909254Y-121483000D01*
X151850913Y-121483000D01*
X152552118Y-122184205D01*
X152549849Y-122195610D01*
X152549849Y-122299026D01*
X152570025Y-122400455D01*
X152609600Y-122495999D01*
X152667055Y-122581986D01*
X152740181Y-122655112D01*
X152826168Y-122712567D01*
X152907085Y-122746083D01*
X152863101Y-122790068D01*
X152851696Y-122787799D01*
X152748280Y-122787799D01*
X152646851Y-122807975D01*
X152551307Y-122847550D01*
X152465320Y-122905005D01*
X152392194Y-122978131D01*
X152334739Y-123064118D01*
X152295164Y-123159662D01*
X152274988Y-123261091D01*
X152274988Y-123364507D01*
X152295164Y-123465936D01*
X152334739Y-123561480D01*
X152392194Y-123647467D01*
X152465320Y-123720593D01*
X152551307Y-123778048D01*
X152646851Y-123817623D01*
X152748280Y-123837799D01*
X152851696Y-123837799D01*
X152953125Y-123817623D01*
X153048669Y-123778048D01*
X153134656Y-123720593D01*
X153207782Y-123647467D01*
X153265237Y-123561480D01*
X153304812Y-123465936D01*
X153324988Y-123364507D01*
X153324988Y-123261091D01*
X153322719Y-123249686D01*
X153565407Y-123007000D01*
X156509036Y-123007000D01*
X156465326Y-123036206D01*
X156392200Y-123109332D01*
X156334745Y-123195319D01*
X156295170Y-123290863D01*
X156274994Y-123392292D01*
X156274994Y-123495708D01*
X156295170Y-123597137D01*
X156334745Y-123692681D01*
X156392200Y-123778668D01*
X156465326Y-123851794D01*
X156551313Y-123909249D01*
X156646857Y-123948824D01*
X156748286Y-123969000D01*
X156851702Y-123969000D01*
X156953131Y-123948824D01*
X157048675Y-123909249D01*
X157134662Y-123851794D01*
X157207788Y-123778668D01*
X157214248Y-123769000D01*
X157345382Y-123769000D01*
X157846269Y-124269887D01*
X157844000Y-124281292D01*
X157844000Y-124384708D01*
X157864176Y-124486137D01*
X157903751Y-124581681D01*
X157961206Y-124667668D01*
X158034332Y-124740794D01*
X158120319Y-124798249D01*
X158215863Y-124837824D01*
X158317292Y-124858000D01*
X158420708Y-124858000D01*
X158522137Y-124837824D01*
X158617681Y-124798249D01*
X158703668Y-124740794D01*
X158776794Y-124667668D01*
X158834249Y-124581681D01*
X158873824Y-124486137D01*
X158894000Y-124384708D01*
X158894000Y-124281292D01*
X158873824Y-124179863D01*
X158834249Y-124084319D01*
X158776794Y-123998332D01*
X158703668Y-123925206D01*
X158617681Y-123867751D01*
X158522137Y-123828176D01*
X158420708Y-123808000D01*
X158317292Y-123808000D01*
X158305887Y-123810269D01*
X157721101Y-123225483D01*
X157710921Y-123213079D01*
X157661434Y-123172465D01*
X157604974Y-123142287D01*
X157543711Y-123123703D01*
X157495961Y-123119000D01*
X157495953Y-123119000D01*
X157480000Y-123117429D01*
X157464047Y-123119000D01*
X157214248Y-123119000D01*
X157207788Y-123109332D01*
X157134662Y-123036206D01*
X157090952Y-123007000D01*
X158234382Y-123007000D01*
X158762908Y-123535528D01*
X158773079Y-123547921D01*
X158785472Y-123558092D01*
X158785476Y-123558096D01*
X158789600Y-123561480D01*
X158822566Y-123588535D01*
X158879026Y-123618713D01*
X158940289Y-123637297D01*
X158988039Y-123642000D01*
X158988047Y-123642000D01*
X159004000Y-123643571D01*
X159019953Y-123642000D01*
X160774382Y-123642000D01*
X160841367Y-123708985D01*
X160840863Y-123709085D01*
X160745319Y-123748660D01*
X160659332Y-123806115D01*
X160586206Y-123879241D01*
X160528751Y-123965228D01*
X160489176Y-124060772D01*
X160469000Y-124162201D01*
X160469000Y-124265617D01*
X160489176Y-124367046D01*
X160528751Y-124462590D01*
X160586206Y-124548577D01*
X160605092Y-124567463D01*
X158912483Y-126260072D01*
X158900079Y-126270252D01*
X158859465Y-126319740D01*
X158829287Y-126376200D01*
X158810703Y-126437463D01*
X158806000Y-126485213D01*
X158806000Y-126485220D01*
X158804429Y-126501173D01*
X158806000Y-126517126D01*
X158806001Y-127474746D01*
X158796332Y-127481206D01*
X158723206Y-127554332D01*
X158665751Y-127640319D01*
X158626176Y-127735863D01*
X158606000Y-127837292D01*
X158606000Y-127940708D01*
X158626176Y-128042137D01*
X158665751Y-128137681D01*
X158723206Y-128223668D01*
X158796332Y-128296794D01*
X158882319Y-128354249D01*
X158977863Y-128393824D01*
X159079292Y-128414000D01*
X159182708Y-128414000D01*
X159284137Y-128393824D01*
X159379681Y-128354249D01*
X159465668Y-128296794D01*
X159538794Y-128223668D01*
X159568000Y-128179958D01*
X159568000Y-128508047D01*
X159566429Y-128524000D01*
X159568000Y-128539953D01*
X159568000Y-128539960D01*
X159569905Y-128559303D01*
X159572703Y-128587711D01*
X159583774Y-128624206D01*
X159591287Y-128648973D01*
X159621465Y-128705433D01*
X159662079Y-128754921D01*
X159674482Y-128765100D01*
X160127908Y-129218528D01*
X160138079Y-129230921D01*
X160150472Y-129241092D01*
X160150476Y-129241096D01*
X160157143Y-129246567D01*
X160175019Y-129261238D01*
X160183060Y-129342880D01*
X160210152Y-129432191D01*
X160254147Y-129514500D01*
X160313355Y-129586645D01*
X160385500Y-129645853D01*
X160467809Y-129689848D01*
X160557120Y-129716940D01*
X160618647Y-129723000D01*
X160307254Y-129723000D01*
X160300794Y-129713332D01*
X160227668Y-129640206D01*
X160141681Y-129582751D01*
X160046137Y-129543176D01*
X159944708Y-129523000D01*
X159841292Y-129523000D01*
X159739863Y-129543176D01*
X159644319Y-129582751D01*
X159558332Y-129640206D01*
X159485206Y-129713332D01*
X159427751Y-129799319D01*
X159388176Y-129894863D01*
X159368000Y-129996292D01*
X159368000Y-130099708D01*
X159388176Y-130201137D01*
X159427751Y-130296681D01*
X159485206Y-130382668D01*
X159558332Y-130455794D01*
X159644319Y-130513249D01*
X159739863Y-130552824D01*
X159841292Y-130573000D01*
X159944708Y-130573000D01*
X160046137Y-130552824D01*
X160141681Y-130513249D01*
X160227668Y-130455794D01*
X160300794Y-130382668D01*
X160307254Y-130373000D01*
X160362528Y-130373000D01*
X160313355Y-130413355D01*
X160254147Y-130485500D01*
X160210152Y-130567809D01*
X160183060Y-130657120D01*
X160173912Y-130750000D01*
X160173912Y-131250000D01*
X160183060Y-131342880D01*
X160210152Y-131432191D01*
X160254147Y-131514500D01*
X160313355Y-131586645D01*
X160385500Y-131645853D01*
X160467809Y-131689848D01*
X160557120Y-131716940D01*
X160650000Y-131726088D01*
X163650000Y-131726088D01*
X163742880Y-131716940D01*
X163832191Y-131689848D01*
X163914500Y-131645853D01*
X163986645Y-131586645D01*
X164045853Y-131514500D01*
X164089848Y-131432191D01*
X164116940Y-131342880D01*
X164118701Y-131325000D01*
X164139382Y-131325000D01*
X164267000Y-131452619D01*
X164267000Y-132418003D01*
X164248131Y-132355800D01*
X164213309Y-132290653D01*
X164166448Y-132233552D01*
X164109347Y-132186691D01*
X164044200Y-132151869D01*
X163973513Y-132130426D01*
X163900000Y-132123186D01*
X162418750Y-132125000D01*
X162325000Y-132218750D01*
X162325000Y-132825000D01*
X162345000Y-132825000D01*
X162345000Y-133175000D01*
X162325000Y-133175000D01*
X162325000Y-133781250D01*
X162418750Y-133875000D01*
X163900000Y-133876814D01*
X163973513Y-133869574D01*
X164044200Y-133848131D01*
X164109347Y-133813309D01*
X164110165Y-133812638D01*
X164126751Y-133852681D01*
X164167723Y-133914000D01*
X161178953Y-133914000D01*
X161163000Y-133912429D01*
X161147047Y-133914000D01*
X161147039Y-133914000D01*
X161099289Y-133918703D01*
X161038026Y-133937287D01*
X160981566Y-133967465D01*
X160960697Y-133984592D01*
X160944476Y-133997904D01*
X160944472Y-133997908D01*
X160932079Y-134008079D01*
X160921908Y-134020472D01*
X160309478Y-134632904D01*
X160297080Y-134643079D01*
X160256466Y-134692566D01*
X160251993Y-134700935D01*
X160226287Y-134749027D01*
X160207703Y-134810289D01*
X160201429Y-134874000D01*
X160203001Y-134889963D01*
X160203000Y-135602746D01*
X160193332Y-135609206D01*
X160120206Y-135682332D01*
X160062751Y-135768319D01*
X160023176Y-135863863D01*
X160003000Y-135965292D01*
X160003000Y-136068708D01*
X160023176Y-136170137D01*
X160062751Y-136265681D01*
X160120206Y-136351668D01*
X160193332Y-136424794D01*
X160279319Y-136482249D01*
X160374863Y-136521824D01*
X160476292Y-136542000D01*
X160579708Y-136542000D01*
X160681137Y-136521824D01*
X160776681Y-136482249D01*
X160862668Y-136424794D01*
X160935794Y-136351668D01*
X160993249Y-136265681D01*
X161032824Y-136170137D01*
X161053000Y-136068708D01*
X161053000Y-135965292D01*
X161032824Y-135863863D01*
X160993249Y-135768319D01*
X160935794Y-135682332D01*
X160862668Y-135609206D01*
X160853000Y-135602746D01*
X160853000Y-135008618D01*
X161297620Y-134564000D01*
X165045047Y-134564000D01*
X165061000Y-134565571D01*
X165076953Y-134564000D01*
X165076961Y-134564000D01*
X165124711Y-134559297D01*
X165185974Y-134540713D01*
X165242434Y-134510535D01*
X165291921Y-134469921D01*
X165302101Y-134457517D01*
X167318523Y-132441096D01*
X167330921Y-132430921D01*
X167371535Y-132381434D01*
X167401713Y-132324974D01*
X167420297Y-132263711D01*
X167425000Y-132215961D01*
X167425000Y-132215954D01*
X167426571Y-132200001D01*
X167425000Y-132184048D01*
X167425000Y-129415952D01*
X167426571Y-129399999D01*
X167425000Y-129384046D01*
X167425000Y-129384039D01*
X167420297Y-129336289D01*
X167401713Y-129275026D01*
X167371535Y-129218566D01*
X167330921Y-129169079D01*
X167318524Y-129158905D01*
X166922731Y-128763113D01*
X166925000Y-128751708D01*
X166925000Y-128648292D01*
X166904824Y-128546863D01*
X166865249Y-128451319D01*
X166807794Y-128365332D01*
X166734668Y-128292206D01*
X166648681Y-128234751D01*
X166553137Y-128195176D01*
X166451708Y-128175000D01*
X166348292Y-128175000D01*
X166246863Y-128195176D01*
X166151319Y-128234751D01*
X166065332Y-128292206D01*
X165992206Y-128365332D01*
X165934751Y-128451319D01*
X165895176Y-128546863D01*
X165894729Y-128549112D01*
X164126088Y-126780472D01*
X164126088Y-126750000D01*
X164116940Y-126657120D01*
X164089848Y-126567809D01*
X164045853Y-126485500D01*
X163986645Y-126413355D01*
X163914500Y-126354147D01*
X163832191Y-126310152D01*
X163742880Y-126283060D01*
X163650000Y-126273912D01*
X163619528Y-126273912D01*
X162984099Y-125638483D01*
X162973919Y-125626079D01*
X162924432Y-125585465D01*
X162867972Y-125555287D01*
X162806709Y-125536703D01*
X162758959Y-125532000D01*
X162758951Y-125532000D01*
X162742998Y-125530429D01*
X162727045Y-125532000D01*
X162720254Y-125532000D01*
X162713794Y-125522332D01*
X162640668Y-125449206D01*
X162631000Y-125442746D01*
X162631000Y-124729952D01*
X162632571Y-124713999D01*
X162631000Y-124698046D01*
X162631000Y-124698039D01*
X162626297Y-124650289D01*
X162625810Y-124648681D01*
X162607713Y-124589026D01*
X162603655Y-124581434D01*
X162577535Y-124532566D01*
X162536921Y-124483079D01*
X162524523Y-124472904D01*
X161150101Y-123098483D01*
X161139921Y-123086079D01*
X161090434Y-123045465D01*
X161033974Y-123015287D01*
X160972711Y-122996703D01*
X160924961Y-122992000D01*
X160924953Y-122992000D01*
X160909000Y-122990429D01*
X160893047Y-122992000D01*
X159138620Y-122992000D01*
X158610101Y-122463482D01*
X158599921Y-122451079D01*
X158550434Y-122410465D01*
X158493974Y-122380287D01*
X158432711Y-122361703D01*
X158384961Y-122357000D01*
X158384953Y-122357000D01*
X158369000Y-122355429D01*
X158353047Y-122357000D01*
X154341958Y-122357000D01*
X154360102Y-122344876D01*
X162425000Y-122344876D01*
X162425000Y-122655124D01*
X162485526Y-122959411D01*
X162604253Y-123246042D01*
X162776617Y-123504004D01*
X162995996Y-123723383D01*
X163253958Y-123895747D01*
X163540589Y-124014474D01*
X163844876Y-124075000D01*
X164155124Y-124075000D01*
X164459411Y-124014474D01*
X164746042Y-123895747D01*
X165004004Y-123723383D01*
X165223383Y-123504004D01*
X165395747Y-123246042D01*
X165514474Y-122959411D01*
X165575000Y-122655124D01*
X165575000Y-122344876D01*
X165514474Y-122040589D01*
X165395747Y-121753958D01*
X165223383Y-121495996D01*
X165004004Y-121276617D01*
X164746042Y-121104253D01*
X164459411Y-120985526D01*
X164155124Y-120925000D01*
X163844876Y-120925000D01*
X163540589Y-120985526D01*
X163253958Y-121104253D01*
X162995996Y-121276617D01*
X162776617Y-121495996D01*
X162604253Y-121753958D01*
X162485526Y-122040589D01*
X162425000Y-122344876D01*
X154360102Y-122344876D01*
X154385668Y-122327794D01*
X154458794Y-122254668D01*
X154516249Y-122168681D01*
X154537241Y-122118000D01*
X158480047Y-122118000D01*
X158496000Y-122119571D01*
X158511953Y-122118000D01*
X158511961Y-122118000D01*
X158559711Y-122113297D01*
X158620974Y-122094713D01*
X158677434Y-122064535D01*
X158726921Y-122023921D01*
X158737101Y-122011517D01*
X159448887Y-121299731D01*
X159460292Y-121302000D01*
X159563708Y-121302000D01*
X159665137Y-121281824D01*
X159760681Y-121242249D01*
X159846668Y-121184794D01*
X159919794Y-121111668D01*
X159977249Y-121025681D01*
X160016824Y-120930137D01*
X160037000Y-120828708D01*
X160037000Y-120725292D01*
X160016824Y-120623863D01*
X159977249Y-120528319D01*
X159919794Y-120442332D01*
X159846668Y-120369206D01*
X159760681Y-120311751D01*
X159665137Y-120272176D01*
X159563708Y-120252000D01*
X159460292Y-120252000D01*
X159358863Y-120272176D01*
X159263319Y-120311751D01*
X159177332Y-120369206D01*
X159104206Y-120442332D01*
X159046751Y-120528319D01*
X159007176Y-120623863D01*
X158987000Y-120725292D01*
X158987000Y-120828708D01*
X158989269Y-120840113D01*
X158361382Y-121468000D01*
X154319509Y-121468000D01*
X154299681Y-121454751D01*
X154204137Y-121415176D01*
X154102708Y-121395000D01*
X153999292Y-121395000D01*
X153897863Y-121415176D01*
X153802319Y-121454751D01*
X153716332Y-121512206D01*
X153643206Y-121585332D01*
X153585751Y-121671319D01*
X153546176Y-121766863D01*
X153526000Y-121868292D01*
X153526000Y-121971708D01*
X153527651Y-121980009D01*
X153482643Y-121912650D01*
X153409517Y-121839524D01*
X153323530Y-121782069D01*
X153227986Y-121742494D01*
X153126557Y-121722318D01*
X153023141Y-121722318D01*
X153011736Y-121724587D01*
X152226632Y-120939483D01*
X152216452Y-120927079D01*
X152166965Y-120886465D01*
X152110505Y-120856287D01*
X152049242Y-120837703D01*
X152001492Y-120833000D01*
X152001484Y-120833000D01*
X151985531Y-120831429D01*
X151969578Y-120833000D01*
X150909254Y-120833000D01*
X150902794Y-120823332D01*
X150829668Y-120750206D01*
X150743681Y-120692751D01*
X150648137Y-120653176D01*
X150546708Y-120633000D01*
X150443292Y-120633000D01*
X150341863Y-120653176D01*
X150246319Y-120692751D01*
X150160332Y-120750206D01*
X150087206Y-120823332D01*
X150029751Y-120909319D01*
X149990176Y-121004863D01*
X149970000Y-121106292D01*
X129392254Y-121106292D01*
X129364034Y-121038164D01*
X129257332Y-120878473D01*
X129121527Y-120742668D01*
X128961836Y-120635966D01*
X128784397Y-120562468D01*
X128596029Y-120525000D01*
X128403971Y-120525000D01*
X128215603Y-120562468D01*
X128038164Y-120635966D01*
X127878473Y-120742668D01*
X127742668Y-120878473D01*
X127635966Y-121038164D01*
X127562468Y-121215603D01*
X127525000Y-121403971D01*
X125631358Y-121403971D01*
X125504004Y-121276617D01*
X125246042Y-121104253D01*
X124959411Y-120985526D01*
X124655124Y-120925000D01*
X124344876Y-120925000D01*
X124040589Y-120985526D01*
X123753958Y-121104253D01*
X123495996Y-121276617D01*
X123276617Y-121495996D01*
X123104253Y-121753958D01*
X122985526Y-122040589D01*
X122925000Y-122344876D01*
X122355152Y-122344876D01*
X122335007Y-122314728D01*
X122185272Y-122164993D01*
X122009203Y-122047348D01*
X121813566Y-121966312D01*
X121605878Y-121925000D01*
X121394122Y-121925000D01*
X121186434Y-121966312D01*
X120990797Y-122047348D01*
X120814728Y-122164993D01*
X120664993Y-122314728D01*
X120547348Y-122490797D01*
X120466312Y-122686434D01*
X120425000Y-122894122D01*
X120250000Y-122894122D01*
X120250000Y-121012229D01*
X120265460Y-120854557D01*
X120307699Y-120714654D01*
X120376308Y-120585619D01*
X120468672Y-120472369D01*
X120581275Y-120379215D01*
X120709823Y-120309710D01*
X120849437Y-120266492D01*
X121006346Y-120250000D01*
X168987771Y-120250000D01*
X169145443Y-120265460D01*
%TD*%
M02*
