%TF.GenerationSoftware,KiCad,Pcbnew,(5.1.6-rc1)*%
%TF.CreationDate,2020-08-04T22:03:52+02:00*%
%TF.ProjectId,bmp22,626d7032-322e-46b6-9963-61645f706362,rev?*%
%TF.SameCoordinates,Original*%
%TF.FileFunction,Paste,Top*%
%TF.FilePolarity,Positive*%
%FSLAX46Y46*%
G04 Gerber Fmt 4.6, Leading zero omitted, Abs format (unit mm)*
G04 Created by KiCad (PCBNEW (5.1.6-rc1)) date 2020-08-04 22:03:52*
%MOMM*%
%LPD*%
G01*
G04 APERTURE LIST*
%ADD10R,1.050000X0.650000*%
%ADD11R,1.200000X1.400000*%
%ADD12R,1.060000X0.650000*%
%ADD13R,0.750000X0.250000*%
%ADD14R,0.700000X0.400000*%
%ADD15R,1.160000X0.600000*%
%ADD16R,1.160000X0.300000*%
%ADD17R,2.400000X0.740000*%
G04 APERTURE END LIST*
D10*
%TO.C,SW301*%
X135339000Y-127195000D03*
X139489000Y-127195000D03*
X135339000Y-129345000D03*
X139489000Y-129345000D03*
%TD*%
D11*
%TO.C,Y301*%
X150788000Y-136482000D03*
X150788000Y-134282000D03*
X152488000Y-134282000D03*
X152488000Y-136482000D03*
%TD*%
%TO.C,U302*%
G36*
G01*
X142991000Y-129411000D02*
X142991000Y-130041000D01*
G75*
G02*
X142741000Y-130291000I-250000J0D01*
G01*
X142111000Y-130291000D01*
G75*
G02*
X141861000Y-130041000I0J250000D01*
G01*
X141861000Y-129411000D01*
G75*
G02*
X142111000Y-129161000I250000J0D01*
G01*
X142741000Y-129161000D01*
G75*
G02*
X142991000Y-129411000I0J-250000D01*
G01*
G37*
G36*
G01*
X142991000Y-130811000D02*
X142991000Y-131441000D01*
G75*
G02*
X142741000Y-131691000I-250000J0D01*
G01*
X142111000Y-131691000D01*
G75*
G02*
X141861000Y-131441000I0J250000D01*
G01*
X141861000Y-130811000D01*
G75*
G02*
X142111000Y-130561000I250000J0D01*
G01*
X142741000Y-130561000D01*
G75*
G02*
X142991000Y-130811000I0J-250000D01*
G01*
G37*
G36*
G01*
X142991000Y-132211000D02*
X142991000Y-132841000D01*
G75*
G02*
X142741000Y-133091000I-250000J0D01*
G01*
X142111000Y-133091000D01*
G75*
G02*
X141861000Y-132841000I0J250000D01*
G01*
X141861000Y-132211000D01*
G75*
G02*
X142111000Y-131961000I250000J0D01*
G01*
X142741000Y-131961000D01*
G75*
G02*
X142991000Y-132211000I0J-250000D01*
G01*
G37*
G36*
G01*
X142991000Y-133611000D02*
X142991000Y-134241000D01*
G75*
G02*
X142741000Y-134491000I-250000J0D01*
G01*
X142111000Y-134491000D01*
G75*
G02*
X141861000Y-134241000I0J250000D01*
G01*
X141861000Y-133611000D01*
G75*
G02*
X142111000Y-133361000I250000J0D01*
G01*
X142741000Y-133361000D01*
G75*
G02*
X142991000Y-133611000I0J-250000D01*
G01*
G37*
G36*
G01*
X144391000Y-129411000D02*
X144391000Y-130041000D01*
G75*
G02*
X144141000Y-130291000I-250000J0D01*
G01*
X143511000Y-130291000D01*
G75*
G02*
X143261000Y-130041000I0J250000D01*
G01*
X143261000Y-129411000D01*
G75*
G02*
X143511000Y-129161000I250000J0D01*
G01*
X144141000Y-129161000D01*
G75*
G02*
X144391000Y-129411000I0J-250000D01*
G01*
G37*
G36*
G01*
X144391000Y-130811000D02*
X144391000Y-131441000D01*
G75*
G02*
X144141000Y-131691000I-250000J0D01*
G01*
X143511000Y-131691000D01*
G75*
G02*
X143261000Y-131441000I0J250000D01*
G01*
X143261000Y-130811000D01*
G75*
G02*
X143511000Y-130561000I250000J0D01*
G01*
X144141000Y-130561000D01*
G75*
G02*
X144391000Y-130811000I0J-250000D01*
G01*
G37*
G36*
G01*
X144391000Y-132211000D02*
X144391000Y-132841000D01*
G75*
G02*
X144141000Y-133091000I-250000J0D01*
G01*
X143511000Y-133091000D01*
G75*
G02*
X143261000Y-132841000I0J250000D01*
G01*
X143261000Y-132211000D01*
G75*
G02*
X143511000Y-131961000I250000J0D01*
G01*
X144141000Y-131961000D01*
G75*
G02*
X144391000Y-132211000I0J-250000D01*
G01*
G37*
G36*
G01*
X144391000Y-133611000D02*
X144391000Y-134241000D01*
G75*
G02*
X144141000Y-134491000I-250000J0D01*
G01*
X143511000Y-134491000D01*
G75*
G02*
X143261000Y-134241000I0J250000D01*
G01*
X143261000Y-133611000D01*
G75*
G02*
X143511000Y-133361000I250000J0D01*
G01*
X144141000Y-133361000D01*
G75*
G02*
X144391000Y-133611000I0J-250000D01*
G01*
G37*
G36*
G01*
X145791000Y-129411000D02*
X145791000Y-130041000D01*
G75*
G02*
X145541000Y-130291000I-250000J0D01*
G01*
X144911000Y-130291000D01*
G75*
G02*
X144661000Y-130041000I0J250000D01*
G01*
X144661000Y-129411000D01*
G75*
G02*
X144911000Y-129161000I250000J0D01*
G01*
X145541000Y-129161000D01*
G75*
G02*
X145791000Y-129411000I0J-250000D01*
G01*
G37*
G36*
G01*
X145791000Y-130811000D02*
X145791000Y-131441000D01*
G75*
G02*
X145541000Y-131691000I-250000J0D01*
G01*
X144911000Y-131691000D01*
G75*
G02*
X144661000Y-131441000I0J250000D01*
G01*
X144661000Y-130811000D01*
G75*
G02*
X144911000Y-130561000I250000J0D01*
G01*
X145541000Y-130561000D01*
G75*
G02*
X145791000Y-130811000I0J-250000D01*
G01*
G37*
G36*
G01*
X145791000Y-132211000D02*
X145791000Y-132841000D01*
G75*
G02*
X145541000Y-133091000I-250000J0D01*
G01*
X144911000Y-133091000D01*
G75*
G02*
X144661000Y-132841000I0J250000D01*
G01*
X144661000Y-132211000D01*
G75*
G02*
X144911000Y-131961000I250000J0D01*
G01*
X145541000Y-131961000D01*
G75*
G02*
X145791000Y-132211000I0J-250000D01*
G01*
G37*
G36*
G01*
X145791000Y-133611000D02*
X145791000Y-134241000D01*
G75*
G02*
X145541000Y-134491000I-250000J0D01*
G01*
X144911000Y-134491000D01*
G75*
G02*
X144661000Y-134241000I0J250000D01*
G01*
X144661000Y-133611000D01*
G75*
G02*
X144911000Y-133361000I250000J0D01*
G01*
X145541000Y-133361000D01*
G75*
G02*
X145791000Y-133611000I0J-250000D01*
G01*
G37*
G36*
G01*
X147191000Y-129411000D02*
X147191000Y-130041000D01*
G75*
G02*
X146941000Y-130291000I-250000J0D01*
G01*
X146311000Y-130291000D01*
G75*
G02*
X146061000Y-130041000I0J250000D01*
G01*
X146061000Y-129411000D01*
G75*
G02*
X146311000Y-129161000I250000J0D01*
G01*
X146941000Y-129161000D01*
G75*
G02*
X147191000Y-129411000I0J-250000D01*
G01*
G37*
G36*
G01*
X147191000Y-130811000D02*
X147191000Y-131441000D01*
G75*
G02*
X146941000Y-131691000I-250000J0D01*
G01*
X146311000Y-131691000D01*
G75*
G02*
X146061000Y-131441000I0J250000D01*
G01*
X146061000Y-130811000D01*
G75*
G02*
X146311000Y-130561000I250000J0D01*
G01*
X146941000Y-130561000D01*
G75*
G02*
X147191000Y-130811000I0J-250000D01*
G01*
G37*
G36*
G01*
X147191000Y-132211000D02*
X147191000Y-132841000D01*
G75*
G02*
X146941000Y-133091000I-250000J0D01*
G01*
X146311000Y-133091000D01*
G75*
G02*
X146061000Y-132841000I0J250000D01*
G01*
X146061000Y-132211000D01*
G75*
G02*
X146311000Y-131961000I250000J0D01*
G01*
X146941000Y-131961000D01*
G75*
G02*
X147191000Y-132211000I0J-250000D01*
G01*
G37*
G36*
G01*
X147191000Y-133611000D02*
X147191000Y-134241000D01*
G75*
G02*
X146941000Y-134491000I-250000J0D01*
G01*
X146311000Y-134491000D01*
G75*
G02*
X146061000Y-134241000I0J250000D01*
G01*
X146061000Y-133611000D01*
G75*
G02*
X146311000Y-133361000I250000J0D01*
G01*
X146941000Y-133361000D01*
G75*
G02*
X147191000Y-133611000I0J-250000D01*
G01*
G37*
G36*
G01*
X147401000Y-134888500D02*
X147401000Y-135638500D01*
G75*
G02*
X147338500Y-135701000I-62500J0D01*
G01*
X147213500Y-135701000D01*
G75*
G02*
X147151000Y-135638500I0J62500D01*
G01*
X147151000Y-134888500D01*
G75*
G02*
X147213500Y-134826000I62500J0D01*
G01*
X147338500Y-134826000D01*
G75*
G02*
X147401000Y-134888500I0J-62500D01*
G01*
G37*
G36*
G01*
X146901000Y-134888500D02*
X146901000Y-135638500D01*
G75*
G02*
X146838500Y-135701000I-62500J0D01*
G01*
X146713500Y-135701000D01*
G75*
G02*
X146651000Y-135638500I0J62500D01*
G01*
X146651000Y-134888500D01*
G75*
G02*
X146713500Y-134826000I62500J0D01*
G01*
X146838500Y-134826000D01*
G75*
G02*
X146901000Y-134888500I0J-62500D01*
G01*
G37*
G36*
G01*
X146401000Y-134888500D02*
X146401000Y-135638500D01*
G75*
G02*
X146338500Y-135701000I-62500J0D01*
G01*
X146213500Y-135701000D01*
G75*
G02*
X146151000Y-135638500I0J62500D01*
G01*
X146151000Y-134888500D01*
G75*
G02*
X146213500Y-134826000I62500J0D01*
G01*
X146338500Y-134826000D01*
G75*
G02*
X146401000Y-134888500I0J-62500D01*
G01*
G37*
G36*
G01*
X145901000Y-134888500D02*
X145901000Y-135638500D01*
G75*
G02*
X145838500Y-135701000I-62500J0D01*
G01*
X145713500Y-135701000D01*
G75*
G02*
X145651000Y-135638500I0J62500D01*
G01*
X145651000Y-134888500D01*
G75*
G02*
X145713500Y-134826000I62500J0D01*
G01*
X145838500Y-134826000D01*
G75*
G02*
X145901000Y-134888500I0J-62500D01*
G01*
G37*
G36*
G01*
X145401000Y-134888500D02*
X145401000Y-135638500D01*
G75*
G02*
X145338500Y-135701000I-62500J0D01*
G01*
X145213500Y-135701000D01*
G75*
G02*
X145151000Y-135638500I0J62500D01*
G01*
X145151000Y-134888500D01*
G75*
G02*
X145213500Y-134826000I62500J0D01*
G01*
X145338500Y-134826000D01*
G75*
G02*
X145401000Y-134888500I0J-62500D01*
G01*
G37*
G36*
G01*
X144901000Y-134888500D02*
X144901000Y-135638500D01*
G75*
G02*
X144838500Y-135701000I-62500J0D01*
G01*
X144713500Y-135701000D01*
G75*
G02*
X144651000Y-135638500I0J62500D01*
G01*
X144651000Y-134888500D01*
G75*
G02*
X144713500Y-134826000I62500J0D01*
G01*
X144838500Y-134826000D01*
G75*
G02*
X144901000Y-134888500I0J-62500D01*
G01*
G37*
G36*
G01*
X144401000Y-134888500D02*
X144401000Y-135638500D01*
G75*
G02*
X144338500Y-135701000I-62500J0D01*
G01*
X144213500Y-135701000D01*
G75*
G02*
X144151000Y-135638500I0J62500D01*
G01*
X144151000Y-134888500D01*
G75*
G02*
X144213500Y-134826000I62500J0D01*
G01*
X144338500Y-134826000D01*
G75*
G02*
X144401000Y-134888500I0J-62500D01*
G01*
G37*
G36*
G01*
X143901000Y-134888500D02*
X143901000Y-135638500D01*
G75*
G02*
X143838500Y-135701000I-62500J0D01*
G01*
X143713500Y-135701000D01*
G75*
G02*
X143651000Y-135638500I0J62500D01*
G01*
X143651000Y-134888500D01*
G75*
G02*
X143713500Y-134826000I62500J0D01*
G01*
X143838500Y-134826000D01*
G75*
G02*
X143901000Y-134888500I0J-62500D01*
G01*
G37*
G36*
G01*
X143401000Y-134888500D02*
X143401000Y-135638500D01*
G75*
G02*
X143338500Y-135701000I-62500J0D01*
G01*
X143213500Y-135701000D01*
G75*
G02*
X143151000Y-135638500I0J62500D01*
G01*
X143151000Y-134888500D01*
G75*
G02*
X143213500Y-134826000I62500J0D01*
G01*
X143338500Y-134826000D01*
G75*
G02*
X143401000Y-134888500I0J-62500D01*
G01*
G37*
G36*
G01*
X142901000Y-134888500D02*
X142901000Y-135638500D01*
G75*
G02*
X142838500Y-135701000I-62500J0D01*
G01*
X142713500Y-135701000D01*
G75*
G02*
X142651000Y-135638500I0J62500D01*
G01*
X142651000Y-134888500D01*
G75*
G02*
X142713500Y-134826000I62500J0D01*
G01*
X142838500Y-134826000D01*
G75*
G02*
X142901000Y-134888500I0J-62500D01*
G01*
G37*
G36*
G01*
X142401000Y-134888500D02*
X142401000Y-135638500D01*
G75*
G02*
X142338500Y-135701000I-62500J0D01*
G01*
X142213500Y-135701000D01*
G75*
G02*
X142151000Y-135638500I0J62500D01*
G01*
X142151000Y-134888500D01*
G75*
G02*
X142213500Y-134826000I62500J0D01*
G01*
X142338500Y-134826000D01*
G75*
G02*
X142401000Y-134888500I0J-62500D01*
G01*
G37*
G36*
G01*
X141901000Y-134888500D02*
X141901000Y-135638500D01*
G75*
G02*
X141838500Y-135701000I-62500J0D01*
G01*
X141713500Y-135701000D01*
G75*
G02*
X141651000Y-135638500I0J62500D01*
G01*
X141651000Y-134888500D01*
G75*
G02*
X141713500Y-134826000I62500J0D01*
G01*
X141838500Y-134826000D01*
G75*
G02*
X141901000Y-134888500I0J-62500D01*
G01*
G37*
G36*
G01*
X141526000Y-134513500D02*
X141526000Y-134638500D01*
G75*
G02*
X141463500Y-134701000I-62500J0D01*
G01*
X140713500Y-134701000D01*
G75*
G02*
X140651000Y-134638500I0J62500D01*
G01*
X140651000Y-134513500D01*
G75*
G02*
X140713500Y-134451000I62500J0D01*
G01*
X141463500Y-134451000D01*
G75*
G02*
X141526000Y-134513500I0J-62500D01*
G01*
G37*
G36*
G01*
X141526000Y-134013500D02*
X141526000Y-134138500D01*
G75*
G02*
X141463500Y-134201000I-62500J0D01*
G01*
X140713500Y-134201000D01*
G75*
G02*
X140651000Y-134138500I0J62500D01*
G01*
X140651000Y-134013500D01*
G75*
G02*
X140713500Y-133951000I62500J0D01*
G01*
X141463500Y-133951000D01*
G75*
G02*
X141526000Y-134013500I0J-62500D01*
G01*
G37*
G36*
G01*
X141526000Y-133513500D02*
X141526000Y-133638500D01*
G75*
G02*
X141463500Y-133701000I-62500J0D01*
G01*
X140713500Y-133701000D01*
G75*
G02*
X140651000Y-133638500I0J62500D01*
G01*
X140651000Y-133513500D01*
G75*
G02*
X140713500Y-133451000I62500J0D01*
G01*
X141463500Y-133451000D01*
G75*
G02*
X141526000Y-133513500I0J-62500D01*
G01*
G37*
G36*
G01*
X141526000Y-133013500D02*
X141526000Y-133138500D01*
G75*
G02*
X141463500Y-133201000I-62500J0D01*
G01*
X140713500Y-133201000D01*
G75*
G02*
X140651000Y-133138500I0J62500D01*
G01*
X140651000Y-133013500D01*
G75*
G02*
X140713500Y-132951000I62500J0D01*
G01*
X141463500Y-132951000D01*
G75*
G02*
X141526000Y-133013500I0J-62500D01*
G01*
G37*
G36*
G01*
X141526000Y-132513500D02*
X141526000Y-132638500D01*
G75*
G02*
X141463500Y-132701000I-62500J0D01*
G01*
X140713500Y-132701000D01*
G75*
G02*
X140651000Y-132638500I0J62500D01*
G01*
X140651000Y-132513500D01*
G75*
G02*
X140713500Y-132451000I62500J0D01*
G01*
X141463500Y-132451000D01*
G75*
G02*
X141526000Y-132513500I0J-62500D01*
G01*
G37*
G36*
G01*
X141526000Y-132013500D02*
X141526000Y-132138500D01*
G75*
G02*
X141463500Y-132201000I-62500J0D01*
G01*
X140713500Y-132201000D01*
G75*
G02*
X140651000Y-132138500I0J62500D01*
G01*
X140651000Y-132013500D01*
G75*
G02*
X140713500Y-131951000I62500J0D01*
G01*
X141463500Y-131951000D01*
G75*
G02*
X141526000Y-132013500I0J-62500D01*
G01*
G37*
G36*
G01*
X141526000Y-131513500D02*
X141526000Y-131638500D01*
G75*
G02*
X141463500Y-131701000I-62500J0D01*
G01*
X140713500Y-131701000D01*
G75*
G02*
X140651000Y-131638500I0J62500D01*
G01*
X140651000Y-131513500D01*
G75*
G02*
X140713500Y-131451000I62500J0D01*
G01*
X141463500Y-131451000D01*
G75*
G02*
X141526000Y-131513500I0J-62500D01*
G01*
G37*
G36*
G01*
X141526000Y-131013500D02*
X141526000Y-131138500D01*
G75*
G02*
X141463500Y-131201000I-62500J0D01*
G01*
X140713500Y-131201000D01*
G75*
G02*
X140651000Y-131138500I0J62500D01*
G01*
X140651000Y-131013500D01*
G75*
G02*
X140713500Y-130951000I62500J0D01*
G01*
X141463500Y-130951000D01*
G75*
G02*
X141526000Y-131013500I0J-62500D01*
G01*
G37*
G36*
G01*
X141526000Y-130513500D02*
X141526000Y-130638500D01*
G75*
G02*
X141463500Y-130701000I-62500J0D01*
G01*
X140713500Y-130701000D01*
G75*
G02*
X140651000Y-130638500I0J62500D01*
G01*
X140651000Y-130513500D01*
G75*
G02*
X140713500Y-130451000I62500J0D01*
G01*
X141463500Y-130451000D01*
G75*
G02*
X141526000Y-130513500I0J-62500D01*
G01*
G37*
G36*
G01*
X141526000Y-130013500D02*
X141526000Y-130138500D01*
G75*
G02*
X141463500Y-130201000I-62500J0D01*
G01*
X140713500Y-130201000D01*
G75*
G02*
X140651000Y-130138500I0J62500D01*
G01*
X140651000Y-130013500D01*
G75*
G02*
X140713500Y-129951000I62500J0D01*
G01*
X141463500Y-129951000D01*
G75*
G02*
X141526000Y-130013500I0J-62500D01*
G01*
G37*
G36*
G01*
X141526000Y-129513500D02*
X141526000Y-129638500D01*
G75*
G02*
X141463500Y-129701000I-62500J0D01*
G01*
X140713500Y-129701000D01*
G75*
G02*
X140651000Y-129638500I0J62500D01*
G01*
X140651000Y-129513500D01*
G75*
G02*
X140713500Y-129451000I62500J0D01*
G01*
X141463500Y-129451000D01*
G75*
G02*
X141526000Y-129513500I0J-62500D01*
G01*
G37*
G36*
G01*
X141526000Y-129013500D02*
X141526000Y-129138500D01*
G75*
G02*
X141463500Y-129201000I-62500J0D01*
G01*
X140713500Y-129201000D01*
G75*
G02*
X140651000Y-129138500I0J62500D01*
G01*
X140651000Y-129013500D01*
G75*
G02*
X140713500Y-128951000I62500J0D01*
G01*
X141463500Y-128951000D01*
G75*
G02*
X141526000Y-129013500I0J-62500D01*
G01*
G37*
G36*
G01*
X141901000Y-128013500D02*
X141901000Y-128763500D01*
G75*
G02*
X141838500Y-128826000I-62500J0D01*
G01*
X141713500Y-128826000D01*
G75*
G02*
X141651000Y-128763500I0J62500D01*
G01*
X141651000Y-128013500D01*
G75*
G02*
X141713500Y-127951000I62500J0D01*
G01*
X141838500Y-127951000D01*
G75*
G02*
X141901000Y-128013500I0J-62500D01*
G01*
G37*
G36*
G01*
X142401000Y-128013500D02*
X142401000Y-128763500D01*
G75*
G02*
X142338500Y-128826000I-62500J0D01*
G01*
X142213500Y-128826000D01*
G75*
G02*
X142151000Y-128763500I0J62500D01*
G01*
X142151000Y-128013500D01*
G75*
G02*
X142213500Y-127951000I62500J0D01*
G01*
X142338500Y-127951000D01*
G75*
G02*
X142401000Y-128013500I0J-62500D01*
G01*
G37*
G36*
G01*
X142901000Y-128013500D02*
X142901000Y-128763500D01*
G75*
G02*
X142838500Y-128826000I-62500J0D01*
G01*
X142713500Y-128826000D01*
G75*
G02*
X142651000Y-128763500I0J62500D01*
G01*
X142651000Y-128013500D01*
G75*
G02*
X142713500Y-127951000I62500J0D01*
G01*
X142838500Y-127951000D01*
G75*
G02*
X142901000Y-128013500I0J-62500D01*
G01*
G37*
G36*
G01*
X143401000Y-128013500D02*
X143401000Y-128763500D01*
G75*
G02*
X143338500Y-128826000I-62500J0D01*
G01*
X143213500Y-128826000D01*
G75*
G02*
X143151000Y-128763500I0J62500D01*
G01*
X143151000Y-128013500D01*
G75*
G02*
X143213500Y-127951000I62500J0D01*
G01*
X143338500Y-127951000D01*
G75*
G02*
X143401000Y-128013500I0J-62500D01*
G01*
G37*
G36*
G01*
X143901000Y-128013500D02*
X143901000Y-128763500D01*
G75*
G02*
X143838500Y-128826000I-62500J0D01*
G01*
X143713500Y-128826000D01*
G75*
G02*
X143651000Y-128763500I0J62500D01*
G01*
X143651000Y-128013500D01*
G75*
G02*
X143713500Y-127951000I62500J0D01*
G01*
X143838500Y-127951000D01*
G75*
G02*
X143901000Y-128013500I0J-62500D01*
G01*
G37*
G36*
G01*
X144401000Y-128013500D02*
X144401000Y-128763500D01*
G75*
G02*
X144338500Y-128826000I-62500J0D01*
G01*
X144213500Y-128826000D01*
G75*
G02*
X144151000Y-128763500I0J62500D01*
G01*
X144151000Y-128013500D01*
G75*
G02*
X144213500Y-127951000I62500J0D01*
G01*
X144338500Y-127951000D01*
G75*
G02*
X144401000Y-128013500I0J-62500D01*
G01*
G37*
G36*
G01*
X144901000Y-128013500D02*
X144901000Y-128763500D01*
G75*
G02*
X144838500Y-128826000I-62500J0D01*
G01*
X144713500Y-128826000D01*
G75*
G02*
X144651000Y-128763500I0J62500D01*
G01*
X144651000Y-128013500D01*
G75*
G02*
X144713500Y-127951000I62500J0D01*
G01*
X144838500Y-127951000D01*
G75*
G02*
X144901000Y-128013500I0J-62500D01*
G01*
G37*
G36*
G01*
X145401000Y-128013500D02*
X145401000Y-128763500D01*
G75*
G02*
X145338500Y-128826000I-62500J0D01*
G01*
X145213500Y-128826000D01*
G75*
G02*
X145151000Y-128763500I0J62500D01*
G01*
X145151000Y-128013500D01*
G75*
G02*
X145213500Y-127951000I62500J0D01*
G01*
X145338500Y-127951000D01*
G75*
G02*
X145401000Y-128013500I0J-62500D01*
G01*
G37*
G36*
G01*
X145901000Y-128013500D02*
X145901000Y-128763500D01*
G75*
G02*
X145838500Y-128826000I-62500J0D01*
G01*
X145713500Y-128826000D01*
G75*
G02*
X145651000Y-128763500I0J62500D01*
G01*
X145651000Y-128013500D01*
G75*
G02*
X145713500Y-127951000I62500J0D01*
G01*
X145838500Y-127951000D01*
G75*
G02*
X145901000Y-128013500I0J-62500D01*
G01*
G37*
G36*
G01*
X146401000Y-128013500D02*
X146401000Y-128763500D01*
G75*
G02*
X146338500Y-128826000I-62500J0D01*
G01*
X146213500Y-128826000D01*
G75*
G02*
X146151000Y-128763500I0J62500D01*
G01*
X146151000Y-128013500D01*
G75*
G02*
X146213500Y-127951000I62500J0D01*
G01*
X146338500Y-127951000D01*
G75*
G02*
X146401000Y-128013500I0J-62500D01*
G01*
G37*
G36*
G01*
X146901000Y-128013500D02*
X146901000Y-128763500D01*
G75*
G02*
X146838500Y-128826000I-62500J0D01*
G01*
X146713500Y-128826000D01*
G75*
G02*
X146651000Y-128763500I0J62500D01*
G01*
X146651000Y-128013500D01*
G75*
G02*
X146713500Y-127951000I62500J0D01*
G01*
X146838500Y-127951000D01*
G75*
G02*
X146901000Y-128013500I0J-62500D01*
G01*
G37*
G36*
G01*
X147401000Y-128013500D02*
X147401000Y-128763500D01*
G75*
G02*
X147338500Y-128826000I-62500J0D01*
G01*
X147213500Y-128826000D01*
G75*
G02*
X147151000Y-128763500I0J62500D01*
G01*
X147151000Y-128013500D01*
G75*
G02*
X147213500Y-127951000I62500J0D01*
G01*
X147338500Y-127951000D01*
G75*
G02*
X147401000Y-128013500I0J-62500D01*
G01*
G37*
G36*
G01*
X148401000Y-129013500D02*
X148401000Y-129138500D01*
G75*
G02*
X148338500Y-129201000I-62500J0D01*
G01*
X147588500Y-129201000D01*
G75*
G02*
X147526000Y-129138500I0J62500D01*
G01*
X147526000Y-129013500D01*
G75*
G02*
X147588500Y-128951000I62500J0D01*
G01*
X148338500Y-128951000D01*
G75*
G02*
X148401000Y-129013500I0J-62500D01*
G01*
G37*
G36*
G01*
X148401000Y-129513500D02*
X148401000Y-129638500D01*
G75*
G02*
X148338500Y-129701000I-62500J0D01*
G01*
X147588500Y-129701000D01*
G75*
G02*
X147526000Y-129638500I0J62500D01*
G01*
X147526000Y-129513500D01*
G75*
G02*
X147588500Y-129451000I62500J0D01*
G01*
X148338500Y-129451000D01*
G75*
G02*
X148401000Y-129513500I0J-62500D01*
G01*
G37*
G36*
G01*
X148401000Y-130013500D02*
X148401000Y-130138500D01*
G75*
G02*
X148338500Y-130201000I-62500J0D01*
G01*
X147588500Y-130201000D01*
G75*
G02*
X147526000Y-130138500I0J62500D01*
G01*
X147526000Y-130013500D01*
G75*
G02*
X147588500Y-129951000I62500J0D01*
G01*
X148338500Y-129951000D01*
G75*
G02*
X148401000Y-130013500I0J-62500D01*
G01*
G37*
G36*
G01*
X148401000Y-130513500D02*
X148401000Y-130638500D01*
G75*
G02*
X148338500Y-130701000I-62500J0D01*
G01*
X147588500Y-130701000D01*
G75*
G02*
X147526000Y-130638500I0J62500D01*
G01*
X147526000Y-130513500D01*
G75*
G02*
X147588500Y-130451000I62500J0D01*
G01*
X148338500Y-130451000D01*
G75*
G02*
X148401000Y-130513500I0J-62500D01*
G01*
G37*
G36*
G01*
X148401000Y-131013500D02*
X148401000Y-131138500D01*
G75*
G02*
X148338500Y-131201000I-62500J0D01*
G01*
X147588500Y-131201000D01*
G75*
G02*
X147526000Y-131138500I0J62500D01*
G01*
X147526000Y-131013500D01*
G75*
G02*
X147588500Y-130951000I62500J0D01*
G01*
X148338500Y-130951000D01*
G75*
G02*
X148401000Y-131013500I0J-62500D01*
G01*
G37*
G36*
G01*
X148401000Y-131513500D02*
X148401000Y-131638500D01*
G75*
G02*
X148338500Y-131701000I-62500J0D01*
G01*
X147588500Y-131701000D01*
G75*
G02*
X147526000Y-131638500I0J62500D01*
G01*
X147526000Y-131513500D01*
G75*
G02*
X147588500Y-131451000I62500J0D01*
G01*
X148338500Y-131451000D01*
G75*
G02*
X148401000Y-131513500I0J-62500D01*
G01*
G37*
G36*
G01*
X148401000Y-132013500D02*
X148401000Y-132138500D01*
G75*
G02*
X148338500Y-132201000I-62500J0D01*
G01*
X147588500Y-132201000D01*
G75*
G02*
X147526000Y-132138500I0J62500D01*
G01*
X147526000Y-132013500D01*
G75*
G02*
X147588500Y-131951000I62500J0D01*
G01*
X148338500Y-131951000D01*
G75*
G02*
X148401000Y-132013500I0J-62500D01*
G01*
G37*
G36*
G01*
X148401000Y-132513500D02*
X148401000Y-132638500D01*
G75*
G02*
X148338500Y-132701000I-62500J0D01*
G01*
X147588500Y-132701000D01*
G75*
G02*
X147526000Y-132638500I0J62500D01*
G01*
X147526000Y-132513500D01*
G75*
G02*
X147588500Y-132451000I62500J0D01*
G01*
X148338500Y-132451000D01*
G75*
G02*
X148401000Y-132513500I0J-62500D01*
G01*
G37*
G36*
G01*
X148401000Y-133013500D02*
X148401000Y-133138500D01*
G75*
G02*
X148338500Y-133201000I-62500J0D01*
G01*
X147588500Y-133201000D01*
G75*
G02*
X147526000Y-133138500I0J62500D01*
G01*
X147526000Y-133013500D01*
G75*
G02*
X147588500Y-132951000I62500J0D01*
G01*
X148338500Y-132951000D01*
G75*
G02*
X148401000Y-133013500I0J-62500D01*
G01*
G37*
G36*
G01*
X148401000Y-133513500D02*
X148401000Y-133638500D01*
G75*
G02*
X148338500Y-133701000I-62500J0D01*
G01*
X147588500Y-133701000D01*
G75*
G02*
X147526000Y-133638500I0J62500D01*
G01*
X147526000Y-133513500D01*
G75*
G02*
X147588500Y-133451000I62500J0D01*
G01*
X148338500Y-133451000D01*
G75*
G02*
X148401000Y-133513500I0J-62500D01*
G01*
G37*
G36*
G01*
X148401000Y-134013500D02*
X148401000Y-134138500D01*
G75*
G02*
X148338500Y-134201000I-62500J0D01*
G01*
X147588500Y-134201000D01*
G75*
G02*
X147526000Y-134138500I0J62500D01*
G01*
X147526000Y-134013500D01*
G75*
G02*
X147588500Y-133951000I62500J0D01*
G01*
X148338500Y-133951000D01*
G75*
G02*
X148401000Y-134013500I0J-62500D01*
G01*
G37*
G36*
G01*
X148401000Y-134513500D02*
X148401000Y-134638500D01*
G75*
G02*
X148338500Y-134701000I-62500J0D01*
G01*
X147588500Y-134701000D01*
G75*
G02*
X147526000Y-134638500I0J62500D01*
G01*
X147526000Y-134513500D01*
G75*
G02*
X147588500Y-134451000I62500J0D01*
G01*
X148338500Y-134451000D01*
G75*
G02*
X148401000Y-134513500I0J-62500D01*
G01*
G37*
%TD*%
D12*
%TO.C,U301*%
X129202000Y-130556000D03*
X129202000Y-131506000D03*
X129202000Y-129606000D03*
X131402000Y-129606000D03*
X131402000Y-130556000D03*
X131402000Y-131506000D03*
%TD*%
D13*
%TO.C,U204*%
X158141000Y-130314000D03*
X158141000Y-130814000D03*
X158141000Y-131314000D03*
X158141000Y-131814000D03*
X155041000Y-131814000D03*
X155041000Y-131314000D03*
X155041000Y-130814000D03*
X155041000Y-130314000D03*
%TD*%
%TO.C,U203*%
X158141000Y-134378000D03*
X158141000Y-134878000D03*
X158141000Y-135378000D03*
X158141000Y-135878000D03*
X155041000Y-135878000D03*
X155041000Y-135378000D03*
X155041000Y-134878000D03*
X155041000Y-134378000D03*
%TD*%
%TO.C,U202*%
X158141000Y-126250000D03*
X158141000Y-126750000D03*
X158141000Y-127250000D03*
X158141000Y-127750000D03*
X155041000Y-127750000D03*
X155041000Y-127250000D03*
X155041000Y-126750000D03*
X155041000Y-126250000D03*
%TD*%
%TO.C,U201*%
X158141000Y-122186000D03*
X158141000Y-122686000D03*
X158141000Y-123186000D03*
X158141000Y-123686000D03*
X155041000Y-123686000D03*
X155041000Y-123186000D03*
X155041000Y-122686000D03*
X155041000Y-122186000D03*
%TD*%
D12*
%TO.C,U101*%
X134196000Y-121478000D03*
X134196000Y-123378000D03*
X131996000Y-123378000D03*
X131996000Y-122428000D03*
X131996000Y-121478000D03*
%TD*%
%TO.C,R314*%
G36*
G01*
X142072500Y-124310000D02*
X141727500Y-124310000D01*
G75*
G02*
X141580000Y-124162500I0J147500D01*
G01*
X141580000Y-123867500D01*
G75*
G02*
X141727500Y-123720000I147500J0D01*
G01*
X142072500Y-123720000D01*
G75*
G02*
X142220000Y-123867500I0J-147500D01*
G01*
X142220000Y-124162500D01*
G75*
G02*
X142072500Y-124310000I-147500J0D01*
G01*
G37*
G36*
G01*
X142072500Y-125280000D02*
X141727500Y-125280000D01*
G75*
G02*
X141580000Y-125132500I0J147500D01*
G01*
X141580000Y-124837500D01*
G75*
G02*
X141727500Y-124690000I147500J0D01*
G01*
X142072500Y-124690000D01*
G75*
G02*
X142220000Y-124837500I0J-147500D01*
G01*
X142220000Y-125132500D01*
G75*
G02*
X142072500Y-125280000I-147500J0D01*
G01*
G37*
%TD*%
%TO.C,R313*%
G36*
G01*
X142372500Y-121510000D02*
X142027500Y-121510000D01*
G75*
G02*
X141880000Y-121362500I0J147500D01*
G01*
X141880000Y-121067500D01*
G75*
G02*
X142027500Y-120920000I147500J0D01*
G01*
X142372500Y-120920000D01*
G75*
G02*
X142520000Y-121067500I0J-147500D01*
G01*
X142520000Y-121362500D01*
G75*
G02*
X142372500Y-121510000I-147500J0D01*
G01*
G37*
G36*
G01*
X142372500Y-122480000D02*
X142027500Y-122480000D01*
G75*
G02*
X141880000Y-122332500I0J147500D01*
G01*
X141880000Y-122037500D01*
G75*
G02*
X142027500Y-121890000I147500J0D01*
G01*
X142372500Y-121890000D01*
G75*
G02*
X142520000Y-122037500I0J-147500D01*
G01*
X142520000Y-122332500D01*
G75*
G02*
X142372500Y-122480000I-147500J0D01*
G01*
G37*
%TD*%
%TO.C,R312*%
G36*
G01*
X145472500Y-121710000D02*
X145127500Y-121710000D01*
G75*
G02*
X144980000Y-121562500I0J147500D01*
G01*
X144980000Y-121267500D01*
G75*
G02*
X145127500Y-121120000I147500J0D01*
G01*
X145472500Y-121120000D01*
G75*
G02*
X145620000Y-121267500I0J-147500D01*
G01*
X145620000Y-121562500D01*
G75*
G02*
X145472500Y-121710000I-147500J0D01*
G01*
G37*
G36*
G01*
X145472500Y-122680000D02*
X145127500Y-122680000D01*
G75*
G02*
X144980000Y-122532500I0J147500D01*
G01*
X144980000Y-122237500D01*
G75*
G02*
X145127500Y-122090000I147500J0D01*
G01*
X145472500Y-122090000D01*
G75*
G02*
X145620000Y-122237500I0J-147500D01*
G01*
X145620000Y-122532500D01*
G75*
G02*
X145472500Y-122680000I-147500J0D01*
G01*
G37*
%TD*%
%TO.C,R311*%
G36*
G01*
X136072500Y-121410000D02*
X135727500Y-121410000D01*
G75*
G02*
X135580000Y-121262500I0J147500D01*
G01*
X135580000Y-120967500D01*
G75*
G02*
X135727500Y-120820000I147500J0D01*
G01*
X136072500Y-120820000D01*
G75*
G02*
X136220000Y-120967500I0J-147500D01*
G01*
X136220000Y-121262500D01*
G75*
G02*
X136072500Y-121410000I-147500J0D01*
G01*
G37*
G36*
G01*
X136072500Y-122380000D02*
X135727500Y-122380000D01*
G75*
G02*
X135580000Y-122232500I0J147500D01*
G01*
X135580000Y-121937500D01*
G75*
G02*
X135727500Y-121790000I147500J0D01*
G01*
X136072500Y-121790000D01*
G75*
G02*
X136220000Y-121937500I0J-147500D01*
G01*
X136220000Y-122232500D01*
G75*
G02*
X136072500Y-122380000I-147500J0D01*
G01*
G37*
%TD*%
%TO.C,R310*%
G36*
G01*
X133583900Y-128460000D02*
X133928900Y-128460000D01*
G75*
G02*
X134076400Y-128607500I0J-147500D01*
G01*
X134076400Y-128902500D01*
G75*
G02*
X133928900Y-129050000I-147500J0D01*
G01*
X133583900Y-129050000D01*
G75*
G02*
X133436400Y-128902500I0J147500D01*
G01*
X133436400Y-128607500D01*
G75*
G02*
X133583900Y-128460000I147500J0D01*
G01*
G37*
G36*
G01*
X133583900Y-127490000D02*
X133928900Y-127490000D01*
G75*
G02*
X134076400Y-127637500I0J-147500D01*
G01*
X134076400Y-127932500D01*
G75*
G02*
X133928900Y-128080000I-147500J0D01*
G01*
X133583900Y-128080000D01*
G75*
G02*
X133436400Y-127932500I0J147500D01*
G01*
X133436400Y-127637500D01*
G75*
G02*
X133583900Y-127490000I147500J0D01*
G01*
G37*
%TD*%
%TO.C,R309*%
G36*
G01*
X134556000Y-132252500D02*
X134556000Y-131907500D01*
G75*
G02*
X134703500Y-131760000I147500J0D01*
G01*
X134998500Y-131760000D01*
G75*
G02*
X135146000Y-131907500I0J-147500D01*
G01*
X135146000Y-132252500D01*
G75*
G02*
X134998500Y-132400000I-147500J0D01*
G01*
X134703500Y-132400000D01*
G75*
G02*
X134556000Y-132252500I0J147500D01*
G01*
G37*
G36*
G01*
X133586000Y-132252500D02*
X133586000Y-131907500D01*
G75*
G02*
X133733500Y-131760000I147500J0D01*
G01*
X134028500Y-131760000D01*
G75*
G02*
X134176000Y-131907500I0J-147500D01*
G01*
X134176000Y-132252500D01*
G75*
G02*
X134028500Y-132400000I-147500J0D01*
G01*
X133733500Y-132400000D01*
G75*
G02*
X133586000Y-132252500I0J147500D01*
G01*
G37*
%TD*%
%TO.C,R308*%
G36*
G01*
X134556000Y-133268500D02*
X134556000Y-132923500D01*
G75*
G02*
X134703500Y-132776000I147500J0D01*
G01*
X134998500Y-132776000D01*
G75*
G02*
X135146000Y-132923500I0J-147500D01*
G01*
X135146000Y-133268500D01*
G75*
G02*
X134998500Y-133416000I-147500J0D01*
G01*
X134703500Y-133416000D01*
G75*
G02*
X134556000Y-133268500I0J147500D01*
G01*
G37*
G36*
G01*
X133586000Y-133268500D02*
X133586000Y-132923500D01*
G75*
G02*
X133733500Y-132776000I147500J0D01*
G01*
X134028500Y-132776000D01*
G75*
G02*
X134176000Y-132923500I0J-147500D01*
G01*
X134176000Y-133268500D01*
G75*
G02*
X134028500Y-133416000I-147500J0D01*
G01*
X133733500Y-133416000D01*
G75*
G02*
X133586000Y-133268500I0J147500D01*
G01*
G37*
%TD*%
%TO.C,R307*%
G36*
G01*
X129349000Y-128061500D02*
X129349000Y-127716500D01*
G75*
G02*
X129496500Y-127569000I147500J0D01*
G01*
X129791500Y-127569000D01*
G75*
G02*
X129939000Y-127716500I0J-147500D01*
G01*
X129939000Y-128061500D01*
G75*
G02*
X129791500Y-128209000I-147500J0D01*
G01*
X129496500Y-128209000D01*
G75*
G02*
X129349000Y-128061500I0J147500D01*
G01*
G37*
G36*
G01*
X128379000Y-128061500D02*
X128379000Y-127716500D01*
G75*
G02*
X128526500Y-127569000I147500J0D01*
G01*
X128821500Y-127569000D01*
G75*
G02*
X128969000Y-127716500I0J-147500D01*
G01*
X128969000Y-128061500D01*
G75*
G02*
X128821500Y-128209000I-147500J0D01*
G01*
X128526500Y-128209000D01*
G75*
G02*
X128379000Y-128061500I0J147500D01*
G01*
G37*
%TD*%
%TO.C,R306*%
G36*
G01*
X129222000Y-133141500D02*
X129222000Y-132796500D01*
G75*
G02*
X129369500Y-132649000I147500J0D01*
G01*
X129664500Y-132649000D01*
G75*
G02*
X129812000Y-132796500I0J-147500D01*
G01*
X129812000Y-133141500D01*
G75*
G02*
X129664500Y-133289000I-147500J0D01*
G01*
X129369500Y-133289000D01*
G75*
G02*
X129222000Y-133141500I0J147500D01*
G01*
G37*
G36*
G01*
X128252000Y-133141500D02*
X128252000Y-132796500D01*
G75*
G02*
X128399500Y-132649000I147500J0D01*
G01*
X128694500Y-132649000D01*
G75*
G02*
X128842000Y-132796500I0J-147500D01*
G01*
X128842000Y-133141500D01*
G75*
G02*
X128694500Y-133289000I-147500J0D01*
G01*
X128399500Y-133289000D01*
G75*
G02*
X128252000Y-133141500I0J147500D01*
G01*
G37*
%TD*%
%TO.C,R305*%
G36*
G01*
X147365500Y-124143000D02*
X147020500Y-124143000D01*
G75*
G02*
X146873000Y-123995500I0J147500D01*
G01*
X146873000Y-123700500D01*
G75*
G02*
X147020500Y-123553000I147500J0D01*
G01*
X147365500Y-123553000D01*
G75*
G02*
X147513000Y-123700500I0J-147500D01*
G01*
X147513000Y-123995500D01*
G75*
G02*
X147365500Y-124143000I-147500J0D01*
G01*
G37*
G36*
G01*
X147365500Y-125113000D02*
X147020500Y-125113000D01*
G75*
G02*
X146873000Y-124965500I0J147500D01*
G01*
X146873000Y-124670500D01*
G75*
G02*
X147020500Y-124523000I147500J0D01*
G01*
X147365500Y-124523000D01*
G75*
G02*
X147513000Y-124670500I0J-147500D01*
G01*
X147513000Y-124965500D01*
G75*
G02*
X147365500Y-125113000I-147500J0D01*
G01*
G37*
%TD*%
%TO.C,R304*%
G36*
G01*
X149052500Y-124523000D02*
X149397500Y-124523000D01*
G75*
G02*
X149545000Y-124670500I0J-147500D01*
G01*
X149545000Y-124965500D01*
G75*
G02*
X149397500Y-125113000I-147500J0D01*
G01*
X149052500Y-125113000D01*
G75*
G02*
X148905000Y-124965500I0J147500D01*
G01*
X148905000Y-124670500D01*
G75*
G02*
X149052500Y-124523000I147500J0D01*
G01*
G37*
G36*
G01*
X149052500Y-123553000D02*
X149397500Y-123553000D01*
G75*
G02*
X149545000Y-123700500I0J-147500D01*
G01*
X149545000Y-123995500D01*
G75*
G02*
X149397500Y-124143000I-147500J0D01*
G01*
X149052500Y-124143000D01*
G75*
G02*
X148905000Y-123995500I0J147500D01*
G01*
X148905000Y-123700500D01*
G75*
G02*
X149052500Y-123553000I147500J0D01*
G01*
G37*
%TD*%
%TO.C,R303*%
G36*
G01*
X133160000Y-129875500D02*
X133160000Y-130220500D01*
G75*
G02*
X133012500Y-130368000I-147500J0D01*
G01*
X132717500Y-130368000D01*
G75*
G02*
X132570000Y-130220500I0J147500D01*
G01*
X132570000Y-129875500D01*
G75*
G02*
X132717500Y-129728000I147500J0D01*
G01*
X133012500Y-129728000D01*
G75*
G02*
X133160000Y-129875500I0J-147500D01*
G01*
G37*
G36*
G01*
X134130000Y-129875500D02*
X134130000Y-130220500D01*
G75*
G02*
X133982500Y-130368000I-147500J0D01*
G01*
X133687500Y-130368000D01*
G75*
G02*
X133540000Y-130220500I0J147500D01*
G01*
X133540000Y-129875500D01*
G75*
G02*
X133687500Y-129728000I147500J0D01*
G01*
X133982500Y-129728000D01*
G75*
G02*
X134130000Y-129875500I0J-147500D01*
G01*
G37*
%TD*%
%TO.C,R302*%
G36*
G01*
X131508000Y-133268500D02*
X131508000Y-132923500D01*
G75*
G02*
X131655500Y-132776000I147500J0D01*
G01*
X131950500Y-132776000D01*
G75*
G02*
X132098000Y-132923500I0J-147500D01*
G01*
X132098000Y-133268500D01*
G75*
G02*
X131950500Y-133416000I-147500J0D01*
G01*
X131655500Y-133416000D01*
G75*
G02*
X131508000Y-133268500I0J147500D01*
G01*
G37*
G36*
G01*
X130538000Y-133268500D02*
X130538000Y-132923500D01*
G75*
G02*
X130685500Y-132776000I147500J0D01*
G01*
X130980500Y-132776000D01*
G75*
G02*
X131128000Y-132923500I0J-147500D01*
G01*
X131128000Y-133268500D01*
G75*
G02*
X130980500Y-133416000I-147500J0D01*
G01*
X130685500Y-133416000D01*
G75*
G02*
X130538000Y-133268500I0J147500D01*
G01*
G37*
%TD*%
%TO.C,R301*%
G36*
G01*
X133160000Y-130891500D02*
X133160000Y-131236500D01*
G75*
G02*
X133012500Y-131384000I-147500J0D01*
G01*
X132717500Y-131384000D01*
G75*
G02*
X132570000Y-131236500I0J147500D01*
G01*
X132570000Y-130891500D01*
G75*
G02*
X132717500Y-130744000I147500J0D01*
G01*
X133012500Y-130744000D01*
G75*
G02*
X133160000Y-130891500I0J-147500D01*
G01*
G37*
G36*
G01*
X134130000Y-130891500D02*
X134130000Y-131236500D01*
G75*
G02*
X133982500Y-131384000I-147500J0D01*
G01*
X133687500Y-131384000D01*
G75*
G02*
X133540000Y-131236500I0J147500D01*
G01*
X133540000Y-130891500D01*
G75*
G02*
X133687500Y-130744000I147500J0D01*
G01*
X133982500Y-130744000D01*
G75*
G02*
X134130000Y-130891500I0J-147500D01*
G01*
G37*
%TD*%
%TO.C,R211*%
G36*
G01*
X153307000Y-125031000D02*
X153652000Y-125031000D01*
G75*
G02*
X153799500Y-125178500I0J-147500D01*
G01*
X153799500Y-125473500D01*
G75*
G02*
X153652000Y-125621000I-147500J0D01*
G01*
X153307000Y-125621000D01*
G75*
G02*
X153159500Y-125473500I0J147500D01*
G01*
X153159500Y-125178500D01*
G75*
G02*
X153307000Y-125031000I147500J0D01*
G01*
G37*
G36*
G01*
X153307000Y-124061000D02*
X153652000Y-124061000D01*
G75*
G02*
X153799500Y-124208500I0J-147500D01*
G01*
X153799500Y-124503500D01*
G75*
G02*
X153652000Y-124651000I-147500J0D01*
G01*
X153307000Y-124651000D01*
G75*
G02*
X153159500Y-124503500I0J147500D01*
G01*
X153159500Y-124208500D01*
G75*
G02*
X153307000Y-124061000I147500J0D01*
G01*
G37*
%TD*%
%TO.C,R210*%
G36*
G01*
X149052500Y-121983000D02*
X149397500Y-121983000D01*
G75*
G02*
X149545000Y-122130500I0J-147500D01*
G01*
X149545000Y-122425500D01*
G75*
G02*
X149397500Y-122573000I-147500J0D01*
G01*
X149052500Y-122573000D01*
G75*
G02*
X148905000Y-122425500I0J147500D01*
G01*
X148905000Y-122130500D01*
G75*
G02*
X149052500Y-121983000I147500J0D01*
G01*
G37*
G36*
G01*
X149052500Y-121013000D02*
X149397500Y-121013000D01*
G75*
G02*
X149545000Y-121160500I0J-147500D01*
G01*
X149545000Y-121455500D01*
G75*
G02*
X149397500Y-121603000I-147500J0D01*
G01*
X149052500Y-121603000D01*
G75*
G02*
X148905000Y-121455500I0J147500D01*
G01*
X148905000Y-121160500D01*
G75*
G02*
X149052500Y-121013000I147500J0D01*
G01*
G37*
%TD*%
%TO.C,R209*%
G36*
G01*
X160846000Y-134127500D02*
X160846000Y-134472500D01*
G75*
G02*
X160698500Y-134620000I-147500J0D01*
G01*
X160403500Y-134620000D01*
G75*
G02*
X160256000Y-134472500I0J147500D01*
G01*
X160256000Y-134127500D01*
G75*
G02*
X160403500Y-133980000I147500J0D01*
G01*
X160698500Y-133980000D01*
G75*
G02*
X160846000Y-134127500I0J-147500D01*
G01*
G37*
G36*
G01*
X161816000Y-134127500D02*
X161816000Y-134472500D01*
G75*
G02*
X161668500Y-134620000I-147500J0D01*
G01*
X161373500Y-134620000D01*
G75*
G02*
X161226000Y-134472500I0J147500D01*
G01*
X161226000Y-134127500D01*
G75*
G02*
X161373500Y-133980000I147500J0D01*
G01*
X161668500Y-133980000D01*
G75*
G02*
X161816000Y-134127500I0J-147500D01*
G01*
G37*
%TD*%
%TO.C,R208*%
G36*
G01*
X160338000Y-125049500D02*
X160338000Y-125394500D01*
G75*
G02*
X160190500Y-125542000I-147500J0D01*
G01*
X159895500Y-125542000D01*
G75*
G02*
X159748000Y-125394500I0J147500D01*
G01*
X159748000Y-125049500D01*
G75*
G02*
X159895500Y-124902000I147500J0D01*
G01*
X160190500Y-124902000D01*
G75*
G02*
X160338000Y-125049500I0J-147500D01*
G01*
G37*
G36*
G01*
X161308000Y-125049500D02*
X161308000Y-125394500D01*
G75*
G02*
X161160500Y-125542000I-147500J0D01*
G01*
X160865500Y-125542000D01*
G75*
G02*
X160718000Y-125394500I0J147500D01*
G01*
X160718000Y-125049500D01*
G75*
G02*
X160865500Y-124902000I147500J0D01*
G01*
X161160500Y-124902000D01*
G75*
G02*
X161308000Y-125049500I0J-147500D01*
G01*
G37*
%TD*%
%TO.C,R207*%
G36*
G01*
X159703000Y-122509500D02*
X159703000Y-122854500D01*
G75*
G02*
X159555500Y-123002000I-147500J0D01*
G01*
X159260500Y-123002000D01*
G75*
G02*
X159113000Y-122854500I0J147500D01*
G01*
X159113000Y-122509500D01*
G75*
G02*
X159260500Y-122362000I147500J0D01*
G01*
X159555500Y-122362000D01*
G75*
G02*
X159703000Y-122509500I0J-147500D01*
G01*
G37*
G36*
G01*
X160673000Y-122509500D02*
X160673000Y-122854500D01*
G75*
G02*
X160525500Y-123002000I-147500J0D01*
G01*
X160230500Y-123002000D01*
G75*
G02*
X160083000Y-122854500I0J147500D01*
G01*
X160083000Y-122509500D01*
G75*
G02*
X160230500Y-122362000I147500J0D01*
G01*
X160525500Y-122362000D01*
G75*
G02*
X160673000Y-122509500I0J-147500D01*
G01*
G37*
%TD*%
%TO.C,R206*%
G36*
G01*
X160338000Y-128605500D02*
X160338000Y-128950500D01*
G75*
G02*
X160190500Y-129098000I-147500J0D01*
G01*
X159895500Y-129098000D01*
G75*
G02*
X159748000Y-128950500I0J147500D01*
G01*
X159748000Y-128605500D01*
G75*
G02*
X159895500Y-128458000I147500J0D01*
G01*
X160190500Y-128458000D01*
G75*
G02*
X160338000Y-128605500I0J-147500D01*
G01*
G37*
G36*
G01*
X161308000Y-128605500D02*
X161308000Y-128950500D01*
G75*
G02*
X161160500Y-129098000I-147500J0D01*
G01*
X160865500Y-129098000D01*
G75*
G02*
X160718000Y-128950500I0J147500D01*
G01*
X160718000Y-128605500D01*
G75*
G02*
X160865500Y-128458000I147500J0D01*
G01*
X161160500Y-128458000D01*
G75*
G02*
X161308000Y-128605500I0J-147500D01*
G01*
G37*
%TD*%
%TO.C,R205*%
G36*
G01*
X156528000Y-137876500D02*
X156528000Y-138221500D01*
G75*
G02*
X156380500Y-138369000I-147500J0D01*
G01*
X156085500Y-138369000D01*
G75*
G02*
X155938000Y-138221500I0J147500D01*
G01*
X155938000Y-137876500D01*
G75*
G02*
X156085500Y-137729000I147500J0D01*
G01*
X156380500Y-137729000D01*
G75*
G02*
X156528000Y-137876500I0J-147500D01*
G01*
G37*
G36*
G01*
X157498000Y-137876500D02*
X157498000Y-138221500D01*
G75*
G02*
X157350500Y-138369000I-147500J0D01*
G01*
X157055500Y-138369000D01*
G75*
G02*
X156908000Y-138221500I0J147500D01*
G01*
X156908000Y-137876500D01*
G75*
G02*
X157055500Y-137729000I147500J0D01*
G01*
X157350500Y-137729000D01*
G75*
G02*
X157498000Y-137876500I0J-147500D01*
G01*
G37*
%TD*%
%TO.C,R204*%
G36*
G01*
X160410000Y-132923500D02*
X160410000Y-133268500D01*
G75*
G02*
X160262500Y-133416000I-147500J0D01*
G01*
X159967500Y-133416000D01*
G75*
G02*
X159820000Y-133268500I0J147500D01*
G01*
X159820000Y-132923500D01*
G75*
G02*
X159967500Y-132776000I147500J0D01*
G01*
X160262500Y-132776000D01*
G75*
G02*
X160410000Y-132923500I0J-147500D01*
G01*
G37*
G36*
G01*
X161380000Y-132923500D02*
X161380000Y-133268500D01*
G75*
G02*
X161232500Y-133416000I-147500J0D01*
G01*
X160937500Y-133416000D01*
G75*
G02*
X160790000Y-133268500I0J147500D01*
G01*
X160790000Y-132923500D01*
G75*
G02*
X160937500Y-132776000I147500J0D01*
G01*
X161232500Y-132776000D01*
G75*
G02*
X161380000Y-132923500I0J-147500D01*
G01*
G37*
%TD*%
%TO.C,R203*%
G36*
G01*
X160338000Y-127081500D02*
X160338000Y-127426500D01*
G75*
G02*
X160190500Y-127574000I-147500J0D01*
G01*
X159895500Y-127574000D01*
G75*
G02*
X159748000Y-127426500I0J147500D01*
G01*
X159748000Y-127081500D01*
G75*
G02*
X159895500Y-126934000I147500J0D01*
G01*
X160190500Y-126934000D01*
G75*
G02*
X160338000Y-127081500I0J-147500D01*
G01*
G37*
G36*
G01*
X161308000Y-127081500D02*
X161308000Y-127426500D01*
G75*
G02*
X161160500Y-127574000I-147500J0D01*
G01*
X160865500Y-127574000D01*
G75*
G02*
X160718000Y-127426500I0J147500D01*
G01*
X160718000Y-127081500D01*
G75*
G02*
X160865500Y-126934000I147500J0D01*
G01*
X161160500Y-126934000D01*
G75*
G02*
X161308000Y-127081500I0J-147500D01*
G01*
G37*
%TD*%
%TO.C,R202*%
G36*
G01*
X160338000Y-131145500D02*
X160338000Y-131490500D01*
G75*
G02*
X160190500Y-131638000I-147500J0D01*
G01*
X159895500Y-131638000D01*
G75*
G02*
X159748000Y-131490500I0J147500D01*
G01*
X159748000Y-131145500D01*
G75*
G02*
X159895500Y-130998000I147500J0D01*
G01*
X160190500Y-130998000D01*
G75*
G02*
X160338000Y-131145500I0J-147500D01*
G01*
G37*
G36*
G01*
X161308000Y-131145500D02*
X161308000Y-131490500D01*
G75*
G02*
X161160500Y-131638000I-147500J0D01*
G01*
X160865500Y-131638000D01*
G75*
G02*
X160718000Y-131490500I0J147500D01*
G01*
X160718000Y-131145500D01*
G75*
G02*
X160865500Y-130998000I147500J0D01*
G01*
X161160500Y-130998000D01*
G75*
G02*
X161308000Y-131145500I0J-147500D01*
G01*
G37*
%TD*%
%TO.C,R201*%
G36*
G01*
X160338000Y-126065500D02*
X160338000Y-126410500D01*
G75*
G02*
X160190500Y-126558000I-147500J0D01*
G01*
X159895500Y-126558000D01*
G75*
G02*
X159748000Y-126410500I0J147500D01*
G01*
X159748000Y-126065500D01*
G75*
G02*
X159895500Y-125918000I147500J0D01*
G01*
X160190500Y-125918000D01*
G75*
G02*
X160338000Y-126065500I0J-147500D01*
G01*
G37*
G36*
G01*
X161308000Y-126065500D02*
X161308000Y-126410500D01*
G75*
G02*
X161160500Y-126558000I-147500J0D01*
G01*
X160865500Y-126558000D01*
G75*
G02*
X160718000Y-126410500I0J147500D01*
G01*
X160718000Y-126065500D01*
G75*
G02*
X160865500Y-125918000I147500J0D01*
G01*
X161160500Y-125918000D01*
G75*
G02*
X161308000Y-126065500I0J-147500D01*
G01*
G37*
%TD*%
D14*
%TO.C,Q203*%
X152197500Y-124841000D03*
X152197500Y-125341000D03*
X150697500Y-124841000D03*
X152197500Y-124341000D03*
X150697500Y-125341000D03*
X150697500Y-124341000D03*
%TD*%
%TO.C,Q201*%
X152007000Y-122301000D03*
X152007000Y-122801000D03*
X150507000Y-122301000D03*
X152007000Y-121801000D03*
X150507000Y-122801000D03*
X150507000Y-121801000D03*
%TD*%
%TO.C,JP202*%
G36*
G01*
X159113000Y-124251500D02*
X159113000Y-123906500D01*
G75*
G02*
X159260500Y-123759000I147500J0D01*
G01*
X159555500Y-123759000D01*
G75*
G02*
X159703000Y-123906500I0J-147500D01*
G01*
X159703000Y-124251500D01*
G75*
G02*
X159555500Y-124399000I-147500J0D01*
G01*
X159260500Y-124399000D01*
G75*
G02*
X159113000Y-124251500I0J147500D01*
G01*
G37*
G36*
G01*
X160083000Y-124251500D02*
X160083000Y-123906500D01*
G75*
G02*
X160230500Y-123759000I147500J0D01*
G01*
X160525500Y-123759000D01*
G75*
G02*
X160673000Y-123906500I0J-147500D01*
G01*
X160673000Y-124251500D01*
G75*
G02*
X160525500Y-124399000I-147500J0D01*
G01*
X160230500Y-124399000D01*
G75*
G02*
X160083000Y-124251500I0J147500D01*
G01*
G37*
%TD*%
%TO.C,JP201*%
G36*
G01*
X156528000Y-136860500D02*
X156528000Y-137205500D01*
G75*
G02*
X156380500Y-137353000I-147500J0D01*
G01*
X156085500Y-137353000D01*
G75*
G02*
X155938000Y-137205500I0J147500D01*
G01*
X155938000Y-136860500D01*
G75*
G02*
X156085500Y-136713000I147500J0D01*
G01*
X156380500Y-136713000D01*
G75*
G02*
X156528000Y-136860500I0J-147500D01*
G01*
G37*
G36*
G01*
X157498000Y-136860500D02*
X157498000Y-137205500D01*
G75*
G02*
X157350500Y-137353000I-147500J0D01*
G01*
X157055500Y-137353000D01*
G75*
G02*
X156908000Y-137205500I0J147500D01*
G01*
X156908000Y-136860500D01*
G75*
G02*
X157055500Y-136713000I147500J0D01*
G01*
X157350500Y-136713000D01*
G75*
G02*
X157498000Y-136860500I0J-147500D01*
G01*
G37*
%TD*%
D15*
%TO.C,J301*%
X126010000Y-133200000D03*
X126010000Y-132400000D03*
X126010000Y-133200000D03*
X126010000Y-132400000D03*
X126010000Y-126800000D03*
X126010000Y-126800000D03*
X126010000Y-127600000D03*
X126010000Y-127600000D03*
D16*
X126010000Y-131750000D03*
X126010000Y-130750000D03*
X126010000Y-131250000D03*
X126010000Y-128750000D03*
X126010000Y-128250000D03*
X126010000Y-130250000D03*
X126010000Y-129750000D03*
X126010000Y-129250000D03*
%TD*%
D17*
%TO.C,J201*%
X164050000Y-127460000D03*
X167950000Y-127460000D03*
X164050000Y-128730000D03*
X167950000Y-128730000D03*
X164050000Y-130000000D03*
X167950000Y-130000000D03*
X164050000Y-131270000D03*
X167950000Y-131270000D03*
X164050000Y-132540000D03*
X167950000Y-132540000D03*
%TD*%
%TO.C,D304*%
G36*
G01*
X140443750Y-122050000D02*
X140956250Y-122050000D01*
G75*
G02*
X141175000Y-122268750I0J-218750D01*
G01*
X141175000Y-122706250D01*
G75*
G02*
X140956250Y-122925000I-218750J0D01*
G01*
X140443750Y-122925000D01*
G75*
G02*
X140225000Y-122706250I0J218750D01*
G01*
X140225000Y-122268750D01*
G75*
G02*
X140443750Y-122050000I218750J0D01*
G01*
G37*
G36*
G01*
X140443750Y-120475000D02*
X140956250Y-120475000D01*
G75*
G02*
X141175000Y-120693750I0J-218750D01*
G01*
X141175000Y-121131250D01*
G75*
G02*
X140956250Y-121350000I-218750J0D01*
G01*
X140443750Y-121350000D01*
G75*
G02*
X140225000Y-121131250I0J218750D01*
G01*
X140225000Y-120693750D01*
G75*
G02*
X140443750Y-120475000I218750J0D01*
G01*
G37*
%TD*%
%TO.C,D303*%
G36*
G01*
X143443750Y-122050000D02*
X143956250Y-122050000D01*
G75*
G02*
X144175000Y-122268750I0J-218750D01*
G01*
X144175000Y-122706250D01*
G75*
G02*
X143956250Y-122925000I-218750J0D01*
G01*
X143443750Y-122925000D01*
G75*
G02*
X143225000Y-122706250I0J218750D01*
G01*
X143225000Y-122268750D01*
G75*
G02*
X143443750Y-122050000I218750J0D01*
G01*
G37*
G36*
G01*
X143443750Y-120475000D02*
X143956250Y-120475000D01*
G75*
G02*
X144175000Y-120693750I0J-218750D01*
G01*
X144175000Y-121131250D01*
G75*
G02*
X143956250Y-121350000I-218750J0D01*
G01*
X143443750Y-121350000D01*
G75*
G02*
X143225000Y-121131250I0J218750D01*
G01*
X143225000Y-120693750D01*
G75*
G02*
X143443750Y-120475000I218750J0D01*
G01*
G37*
%TD*%
%TO.C,D302*%
G36*
G01*
X146443750Y-122050000D02*
X146956250Y-122050000D01*
G75*
G02*
X147175000Y-122268750I0J-218750D01*
G01*
X147175000Y-122706250D01*
G75*
G02*
X146956250Y-122925000I-218750J0D01*
G01*
X146443750Y-122925000D01*
G75*
G02*
X146225000Y-122706250I0J218750D01*
G01*
X146225000Y-122268750D01*
G75*
G02*
X146443750Y-122050000I218750J0D01*
G01*
G37*
G36*
G01*
X146443750Y-120475000D02*
X146956250Y-120475000D01*
G75*
G02*
X147175000Y-120693750I0J-218750D01*
G01*
X147175000Y-121131250D01*
G75*
G02*
X146956250Y-121350000I-218750J0D01*
G01*
X146443750Y-121350000D01*
G75*
G02*
X146225000Y-121131250I0J218750D01*
G01*
X146225000Y-120693750D01*
G75*
G02*
X146443750Y-120475000I218750J0D01*
G01*
G37*
%TD*%
%TO.C,D301*%
G36*
G01*
X137443750Y-122050000D02*
X137956250Y-122050000D01*
G75*
G02*
X138175000Y-122268750I0J-218750D01*
G01*
X138175000Y-122706250D01*
G75*
G02*
X137956250Y-122925000I-218750J0D01*
G01*
X137443750Y-122925000D01*
G75*
G02*
X137225000Y-122706250I0J218750D01*
G01*
X137225000Y-122268750D01*
G75*
G02*
X137443750Y-122050000I218750J0D01*
G01*
G37*
G36*
G01*
X137443750Y-120475000D02*
X137956250Y-120475000D01*
G75*
G02*
X138175000Y-120693750I0J-218750D01*
G01*
X138175000Y-121131250D01*
G75*
G02*
X137956250Y-121350000I-218750J0D01*
G01*
X137443750Y-121350000D01*
G75*
G02*
X137225000Y-121131250I0J218750D01*
G01*
X137225000Y-120693750D01*
G75*
G02*
X137443750Y-120475000I218750J0D01*
G01*
G37*
%TD*%
%TO.C,C309*%
G36*
G01*
X148381500Y-124143000D02*
X148036500Y-124143000D01*
G75*
G02*
X147889000Y-123995500I0J147500D01*
G01*
X147889000Y-123700500D01*
G75*
G02*
X148036500Y-123553000I147500J0D01*
G01*
X148381500Y-123553000D01*
G75*
G02*
X148529000Y-123700500I0J-147500D01*
G01*
X148529000Y-123995500D01*
G75*
G02*
X148381500Y-124143000I-147500J0D01*
G01*
G37*
G36*
G01*
X148381500Y-125113000D02*
X148036500Y-125113000D01*
G75*
G02*
X147889000Y-124965500I0J147500D01*
G01*
X147889000Y-124670500D01*
G75*
G02*
X148036500Y-124523000I147500J0D01*
G01*
X148381500Y-124523000D01*
G75*
G02*
X148529000Y-124670500I0J-147500D01*
G01*
X148529000Y-124965500D01*
G75*
G02*
X148381500Y-125113000I-147500J0D01*
G01*
G37*
%TD*%
%TO.C,C308*%
G36*
G01*
X151000750Y-131668000D02*
X151513250Y-131668000D01*
G75*
G02*
X151732000Y-131886750I0J-218750D01*
G01*
X151732000Y-132324250D01*
G75*
G02*
X151513250Y-132543000I-218750J0D01*
G01*
X151000750Y-132543000D01*
G75*
G02*
X150782000Y-132324250I0J218750D01*
G01*
X150782000Y-131886750D01*
G75*
G02*
X151000750Y-131668000I218750J0D01*
G01*
G37*
G36*
G01*
X151000750Y-130093000D02*
X151513250Y-130093000D01*
G75*
G02*
X151732000Y-130311750I0J-218750D01*
G01*
X151732000Y-130749250D01*
G75*
G02*
X151513250Y-130968000I-218750J0D01*
G01*
X151000750Y-130968000D01*
G75*
G02*
X150782000Y-130749250I0J218750D01*
G01*
X150782000Y-130311750D01*
G75*
G02*
X151000750Y-130093000I218750J0D01*
G01*
G37*
%TD*%
%TO.C,C307*%
G36*
G01*
X139343750Y-137510000D02*
X139856250Y-137510000D01*
G75*
G02*
X140075000Y-137728750I0J-218750D01*
G01*
X140075000Y-138166250D01*
G75*
G02*
X139856250Y-138385000I-218750J0D01*
G01*
X139343750Y-138385000D01*
G75*
G02*
X139125000Y-138166250I0J218750D01*
G01*
X139125000Y-137728750D01*
G75*
G02*
X139343750Y-137510000I218750J0D01*
G01*
G37*
G36*
G01*
X139343750Y-135935000D02*
X139856250Y-135935000D01*
G75*
G02*
X140075000Y-136153750I0J-218750D01*
G01*
X140075000Y-136591250D01*
G75*
G02*
X139856250Y-136810000I-218750J0D01*
G01*
X139343750Y-136810000D01*
G75*
G02*
X139125000Y-136591250I0J218750D01*
G01*
X139125000Y-136153750D01*
G75*
G02*
X139343750Y-135935000I218750J0D01*
G01*
G37*
%TD*%
%TO.C,C306*%
G36*
G01*
X147147500Y-137350000D02*
X147492500Y-137350000D01*
G75*
G02*
X147640000Y-137497500I0J-147500D01*
G01*
X147640000Y-137792500D01*
G75*
G02*
X147492500Y-137940000I-147500J0D01*
G01*
X147147500Y-137940000D01*
G75*
G02*
X147000000Y-137792500I0J147500D01*
G01*
X147000000Y-137497500D01*
G75*
G02*
X147147500Y-137350000I147500J0D01*
G01*
G37*
G36*
G01*
X147147500Y-136380000D02*
X147492500Y-136380000D01*
G75*
G02*
X147640000Y-136527500I0J-147500D01*
G01*
X147640000Y-136822500D01*
G75*
G02*
X147492500Y-136970000I-147500J0D01*
G01*
X147147500Y-136970000D01*
G75*
G02*
X147000000Y-136822500I0J147500D01*
G01*
X147000000Y-136527500D01*
G75*
G02*
X147147500Y-136380000I147500J0D01*
G01*
G37*
%TD*%
%TO.C,C305*%
G36*
G01*
X149814500Y-131254000D02*
X150159500Y-131254000D01*
G75*
G02*
X150307000Y-131401500I0J-147500D01*
G01*
X150307000Y-131696500D01*
G75*
G02*
X150159500Y-131844000I-147500J0D01*
G01*
X149814500Y-131844000D01*
G75*
G02*
X149667000Y-131696500I0J147500D01*
G01*
X149667000Y-131401500D01*
G75*
G02*
X149814500Y-131254000I147500J0D01*
G01*
G37*
G36*
G01*
X149814500Y-130284000D02*
X150159500Y-130284000D01*
G75*
G02*
X150307000Y-130431500I0J-147500D01*
G01*
X150307000Y-130726500D01*
G75*
G02*
X150159500Y-130874000I-147500J0D01*
G01*
X149814500Y-130874000D01*
G75*
G02*
X149667000Y-130726500I0J147500D01*
G01*
X149667000Y-130431500D01*
G75*
G02*
X149814500Y-130284000I147500J0D01*
G01*
G37*
%TD*%
%TO.C,C304*%
G36*
G01*
X141795000Y-127045500D02*
X141795000Y-126700500D01*
G75*
G02*
X141942500Y-126553000I147500J0D01*
G01*
X142237500Y-126553000D01*
G75*
G02*
X142385000Y-126700500I0J-147500D01*
G01*
X142385000Y-127045500D01*
G75*
G02*
X142237500Y-127193000I-147500J0D01*
G01*
X141942500Y-127193000D01*
G75*
G02*
X141795000Y-127045500I0J147500D01*
G01*
G37*
G36*
G01*
X140825000Y-127045500D02*
X140825000Y-126700500D01*
G75*
G02*
X140972500Y-126553000I147500J0D01*
G01*
X141267500Y-126553000D01*
G75*
G02*
X141415000Y-126700500I0J-147500D01*
G01*
X141415000Y-127045500D01*
G75*
G02*
X141267500Y-127193000I-147500J0D01*
G01*
X140972500Y-127193000D01*
G75*
G02*
X140825000Y-127045500I0J147500D01*
G01*
G37*
%TD*%
%TO.C,C303*%
G36*
G01*
X148163500Y-137350000D02*
X148508500Y-137350000D01*
G75*
G02*
X148656000Y-137497500I0J-147500D01*
G01*
X148656000Y-137792500D01*
G75*
G02*
X148508500Y-137940000I-147500J0D01*
G01*
X148163500Y-137940000D01*
G75*
G02*
X148016000Y-137792500I0J147500D01*
G01*
X148016000Y-137497500D01*
G75*
G02*
X148163500Y-137350000I147500J0D01*
G01*
G37*
G36*
G01*
X148163500Y-136380000D02*
X148508500Y-136380000D01*
G75*
G02*
X148656000Y-136527500I0J-147500D01*
G01*
X148656000Y-136822500D01*
G75*
G02*
X148508500Y-136970000I-147500J0D01*
G01*
X148163500Y-136970000D01*
G75*
G02*
X148016000Y-136822500I0J147500D01*
G01*
X148016000Y-136527500D01*
G75*
G02*
X148163500Y-136380000I147500J0D01*
G01*
G37*
%TD*%
%TO.C,C302*%
G36*
G01*
X139002000Y-134955500D02*
X139002000Y-135300500D01*
G75*
G02*
X138854500Y-135448000I-147500J0D01*
G01*
X138559500Y-135448000D01*
G75*
G02*
X138412000Y-135300500I0J147500D01*
G01*
X138412000Y-134955500D01*
G75*
G02*
X138559500Y-134808000I147500J0D01*
G01*
X138854500Y-134808000D01*
G75*
G02*
X139002000Y-134955500I0J-147500D01*
G01*
G37*
G36*
G01*
X139972000Y-134955500D02*
X139972000Y-135300500D01*
G75*
G02*
X139824500Y-135448000I-147500J0D01*
G01*
X139529500Y-135448000D01*
G75*
G02*
X139382000Y-135300500I0J147500D01*
G01*
X139382000Y-134955500D01*
G75*
G02*
X139529500Y-134808000I147500J0D01*
G01*
X139824500Y-134808000D01*
G75*
G02*
X139972000Y-134955500I0J-147500D01*
G01*
G37*
%TD*%
%TO.C,C301*%
G36*
G01*
X142572500Y-138443200D02*
X142227500Y-138443200D01*
G75*
G02*
X142080000Y-138295700I0J147500D01*
G01*
X142080000Y-138000700D01*
G75*
G02*
X142227500Y-137853200I147500J0D01*
G01*
X142572500Y-137853200D01*
G75*
G02*
X142720000Y-138000700I0J-147500D01*
G01*
X142720000Y-138295700D01*
G75*
G02*
X142572500Y-138443200I-147500J0D01*
G01*
G37*
G36*
G01*
X142572500Y-139413200D02*
X142227500Y-139413200D01*
G75*
G02*
X142080000Y-139265700I0J147500D01*
G01*
X142080000Y-138970700D01*
G75*
G02*
X142227500Y-138823200I147500J0D01*
G01*
X142572500Y-138823200D01*
G75*
G02*
X142720000Y-138970700I0J-147500D01*
G01*
X142720000Y-139265700D01*
G75*
G02*
X142572500Y-139413200I-147500J0D01*
G01*
G37*
%TD*%
%TO.C,C208*%
G36*
G01*
X158051000Y-129458500D02*
X158051000Y-129113500D01*
G75*
G02*
X158198500Y-128966000I147500J0D01*
G01*
X158493500Y-128966000D01*
G75*
G02*
X158641000Y-129113500I0J-147500D01*
G01*
X158641000Y-129458500D01*
G75*
G02*
X158493500Y-129606000I-147500J0D01*
G01*
X158198500Y-129606000D01*
G75*
G02*
X158051000Y-129458500I0J147500D01*
G01*
G37*
G36*
G01*
X157081000Y-129458500D02*
X157081000Y-129113500D01*
G75*
G02*
X157228500Y-128966000I147500J0D01*
G01*
X157523500Y-128966000D01*
G75*
G02*
X157671000Y-129113500I0J-147500D01*
G01*
X157671000Y-129458500D01*
G75*
G02*
X157523500Y-129606000I-147500J0D01*
G01*
X157228500Y-129606000D01*
G75*
G02*
X157081000Y-129458500I0J147500D01*
G01*
G37*
%TD*%
%TO.C,C207*%
G36*
G01*
X155258000Y-129113500D02*
X155258000Y-129458500D01*
G75*
G02*
X155110500Y-129606000I-147500J0D01*
G01*
X154815500Y-129606000D01*
G75*
G02*
X154668000Y-129458500I0J147500D01*
G01*
X154668000Y-129113500D01*
G75*
G02*
X154815500Y-128966000I147500J0D01*
G01*
X155110500Y-128966000D01*
G75*
G02*
X155258000Y-129113500I0J-147500D01*
G01*
G37*
G36*
G01*
X156228000Y-129113500D02*
X156228000Y-129458500D01*
G75*
G02*
X156080500Y-129606000I-147500J0D01*
G01*
X155785500Y-129606000D01*
G75*
G02*
X155638000Y-129458500I0J147500D01*
G01*
X155638000Y-129113500D01*
G75*
G02*
X155785500Y-128966000I147500J0D01*
G01*
X156080500Y-128966000D01*
G75*
G02*
X156228000Y-129113500I0J-147500D01*
G01*
G37*
%TD*%
%TO.C,C206*%
G36*
G01*
X158051000Y-125394500D02*
X158051000Y-125049500D01*
G75*
G02*
X158198500Y-124902000I147500J0D01*
G01*
X158493500Y-124902000D01*
G75*
G02*
X158641000Y-125049500I0J-147500D01*
G01*
X158641000Y-125394500D01*
G75*
G02*
X158493500Y-125542000I-147500J0D01*
G01*
X158198500Y-125542000D01*
G75*
G02*
X158051000Y-125394500I0J147500D01*
G01*
G37*
G36*
G01*
X157081000Y-125394500D02*
X157081000Y-125049500D01*
G75*
G02*
X157228500Y-124902000I147500J0D01*
G01*
X157523500Y-124902000D01*
G75*
G02*
X157671000Y-125049500I0J-147500D01*
G01*
X157671000Y-125394500D01*
G75*
G02*
X157523500Y-125542000I-147500J0D01*
G01*
X157228500Y-125542000D01*
G75*
G02*
X157081000Y-125394500I0J147500D01*
G01*
G37*
%TD*%
%TO.C,C205*%
G36*
G01*
X155258000Y-125049500D02*
X155258000Y-125394500D01*
G75*
G02*
X155110500Y-125542000I-147500J0D01*
G01*
X154815500Y-125542000D01*
G75*
G02*
X154668000Y-125394500I0J147500D01*
G01*
X154668000Y-125049500D01*
G75*
G02*
X154815500Y-124902000I147500J0D01*
G01*
X155110500Y-124902000D01*
G75*
G02*
X155258000Y-125049500I0J-147500D01*
G01*
G37*
G36*
G01*
X156228000Y-125049500D02*
X156228000Y-125394500D01*
G75*
G02*
X156080500Y-125542000I-147500J0D01*
G01*
X155785500Y-125542000D01*
G75*
G02*
X155638000Y-125394500I0J147500D01*
G01*
X155638000Y-125049500D01*
G75*
G02*
X155785500Y-124902000I147500J0D01*
G01*
X156080500Y-124902000D01*
G75*
G02*
X156228000Y-125049500I0J-147500D01*
G01*
G37*
%TD*%
%TO.C,C204*%
G36*
G01*
X158051000Y-133522500D02*
X158051000Y-133177500D01*
G75*
G02*
X158198500Y-133030000I147500J0D01*
G01*
X158493500Y-133030000D01*
G75*
G02*
X158641000Y-133177500I0J-147500D01*
G01*
X158641000Y-133522500D01*
G75*
G02*
X158493500Y-133670000I-147500J0D01*
G01*
X158198500Y-133670000D01*
G75*
G02*
X158051000Y-133522500I0J147500D01*
G01*
G37*
G36*
G01*
X157081000Y-133522500D02*
X157081000Y-133177500D01*
G75*
G02*
X157228500Y-133030000I147500J0D01*
G01*
X157523500Y-133030000D01*
G75*
G02*
X157671000Y-133177500I0J-147500D01*
G01*
X157671000Y-133522500D01*
G75*
G02*
X157523500Y-133670000I-147500J0D01*
G01*
X157228500Y-133670000D01*
G75*
G02*
X157081000Y-133522500I0J147500D01*
G01*
G37*
%TD*%
%TO.C,C203*%
G36*
G01*
X155638000Y-133522500D02*
X155638000Y-133177500D01*
G75*
G02*
X155785500Y-133030000I147500J0D01*
G01*
X156080500Y-133030000D01*
G75*
G02*
X156228000Y-133177500I0J-147500D01*
G01*
X156228000Y-133522500D01*
G75*
G02*
X156080500Y-133670000I-147500J0D01*
G01*
X155785500Y-133670000D01*
G75*
G02*
X155638000Y-133522500I0J147500D01*
G01*
G37*
G36*
G01*
X154668000Y-133522500D02*
X154668000Y-133177500D01*
G75*
G02*
X154815500Y-133030000I147500J0D01*
G01*
X155110500Y-133030000D01*
G75*
G02*
X155258000Y-133177500I0J-147500D01*
G01*
X155258000Y-133522500D01*
G75*
G02*
X155110500Y-133670000I-147500J0D01*
G01*
X154815500Y-133670000D01*
G75*
G02*
X154668000Y-133522500I0J147500D01*
G01*
G37*
%TD*%
%TO.C,C202*%
G36*
G01*
X158051000Y-121330500D02*
X158051000Y-120985500D01*
G75*
G02*
X158198500Y-120838000I147500J0D01*
G01*
X158493500Y-120838000D01*
G75*
G02*
X158641000Y-120985500I0J-147500D01*
G01*
X158641000Y-121330500D01*
G75*
G02*
X158493500Y-121478000I-147500J0D01*
G01*
X158198500Y-121478000D01*
G75*
G02*
X158051000Y-121330500I0J147500D01*
G01*
G37*
G36*
G01*
X157081000Y-121330500D02*
X157081000Y-120985500D01*
G75*
G02*
X157228500Y-120838000I147500J0D01*
G01*
X157523500Y-120838000D01*
G75*
G02*
X157671000Y-120985500I0J-147500D01*
G01*
X157671000Y-121330500D01*
G75*
G02*
X157523500Y-121478000I-147500J0D01*
G01*
X157228500Y-121478000D01*
G75*
G02*
X157081000Y-121330500I0J147500D01*
G01*
G37*
%TD*%
%TO.C,C201*%
G36*
G01*
X155258000Y-120985500D02*
X155258000Y-121330500D01*
G75*
G02*
X155110500Y-121478000I-147500J0D01*
G01*
X154815500Y-121478000D01*
G75*
G02*
X154668000Y-121330500I0J147500D01*
G01*
X154668000Y-120985500D01*
G75*
G02*
X154815500Y-120838000I147500J0D01*
G01*
X155110500Y-120838000D01*
G75*
G02*
X155258000Y-120985500I0J-147500D01*
G01*
G37*
G36*
G01*
X156228000Y-120985500D02*
X156228000Y-121330500D01*
G75*
G02*
X156080500Y-121478000I-147500J0D01*
G01*
X155785500Y-121478000D01*
G75*
G02*
X155638000Y-121330500I0J147500D01*
G01*
X155638000Y-120985500D01*
G75*
G02*
X155785500Y-120838000I147500J0D01*
G01*
X156080500Y-120838000D01*
G75*
G02*
X156228000Y-120985500I0J-147500D01*
G01*
G37*
%TD*%
%TO.C,C103*%
G36*
G01*
X135643750Y-124750000D02*
X136156250Y-124750000D01*
G75*
G02*
X136375000Y-124968750I0J-218750D01*
G01*
X136375000Y-125406250D01*
G75*
G02*
X136156250Y-125625000I-218750J0D01*
G01*
X135643750Y-125625000D01*
G75*
G02*
X135425000Y-125406250I0J218750D01*
G01*
X135425000Y-124968750D01*
G75*
G02*
X135643750Y-124750000I218750J0D01*
G01*
G37*
G36*
G01*
X135643750Y-123175000D02*
X136156250Y-123175000D01*
G75*
G02*
X136375000Y-123393750I0J-218750D01*
G01*
X136375000Y-123831250D01*
G75*
G02*
X136156250Y-124050000I-218750J0D01*
G01*
X135643750Y-124050000D01*
G75*
G02*
X135425000Y-123831250I0J218750D01*
G01*
X135425000Y-123393750D01*
G75*
G02*
X135643750Y-123175000I218750J0D01*
G01*
G37*
%TD*%
%TO.C,C102*%
G36*
G01*
X133050800Y-124813350D02*
X133050800Y-125325850D01*
G75*
G02*
X132832050Y-125544600I-218750J0D01*
G01*
X132394550Y-125544600D01*
G75*
G02*
X132175800Y-125325850I0J218750D01*
G01*
X132175800Y-124813350D01*
G75*
G02*
X132394550Y-124594600I218750J0D01*
G01*
X132832050Y-124594600D01*
G75*
G02*
X133050800Y-124813350I0J-218750D01*
G01*
G37*
G36*
G01*
X134625800Y-124813350D02*
X134625800Y-125325850D01*
G75*
G02*
X134407050Y-125544600I-218750J0D01*
G01*
X133969550Y-125544600D01*
G75*
G02*
X133750800Y-125325850I0J218750D01*
G01*
X133750800Y-124813350D01*
G75*
G02*
X133969550Y-124594600I218750J0D01*
G01*
X134407050Y-124594600D01*
G75*
G02*
X134625800Y-124813350I0J-218750D01*
G01*
G37*
%TD*%
%TO.C,C101*%
G36*
G01*
X129791750Y-122651000D02*
X130304250Y-122651000D01*
G75*
G02*
X130523000Y-122869750I0J-218750D01*
G01*
X130523000Y-123307250D01*
G75*
G02*
X130304250Y-123526000I-218750J0D01*
G01*
X129791750Y-123526000D01*
G75*
G02*
X129573000Y-123307250I0J218750D01*
G01*
X129573000Y-122869750D01*
G75*
G02*
X129791750Y-122651000I218750J0D01*
G01*
G37*
G36*
G01*
X129791750Y-121076000D02*
X130304250Y-121076000D01*
G75*
G02*
X130523000Y-121294750I0J-218750D01*
G01*
X130523000Y-121732250D01*
G75*
G02*
X130304250Y-121951000I-218750J0D01*
G01*
X129791750Y-121951000D01*
G75*
G02*
X129573000Y-121732250I0J218750D01*
G01*
X129573000Y-121294750D01*
G75*
G02*
X129791750Y-121076000I218750J0D01*
G01*
G37*
%TD*%
M02*
