%TF.GenerationSoftware,KiCad,Pcbnew,(5.1.6-rc1)*%
%TF.CreationDate,2020-08-04T22:03:53+02:00*%
%TF.ProjectId,bmp22,626d7032-322e-46b6-9963-61645f706362,rev?*%
%TF.SameCoordinates,Original*%
%TF.FileFunction,Legend,Bot*%
%TF.FilePolarity,Positive*%
%FSLAX46Y46*%
G04 Gerber Fmt 4.6, Leading zero omitted, Abs format (unit mm)*
G04 Created by KiCad (PCBNEW (5.1.6-rc1)) date 2020-08-04 22:03:53*
%MOMM*%
%LPD*%
G01*
G04 APERTURE LIST*
%ADD10C,0.150000*%
%ADD11C,0.120000*%
G04 APERTURE END LIST*
D10*
X141325000Y-139553904D02*
X141325000Y-138753904D01*
X141325000Y-139058666D02*
X141248809Y-139020571D01*
X141096428Y-139020571D01*
X141020238Y-139058666D01*
X140982142Y-139096761D01*
X140944047Y-139172952D01*
X140944047Y-139401523D01*
X140982142Y-139477714D01*
X141020238Y-139515809D01*
X141096428Y-139553904D01*
X141248809Y-139553904D01*
X141325000Y-139515809D01*
X140677380Y-139020571D02*
X140486904Y-139553904D01*
X140296428Y-139020571D02*
X140486904Y-139553904D01*
X140563095Y-139744380D01*
X140601190Y-139782476D01*
X140677380Y-139820571D01*
X138925000Y-139553904D02*
X139191666Y-139172952D01*
X139382142Y-139553904D02*
X139382142Y-138753904D01*
X139077380Y-138753904D01*
X139001190Y-138792000D01*
X138963095Y-138830095D01*
X138925000Y-138906285D01*
X138925000Y-139020571D01*
X138963095Y-139096761D01*
X139001190Y-139134857D01*
X139077380Y-139172952D01*
X139382142Y-139172952D01*
X138582142Y-139553904D02*
X138582142Y-139020571D01*
X138582142Y-138753904D02*
X138620238Y-138792000D01*
X138582142Y-138830095D01*
X138544047Y-138792000D01*
X138582142Y-138753904D01*
X138582142Y-138830095D01*
X137858333Y-139515809D02*
X137934523Y-139553904D01*
X138086904Y-139553904D01*
X138163095Y-139515809D01*
X138201190Y-139477714D01*
X138239285Y-139401523D01*
X138239285Y-139172952D01*
X138201190Y-139096761D01*
X138163095Y-139058666D01*
X138086904Y-139020571D01*
X137934523Y-139020571D01*
X137858333Y-139058666D01*
X137401190Y-139553904D02*
X137477380Y-139515809D01*
X137515476Y-139477714D01*
X137553571Y-139401523D01*
X137553571Y-139172952D01*
X137515476Y-139096761D01*
X137477380Y-139058666D01*
X137401190Y-139020571D01*
X137286904Y-139020571D01*
X137210714Y-139058666D01*
X137172619Y-139096761D01*
X137134523Y-139172952D01*
X137134523Y-139401523D01*
X137172619Y-139477714D01*
X137210714Y-139515809D01*
X137286904Y-139553904D01*
X137401190Y-139553904D01*
X135534523Y-139553904D02*
X135572619Y-139553904D01*
X135648809Y-139515809D01*
X135763095Y-139401523D01*
X135953571Y-139172952D01*
X136029761Y-139058666D01*
X136067857Y-138944380D01*
X136067857Y-138868190D01*
X136029761Y-138792000D01*
X135953571Y-138753904D01*
X135915476Y-138753904D01*
X135839285Y-138792000D01*
X135801190Y-138868190D01*
X135801190Y-138906285D01*
X135839285Y-138982476D01*
X135877380Y-139020571D01*
X136105952Y-139172952D01*
X136144047Y-139211047D01*
X136182142Y-139287238D01*
X136182142Y-139401523D01*
X136144047Y-139477714D01*
X136105952Y-139515809D01*
X136029761Y-139553904D01*
X135915476Y-139553904D01*
X135839285Y-139515809D01*
X135801190Y-139477714D01*
X135686904Y-139325333D01*
X135648809Y-139211047D01*
X135648809Y-139134857D01*
X134582142Y-139553904D02*
X134582142Y-138753904D01*
X134391666Y-138753904D01*
X134277380Y-138792000D01*
X134201190Y-138868190D01*
X134163095Y-138944380D01*
X134125000Y-139096761D01*
X134125000Y-139211047D01*
X134163095Y-139363428D01*
X134201190Y-139439619D01*
X134277380Y-139515809D01*
X134391666Y-139553904D01*
X134582142Y-139553904D01*
X133439285Y-139553904D02*
X133439285Y-139134857D01*
X133477380Y-139058666D01*
X133553571Y-139020571D01*
X133705952Y-139020571D01*
X133782142Y-139058666D01*
X133439285Y-139515809D02*
X133515476Y-139553904D01*
X133705952Y-139553904D01*
X133782142Y-139515809D01*
X133820238Y-139439619D01*
X133820238Y-139363428D01*
X133782142Y-139287238D01*
X133705952Y-139249142D01*
X133515476Y-139249142D01*
X133439285Y-139211047D01*
X133134523Y-139020571D02*
X132944047Y-139553904D01*
X132753571Y-139020571D01*
X132448809Y-139553904D02*
X132448809Y-139020571D01*
X132448809Y-138753904D02*
X132486904Y-138792000D01*
X132448809Y-138830095D01*
X132410714Y-138792000D01*
X132448809Y-138753904D01*
X132448809Y-138830095D01*
X131725000Y-139553904D02*
X131725000Y-138753904D01*
X131725000Y-139515809D02*
X131801190Y-139553904D01*
X131953571Y-139553904D01*
X132029761Y-139515809D01*
X132067857Y-139477714D01*
X132105952Y-139401523D01*
X132105952Y-139172952D01*
X132067857Y-139096761D01*
X132029761Y-139058666D01*
X131953571Y-139020571D01*
X131801190Y-139020571D01*
X131725000Y-139058666D01*
X141007738Y-122013357D02*
X140893452Y-122051452D01*
X140855357Y-122089547D01*
X140817261Y-122165738D01*
X140817261Y-122280023D01*
X140855357Y-122356214D01*
X140893452Y-122394309D01*
X140969642Y-122432404D01*
X141274404Y-122432404D01*
X141274404Y-121632404D01*
X141007738Y-121632404D01*
X140931547Y-121670500D01*
X140893452Y-121708595D01*
X140855357Y-121784785D01*
X140855357Y-121860976D01*
X140893452Y-121937166D01*
X140931547Y-121975261D01*
X141007738Y-122013357D01*
X141274404Y-122013357D01*
X140360119Y-122432404D02*
X140436309Y-122394309D01*
X140474404Y-122318119D01*
X140474404Y-121632404D01*
X139712500Y-122432404D02*
X139712500Y-122013357D01*
X139750595Y-121937166D01*
X139826785Y-121899071D01*
X139979166Y-121899071D01*
X140055357Y-121937166D01*
X139712500Y-122394309D02*
X139788690Y-122432404D01*
X139979166Y-122432404D01*
X140055357Y-122394309D01*
X140093452Y-122318119D01*
X140093452Y-122241928D01*
X140055357Y-122165738D01*
X139979166Y-122127642D01*
X139788690Y-122127642D01*
X139712500Y-122089547D01*
X138988690Y-122394309D02*
X139064880Y-122432404D01*
X139217261Y-122432404D01*
X139293452Y-122394309D01*
X139331547Y-122356214D01*
X139369642Y-122280023D01*
X139369642Y-122051452D01*
X139331547Y-121975261D01*
X139293452Y-121937166D01*
X139217261Y-121899071D01*
X139064880Y-121899071D01*
X138988690Y-121937166D01*
X138645833Y-122432404D02*
X138645833Y-121632404D01*
X138569642Y-122127642D02*
X138341071Y-122432404D01*
X138341071Y-121899071D02*
X138645833Y-122203833D01*
X137998214Y-122432404D02*
X137998214Y-121632404D01*
X137731547Y-122203833D01*
X137464880Y-121632404D01*
X137464880Y-122432404D01*
X136741071Y-122432404D02*
X136741071Y-122013357D01*
X136779166Y-121937166D01*
X136855357Y-121899071D01*
X137007738Y-121899071D01*
X137083928Y-121937166D01*
X136741071Y-122394309D02*
X136817261Y-122432404D01*
X137007738Y-122432404D01*
X137083928Y-122394309D01*
X137122023Y-122318119D01*
X137122023Y-122241928D01*
X137083928Y-122165738D01*
X137007738Y-122127642D01*
X136817261Y-122127642D01*
X136741071Y-122089547D01*
X136017261Y-121899071D02*
X136017261Y-122546690D01*
X136055357Y-122622880D01*
X136093452Y-122660976D01*
X136169642Y-122699071D01*
X136283928Y-122699071D01*
X136360119Y-122660976D01*
X136017261Y-122394309D02*
X136093452Y-122432404D01*
X136245833Y-122432404D01*
X136322023Y-122394309D01*
X136360119Y-122356214D01*
X136398214Y-122280023D01*
X136398214Y-122051452D01*
X136360119Y-121975261D01*
X136322023Y-121937166D01*
X136245833Y-121899071D01*
X136093452Y-121899071D01*
X136017261Y-121937166D01*
X135636309Y-122432404D02*
X135636309Y-121899071D01*
X135636309Y-121632404D02*
X135674404Y-121670500D01*
X135636309Y-121708595D01*
X135598214Y-121670500D01*
X135636309Y-121632404D01*
X135636309Y-121708595D01*
X134912500Y-122394309D02*
X134988690Y-122432404D01*
X135141071Y-122432404D01*
X135217261Y-122394309D01*
X135255357Y-122356214D01*
X135293452Y-122280023D01*
X135293452Y-122051452D01*
X135255357Y-121975261D01*
X135217261Y-121937166D01*
X135141071Y-121899071D01*
X134988690Y-121899071D01*
X134912500Y-121937166D01*
X141426785Y-123782404D02*
X141426785Y-122982404D01*
X141122023Y-122982404D01*
X141045833Y-123020500D01*
X141007738Y-123058595D01*
X140969642Y-123134785D01*
X140969642Y-123249071D01*
X141007738Y-123325261D01*
X141045833Y-123363357D01*
X141122023Y-123401452D01*
X141426785Y-123401452D01*
X140626785Y-123782404D02*
X140626785Y-123249071D01*
X140626785Y-123401452D02*
X140588690Y-123325261D01*
X140550595Y-123287166D01*
X140474404Y-123249071D01*
X140398214Y-123249071D01*
X140017261Y-123782404D02*
X140093452Y-123744309D01*
X140131547Y-123706214D01*
X140169642Y-123630023D01*
X140169642Y-123401452D01*
X140131547Y-123325261D01*
X140093452Y-123287166D01*
X140017261Y-123249071D01*
X139902976Y-123249071D01*
X139826785Y-123287166D01*
X139788690Y-123325261D01*
X139750595Y-123401452D01*
X139750595Y-123630023D01*
X139788690Y-123706214D01*
X139826785Y-123744309D01*
X139902976Y-123782404D01*
X140017261Y-123782404D01*
X139407738Y-123782404D02*
X139407738Y-122982404D01*
X139407738Y-123287166D02*
X139331547Y-123249071D01*
X139179166Y-123249071D01*
X139102976Y-123287166D01*
X139064880Y-123325261D01*
X139026785Y-123401452D01*
X139026785Y-123630023D01*
X139064880Y-123706214D01*
X139102976Y-123744309D01*
X139179166Y-123782404D01*
X139331547Y-123782404D01*
X139407738Y-123744309D01*
X138379166Y-123744309D02*
X138455357Y-123782404D01*
X138607738Y-123782404D01*
X138683928Y-123744309D01*
X138722023Y-123668119D01*
X138722023Y-123363357D01*
X138683928Y-123287166D01*
X138607738Y-123249071D01*
X138455357Y-123249071D01*
X138379166Y-123287166D01*
X138341071Y-123363357D01*
X138341071Y-123439547D01*
X138722023Y-123515738D01*
X137502976Y-122982404D02*
X137236309Y-123782404D01*
X136969642Y-122982404D01*
X136702976Y-123706214D02*
X136664880Y-123744309D01*
X136702976Y-123782404D01*
X136741071Y-123744309D01*
X136702976Y-123706214D01*
X136702976Y-123782404D01*
X136360119Y-123058595D02*
X136322023Y-123020500D01*
X136245833Y-122982404D01*
X136055357Y-122982404D01*
X135979166Y-123020500D01*
X135941071Y-123058595D01*
X135902976Y-123134785D01*
X135902976Y-123210976D01*
X135941071Y-123325261D01*
X136398214Y-123782404D01*
X135902976Y-123782404D01*
X135560119Y-123706214D02*
X135522023Y-123744309D01*
X135560119Y-123782404D01*
X135598214Y-123744309D01*
X135560119Y-123706214D01*
X135560119Y-123782404D01*
X135217261Y-123058595D02*
X135179166Y-123020500D01*
X135102976Y-122982404D01*
X134912500Y-122982404D01*
X134836309Y-123020500D01*
X134798214Y-123058595D01*
X134760119Y-123134785D01*
X134760119Y-123210976D01*
X134798214Y-123325261D01*
X135255357Y-123782404D01*
X134760119Y-123782404D01*
X158042976Y-132569000D02*
X158119166Y-132530904D01*
X158233452Y-132530904D01*
X158347738Y-132569000D01*
X158423928Y-132645190D01*
X158462023Y-132721380D01*
X158500119Y-132873761D01*
X158500119Y-132988047D01*
X158462023Y-133140428D01*
X158423928Y-133216619D01*
X158347738Y-133292809D01*
X158233452Y-133330904D01*
X158157261Y-133330904D01*
X158042976Y-133292809D01*
X158004880Y-133254714D01*
X158004880Y-132988047D01*
X158157261Y-132988047D01*
X157662023Y-133330904D02*
X157662023Y-132530904D01*
X157204880Y-133330904D01*
X157204880Y-132530904D01*
X156823928Y-133330904D02*
X156823928Y-132530904D01*
X156633452Y-132530904D01*
X156519166Y-132569000D01*
X156442976Y-132645190D01*
X156404880Y-132721380D01*
X156366785Y-132873761D01*
X156366785Y-132988047D01*
X156404880Y-133140428D01*
X156442976Y-133216619D01*
X156519166Y-133292809D01*
X156633452Y-133330904D01*
X156823928Y-133330904D01*
X158576309Y-128720904D02*
X158119166Y-128720904D01*
X158347738Y-129520904D02*
X158347738Y-128720904D01*
X157928690Y-128720904D02*
X157395357Y-129520904D01*
X157395357Y-128720904D02*
X157928690Y-129520904D01*
X157090595Y-129520904D02*
X157090595Y-128720904D01*
X156900119Y-128720904D01*
X156785833Y-128759000D01*
X156709642Y-128835190D01*
X156671547Y-128911380D01*
X156633452Y-129063761D01*
X156633452Y-129178047D01*
X156671547Y-129330428D01*
X156709642Y-129406619D01*
X156785833Y-129482809D01*
X156900119Y-129520904D01*
X157090595Y-129520904D01*
X158004880Y-131425904D02*
X158271547Y-131044952D01*
X158462023Y-131425904D02*
X158462023Y-130625904D01*
X158157261Y-130625904D01*
X158081071Y-130664000D01*
X158042976Y-130702095D01*
X158004880Y-130778285D01*
X158004880Y-130892571D01*
X158042976Y-130968761D01*
X158081071Y-131006857D01*
X158157261Y-131044952D01*
X158462023Y-131044952D01*
X157738214Y-130625904D02*
X157204880Y-131425904D01*
X157204880Y-130625904D02*
X157738214Y-131425904D01*
X156900119Y-131425904D02*
X156900119Y-130625904D01*
X156709642Y-130625904D01*
X156595357Y-130664000D01*
X156519166Y-130740190D01*
X156481071Y-130816380D01*
X156442976Y-130968761D01*
X156442976Y-131083047D01*
X156481071Y-131235428D01*
X156519166Y-131311619D01*
X156595357Y-131387809D01*
X156709642Y-131425904D01*
X156900119Y-131425904D01*
X158576309Y-126688904D02*
X158119166Y-126688904D01*
X158347738Y-127488904D02*
X158347738Y-126688904D01*
X157852500Y-127488904D02*
X157852500Y-126688904D01*
X157547738Y-126688904D01*
X157471547Y-126727000D01*
X157433452Y-126765095D01*
X157395357Y-126841285D01*
X157395357Y-126955571D01*
X157433452Y-127031761D01*
X157471547Y-127069857D01*
X157547738Y-127107952D01*
X157852500Y-127107952D01*
X157128690Y-126688904D02*
X156938214Y-127488904D01*
X156785833Y-126917476D01*
X156633452Y-127488904D01*
X156442976Y-126688904D01*
X155681071Y-127488904D02*
X155947738Y-127107952D01*
X156138214Y-127488904D02*
X156138214Y-126688904D01*
X155833452Y-126688904D01*
X155757261Y-126727000D01*
X155719166Y-126765095D01*
X155681071Y-126841285D01*
X155681071Y-126955571D01*
X155719166Y-127031761D01*
X155757261Y-127069857D01*
X155833452Y-127107952D01*
X156138214Y-127107952D01*
D11*
%TO.C,TP309*%
X141950000Y-134000000D02*
G75*
G03*
X141950000Y-134000000I-950000J0D01*
G01*
%TO.C,TP308*%
X135450000Y-134500000D02*
G75*
G03*
X135450000Y-134500000I-950000J0D01*
G01*
%TO.C,TP307*%
X132950000Y-134500000D02*
G75*
G03*
X132950000Y-134500000I-950000J0D01*
G01*
%TO.C,TP306*%
X130450000Y-134500000D02*
G75*
G03*
X130450000Y-134500000I-950000J0D01*
G01*
%TO.C,TP305*%
X129450000Y-124000000D02*
G75*
G03*
X129450000Y-124000000I-950000J0D01*
G01*
%TO.C,TP304*%
X122950000Y-131500000D02*
G75*
G03*
X122950000Y-131500000I-950000J0D01*
G01*
%TO.C,TP303*%
X122950000Y-129000000D02*
G75*
G03*
X122950000Y-129000000I-950000J0D01*
G01*
%TO.C,TP302*%
X129450000Y-121500000D02*
G75*
G03*
X129450000Y-121500000I-950000J0D01*
G01*
%TO.C,TP301*%
X137950000Y-134500000D02*
G75*
G03*
X137950000Y-134500000I-950000J0D01*
G01*
%TO.C,J202*%
X165940000Y-123940000D02*
X161690000Y-123940000D01*
X161690000Y-123940000D02*
X161690000Y-124960000D01*
X161690000Y-124960000D02*
X163290000Y-124960000D01*
X163290000Y-124960000D02*
X163290000Y-126240000D01*
X163290000Y-126240000D02*
X160400000Y-126240000D01*
X165940000Y-136060000D02*
X161690000Y-136060000D01*
X161690000Y-136060000D02*
X161690000Y-135040000D01*
X161690000Y-135040000D02*
X163290000Y-135040000D01*
X163290000Y-135040000D02*
X163290000Y-133760000D01*
X169510000Y-125660000D02*
X169510000Y-134340000D01*
%TO.C,TP309*%
D10*
X140570000Y-130915928D02*
X140531904Y-130839738D01*
X140531904Y-130725452D01*
X140570000Y-130611166D01*
X140646190Y-130534976D01*
X140722380Y-130496880D01*
X140874761Y-130458785D01*
X140989047Y-130458785D01*
X141141428Y-130496880D01*
X141217619Y-130534976D01*
X141293809Y-130611166D01*
X141331904Y-130725452D01*
X141331904Y-130801642D01*
X141293809Y-130915928D01*
X141255714Y-130954023D01*
X140989047Y-130954023D01*
X140989047Y-130801642D01*
X141331904Y-131296880D02*
X140531904Y-131296880D01*
X141331904Y-131754023D01*
X140531904Y-131754023D01*
X141331904Y-132134976D02*
X140531904Y-132134976D01*
X140531904Y-132325452D01*
X140570000Y-132439738D01*
X140646190Y-132515928D01*
X140722380Y-132554023D01*
X140874761Y-132592119D01*
X140989047Y-132592119D01*
X141141428Y-132554023D01*
X141217619Y-132515928D01*
X141293809Y-132439738D01*
X141331904Y-132325452D01*
X141331904Y-132134976D01*
%TO.C,TP308*%
X134816809Y-129709642D02*
X134854904Y-129823928D01*
X134854904Y-130014404D01*
X134816809Y-130090595D01*
X134778714Y-130128690D01*
X134702523Y-130166785D01*
X134626333Y-130166785D01*
X134550142Y-130128690D01*
X134512047Y-130090595D01*
X134473952Y-130014404D01*
X134435857Y-129862023D01*
X134397761Y-129785833D01*
X134359666Y-129747738D01*
X134283476Y-129709642D01*
X134207285Y-129709642D01*
X134131095Y-129747738D01*
X134093000Y-129785833D01*
X134054904Y-129862023D01*
X134054904Y-130052500D01*
X134093000Y-130166785D01*
X134054904Y-130433452D02*
X134854904Y-130623928D01*
X134283476Y-130776309D01*
X134854904Y-130928690D01*
X134054904Y-131119166D01*
X134854904Y-131423928D02*
X134054904Y-131423928D01*
X134054904Y-131614404D01*
X134093000Y-131728690D01*
X134169190Y-131804880D01*
X134245380Y-131842976D01*
X134397761Y-131881071D01*
X134512047Y-131881071D01*
X134664428Y-131842976D01*
X134740619Y-131804880D01*
X134816809Y-131728690D01*
X134854904Y-131614404D01*
X134854904Y-131423928D01*
X134854904Y-132223928D02*
X134054904Y-132223928D01*
X134054904Y-132757261D02*
X134054904Y-132909642D01*
X134093000Y-132985833D01*
X134169190Y-133062023D01*
X134321571Y-133100119D01*
X134588238Y-133100119D01*
X134740619Y-133062023D01*
X134816809Y-132985833D01*
X134854904Y-132909642D01*
X134854904Y-132757261D01*
X134816809Y-132681071D01*
X134740619Y-132604880D01*
X134588238Y-132566785D01*
X134321571Y-132566785D01*
X134169190Y-132604880D01*
X134093000Y-132681071D01*
X134054904Y-132757261D01*
%TO.C,TP307*%
X132238714Y-131652500D02*
X132276809Y-131614404D01*
X132314904Y-131500119D01*
X132314904Y-131423928D01*
X132276809Y-131309642D01*
X132200619Y-131233452D01*
X132124428Y-131195357D01*
X131972047Y-131157261D01*
X131857761Y-131157261D01*
X131705380Y-131195357D01*
X131629190Y-131233452D01*
X131553000Y-131309642D01*
X131514904Y-131423928D01*
X131514904Y-131500119D01*
X131553000Y-131614404D01*
X131591095Y-131652500D01*
X132314904Y-132376309D02*
X132314904Y-131995357D01*
X131514904Y-131995357D01*
X132314904Y-132642976D02*
X131514904Y-132642976D01*
X132314904Y-133100119D02*
X131857761Y-132757261D01*
X131514904Y-133100119D02*
X131972047Y-132642976D01*
%TO.C,TP306*%
X129863809Y-130890595D02*
X129901904Y-131004880D01*
X129901904Y-131195357D01*
X129863809Y-131271547D01*
X129825714Y-131309642D01*
X129749523Y-131347738D01*
X129673333Y-131347738D01*
X129597142Y-131309642D01*
X129559047Y-131271547D01*
X129520952Y-131195357D01*
X129482857Y-131042976D01*
X129444761Y-130966785D01*
X129406666Y-130928690D01*
X129330476Y-130890595D01*
X129254285Y-130890595D01*
X129178095Y-130928690D01*
X129140000Y-130966785D01*
X129101904Y-131042976D01*
X129101904Y-131233452D01*
X129140000Y-131347738D01*
X129101904Y-131614404D02*
X129901904Y-131804880D01*
X129330476Y-131957261D01*
X129901904Y-132109642D01*
X129101904Y-132300119D01*
X129101904Y-132757261D02*
X129101904Y-132909642D01*
X129140000Y-132985833D01*
X129216190Y-133062023D01*
X129368571Y-133100119D01*
X129635238Y-133100119D01*
X129787619Y-133062023D01*
X129863809Y-132985833D01*
X129901904Y-132909642D01*
X129901904Y-132757261D01*
X129863809Y-132681071D01*
X129787619Y-132604880D01*
X129635238Y-132566785D01*
X129368571Y-132566785D01*
X129216190Y-132604880D01*
X129140000Y-132681071D01*
X129101904Y-132757261D01*
%TO.C,TP305*%
X131720071Y-123679000D02*
X131796261Y-123640904D01*
X131910547Y-123640904D01*
X132024833Y-123679000D01*
X132101023Y-123755190D01*
X132139119Y-123831380D01*
X132177214Y-123983761D01*
X132177214Y-124098047D01*
X132139119Y-124250428D01*
X132101023Y-124326619D01*
X132024833Y-124402809D01*
X131910547Y-124440904D01*
X131834357Y-124440904D01*
X131720071Y-124402809D01*
X131681976Y-124364714D01*
X131681976Y-124098047D01*
X131834357Y-124098047D01*
X131339119Y-124440904D02*
X131339119Y-123640904D01*
X130881976Y-124440904D01*
X130881976Y-123640904D01*
X130501023Y-124440904D02*
X130501023Y-123640904D01*
X130310547Y-123640904D01*
X130196261Y-123679000D01*
X130120071Y-123755190D01*
X130081976Y-123831380D01*
X130043880Y-123983761D01*
X130043880Y-124098047D01*
X130081976Y-124250428D01*
X130120071Y-124326619D01*
X130196261Y-124402809D01*
X130310547Y-124440904D01*
X130501023Y-124440904D01*
%TO.C,TP304*%
X128024023Y-131133904D02*
X128024023Y-131781523D01*
X127985928Y-131857714D01*
X127947833Y-131895809D01*
X127871642Y-131933904D01*
X127719261Y-131933904D01*
X127643071Y-131895809D01*
X127604976Y-131857714D01*
X127566880Y-131781523D01*
X127566880Y-131133904D01*
X127224023Y-131895809D02*
X127109738Y-131933904D01*
X126919261Y-131933904D01*
X126843071Y-131895809D01*
X126804976Y-131857714D01*
X126766880Y-131781523D01*
X126766880Y-131705333D01*
X126804976Y-131629142D01*
X126843071Y-131591047D01*
X126919261Y-131552952D01*
X127071642Y-131514857D01*
X127147833Y-131476761D01*
X127185928Y-131438666D01*
X127224023Y-131362476D01*
X127224023Y-131286285D01*
X127185928Y-131210095D01*
X127147833Y-131172000D01*
X127071642Y-131133904D01*
X126881166Y-131133904D01*
X126766880Y-131172000D01*
X126157357Y-131514857D02*
X126043071Y-131552952D01*
X126004976Y-131591047D01*
X125966880Y-131667238D01*
X125966880Y-131781523D01*
X126004976Y-131857714D01*
X126043071Y-131895809D01*
X126119261Y-131933904D01*
X126424023Y-131933904D01*
X126424023Y-131133904D01*
X126157357Y-131133904D01*
X126081166Y-131172000D01*
X126043071Y-131210095D01*
X126004976Y-131286285D01*
X126004976Y-131362476D01*
X126043071Y-131438666D01*
X126081166Y-131476761D01*
X126157357Y-131514857D01*
X126424023Y-131514857D01*
X125700214Y-131933904D02*
X125281166Y-131400571D01*
X125700214Y-131400571D02*
X125281166Y-131933904D01*
X124557357Y-131933904D02*
X125014500Y-131933904D01*
X124785928Y-131933904D02*
X124785928Y-131133904D01*
X124862119Y-131248190D01*
X124938309Y-131324380D01*
X125014500Y-131362476D01*
X124214500Y-131629142D02*
X123604976Y-131629142D01*
X123909738Y-131933904D02*
X123909738Y-131324380D01*
%TO.C,TP303*%
X128024023Y-128974904D02*
X128024023Y-129622523D01*
X127985928Y-129698714D01*
X127947833Y-129736809D01*
X127871642Y-129774904D01*
X127719261Y-129774904D01*
X127643071Y-129736809D01*
X127604976Y-129698714D01*
X127566880Y-129622523D01*
X127566880Y-128974904D01*
X127224023Y-129736809D02*
X127109738Y-129774904D01*
X126919261Y-129774904D01*
X126843071Y-129736809D01*
X126804976Y-129698714D01*
X126766880Y-129622523D01*
X126766880Y-129546333D01*
X126804976Y-129470142D01*
X126843071Y-129432047D01*
X126919261Y-129393952D01*
X127071642Y-129355857D01*
X127147833Y-129317761D01*
X127185928Y-129279666D01*
X127224023Y-129203476D01*
X127224023Y-129127285D01*
X127185928Y-129051095D01*
X127147833Y-129013000D01*
X127071642Y-128974904D01*
X126881166Y-128974904D01*
X126766880Y-129013000D01*
X126157357Y-129355857D02*
X126043071Y-129393952D01*
X126004976Y-129432047D01*
X125966880Y-129508238D01*
X125966880Y-129622523D01*
X126004976Y-129698714D01*
X126043071Y-129736809D01*
X126119261Y-129774904D01*
X126424023Y-129774904D01*
X126424023Y-128974904D01*
X126157357Y-128974904D01*
X126081166Y-129013000D01*
X126043071Y-129051095D01*
X126004976Y-129127285D01*
X126004976Y-129203476D01*
X126043071Y-129279666D01*
X126081166Y-129317761D01*
X126157357Y-129355857D01*
X126424023Y-129355857D01*
X125700214Y-129774904D02*
X125281166Y-129241571D01*
X125700214Y-129241571D02*
X125281166Y-129774904D01*
X124557357Y-129774904D02*
X125014500Y-129774904D01*
X124785928Y-129774904D02*
X124785928Y-128974904D01*
X124862119Y-129089190D01*
X124938309Y-129165380D01*
X125014500Y-129203476D01*
X124214500Y-129470142D02*
X123604976Y-129470142D01*
%TO.C,TP302*%
X132139119Y-121557142D02*
X131529595Y-121557142D01*
X131834357Y-121861904D02*
X131834357Y-121252380D01*
X130767690Y-121061904D02*
X131148642Y-121061904D01*
X131186738Y-121442857D01*
X131148642Y-121404761D01*
X131072452Y-121366666D01*
X130881976Y-121366666D01*
X130805785Y-121404761D01*
X130767690Y-121442857D01*
X130729595Y-121519047D01*
X130729595Y-121709523D01*
X130767690Y-121785714D01*
X130805785Y-121823809D01*
X130881976Y-121861904D01*
X131072452Y-121861904D01*
X131148642Y-121823809D01*
X131186738Y-121785714D01*
X130501023Y-121061904D02*
X130234357Y-121861904D01*
X129967690Y-121061904D01*
%TO.C,TP301*%
X136262000Y-131081071D02*
X136262000Y-131881071D01*
X137394904Y-131728690D02*
X137013952Y-131462023D01*
X137394904Y-131271547D02*
X136594904Y-131271547D01*
X136594904Y-131576309D01*
X136633000Y-131652500D01*
X136671095Y-131690595D01*
X136747285Y-131728690D01*
X136861571Y-131728690D01*
X136937761Y-131690595D01*
X136975857Y-131652500D01*
X137013952Y-131576309D01*
X137013952Y-131271547D01*
X136262000Y-131881071D02*
X136262000Y-132642976D01*
X137356809Y-132033452D02*
X137394904Y-132147738D01*
X137394904Y-132338214D01*
X137356809Y-132414404D01*
X137318714Y-132452500D01*
X137242523Y-132490595D01*
X137166333Y-132490595D01*
X137090142Y-132452500D01*
X137052047Y-132414404D01*
X137013952Y-132338214D01*
X136975857Y-132185833D01*
X136937761Y-132109642D01*
X136899666Y-132071547D01*
X136823476Y-132033452D01*
X136747285Y-132033452D01*
X136671095Y-132071547D01*
X136633000Y-132109642D01*
X136594904Y-132185833D01*
X136594904Y-132376309D01*
X136633000Y-132490595D01*
X136262000Y-132642976D02*
X136262000Y-133252500D01*
X136594904Y-132719166D02*
X136594904Y-133176309D01*
X137394904Y-132947738D02*
X136594904Y-132947738D01*
%TD*%
M02*
