M48
; DRILL file {KiCad (5.1.6-rc1)} date Tue Aug  4 22:03:57 2020
; FORMAT={-:-/ absolute / inch / decimal}
; #@! TF.CreationDate,2020-08-04T22:03:57+02:00
; #@! TF.GenerationSoftware,Kicad,Pcbnew,(5.1.6-rc1)
; #@! TF.FileFunction,Plated,1,2,PTH
FMAT,2
INCH
T1C0.0118
T2C0.0157
T3C0.0236
%
G90
G05
T1
X4.775Y-5.37
X4.85Y-5.0
X4.855Y-5.255
X4.89Y-5.08
X4.89Y-5.155
X5.0079Y-4.9528
X5.025Y-5.35
X5.025Y-5.47
X5.03Y-5.28
X5.03Y-5.42
X5.08Y-4.83
X5.09Y-4.955
X5.105Y-4.92
X5.13Y-5.075
X5.15Y-4.925
X5.165Y-5.47
X5.175Y-5.045
X5.19Y-5.356
X5.22Y-5.02
X5.2244Y-5.2008
X5.2402Y-5.3425
X5.2441Y-5.4843
X5.29Y-5.355
X5.338Y-5.2
X5.35Y-5.335
X5.38Y-5.015
X5.385Y-5.225
X5.395Y-5.13
X5.4016Y-4.9094
X5.42Y-5.335
X5.4252Y-5.4331
X5.44Y-5.115
X5.44Y-5.395
X5.4646Y-5.1969
X5.4685Y-4.7598
X5.4685Y-4.9685
X5.4882Y-4.8701
X5.4999Y-5.1988
X5.545Y-5.34
X5.5512Y-5.4055
X5.5512Y-5.437
X5.5591Y-5.0512
X5.563Y-4.9528
X5.5757Y-5.4534
X5.6401Y-5.3735
X5.6457Y-5.4606
X5.7195Y-5.371
X5.7402Y-4.7441
X5.7992Y-5.4606
X5.8325Y-4.8425
X5.84Y-5.34
X5.8425Y-4.7559
X5.8583Y-5.4508
X5.88Y-5.0375
X5.8819Y-5.374
X5.8858Y-5.4213
X5.8898Y-5.1024
X5.915Y-4.865
X5.925Y-4.77
X5.93Y-5.005
X5.9346Y-5.0733
X5.96Y-4.875
X5.9646Y-5.4409
X5.989Y-5.063
X5.995Y-5.455
X5.9961Y-5.1417
X6.005Y-4.9685
X6.01Y-5.24
X6.0157Y-4.8548
X6.0266Y-4.8129
X6.03Y-4.765
X6.0591Y-4.8543
X6.06Y-4.964
X6.06Y-5.185
X6.065Y-4.8
X6.065Y-5.0325
X6.065Y-5.09
X6.075Y-5.485
X6.08Y-5.415
X6.1102Y-4.8976
X6.1339Y-5.315
X6.1391Y-5.0617
X6.1431Y-5.2059
X6.1496Y-5.1654
X6.17Y-4.745
X6.172Y-4.93
X6.1732Y-4.86
X6.225Y-5.05
X6.23Y-5.385
X6.235Y-4.895
X6.265Y-4.945
X6.265Y-5.035
X6.265Y-5.205
X6.265Y-5.25
X6.266Y-5.09
X6.2677Y-5.1417
X6.27Y-5.36
X6.28Y-4.755
X6.295Y-5.12
X6.32Y-4.75
X6.32Y-5.04
X6.32Y-5.355
X6.3383Y-4.8903
X6.35Y-5.32
X6.355Y-4.75
X6.3683Y-4.9303
X6.39Y-4.955
X6.48Y-5.26
X6.52Y-5.17
X6.52Y-5.22
X6.5315Y-5.0197
X6.5472Y-5.1969
X6.5512Y-5.0669
X6.5709Y-4.752
X6.605Y-5.395
X6.635Y-4.97
X6.65Y-5.27
T2
X5.02Y-5.22
X5.04Y-4.998
X5.04Y-5.135
T3
G00X4.7583Y-4.948
M15
G01X4.7898Y-4.948
M16
G05
G00X4.7583Y-5.2882
M15
G01X4.7898Y-5.2882
M16
G05
G00X4.9165Y-4.948
M15
G01X4.9598Y-4.948
M16
G05
G00X4.9165Y-5.2882
M15
G01X4.9598Y-5.2882
M16
G05
T0
M30
