%TF.GenerationSoftware,KiCad,Pcbnew,(5.1.6-rc1)*%
%TF.CreationDate,2020-08-04T22:03:53+02:00*%
%TF.ProjectId,bmp22,626d7032-322e-46b6-9963-61645f706362,rev?*%
%TF.SameCoordinates,Original*%
%TF.FileFunction,Legend,Top*%
%TF.FilePolarity,Positive*%
%FSLAX46Y46*%
G04 Gerber Fmt 4.6, Leading zero omitted, Abs format (unit mm)*
G04 Created by KiCad (PCBNEW (5.1.6-rc1)) date 2020-08-04 22:03:53*
%MOMM*%
%LPD*%
G01*
G04 APERTURE LIST*
%ADD10C,0.150000*%
%ADD11C,0.120000*%
G04 APERTURE END LIST*
D10*
X168662404Y-125583833D02*
X169233833Y-125583833D01*
X169348119Y-125621928D01*
X169424309Y-125698119D01*
X169462404Y-125812404D01*
X169462404Y-125888595D01*
X168662404Y-125317166D02*
X168662404Y-124860023D01*
X169462404Y-125088595D02*
X168662404Y-125088595D01*
X169233833Y-124631452D02*
X169233833Y-124250500D01*
X169462404Y-124707642D02*
X168662404Y-124440976D01*
X169462404Y-124174309D01*
X168700500Y-123488595D02*
X168662404Y-123564785D01*
X168662404Y-123679071D01*
X168700500Y-123793357D01*
X168776690Y-123869547D01*
X168852880Y-123907642D01*
X169005261Y-123945738D01*
X169119547Y-123945738D01*
X169271928Y-123907642D01*
X169348119Y-123869547D01*
X169424309Y-123793357D01*
X169462404Y-123679071D01*
X169462404Y-123602880D01*
X169424309Y-123488595D01*
X169386214Y-123450500D01*
X169119547Y-123450500D01*
X169119547Y-123602880D01*
D11*
%TO.C,SW301*%
X135214000Y-129850000D02*
X135214000Y-129970000D01*
X135214000Y-127700000D02*
X135214000Y-128840000D01*
X135214000Y-126570000D02*
X135214000Y-126690000D01*
X139614000Y-126570000D02*
X135214000Y-126570000D01*
X139614000Y-126690000D02*
X139614000Y-126570000D01*
X139614000Y-128840000D02*
X139614000Y-127700000D01*
X139614000Y-129970000D02*
X139614000Y-129850000D01*
X135214000Y-129970000D02*
X139614000Y-129970000D01*
%TO.C,Y301*%
X149988000Y-137382000D02*
X153288000Y-137382000D01*
X153288000Y-137382000D02*
X153288000Y-133382000D01*
%TO.C,U302*%
X141391000Y-135436000D02*
X140916000Y-135436000D01*
X140916000Y-135436000D02*
X140916000Y-134961000D01*
X147661000Y-128216000D02*
X148136000Y-128216000D01*
X148136000Y-128216000D02*
X148136000Y-128691000D01*
X141391000Y-128216000D02*
X140916000Y-128216000D01*
X140916000Y-128216000D02*
X140916000Y-128691000D01*
X147661000Y-135436000D02*
X148136000Y-135436000D01*
%TO.C,U301*%
X131202000Y-128946000D02*
X129402000Y-128946000D01*
X129402000Y-132166000D02*
X131852000Y-132166000D01*
%TO.C,U204*%
X155291000Y-132264000D02*
X155291000Y-132064000D01*
X155291000Y-129964000D02*
X154891000Y-129964000D01*
X155291000Y-129864000D02*
X155291000Y-129964000D01*
X157891000Y-129864000D02*
X155291000Y-129864000D01*
X157891000Y-130064000D02*
X157891000Y-129864000D01*
X157891000Y-132264000D02*
X157891000Y-132064000D01*
X155291000Y-132264000D02*
X157891000Y-132264000D01*
%TO.C,U203*%
X155291000Y-136328000D02*
X155291000Y-136128000D01*
X155291000Y-134028000D02*
X154891000Y-134028000D01*
X155291000Y-133928000D02*
X155291000Y-134028000D01*
X157891000Y-133928000D02*
X155291000Y-133928000D01*
X157891000Y-134128000D02*
X157891000Y-133928000D01*
X157891000Y-136328000D02*
X157891000Y-136128000D01*
X155291000Y-136328000D02*
X157891000Y-136328000D01*
%TO.C,U202*%
X155291000Y-128200000D02*
X155291000Y-128000000D01*
X155291000Y-125900000D02*
X154891000Y-125900000D01*
X155291000Y-125800000D02*
X155291000Y-125900000D01*
X157891000Y-125800000D02*
X155291000Y-125800000D01*
X157891000Y-126000000D02*
X157891000Y-125800000D01*
X157891000Y-128200000D02*
X157891000Y-128000000D01*
X155291000Y-128200000D02*
X157891000Y-128200000D01*
%TO.C,U201*%
X155291000Y-124136000D02*
X155291000Y-123936000D01*
X155291000Y-121836000D02*
X154891000Y-121836000D01*
X155291000Y-121736000D02*
X155291000Y-121836000D01*
X157891000Y-121736000D02*
X155291000Y-121736000D01*
X157891000Y-121936000D02*
X157891000Y-121736000D01*
X157891000Y-124136000D02*
X157891000Y-123936000D01*
X155291000Y-124136000D02*
X157891000Y-124136000D01*
%TO.C,U101*%
X132196000Y-124038000D02*
X133996000Y-124038000D01*
X133996000Y-120818000D02*
X131546000Y-120818000D01*
%TO.C,Q203*%
X152097500Y-125741000D02*
X150797500Y-125741000D01*
X150547500Y-123941000D02*
X152097500Y-123941000D01*
%TO.C,Q201*%
X151907000Y-123201000D02*
X150607000Y-123201000D01*
X150357000Y-121401000D02*
X151907000Y-121401000D01*
%TO.C,J302*%
X136271000Y-136398000D02*
X136271000Y-137033000D01*
X135636000Y-136398000D02*
X136271000Y-136398000D01*
%TO.C,J301*%
X118660000Y-134470000D02*
X118660000Y-125530000D01*
X124170000Y-134470000D02*
X122370000Y-134470000D01*
X118660000Y-134470000D02*
X120120000Y-134470000D01*
X118660000Y-125530000D02*
X120120000Y-125530000D01*
X124170000Y-125530000D02*
X122370000Y-125530000D01*
%TO.C,J201*%
X167765000Y-133235000D02*
X164235000Y-133235000D01*
X167765000Y-126765000D02*
X164235000Y-126765000D01*
X169090000Y-133170000D02*
X167765000Y-133170000D01*
X167765000Y-133235000D02*
X167765000Y-133170000D01*
X164235000Y-133235000D02*
X164235000Y-133170000D01*
X167765000Y-126830000D02*
X167765000Y-126765000D01*
X164235000Y-126830000D02*
X164235000Y-126765000D01*
%TO.C,D304*%
X141435000Y-122500000D02*
X141435000Y-120215000D01*
X141435000Y-120215000D02*
X139965000Y-120215000D01*
X139965000Y-120215000D02*
X139965000Y-122500000D01*
%TO.C,D303*%
X144435000Y-122500000D02*
X144435000Y-120215000D01*
X144435000Y-120215000D02*
X142965000Y-120215000D01*
X142965000Y-120215000D02*
X142965000Y-122500000D01*
%TO.C,D302*%
X147435000Y-122500000D02*
X147435000Y-120215000D01*
X147435000Y-120215000D02*
X145965000Y-120215000D01*
X145965000Y-120215000D02*
X145965000Y-122500000D01*
%TO.C,D301*%
X138435000Y-122500000D02*
X138435000Y-120215000D01*
X138435000Y-120215000D02*
X136965000Y-120215000D01*
X136965000Y-120215000D02*
X136965000Y-122500000D01*
%TO.C,C308*%
X151767000Y-131155221D02*
X151767000Y-131480779D01*
X150747000Y-131155221D02*
X150747000Y-131480779D01*
%TO.C,C307*%
X140110000Y-136997221D02*
X140110000Y-137322779D01*
X139090000Y-136997221D02*
X139090000Y-137322779D01*
%TO.C,C103*%
X136410000Y-124237221D02*
X136410000Y-124562779D01*
X135390000Y-124237221D02*
X135390000Y-124562779D01*
%TO.C,C102*%
X133563579Y-125579600D02*
X133238021Y-125579600D01*
X133563579Y-124559600D02*
X133238021Y-124559600D01*
%TO.C,C101*%
X130558000Y-122138221D02*
X130558000Y-122463779D01*
X129538000Y-122138221D02*
X129538000Y-122463779D01*
%TO.C,JP202*%
D10*
X158972428Y-121227904D02*
X158972428Y-121799333D01*
X158934333Y-121913619D01*
X158858142Y-121989809D01*
X158743857Y-122027904D01*
X158667666Y-122027904D01*
X159353380Y-122027904D02*
X159353380Y-121227904D01*
X159658142Y-121227904D01*
X159734333Y-121266000D01*
X159772428Y-121304095D01*
X159810523Y-121380285D01*
X159810523Y-121494571D01*
X159772428Y-121570761D01*
X159734333Y-121608857D01*
X159658142Y-121646952D01*
X159353380Y-121646952D01*
X160115285Y-121304095D02*
X160153380Y-121266000D01*
X160229571Y-121227904D01*
X160420047Y-121227904D01*
X160496238Y-121266000D01*
X160534333Y-121304095D01*
X160572428Y-121380285D01*
X160572428Y-121456476D01*
X160534333Y-121570761D01*
X160077190Y-122027904D01*
X160572428Y-122027904D01*
X161067666Y-121227904D02*
X161143857Y-121227904D01*
X161220047Y-121266000D01*
X161258142Y-121304095D01*
X161296238Y-121380285D01*
X161334333Y-121532666D01*
X161334333Y-121723142D01*
X161296238Y-121875523D01*
X161258142Y-121951714D01*
X161220047Y-121989809D01*
X161143857Y-122027904D01*
X161067666Y-122027904D01*
X160991476Y-121989809D01*
X160953380Y-121951714D01*
X160915285Y-121875523D01*
X160877190Y-121723142D01*
X160877190Y-121532666D01*
X160915285Y-121380285D01*
X160953380Y-121304095D01*
X160991476Y-121266000D01*
X161067666Y-121227904D01*
X161639095Y-121304095D02*
X161677190Y-121266000D01*
X161753380Y-121227904D01*
X161943857Y-121227904D01*
X162020047Y-121266000D01*
X162058142Y-121304095D01*
X162096238Y-121380285D01*
X162096238Y-121456476D01*
X162058142Y-121570761D01*
X161601000Y-122027904D01*
X162096238Y-122027904D01*
%TO.C,JP201*%
X155289428Y-138753904D02*
X155289428Y-139325333D01*
X155251333Y-139439619D01*
X155175142Y-139515809D01*
X155060857Y-139553904D01*
X154984666Y-139553904D01*
X155670380Y-139553904D02*
X155670380Y-138753904D01*
X155975142Y-138753904D01*
X156051333Y-138792000D01*
X156089428Y-138830095D01*
X156127523Y-138906285D01*
X156127523Y-139020571D01*
X156089428Y-139096761D01*
X156051333Y-139134857D01*
X155975142Y-139172952D01*
X155670380Y-139172952D01*
X156432285Y-138830095D02*
X156470380Y-138792000D01*
X156546571Y-138753904D01*
X156737047Y-138753904D01*
X156813238Y-138792000D01*
X156851333Y-138830095D01*
X156889428Y-138906285D01*
X156889428Y-138982476D01*
X156851333Y-139096761D01*
X156394190Y-139553904D01*
X156889428Y-139553904D01*
X157384666Y-138753904D02*
X157460857Y-138753904D01*
X157537047Y-138792000D01*
X157575142Y-138830095D01*
X157613238Y-138906285D01*
X157651333Y-139058666D01*
X157651333Y-139249142D01*
X157613238Y-139401523D01*
X157575142Y-139477714D01*
X157537047Y-139515809D01*
X157460857Y-139553904D01*
X157384666Y-139553904D01*
X157308476Y-139515809D01*
X157270380Y-139477714D01*
X157232285Y-139401523D01*
X157194190Y-139249142D01*
X157194190Y-139058666D01*
X157232285Y-138906285D01*
X157270380Y-138830095D01*
X157308476Y-138792000D01*
X157384666Y-138753904D01*
X158413238Y-139553904D02*
X157956095Y-139553904D01*
X158184666Y-139553904D02*
X158184666Y-138753904D01*
X158108476Y-138868190D01*
X158032285Y-138944380D01*
X157956095Y-138982476D01*
%TO.C,D304*%
X140642857Y-125476023D02*
X140642857Y-125209357D01*
X141061904Y-125095071D02*
X141061904Y-125476023D01*
X140261904Y-125476023D01*
X140261904Y-125095071D01*
X141061904Y-124295071D02*
X140680952Y-124561738D01*
X141061904Y-124752214D02*
X140261904Y-124752214D01*
X140261904Y-124447452D01*
X140300000Y-124371261D01*
X140338095Y-124333166D01*
X140414285Y-124295071D01*
X140528571Y-124295071D01*
X140604761Y-124333166D01*
X140642857Y-124371261D01*
X140680952Y-124447452D01*
X140680952Y-124752214D01*
X141061904Y-123495071D02*
X140680952Y-123761738D01*
X141061904Y-123952214D02*
X140261904Y-123952214D01*
X140261904Y-123647452D01*
X140300000Y-123571261D01*
X140338095Y-123533166D01*
X140414285Y-123495071D01*
X140528571Y-123495071D01*
X140604761Y-123533166D01*
X140642857Y-123571261D01*
X140680952Y-123647452D01*
X140680952Y-123952214D01*
%TO.C,D303*%
X143833333Y-125514119D02*
X143833333Y-125133166D01*
X144061904Y-125590309D02*
X143261904Y-125323642D01*
X144061904Y-125056976D01*
X143985714Y-124333166D02*
X144023809Y-124371261D01*
X144061904Y-124485547D01*
X144061904Y-124561738D01*
X144023809Y-124676023D01*
X143947619Y-124752214D01*
X143871428Y-124790309D01*
X143719047Y-124828404D01*
X143604761Y-124828404D01*
X143452380Y-124790309D01*
X143376190Y-124752214D01*
X143300000Y-124676023D01*
X143261904Y-124561738D01*
X143261904Y-124485547D01*
X143300000Y-124371261D01*
X143338095Y-124333166D01*
X143261904Y-124104595D02*
X143261904Y-123647452D01*
X144061904Y-123876023D02*
X143261904Y-123876023D01*
%TO.C,D302*%
X147023809Y-125514119D02*
X147061904Y-125399833D01*
X147061904Y-125209357D01*
X147023809Y-125133166D01*
X146985714Y-125095071D01*
X146909523Y-125056976D01*
X146833333Y-125056976D01*
X146757142Y-125095071D01*
X146719047Y-125133166D01*
X146680952Y-125209357D01*
X146642857Y-125361738D01*
X146604761Y-125437928D01*
X146566666Y-125476023D01*
X146490476Y-125514119D01*
X146414285Y-125514119D01*
X146338095Y-125476023D01*
X146300000Y-125437928D01*
X146261904Y-125361738D01*
X146261904Y-125171261D01*
X146300000Y-125056976D01*
X146642857Y-124714119D02*
X146642857Y-124447452D01*
X147061904Y-124333166D02*
X147061904Y-124714119D01*
X146261904Y-124714119D01*
X146261904Y-124333166D01*
X147061904Y-123533166D02*
X146680952Y-123799833D01*
X147061904Y-123990309D02*
X146261904Y-123990309D01*
X146261904Y-123685547D01*
X146300000Y-123609357D01*
X146338095Y-123571261D01*
X146414285Y-123533166D01*
X146528571Y-123533166D01*
X146604761Y-123571261D01*
X146642857Y-123609357D01*
X146680952Y-123685547D01*
X146680952Y-123990309D01*
%TO.C,D301*%
X138061904Y-125476023D02*
X137261904Y-125476023D01*
X137261904Y-125171261D01*
X137300000Y-125095071D01*
X137338095Y-125056976D01*
X137414285Y-125018880D01*
X137528571Y-125018880D01*
X137604761Y-125056976D01*
X137642857Y-125095071D01*
X137680952Y-125171261D01*
X137680952Y-125476023D01*
X137261904Y-124752214D02*
X138061904Y-124561738D01*
X137490476Y-124409357D01*
X138061904Y-124256976D01*
X137261904Y-124066500D01*
X138061904Y-123304595D02*
X137680952Y-123571261D01*
X138061904Y-123761738D02*
X137261904Y-123761738D01*
X137261904Y-123456976D01*
X137300000Y-123380785D01*
X137338095Y-123342690D01*
X137414285Y-123304595D01*
X137528571Y-123304595D01*
X137604761Y-123342690D01*
X137642857Y-123380785D01*
X137680952Y-123456976D01*
X137680952Y-123761738D01*
%TD*%
M02*
