%TF.GenerationSoftware,KiCad,Pcbnew,(6.0.7)*%
%TF.CreationDate,2022-08-30T17:29:13+02:00*%
%TF.ProjectId,bmp_entropia,626d705f-656e-4747-926f-7069612e6b69,rev?*%
%TF.SameCoordinates,Original*%
%TF.FileFunction,Legend,Top*%
%TF.FilePolarity,Positive*%
%FSLAX46Y46*%
G04 Gerber Fmt 4.6, Leading zero omitted, Abs format (unit mm)*
G04 Created by KiCad (PCBNEW (6.0.7)) date 2022-08-30 17:29:13*
%MOMM*%
%LPD*%
G01*
G04 APERTURE LIST*
%ADD10C,0.101600*%
%ADD11C,0.127000*%
%ADD12C,0.081280*%
%ADD13C,0.152400*%
%ADD14C,0.203200*%
%ADD15C,0.150000*%
%ADD16C,0.406400*%
G04 APERTURE END LIST*
D10*
%TO.C,R9*%
X146298645Y-96087761D02*
X145909179Y-95531380D01*
X145630988Y-96087761D02*
X145630988Y-94919361D01*
X146076093Y-94919361D01*
X146187369Y-94975000D01*
X146243007Y-95030638D01*
X146298645Y-95141914D01*
X146298645Y-95308828D01*
X146243007Y-95420104D01*
X146187369Y-95475742D01*
X146076093Y-95531380D01*
X145630988Y-95531380D01*
X146855026Y-96087761D02*
X147077579Y-96087761D01*
X147188855Y-96032123D01*
X147244493Y-95976485D01*
X147355769Y-95809571D01*
X147411407Y-95587019D01*
X147411407Y-95141914D01*
X147355769Y-95030638D01*
X147300131Y-94975000D01*
X147188855Y-94919361D01*
X146966302Y-94919361D01*
X146855026Y-94975000D01*
X146799388Y-95030638D01*
X146743750Y-95141914D01*
X146743750Y-95420104D01*
X146799388Y-95531380D01*
X146855026Y-95587019D01*
X146966302Y-95642657D01*
X147188855Y-95642657D01*
X147300131Y-95587019D01*
X147355769Y-95531380D01*
X147411407Y-95420104D01*
%TO.C,LED1*%
X127547055Y-101136904D02*
X127166102Y-101136904D01*
X127166102Y-100336904D01*
X127813721Y-100717857D02*
X128080388Y-100717857D01*
X128194674Y-101136904D02*
X127813721Y-101136904D01*
X127813721Y-100336904D01*
X128194674Y-100336904D01*
X128537531Y-101136904D02*
X128537531Y-100336904D01*
X128728007Y-100336904D01*
X128842293Y-100375000D01*
X128918483Y-100451190D01*
X128956579Y-100527380D01*
X128994674Y-100679761D01*
X128994674Y-100794047D01*
X128956579Y-100946428D01*
X128918483Y-101022619D01*
X128842293Y-101098809D01*
X128728007Y-101136904D01*
X128537531Y-101136904D01*
X129756579Y-101136904D02*
X129299436Y-101136904D01*
X129528007Y-101136904D02*
X129528007Y-100336904D01*
X129451817Y-100451190D01*
X129375626Y-100527380D01*
X129299436Y-100565476D01*
%TO.C,C4*%
X134933085Y-100863112D02*
X134988723Y-100918750D01*
X135044361Y-101085664D01*
X135044361Y-101196940D01*
X134988723Y-101363855D01*
X134877447Y-101475131D01*
X134766171Y-101530769D01*
X134543619Y-101586407D01*
X134376704Y-101586407D01*
X134154152Y-101530769D01*
X134042876Y-101475131D01*
X133931600Y-101363855D01*
X133875961Y-101196940D01*
X133875961Y-101085664D01*
X133931600Y-100918750D01*
X133987238Y-100863112D01*
X134265428Y-99861626D02*
X135044361Y-99861626D01*
X133820323Y-100139817D02*
X134654895Y-100418007D01*
X134654895Y-99694712D01*
%TO.C,C6*%
X154811887Y-115608085D02*
X154756249Y-115663723D01*
X154589335Y-115719361D01*
X154478059Y-115719361D01*
X154311144Y-115663723D01*
X154199868Y-115552447D01*
X154144230Y-115441171D01*
X154088592Y-115218619D01*
X154088592Y-115051704D01*
X154144230Y-114829152D01*
X154199868Y-114717876D01*
X154311144Y-114606600D01*
X154478059Y-114550961D01*
X154589335Y-114550961D01*
X154756249Y-114606600D01*
X154811887Y-114662238D01*
X155813373Y-114550961D02*
X155590820Y-114550961D01*
X155479544Y-114606600D01*
X155423906Y-114662238D01*
X155312630Y-114829152D01*
X155256992Y-115051704D01*
X155256992Y-115496809D01*
X155312630Y-115608085D01*
X155368268Y-115663723D01*
X155479544Y-115719361D01*
X155702097Y-115719361D01*
X155813373Y-115663723D01*
X155869011Y-115608085D01*
X155924649Y-115496809D01*
X155924649Y-115218619D01*
X155869011Y-115107342D01*
X155813373Y-115051704D01*
X155702097Y-114996066D01*
X155479544Y-114996066D01*
X155368268Y-115051704D01*
X155312630Y-115107342D01*
X155256992Y-115218619D01*
%TO.C,C7*%
X141323645Y-111251485D02*
X141268007Y-111307123D01*
X141101093Y-111362761D01*
X140989817Y-111362761D01*
X140822902Y-111307123D01*
X140711626Y-111195847D01*
X140655988Y-111084571D01*
X140600350Y-110862019D01*
X140600350Y-110695104D01*
X140655988Y-110472552D01*
X140711626Y-110361276D01*
X140822902Y-110250000D01*
X140989817Y-110194361D01*
X141101093Y-110194361D01*
X141268007Y-110250000D01*
X141323645Y-110305638D01*
X141713112Y-110194361D02*
X142492045Y-110194361D01*
X141991302Y-111362761D01*
%TO.C,R10*%
X160769361Y-101538112D02*
X160212980Y-101927579D01*
X160769361Y-102205769D02*
X159600961Y-102205769D01*
X159600961Y-101760664D01*
X159656600Y-101649388D01*
X159712238Y-101593750D01*
X159823514Y-101538112D01*
X159990428Y-101538112D01*
X160101704Y-101593750D01*
X160157342Y-101649388D01*
X160212980Y-101760664D01*
X160212980Y-102205769D01*
X160769361Y-100425350D02*
X160769361Y-101093007D01*
X160769361Y-100759179D02*
X159600961Y-100759179D01*
X159767876Y-100870455D01*
X159879152Y-100981731D01*
X159934790Y-101093007D01*
X159600961Y-99702055D02*
X159600961Y-99590779D01*
X159656600Y-99479502D01*
X159712238Y-99423864D01*
X159823514Y-99368226D01*
X160046066Y-99312588D01*
X160324257Y-99312588D01*
X160546809Y-99368226D01*
X160658085Y-99423864D01*
X160713723Y-99479502D01*
X160769361Y-99590779D01*
X160769361Y-99702055D01*
X160713723Y-99813331D01*
X160658085Y-99868969D01*
X160546809Y-99924607D01*
X160324257Y-99980245D01*
X160046066Y-99980245D01*
X159823514Y-99924607D01*
X159712238Y-99868969D01*
X159656600Y-99813331D01*
X159600961Y-99702055D01*
%TO.C,R7*%
X146348645Y-99987761D02*
X145959179Y-99431380D01*
X145680988Y-99987761D02*
X145680988Y-98819361D01*
X146126093Y-98819361D01*
X146237369Y-98875000D01*
X146293007Y-98930638D01*
X146348645Y-99041914D01*
X146348645Y-99208828D01*
X146293007Y-99320104D01*
X146237369Y-99375742D01*
X146126093Y-99431380D01*
X145680988Y-99431380D01*
X146738112Y-98819361D02*
X147517045Y-98819361D01*
X147016302Y-99987761D01*
D11*
%TO.C,SV1*%
X137800264Y-116066142D02*
X137963550Y-116120571D01*
X138235692Y-116120571D01*
X138344550Y-116066142D01*
X138398978Y-116011714D01*
X138453407Y-115902857D01*
X138453407Y-115794000D01*
X138398978Y-115685142D01*
X138344550Y-115630714D01*
X138235692Y-115576285D01*
X138017978Y-115521857D01*
X137909121Y-115467428D01*
X137854692Y-115413000D01*
X137800264Y-115304142D01*
X137800264Y-115195285D01*
X137854692Y-115086428D01*
X137909121Y-115032000D01*
X138017978Y-114977571D01*
X138290121Y-114977571D01*
X138453407Y-115032000D01*
X138779978Y-114977571D02*
X139160978Y-116120571D01*
X139541978Y-114977571D01*
X140521692Y-116120571D02*
X139868550Y-116120571D01*
X140195121Y-116120571D02*
X140195121Y-114977571D01*
X140086264Y-115140857D01*
X139977407Y-115249714D01*
X139868550Y-115304142D01*
X145507650Y-113091171D02*
X145507650Y-113853171D01*
X145235507Y-112655742D02*
X144963364Y-113472171D01*
X145670935Y-113472171D01*
X134059507Y-113853171D02*
X133406364Y-113853171D01*
X133732935Y-113853171D02*
X133732935Y-112710171D01*
X133624078Y-112873457D01*
X133515221Y-112982314D01*
X133406364Y-113036742D01*
D10*
%TO.C,LED3*%
X139922055Y-96886904D02*
X139541102Y-96886904D01*
X139541102Y-96086904D01*
X140188721Y-96467857D02*
X140455388Y-96467857D01*
X140569674Y-96886904D02*
X140188721Y-96886904D01*
X140188721Y-96086904D01*
X140569674Y-96086904D01*
X140912531Y-96886904D02*
X140912531Y-96086904D01*
X141103007Y-96086904D01*
X141217293Y-96125000D01*
X141293483Y-96201190D01*
X141331579Y-96277380D01*
X141369674Y-96429761D01*
X141369674Y-96544047D01*
X141331579Y-96696428D01*
X141293483Y-96772619D01*
X141217293Y-96848809D01*
X141103007Y-96886904D01*
X140912531Y-96886904D01*
X141636340Y-96086904D02*
X142131579Y-96086904D01*
X141864912Y-96391666D01*
X141979198Y-96391666D01*
X142055388Y-96429761D01*
X142093483Y-96467857D01*
X142131579Y-96544047D01*
X142131579Y-96734523D01*
X142093483Y-96810714D01*
X142055388Y-96848809D01*
X141979198Y-96886904D01*
X141750626Y-96886904D01*
X141674436Y-96848809D01*
X141636340Y-96810714D01*
%TO.C,R1*%
X137044361Y-108413112D02*
X136487980Y-108802579D01*
X137044361Y-109080769D02*
X135875961Y-109080769D01*
X135875961Y-108635664D01*
X135931600Y-108524388D01*
X135987238Y-108468750D01*
X136098514Y-108413112D01*
X136265428Y-108413112D01*
X136376704Y-108468750D01*
X136432342Y-108524388D01*
X136487980Y-108635664D01*
X136487980Y-109080769D01*
X137044361Y-107300350D02*
X137044361Y-107968007D01*
X137044361Y-107634179D02*
X135875961Y-107634179D01*
X136042876Y-107745455D01*
X136154152Y-107856731D01*
X136209790Y-107968007D01*
D11*
%TO.C,SV2*%
X165001242Y-112210335D02*
X165055671Y-112047050D01*
X165055671Y-111774907D01*
X165001242Y-111666050D01*
X164946814Y-111611621D01*
X164837957Y-111557192D01*
X164729100Y-111557192D01*
X164620242Y-111611621D01*
X164565814Y-111666050D01*
X164511385Y-111774907D01*
X164456957Y-111992621D01*
X164402528Y-112101478D01*
X164348100Y-112155907D01*
X164239242Y-112210335D01*
X164130385Y-112210335D01*
X164021528Y-112155907D01*
X163967100Y-112101478D01*
X163912671Y-111992621D01*
X163912671Y-111720478D01*
X163967100Y-111557192D01*
X163912671Y-111230621D02*
X165055671Y-110849621D01*
X163912671Y-110468621D01*
X164021528Y-110142050D02*
X163967100Y-110087621D01*
X163912671Y-109978764D01*
X163912671Y-109706621D01*
X163967100Y-109597764D01*
X164021528Y-109543335D01*
X164130385Y-109488907D01*
X164239242Y-109488907D01*
X164402528Y-109543335D01*
X165055671Y-110196478D01*
X165055671Y-109488907D01*
X172167671Y-110795192D02*
X172167671Y-111448335D01*
X172167671Y-111121764D02*
X171024671Y-111121764D01*
X171187957Y-111230621D01*
X171296814Y-111339478D01*
X171351242Y-111448335D01*
X165055671Y-100635192D02*
X165055671Y-101288335D01*
X165055671Y-100961764D02*
X163912671Y-100961764D01*
X164075957Y-101070621D01*
X164184814Y-101179478D01*
X164239242Y-101288335D01*
X163912671Y-99927621D02*
X163912671Y-99818764D01*
X163967100Y-99709907D01*
X164021528Y-99655478D01*
X164130385Y-99601050D01*
X164348100Y-99546621D01*
X164620242Y-99546621D01*
X164837957Y-99601050D01*
X164946814Y-99655478D01*
X165001242Y-99709907D01*
X165055671Y-99818764D01*
X165055671Y-99927621D01*
X165001242Y-100036478D01*
X164946814Y-100090907D01*
X164837957Y-100145335D01*
X164620242Y-100199764D01*
X164348100Y-100199764D01*
X164130385Y-100145335D01*
X164021528Y-100090907D01*
X163967100Y-100036478D01*
X163912671Y-99927621D01*
D10*
%TO.C,Q2*%
X164348163Y-95355638D02*
X164236887Y-95300000D01*
X164125611Y-95188723D01*
X163958697Y-95021809D01*
X163847420Y-94966171D01*
X163736144Y-94966171D01*
X163791782Y-95244361D02*
X163680506Y-95188723D01*
X163569230Y-95077447D01*
X163513592Y-94854895D01*
X163513592Y-94465428D01*
X163569230Y-94242876D01*
X163680506Y-94131600D01*
X163791782Y-94075961D01*
X164014335Y-94075961D01*
X164125611Y-94131600D01*
X164236887Y-94242876D01*
X164292525Y-94465428D01*
X164292525Y-94854895D01*
X164236887Y-95077447D01*
X164125611Y-95188723D01*
X164014335Y-95244361D01*
X163791782Y-95244361D01*
X164737630Y-94187238D02*
X164793268Y-94131600D01*
X164904544Y-94075961D01*
X165182735Y-94075961D01*
X165294011Y-94131600D01*
X165349649Y-94187238D01*
X165405287Y-94298514D01*
X165405287Y-94409790D01*
X165349649Y-94576704D01*
X164681992Y-95244361D01*
X165405287Y-95244361D01*
%TO.C,X1*%
X128482954Y-111600961D02*
X129261887Y-112769361D01*
X129261887Y-111600961D02*
X128482954Y-112769361D01*
X130319011Y-112769361D02*
X129651354Y-112769361D01*
X129985182Y-112769361D02*
X129985182Y-111600961D01*
X129873906Y-111767876D01*
X129762630Y-111879152D01*
X129651354Y-111934790D01*
%TO.C,C5*%
X145133085Y-102188112D02*
X145188723Y-102243750D01*
X145244361Y-102410664D01*
X145244361Y-102521940D01*
X145188723Y-102688855D01*
X145077447Y-102800131D01*
X144966171Y-102855769D01*
X144743619Y-102911407D01*
X144576704Y-102911407D01*
X144354152Y-102855769D01*
X144242876Y-102800131D01*
X144131600Y-102688855D01*
X144075961Y-102521940D01*
X144075961Y-102410664D01*
X144131600Y-102243750D01*
X144187238Y-102188112D01*
X144075961Y-101130988D02*
X144075961Y-101687369D01*
X144632342Y-101743007D01*
X144576704Y-101687369D01*
X144521066Y-101576093D01*
X144521066Y-101297902D01*
X144576704Y-101186626D01*
X144632342Y-101130988D01*
X144743619Y-101075350D01*
X145021809Y-101075350D01*
X145133085Y-101130988D01*
X145188723Y-101186626D01*
X145244361Y-101297902D01*
X145244361Y-101576093D01*
X145188723Y-101687369D01*
X145133085Y-101743007D01*
%TO.C,R8*%
X146273645Y-98162761D02*
X145884179Y-97606380D01*
X145605988Y-98162761D02*
X145605988Y-96994361D01*
X146051093Y-96994361D01*
X146162369Y-97050000D01*
X146218007Y-97105638D01*
X146273645Y-97216914D01*
X146273645Y-97383828D01*
X146218007Y-97495104D01*
X146162369Y-97550742D01*
X146051093Y-97606380D01*
X145605988Y-97606380D01*
X146941302Y-97495104D02*
X146830026Y-97439466D01*
X146774388Y-97383828D01*
X146718750Y-97272552D01*
X146718750Y-97216914D01*
X146774388Y-97105638D01*
X146830026Y-97050000D01*
X146941302Y-96994361D01*
X147163855Y-96994361D01*
X147275131Y-97050000D01*
X147330769Y-97105638D01*
X147386407Y-97216914D01*
X147386407Y-97272552D01*
X147330769Y-97383828D01*
X147275131Y-97439466D01*
X147163855Y-97495104D01*
X146941302Y-97495104D01*
X146830026Y-97550742D01*
X146774388Y-97606380D01*
X146718750Y-97717657D01*
X146718750Y-97940209D01*
X146774388Y-98051485D01*
X146830026Y-98107123D01*
X146941302Y-98162761D01*
X147163855Y-98162761D01*
X147275131Y-98107123D01*
X147330769Y-98051485D01*
X147386407Y-97940209D01*
X147386407Y-97717657D01*
X147330769Y-97606380D01*
X147275131Y-97550742D01*
X147163855Y-97495104D01*
%TO.C,R6*%
X131294674Y-101511904D02*
X131028007Y-101130952D01*
X130837531Y-101511904D02*
X130837531Y-100711904D01*
X131142293Y-100711904D01*
X131218483Y-100750000D01*
X131256579Y-100788095D01*
X131294674Y-100864285D01*
X131294674Y-100978571D01*
X131256579Y-101054761D01*
X131218483Y-101092857D01*
X131142293Y-101130952D01*
X130837531Y-101130952D01*
X131980388Y-100711904D02*
X131828007Y-100711904D01*
X131751817Y-100750000D01*
X131713721Y-100788095D01*
X131637531Y-100902380D01*
X131599436Y-101054761D01*
X131599436Y-101359523D01*
X131637531Y-101435714D01*
X131675626Y-101473809D01*
X131751817Y-101511904D01*
X131904198Y-101511904D01*
X131980388Y-101473809D01*
X132018483Y-101435714D01*
X132056579Y-101359523D01*
X132056579Y-101169047D01*
X132018483Y-101092857D01*
X131980388Y-101054761D01*
X131904198Y-101016666D01*
X131751817Y-101016666D01*
X131675626Y-101054761D01*
X131637531Y-101092857D01*
X131599436Y-101169047D01*
D12*
%TO.C,U$2*%
X139569498Y-103466666D02*
X139569498Y-104033333D01*
X139602832Y-104100000D01*
X139636165Y-104133333D01*
X139702832Y-104166666D01*
X139836165Y-104166666D01*
X139902832Y-104133333D01*
X139936165Y-104100000D01*
X139969498Y-104033333D01*
X139969498Y-103466666D01*
X140269498Y-104133333D02*
X140369498Y-104166666D01*
X140536165Y-104166666D01*
X140602832Y-104133333D01*
X140636165Y-104100000D01*
X140669498Y-104033333D01*
X140669498Y-103966666D01*
X140636165Y-103900000D01*
X140602832Y-103866666D01*
X140536165Y-103833333D01*
X140402832Y-103800000D01*
X140336165Y-103766666D01*
X140302832Y-103733333D01*
X140269498Y-103666666D01*
X140269498Y-103600000D01*
X140302832Y-103533333D01*
X140336165Y-103500000D01*
X140402832Y-103466666D01*
X140569498Y-103466666D01*
X140669498Y-103500000D01*
X140469498Y-103366666D02*
X140469498Y-104266666D01*
X140936165Y-103533333D02*
X140969498Y-103500000D01*
X141036165Y-103466666D01*
X141202832Y-103466666D01*
X141269498Y-103500000D01*
X141302832Y-103533333D01*
X141336165Y-103600000D01*
X141336165Y-103666666D01*
X141302832Y-103766666D01*
X140902832Y-104166666D01*
X141336165Y-104166666D01*
D10*
%TO.C,LED4*%
X139847055Y-94761904D02*
X139466102Y-94761904D01*
X139466102Y-93961904D01*
X140113721Y-94342857D02*
X140380388Y-94342857D01*
X140494674Y-94761904D02*
X140113721Y-94761904D01*
X140113721Y-93961904D01*
X140494674Y-93961904D01*
X140837531Y-94761904D02*
X140837531Y-93961904D01*
X141028007Y-93961904D01*
X141142293Y-94000000D01*
X141218483Y-94076190D01*
X141256579Y-94152380D01*
X141294674Y-94304761D01*
X141294674Y-94419047D01*
X141256579Y-94571428D01*
X141218483Y-94647619D01*
X141142293Y-94723809D01*
X141028007Y-94761904D01*
X140837531Y-94761904D01*
X141980388Y-94228571D02*
X141980388Y-94761904D01*
X141789912Y-93923809D02*
X141599436Y-94495238D01*
X142094674Y-94495238D01*
%TO.C,R11*%
X158694361Y-101388112D02*
X158137980Y-101777579D01*
X158694361Y-102055769D02*
X157525961Y-102055769D01*
X157525961Y-101610664D01*
X157581600Y-101499388D01*
X157637238Y-101443750D01*
X157748514Y-101388112D01*
X157915428Y-101388112D01*
X158026704Y-101443750D01*
X158082342Y-101499388D01*
X158137980Y-101610664D01*
X158137980Y-102055769D01*
X158694361Y-100275350D02*
X158694361Y-100943007D01*
X158694361Y-100609179D02*
X157525961Y-100609179D01*
X157692876Y-100720455D01*
X157804152Y-100831731D01*
X157859790Y-100943007D01*
X158694361Y-99162588D02*
X158694361Y-99830245D01*
X158694361Y-99496417D02*
X157525961Y-99496417D01*
X157692876Y-99607693D01*
X157804152Y-99718969D01*
X157859790Y-99830245D01*
%TO.C,R2*%
X141723645Y-107312761D02*
X141334179Y-106756380D01*
X141055988Y-107312761D02*
X141055988Y-106144361D01*
X141501093Y-106144361D01*
X141612369Y-106200000D01*
X141668007Y-106255638D01*
X141723645Y-106366914D01*
X141723645Y-106533828D01*
X141668007Y-106645104D01*
X141612369Y-106700742D01*
X141501093Y-106756380D01*
X141055988Y-106756380D01*
X142168750Y-106255638D02*
X142224388Y-106200000D01*
X142335664Y-106144361D01*
X142613855Y-106144361D01*
X142725131Y-106200000D01*
X142780769Y-106255638D01*
X142836407Y-106366914D01*
X142836407Y-106478190D01*
X142780769Y-106645104D01*
X142113112Y-107312761D01*
X142836407Y-107312761D01*
%TO.C,C3*%
X156583085Y-100463112D02*
X156638723Y-100518750D01*
X156694361Y-100685664D01*
X156694361Y-100796940D01*
X156638723Y-100963855D01*
X156527447Y-101075131D01*
X156416171Y-101130769D01*
X156193619Y-101186407D01*
X156026704Y-101186407D01*
X155804152Y-101130769D01*
X155692876Y-101075131D01*
X155581600Y-100963855D01*
X155525961Y-100796940D01*
X155525961Y-100685664D01*
X155581600Y-100518750D01*
X155637238Y-100463112D01*
X155525961Y-100073645D02*
X155525961Y-99350350D01*
X155971066Y-99739817D01*
X155971066Y-99572902D01*
X156026704Y-99461626D01*
X156082342Y-99405988D01*
X156193619Y-99350350D01*
X156471809Y-99350350D01*
X156583085Y-99405988D01*
X156638723Y-99461626D01*
X156694361Y-99572902D01*
X156694361Y-99906731D01*
X156638723Y-100018007D01*
X156583085Y-100073645D01*
%TO.C,C10*%
X157161887Y-115583085D02*
X157106249Y-115638723D01*
X156939335Y-115694361D01*
X156828059Y-115694361D01*
X156661144Y-115638723D01*
X156549868Y-115527447D01*
X156494230Y-115416171D01*
X156438592Y-115193619D01*
X156438592Y-115026704D01*
X156494230Y-114804152D01*
X156549868Y-114692876D01*
X156661144Y-114581600D01*
X156828059Y-114525961D01*
X156939335Y-114525961D01*
X157106249Y-114581600D01*
X157161887Y-114637238D01*
X158274649Y-115694361D02*
X157606992Y-115694361D01*
X157940820Y-115694361D02*
X157940820Y-114525961D01*
X157829544Y-114692876D01*
X157718268Y-114804152D01*
X157606992Y-114859790D01*
X158997944Y-114525961D02*
X159109220Y-114525961D01*
X159220497Y-114581600D01*
X159276135Y-114637238D01*
X159331773Y-114748514D01*
X159387411Y-114971066D01*
X159387411Y-115249257D01*
X159331773Y-115471809D01*
X159276135Y-115583085D01*
X159220497Y-115638723D01*
X159109220Y-115694361D01*
X158997944Y-115694361D01*
X158886668Y-115638723D01*
X158831030Y-115583085D01*
X158775392Y-115471809D01*
X158719754Y-115249257D01*
X158719754Y-114971066D01*
X158775392Y-114748514D01*
X158831030Y-114637238D01*
X158886668Y-114581600D01*
X158997944Y-114525961D01*
D11*
%TO.C,U$1*%
X149879692Y-112652571D02*
X149879692Y-113577857D01*
X149934121Y-113686714D01*
X149988550Y-113741142D01*
X150097407Y-113795571D01*
X150315121Y-113795571D01*
X150423978Y-113741142D01*
X150478407Y-113686714D01*
X150532835Y-113577857D01*
X150532835Y-112652571D01*
X151022692Y-113741142D02*
X151185978Y-113795571D01*
X151458121Y-113795571D01*
X151566978Y-113741142D01*
X151621407Y-113686714D01*
X151675835Y-113577857D01*
X151675835Y-113469000D01*
X151621407Y-113360142D01*
X151566978Y-113305714D01*
X151458121Y-113251285D01*
X151240407Y-113196857D01*
X151131550Y-113142428D01*
X151077121Y-113088000D01*
X151022692Y-112979142D01*
X151022692Y-112870285D01*
X151077121Y-112761428D01*
X151131550Y-112707000D01*
X151240407Y-112652571D01*
X151512550Y-112652571D01*
X151675835Y-112707000D01*
X151349264Y-112489285D02*
X151349264Y-113958857D01*
X152764407Y-113795571D02*
X152111264Y-113795571D01*
X152437835Y-113795571D02*
X152437835Y-112652571D01*
X152328978Y-112815857D01*
X152220121Y-112924714D01*
X152111264Y-112979142D01*
%TO.C,JP1*%
X134456835Y-98105171D02*
X134456835Y-98921600D01*
X134402407Y-99084885D01*
X134293550Y-99193742D01*
X134130264Y-99248171D01*
X134021407Y-99248171D01*
X135001121Y-99248171D02*
X135001121Y-98105171D01*
X135436550Y-98105171D01*
X135545407Y-98159600D01*
X135599835Y-98214028D01*
X135654264Y-98322885D01*
X135654264Y-98486171D01*
X135599835Y-98595028D01*
X135545407Y-98649457D01*
X135436550Y-98703885D01*
X135001121Y-98703885D01*
X136742835Y-99248171D02*
X136089692Y-99248171D01*
X136416264Y-99248171D02*
X136416264Y-98105171D01*
X136307407Y-98268457D01*
X136198550Y-98377314D01*
X136089692Y-98431742D01*
D10*
%TO.C,C9*%
X157563659Y-108135714D02*
X157525563Y-108173809D01*
X157411278Y-108211904D01*
X157335087Y-108211904D01*
X157220801Y-108173809D01*
X157144611Y-108097619D01*
X157106516Y-108021428D01*
X157068420Y-107869047D01*
X157068420Y-107754761D01*
X157106516Y-107602380D01*
X157144611Y-107526190D01*
X157220801Y-107450000D01*
X157335087Y-107411904D01*
X157411278Y-107411904D01*
X157525563Y-107450000D01*
X157563659Y-107488095D01*
X157944611Y-108211904D02*
X158096992Y-108211904D01*
X158173182Y-108173809D01*
X158211278Y-108135714D01*
X158287468Y-108021428D01*
X158325563Y-107869047D01*
X158325563Y-107564285D01*
X158287468Y-107488095D01*
X158249373Y-107450000D01*
X158173182Y-107411904D01*
X158020801Y-107411904D01*
X157944611Y-107450000D01*
X157906516Y-107488095D01*
X157868420Y-107564285D01*
X157868420Y-107754761D01*
X157906516Y-107830952D01*
X157944611Y-107869047D01*
X158020801Y-107907142D01*
X158173182Y-107907142D01*
X158249373Y-107869047D01*
X158287468Y-107830952D01*
X158325563Y-107754761D01*
%TO.C,R3*%
X141723645Y-109437761D02*
X141334179Y-108881380D01*
X141055988Y-109437761D02*
X141055988Y-108269361D01*
X141501093Y-108269361D01*
X141612369Y-108325000D01*
X141668007Y-108380638D01*
X141723645Y-108491914D01*
X141723645Y-108658828D01*
X141668007Y-108770104D01*
X141612369Y-108825742D01*
X141501093Y-108881380D01*
X141055988Y-108881380D01*
X142113112Y-108269361D02*
X142836407Y-108269361D01*
X142446940Y-108714466D01*
X142613855Y-108714466D01*
X142725131Y-108770104D01*
X142780769Y-108825742D01*
X142836407Y-108937019D01*
X142836407Y-109215209D01*
X142780769Y-109326485D01*
X142725131Y-109382123D01*
X142613855Y-109437761D01*
X142280026Y-109437761D01*
X142168750Y-109382123D01*
X142113112Y-109326485D01*
%TO.C,C8*%
X149183085Y-100988112D02*
X149238723Y-101043750D01*
X149294361Y-101210664D01*
X149294361Y-101321940D01*
X149238723Y-101488855D01*
X149127447Y-101600131D01*
X149016171Y-101655769D01*
X148793619Y-101711407D01*
X148626704Y-101711407D01*
X148404152Y-101655769D01*
X148292876Y-101600131D01*
X148181600Y-101488855D01*
X148125961Y-101321940D01*
X148125961Y-101210664D01*
X148181600Y-101043750D01*
X148237238Y-100988112D01*
X148626704Y-100320455D02*
X148571066Y-100431731D01*
X148515428Y-100487369D01*
X148404152Y-100543007D01*
X148348514Y-100543007D01*
X148237238Y-100487369D01*
X148181600Y-100431731D01*
X148125961Y-100320455D01*
X148125961Y-100097902D01*
X148181600Y-99986626D01*
X148237238Y-99930988D01*
X148348514Y-99875350D01*
X148404152Y-99875350D01*
X148515428Y-99930988D01*
X148571066Y-99986626D01*
X148626704Y-100097902D01*
X148626704Y-100320455D01*
X148682342Y-100431731D01*
X148737980Y-100487369D01*
X148849257Y-100543007D01*
X149071809Y-100543007D01*
X149183085Y-100487369D01*
X149238723Y-100431731D01*
X149294361Y-100320455D01*
X149294361Y-100097902D01*
X149238723Y-99986626D01*
X149183085Y-99930988D01*
X149071809Y-99875350D01*
X148849257Y-99875350D01*
X148737980Y-99930988D01*
X148682342Y-99986626D01*
X148626704Y-100097902D01*
%TO.C,LED2*%
X139897055Y-98936904D02*
X139516102Y-98936904D01*
X139516102Y-98136904D01*
X140163721Y-98517857D02*
X140430388Y-98517857D01*
X140544674Y-98936904D02*
X140163721Y-98936904D01*
X140163721Y-98136904D01*
X140544674Y-98136904D01*
X140887531Y-98936904D02*
X140887531Y-98136904D01*
X141078007Y-98136904D01*
X141192293Y-98175000D01*
X141268483Y-98251190D01*
X141306579Y-98327380D01*
X141344674Y-98479761D01*
X141344674Y-98594047D01*
X141306579Y-98746428D01*
X141268483Y-98822619D01*
X141192293Y-98898809D01*
X141078007Y-98936904D01*
X140887531Y-98936904D01*
X141649436Y-98213095D02*
X141687531Y-98175000D01*
X141763721Y-98136904D01*
X141954198Y-98136904D01*
X142030388Y-98175000D01*
X142068483Y-98213095D01*
X142106579Y-98289285D01*
X142106579Y-98365476D01*
X142068483Y-98479761D01*
X141611340Y-98936904D01*
X142106579Y-98936904D01*
D11*
%TO.C,Q1*%
X161216692Y-104329428D02*
X161107835Y-104275000D01*
X160998978Y-104166142D01*
X160835692Y-104002857D01*
X160726835Y-103948428D01*
X160617978Y-103948428D01*
X160672407Y-104220571D02*
X160563550Y-104166142D01*
X160454692Y-104057285D01*
X160400264Y-103839571D01*
X160400264Y-103458571D01*
X160454692Y-103240857D01*
X160563550Y-103132000D01*
X160672407Y-103077571D01*
X160890121Y-103077571D01*
X160998978Y-103132000D01*
X161107835Y-103240857D01*
X161162264Y-103458571D01*
X161162264Y-103839571D01*
X161107835Y-104057285D01*
X160998978Y-104166142D01*
X160890121Y-104220571D01*
X160672407Y-104220571D01*
X162250835Y-104220571D02*
X161597692Y-104220571D01*
X161924264Y-104220571D02*
X161924264Y-103077571D01*
X161815407Y-103240857D01*
X161706550Y-103349714D01*
X161597692Y-103404142D01*
%TO.C,LED1*%
G36*
X128407100Y-99681600D02*
G01*
X128157100Y-99681600D01*
X128157100Y-99431600D01*
X128407100Y-99431600D01*
X128407100Y-99681600D01*
G37*
D13*
%TO.C,SV1*%
X134249100Y-113907600D02*
X134884100Y-114542600D01*
X138694100Y-114542600D02*
X137424100Y-114542600D01*
X136154100Y-112002600D02*
X136789100Y-112637600D01*
X137424100Y-114542600D02*
X136789100Y-113907600D01*
X134884100Y-112002600D02*
X134249100Y-112637600D01*
X139964100Y-112002600D02*
X141234100Y-112002600D01*
X134249100Y-112637600D02*
X134249100Y-113907600D01*
X144409100Y-113907600D02*
X143774100Y-114542600D01*
X143774100Y-112002600D02*
X144409100Y-112637600D01*
X137424100Y-112002600D02*
X138694100Y-112002600D01*
X136154100Y-114542600D02*
X134884100Y-114542600D01*
X136789100Y-112637600D02*
X137424100Y-112002600D01*
X141234100Y-114542600D02*
X139964100Y-114542600D01*
X142504100Y-112002600D02*
X143774100Y-112002600D01*
X139964100Y-114542600D02*
X139329100Y-113907600D01*
X141869100Y-113907600D02*
X142504100Y-114542600D01*
X139329100Y-112637600D02*
X139964100Y-112002600D01*
X141234100Y-112002600D02*
X141869100Y-112637600D01*
X144409100Y-112637600D02*
X144409100Y-113907600D01*
X139329100Y-113907600D02*
X138694100Y-114542600D01*
X136789100Y-113907600D02*
X136154100Y-114542600D01*
X143774100Y-114542600D02*
X142504100Y-114542600D01*
X142504100Y-112002600D02*
X141869100Y-112637600D01*
X141869100Y-113907600D02*
X141234100Y-114542600D01*
X134884100Y-112002600D02*
X136154100Y-112002600D01*
X138694100Y-112002600D02*
X139329100Y-112637600D01*
%TO.C,LED3*%
G36*
X140853100Y-97649600D02*
G01*
X140603100Y-97649600D01*
X140603100Y-97399600D01*
X140853100Y-97399600D01*
X140853100Y-97649600D01*
G37*
%TO.C,SV2*%
X166126100Y-102350600D02*
X165491100Y-101715600D01*
X165491100Y-105525600D02*
X166126100Y-104890600D01*
X169936100Y-102350600D02*
X170571100Y-102985600D01*
X170571100Y-105525600D02*
X170571100Y-106795600D01*
X170571100Y-106795600D02*
X169936100Y-107430600D01*
X169936100Y-109970600D02*
X170571100Y-110605600D01*
X165491100Y-101715600D02*
X165491100Y-100445600D01*
X165491100Y-111875600D02*
X166126100Y-112510600D01*
X170571100Y-102985600D02*
X170571100Y-104255600D01*
X165491100Y-104255600D02*
X165491100Y-102985600D01*
X169936100Y-107430600D02*
X170571100Y-108065600D01*
X165491100Y-102985600D02*
X166126100Y-102350600D01*
X170571100Y-109335600D02*
X169936100Y-109970600D01*
X165491100Y-110605600D02*
X166126100Y-109970600D01*
X169936100Y-104890600D02*
X170571100Y-105525600D01*
X170571100Y-110605600D02*
X170571100Y-111875600D01*
X170571100Y-108065600D02*
X170571100Y-109335600D01*
X165491100Y-104255600D02*
X166126100Y-104890600D01*
X170571100Y-100445600D02*
X170571100Y-101715600D01*
X165491100Y-109335600D02*
X165491100Y-108065600D01*
X165491100Y-100445600D02*
X166126100Y-99810600D01*
X169936100Y-99810600D02*
X170571100Y-100445600D01*
X165491100Y-111875600D02*
X165491100Y-110605600D01*
X166126100Y-109970600D02*
X165491100Y-109335600D01*
X165491100Y-106795600D02*
X165491100Y-105525600D01*
X169936100Y-112510600D02*
X170571100Y-111875600D01*
X170571100Y-101715600D02*
X169936100Y-102350600D01*
X165491100Y-108065600D02*
X166126100Y-107430600D01*
X166126100Y-107430600D02*
X165491100Y-106795600D01*
X166126100Y-112510600D02*
X169936100Y-112510600D01*
X166126100Y-99810600D02*
X169936100Y-99810600D01*
X169936100Y-104890600D02*
X170571100Y-104255600D01*
D10*
%TO.C,X1*%
X124854700Y-105930700D02*
X128903900Y-106138300D01*
X127606000Y-105463400D02*
X125218000Y-105203900D01*
X131232900Y-109876500D02*
X131232900Y-110500800D01*
X125218000Y-104684700D02*
X127606000Y-104425200D01*
X132380400Y-109876400D02*
X131232900Y-109876400D01*
X124854700Y-108422300D02*
X128903900Y-108214700D01*
X127606000Y-108681900D02*
X127606000Y-108889600D01*
X125218000Y-109668300D02*
X127606000Y-109927800D01*
X125218000Y-109149100D02*
X125218000Y-109668300D01*
X130507300Y-111023800D02*
X127820000Y-111023800D01*
X124854600Y-106346000D02*
X128280900Y-106553600D01*
X127606000Y-108889600D02*
X125218000Y-109149100D01*
X127606000Y-104217500D02*
X124854600Y-104425200D01*
X131232900Y-104578000D02*
X131233000Y-103852300D01*
X123504900Y-103335000D02*
X125008400Y-103335100D01*
X127606000Y-110135500D02*
X124854600Y-109927800D01*
X128280900Y-107799400D02*
X128280900Y-106553400D01*
X123504900Y-111018000D02*
X123504900Y-103335000D01*
X123504900Y-111018100D02*
X123504900Y-111018000D01*
X129111500Y-108007000D02*
X129111500Y-106345900D01*
X132363500Y-104578000D02*
X131232900Y-104578000D01*
X127606000Y-105671100D02*
X127606000Y-105463400D01*
X124854600Y-105411500D02*
X127606000Y-105671100D01*
X127870800Y-103329400D02*
X130406200Y-103329300D01*
X132363500Y-103852300D02*
X132363500Y-104578000D01*
X127606000Y-104425200D02*
X127606000Y-104217500D01*
X132380400Y-110509000D02*
X132380400Y-109876400D01*
X125218000Y-105203900D02*
X125218000Y-104684700D01*
X124647000Y-106138300D02*
X124647000Y-106138400D01*
X124854600Y-108007000D02*
X128280900Y-107799400D01*
X123504900Y-111018000D02*
X125008500Y-111018000D01*
X124854600Y-108941500D02*
X127606000Y-108681900D01*
X127606000Y-109927800D02*
X127606000Y-110135500D01*
X123500300Y-111023900D02*
X123500300Y-103329300D01*
X124854600Y-105930700D02*
G75*
G03*
X124647000Y-106138300I1J-207601D01*
G01*
X124595100Y-105203900D02*
G75*
G03*
X124854599Y-105411501I281830J86298D01*
G01*
X124595100Y-109149100D02*
G75*
G03*
X124595100Y-109720200I931111J-285550D01*
G01*
X124595101Y-109720200D02*
G75*
G03*
X124854600Y-109927800I281829J86299D01*
G01*
X124595100Y-104632800D02*
G75*
G03*
X124595100Y-105203900I931111J-285550D01*
G01*
X124854600Y-108007000D02*
G75*
G03*
X124647000Y-108214600I1J-207601D01*
G01*
X128903900Y-108214700D02*
G75*
G03*
X129111501Y-108006999I-12099J219694D01*
G01*
X129111503Y-106346000D02*
G75*
G03*
X128903900Y-106138300I-219601J-11895D01*
G01*
X124854599Y-108941499D02*
G75*
G03*
X124595100Y-109149100I22331J-293899D01*
G01*
X124854600Y-104425199D02*
G75*
G03*
X124595100Y-104632800I22330J-293900D01*
G01*
X124647000Y-106138400D02*
G75*
G03*
X124854600Y-106346000I207601J1D01*
G01*
X124647000Y-108214700D02*
G75*
G03*
X124854600Y-108422300I207601J1D01*
G01*
D14*
%TO.C,U$2*%
X139591100Y-100996600D02*
X140591100Y-100996600D01*
X140591100Y-103196600D02*
X139591100Y-103196600D01*
D15*
X139966100Y-101446600D02*
G75*
G03*
X139966100Y-101446600I-75000J0D01*
G01*
%TO.C,LED4*%
G36*
X140853100Y-95617600D02*
G01*
X140603100Y-95617600D01*
X140603100Y-95367600D01*
X140853100Y-95367600D01*
X140853100Y-95617600D01*
G37*
D13*
%TO.C,U$1*%
X153886100Y-110549600D02*
X154386100Y-110049600D01*
X147640100Y-104303600D02*
X147640100Y-110049600D01*
X147640100Y-110049600D02*
X148140100Y-110549600D01*
X154386100Y-104303600D02*
X153886100Y-103803600D01*
X148140100Y-103803600D02*
X147640100Y-104303600D01*
X154386100Y-110049600D02*
X154386100Y-104303600D01*
X148140100Y-110549600D02*
X153886100Y-110549600D01*
X153886100Y-103803600D02*
X148140100Y-103803600D01*
X154013100Y-109676600D02*
G75*
G03*
X154013100Y-109676600I-500000J0D01*
G01*
%TO.C,JP1*%
X137043100Y-95492600D02*
X136789100Y-95238600D01*
X137043100Y-97524600D02*
X137043100Y-95492600D01*
X134503100Y-97524600D02*
X134249100Y-97778600D01*
X137043100Y-97524600D02*
X136789100Y-97778600D01*
X132217100Y-95238600D02*
X131963100Y-95492600D01*
X132217100Y-95238600D02*
X134249100Y-95238600D01*
X132217100Y-97778600D02*
X131963100Y-97524600D01*
X131963100Y-95492600D02*
X131963100Y-97524600D01*
X134757100Y-95238600D02*
X136789100Y-95238600D01*
X134503100Y-95492600D02*
X134249100Y-95238600D01*
X132217100Y-97778600D02*
X134249100Y-97778600D01*
X134757100Y-97778600D02*
X136789100Y-97778600D01*
X134503100Y-97524600D02*
X134757100Y-97778600D01*
X134503100Y-95492600D02*
X134757100Y-95238600D01*
%TO.C,LED2*%
G36*
X140853100Y-99681600D02*
G01*
X140603100Y-99681600D01*
X140603100Y-99431600D01*
X140853100Y-99431600D01*
X140853100Y-99681600D01*
G37*
%TO.C,Q1*%
X160411100Y-109716600D02*
X161935100Y-109716600D01*
X161935100Y-109716600D02*
X161935100Y-110224600D01*
D16*
X163332100Y-113018600D02*
X163332100Y-106922600D01*
D13*
X161173100Y-110605600D02*
X161935100Y-110605600D01*
X161935100Y-110224600D02*
X160411100Y-110224600D01*
X162824100Y-113018600D02*
X162824100Y-106922600D01*
X161173100Y-109335600D02*
X161935100Y-109335600D01*
X161173100Y-109335600D02*
X161173100Y-108700600D01*
X160411100Y-109335600D02*
X161173100Y-109335600D01*
X159522100Y-106922600D02*
X159522100Y-113018600D01*
D16*
X159014100Y-113018600D02*
X159014100Y-106922600D01*
D13*
X160411100Y-110224600D02*
X160411100Y-109716600D01*
X161173100Y-110605600D02*
X161173100Y-111240600D01*
X160411100Y-110605600D02*
X161173100Y-110605600D01*
D16*
X159014100Y-113018600D02*
G75*
G03*
X163332100Y-113018600I2159000J0D01*
G01*
D13*
X162824100Y-106922600D02*
G75*
G03*
X159522100Y-106922600I-1651000J0D01*
G01*
D16*
X163332100Y-106922600D02*
G75*
G03*
X159014100Y-106922600I-2159000J0D01*
G01*
D13*
X159522100Y-113018600D02*
G75*
G03*
X162824100Y-113018600I1651000J0D01*
G01*
%TD*%
M02*
