%TF.GenerationSoftware,KiCad,Pcbnew,(6.0.7)*%
%TF.CreationDate,2022-08-30T17:29:13+02:00*%
%TF.ProjectId,bmp_entropia,626d705f-656e-4747-926f-7069612e6b69,rev?*%
%TF.SameCoordinates,Original*%
%TF.FileFunction,Copper,L2,Bot*%
%TF.FilePolarity,Positive*%
%FSLAX46Y46*%
G04 Gerber Fmt 4.6, Leading zero omitted, Abs format (unit mm)*
G04 Created by KiCad (PCBNEW (6.0.7)) date 2022-08-30 17:29:13*
%MOMM*%
%LPD*%
G01*
G04 APERTURE LIST*
G04 Aperture macros list*
%AMOutline5P*
0 Free polygon, 5 corners , with rotation*
0 The origin of the aperture is its center*
0 number of corners: always 5*
0 $1 to $10 corner X, Y*
0 $11 Rotation angle, in degrees counterclockwise*
0 create outline with 5 corners*
4,1,5,$1,$2,$3,$4,$5,$6,$7,$8,$9,$10,$1,$2,$11*%
%AMOutline6P*
0 Free polygon, 6 corners , with rotation*
0 The origin of the aperture is its center*
0 number of corners: always 6*
0 $1 to $12 corner X, Y*
0 $13 Rotation angle, in degrees counterclockwise*
0 create outline with 6 corners*
4,1,6,$1,$2,$3,$4,$5,$6,$7,$8,$9,$10,$11,$12,$1,$2,$13*%
%AMOutline7P*
0 Free polygon, 7 corners , with rotation*
0 The origin of the aperture is its center*
0 number of corners: always 7*
0 $1 to $14 corner X, Y*
0 $15 Rotation angle, in degrees counterclockwise*
0 create outline with 7 corners*
4,1,7,$1,$2,$3,$4,$5,$6,$7,$8,$9,$10,$11,$12,$13,$14,$1,$2,$15*%
%AMOutline8P*
0 Free polygon, 8 corners , with rotation*
0 The origin of the aperture is its center*
0 number of corners: always 8*
0 $1 to $16 corner X, Y*
0 $17 Rotation angle, in degrees counterclockwise*
0 create outline with 8 corners*
4,1,8,$1,$2,$3,$4,$5,$6,$7,$8,$9,$10,$11,$12,$13,$14,$15,$16,$1,$2,$17*%
G04 Aperture macros list end*
%TA.AperFunction,ComponentPad*%
%ADD10O,1.422400X2.844800*%
%TD*%
%TA.AperFunction,ComponentPad*%
%ADD11Outline8P,-0.711200X0.294589X-0.294589X0.711200X0.294589X0.711200X0.711200X0.294589X0.711200X-0.294589X0.294589X-0.711200X-0.294589X-0.711200X-0.711200X-0.294589X90.000000*%
%TD*%
%TA.AperFunction,ComponentPad*%
%ADD12O,1.320800X2.641600*%
%TD*%
%TA.AperFunction,ComponentPad*%
%ADD13C,1.219200*%
%TD*%
%TA.AperFunction,SMDPad,CuDef*%
%ADD14R,1.000000X1.100000*%
%TD*%
%TA.AperFunction,SMDPad,CuDef*%
%ADD15R,1.100000X1.000000*%
%TD*%
%TA.AperFunction,ViaPad*%
%ADD16C,0.904800*%
%TD*%
%TA.AperFunction,Conductor*%
%ADD17C,0.406400*%
%TD*%
%TA.AperFunction,Conductor*%
%ADD18C,0.304800*%
%TD*%
G04 APERTURE END LIST*
D10*
%TO.P,SV1,4*%
%TO.N,+3V3*%
X143139100Y-113272600D03*
%TO.P,SV1,3*%
%TO.N,TXD*%
X140599100Y-113272600D03*
%TO.P,SV1,2*%
%TO.N,RXD*%
X138059100Y-113272600D03*
%TO.P,SV1,1*%
%TO.N,GND*%
X135519100Y-113272600D03*
%TD*%
D11*
%TO.P,SV2,1*%
%TO.N,TPWR*%
X169301100Y-111240600D03*
%TO.P,SV2,2*%
%TO.N,TMS*%
X166761100Y-111240600D03*
%TO.P,SV2,3*%
%TO.N,GND*%
X169301100Y-108700600D03*
%TO.P,SV2,4*%
%TO.N,TCK*%
X166761100Y-108700600D03*
%TO.P,SV2,5*%
%TO.N,N/C*%
X169301100Y-106160600D03*
%TO.P,SV2,6*%
%TO.N,TDO*%
X166761100Y-106160600D03*
%TO.P,SV2,7*%
%TO.N,GND*%
X169301100Y-103620600D03*
%TO.P,SV2,8*%
%TO.N,TDI*%
X166761100Y-103620600D03*
%TO.P,SV2,9*%
%TO.N,GND*%
X169301100Y-101080600D03*
%TO.P,SV2,10*%
%TO.N,RST*%
X166761100Y-101080600D03*
%TD*%
D12*
%TO.P,JP1,1*%
%TO.N,TASTER*%
X135773100Y-96508600D03*
%TO.P,JP1,2*%
%TO.N,GND*%
X133233100Y-96508600D03*
%TD*%
D13*
%TO.P,Q1,1*%
%TO.N,OSC_IN*%
X161173100Y-112383600D03*
%TO.P,Q1,2*%
%TO.N,OSC_OUT*%
X161173100Y-107557600D03*
%TD*%
D14*
%TO.P,R13,1*%
%TO.N,+5V*%
X140257100Y-104890600D03*
%TO.P,R13,2*%
%TO.N,VBUS*%
X141957100Y-104890600D03*
%TD*%
%TO.P,C2,1*%
%TO.N,GND*%
X163205100Y-109296600D03*
%TO.P,C2,2*%
%TO.N,OSC_OUT*%
X163205100Y-107596600D03*
%TD*%
%TO.P,C1,1*%
%TO.N,GND*%
X163205100Y-114122600D03*
%TO.P,C1,2*%
%TO.N,OSC_IN*%
X163205100Y-112422600D03*
%TD*%
%TO.P,R14,1*%
%TO.N,TASTER*%
X147369100Y-103366600D03*
%TO.P,R14,2*%
%TO.N,+3V3*%
X149069100Y-103366600D03*
%TD*%
D15*
%TO.P,R12,1*%
%TO.N,GND*%
X142123100Y-101500600D03*
%TO.P,R12,2*%
%TO.N,VBUS*%
X142123100Y-103200600D03*
%TD*%
D16*
%TO.N,GND*%
X163713100Y-100826600D03*
X151775100Y-97270600D03*
X138313100Y-100064600D03*
X151521100Y-104636600D03*
X170063100Y-95746600D03*
X135519100Y-110224600D03*
X152537100Y-114288600D03*
X151521100Y-109462600D03*
X138567100Y-97778600D03*
X149997100Y-95238600D03*
X153299100Y-107684600D03*
X168031100Y-114034600D03*
%TO.N,+3V3*%
X146441100Y-112510600D03*
X151521100Y-107684600D03*
X161935100Y-99556600D03*
%TO.N,+5V*%
X138821100Y-104128600D03*
%TO.N,RST*%
X155331100Y-103620600D03*
%TO.N,TDI*%
X157871100Y-103112600D03*
%TO.N,TASTER*%
X145425100Y-103366600D03*
%TO.N,VBUS*%
X144663100Y-105398600D03*
%TD*%
D17*
%TO.N,+3V3*%
X150251100Y-103366600D02*
X150251100Y-106414600D01*
X151775100Y-95746600D02*
X150251100Y-97270600D01*
X161935100Y-97016600D02*
X160665100Y-95746600D01*
X146695100Y-112510600D02*
X151521100Y-107684600D01*
X146441100Y-112510600D02*
X145679100Y-113272600D01*
X146441100Y-112510600D02*
X146695100Y-112510600D01*
X160665100Y-95746600D02*
X151775100Y-95746600D01*
X149069100Y-103366600D02*
X150251100Y-103366600D01*
X150251100Y-97270600D02*
X150251100Y-103366600D01*
X150251100Y-106414600D02*
X151521100Y-107684600D01*
X145679100Y-113272600D02*
X143139100Y-113272600D01*
X161935100Y-99556600D02*
X161935100Y-97016600D01*
D18*
%TO.N,OSC_OUT*%
X161212100Y-107596600D02*
X161173100Y-107557600D01*
X163205100Y-107596600D02*
X161212100Y-107596600D01*
%TO.N,OSC_IN*%
X163205100Y-112422600D02*
X161212100Y-112422600D01*
X161212100Y-112422600D02*
X161173100Y-112383600D01*
%TO.N,+5V*%
X139583100Y-104890600D02*
X138821100Y-104128600D01*
X140257100Y-104890600D02*
X139583100Y-104890600D01*
%TO.N,RST*%
X156347100Y-103620600D02*
X155331100Y-103620600D01*
X168031100Y-102350600D02*
X166761100Y-101080600D01*
X167523100Y-104890600D02*
X168031100Y-104382600D01*
X167523100Y-104890600D02*
X157617100Y-104890600D01*
X168031100Y-104382600D02*
X168031100Y-102350600D01*
X157617100Y-104890600D02*
X156347100Y-103620600D01*
%TO.N,TDI*%
X157871100Y-103112600D02*
X158379100Y-103620600D01*
X158379100Y-103620600D02*
X166761100Y-103620600D01*
%TO.N,TASTER*%
X137297100Y-99048600D02*
X142885100Y-99048600D01*
X135773100Y-96508600D02*
X135773100Y-97524600D01*
X142885100Y-99048600D02*
X145425100Y-101588600D01*
X145425100Y-103366600D02*
X147369100Y-103366600D01*
X135773100Y-97524600D02*
X137297100Y-99048600D01*
X145425100Y-101588600D02*
X145425100Y-103366600D01*
%TO.N,VBUS*%
X143393100Y-104890600D02*
X143901100Y-105398600D01*
X141957100Y-103366600D02*
X142123100Y-103200600D01*
X141957100Y-104890600D02*
X141957100Y-103366600D01*
X141957100Y-104890600D02*
X143393100Y-104890600D01*
X144663100Y-105398600D02*
X143901100Y-105398600D01*
%TD*%
%TA.AperFunction,Conductor*%
%TO.N,GND*%
G36*
X172873014Y-93472686D02*
G01*
X172887600Y-93507900D01*
X172887600Y-116499300D01*
X172873014Y-116534514D01*
X172837800Y-116549100D01*
X124164400Y-116549100D01*
X124129186Y-116534514D01*
X124114600Y-116499300D01*
X124114600Y-114031512D01*
X134554700Y-114031512D01*
X134554827Y-114034020D01*
X134569270Y-114176206D01*
X134570281Y-114181133D01*
X134627359Y-114363268D01*
X134629338Y-114367885D01*
X134721874Y-114534825D01*
X134724741Y-114538950D01*
X134848966Y-114683885D01*
X134852587Y-114687333D01*
X135003416Y-114804329D01*
X135007678Y-114806992D01*
X135178935Y-114891261D01*
X135183646Y-114893013D01*
X135368357Y-114941127D01*
X135373320Y-114941895D01*
X135382608Y-114942382D01*
X135389030Y-114940107D01*
X135392500Y-114932314D01*
X135392500Y-114930126D01*
X135645700Y-114930126D01*
X135648601Y-114937131D01*
X135652956Y-114938935D01*
X135757676Y-114923097D01*
X135762544Y-114921847D01*
X135941679Y-114855939D01*
X135946187Y-114853740D01*
X136108419Y-114753152D01*
X136112392Y-114750092D01*
X136251076Y-114618944D01*
X136254358Y-114615142D01*
X136363843Y-114458782D01*
X136366289Y-114454405D01*
X136442096Y-114279226D01*
X136443613Y-114274443D01*
X136482775Y-114086991D01*
X136483264Y-114083225D01*
X136483466Y-114079357D01*
X136483500Y-114078068D01*
X136483500Y-114030701D01*
X137195000Y-114030701D01*
X137210181Y-114170447D01*
X137270064Y-114348386D01*
X137366760Y-114509315D01*
X137368615Y-114511276D01*
X137368616Y-114511278D01*
X137493900Y-114643762D01*
X137493903Y-114643765D01*
X137495757Y-114645725D01*
X137651038Y-114751254D01*
X137653537Y-114752254D01*
X137653538Y-114752254D01*
X137822855Y-114819976D01*
X137822858Y-114819977D01*
X137825356Y-114820976D01*
X137917968Y-114836308D01*
X138007920Y-114851200D01*
X138007923Y-114851200D01*
X138010580Y-114851640D01*
X138013270Y-114851499D01*
X138018976Y-114851200D01*
X138198068Y-114841814D01*
X138200662Y-114841099D01*
X138200665Y-114841099D01*
X138288570Y-114816886D01*
X138379072Y-114791957D01*
X138452672Y-114753152D01*
X138542759Y-114705655D01*
X138542762Y-114705653D01*
X138545148Y-114704395D01*
X138688547Y-114583214D01*
X138802578Y-114434066D01*
X138881923Y-114263912D01*
X138885212Y-114249200D01*
X138922432Y-114082682D01*
X138922878Y-114080688D01*
X138923200Y-114074929D01*
X138923200Y-114030701D01*
X139735000Y-114030701D01*
X139750181Y-114170447D01*
X139810064Y-114348386D01*
X139906760Y-114509315D01*
X139908615Y-114511276D01*
X139908616Y-114511278D01*
X140033900Y-114643762D01*
X140033903Y-114643765D01*
X140035757Y-114645725D01*
X140191038Y-114751254D01*
X140193537Y-114752254D01*
X140193538Y-114752254D01*
X140362855Y-114819976D01*
X140362858Y-114819977D01*
X140365356Y-114820976D01*
X140457968Y-114836308D01*
X140547920Y-114851200D01*
X140547923Y-114851200D01*
X140550580Y-114851640D01*
X140553270Y-114851499D01*
X140558976Y-114851200D01*
X140738068Y-114841814D01*
X140740662Y-114841099D01*
X140740665Y-114841099D01*
X140828570Y-114816886D01*
X140919072Y-114791957D01*
X140992672Y-114753152D01*
X141082759Y-114705655D01*
X141082762Y-114705653D01*
X141085148Y-114704395D01*
X141228547Y-114583214D01*
X141342578Y-114434066D01*
X141421923Y-114263912D01*
X141425212Y-114249200D01*
X141462432Y-114082682D01*
X141462878Y-114080688D01*
X141463200Y-114074929D01*
X141463200Y-114030701D01*
X142275000Y-114030701D01*
X142290181Y-114170447D01*
X142350064Y-114348386D01*
X142446760Y-114509315D01*
X142448615Y-114511276D01*
X142448616Y-114511278D01*
X142573900Y-114643762D01*
X142573903Y-114643765D01*
X142575757Y-114645725D01*
X142731038Y-114751254D01*
X142733537Y-114752254D01*
X142733538Y-114752254D01*
X142902855Y-114819976D01*
X142902858Y-114819977D01*
X142905356Y-114820976D01*
X142997968Y-114836308D01*
X143087920Y-114851200D01*
X143087923Y-114851200D01*
X143090580Y-114851640D01*
X143093270Y-114851499D01*
X143098976Y-114851200D01*
X143278068Y-114841814D01*
X143280662Y-114841099D01*
X143280665Y-114841099D01*
X143368570Y-114816886D01*
X143459072Y-114791957D01*
X143532672Y-114753152D01*
X143622759Y-114705655D01*
X143622762Y-114705653D01*
X143625148Y-114704395D01*
X143636159Y-114695090D01*
X162451900Y-114695090D01*
X162452377Y-114699936D01*
X162465634Y-114766582D01*
X162469317Y-114775473D01*
X162519826Y-114851066D01*
X162526634Y-114857874D01*
X162602227Y-114908383D01*
X162611118Y-114912066D01*
X162677764Y-114925323D01*
X162682610Y-114925800D01*
X163068594Y-114925800D01*
X163075599Y-114922899D01*
X163078500Y-114915894D01*
X163331700Y-114915894D01*
X163334601Y-114922899D01*
X163341606Y-114925800D01*
X163727590Y-114925800D01*
X163732436Y-114925323D01*
X163799082Y-114912066D01*
X163807973Y-114908383D01*
X163883566Y-114857874D01*
X163890374Y-114851066D01*
X163940883Y-114775473D01*
X163944566Y-114766582D01*
X163957823Y-114699936D01*
X163958300Y-114695090D01*
X163958300Y-114259106D01*
X163955399Y-114252101D01*
X163948394Y-114249200D01*
X163341606Y-114249200D01*
X163334601Y-114252101D01*
X163331700Y-114259106D01*
X163331700Y-114915894D01*
X163078500Y-114915894D01*
X163078500Y-114259106D01*
X163075599Y-114252101D01*
X163068594Y-114249200D01*
X162461806Y-114249200D01*
X162454801Y-114252101D01*
X162451900Y-114259106D01*
X162451900Y-114695090D01*
X143636159Y-114695090D01*
X143768547Y-114583214D01*
X143882578Y-114434066D01*
X143961923Y-114263912D01*
X143965212Y-114249200D01*
X144002432Y-114082682D01*
X144002878Y-114080688D01*
X144003200Y-114074929D01*
X144003200Y-113986094D01*
X162451900Y-113986094D01*
X162454801Y-113993099D01*
X162461806Y-113996000D01*
X163068594Y-113996000D01*
X163075599Y-113993099D01*
X163078500Y-113986094D01*
X163331700Y-113986094D01*
X163334601Y-113993099D01*
X163341606Y-113996000D01*
X163948394Y-113996000D01*
X163955399Y-113993099D01*
X163958300Y-113986094D01*
X163958300Y-113550110D01*
X163957823Y-113545264D01*
X163944566Y-113478618D01*
X163940883Y-113469727D01*
X163890374Y-113394134D01*
X163883566Y-113387326D01*
X163807973Y-113336817D01*
X163799082Y-113333134D01*
X163732436Y-113319877D01*
X163727590Y-113319400D01*
X163341606Y-113319400D01*
X163334601Y-113322301D01*
X163331700Y-113329306D01*
X163331700Y-113986094D01*
X163078500Y-113986094D01*
X163078500Y-113329306D01*
X163075599Y-113322301D01*
X163068594Y-113319400D01*
X162682610Y-113319400D01*
X162677764Y-113319877D01*
X162611118Y-113333134D01*
X162602227Y-113336817D01*
X162526634Y-113387326D01*
X162519826Y-113394134D01*
X162469317Y-113469727D01*
X162465634Y-113478618D01*
X162452377Y-113545264D01*
X162451900Y-113550110D01*
X162451900Y-113986094D01*
X144003200Y-113986094D01*
X144003200Y-113678500D01*
X144017786Y-113643286D01*
X144053000Y-113628700D01*
X145635782Y-113628700D01*
X145646264Y-113629816D01*
X145658065Y-113632357D01*
X145658066Y-113632357D01*
X145662093Y-113633224D01*
X145666182Y-113632740D01*
X145666183Y-113632740D01*
X145697401Y-113629045D01*
X145703254Y-113628700D01*
X145708684Y-113628700D01*
X145710713Y-113628362D01*
X145710717Y-113628362D01*
X145728114Y-113625466D01*
X145730434Y-113625135D01*
X145779822Y-113619290D01*
X145783534Y-113617508D01*
X145787487Y-113616359D01*
X145787563Y-113616621D01*
X145788173Y-113616428D01*
X145788085Y-113616170D01*
X145791982Y-113614836D01*
X145796042Y-113614160D01*
X145839816Y-113590541D01*
X145841834Y-113589512D01*
X145886690Y-113567972D01*
X145890700Y-113564601D01*
X145890743Y-113564652D01*
X145893672Y-113562568D01*
X145893498Y-113562343D01*
X145896749Y-113559821D01*
X145900374Y-113557865D01*
X145935623Y-113519733D01*
X145936978Y-113518323D01*
X146329251Y-113126050D01*
X146364465Y-113111464D01*
X146370965Y-113111890D01*
X146437864Y-113120697D01*
X146441100Y-113121123D01*
X146599115Y-113100320D01*
X146675928Y-113068503D01*
X146743343Y-113040579D01*
X146743346Y-113040577D01*
X146746362Y-113039328D01*
X146872805Y-112942305D01*
X146969828Y-112815861D01*
X147000222Y-112742486D01*
X147020053Y-112694609D01*
X147030848Y-112678453D01*
X147336415Y-112372886D01*
X160405850Y-112372886D01*
X160406122Y-112375659D01*
X160419605Y-112513167D01*
X160422543Y-112543136D01*
X160423422Y-112545777D01*
X160423422Y-112545779D01*
X160443150Y-112605083D01*
X160476540Y-112705456D01*
X160565156Y-112851780D01*
X160567092Y-112853785D01*
X160567093Y-112853786D01*
X160682057Y-112972834D01*
X160682060Y-112972836D01*
X160683989Y-112974834D01*
X160686311Y-112976353D01*
X160686314Y-112976356D01*
X160764385Y-113027444D01*
X160827130Y-113068503D01*
X160987467Y-113128132D01*
X161157030Y-113150757D01*
X161159799Y-113150505D01*
X161159801Y-113150505D01*
X161324623Y-113135505D01*
X161327392Y-113135253D01*
X161441858Y-113098060D01*
X161487442Y-113083249D01*
X161487444Y-113083248D01*
X161490085Y-113082390D01*
X161560224Y-113040579D01*
X161634633Y-112996223D01*
X161634637Y-112996220D01*
X161637024Y-112994797D01*
X161639036Y-112992881D01*
X161639040Y-112992878D01*
X161758892Y-112878744D01*
X161760905Y-112876827D01*
X161762442Y-112874513D01*
X161762445Y-112874510D01*
X161845075Y-112750141D01*
X161876711Y-112728882D01*
X161886554Y-112727900D01*
X162502401Y-112727900D01*
X162537615Y-112742486D01*
X162552201Y-112777700D01*
X162552201Y-112987656D01*
X162552678Y-112990053D01*
X162552678Y-112990056D01*
X162553621Y-112994797D01*
X162561072Y-113032258D01*
X162594866Y-113082834D01*
X162645442Y-113116628D01*
X162650251Y-113117585D01*
X162650252Y-113117585D01*
X162687644Y-113125023D01*
X162687646Y-113125023D01*
X162690043Y-113125500D01*
X163204994Y-113125500D01*
X163720156Y-113125499D01*
X163722553Y-113125022D01*
X163722556Y-113125022D01*
X163738335Y-113121883D01*
X163764758Y-113116628D01*
X163772487Y-113111464D01*
X163811256Y-113085559D01*
X163815334Y-113082834D01*
X163849128Y-113032258D01*
X163856580Y-112994797D01*
X163857523Y-112990056D01*
X163857523Y-112990054D01*
X163858000Y-112987657D01*
X163857999Y-111857544D01*
X163849128Y-111812942D01*
X163827710Y-111780887D01*
X163818059Y-111766444D01*
X163815334Y-111762366D01*
X163800611Y-111752528D01*
X163779179Y-111738208D01*
X163764758Y-111728572D01*
X163759949Y-111727615D01*
X163759948Y-111727615D01*
X163722556Y-111720177D01*
X163722554Y-111720177D01*
X163720157Y-111719700D01*
X163205206Y-111719700D01*
X162690044Y-111719701D01*
X162687647Y-111720178D01*
X162687644Y-111720178D01*
X162671865Y-111723317D01*
X162645442Y-111728572D01*
X162641364Y-111731297D01*
X162641362Y-111731298D01*
X162608519Y-111753243D01*
X162594866Y-111762366D01*
X162592141Y-111766444D01*
X162582491Y-111780887D01*
X162561072Y-111812942D01*
X162560115Y-111817751D01*
X162560115Y-111817752D01*
X162555530Y-111840805D01*
X162552200Y-111857543D01*
X162552200Y-112067500D01*
X162537614Y-112102714D01*
X162502400Y-112117300D01*
X161923212Y-112117300D01*
X161887998Y-112102714D01*
X161876182Y-112083877D01*
X161874447Y-112078895D01*
X161865099Y-112052050D01*
X161836480Y-112006250D01*
X161775923Y-111909338D01*
X161775922Y-111909336D01*
X161774448Y-111906978D01*
X161653909Y-111785594D01*
X161651568Y-111784108D01*
X161651565Y-111784106D01*
X161511824Y-111695425D01*
X161509473Y-111693933D01*
X161506850Y-111692999D01*
X161506846Y-111692997D01*
X161350942Y-111637483D01*
X161348319Y-111636549D01*
X161178457Y-111616294D01*
X161175688Y-111616585D01*
X161175686Y-111616585D01*
X161011095Y-111633884D01*
X161011093Y-111633884D01*
X161008328Y-111634175D01*
X161005698Y-111635070D01*
X161005695Y-111635071D01*
X160849026Y-111688406D01*
X160849024Y-111688407D01*
X160846389Y-111689304D01*
X160844019Y-111690762D01*
X160844017Y-111690763D01*
X160836439Y-111695425D01*
X160700688Y-111778940D01*
X160578466Y-111898628D01*
X160576959Y-111900967D01*
X160576957Y-111900969D01*
X160488518Y-112038199D01*
X160485798Y-112042420D01*
X160484847Y-112045033D01*
X160484846Y-112045035D01*
X160430443Y-112194508D01*
X160427290Y-112203170D01*
X160426942Y-112205925D01*
X160426941Y-112205929D01*
X160406199Y-112370122D01*
X160405850Y-112372886D01*
X147336415Y-112372886D01*
X148158982Y-111550319D01*
X165897000Y-111550319D01*
X165905975Y-111595099D01*
X165908699Y-111599168D01*
X165929731Y-111630586D01*
X165929735Y-111630591D01*
X165931086Y-111632609D01*
X166369091Y-112070612D01*
X166407104Y-112095932D01*
X166435713Y-112101597D01*
X166448995Y-112104227D01*
X166448997Y-112104227D01*
X166451385Y-112104700D01*
X167070819Y-112104700D01*
X167115599Y-112095725D01*
X167122963Y-112090795D01*
X167151086Y-112071969D01*
X167151091Y-112071965D01*
X167153109Y-112070614D01*
X167591112Y-111632609D01*
X167601760Y-111616624D01*
X167613715Y-111598675D01*
X167616432Y-111594596D01*
X167625199Y-111550319D01*
X168437000Y-111550319D01*
X168445975Y-111595099D01*
X168448699Y-111599168D01*
X168469731Y-111630586D01*
X168469735Y-111630591D01*
X168471086Y-111632609D01*
X168909091Y-112070612D01*
X168947104Y-112095932D01*
X168975713Y-112101597D01*
X168988995Y-112104227D01*
X168988997Y-112104227D01*
X168991385Y-112104700D01*
X169610819Y-112104700D01*
X169655599Y-112095725D01*
X169662963Y-112090795D01*
X169691086Y-112071969D01*
X169691091Y-112071965D01*
X169693109Y-112070614D01*
X170131112Y-111632609D01*
X170141760Y-111616624D01*
X170153715Y-111598675D01*
X170156432Y-111594596D01*
X170165200Y-111550315D01*
X170165200Y-110930881D01*
X170156225Y-110886101D01*
X170132492Y-110850649D01*
X170132469Y-110850614D01*
X170132465Y-110850609D01*
X170131114Y-110848591D01*
X169693109Y-110410588D01*
X169655096Y-110385268D01*
X169626487Y-110379603D01*
X169613205Y-110376973D01*
X169613203Y-110376973D01*
X169610815Y-110376500D01*
X168991381Y-110376500D01*
X168946601Y-110385475D01*
X168942532Y-110388199D01*
X168911114Y-110409231D01*
X168911109Y-110409235D01*
X168909091Y-110410586D01*
X168471088Y-110848591D01*
X168445768Y-110886604D01*
X168437000Y-110930885D01*
X168437000Y-111550319D01*
X167625199Y-111550319D01*
X167625200Y-111550315D01*
X167625200Y-110930881D01*
X167616225Y-110886101D01*
X167592492Y-110850649D01*
X167592469Y-110850614D01*
X167592465Y-110850609D01*
X167591114Y-110848591D01*
X167153109Y-110410588D01*
X167115096Y-110385268D01*
X167086487Y-110379603D01*
X167073205Y-110376973D01*
X167073203Y-110376973D01*
X167070815Y-110376500D01*
X166451381Y-110376500D01*
X166406601Y-110385475D01*
X166402532Y-110388199D01*
X166371114Y-110409231D01*
X166371109Y-110409235D01*
X166369091Y-110410586D01*
X165931088Y-110848591D01*
X165905768Y-110886604D01*
X165897000Y-110930885D01*
X165897000Y-111550319D01*
X148158982Y-111550319D01*
X149840211Y-109869090D01*
X162451900Y-109869090D01*
X162452377Y-109873936D01*
X162465634Y-109940582D01*
X162469317Y-109949473D01*
X162519826Y-110025066D01*
X162526634Y-110031874D01*
X162602227Y-110082383D01*
X162611118Y-110086066D01*
X162677764Y-110099323D01*
X162682610Y-110099800D01*
X163068594Y-110099800D01*
X163075599Y-110096899D01*
X163078500Y-110089894D01*
X163331700Y-110089894D01*
X163334601Y-110096899D01*
X163341606Y-110099800D01*
X163727590Y-110099800D01*
X163732436Y-110099323D01*
X163799082Y-110086066D01*
X163807973Y-110082383D01*
X163883566Y-110031874D01*
X163890374Y-110025066D01*
X163940883Y-109949473D01*
X163944566Y-109940582D01*
X163957823Y-109873936D01*
X163958300Y-109869090D01*
X163958300Y-109433106D01*
X163955399Y-109426101D01*
X163948394Y-109423200D01*
X163341606Y-109423200D01*
X163334601Y-109426101D01*
X163331700Y-109433106D01*
X163331700Y-110089894D01*
X163078500Y-110089894D01*
X163078500Y-109433106D01*
X163075599Y-109426101D01*
X163068594Y-109423200D01*
X162461806Y-109423200D01*
X162454801Y-109426101D01*
X162451900Y-109433106D01*
X162451900Y-109869090D01*
X149840211Y-109869090D01*
X150549207Y-109160094D01*
X162451900Y-109160094D01*
X162454801Y-109167099D01*
X162461806Y-109170000D01*
X163068594Y-109170000D01*
X163075599Y-109167099D01*
X163078500Y-109160094D01*
X163331700Y-109160094D01*
X163334601Y-109167099D01*
X163341606Y-109170000D01*
X163948394Y-109170000D01*
X163955399Y-109167099D01*
X163958300Y-109160094D01*
X163958300Y-109010319D01*
X165897000Y-109010319D01*
X165905975Y-109055099D01*
X165908699Y-109059168D01*
X165929731Y-109090586D01*
X165929735Y-109090591D01*
X165931086Y-109092609D01*
X166369091Y-109530612D01*
X166407104Y-109555932D01*
X166435713Y-109561597D01*
X166448995Y-109564227D01*
X166448997Y-109564227D01*
X166451385Y-109564700D01*
X167070819Y-109564700D01*
X167115599Y-109555725D01*
X167120342Y-109552550D01*
X167151086Y-109531969D01*
X167151091Y-109531965D01*
X167153109Y-109530614D01*
X167591112Y-109092609D01*
X167616432Y-109054596D01*
X167623724Y-109017769D01*
X168336700Y-109017769D01*
X168337185Y-109022656D01*
X168350603Y-109089597D01*
X168354289Y-109098467D01*
X168391796Y-109154494D01*
X168394872Y-109158239D01*
X168843444Y-109606813D01*
X168847235Y-109609919D01*
X168904058Y-109647766D01*
X168912937Y-109651432D01*
X168979071Y-109664527D01*
X168983900Y-109665000D01*
X169164594Y-109665000D01*
X169171599Y-109662099D01*
X169174500Y-109655094D01*
X169427700Y-109655094D01*
X169430601Y-109662099D01*
X169437606Y-109665000D01*
X169618269Y-109665000D01*
X169623156Y-109664515D01*
X169690097Y-109651097D01*
X169698967Y-109647411D01*
X169754994Y-109609904D01*
X169758739Y-109606828D01*
X170207313Y-109158256D01*
X170210419Y-109154465D01*
X170248266Y-109097642D01*
X170251932Y-109088763D01*
X170265027Y-109022629D01*
X170265500Y-109017800D01*
X170265500Y-108837106D01*
X170262599Y-108830101D01*
X170255594Y-108827200D01*
X169437606Y-108827200D01*
X169430601Y-108830101D01*
X169427700Y-108837106D01*
X169427700Y-109655094D01*
X169174500Y-109655094D01*
X169174500Y-108837106D01*
X169171599Y-108830101D01*
X169164594Y-108827200D01*
X168346606Y-108827200D01*
X168339601Y-108830101D01*
X168336700Y-108837106D01*
X168336700Y-109017769D01*
X167623724Y-109017769D01*
X167625200Y-109010315D01*
X167625200Y-108564094D01*
X168336700Y-108564094D01*
X168339601Y-108571099D01*
X168346606Y-108574000D01*
X169164594Y-108574000D01*
X169171599Y-108571099D01*
X169174500Y-108564094D01*
X169427700Y-108564094D01*
X169430601Y-108571099D01*
X169437606Y-108574000D01*
X170255594Y-108574000D01*
X170262599Y-108571099D01*
X170265500Y-108564094D01*
X170265500Y-108383431D01*
X170265015Y-108378544D01*
X170251597Y-108311603D01*
X170247911Y-108302733D01*
X170210404Y-108246706D01*
X170207328Y-108242961D01*
X169758756Y-107794387D01*
X169754965Y-107791281D01*
X169698142Y-107753434D01*
X169689263Y-107749768D01*
X169623129Y-107736673D01*
X169618300Y-107736200D01*
X169437606Y-107736200D01*
X169430601Y-107739101D01*
X169427700Y-107746106D01*
X169427700Y-108564094D01*
X169174500Y-108564094D01*
X169174500Y-107746106D01*
X169171599Y-107739101D01*
X169164594Y-107736200D01*
X168983931Y-107736200D01*
X168979044Y-107736685D01*
X168912103Y-107750103D01*
X168903233Y-107753789D01*
X168847206Y-107791296D01*
X168843461Y-107794372D01*
X168394887Y-108242944D01*
X168391781Y-108246735D01*
X168353934Y-108303558D01*
X168350268Y-108312437D01*
X168337173Y-108378571D01*
X168336700Y-108383400D01*
X168336700Y-108564094D01*
X167625200Y-108564094D01*
X167625200Y-108390881D01*
X167616225Y-108346101D01*
X167613050Y-108341358D01*
X167592469Y-108310614D01*
X167592465Y-108310609D01*
X167591114Y-108308591D01*
X167153109Y-107870588D01*
X167115096Y-107845268D01*
X167085350Y-107839378D01*
X167073205Y-107836973D01*
X167073203Y-107836973D01*
X167070815Y-107836500D01*
X166451381Y-107836500D01*
X166406601Y-107845475D01*
X166402532Y-107848199D01*
X166371114Y-107869231D01*
X166371109Y-107869235D01*
X166369091Y-107870586D01*
X165931088Y-108308591D01*
X165905768Y-108346604D01*
X165897000Y-108390885D01*
X165897000Y-109010319D01*
X163958300Y-109010319D01*
X163958300Y-108724110D01*
X163957823Y-108719264D01*
X163944566Y-108652618D01*
X163940883Y-108643727D01*
X163890374Y-108568134D01*
X163883566Y-108561326D01*
X163807973Y-108510817D01*
X163799082Y-108507134D01*
X163732436Y-108493877D01*
X163727590Y-108493400D01*
X163341606Y-108493400D01*
X163334601Y-108496301D01*
X163331700Y-108503306D01*
X163331700Y-109160094D01*
X163078500Y-109160094D01*
X163078500Y-108503306D01*
X163075599Y-108496301D01*
X163068594Y-108493400D01*
X162682610Y-108493400D01*
X162677764Y-108493877D01*
X162611118Y-108507134D01*
X162602227Y-108510817D01*
X162526634Y-108561326D01*
X162519826Y-108568134D01*
X162469317Y-108643727D01*
X162465634Y-108652618D01*
X162452377Y-108719264D01*
X162451900Y-108724110D01*
X162451900Y-109160094D01*
X150549207Y-109160094D01*
X151409251Y-108300050D01*
X151444465Y-108285464D01*
X151450965Y-108285890D01*
X151517864Y-108294697D01*
X151521100Y-108295123D01*
X151679115Y-108274320D01*
X151755928Y-108242503D01*
X151823343Y-108214579D01*
X151823346Y-108214577D01*
X151826362Y-108213328D01*
X151952805Y-108116305D01*
X152049828Y-107989861D01*
X152077051Y-107924141D01*
X152098509Y-107872335D01*
X152110820Y-107842615D01*
X152131623Y-107684600D01*
X152113493Y-107546886D01*
X160405850Y-107546886D01*
X160406122Y-107549659D01*
X160419036Y-107681364D01*
X160422543Y-107717136D01*
X160423422Y-107719777D01*
X160423422Y-107719779D01*
X160443150Y-107779083D01*
X160476540Y-107879456D01*
X160565156Y-108025780D01*
X160567092Y-108027785D01*
X160567093Y-108027786D01*
X160682057Y-108146834D01*
X160682060Y-108146836D01*
X160683989Y-108148834D01*
X160686311Y-108150353D01*
X160686314Y-108150356D01*
X160764385Y-108201444D01*
X160827130Y-108242503D01*
X160987467Y-108302132D01*
X161157030Y-108324757D01*
X161159799Y-108324505D01*
X161159801Y-108324505D01*
X161324623Y-108309505D01*
X161327392Y-108309253D01*
X161441858Y-108272060D01*
X161487442Y-108257249D01*
X161487444Y-108257248D01*
X161490085Y-108256390D01*
X161560224Y-108214579D01*
X161634633Y-108170223D01*
X161634637Y-108170220D01*
X161637024Y-108168797D01*
X161639036Y-108166881D01*
X161639040Y-108166878D01*
X161758892Y-108052744D01*
X161760905Y-108050827D01*
X161762442Y-108048513D01*
X161762445Y-108048510D01*
X161845075Y-107924141D01*
X161876711Y-107902882D01*
X161886554Y-107901900D01*
X162502401Y-107901900D01*
X162537615Y-107916486D01*
X162552201Y-107951700D01*
X162552201Y-108161656D01*
X162552678Y-108164053D01*
X162552678Y-108164056D01*
X162553621Y-108168797D01*
X162561072Y-108206258D01*
X162563797Y-108210336D01*
X162563798Y-108210338D01*
X162588118Y-108246735D01*
X162594866Y-108256834D01*
X162645442Y-108290628D01*
X162650251Y-108291585D01*
X162650252Y-108291585D01*
X162687644Y-108299023D01*
X162687646Y-108299023D01*
X162690043Y-108299500D01*
X163204994Y-108299500D01*
X163720156Y-108299499D01*
X163722553Y-108299022D01*
X163722556Y-108299022D01*
X163738335Y-108295883D01*
X163764758Y-108290628D01*
X163772487Y-108285464D01*
X163811256Y-108259559D01*
X163815334Y-108256834D01*
X163849128Y-108206258D01*
X163856580Y-108168797D01*
X163857523Y-108164056D01*
X163857523Y-108164054D01*
X163858000Y-108161657D01*
X163857999Y-107031544D01*
X163856542Y-107024215D01*
X163854383Y-107013365D01*
X163849128Y-106986942D01*
X163827710Y-106954887D01*
X163818059Y-106940444D01*
X163815334Y-106936366D01*
X163764758Y-106902572D01*
X163759949Y-106901615D01*
X163759948Y-106901615D01*
X163722556Y-106894177D01*
X163722554Y-106894177D01*
X163720157Y-106893700D01*
X163205206Y-106893700D01*
X162690044Y-106893701D01*
X162687647Y-106894178D01*
X162687644Y-106894178D01*
X162671865Y-106897317D01*
X162645442Y-106902572D01*
X162594866Y-106936366D01*
X162592141Y-106940444D01*
X162582491Y-106954887D01*
X162561072Y-106986942D01*
X162560115Y-106991751D01*
X162560115Y-106991752D01*
X162553658Y-107024215D01*
X162552200Y-107031543D01*
X162552200Y-107241500D01*
X162537614Y-107276714D01*
X162502400Y-107291300D01*
X161923212Y-107291300D01*
X161887998Y-107276714D01*
X161876182Y-107257877D01*
X161874447Y-107252895D01*
X161865099Y-107226050D01*
X161857618Y-107214078D01*
X161775923Y-107083338D01*
X161775922Y-107083336D01*
X161774448Y-107080978D01*
X161766968Y-107073445D01*
X161706944Y-107013001D01*
X161653909Y-106959594D01*
X161651568Y-106958108D01*
X161651565Y-106958106D01*
X161511824Y-106869425D01*
X161509473Y-106867933D01*
X161506850Y-106866999D01*
X161506846Y-106866997D01*
X161350942Y-106811483D01*
X161348319Y-106810549D01*
X161178457Y-106790294D01*
X161175688Y-106790585D01*
X161175686Y-106790585D01*
X161011095Y-106807884D01*
X161011093Y-106807884D01*
X161008328Y-106808175D01*
X161005698Y-106809070D01*
X161005695Y-106809071D01*
X160849026Y-106862406D01*
X160849024Y-106862407D01*
X160846389Y-106863304D01*
X160844019Y-106864762D01*
X160844017Y-106864763D01*
X160836439Y-106869425D01*
X160700688Y-106952940D01*
X160665966Y-106986942D01*
X160582018Y-107069150D01*
X160578466Y-107072628D01*
X160576959Y-107074967D01*
X160576957Y-107074969D01*
X160523536Y-107157862D01*
X160485798Y-107216420D01*
X160484847Y-107219033D01*
X160484846Y-107219035D01*
X160476670Y-107241500D01*
X160427290Y-107377170D01*
X160426942Y-107379925D01*
X160426941Y-107379929D01*
X160406199Y-107544122D01*
X160405850Y-107546886D01*
X152113493Y-107546886D01*
X152110820Y-107526585D01*
X152049828Y-107379339D01*
X151952805Y-107252895D01*
X151826362Y-107155872D01*
X151823346Y-107154623D01*
X151823343Y-107154621D01*
X151737497Y-107119063D01*
X151679115Y-107094880D01*
X151545826Y-107077332D01*
X151524336Y-107074503D01*
X151521100Y-107074077D01*
X151517864Y-107074503D01*
X151450965Y-107083310D01*
X151414148Y-107073445D01*
X151409251Y-107069150D01*
X150810421Y-106470319D01*
X165897000Y-106470319D01*
X165905975Y-106515099D01*
X165908699Y-106519168D01*
X165929731Y-106550586D01*
X165929735Y-106550591D01*
X165931086Y-106552609D01*
X166369091Y-106990612D01*
X166407104Y-107015932D01*
X166435713Y-107021597D01*
X166448995Y-107024227D01*
X166448997Y-107024227D01*
X166451385Y-107024700D01*
X167070819Y-107024700D01*
X167115599Y-107015725D01*
X167120342Y-107012550D01*
X167151086Y-106991969D01*
X167151091Y-106991965D01*
X167153109Y-106990614D01*
X167591112Y-106552609D01*
X167605145Y-106531542D01*
X167613715Y-106518675D01*
X167616432Y-106514596D01*
X167625199Y-106470319D01*
X168437000Y-106470319D01*
X168445975Y-106515099D01*
X168448699Y-106519168D01*
X168469731Y-106550586D01*
X168469735Y-106550591D01*
X168471086Y-106552609D01*
X168909091Y-106990612D01*
X168947104Y-107015932D01*
X168975713Y-107021597D01*
X168988995Y-107024227D01*
X168988997Y-107024227D01*
X168991385Y-107024700D01*
X169610819Y-107024700D01*
X169655599Y-107015725D01*
X169660342Y-107012550D01*
X169691086Y-106991969D01*
X169691091Y-106991965D01*
X169693109Y-106990614D01*
X170131112Y-106552609D01*
X170145145Y-106531542D01*
X170153715Y-106518675D01*
X170156432Y-106514596D01*
X170165200Y-106470315D01*
X170165200Y-105850881D01*
X170156225Y-105806101D01*
X170132492Y-105770649D01*
X170132469Y-105770614D01*
X170132465Y-105770609D01*
X170131114Y-105768591D01*
X170021508Y-105658985D01*
X169694856Y-105332335D01*
X169693109Y-105330588D01*
X169655096Y-105305268D01*
X169626487Y-105299603D01*
X169613205Y-105296973D01*
X169613203Y-105296973D01*
X169610815Y-105296500D01*
X168991381Y-105296500D01*
X168946601Y-105305475D01*
X168942532Y-105308199D01*
X168911114Y-105329231D01*
X168911109Y-105329235D01*
X168909091Y-105330586D01*
X168471088Y-105768591D01*
X168445768Y-105806604D01*
X168437000Y-105850885D01*
X168437000Y-106470319D01*
X167625199Y-106470319D01*
X167625200Y-106470315D01*
X167625200Y-105850881D01*
X167616225Y-105806101D01*
X167592492Y-105770649D01*
X167592469Y-105770614D01*
X167592465Y-105770609D01*
X167591114Y-105768591D01*
X167481508Y-105658985D01*
X167154856Y-105332335D01*
X167153109Y-105330588D01*
X167115096Y-105305268D01*
X167086487Y-105299603D01*
X167073205Y-105296973D01*
X167073203Y-105296973D01*
X167070815Y-105296500D01*
X166451381Y-105296500D01*
X166406601Y-105305475D01*
X166402532Y-105308199D01*
X166371114Y-105329231D01*
X166371109Y-105329235D01*
X166369091Y-105330586D01*
X165931088Y-105768591D01*
X165905768Y-105806604D01*
X165897000Y-105850885D01*
X165897000Y-106470319D01*
X150810421Y-106470319D01*
X150621786Y-106281684D01*
X150607200Y-106246470D01*
X150607200Y-103620600D01*
X154720577Y-103620600D01*
X154741380Y-103778615D01*
X154759906Y-103823339D01*
X154793027Y-103903300D01*
X154802372Y-103925861D01*
X154899395Y-104052305D01*
X155025838Y-104149328D01*
X155028854Y-104150577D01*
X155028857Y-104150579D01*
X155114703Y-104186137D01*
X155173085Y-104210320D01*
X155331100Y-104231123D01*
X155489115Y-104210320D01*
X155547497Y-104186137D01*
X155633343Y-104150579D01*
X155633346Y-104150577D01*
X155636362Y-104149328D01*
X155762805Y-104052305D01*
X155764794Y-104049713D01*
X155844848Y-103945384D01*
X155877857Y-103926326D01*
X155884357Y-103925900D01*
X156200013Y-103925900D01*
X156235227Y-103940486D01*
X157361262Y-105066521D01*
X157365798Y-105071777D01*
X157367755Y-105075780D01*
X157384874Y-105091660D01*
X157405287Y-105110596D01*
X157406633Y-105111892D01*
X157421297Y-105126556D01*
X157423185Y-105127851D01*
X157424350Y-105128819D01*
X157428566Y-105132190D01*
X157451137Y-105153128D01*
X157455405Y-105154831D01*
X157455407Y-105154832D01*
X157467249Y-105159556D01*
X157476966Y-105164745D01*
X157491268Y-105174556D01*
X157495741Y-105175617D01*
X157495742Y-105175618D01*
X157521219Y-105181664D01*
X157528172Y-105183863D01*
X157553505Y-105193970D01*
X157553510Y-105193971D01*
X157556773Y-105195273D01*
X157563168Y-105195900D01*
X157575381Y-105195900D01*
X157586879Y-105197246D01*
X157601927Y-105200817D01*
X157606484Y-105200197D01*
X157606486Y-105200197D01*
X157634714Y-105196355D01*
X157641429Y-105195900D01*
X167466587Y-105195900D01*
X167473511Y-105196408D01*
X167477728Y-105197856D01*
X167528895Y-105195935D01*
X167530763Y-105195900D01*
X167551493Y-105195900D01*
X167553744Y-105195481D01*
X167555246Y-105195342D01*
X167560620Y-105194744D01*
X167586786Y-105193762D01*
X167586789Y-105193761D01*
X167591382Y-105193589D01*
X167595605Y-105191775D01*
X167595608Y-105191774D01*
X167607319Y-105186742D01*
X167617859Y-105183540D01*
X167630388Y-105181207D01*
X167630391Y-105181206D01*
X167634911Y-105180364D01*
X167638826Y-105177951D01*
X167638828Y-105177950D01*
X167661115Y-105164212D01*
X167667587Y-105160849D01*
X167695879Y-105148694D01*
X167698596Y-105146462D01*
X167699899Y-105145392D01*
X167699906Y-105145385D01*
X167700844Y-105144615D01*
X167709478Y-105135981D01*
X167718560Y-105128802D01*
X167727817Y-105123096D01*
X167727818Y-105123095D01*
X167731728Y-105120685D01*
X167734509Y-105117028D01*
X167734511Y-105117026D01*
X167751758Y-105094345D01*
X167756185Y-105089274D01*
X168207021Y-104638438D01*
X168212277Y-104633902D01*
X168216280Y-104631945D01*
X168251096Y-104594413D01*
X168252392Y-104593067D01*
X168267056Y-104578403D01*
X168268351Y-104576515D01*
X168269319Y-104575350D01*
X168272690Y-104571134D01*
X168293628Y-104548563D01*
X168300056Y-104532451D01*
X168305246Y-104522732D01*
X168312454Y-104512225D01*
X168315056Y-104508432D01*
X168322164Y-104478481D01*
X168324363Y-104471528D01*
X168334470Y-104446195D01*
X168334471Y-104446190D01*
X168335773Y-104442927D01*
X168336400Y-104436532D01*
X168336400Y-104424319D01*
X168337746Y-104412820D01*
X168338531Y-104409512D01*
X168341317Y-104397773D01*
X168336855Y-104364989D01*
X168336400Y-104358273D01*
X168336400Y-104139995D01*
X168350986Y-104104781D01*
X168386200Y-104090195D01*
X168421414Y-104104781D01*
X168843444Y-104526813D01*
X168847235Y-104529919D01*
X168904058Y-104567766D01*
X168912937Y-104571432D01*
X168979071Y-104584527D01*
X168983900Y-104585000D01*
X169164594Y-104585000D01*
X169171599Y-104582099D01*
X169174500Y-104575094D01*
X169427700Y-104575094D01*
X169430601Y-104582099D01*
X169437606Y-104585000D01*
X169618269Y-104585000D01*
X169623156Y-104584515D01*
X169690097Y-104571097D01*
X169698967Y-104567411D01*
X169754994Y-104529904D01*
X169758739Y-104526828D01*
X170207313Y-104078256D01*
X170210419Y-104074465D01*
X170248266Y-104017642D01*
X170251932Y-104008763D01*
X170265027Y-103942629D01*
X170265500Y-103937800D01*
X170265500Y-103757106D01*
X170262599Y-103750101D01*
X170255594Y-103747200D01*
X169437606Y-103747200D01*
X169430601Y-103750101D01*
X169427700Y-103757106D01*
X169427700Y-104575094D01*
X169174500Y-104575094D01*
X169174500Y-103484094D01*
X169427700Y-103484094D01*
X169430601Y-103491099D01*
X169437606Y-103494000D01*
X170255594Y-103494000D01*
X170262599Y-103491099D01*
X170265500Y-103484094D01*
X170265500Y-103303431D01*
X170265015Y-103298544D01*
X170251597Y-103231603D01*
X170247911Y-103222733D01*
X170210404Y-103166706D01*
X170207328Y-103162961D01*
X169758756Y-102714387D01*
X169754965Y-102711281D01*
X169698142Y-102673434D01*
X169689263Y-102669768D01*
X169623129Y-102656673D01*
X169618300Y-102656200D01*
X169437606Y-102656200D01*
X169430601Y-102659101D01*
X169427700Y-102666106D01*
X169427700Y-103484094D01*
X169174500Y-103484094D01*
X169174500Y-102666106D01*
X169171599Y-102659101D01*
X169164594Y-102656200D01*
X168983931Y-102656200D01*
X168979044Y-102656685D01*
X168912103Y-102670103D01*
X168903233Y-102673789D01*
X168847206Y-102711296D01*
X168843461Y-102714372D01*
X168421414Y-103136417D01*
X168386200Y-103151003D01*
X168350986Y-103136417D01*
X168336400Y-103101203D01*
X168336400Y-102407105D01*
X168336908Y-102400186D01*
X168338355Y-102395971D01*
X168338183Y-102391378D01*
X168338183Y-102391375D01*
X168336435Y-102344819D01*
X168336400Y-102342951D01*
X168336400Y-102322207D01*
X168335980Y-102319950D01*
X168335841Y-102318448D01*
X168335244Y-102313083D01*
X168334262Y-102286914D01*
X168334261Y-102286912D01*
X168334089Y-102282318D01*
X168332275Y-102278095D01*
X168332274Y-102278092D01*
X168327242Y-102266381D01*
X168324040Y-102255841D01*
X168321707Y-102243312D01*
X168321706Y-102243309D01*
X168320864Y-102238789D01*
X168304712Y-102212585D01*
X168301349Y-102206113D01*
X168289194Y-102177821D01*
X168286962Y-102175104D01*
X168285892Y-102173801D01*
X168285885Y-102173794D01*
X168285115Y-102172856D01*
X168276481Y-102164222D01*
X168269302Y-102155140D01*
X168263596Y-102145883D01*
X168263595Y-102145882D01*
X168261185Y-102141972D01*
X168257528Y-102139191D01*
X168257526Y-102139189D01*
X168234845Y-102121942D01*
X168229774Y-102117515D01*
X167617472Y-101505213D01*
X167602886Y-101469999D01*
X167611238Y-101442393D01*
X167616432Y-101434596D01*
X167623724Y-101397769D01*
X168336700Y-101397769D01*
X168337185Y-101402656D01*
X168350603Y-101469597D01*
X168354289Y-101478467D01*
X168391796Y-101534494D01*
X168394872Y-101538239D01*
X168843444Y-101986813D01*
X168847235Y-101989919D01*
X168904058Y-102027766D01*
X168912937Y-102031432D01*
X168979071Y-102044527D01*
X168983900Y-102045000D01*
X169164594Y-102045000D01*
X169171599Y-102042099D01*
X169174500Y-102035094D01*
X169427700Y-102035094D01*
X169430601Y-102042099D01*
X169437606Y-102045000D01*
X169618269Y-102045000D01*
X169623156Y-102044515D01*
X169690097Y-102031097D01*
X169698967Y-102027411D01*
X169754994Y-101989904D01*
X169758739Y-101986828D01*
X170207313Y-101538256D01*
X170210419Y-101534465D01*
X170248266Y-101477642D01*
X170251932Y-101468763D01*
X170265027Y-101402629D01*
X170265500Y-101397800D01*
X170265500Y-101217106D01*
X170262599Y-101210101D01*
X170255594Y-101207200D01*
X169437606Y-101207200D01*
X169430601Y-101210101D01*
X169427700Y-101217106D01*
X169427700Y-102035094D01*
X169174500Y-102035094D01*
X169174500Y-101217106D01*
X169171599Y-101210101D01*
X169164594Y-101207200D01*
X168346606Y-101207200D01*
X168339601Y-101210101D01*
X168336700Y-101217106D01*
X168336700Y-101397769D01*
X167623724Y-101397769D01*
X167625200Y-101390315D01*
X167625200Y-100944094D01*
X168336700Y-100944094D01*
X168339601Y-100951099D01*
X168346606Y-100954000D01*
X169164594Y-100954000D01*
X169171599Y-100951099D01*
X169174500Y-100944094D01*
X169427700Y-100944094D01*
X169430601Y-100951099D01*
X169437606Y-100954000D01*
X170255594Y-100954000D01*
X170262599Y-100951099D01*
X170265500Y-100944094D01*
X170265500Y-100763431D01*
X170265015Y-100758544D01*
X170251597Y-100691603D01*
X170247911Y-100682733D01*
X170210404Y-100626706D01*
X170207328Y-100622961D01*
X169758756Y-100174387D01*
X169754965Y-100171281D01*
X169698142Y-100133434D01*
X169689263Y-100129768D01*
X169623129Y-100116673D01*
X169618300Y-100116200D01*
X169437606Y-100116200D01*
X169430601Y-100119101D01*
X169427700Y-100126106D01*
X169427700Y-100944094D01*
X169174500Y-100944094D01*
X169174500Y-100126106D01*
X169171599Y-100119101D01*
X169164594Y-100116200D01*
X168983931Y-100116200D01*
X168979044Y-100116685D01*
X168912103Y-100130103D01*
X168903233Y-100133789D01*
X168847206Y-100171296D01*
X168843461Y-100174372D01*
X168394887Y-100622944D01*
X168391781Y-100626735D01*
X168353934Y-100683558D01*
X168350268Y-100692437D01*
X168337173Y-100758571D01*
X168336700Y-100763400D01*
X168336700Y-100944094D01*
X167625200Y-100944094D01*
X167625200Y-100770881D01*
X167616225Y-100726101D01*
X167593689Y-100692437D01*
X167592469Y-100690614D01*
X167592465Y-100690609D01*
X167591114Y-100688591D01*
X167153109Y-100250588D01*
X167115096Y-100225268D01*
X167086487Y-100219603D01*
X167073205Y-100216973D01*
X167073203Y-100216973D01*
X167070815Y-100216500D01*
X166451381Y-100216500D01*
X166406601Y-100225475D01*
X166402532Y-100228199D01*
X166371114Y-100249231D01*
X166371109Y-100249235D01*
X166369091Y-100250586D01*
X165931088Y-100688591D01*
X165905768Y-100726604D01*
X165904817Y-100731409D01*
X165898202Y-100764817D01*
X165897000Y-100770885D01*
X165897000Y-101390319D01*
X165905975Y-101435099D01*
X165908699Y-101439168D01*
X165929731Y-101470586D01*
X165929735Y-101470591D01*
X165931086Y-101472609D01*
X165932808Y-101474331D01*
X166085678Y-101627200D01*
X166369091Y-101910612D01*
X166407104Y-101935932D01*
X166435713Y-101941597D01*
X166448995Y-101944227D01*
X166448997Y-101944227D01*
X166451385Y-101944700D01*
X167070819Y-101944700D01*
X167115599Y-101935725D01*
X167119670Y-101933000D01*
X167122860Y-101930865D01*
X167160237Y-101923398D01*
X167185776Y-101937035D01*
X167711214Y-102462473D01*
X167725800Y-102497687D01*
X167725800Y-104235513D01*
X167711214Y-104270727D01*
X167411226Y-104570714D01*
X167376012Y-104585300D01*
X157764187Y-104585300D01*
X157728973Y-104570714D01*
X157170869Y-104012609D01*
X156602936Y-103444676D01*
X156598402Y-103439424D01*
X156596445Y-103435420D01*
X156558927Y-103400617D01*
X156557581Y-103399321D01*
X156542903Y-103384643D01*
X156541009Y-103383344D01*
X156539879Y-103382405D01*
X156535630Y-103379006D01*
X156516433Y-103361198D01*
X156513063Y-103358072D01*
X156496947Y-103351642D01*
X156487239Y-103346458D01*
X156476723Y-103339244D01*
X156476721Y-103339243D01*
X156472932Y-103336644D01*
X156442975Y-103329535D01*
X156436035Y-103327340D01*
X156407427Y-103315927D01*
X156401032Y-103315300D01*
X156388819Y-103315300D01*
X156377320Y-103313954D01*
X156362272Y-103310383D01*
X156331076Y-103314629D01*
X156329486Y-103314845D01*
X156322770Y-103315300D01*
X155884357Y-103315300D01*
X155849143Y-103300714D01*
X155844848Y-103295816D01*
X155764794Y-103191487D01*
X155762805Y-103188895D01*
X155663375Y-103112600D01*
X157260577Y-103112600D01*
X157281380Y-103270615D01*
X157299081Y-103313349D01*
X157334964Y-103399976D01*
X157342372Y-103417861D01*
X157439395Y-103544305D01*
X157565838Y-103641328D01*
X157568854Y-103642577D01*
X157568857Y-103642579D01*
X157632262Y-103668842D01*
X157713085Y-103702320D01*
X157871100Y-103723123D01*
X157874336Y-103722697D01*
X158004719Y-103705532D01*
X158041535Y-103715397D01*
X158046433Y-103719692D01*
X158123262Y-103796521D01*
X158127798Y-103801777D01*
X158129755Y-103805780D01*
X158148684Y-103823339D01*
X158167287Y-103840596D01*
X158168633Y-103841892D01*
X158183297Y-103856556D01*
X158185185Y-103857851D01*
X158186350Y-103858819D01*
X158190566Y-103862190D01*
X158213137Y-103883128D01*
X158217405Y-103884831D01*
X158217407Y-103884832D01*
X158229249Y-103889556D01*
X158238967Y-103894746D01*
X158253268Y-103904556D01*
X158257741Y-103905617D01*
X158257742Y-103905618D01*
X158283219Y-103911664D01*
X158290172Y-103913863D01*
X158315505Y-103923970D01*
X158315510Y-103923971D01*
X158318773Y-103925273D01*
X158325168Y-103925900D01*
X158337381Y-103925900D01*
X158348879Y-103927246D01*
X158363927Y-103930817D01*
X158396711Y-103926355D01*
X158403427Y-103925900D01*
X165855305Y-103925900D01*
X165890519Y-103940486D01*
X165904134Y-103965914D01*
X165905975Y-103975099D01*
X165908699Y-103979168D01*
X165929731Y-104010586D01*
X165929735Y-104010591D01*
X165931086Y-104012609D01*
X166369091Y-104450612D01*
X166371148Y-104451982D01*
X166371149Y-104451983D01*
X166399029Y-104470553D01*
X166407104Y-104475932D01*
X166427346Y-104479940D01*
X166448995Y-104484227D01*
X166448997Y-104484227D01*
X166451385Y-104484700D01*
X167070819Y-104484700D01*
X167115599Y-104475725D01*
X167147357Y-104454465D01*
X167151086Y-104451969D01*
X167151091Y-104451965D01*
X167153109Y-104450614D01*
X167591112Y-104012609D01*
X167616432Y-103974596D01*
X167625200Y-103930315D01*
X167625200Y-103310881D01*
X167616225Y-103266101D01*
X167613050Y-103261358D01*
X167592469Y-103230614D01*
X167592465Y-103230609D01*
X167591114Y-103228591D01*
X167153109Y-102790588D01*
X167115096Y-102765268D01*
X167086487Y-102759603D01*
X167073205Y-102756973D01*
X167073203Y-102756973D01*
X167070815Y-102756500D01*
X166451381Y-102756500D01*
X166406601Y-102765475D01*
X166402532Y-102768199D01*
X166371114Y-102789231D01*
X166371109Y-102789235D01*
X166369091Y-102790586D01*
X165931088Y-103228591D01*
X165905768Y-103266604D01*
X165904816Y-103271411D01*
X165904815Y-103271414D01*
X165904070Y-103275174D01*
X165882921Y-103306884D01*
X165855219Y-103315300D01*
X158526187Y-103315300D01*
X158490973Y-103300714D01*
X158478192Y-103287933D01*
X158463606Y-103252719D01*
X158464032Y-103246219D01*
X158481197Y-103115836D01*
X158481623Y-103112600D01*
X158460820Y-102954585D01*
X158436775Y-102896536D01*
X158401079Y-102810358D01*
X158401077Y-102810355D01*
X158399828Y-102807339D01*
X158302805Y-102680895D01*
X158176362Y-102583872D01*
X158173346Y-102582623D01*
X158173343Y-102582621D01*
X158087497Y-102547063D01*
X158029115Y-102522880D01*
X157871100Y-102502077D01*
X157713085Y-102522880D01*
X157655036Y-102546925D01*
X157568858Y-102582621D01*
X157568855Y-102582623D01*
X157565839Y-102583872D01*
X157471578Y-102656200D01*
X157446691Y-102675297D01*
X157439395Y-102680895D01*
X157342372Y-102807339D01*
X157341123Y-102810355D01*
X157341121Y-102810358D01*
X157305425Y-102896536D01*
X157281380Y-102954585D01*
X157260577Y-103112600D01*
X155663375Y-103112600D01*
X155636362Y-103091872D01*
X155633346Y-103090623D01*
X155633343Y-103090621D01*
X155527341Y-103046714D01*
X155489115Y-103030880D01*
X155331100Y-103010077D01*
X155173085Y-103030880D01*
X155134859Y-103046714D01*
X155028858Y-103090621D01*
X155028855Y-103090623D01*
X155025839Y-103091872D01*
X154899395Y-103188895D01*
X154802372Y-103315339D01*
X154801123Y-103318355D01*
X154801121Y-103318358D01*
X154785376Y-103356371D01*
X154741380Y-103462585D01*
X154720577Y-103620600D01*
X150607200Y-103620600D01*
X150607200Y-103384427D01*
X150607386Y-103380130D01*
X150607483Y-103379006D01*
X150611011Y-103338274D01*
X150608669Y-103328846D01*
X150607200Y-103316840D01*
X150607200Y-97438729D01*
X150621786Y-97403515D01*
X151908015Y-96117286D01*
X151943229Y-96102700D01*
X160496971Y-96102700D01*
X160532185Y-96117286D01*
X161564414Y-97149516D01*
X161579000Y-97184730D01*
X161579000Y-99042323D01*
X161564414Y-99077537D01*
X161559516Y-99081832D01*
X161505987Y-99122906D01*
X161503395Y-99124895D01*
X161406372Y-99251339D01*
X161405123Y-99254355D01*
X161405121Y-99254358D01*
X161369786Y-99339664D01*
X161345380Y-99398585D01*
X161324577Y-99556600D01*
X161345380Y-99714615D01*
X161406372Y-99861861D01*
X161503395Y-99988305D01*
X161629838Y-100085328D01*
X161632854Y-100086577D01*
X161632857Y-100086579D01*
X161704369Y-100116200D01*
X161777085Y-100146320D01*
X161935100Y-100167123D01*
X162093115Y-100146320D01*
X162165831Y-100116200D01*
X162237343Y-100086579D01*
X162237346Y-100086577D01*
X162240362Y-100085328D01*
X162366805Y-99988305D01*
X162463828Y-99861861D01*
X162524820Y-99714615D01*
X162545623Y-99556600D01*
X162524820Y-99398585D01*
X162500414Y-99339664D01*
X162465079Y-99254358D01*
X162465077Y-99254355D01*
X162463828Y-99251339D01*
X162366805Y-99124895D01*
X162310684Y-99081831D01*
X162291626Y-99048823D01*
X162291200Y-99042323D01*
X162291200Y-97059917D01*
X162292316Y-97049435D01*
X162294857Y-97037634D01*
X162294857Y-97037633D01*
X162295724Y-97033606D01*
X162291545Y-96998299D01*
X162291200Y-96992446D01*
X162291200Y-96987016D01*
X162290863Y-96984989D01*
X162290862Y-96984982D01*
X162287964Y-96967573D01*
X162287633Y-96965251D01*
X162282273Y-96919964D01*
X162282273Y-96919962D01*
X162281789Y-96915877D01*
X162280008Y-96912167D01*
X162278859Y-96908214D01*
X162279121Y-96908138D01*
X162278927Y-96907524D01*
X162278669Y-96907612D01*
X162277336Y-96903718D01*
X162276660Y-96899658D01*
X162253039Y-96855880D01*
X162252010Y-96853863D01*
X162230472Y-96809010D01*
X162227101Y-96805000D01*
X162227152Y-96804957D01*
X162225068Y-96802028D01*
X162224843Y-96802202D01*
X162222321Y-96798951D01*
X162220365Y-96795326D01*
X162182234Y-96760078D01*
X162180824Y-96758723D01*
X160947529Y-95525427D01*
X160940906Y-95517226D01*
X160934356Y-95507082D01*
X160932125Y-95503626D01*
X160904208Y-95481618D01*
X160899826Y-95477724D01*
X160895982Y-95473880D01*
X160879923Y-95462404D01*
X160878083Y-95461023D01*
X160839025Y-95430232D01*
X160835141Y-95428868D01*
X160831535Y-95426886D01*
X160831666Y-95426648D01*
X160831093Y-95426350D01*
X160830974Y-95426594D01*
X160827278Y-95424783D01*
X160823929Y-95422390D01*
X160809110Y-95417958D01*
X160776301Y-95408146D01*
X160774070Y-95407421D01*
X160751305Y-95399427D01*
X160727171Y-95390952D01*
X160724047Y-95390681D01*
X160724045Y-95390681D01*
X160723019Y-95390592D01*
X160723010Y-95390592D01*
X160721952Y-95390500D01*
X160721958Y-95390432D01*
X160718410Y-95389835D01*
X160718374Y-95390118D01*
X160714289Y-95389602D01*
X160710348Y-95388423D01*
X160706241Y-95388584D01*
X160706238Y-95388584D01*
X160658448Y-95390462D01*
X160656493Y-95390500D01*
X151818413Y-95390500D01*
X151807932Y-95389384D01*
X151796135Y-95386844D01*
X151796132Y-95386844D01*
X151792106Y-95385977D01*
X151788016Y-95386461D01*
X151756806Y-95390155D01*
X151750953Y-95390500D01*
X151745516Y-95390500D01*
X151743487Y-95390838D01*
X151743483Y-95390838D01*
X151726068Y-95393737D01*
X151723748Y-95394068D01*
X151711042Y-95395571D01*
X151678465Y-95399427D01*
X151678464Y-95399427D01*
X151674377Y-95399911D01*
X151670667Y-95401693D01*
X151666714Y-95402841D01*
X151666638Y-95402579D01*
X151666024Y-95402773D01*
X151666112Y-95403031D01*
X151662218Y-95404364D01*
X151658158Y-95405040D01*
X151654536Y-95406994D01*
X151654534Y-95406995D01*
X151614422Y-95428639D01*
X151612331Y-95429705D01*
X151580778Y-95444857D01*
X151567509Y-95451228D01*
X151563499Y-95454599D01*
X151563456Y-95454548D01*
X151560527Y-95456632D01*
X151560702Y-95456857D01*
X151557451Y-95459379D01*
X151553826Y-95461335D01*
X151538676Y-95477724D01*
X151518590Y-95499453D01*
X151517235Y-95500863D01*
X150029927Y-96988171D01*
X150021727Y-96994793D01*
X150008126Y-97003575D01*
X150005580Y-97006805D01*
X149986119Y-97031491D01*
X149982224Y-97035874D01*
X149978380Y-97039718D01*
X149966904Y-97055777D01*
X149965523Y-97057617D01*
X149934732Y-97096675D01*
X149933368Y-97100559D01*
X149931386Y-97104165D01*
X149931148Y-97104034D01*
X149930850Y-97104607D01*
X149931094Y-97104726D01*
X149929283Y-97108422D01*
X149926890Y-97111771D01*
X149925711Y-97115714D01*
X149912646Y-97159399D01*
X149911921Y-97161630D01*
X149911053Y-97164102D01*
X149895452Y-97208529D01*
X149895000Y-97213748D01*
X149894932Y-97213742D01*
X149894335Y-97217290D01*
X149894618Y-97217326D01*
X149894102Y-97221411D01*
X149892923Y-97225352D01*
X149893084Y-97229459D01*
X149893084Y-97229462D01*
X149894962Y-97277252D01*
X149895000Y-97279207D01*
X149895000Y-102960700D01*
X149880414Y-102995914D01*
X149845200Y-103010500D01*
X149771799Y-103010500D01*
X149736585Y-102995914D01*
X149721999Y-102960700D01*
X149721999Y-102801544D01*
X149720168Y-102792335D01*
X149714784Y-102765268D01*
X149713128Y-102756942D01*
X149684694Y-102714387D01*
X149682059Y-102710444D01*
X149679334Y-102706366D01*
X149628758Y-102672572D01*
X149623949Y-102671615D01*
X149623948Y-102671615D01*
X149586556Y-102664177D01*
X149586554Y-102664177D01*
X149584157Y-102663700D01*
X149069206Y-102663700D01*
X148554044Y-102663701D01*
X148551647Y-102664178D01*
X148551644Y-102664178D01*
X148535865Y-102667317D01*
X148509442Y-102672572D01*
X148505364Y-102675297D01*
X148505362Y-102675298D01*
X148490028Y-102685544D01*
X148458866Y-102706366D01*
X148456141Y-102710444D01*
X148441969Y-102731654D01*
X148425072Y-102756942D01*
X148424115Y-102761751D01*
X148424115Y-102761752D01*
X148418032Y-102792335D01*
X148416200Y-102801543D01*
X148416201Y-103931656D01*
X148425072Y-103976258D01*
X148458866Y-104026834D01*
X148509442Y-104060628D01*
X148514251Y-104061585D01*
X148514252Y-104061585D01*
X148551644Y-104069023D01*
X148551646Y-104069023D01*
X148554043Y-104069500D01*
X149068994Y-104069500D01*
X149584156Y-104069499D01*
X149586553Y-104069022D01*
X149586556Y-104069022D01*
X149602335Y-104065883D01*
X149628758Y-104060628D01*
X149638238Y-104054294D01*
X149675256Y-104029559D01*
X149679334Y-104026834D01*
X149713128Y-103976258D01*
X149714086Y-103971444D01*
X149721523Y-103934056D01*
X149721523Y-103934054D01*
X149722000Y-103931657D01*
X149722000Y-103772500D01*
X149736586Y-103737286D01*
X149771800Y-103722700D01*
X149845200Y-103722700D01*
X149880414Y-103737286D01*
X149895000Y-103772500D01*
X149895000Y-106371282D01*
X149893884Y-106381764D01*
X149890476Y-106397593D01*
X149890960Y-106401682D01*
X149890960Y-106401683D01*
X149894655Y-106432901D01*
X149895000Y-106438754D01*
X149895000Y-106444184D01*
X149895338Y-106446213D01*
X149895338Y-106446217D01*
X149898234Y-106463614D01*
X149898565Y-106465934D01*
X149904410Y-106515322D01*
X149906192Y-106519034D01*
X149907341Y-106522987D01*
X149907079Y-106523063D01*
X149907272Y-106523673D01*
X149907530Y-106523585D01*
X149908864Y-106527482D01*
X149909540Y-106531542D01*
X149933159Y-106575316D01*
X149934188Y-106577334D01*
X149955728Y-106622190D01*
X149959099Y-106626200D01*
X149959048Y-106626243D01*
X149961132Y-106629172D01*
X149961357Y-106628998D01*
X149963879Y-106632249D01*
X149965835Y-106635874D01*
X149968860Y-106638670D01*
X150003966Y-106671122D01*
X150005376Y-106672477D01*
X150905650Y-107572752D01*
X150920236Y-107607966D01*
X150919810Y-107614466D01*
X150910577Y-107684600D01*
X150911003Y-107687836D01*
X150919810Y-107754735D01*
X150909945Y-107791552D01*
X150905650Y-107796449D01*
X146751410Y-111950688D01*
X146716196Y-111965274D01*
X146697139Y-111961483D01*
X146599115Y-111920880D01*
X146451438Y-111901438D01*
X146444336Y-111900503D01*
X146441100Y-111900077D01*
X146437864Y-111900503D01*
X146430762Y-111901438D01*
X146283085Y-111920880D01*
X146260928Y-111930058D01*
X146138858Y-111980621D01*
X146138855Y-111980623D01*
X146135839Y-111981872D01*
X146009395Y-112078895D01*
X145912372Y-112205339D01*
X145911123Y-112208355D01*
X145911121Y-112208358D01*
X145879823Y-112283918D01*
X145851380Y-112352585D01*
X145830577Y-112510600D01*
X145831003Y-112513836D01*
X145839810Y-112580735D01*
X145829945Y-112617552D01*
X145825650Y-112622449D01*
X145546184Y-112901914D01*
X145510970Y-112916500D01*
X144053000Y-112916500D01*
X144017786Y-112901914D01*
X144003200Y-112866700D01*
X144003200Y-112514499D01*
X143988019Y-112374753D01*
X143986461Y-112370122D01*
X143932021Y-112208358D01*
X143928136Y-112196814D01*
X143831440Y-112035885D01*
X143829584Y-112033922D01*
X143704300Y-111901438D01*
X143704297Y-111901435D01*
X143702443Y-111899475D01*
X143547162Y-111793946D01*
X143531206Y-111787564D01*
X143375345Y-111725224D01*
X143375342Y-111725223D01*
X143372844Y-111724224D01*
X143280232Y-111708892D01*
X143190280Y-111694000D01*
X143190277Y-111694000D01*
X143187620Y-111693560D01*
X143000132Y-111703386D01*
X142997538Y-111704101D01*
X142997535Y-111704101D01*
X142909630Y-111728314D01*
X142819128Y-111753243D01*
X142816744Y-111754500D01*
X142655441Y-111839545D01*
X142655438Y-111839547D01*
X142653052Y-111840805D01*
X142509653Y-111961986D01*
X142395622Y-112111134D01*
X142316277Y-112281288D01*
X142275322Y-112464512D01*
X142275000Y-112470271D01*
X142275000Y-114030701D01*
X141463200Y-114030701D01*
X141463200Y-112514499D01*
X141448019Y-112374753D01*
X141446461Y-112370122D01*
X141392021Y-112208358D01*
X141388136Y-112196814D01*
X141291440Y-112035885D01*
X141289584Y-112033922D01*
X141164300Y-111901438D01*
X141164297Y-111901435D01*
X141162443Y-111899475D01*
X141007162Y-111793946D01*
X140991206Y-111787564D01*
X140835345Y-111725224D01*
X140835342Y-111725223D01*
X140832844Y-111724224D01*
X140740232Y-111708892D01*
X140650280Y-111694000D01*
X140650277Y-111694000D01*
X140647620Y-111693560D01*
X140460132Y-111703386D01*
X140457538Y-111704101D01*
X140457535Y-111704101D01*
X140369630Y-111728314D01*
X140279128Y-111753243D01*
X140276744Y-111754500D01*
X140115441Y-111839545D01*
X140115438Y-111839547D01*
X140113052Y-111840805D01*
X139969653Y-111961986D01*
X139855622Y-112111134D01*
X139776277Y-112281288D01*
X139735322Y-112464512D01*
X139735000Y-112470271D01*
X139735000Y-114030701D01*
X138923200Y-114030701D01*
X138923200Y-112514499D01*
X138908019Y-112374753D01*
X138906461Y-112370122D01*
X138852021Y-112208358D01*
X138848136Y-112196814D01*
X138751440Y-112035885D01*
X138749584Y-112033922D01*
X138624300Y-111901438D01*
X138624297Y-111901435D01*
X138622443Y-111899475D01*
X138467162Y-111793946D01*
X138451206Y-111787564D01*
X138295345Y-111725224D01*
X138295342Y-111725223D01*
X138292844Y-111724224D01*
X138200232Y-111708892D01*
X138110280Y-111694000D01*
X138110277Y-111694000D01*
X138107620Y-111693560D01*
X137920132Y-111703386D01*
X137917538Y-111704101D01*
X137917535Y-111704101D01*
X137829630Y-111728314D01*
X137739128Y-111753243D01*
X137736744Y-111754500D01*
X137575441Y-111839545D01*
X137575438Y-111839547D01*
X137573052Y-111840805D01*
X137429653Y-111961986D01*
X137315622Y-112111134D01*
X137236277Y-112281288D01*
X137195322Y-112464512D01*
X137195000Y-112470271D01*
X137195000Y-114030701D01*
X136483500Y-114030701D01*
X136483500Y-113409106D01*
X136480599Y-113402101D01*
X136473594Y-113399200D01*
X135655606Y-113399200D01*
X135648601Y-113402101D01*
X135645700Y-113409106D01*
X135645700Y-114930126D01*
X135392500Y-114930126D01*
X135392500Y-113409106D01*
X135389599Y-113402101D01*
X135382594Y-113399200D01*
X134564606Y-113399200D01*
X134557601Y-113402101D01*
X134554700Y-113409106D01*
X134554700Y-114031512D01*
X124114600Y-114031512D01*
X124114600Y-113136094D01*
X134554700Y-113136094D01*
X134557601Y-113143099D01*
X134564606Y-113146000D01*
X135382594Y-113146000D01*
X135389599Y-113143099D01*
X135392500Y-113136094D01*
X135645700Y-113136094D01*
X135648601Y-113143099D01*
X135655606Y-113146000D01*
X136473594Y-113146000D01*
X136480599Y-113143099D01*
X136483500Y-113136094D01*
X136483500Y-112513688D01*
X136483373Y-112511180D01*
X136468930Y-112368994D01*
X136467919Y-112364067D01*
X136410841Y-112181932D01*
X136408862Y-112177315D01*
X136316326Y-112010375D01*
X136313459Y-112006250D01*
X136189234Y-111861315D01*
X136185613Y-111857867D01*
X136034784Y-111740871D01*
X136030522Y-111738208D01*
X135859265Y-111653939D01*
X135854554Y-111652187D01*
X135669843Y-111604073D01*
X135664880Y-111603305D01*
X135655592Y-111602818D01*
X135649170Y-111605093D01*
X135645700Y-111612886D01*
X135645700Y-113136094D01*
X135392500Y-113136094D01*
X135392500Y-111615074D01*
X135389599Y-111608069D01*
X135385244Y-111606265D01*
X135280524Y-111622103D01*
X135275656Y-111623353D01*
X135096521Y-111689261D01*
X135092013Y-111691460D01*
X134929781Y-111792048D01*
X134925808Y-111795108D01*
X134787124Y-111926256D01*
X134783842Y-111930058D01*
X134674357Y-112086418D01*
X134671911Y-112090795D01*
X134596104Y-112265974D01*
X134594587Y-112270757D01*
X134555425Y-112458209D01*
X134554936Y-112461975D01*
X134554734Y-112465843D01*
X134554700Y-112467133D01*
X134554700Y-113136094D01*
X124114600Y-113136094D01*
X124114600Y-109457705D01*
X128722131Y-109457705D01*
X128761712Y-109622568D01*
X128839475Y-109773231D01*
X128950931Y-109900996D01*
X129089647Y-109998487D01*
X129092440Y-109999576D01*
X129092442Y-109999577D01*
X129146198Y-110020536D01*
X129247613Y-110060076D01*
X129250587Y-110060468D01*
X129250589Y-110060468D01*
X129353704Y-110074043D01*
X129376926Y-110077100D01*
X129465616Y-110077100D01*
X129467108Y-110076919D01*
X129467115Y-110076919D01*
X129544632Y-110067538D01*
X129591420Y-110061876D01*
X129594228Y-110060815D01*
X129594232Y-110060814D01*
X129747216Y-110003006D01*
X129747218Y-110003005D01*
X129750023Y-110001945D01*
X129752495Y-110000246D01*
X129752497Y-110000245D01*
X129798821Y-109968407D01*
X129889751Y-109905912D01*
X130002540Y-109779321D01*
X130081876Y-109629481D01*
X130123181Y-109465041D01*
X130123220Y-109457705D01*
X130124053Y-109298498D01*
X130124069Y-109295495D01*
X130084488Y-109130632D01*
X130006725Y-108979969D01*
X129895269Y-108852204D01*
X129756553Y-108754713D01*
X129753760Y-108753624D01*
X129753758Y-108753623D01*
X129665632Y-108719264D01*
X129598587Y-108693124D01*
X129595613Y-108692732D01*
X129595611Y-108692732D01*
X129470884Y-108676312D01*
X129470885Y-108676312D01*
X129469274Y-108676100D01*
X129380584Y-108676100D01*
X129379092Y-108676281D01*
X129379085Y-108676281D01*
X129301568Y-108685662D01*
X129254780Y-108691324D01*
X129251972Y-108692385D01*
X129251968Y-108692386D01*
X129098984Y-108750194D01*
X129098982Y-108750195D01*
X129096177Y-108751255D01*
X129093705Y-108752954D01*
X129093703Y-108752955D01*
X129047379Y-108784793D01*
X128956449Y-108847288D01*
X128843660Y-108973879D01*
X128764324Y-109123719D01*
X128723019Y-109288159D01*
X128723003Y-109291163D01*
X128723003Y-109291165D01*
X128722965Y-109298498D01*
X128722131Y-109457705D01*
X124114600Y-109457705D01*
X124114600Y-105057705D01*
X128722131Y-105057705D01*
X128761712Y-105222568D01*
X128839475Y-105373231D01*
X128950931Y-105500996D01*
X129089647Y-105598487D01*
X129092440Y-105599576D01*
X129092442Y-105599577D01*
X129141223Y-105618596D01*
X129247613Y-105660076D01*
X129250587Y-105660468D01*
X129250589Y-105660468D01*
X129343853Y-105672746D01*
X129376926Y-105677100D01*
X129465616Y-105677100D01*
X129467108Y-105676919D01*
X129467115Y-105676919D01*
X129544632Y-105667538D01*
X129591420Y-105661876D01*
X129594228Y-105660815D01*
X129594232Y-105660814D01*
X129747216Y-105603006D01*
X129747218Y-105603005D01*
X129750023Y-105601945D01*
X129752495Y-105600246D01*
X129752497Y-105600245D01*
X129815978Y-105556615D01*
X129889751Y-105505912D01*
X130002540Y-105379321D01*
X130081876Y-105229481D01*
X130123181Y-105065041D01*
X130123220Y-105057705D01*
X130124053Y-104898498D01*
X130124069Y-104895495D01*
X130084488Y-104730632D01*
X130076253Y-104714676D01*
X130008101Y-104582635D01*
X130006725Y-104579969D01*
X129895269Y-104452204D01*
X129756553Y-104354713D01*
X129753760Y-104353624D01*
X129753758Y-104353623D01*
X129688013Y-104327990D01*
X129598587Y-104293124D01*
X129595613Y-104292732D01*
X129595611Y-104292732D01*
X129470884Y-104276312D01*
X129470885Y-104276312D01*
X129469274Y-104276100D01*
X129380584Y-104276100D01*
X129379092Y-104276281D01*
X129379085Y-104276281D01*
X129301568Y-104285662D01*
X129254780Y-104291324D01*
X129251972Y-104292385D01*
X129251968Y-104292386D01*
X129098984Y-104350194D01*
X129098982Y-104350195D01*
X129096177Y-104351255D01*
X129093705Y-104352954D01*
X129093703Y-104352955D01*
X129083872Y-104359712D01*
X128956449Y-104447288D01*
X128843660Y-104573879D01*
X128764324Y-104723719D01*
X128723019Y-104888159D01*
X128723003Y-104891163D01*
X128723003Y-104891165D01*
X128722965Y-104898498D01*
X128722131Y-105057705D01*
X124114600Y-105057705D01*
X124114600Y-104128600D01*
X138210577Y-104128600D01*
X138231380Y-104286615D01*
X138248518Y-104327990D01*
X138288420Y-104424319D01*
X138292372Y-104433861D01*
X138389395Y-104560305D01*
X138515838Y-104657328D01*
X138518854Y-104658577D01*
X138518857Y-104658579D01*
X138547920Y-104670617D01*
X138663085Y-104718320D01*
X138821100Y-104739123D01*
X138824336Y-104738697D01*
X138954719Y-104721532D01*
X138991535Y-104731397D01*
X138996433Y-104735692D01*
X139225646Y-104964906D01*
X139327264Y-105066524D01*
X139331798Y-105071776D01*
X139333755Y-105075780D01*
X139371273Y-105110583D01*
X139372619Y-105111879D01*
X139387297Y-105126557D01*
X139389191Y-105127856D01*
X139390321Y-105128795D01*
X139394570Y-105132194D01*
X139408798Y-105145392D01*
X139417137Y-105153128D01*
X139421405Y-105154831D01*
X139421407Y-105154832D01*
X139433246Y-105159555D01*
X139442965Y-105164745D01*
X139453477Y-105171957D01*
X139453480Y-105171958D01*
X139457268Y-105174557D01*
X139461738Y-105175618D01*
X139461743Y-105175620D01*
X139487230Y-105181668D01*
X139494182Y-105183866D01*
X139522773Y-105195273D01*
X139529168Y-105195900D01*
X139541381Y-105195900D01*
X139552880Y-105197246D01*
X139565900Y-105200336D01*
X139596795Y-105222659D01*
X139604201Y-105248790D01*
X139604201Y-105455656D01*
X139613072Y-105500258D01*
X139646866Y-105550834D01*
X139697442Y-105584628D01*
X139702251Y-105585585D01*
X139702252Y-105585585D01*
X139739644Y-105593023D01*
X139739646Y-105593023D01*
X139742043Y-105593500D01*
X140256994Y-105593500D01*
X140772156Y-105593499D01*
X140774553Y-105593022D01*
X140774556Y-105593022D01*
X140790335Y-105589883D01*
X140816758Y-105584628D01*
X140867334Y-105550834D01*
X140901128Y-105500258D01*
X140910000Y-105455657D01*
X140909999Y-104325544D01*
X140909999Y-104325543D01*
X141304200Y-104325543D01*
X141304201Y-105455656D01*
X141313072Y-105500258D01*
X141346866Y-105550834D01*
X141397442Y-105584628D01*
X141402251Y-105585585D01*
X141402252Y-105585585D01*
X141439644Y-105593023D01*
X141439646Y-105593023D01*
X141442043Y-105593500D01*
X141956994Y-105593500D01*
X142472156Y-105593499D01*
X142474553Y-105593022D01*
X142474556Y-105593022D01*
X142490335Y-105589883D01*
X142516758Y-105584628D01*
X142567334Y-105550834D01*
X142601128Y-105500258D01*
X142610000Y-105455657D01*
X142610000Y-105245700D01*
X142624586Y-105210486D01*
X142659800Y-105195900D01*
X143246013Y-105195900D01*
X143281227Y-105210486D01*
X143645262Y-105574521D01*
X143649798Y-105579777D01*
X143651755Y-105583780D01*
X143671337Y-105601945D01*
X143689287Y-105618596D01*
X143690633Y-105619892D01*
X143705297Y-105634556D01*
X143707185Y-105635851D01*
X143708350Y-105636819D01*
X143712566Y-105640190D01*
X143735137Y-105661128D01*
X143739405Y-105662831D01*
X143739407Y-105662832D01*
X143751249Y-105667556D01*
X143760967Y-105672746D01*
X143775268Y-105682556D01*
X143779741Y-105683617D01*
X143779742Y-105683618D01*
X143805219Y-105689664D01*
X143812172Y-105691863D01*
X143837505Y-105701970D01*
X143837510Y-105701971D01*
X143840773Y-105703273D01*
X143847168Y-105703900D01*
X143859381Y-105703900D01*
X143870879Y-105705246D01*
X143885927Y-105708817D01*
X143918711Y-105704355D01*
X143925427Y-105703900D01*
X144109843Y-105703900D01*
X144145057Y-105718486D01*
X144149352Y-105723384D01*
X144210079Y-105802525D01*
X144231395Y-105830305D01*
X144357838Y-105927328D01*
X144360854Y-105928577D01*
X144360857Y-105928579D01*
X144446703Y-105964137D01*
X144505085Y-105988320D01*
X144663100Y-106009123D01*
X144821115Y-105988320D01*
X144879497Y-105964137D01*
X144965343Y-105928579D01*
X144965346Y-105928577D01*
X144968362Y-105927328D01*
X145094805Y-105830305D01*
X145191828Y-105703861D01*
X145204717Y-105672746D01*
X145236190Y-105596762D01*
X145252820Y-105556615D01*
X145273623Y-105398600D01*
X145252820Y-105240585D01*
X145228764Y-105182509D01*
X145193079Y-105096358D01*
X145193077Y-105096355D01*
X145191828Y-105093339D01*
X145094805Y-104966895D01*
X144968362Y-104869872D01*
X144965346Y-104868623D01*
X144965343Y-104868621D01*
X144879497Y-104833063D01*
X144821115Y-104808880D01*
X144663100Y-104788077D01*
X144505085Y-104808880D01*
X144447036Y-104832925D01*
X144360858Y-104868621D01*
X144360855Y-104868623D01*
X144357839Y-104869872D01*
X144231395Y-104966895D01*
X144229406Y-104969487D01*
X144149352Y-105073816D01*
X144116343Y-105092874D01*
X144109843Y-105093300D01*
X144048187Y-105093300D01*
X144012973Y-105078714D01*
X143832758Y-104898498D01*
X143648936Y-104714676D01*
X143644402Y-104709424D01*
X143642445Y-104705420D01*
X143604927Y-104670617D01*
X143603581Y-104669321D01*
X143588903Y-104654643D01*
X143587009Y-104653344D01*
X143585879Y-104652405D01*
X143581630Y-104649006D01*
X143562433Y-104631198D01*
X143559063Y-104628072D01*
X143542947Y-104621642D01*
X143533239Y-104616458D01*
X143522723Y-104609244D01*
X143522721Y-104609243D01*
X143518932Y-104606644D01*
X143488975Y-104599535D01*
X143482035Y-104597340D01*
X143453427Y-104585927D01*
X143447032Y-104585300D01*
X143434819Y-104585300D01*
X143423320Y-104583954D01*
X143408272Y-104580383D01*
X143377911Y-104584515D01*
X143375486Y-104584845D01*
X143368770Y-104585300D01*
X142659799Y-104585300D01*
X142624585Y-104570714D01*
X142609999Y-104535500D01*
X142609999Y-104325544D01*
X142601128Y-104280942D01*
X142584557Y-104256141D01*
X142570059Y-104234444D01*
X142567334Y-104230366D01*
X142516758Y-104196572D01*
X142511949Y-104195615D01*
X142511948Y-104195615D01*
X142474556Y-104188177D01*
X142474554Y-104188177D01*
X142472157Y-104187700D01*
X142312200Y-104187700D01*
X142276986Y-104173114D01*
X142262400Y-104137900D01*
X142262400Y-103903299D01*
X142276986Y-103868085D01*
X142312200Y-103853499D01*
X142688156Y-103853499D01*
X142690553Y-103853022D01*
X142690556Y-103853022D01*
X142706335Y-103849883D01*
X142732758Y-103844628D01*
X142738793Y-103840596D01*
X142779256Y-103813559D01*
X142783334Y-103810834D01*
X142817128Y-103760258D01*
X142818086Y-103755444D01*
X142825523Y-103718056D01*
X142825523Y-103718054D01*
X142826000Y-103715657D01*
X142825999Y-102685544D01*
X142825075Y-102680895D01*
X142820257Y-102656673D01*
X142817128Y-102640942D01*
X142783334Y-102590366D01*
X142776594Y-102585862D01*
X142758046Y-102573469D01*
X142732758Y-102556572D01*
X142727949Y-102555615D01*
X142727948Y-102555615D01*
X142690556Y-102548177D01*
X142690554Y-102548177D01*
X142688157Y-102547700D01*
X142123216Y-102547700D01*
X141558044Y-102547701D01*
X141555647Y-102548178D01*
X141555644Y-102548178D01*
X141539865Y-102551317D01*
X141513442Y-102556572D01*
X141509364Y-102559297D01*
X141509362Y-102559298D01*
X141466944Y-102587641D01*
X141462866Y-102590366D01*
X141429072Y-102640942D01*
X141428115Y-102645751D01*
X141428115Y-102645752D01*
X141421125Y-102680895D01*
X141420200Y-102685543D01*
X141420201Y-103715656D01*
X141420678Y-103718053D01*
X141420678Y-103718056D01*
X141421403Y-103721700D01*
X141429072Y-103760258D01*
X141462866Y-103810834D01*
X141513442Y-103844628D01*
X141518251Y-103845585D01*
X141518252Y-103845585D01*
X141555644Y-103853023D01*
X141555646Y-103853023D01*
X141558043Y-103853500D01*
X141602000Y-103853500D01*
X141637214Y-103868086D01*
X141651800Y-103903300D01*
X141651800Y-104137901D01*
X141637214Y-104173115D01*
X141602000Y-104187701D01*
X141442044Y-104187701D01*
X141439647Y-104188178D01*
X141439644Y-104188178D01*
X141423865Y-104191317D01*
X141397442Y-104196572D01*
X141393364Y-104199297D01*
X141393362Y-104199298D01*
X141376867Y-104210320D01*
X141346866Y-104230366D01*
X141313072Y-104280942D01*
X141312115Y-104285751D01*
X141312115Y-104285752D01*
X141310796Y-104292386D01*
X141304200Y-104325543D01*
X140909999Y-104325543D01*
X140901128Y-104280942D01*
X140884557Y-104256141D01*
X140870059Y-104234444D01*
X140867334Y-104230366D01*
X140816758Y-104196572D01*
X140811949Y-104195615D01*
X140811948Y-104195615D01*
X140774556Y-104188177D01*
X140774554Y-104188177D01*
X140772157Y-104187700D01*
X140257206Y-104187700D01*
X139742044Y-104187701D01*
X139739647Y-104188178D01*
X139739644Y-104188178D01*
X139723865Y-104191317D01*
X139697442Y-104196572D01*
X139693364Y-104199297D01*
X139693362Y-104199298D01*
X139676867Y-104210320D01*
X139646866Y-104230366D01*
X139613072Y-104280942D01*
X139612115Y-104285751D01*
X139612115Y-104285752D01*
X139610796Y-104292386D01*
X139604200Y-104325543D01*
X139604200Y-104359712D01*
X139589614Y-104394926D01*
X139554400Y-104409512D01*
X139519186Y-104394926D01*
X139428192Y-104303932D01*
X139413606Y-104268718D01*
X139414032Y-104262218D01*
X139431197Y-104131836D01*
X139431623Y-104128600D01*
X139410820Y-103970585D01*
X139386414Y-103911664D01*
X139351079Y-103826358D01*
X139351077Y-103826355D01*
X139349828Y-103823339D01*
X139269042Y-103718056D01*
X139254794Y-103699487D01*
X139252805Y-103696895D01*
X139126362Y-103599872D01*
X139123346Y-103598623D01*
X139123343Y-103598621D01*
X139037497Y-103563063D01*
X138979115Y-103538880D01*
X138821100Y-103518077D01*
X138663085Y-103538880D01*
X138605036Y-103562925D01*
X138518858Y-103598621D01*
X138518855Y-103598623D01*
X138515839Y-103599872D01*
X138389395Y-103696895D01*
X138387406Y-103699487D01*
X138373158Y-103718056D01*
X138292372Y-103823339D01*
X138291123Y-103826355D01*
X138291121Y-103826358D01*
X138255786Y-103911664D01*
X138231380Y-103970585D01*
X138210577Y-104128600D01*
X124114600Y-104128600D01*
X124114600Y-102023090D01*
X141319900Y-102023090D01*
X141320377Y-102027936D01*
X141333634Y-102094582D01*
X141337317Y-102103473D01*
X141387826Y-102179066D01*
X141394634Y-102185874D01*
X141470227Y-102236383D01*
X141479118Y-102240066D01*
X141545764Y-102253323D01*
X141550610Y-102253800D01*
X141986594Y-102253800D01*
X141993599Y-102250899D01*
X141996500Y-102243894D01*
X142249700Y-102243894D01*
X142252601Y-102250899D01*
X142259606Y-102253800D01*
X142695590Y-102253800D01*
X142700436Y-102253323D01*
X142767082Y-102240066D01*
X142775973Y-102236383D01*
X142851566Y-102185874D01*
X142858374Y-102179066D01*
X142908883Y-102103473D01*
X142912566Y-102094582D01*
X142925823Y-102027936D01*
X142926300Y-102023090D01*
X142926300Y-101637106D01*
X142923399Y-101630101D01*
X142916394Y-101627200D01*
X142259606Y-101627200D01*
X142252601Y-101630101D01*
X142249700Y-101637106D01*
X142249700Y-102243894D01*
X141996500Y-102243894D01*
X141996500Y-101637106D01*
X141993599Y-101630101D01*
X141986594Y-101627200D01*
X141329806Y-101627200D01*
X141322801Y-101630101D01*
X141319900Y-101637106D01*
X141319900Y-102023090D01*
X124114600Y-102023090D01*
X124114600Y-101364094D01*
X141319900Y-101364094D01*
X141322801Y-101371099D01*
X141329806Y-101374000D01*
X141986594Y-101374000D01*
X141993599Y-101371099D01*
X141996500Y-101364094D01*
X142249700Y-101364094D01*
X142252601Y-101371099D01*
X142259606Y-101374000D01*
X142916394Y-101374000D01*
X142923399Y-101371099D01*
X142926300Y-101364094D01*
X142926300Y-100978110D01*
X142925823Y-100973264D01*
X142912566Y-100906618D01*
X142908883Y-100897727D01*
X142858374Y-100822134D01*
X142851566Y-100815326D01*
X142775973Y-100764817D01*
X142767082Y-100761134D01*
X142700436Y-100747877D01*
X142695590Y-100747400D01*
X142259606Y-100747400D01*
X142252601Y-100750301D01*
X142249700Y-100757306D01*
X142249700Y-101364094D01*
X141996500Y-101364094D01*
X141996500Y-100757306D01*
X141993599Y-100750301D01*
X141986594Y-100747400D01*
X141550610Y-100747400D01*
X141545764Y-100747877D01*
X141479118Y-100761134D01*
X141470227Y-100764817D01*
X141394634Y-100815326D01*
X141387826Y-100822134D01*
X141337317Y-100897727D01*
X141333634Y-100906618D01*
X141320377Y-100973264D01*
X141319900Y-100978110D01*
X141319900Y-101364094D01*
X124114600Y-101364094D01*
X124114600Y-97215565D01*
X132319500Y-97215565D01*
X132319637Y-97218183D01*
X132334269Y-97357401D01*
X132335347Y-97362471D01*
X132393082Y-97540160D01*
X132395193Y-97544902D01*
X132488604Y-97706694D01*
X132491659Y-97710899D01*
X132616668Y-97849736D01*
X132620529Y-97853213D01*
X132771674Y-97963026D01*
X132776167Y-97965620D01*
X132946842Y-98041609D01*
X132951781Y-98043214D01*
X133096812Y-98074042D01*
X133104266Y-98072660D01*
X133106500Y-98069409D01*
X133106500Y-98066195D01*
X133359700Y-98066195D01*
X133362601Y-98073200D01*
X133366246Y-98074710D01*
X133514419Y-98043214D01*
X133519358Y-98041609D01*
X133690033Y-97965620D01*
X133694526Y-97963026D01*
X133845671Y-97853213D01*
X133849532Y-97849736D01*
X133974541Y-97710899D01*
X133977596Y-97706694D01*
X134071007Y-97544902D01*
X134073118Y-97540160D01*
X134130853Y-97362471D01*
X134131931Y-97357401D01*
X134146563Y-97218183D01*
X134146700Y-97215565D01*
X134146700Y-97214877D01*
X134959800Y-97214877D01*
X134974993Y-97350325D01*
X134975906Y-97352947D01*
X134975907Y-97352951D01*
X134979779Y-97364069D01*
X135034999Y-97522639D01*
X135131689Y-97677376D01*
X135260259Y-97806846D01*
X135262600Y-97808332D01*
X135262603Y-97808334D01*
X135411967Y-97903123D01*
X135411969Y-97903124D01*
X135414317Y-97904614D01*
X135416940Y-97905548D01*
X135416942Y-97905549D01*
X135583580Y-97964887D01*
X135583584Y-97964888D01*
X135586207Y-97965822D01*
X135588971Y-97966152D01*
X135588973Y-97966152D01*
X135654841Y-97974006D01*
X135767386Y-97987426D01*
X135770155Y-97987135D01*
X135770159Y-97987135D01*
X135777047Y-97986411D01*
X135813592Y-97997237D01*
X135817465Y-98000724D01*
X137041262Y-99224521D01*
X137045798Y-99229777D01*
X137047755Y-99233780D01*
X137066684Y-99251339D01*
X137085287Y-99268596D01*
X137086633Y-99269892D01*
X137101297Y-99284556D01*
X137103185Y-99285851D01*
X137104350Y-99286819D01*
X137108566Y-99290190D01*
X137131137Y-99311128D01*
X137135405Y-99312831D01*
X137135407Y-99312832D01*
X137147249Y-99317556D01*
X137156967Y-99322746D01*
X137171268Y-99332556D01*
X137175741Y-99333617D01*
X137175742Y-99333618D01*
X137201219Y-99339664D01*
X137208172Y-99341863D01*
X137233505Y-99351970D01*
X137233510Y-99351971D01*
X137236773Y-99353273D01*
X137243168Y-99353900D01*
X137255381Y-99353900D01*
X137266879Y-99355246D01*
X137281927Y-99358817D01*
X137314711Y-99354355D01*
X137321427Y-99353900D01*
X142738013Y-99353900D01*
X142773227Y-99368486D01*
X145105214Y-101700473D01*
X145119800Y-101735687D01*
X145119800Y-102813343D01*
X145105214Y-102848557D01*
X145100316Y-102852852D01*
X144995987Y-102932906D01*
X144993395Y-102934895D01*
X144896372Y-103061339D01*
X144895123Y-103064355D01*
X144895121Y-103064358D01*
X144876479Y-103109364D01*
X144835380Y-103208585D01*
X144814577Y-103366600D01*
X144835380Y-103524615D01*
X144843536Y-103544305D01*
X144883725Y-103641328D01*
X144896372Y-103671861D01*
X144993395Y-103798305D01*
X144995987Y-103800294D01*
X145009723Y-103810834D01*
X145119838Y-103895328D01*
X145122854Y-103896577D01*
X145122857Y-103896579D01*
X145193551Y-103925861D01*
X145267085Y-103956320D01*
X145369408Y-103969791D01*
X145418530Y-103976258D01*
X145425100Y-103977123D01*
X145431671Y-103976258D01*
X145480792Y-103969791D01*
X145583115Y-103956320D01*
X145656649Y-103925861D01*
X145727343Y-103896579D01*
X145727346Y-103896577D01*
X145730362Y-103895328D01*
X145840477Y-103810834D01*
X145854213Y-103800294D01*
X145856805Y-103798305D01*
X145871914Y-103778615D01*
X145938848Y-103691384D01*
X145971857Y-103672326D01*
X145978357Y-103671900D01*
X146666401Y-103671900D01*
X146701615Y-103686486D01*
X146716201Y-103721700D01*
X146716201Y-103931656D01*
X146725072Y-103976258D01*
X146758866Y-104026834D01*
X146809442Y-104060628D01*
X146814251Y-104061585D01*
X146814252Y-104061585D01*
X146851644Y-104069023D01*
X146851646Y-104069023D01*
X146854043Y-104069500D01*
X147368994Y-104069500D01*
X147884156Y-104069499D01*
X147886553Y-104069022D01*
X147886556Y-104069022D01*
X147902335Y-104065883D01*
X147928758Y-104060628D01*
X147938238Y-104054294D01*
X147975256Y-104029559D01*
X147979334Y-104026834D01*
X148013128Y-103976258D01*
X148014086Y-103971444D01*
X148021523Y-103934056D01*
X148021523Y-103934054D01*
X148022000Y-103931657D01*
X148021999Y-102801544D01*
X148020168Y-102792335D01*
X148014784Y-102765268D01*
X148013128Y-102756942D01*
X147984694Y-102714387D01*
X147982059Y-102710444D01*
X147979334Y-102706366D01*
X147928758Y-102672572D01*
X147923949Y-102671615D01*
X147923948Y-102671615D01*
X147886556Y-102664177D01*
X147886554Y-102664177D01*
X147884157Y-102663700D01*
X147369206Y-102663700D01*
X146854044Y-102663701D01*
X146851647Y-102664178D01*
X146851644Y-102664178D01*
X146835865Y-102667317D01*
X146809442Y-102672572D01*
X146805364Y-102675297D01*
X146805362Y-102675298D01*
X146790028Y-102685544D01*
X146758866Y-102706366D01*
X146756141Y-102710444D01*
X146741969Y-102731654D01*
X146725072Y-102756942D01*
X146724115Y-102761751D01*
X146724115Y-102761752D01*
X146718032Y-102792335D01*
X146716200Y-102801543D01*
X146716200Y-103011500D01*
X146701614Y-103046714D01*
X146666400Y-103061300D01*
X145978357Y-103061300D01*
X145943143Y-103046714D01*
X145938848Y-103041816D01*
X145858794Y-102937487D01*
X145856805Y-102934895D01*
X145749884Y-102852851D01*
X145730826Y-102819843D01*
X145730400Y-102813343D01*
X145730400Y-101645105D01*
X145730908Y-101638186D01*
X145732355Y-101633971D01*
X145732183Y-101629378D01*
X145732183Y-101629375D01*
X145730435Y-101582819D01*
X145730400Y-101580951D01*
X145730400Y-101560207D01*
X145729980Y-101557950D01*
X145729841Y-101556448D01*
X145729244Y-101551083D01*
X145728262Y-101524914D01*
X145728261Y-101524912D01*
X145728089Y-101520318D01*
X145726275Y-101516095D01*
X145726274Y-101516092D01*
X145722477Y-101507255D01*
X145721242Y-101504380D01*
X145718040Y-101493841D01*
X145715707Y-101481312D01*
X145715706Y-101481309D01*
X145714864Y-101476789D01*
X145712288Y-101472609D01*
X145698712Y-101450585D01*
X145695349Y-101444113D01*
X145694609Y-101442391D01*
X145683194Y-101415821D01*
X145680962Y-101413104D01*
X145679892Y-101411801D01*
X145679885Y-101411794D01*
X145679115Y-101410856D01*
X145670481Y-101402222D01*
X145663302Y-101393140D01*
X145657596Y-101383883D01*
X145657595Y-101383882D01*
X145655185Y-101379972D01*
X145651528Y-101377191D01*
X145651526Y-101377189D01*
X145628845Y-101359942D01*
X145623774Y-101355515D01*
X143140936Y-98872676D01*
X143136402Y-98867424D01*
X143134445Y-98863420D01*
X143096927Y-98828617D01*
X143095581Y-98827321D01*
X143080903Y-98812643D01*
X143079009Y-98811344D01*
X143077879Y-98810405D01*
X143073630Y-98807006D01*
X143054433Y-98789198D01*
X143051063Y-98786072D01*
X143034947Y-98779642D01*
X143025239Y-98774458D01*
X143014723Y-98767244D01*
X143014721Y-98767243D01*
X143010932Y-98764644D01*
X142980975Y-98757535D01*
X142974035Y-98755340D01*
X142945427Y-98743927D01*
X142939032Y-98743300D01*
X142926819Y-98743300D01*
X142915320Y-98741954D01*
X142900272Y-98738383D01*
X142869076Y-98742629D01*
X142867486Y-98742845D01*
X142860770Y-98743300D01*
X137444187Y-98743300D01*
X137408973Y-98728714D01*
X136419771Y-97739511D01*
X136405185Y-97704297D01*
X136413124Y-97677322D01*
X136506192Y-97532910D01*
X136509931Y-97522639D01*
X136567645Y-97364069D01*
X136568598Y-97361451D01*
X136570353Y-97347563D01*
X136579112Y-97278219D01*
X136586400Y-97220530D01*
X136586400Y-95802323D01*
X136571207Y-95666875D01*
X136568297Y-95658516D01*
X136541204Y-95580718D01*
X136511201Y-95494561D01*
X136446234Y-95390592D01*
X136415986Y-95342184D01*
X136415985Y-95342182D01*
X136414511Y-95339824D01*
X136403733Y-95328970D01*
X136287897Y-95212324D01*
X136285941Y-95210354D01*
X136283600Y-95208868D01*
X136283597Y-95208866D01*
X136134233Y-95114077D01*
X136134231Y-95114076D01*
X136131883Y-95112586D01*
X136129260Y-95111652D01*
X136129258Y-95111651D01*
X135962620Y-95052313D01*
X135962616Y-95052312D01*
X135959993Y-95051378D01*
X135957229Y-95051048D01*
X135957227Y-95051048D01*
X135891359Y-95043194D01*
X135778814Y-95029774D01*
X135776045Y-95030065D01*
X135776043Y-95030065D01*
X135600118Y-95048555D01*
X135600116Y-95048555D01*
X135597351Y-95048846D01*
X135594721Y-95049741D01*
X135594718Y-95049742D01*
X135427257Y-95106751D01*
X135427255Y-95106752D01*
X135424623Y-95107648D01*
X135422256Y-95109104D01*
X135422252Y-95109106D01*
X135333045Y-95163987D01*
X135269214Y-95203256D01*
X135138850Y-95330918D01*
X135137343Y-95333257D01*
X135137341Y-95333259D01*
X135044240Y-95477724D01*
X135040008Y-95484290D01*
X135039057Y-95486903D01*
X135039056Y-95486905D01*
X135033976Y-95500863D01*
X134977602Y-95655749D01*
X134977253Y-95658512D01*
X134977252Y-95658516D01*
X134968334Y-95729112D01*
X134959800Y-95796670D01*
X134959800Y-97214877D01*
X134146700Y-97214877D01*
X134146700Y-96645106D01*
X134143799Y-96638101D01*
X134136794Y-96635200D01*
X133369606Y-96635200D01*
X133362601Y-96638101D01*
X133359700Y-96645106D01*
X133359700Y-98066195D01*
X133106500Y-98066195D01*
X133106500Y-96645106D01*
X133103599Y-96638101D01*
X133096594Y-96635200D01*
X132329406Y-96635200D01*
X132322401Y-96638101D01*
X132319500Y-96645106D01*
X132319500Y-97215565D01*
X124114600Y-97215565D01*
X124114600Y-96372094D01*
X132319500Y-96372094D01*
X132322401Y-96379099D01*
X132329406Y-96382000D01*
X133096594Y-96382000D01*
X133103599Y-96379099D01*
X133106500Y-96372094D01*
X133359700Y-96372094D01*
X133362601Y-96379099D01*
X133369606Y-96382000D01*
X134136794Y-96382000D01*
X134143799Y-96379099D01*
X134146700Y-96372094D01*
X134146700Y-95801635D01*
X134146563Y-95799017D01*
X134131931Y-95659799D01*
X134130853Y-95654729D01*
X134073118Y-95477040D01*
X134071007Y-95472298D01*
X133977596Y-95310506D01*
X133974541Y-95306301D01*
X133849532Y-95167464D01*
X133845671Y-95163987D01*
X133694526Y-95054174D01*
X133690033Y-95051580D01*
X133519358Y-94975591D01*
X133514419Y-94973986D01*
X133369388Y-94943158D01*
X133361934Y-94944540D01*
X133359700Y-94947791D01*
X133359700Y-96372094D01*
X133106500Y-96372094D01*
X133106500Y-94951005D01*
X133103599Y-94944000D01*
X133099954Y-94942490D01*
X132951781Y-94973986D01*
X132946842Y-94975591D01*
X132776167Y-95051580D01*
X132771674Y-95054174D01*
X132620529Y-95163987D01*
X132616668Y-95167464D01*
X132491659Y-95306301D01*
X132488604Y-95310506D01*
X132395193Y-95472298D01*
X132393082Y-95477040D01*
X132335347Y-95654729D01*
X132334269Y-95659799D01*
X132319637Y-95799017D01*
X132319500Y-95801635D01*
X132319500Y-96372094D01*
X124114600Y-96372094D01*
X124114600Y-93507900D01*
X124129186Y-93472686D01*
X124164400Y-93458100D01*
X172837800Y-93458100D01*
X172873014Y-93472686D01*
G37*
%TD.AperFunction*%
%TD*%
M02*
