M48
; DRILL file {KiCad (6.0.7)} date Tue Aug 30 17:29:16 2022
; FORMAT={2:4/ absolute / inch / suppress leading zeros}
; #@! TF.CreationDate,2022-08-30T17:29:16+02:00
; #@! TF.GenerationSoftware,Kicad,Pcbnew,(6.0.7)
; #@! TF.FileFunction,Plated,1,2,PTH
FMAT,2
INCH,TZ
; #@! TA.AperFunction,Plated,PTH,ViaDrill
T1C0.0236
; #@! TA.AperFunction,Plated,PTH,ComponentDrill
T2C0.0320
; #@! TA.AperFunction,Plated,PTH,ComponentDrill
T3C0.0360
; #@! TA.AperFunction,Plated,PTH,ComponentDrill
T4C0.0400
%
G90
G05
T1
X53354Y-43396
X54454Y-39396
X54554Y-38496
X54654Y-40996
X56954Y-41496
X57254Y-40696
X57654Y-44296
X59054Y-37496
X59654Y-41196
X59654Y-42396
X59654Y-43096
X59754Y-38296
X60054Y-44996
X60354Y-42396
X61154Y-40796
X62154Y-40596
X63754Y-39196
X64454Y-39696
X66154Y-44896
X66954Y-37696
T2
X63454Y-42346
X63454Y-44246
T3
X52454Y-37996
X53454Y-37996
T4
X53354Y-44596
X54354Y-44596
X55354Y-44596
X56354Y-44596
X65654Y-39796
X65654Y-40796
X65654Y-41796
X65654Y-42796
X65654Y-43796
X66654Y-39796
X66654Y-40796
X66654Y-41796
X66654Y-42796
X66654Y-43796
T0
M30
