M48
; DRILL file {KiCad (6.0.7)} date Tue Sep  6 17:23:04 2022
; FORMAT={2:4/ absolute / inch / suppress leading zeros}
; #@! TF.CreationDate,2022-09-06T17:23:04+02:00
; #@! TF.GenerationSoftware,Kicad,Pcbnew,(6.0.7)
; #@! TF.FileFunction,Plated,1,2,PTH
FMAT,2
INCH,TZ
; #@! TA.AperFunction,Plated,PTH,ViaDrill
T1C0.0118
; #@! TA.AperFunction,Plated,PTH,ViaDrill
T2C0.0157
; #@! TA.AperFunction,Plated,PTH,ComponentDrill
T3C0.0236
%
G90
G05
T1
X47750Y-53700
X48500Y-50000
X48550Y-52550
X48900Y-50800
X48900Y-51550
X50079Y-49528
X50250Y-53500
X50250Y-54700
X50300Y-52800
X50300Y-54200
X50800Y-48300
X50900Y-49550
X51050Y-49200
X51300Y-50750
X51500Y-49250
X51650Y-54700
X51750Y-50450
X51900Y-53560
X52200Y-50200
X52244Y-52008
X52402Y-53425
X52441Y-54843
X52900Y-53550
X53380Y-52000
X53500Y-53350
X53800Y-50150
X53850Y-52250
X53950Y-51300
X54154Y-50059
X54200Y-53350
X54242Y-51644
X54321Y-54311
X54400Y-51150
X54547Y-53986
X54557Y-51959
X54685Y-49685
X54872Y-47648
X54882Y-48701
X55285Y-49173
X55450Y-53400
X55512Y-54055
X55512Y-54370
X55591Y-50512
X55757Y-54534
X56457Y-54606
X56742Y-54016
X57254Y-54045
X57402Y-47441
X57992Y-54606
X58325Y-48425
X58400Y-53400
X58425Y-47559
X58583Y-54508
X58800Y-50375
X58888Y-53415
X59094Y-51142
X59150Y-48650
X59250Y-47700
X59281Y-54252
X59300Y-50050
X59346Y-50733
X59600Y-48750
X59646Y-54409
X59890Y-50630
X59950Y-54550
X60050Y-49685
X60089Y-52480
X60157Y-48548
X60266Y-48129
X60300Y-47650
X60591Y-48543
X60600Y-49640
X60600Y-51850
X60650Y-48000
X60650Y-50325
X60650Y-50900
X60667Y-53642
X61102Y-48976
X61378Y-53199
X61391Y-50617
X61431Y-52059
X61496Y-51654
X61700Y-47450
X61720Y-49300
X61732Y-48600
X61732Y-54724
X62250Y-50500
X62300Y-53850
X62350Y-48950
X62618Y-47894
X62650Y-49450
X62650Y-50350
X62650Y-52050
X62650Y-52500
X62660Y-50900
X62677Y-51417
X62700Y-53600
X62950Y-51200
X62992Y-48189
X63200Y-47500
X63200Y-50400
X63200Y-53550
X63383Y-48903
X63500Y-53200
X63550Y-47500
X63683Y-49303
X63900Y-49550
X64800Y-52600
X65200Y-51700
X65200Y-52200
X65315Y-50197
X65472Y-51969
X65512Y-50669
X65709Y-47520
X66050Y-53950
X66350Y-49700
X66500Y-52700
T2
X50200Y-52200
X50400Y-49980
X50400Y-51350
T3
G00X47583Y-49480
M15
G01X47898Y-49480
M16
G05
G00X47583Y-52882
M15
G01X47898Y-52882
M16
G05
G00X49165Y-49480
M15
G01X49598Y-49480
M16
G05
G00X49165Y-52882
M15
G01X49598Y-52882
M16
G05
T0
M30
