%TF.GenerationSoftware,KiCad,Pcbnew,(6.0.7)*%
%TF.CreationDate,2022-09-06T17:23:01+02:00*%
%TF.ProjectId,bmp22,626d7032-322e-46b6-9963-61645f706362,rev?*%
%TF.SameCoordinates,Original*%
%TF.FileFunction,Paste,Top*%
%TF.FilePolarity,Positive*%
%FSLAX46Y46*%
G04 Gerber Fmt 4.6, Leading zero omitted, Abs format (unit mm)*
G04 Created by KiCad (PCBNEW (6.0.7)) date 2022-09-06 17:23:01*
%MOMM*%
%LPD*%
G01*
G04 APERTURE LIST*
G04 Aperture macros list*
%AMRoundRect*
0 Rectangle with rounded corners*
0 $1 Rounding radius*
0 $2 $3 $4 $5 $6 $7 $8 $9 X,Y pos of 4 corners*
0 Add a 4 corners polygon primitive as box body*
4,1,4,$2,$3,$4,$5,$6,$7,$8,$9,$2,$3,0*
0 Add four circle primitives for the rounded corners*
1,1,$1+$1,$2,$3*
1,1,$1+$1,$4,$5*
1,1,$1+$1,$6,$7*
1,1,$1+$1,$8,$9*
0 Add four rect primitives between the rounded corners*
20,1,$1+$1,$2,$3,$4,$5,0*
20,1,$1+$1,$4,$5,$6,$7,0*
20,1,$1+$1,$6,$7,$8,$9,0*
20,1,$1+$1,$8,$9,$2,$3,0*%
G04 Aperture macros list end*
%ADD10R,0.300000X1.500000*%
%ADD11R,1.500000X0.300000*%
%ADD12R,0.800000X0.300000*%
%ADD13R,0.545000X0.280000*%
%ADD14RoundRect,0.250000X-0.625000X0.375000X-0.625000X-0.375000X0.625000X-0.375000X0.625000X0.375000X0*%
%ADD15RoundRect,0.218750X0.218750X0.256250X-0.218750X0.256250X-0.218750X-0.256250X0.218750X-0.256250X0*%
%ADD16RoundRect,0.218750X-0.256250X0.218750X-0.256250X-0.218750X0.256250X-0.218750X0.256250X0.218750X0*%
%ADD17RoundRect,0.147500X-0.147500X-0.172500X0.147500X-0.172500X0.147500X0.172500X-0.147500X0.172500X0*%
%ADD18RoundRect,0.147500X0.147500X0.172500X-0.147500X0.172500X-0.147500X-0.172500X0.147500X-0.172500X0*%
%ADD19RoundRect,0.147500X0.172500X-0.147500X0.172500X0.147500X-0.172500X0.147500X-0.172500X-0.147500X0*%
%ADD20RoundRect,0.147500X-0.172500X0.147500X-0.172500X-0.147500X0.172500X-0.147500X0.172500X0.147500X0*%
%ADD21R,2.400000X0.740000*%
%ADD22R,1.060000X0.650000*%
%ADD23R,1.200000X1.400000*%
%ADD24R,1.050000X0.650000*%
%ADD25R,1.160000X0.600000*%
%ADD26R,1.160000X0.300000*%
G04 APERTURE END LIST*
D10*
%TO.C,U302*%
X147276000Y-136076000D03*
X146776000Y-136076000D03*
X146276000Y-136076000D03*
X145776000Y-136076000D03*
X145276000Y-136076000D03*
X144776000Y-136076000D03*
X144276000Y-136076000D03*
X143776000Y-136076000D03*
X143276000Y-136076000D03*
X142776000Y-136076000D03*
X142276000Y-136076000D03*
X141776000Y-136076000D03*
D11*
X140276000Y-134576000D03*
X140276000Y-134076000D03*
X140276000Y-133576000D03*
X140276000Y-133076000D03*
X140276000Y-132576000D03*
X140276000Y-132076000D03*
X140276000Y-131576000D03*
X140276000Y-131076000D03*
X140276000Y-130576000D03*
X140276000Y-130076000D03*
X140276000Y-129576000D03*
X140276000Y-129076000D03*
D10*
X141776000Y-127576000D03*
X142276000Y-127576000D03*
X142776000Y-127576000D03*
X143276000Y-127576000D03*
X143776000Y-127576000D03*
X144276000Y-127576000D03*
X144776000Y-127576000D03*
X145276000Y-127576000D03*
X145776000Y-127576000D03*
X146276000Y-127576000D03*
X146776000Y-127576000D03*
X147276000Y-127576000D03*
D11*
X148776000Y-129076000D03*
X148776000Y-129576000D03*
X148776000Y-130076000D03*
X148776000Y-130576000D03*
X148776000Y-131076000D03*
X148776000Y-131576000D03*
X148776000Y-132076000D03*
X148776000Y-132576000D03*
X148776000Y-133076000D03*
X148776000Y-133576000D03*
X148776000Y-134076000D03*
X148776000Y-134576000D03*
%TD*%
D12*
%TO.C,U204*%
X155041000Y-130314000D03*
X155041000Y-130814000D03*
X155041000Y-131314000D03*
X155041000Y-131814000D03*
X158141000Y-131814000D03*
X158141000Y-131314000D03*
X158141000Y-130814000D03*
X158141000Y-130314000D03*
%TD*%
%TO.C,U203*%
X155041000Y-134378000D03*
X155041000Y-134878000D03*
X155041000Y-135378000D03*
X155041000Y-135878000D03*
X158141000Y-135878000D03*
X158141000Y-135378000D03*
X158141000Y-134878000D03*
X158141000Y-134378000D03*
%TD*%
%TO.C,U202*%
X155041000Y-126250000D03*
X155041000Y-126750000D03*
X155041000Y-127250000D03*
X155041000Y-127750000D03*
X158141000Y-127750000D03*
X158141000Y-127250000D03*
X158141000Y-126750000D03*
X158141000Y-126250000D03*
%TD*%
%TO.C,U201*%
X155041000Y-122186000D03*
X155041000Y-122686000D03*
X155041000Y-123186000D03*
X155041000Y-123686000D03*
X158141000Y-123686000D03*
X158141000Y-123186000D03*
X158141000Y-122686000D03*
X158141000Y-122186000D03*
%TD*%
D13*
%TO.C,Q203*%
X150697500Y-124341000D03*
X150697500Y-124841000D03*
X150697500Y-125341000D03*
X152197500Y-125341000D03*
X152197500Y-124841000D03*
X152197500Y-124341000D03*
%TD*%
%TO.C,Q201*%
X150507000Y-121801000D03*
X150507000Y-122301000D03*
X150507000Y-122801000D03*
X152007000Y-122801000D03*
X152007000Y-122301000D03*
X152007000Y-121801000D03*
%TD*%
D14*
%TO.C,D301*%
X138000000Y-123925000D03*
X138000000Y-121125000D03*
%TD*%
D15*
%TO.C,C102*%
X134188300Y-125069600D03*
X132613300Y-125069600D03*
%TD*%
D16*
%TO.C,C103*%
X135900000Y-123512500D03*
X135900000Y-125087500D03*
%TD*%
D17*
%TO.C,C202*%
X157376000Y-121158000D03*
X158346000Y-121158000D03*
%TD*%
%TO.C,C203*%
X154963000Y-133350000D03*
X155933000Y-133350000D03*
%TD*%
%TO.C,C204*%
X157376000Y-133350000D03*
X158346000Y-133350000D03*
%TD*%
D18*
%TO.C,C207*%
X155933000Y-129286000D03*
X154963000Y-129286000D03*
%TD*%
D17*
%TO.C,C208*%
X157376000Y-129286000D03*
X158346000Y-129286000D03*
%TD*%
D19*
%TO.C,C301*%
X142475000Y-139235000D03*
X142475000Y-138265000D03*
%TD*%
D18*
%TO.C,C302*%
X139677000Y-135128000D03*
X138707000Y-135128000D03*
%TD*%
D20*
%TO.C,C303*%
X149275000Y-136640000D03*
X149275000Y-137610000D03*
%TD*%
%TO.C,C305*%
X150475000Y-130415000D03*
X150475000Y-131385000D03*
%TD*%
%TO.C,C306*%
X148250000Y-136640000D03*
X148250000Y-137610000D03*
%TD*%
D16*
%TO.C,C307*%
X139600000Y-136372500D03*
X139600000Y-137947500D03*
%TD*%
%TO.C,C308*%
X151750000Y-130262500D03*
X151750000Y-131837500D03*
%TD*%
D19*
%TO.C,C309*%
X148209000Y-124818000D03*
X148209000Y-123848000D03*
%TD*%
D16*
%TO.C,D302*%
X146700000Y-120912500D03*
X146700000Y-122487500D03*
%TD*%
%TO.C,D303*%
X143700000Y-120912500D03*
X143700000Y-122487500D03*
%TD*%
D21*
%TO.C,J201*%
X167950000Y-132540000D03*
X164050000Y-132540000D03*
X167950000Y-131270000D03*
X164050000Y-131270000D03*
X167950000Y-130000000D03*
X164050000Y-130000000D03*
X167950000Y-128730000D03*
X164050000Y-128730000D03*
X167950000Y-127460000D03*
X164050000Y-127460000D03*
%TD*%
D18*
%TO.C,JP201*%
X157203000Y-137033000D03*
X156233000Y-137033000D03*
%TD*%
%TO.C,R201*%
X161013000Y-126238000D03*
X160043000Y-126238000D03*
%TD*%
%TO.C,R202*%
X161013000Y-131318000D03*
X160043000Y-131318000D03*
%TD*%
%TO.C,R203*%
X161013000Y-127254000D03*
X160043000Y-127254000D03*
%TD*%
%TO.C,R204*%
X161085000Y-133096000D03*
X160115000Y-133096000D03*
%TD*%
%TO.C,R205*%
X157203000Y-138049000D03*
X156233000Y-138049000D03*
%TD*%
%TO.C,R206*%
X161013000Y-128778000D03*
X160043000Y-128778000D03*
%TD*%
%TO.C,R207*%
X160685000Y-121600000D03*
X159715000Y-121600000D03*
%TD*%
%TO.C,R208*%
X161013000Y-125222000D03*
X160043000Y-125222000D03*
%TD*%
%TO.C,R209*%
X161521000Y-134300000D03*
X160551000Y-134300000D03*
%TD*%
D20*
%TO.C,R210*%
X149225000Y-121308000D03*
X149225000Y-122278000D03*
%TD*%
%TO.C,R211*%
X153479500Y-124356000D03*
X153479500Y-125326000D03*
%TD*%
D18*
%TO.C,R301*%
X133835000Y-131064000D03*
X132865000Y-131064000D03*
%TD*%
D17*
%TO.C,R302*%
X130833000Y-133096000D03*
X131803000Y-133096000D03*
%TD*%
D18*
%TO.C,R303*%
X133835000Y-130048000D03*
X132865000Y-130048000D03*
%TD*%
D17*
%TO.C,R306*%
X128547000Y-132969000D03*
X129517000Y-132969000D03*
%TD*%
%TO.C,R307*%
X128674000Y-127889000D03*
X129644000Y-127889000D03*
%TD*%
%TO.C,R309*%
X133881000Y-132080000D03*
X134851000Y-132080000D03*
%TD*%
D20*
%TO.C,R310*%
X133450000Y-127590000D03*
X133450000Y-128560000D03*
%TD*%
D19*
%TO.C,R312*%
X145300000Y-122385000D03*
X145300000Y-121415000D03*
%TD*%
%TO.C,R314*%
X141900000Y-124985000D03*
X141900000Y-124015000D03*
%TD*%
D22*
%TO.C,U101*%
X131996000Y-121478000D03*
X131996000Y-122428000D03*
X131996000Y-123378000D03*
X134196000Y-123378000D03*
X134196000Y-121478000D03*
%TD*%
%TO.C,U301*%
X131402000Y-131506000D03*
X131402000Y-130556000D03*
X131402000Y-129606000D03*
X129202000Y-129606000D03*
X129202000Y-130556000D03*
X129202000Y-131506000D03*
%TD*%
D23*
%TO.C,Y301*%
X152488000Y-136482000D03*
X152488000Y-134282000D03*
X150788000Y-134282000D03*
X150788000Y-136482000D03*
%TD*%
D24*
%TO.C,SW301*%
X134750000Y-128800000D03*
X138900000Y-128800000D03*
X138900000Y-126650000D03*
X134750000Y-126650000D03*
%TD*%
D17*
%TO.C,C304*%
X141065000Y-126100000D03*
X142035000Y-126100000D03*
%TD*%
%TO.C,JP202*%
X159408000Y-124079000D03*
X160378000Y-124079000D03*
%TD*%
D19*
%TO.C,R311*%
X135900000Y-122085000D03*
X135900000Y-121115000D03*
%TD*%
D16*
%TO.C,D304*%
X140700000Y-120912500D03*
X140700000Y-122487500D03*
%TD*%
D17*
%TO.C,C206*%
X157376000Y-125222000D03*
X158346000Y-125222000D03*
%TD*%
D19*
%TO.C,R313*%
X142200000Y-122185000D03*
X142200000Y-121215000D03*
%TD*%
D18*
%TO.C,C201*%
X155933000Y-121158000D03*
X154963000Y-121158000D03*
%TD*%
D20*
%TO.C,R304*%
X149225000Y-123848000D03*
X149225000Y-124818000D03*
%TD*%
D17*
%TO.C,R308*%
X133881000Y-133096000D03*
X134851000Y-133096000D03*
%TD*%
D18*
%TO.C,C205*%
X155933000Y-125222000D03*
X154963000Y-125222000D03*
%TD*%
D25*
%TO.C,J301*%
X126010000Y-126800000D03*
X126010000Y-127600000D03*
D26*
X126010000Y-128250000D03*
X126010000Y-129250000D03*
X126010000Y-130750000D03*
X126010000Y-131750000D03*
D25*
X126010000Y-132400000D03*
X126010000Y-133200000D03*
X126010000Y-133200000D03*
X126010000Y-132400000D03*
D26*
X126010000Y-131250000D03*
X126010000Y-130250000D03*
X126010000Y-129750000D03*
X126010000Y-128750000D03*
D25*
X126010000Y-127600000D03*
X126010000Y-126800000D03*
%TD*%
D16*
%TO.C,C101*%
X130048000Y-121513500D03*
X130048000Y-123088500D03*
%TD*%
D19*
%TO.C,R305*%
X145400000Y-124818000D03*
X145400000Y-123848000D03*
%TD*%
M02*
