%TF.GenerationSoftware,KiCad,Pcbnew,(6.0.7)*%
%TF.CreationDate,2022-09-06T17:23:01+02:00*%
%TF.ProjectId,bmp22,626d7032-322e-46b6-9963-61645f706362,rev?*%
%TF.SameCoordinates,Original*%
%TF.FileFunction,Copper,L2,Bot*%
%TF.FilePolarity,Positive*%
%FSLAX46Y46*%
G04 Gerber Fmt 4.6, Leading zero omitted, Abs format (unit mm)*
G04 Created by KiCad (PCBNEW (6.0.7)) date 2022-09-06 17:23:01*
%MOMM*%
%LPD*%
G01*
G04 APERTURE LIST*
G04 Aperture macros list*
%AMRoundRect*
0 Rectangle with rounded corners*
0 $1 Rounding radius*
0 $2 $3 $4 $5 $6 $7 $8 $9 X,Y pos of 4 corners*
0 Add a 4 corners polygon primitive as box body*
4,1,4,$2,$3,$4,$5,$6,$7,$8,$9,$2,$3,0*
0 Add four circle primitives for the rounded corners*
1,1,$1+$1,$2,$3*
1,1,$1+$1,$4,$5*
1,1,$1+$1,$6,$7*
1,1,$1+$1,$8,$9*
0 Add four rect primitives between the rounded corners*
20,1,$1+$1,$2,$3,$4,$5,0*
20,1,$1+$1,$4,$5,$6,$7,0*
20,1,$1+$1,$6,$7,$8,$9,0*
20,1,$1+$1,$8,$9,$2,$3,0*%
G04 Aperture macros list end*
%TA.AperFunction,ComponentPad*%
%ADD10O,1.700000X0.900000*%
%TD*%
%TA.AperFunction,ComponentPad*%
%ADD11O,2.000000X0.900000*%
%TD*%
%TA.AperFunction,SMDPad,CuDef*%
%ADD12C,1.500000*%
%TD*%
%TA.AperFunction,SMDPad,CuDef*%
%ADD13C,1.000000*%
%TD*%
%TA.AperFunction,SMDPad,CuDef*%
%ADD14RoundRect,0.250000X-1.500000X0.250000X-1.500000X-0.250000X1.500000X-0.250000X1.500000X0.250000X0*%
%TD*%
%TA.AperFunction,SMDPad,CuDef*%
%ADD15RoundRect,0.250001X-1.449999X0.499999X-1.449999X-0.499999X1.449999X-0.499999X1.449999X0.499999X0*%
%TD*%
%TA.AperFunction,ViaPad*%
%ADD16C,0.600000*%
%TD*%
%TA.AperFunction,ViaPad*%
%ADD17C,0.800000*%
%TD*%
%TA.AperFunction,Conductor*%
%ADD18C,0.400000*%
%TD*%
%TA.AperFunction,Conductor*%
%ADD19C,0.200000*%
%TD*%
%TA.AperFunction,Conductor*%
%ADD20C,0.250000*%
%TD*%
G04 APERTURE END LIST*
D10*
%TO.P,J301,S1,SHIELD*%
%TO.N,GND*%
X121260000Y-125680000D03*
D11*
X125430000Y-134320000D03*
D10*
X121260000Y-134320000D03*
D11*
X125430000Y-125680000D03*
%TD*%
D12*
%TO.P,TP305,1,1*%
%TO.N,GND*%
X128500000Y-124000000D03*
%TD*%
D13*
%TO.P,FID4,*%
%TO.N,*%
X121500000Y-123000000D03*
%TD*%
%TO.P,FID6,*%
%TO.N,*%
X121500000Y-138500000D03*
%TD*%
%TO.P,FID5,*%
%TO.N,*%
X160500000Y-138500000D03*
%TD*%
D14*
%TO.P,J202,1,Pin_1*%
%TO.N,TPWR*%
X162150000Y-127000000D03*
%TO.P,J202,2,Pin_2*%
%TO.N,/Sheet5F21D67E/TXD*%
X162150000Y-129000000D03*
%TO.P,J202,3,Pin_3*%
%TO.N,/Sheet5F21D67E/RXD*%
X162150000Y-131000000D03*
%TO.P,J202,4,Pin_4*%
%TO.N,GND*%
X162150000Y-133000000D03*
D15*
%TO.P,J202,MP*%
%TO.N,N/C*%
X167900000Y-135350000D03*
X167900000Y-124650000D03*
%TD*%
D12*
%TO.P,TP306,1,1*%
%TO.N,/Sheet5F25207C/TRACESWO*%
X129500000Y-134500000D03*
%TD*%
%TO.P,TP307,1,1*%
%TO.N,/Sheet5F25207C/SWDCLK*%
X132000000Y-134500000D03*
%TD*%
%TO.P,TP301,1,1*%
%TO.N,/Sheet5F25207C/~{RST}*%
X137000000Y-134500000D03*
%TD*%
%TO.P,TP309,1,1*%
%TO.N,GND*%
X141000000Y-134000000D03*
%TD*%
%TO.P,TP308,1,1*%
%TO.N,/Sheet5F25207C/SDWIO*%
X134500000Y-134500000D03*
%TD*%
%TO.P,TP304,1,1*%
%TO.N,/Sheet5F25207C/USBx1+*%
X122000000Y-131500000D03*
%TD*%
%TO.P,TP302,1,1*%
%TO.N,+5V*%
X128500000Y-121500000D03*
%TD*%
%TO.P,TP303,1,1*%
%TO.N,/Sheet5F25207C/USBx1-*%
X122000000Y-129000000D03*
%TD*%
D16*
%TO.N,GND*%
X150575000Y-137800000D03*
X130810000Y-125095000D03*
X156200000Y-131200000D03*
X127635000Y-135890000D03*
X127762000Y-134112000D03*
X153162000Y-121031000D03*
X136652000Y-127381000D03*
X161290000Y-135128000D03*
X160000000Y-122400000D03*
X167767000Y-137033000D03*
X127200000Y-125800000D03*
X159200000Y-130600000D03*
X145800000Y-120500000D03*
X156718000Y-120523000D03*
X154051000Y-127825500D03*
X160528000Y-120650000D03*
X143400000Y-138700000D03*
X153900000Y-123300000D03*
X139375000Y-121025000D03*
X138900000Y-126200000D03*
X149575000Y-135675000D03*
X123317000Y-133477000D03*
X131445000Y-128143000D03*
X148400000Y-120800000D03*
X165900000Y-127500000D03*
X130302000Y-128905000D03*
X141000000Y-137300000D03*
X156800000Y-139000000D03*
X166900000Y-120700000D03*
X136779000Y-132715000D03*
X153924000Y-131699000D03*
X137668000Y-135509000D03*
X152625000Y-133300000D03*
X159131000Y-125603000D03*
X129667000Y-124968000D03*
X133100000Y-135700000D03*
X138550000Y-137125000D03*
X123190000Y-127000000D03*
X168529000Y-126238000D03*
X137550000Y-127150000D03*
X127635000Y-138938000D03*
X159131000Y-133350000D03*
X158242000Y-136779000D03*
X159258000Y-136144000D03*
X145425000Y-137275000D03*
X148145500Y-122999500D03*
X121285000Y-136398000D03*
X168910000Y-133858000D03*
X159156400Y-129286000D03*
X132588000Y-127508000D03*
X140425000Y-124900000D03*
X154051000Y-129286000D03*
X135890000Y-135509000D03*
X133200000Y-139300000D03*
X127762000Y-137668000D03*
X129286000Y-125857000D03*
X139400000Y-123700000D03*
X161417000Y-120650000D03*
X151384000Y-123825000D03*
D17*
%TO.N,+5V*%
X128016000Y-126949200D03*
D16*
X129032000Y-122681992D03*
D17*
X127508000Y-132587992D03*
X128016000Y-130429000D03*
D16*
%TO.N,+3V3*%
X158369000Y-124333000D03*
X155933000Y-128567000D03*
X148335990Y-135636000D03*
X141200000Y-128300000D03*
X156799994Y-123444000D03*
X150100000Y-129900000D03*
X140843000Y-135636000D03*
X144125000Y-137200000D03*
X152120000Y-128600000D03*
X158115000Y-128270000D03*
%TO.N,xTPWR*%
X153924000Y-126085600D03*
X156768800Y-125222000D03*
%TO.N,/Sheet5F25207C/~{RST}*%
X137975000Y-137950000D03*
%TO.N,KEY*%
X166400000Y-128700000D03*
X160528000Y-136017000D03*
%TO.N,TCK*%
X165608000Y-131318000D03*
X160528000Y-128016000D03*
%TO.N,TMS*%
X165608000Y-132588000D03*
X159893000Y-130048000D03*
%TO.N,TPWR*%
X162306000Y-125857000D03*
X166300000Y-132000000D03*
X152799988Y-123312799D03*
%TO.N,/Sheet5F21D67E/RXD*%
X164592000Y-133604000D03*
%TO.N,/Sheet5F21D67E/TXD*%
X161756000Y-125229909D03*
%TO.N,/Sheet5F25207C/USBx1+*%
X124206000Y-130937000D03*
%TO.N,/Sheet5F25207C/USBx1-*%
X124206000Y-129032000D03*
%TO.N,/Sheet5F25207C/TRACESWO*%
X131191000Y-138938000D03*
X141624047Y-138516031D03*
%TO.N,/Sheet5F25207C/SWDCLK*%
X141000000Y-138100000D03*
X131826000Y-136042400D03*
%TO.N,/Sheet5F25207C/SDWIO*%
X134366000Y-136017000D03*
%TO.N,xTDI*%
X159131000Y-127889000D03*
X160994000Y-124213909D03*
%TO.N,Net-(Q201-Pad1)*%
X153074849Y-122247318D03*
X150495000Y-121158000D03*
%TO.N,xRST*%
X159048828Y-121651529D03*
X154051000Y-121920000D03*
%TO.N,iRST*%
X150241000Y-123571000D03*
X149352000Y-127952500D03*
%TO.N,/Sheet5F25207C/VBUS*%
X138176000Y-129921000D03*
X132700000Y-132100000D03*
%TO.N,Net-(R309-Pad2)*%
X137033000Y-130302000D03*
X135585200Y-132080000D03*
%TO.N,iTXD*%
X155200000Y-124400000D03*
X152273000Y-138557000D03*
X147300000Y-138700000D03*
X137775000Y-131175000D03*
%TO.N,iRXD*%
X138575000Y-131975000D03*
X148800000Y-138449990D03*
X154093000Y-136251000D03*
X151500000Y-138200000D03*
%TO.N,iTDO*%
X152527000Y-126200000D03*
X155900000Y-135125000D03*
%TO.N,iTMS_DIR*%
X159131000Y-132207000D03*
X156033586Y-132229980D03*
%TO.N,iTMS*%
X150622000Y-127127000D03*
X150740014Y-128862181D03*
%TD*%
D18*
%TO.N,+3V3*%
X148844000Y-128844000D02*
X149900000Y-129900000D01*
X149900000Y-129900000D02*
X150100000Y-129900000D01*
X150820000Y-129900000D02*
X152120000Y-128600000D01*
X150100000Y-129900000D02*
X150820000Y-129900000D01*
D19*
X144125000Y-137200000D02*
X144125000Y-136725000D01*
X144125000Y-136725000D02*
X143036000Y-135636000D01*
%TO.N,iRXD*%
X139944979Y-136249989D02*
X142244980Y-136249990D01*
X143819990Y-137825000D02*
X148175010Y-137825000D01*
X148175010Y-137825000D02*
X148800000Y-138449990D01*
X139698317Y-133098317D02*
X139698317Y-136003327D01*
X139698317Y-136003327D02*
X139944979Y-136249989D01*
X142244980Y-136249990D02*
X143819990Y-137825000D01*
X138575000Y-131975000D02*
X139698317Y-133098317D01*
%TO.N,iTXD*%
X146775000Y-138175000D02*
X147300000Y-138700000D01*
X143675000Y-138175000D02*
X146775000Y-138175000D01*
X139700000Y-136600000D02*
X142100000Y-136600000D01*
X142100000Y-136600000D02*
X143675000Y-138175000D01*
X139700000Y-136500000D02*
X139700000Y-136600000D01*
X137775000Y-131975000D02*
X139300000Y-133500000D01*
X139300000Y-133500000D02*
X139300000Y-136100000D01*
X139300000Y-136100000D02*
X139700000Y-136500000D01*
X137775000Y-131175000D02*
X137775000Y-131975000D01*
%TO.N,iTDO*%
X152908000Y-126581000D02*
X152527000Y-126200000D01*
X154093000Y-133519000D02*
X152908000Y-132334000D01*
X155900000Y-135125000D02*
X154294000Y-133519000D01*
X154294000Y-133519000D02*
X154093000Y-133519000D01*
X152908000Y-132334000D02*
X152908000Y-126581000D01*
%TO.N,iTXD*%
X154678000Y-124400000D02*
X155200000Y-124400000D01*
X153289000Y-125789000D02*
X154678000Y-124400000D01*
X153289000Y-131994010D02*
X153289000Y-125789000D01*
X155985000Y-133985000D02*
X155279990Y-133985000D01*
X156600000Y-135225000D02*
X156600000Y-134600000D01*
X153874990Y-137950010D02*
X156600000Y-135225000D01*
X156600000Y-134600000D02*
X155985000Y-133985000D01*
X153449990Y-137950010D02*
X153874990Y-137950010D01*
X152843000Y-138557000D02*
X153449990Y-137950010D01*
X155279990Y-133985000D02*
X153289000Y-131994010D01*
X152273000Y-138557000D02*
X152843000Y-138557000D01*
%TO.N,/Sheet5F25207C/~{RST}*%
X137975000Y-137350000D02*
X137000000Y-136375000D01*
X137000000Y-136375000D02*
X137000000Y-134500000D01*
X137975000Y-137950000D02*
X137975000Y-137350000D01*
%TO.N,/Sheet5F25207C/SWDCLK*%
X134324989Y-138549989D02*
X140550011Y-138549989D01*
X140550011Y-138549989D02*
X141000000Y-138100000D01*
X131826000Y-136051000D02*
X134324989Y-138549989D01*
X131826000Y-136042400D02*
X131826000Y-136051000D01*
D18*
%TO.N,+5V*%
X127508000Y-130937000D02*
X127508000Y-132587992D01*
X128500000Y-121500000D02*
X128500000Y-121642000D01*
X128016000Y-130429000D02*
X127508000Y-130937000D01*
X129032000Y-122174000D02*
X129032000Y-122681992D01*
X128500000Y-121642000D02*
X129032000Y-122174000D01*
X128016000Y-126949200D02*
X128016000Y-130429000D01*
%TO.N,+3V3*%
X148335990Y-135636000D02*
X148844000Y-135127990D01*
X148300000Y-128300000D02*
X141200000Y-128300000D01*
D19*
X158369000Y-124333000D02*
X157480000Y-123444000D01*
D18*
X148844000Y-128844000D02*
X148300000Y-128300000D01*
D20*
X157818000Y-128567000D02*
X158115000Y-128270000D01*
X155933000Y-128567000D02*
X157818000Y-128567000D01*
D19*
X157480000Y-123444000D02*
X156799994Y-123444000D01*
D18*
X143764000Y-135636000D02*
X148335990Y-135636000D01*
X148844000Y-135127990D02*
X148844000Y-128844000D01*
X143036000Y-135636000D02*
X143764000Y-135636000D01*
X140843000Y-135636000D02*
X143036000Y-135636000D01*
D19*
%TO.N,xTPWR*%
X153924000Y-126085600D02*
X155905200Y-126085600D01*
X155905200Y-126085600D02*
X156768800Y-125222000D01*
%TO.N,KEY*%
X160528000Y-136017000D02*
X160528000Y-134874000D01*
X167100000Y-129400000D02*
X167100000Y-132200000D01*
X161163000Y-134239000D02*
X165061000Y-134239000D01*
X166400000Y-128700000D02*
X167100000Y-129400000D01*
X160528000Y-134874000D02*
X161163000Y-134239000D01*
X167100000Y-132200000D02*
X165061000Y-134239000D01*
%TO.N,TCK*%
X164407008Y-128016000D02*
X165608000Y-129216992D01*
X160528000Y-128016000D02*
X164407008Y-128016000D01*
X165608000Y-129216992D02*
X165608000Y-131318000D01*
%TO.N,TMS*%
X164973000Y-130683000D02*
X164973000Y-131953000D01*
X159893000Y-130048000D02*
X164338000Y-130048000D01*
X164973000Y-131953000D02*
X165608000Y-132588000D01*
X164338000Y-130048000D02*
X164973000Y-130683000D01*
%TO.N,TPWR*%
X160909000Y-123317000D02*
X159004000Y-123317000D01*
X162306000Y-124714000D02*
X160909000Y-123317000D01*
X162306000Y-125857000D02*
X162742998Y-125857000D01*
X159004000Y-123317000D02*
X158369000Y-122682000D01*
X158369000Y-122682000D02*
X153430787Y-122682000D01*
X162306000Y-125857000D02*
X162306000Y-124714000D01*
X162742998Y-125857000D02*
X166300000Y-129414002D01*
X166300000Y-129414002D02*
X166300000Y-132000000D01*
X162306000Y-125857000D02*
X162306000Y-126844000D01*
X162306000Y-126844000D02*
X162150000Y-127000000D01*
X153430787Y-122682000D02*
X152799988Y-123312799D01*
X162200800Y-126949200D02*
X162150000Y-127000000D01*
%TO.N,/Sheet5F21D67E/RXD*%
X162150000Y-131000000D02*
X164274000Y-131000000D01*
X164274000Y-131000000D02*
X164592000Y-131318000D01*
X164592000Y-131318000D02*
X164592000Y-133604000D01*
%TO.N,/Sheet5F21D67E/TXD*%
X159893000Y-128524000D02*
X159893000Y-126492000D01*
X160369000Y-129000000D02*
X159893000Y-128524000D01*
X161155091Y-125229909D02*
X161756000Y-125229909D01*
X159893000Y-126492000D02*
X161155091Y-125229909D01*
X162150000Y-129000000D02*
X160369000Y-129000000D01*
%TO.N,/Sheet5F25207C/USBx1+*%
X123643000Y-131500000D02*
X122000000Y-131500000D01*
X124206000Y-130937000D02*
X123643000Y-131500000D01*
%TO.N,/Sheet5F25207C/USBx1-*%
X124206000Y-129032000D02*
X122032000Y-129032000D01*
X122032000Y-129032000D02*
X122000000Y-129000000D01*
%TO.N,/Sheet5F25207C/TRACESWO*%
X129500000Y-134500000D02*
X133350000Y-138350000D01*
X131191000Y-138938000D02*
X131729000Y-138400000D01*
X133300000Y-138400000D02*
X133350000Y-138350000D01*
X133350000Y-138350000D02*
X133900000Y-138900000D01*
X131729000Y-138400000D02*
X133300000Y-138400000D01*
X141240078Y-138900000D02*
X141624047Y-138516031D01*
X133900000Y-138900000D02*
X141240078Y-138900000D01*
%TO.N,/Sheet5F25207C/SWDCLK*%
X132000000Y-134500000D02*
X132000000Y-135868400D01*
X132000000Y-135868400D02*
X131826000Y-136042400D01*
%TO.N,/Sheet5F25207C/SDWIO*%
X134500000Y-135883000D02*
X134366000Y-136017000D01*
X134500000Y-134500000D02*
X134500000Y-135883000D01*
%TO.N,xTDI*%
X160994000Y-124213909D02*
X160994000Y-124638173D01*
X160994000Y-124638173D02*
X159131000Y-126501173D01*
X159131000Y-126501173D02*
X159131000Y-127889000D01*
%TO.N,Net-(Q201-Pad1)*%
X150495000Y-121158000D02*
X151985531Y-121158000D01*
X151985531Y-121158000D02*
X153074849Y-122247318D01*
%TO.N,xRST*%
X154319471Y-121651529D02*
X154051000Y-121920000D01*
X159048828Y-121651529D02*
X154319471Y-121651529D01*
%TO.N,iRST*%
X149352000Y-124460000D02*
X150241000Y-123571000D01*
X149352000Y-127952500D02*
X149352000Y-124460000D01*
%TO.N,/Sheet5F25207C/VBUS*%
X137134600Y-128879600D02*
X133248400Y-128879600D01*
X133248400Y-128879600D02*
X132700000Y-129428000D01*
X138176000Y-129921000D02*
X137134600Y-128879600D01*
X132700000Y-129428000D02*
X132700000Y-132100000D01*
%TO.N,Net-(R309-Pad2)*%
X133350000Y-131572000D02*
X133858000Y-132080000D01*
X136144000Y-129413000D02*
X133604000Y-129413000D01*
X137033000Y-130302000D02*
X136144000Y-129413000D01*
X133604000Y-129413000D02*
X133350000Y-129667000D01*
X133350000Y-129667000D02*
X133350000Y-131572000D01*
X133858000Y-132080000D02*
X135585200Y-132080000D01*
%TO.N,iRXD*%
X153400000Y-137600000D02*
X154093000Y-136907000D01*
X151500000Y-138200000D02*
X152100000Y-137600000D01*
X152100000Y-137600000D02*
X153400000Y-137600000D01*
X154093000Y-136907000D02*
X154093000Y-136251000D01*
%TO.N,iTMS_DIR*%
X159131000Y-132207000D02*
X156056566Y-132207000D01*
X156056566Y-132207000D02*
X156033586Y-132229980D01*
%TO.N,iTMS*%
X150622000Y-127127000D02*
X150622000Y-128744167D01*
X150622000Y-128744167D02*
X150740014Y-128862181D01*
%TD*%
%TA.AperFunction,Conductor*%
%TO.N,GND*%
G36*
X168989594Y-120153021D02*
G01*
X169000000Y-120155809D01*
X169009409Y-120153288D01*
X169019152Y-120153288D01*
X169019152Y-120153962D01*
X169027888Y-120153247D01*
X169158475Y-120166109D01*
X169172703Y-120168939D01*
X169318116Y-120213049D01*
X169331519Y-120218601D01*
X169465530Y-120290232D01*
X169477591Y-120298291D01*
X169595053Y-120394689D01*
X169605311Y-120404947D01*
X169701709Y-120522409D01*
X169709768Y-120534470D01*
X169781399Y-120668481D01*
X169786951Y-120681884D01*
X169831061Y-120827297D01*
X169833891Y-120841525D01*
X169846753Y-120972112D01*
X169846038Y-120980848D01*
X169846712Y-120980848D01*
X169846712Y-120990591D01*
X169844191Y-121000000D01*
X169846712Y-121009408D01*
X169846979Y-121010404D01*
X169849500Y-121029557D01*
X169849500Y-123939915D01*
X169832187Y-123987481D01*
X169788350Y-124012791D01*
X169738500Y-124004001D01*
X169709565Y-123973510D01*
X169680693Y-123916844D01*
X169680691Y-123916841D01*
X169678050Y-123911658D01*
X169588342Y-123821950D01*
X169583159Y-123819309D01*
X169583156Y-123819307D01*
X169480493Y-123766998D01*
X169480491Y-123766997D01*
X169475303Y-123764354D01*
X169381518Y-123749500D01*
X166418482Y-123749500D01*
X166324697Y-123764354D01*
X166319509Y-123766997D01*
X166319507Y-123766998D01*
X166216844Y-123819307D01*
X166216841Y-123819309D01*
X166211658Y-123821950D01*
X166121950Y-123911658D01*
X166119309Y-123916841D01*
X166119307Y-123916844D01*
X166066998Y-124019507D01*
X166064354Y-124024697D01*
X166049500Y-124118482D01*
X166049500Y-125181518D01*
X166064354Y-125275303D01*
X166066997Y-125280491D01*
X166066998Y-125280493D01*
X166119307Y-125383156D01*
X166119309Y-125383159D01*
X166121950Y-125388342D01*
X166211658Y-125478050D01*
X166216841Y-125480691D01*
X166216844Y-125480693D01*
X166319507Y-125533002D01*
X166319509Y-125533003D01*
X166324697Y-125535646D01*
X166418482Y-125550500D01*
X169381518Y-125550500D01*
X169475303Y-125535646D01*
X169480491Y-125533003D01*
X169480493Y-125533002D01*
X169583156Y-125480693D01*
X169583159Y-125480691D01*
X169588342Y-125478050D01*
X169678050Y-125388342D01*
X169680691Y-125383159D01*
X169680693Y-125383156D01*
X169709565Y-125326490D01*
X169746586Y-125291968D01*
X169797135Y-125289318D01*
X169837562Y-125319782D01*
X169849500Y-125360085D01*
X169849500Y-134639915D01*
X169832187Y-134687481D01*
X169788350Y-134712791D01*
X169738500Y-134704001D01*
X169709565Y-134673510D01*
X169680693Y-134616844D01*
X169680691Y-134616841D01*
X169678050Y-134611658D01*
X169588342Y-134521950D01*
X169583159Y-134519309D01*
X169583156Y-134519307D01*
X169480493Y-134466998D01*
X169480491Y-134466997D01*
X169475303Y-134464354D01*
X169381518Y-134449500D01*
X166418482Y-134449500D01*
X166324697Y-134464354D01*
X166319509Y-134466997D01*
X166319507Y-134466998D01*
X166216844Y-134519307D01*
X166216841Y-134519309D01*
X166211658Y-134521950D01*
X166121950Y-134611658D01*
X166119309Y-134616841D01*
X166119307Y-134616844D01*
X166066998Y-134719507D01*
X166064354Y-134724697D01*
X166049500Y-134818482D01*
X166049500Y-135881518D01*
X166064354Y-135975303D01*
X166066997Y-135980491D01*
X166066998Y-135980493D01*
X166119307Y-136083156D01*
X166119309Y-136083159D01*
X166121950Y-136088342D01*
X166211658Y-136178050D01*
X166216841Y-136180691D01*
X166216844Y-136180693D01*
X166319507Y-136233002D01*
X166319509Y-136233003D01*
X166324697Y-136235646D01*
X166418482Y-136250500D01*
X169381518Y-136250500D01*
X169475303Y-136235646D01*
X169480491Y-136233003D01*
X169480493Y-136233002D01*
X169583156Y-136180693D01*
X169583159Y-136180691D01*
X169588342Y-136178050D01*
X169678050Y-136088342D01*
X169680691Y-136083159D01*
X169680693Y-136083156D01*
X169708097Y-136029370D01*
X169709565Y-136026490D01*
X169746586Y-135991968D01*
X169797135Y-135989318D01*
X169837562Y-136019782D01*
X169849500Y-136060085D01*
X169849500Y-138970443D01*
X169846979Y-138989594D01*
X169844191Y-139000000D01*
X169846712Y-139009409D01*
X169846712Y-139019152D01*
X169846038Y-139019152D01*
X169846753Y-139027888D01*
X169833891Y-139158475D01*
X169831061Y-139172703D01*
X169786951Y-139318116D01*
X169781399Y-139331519D01*
X169709768Y-139465530D01*
X169701709Y-139477591D01*
X169681224Y-139502552D01*
X169621358Y-139575500D01*
X169605311Y-139595053D01*
X169595053Y-139605311D01*
X169477591Y-139701709D01*
X169465530Y-139709768D01*
X169331519Y-139781399D01*
X169318116Y-139786951D01*
X169172703Y-139831061D01*
X169158475Y-139833891D01*
X169027888Y-139846753D01*
X169019152Y-139846038D01*
X169019152Y-139846712D01*
X169009409Y-139846712D01*
X169000000Y-139844191D01*
X168989594Y-139846979D01*
X168970443Y-139849500D01*
X121029557Y-139849500D01*
X121010406Y-139846979D01*
X121000000Y-139844191D01*
X120990591Y-139846712D01*
X120980848Y-139846712D01*
X120980848Y-139846038D01*
X120972112Y-139846753D01*
X120841525Y-139833891D01*
X120827297Y-139831061D01*
X120681884Y-139786951D01*
X120668481Y-139781399D01*
X120534470Y-139709768D01*
X120522409Y-139701709D01*
X120404947Y-139605311D01*
X120394689Y-139595053D01*
X120378643Y-139575500D01*
X120318776Y-139502552D01*
X120298291Y-139477591D01*
X120290232Y-139465530D01*
X120218601Y-139331519D01*
X120213049Y-139318116D01*
X120168939Y-139172703D01*
X120166109Y-139158475D01*
X120153247Y-139027888D01*
X120153962Y-139019152D01*
X120153288Y-139019152D01*
X120153288Y-139009409D01*
X120155809Y-139000000D01*
X120153021Y-138989594D01*
X120150500Y-138970443D01*
X120150500Y-138485963D01*
X120494757Y-138485963D01*
X120495060Y-138489572D01*
X120495060Y-138489574D01*
X120508985Y-138655408D01*
X120511175Y-138681483D01*
X120524757Y-138728848D01*
X120563041Y-138862359D01*
X120565258Y-138870091D01*
X120578723Y-138896291D01*
X120653288Y-139041380D01*
X120653291Y-139041385D01*
X120654944Y-139044601D01*
X120776818Y-139198369D01*
X120926238Y-139325535D01*
X120929400Y-139327302D01*
X121094354Y-139419492D01*
X121094358Y-139419494D01*
X121097513Y-139421257D01*
X121100949Y-139422374D01*
X121100955Y-139422376D01*
X121219467Y-139460882D01*
X121284118Y-139481889D01*
X121344541Y-139489094D01*
X121475346Y-139504692D01*
X121475349Y-139504692D01*
X121478946Y-139505121D01*
X121543365Y-139500164D01*
X121670965Y-139490346D01*
X121670966Y-139490346D01*
X121674576Y-139490068D01*
X121863556Y-139437303D01*
X121866783Y-139435673D01*
X122035455Y-139350471D01*
X122035458Y-139350469D01*
X122038689Y-139348837D01*
X122193303Y-139228040D01*
X122321509Y-139079511D01*
X122323292Y-139076372D01*
X122323295Y-139076368D01*
X122382616Y-138971943D01*
X122418425Y-138908909D01*
X122420301Y-138903272D01*
X122479215Y-138726168D01*
X122480358Y-138722732D01*
X122481123Y-138716681D01*
X122504691Y-138530115D01*
X122504691Y-138530111D01*
X122504949Y-138528071D01*
X122505047Y-138521091D01*
X122505312Y-138502062D01*
X122505341Y-138500000D01*
X122503011Y-138476231D01*
X122494428Y-138388702D01*
X122486194Y-138304728D01*
X122480338Y-138285330D01*
X122471734Y-138256834D01*
X122429484Y-138116894D01*
X122366041Y-137997576D01*
X122354037Y-137975000D01*
X123444551Y-137975000D01*
X123444779Y-137977897D01*
X123463960Y-138221608D01*
X123464317Y-138226148D01*
X123469464Y-138247586D01*
X123516722Y-138444430D01*
X123523127Y-138471111D01*
X123524240Y-138473798D01*
X123617936Y-138700000D01*
X123619534Y-138703859D01*
X123621055Y-138706341D01*
X123621057Y-138706345D01*
X123719023Y-138866210D01*
X123751164Y-138918659D01*
X123753056Y-138920874D01*
X123753058Y-138920877D01*
X123906471Y-139100500D01*
X123914776Y-139110224D01*
X123916990Y-139112115D01*
X124055331Y-139230269D01*
X124106341Y-139273836D01*
X124108828Y-139275360D01*
X124318655Y-139403943D01*
X124318659Y-139403945D01*
X124321141Y-139405466D01*
X124323834Y-139406581D01*
X124323835Y-139406582D01*
X124400349Y-139438275D01*
X124553889Y-139501873D01*
X124798852Y-139560683D01*
X124801739Y-139560910D01*
X124801744Y-139560911D01*
X124924363Y-139570561D01*
X124987118Y-139575500D01*
X125112882Y-139575500D01*
X125175637Y-139570561D01*
X125298256Y-139560911D01*
X125298261Y-139560910D01*
X125301148Y-139560683D01*
X125546111Y-139501873D01*
X125699651Y-139438275D01*
X125776165Y-139406582D01*
X125776166Y-139406581D01*
X125778859Y-139405466D01*
X125781341Y-139403945D01*
X125781345Y-139403943D01*
X125991172Y-139275360D01*
X125993659Y-139273836D01*
X126044670Y-139230269D01*
X126183010Y-139112115D01*
X126185224Y-139110224D01*
X126193529Y-139100500D01*
X126346942Y-138920877D01*
X126346944Y-138920874D01*
X126348836Y-138918659D01*
X126380977Y-138866210D01*
X126467752Y-138724607D01*
X128536222Y-138724607D01*
X128543299Y-138765794D01*
X128564024Y-138886406D01*
X128565673Y-138896004D01*
X128567355Y-138899957D01*
X128631276Y-139050179D01*
X128633765Y-139056029D01*
X128636310Y-139059487D01*
X128730710Y-139187763D01*
X128736843Y-139196097D01*
X128740114Y-139198876D01*
X128740116Y-139198878D01*
X128777066Y-139230269D01*
X128869380Y-139308695D01*
X129024265Y-139387783D01*
X129193190Y-139429119D01*
X129204167Y-139429800D01*
X129329547Y-139429800D01*
X129331672Y-139429552D01*
X129331676Y-139429552D01*
X129454468Y-139415236D01*
X129454469Y-139415236D01*
X129458739Y-139414738D01*
X129462781Y-139413271D01*
X129618166Y-139356869D01*
X129618169Y-139356868D01*
X129622212Y-139355400D01*
X129767650Y-139260047D01*
X129887251Y-139133793D01*
X129895794Y-139119086D01*
X129948765Y-139027888D01*
X129974599Y-138983412D01*
X130025010Y-138816969D01*
X130025509Y-138808922D01*
X130035512Y-138647687D01*
X130035512Y-138647684D01*
X130035778Y-138643393D01*
X130016314Y-138530115D01*
X130007055Y-138476231D01*
X130007054Y-138476229D01*
X130006327Y-138471996D01*
X129994646Y-138444545D01*
X129939917Y-138315923D01*
X129939915Y-138315920D01*
X129938235Y-138311971D01*
X129881046Y-138234259D01*
X129837703Y-138175362D01*
X129837701Y-138175360D01*
X129835157Y-138171903D01*
X129830660Y-138168082D01*
X129705897Y-138062089D01*
X129702620Y-138059305D01*
X129547735Y-137980217D01*
X129378810Y-137938881D01*
X129367833Y-137938200D01*
X129242453Y-137938200D01*
X129240328Y-137938448D01*
X129240324Y-137938448D01*
X129117532Y-137952764D01*
X129117531Y-137952764D01*
X129113261Y-137953262D01*
X129109220Y-137954729D01*
X129109219Y-137954729D01*
X128953834Y-138011131D01*
X128953831Y-138011132D01*
X128949788Y-138012600D01*
X128804350Y-138107953D01*
X128684749Y-138234207D01*
X128682593Y-138237918D01*
X128682592Y-138237920D01*
X128649683Y-138294577D01*
X128597401Y-138384588D01*
X128546990Y-138551031D01*
X128546724Y-138555316D01*
X128546724Y-138555317D01*
X128536714Y-138716681D01*
X128536222Y-138724607D01*
X126467752Y-138724607D01*
X126478943Y-138706345D01*
X126478945Y-138706341D01*
X126480466Y-138703859D01*
X126482065Y-138700000D01*
X126575760Y-138473798D01*
X126576873Y-138471111D01*
X126583279Y-138444430D01*
X126630536Y-138247586D01*
X126635683Y-138226148D01*
X126636041Y-138221608D01*
X126655221Y-137977897D01*
X126655449Y-137975000D01*
X126646190Y-137857350D01*
X126635911Y-137726744D01*
X126635910Y-137726739D01*
X126635683Y-137723852D01*
X126598234Y-137567864D01*
X126577552Y-137481717D01*
X126577552Y-137481716D01*
X126576873Y-137478889D01*
X126480466Y-137246141D01*
X126465624Y-137221920D01*
X126350360Y-137033828D01*
X126348836Y-137031341D01*
X126345545Y-137027487D01*
X126187115Y-136841990D01*
X126185224Y-136839776D01*
X126180763Y-136835966D01*
X126012912Y-136692607D01*
X128536222Y-136692607D01*
X128547281Y-136756966D01*
X128563952Y-136853986D01*
X128565673Y-136864004D01*
X128567355Y-136867957D01*
X128626399Y-137006717D01*
X128633765Y-137024029D01*
X128636310Y-137027487D01*
X128733590Y-137159676D01*
X128736843Y-137164097D01*
X128740114Y-137166876D01*
X128740116Y-137166878D01*
X128840011Y-137251744D01*
X128869380Y-137276695D01*
X129024265Y-137355783D01*
X129193190Y-137397119D01*
X129204167Y-137397800D01*
X129329547Y-137397800D01*
X129331672Y-137397552D01*
X129331676Y-137397552D01*
X129454468Y-137383236D01*
X129454469Y-137383236D01*
X129458739Y-137382738D01*
X129486388Y-137372702D01*
X129618166Y-137324869D01*
X129618169Y-137324868D01*
X129622212Y-137323400D01*
X129767650Y-137228047D01*
X129887251Y-137101793D01*
X129895495Y-137087601D01*
X129972441Y-136955127D01*
X129974599Y-136951412D01*
X130025010Y-136784969D01*
X130029174Y-136717852D01*
X130035512Y-136615687D01*
X130035512Y-136615684D01*
X130035778Y-136611393D01*
X130014349Y-136486683D01*
X130007055Y-136444231D01*
X130007054Y-136444229D01*
X130006327Y-136439996D01*
X129981713Y-136382149D01*
X129939917Y-136283923D01*
X129939915Y-136283920D01*
X129938235Y-136279971D01*
X129881634Y-136203058D01*
X129837703Y-136143362D01*
X129837701Y-136143360D01*
X129835157Y-136139903D01*
X129828406Y-136134167D01*
X129705897Y-136030089D01*
X129702620Y-136027305D01*
X129547735Y-135948217D01*
X129378810Y-135906881D01*
X129367833Y-135906200D01*
X129242453Y-135906200D01*
X129240328Y-135906448D01*
X129240324Y-135906448D01*
X129117532Y-135920764D01*
X129117531Y-135920764D01*
X129113261Y-135921262D01*
X129109220Y-135922729D01*
X129109219Y-135922729D01*
X128953834Y-135979131D01*
X128953831Y-135979132D01*
X128949788Y-135980600D01*
X128804350Y-136075953D01*
X128684749Y-136202207D01*
X128682593Y-136205918D01*
X128682592Y-136205920D01*
X128644496Y-136271507D01*
X128597401Y-136352588D01*
X128546990Y-136519031D01*
X128546724Y-136523316D01*
X128546724Y-136523317D01*
X128537125Y-136678058D01*
X128536222Y-136692607D01*
X126012912Y-136692607D01*
X125995877Y-136678058D01*
X125995874Y-136678056D01*
X125993659Y-136676164D01*
X125913855Y-136627260D01*
X125781345Y-136546057D01*
X125781341Y-136546055D01*
X125778859Y-136544534D01*
X125727637Y-136523317D01*
X125548798Y-136449240D01*
X125546111Y-136448127D01*
X125301148Y-136389317D01*
X125298261Y-136389090D01*
X125298256Y-136389089D01*
X125175637Y-136379439D01*
X125112882Y-136374500D01*
X124987118Y-136374500D01*
X124924363Y-136379439D01*
X124801744Y-136389089D01*
X124801739Y-136389090D01*
X124798852Y-136389317D01*
X124553889Y-136448127D01*
X124551202Y-136449240D01*
X124372364Y-136523317D01*
X124321141Y-136544534D01*
X124318659Y-136546055D01*
X124318655Y-136546057D01*
X124186145Y-136627260D01*
X124106341Y-136676164D01*
X124104126Y-136678056D01*
X124104123Y-136678058D01*
X123919237Y-136835966D01*
X123914776Y-136839776D01*
X123912885Y-136841990D01*
X123754456Y-137027487D01*
X123751164Y-137031341D01*
X123749640Y-137033828D01*
X123634377Y-137221920D01*
X123619534Y-137246141D01*
X123523127Y-137478889D01*
X123522448Y-137481716D01*
X123522448Y-137481717D01*
X123501766Y-137567864D01*
X123464317Y-137723852D01*
X123464090Y-137726739D01*
X123464089Y-137726744D01*
X123453810Y-137857350D01*
X123444551Y-137975000D01*
X122354037Y-137975000D01*
X122339069Y-137946848D01*
X122339068Y-137946847D01*
X122337370Y-137943653D01*
X122213361Y-137791602D01*
X122086726Y-137686841D01*
X122064975Y-137668847D01*
X122064974Y-137668846D01*
X122062180Y-137666535D01*
X122048724Y-137659259D01*
X121892768Y-137574934D01*
X121889585Y-137573213D01*
X121886135Y-137572145D01*
X121886130Y-137572143D01*
X121752961Y-137530921D01*
X121702152Y-137515193D01*
X121507019Y-137494683D01*
X121311618Y-137512466D01*
X121308145Y-137513488D01*
X121308146Y-137513488D01*
X121126864Y-137566842D01*
X121126860Y-137566844D01*
X121123393Y-137567864D01*
X121040843Y-137611020D01*
X120952719Y-137657090D01*
X120952716Y-137657092D01*
X120949512Y-137658767D01*
X120946694Y-137661033D01*
X120946692Y-137661034D01*
X120799419Y-137779444D01*
X120799416Y-137779447D01*
X120796600Y-137781711D01*
X120670480Y-137932016D01*
X120668738Y-137935184D01*
X120668737Y-137935186D01*
X120656054Y-137958257D01*
X120575956Y-138103954D01*
X120574864Y-138107397D01*
X120574863Y-138107399D01*
X120518420Y-138285330D01*
X120516628Y-138290978D01*
X120516225Y-138294574D01*
X120516224Y-138294577D01*
X120512304Y-138329527D01*
X120494757Y-138485963D01*
X120150500Y-138485963D01*
X120150500Y-134846705D01*
X120167813Y-134799139D01*
X120211650Y-134773829D01*
X120261500Y-134782619D01*
X120284101Y-134802844D01*
X120305209Y-134831527D01*
X120311021Y-134837760D01*
X120437758Y-134945430D01*
X120444865Y-134950170D01*
X120592961Y-135025791D01*
X120600969Y-135028769D01*
X120763465Y-135068532D01*
X120769957Y-135069520D01*
X120776566Y-135069930D01*
X120778824Y-135070000D01*
X120996952Y-135070000D01*
X121006948Y-135066362D01*
X121010000Y-135061075D01*
X121010000Y-135056952D01*
X121510000Y-135056952D01*
X121513638Y-135066948D01*
X121518925Y-135070000D01*
X121701653Y-135070000D01*
X121705923Y-135069752D01*
X121829440Y-135055351D01*
X121837755Y-135053385D01*
X121994060Y-134996650D01*
X122001705Y-134992821D01*
X122140765Y-134901649D01*
X122147321Y-134896167D01*
X122261681Y-134775446D01*
X122266794Y-134768612D01*
X122350320Y-134624813D01*
X122353724Y-134616983D01*
X122364172Y-134582488D01*
X122363676Y-134573484D01*
X124174750Y-134573484D01*
X124175483Y-134579889D01*
X124222406Y-134690165D01*
X124226642Y-134697591D01*
X124325204Y-134831522D01*
X124331021Y-134837760D01*
X124457758Y-134945430D01*
X124464865Y-134950170D01*
X124612961Y-135025791D01*
X124620969Y-135028769D01*
X124783465Y-135068532D01*
X124789957Y-135069520D01*
X124796566Y-135069930D01*
X124798824Y-135070000D01*
X125166952Y-135070000D01*
X125176948Y-135066362D01*
X125180000Y-135061075D01*
X125180000Y-135056952D01*
X125680000Y-135056952D01*
X125683638Y-135066948D01*
X125688925Y-135070000D01*
X126021653Y-135070000D01*
X126025923Y-135069752D01*
X126149440Y-135055351D01*
X126157755Y-135053385D01*
X126314060Y-134996650D01*
X126321705Y-134992821D01*
X126460765Y-134901649D01*
X126467321Y-134896167D01*
X126581681Y-134775446D01*
X126586794Y-134768612D01*
X126670320Y-134624813D01*
X126673724Y-134616983D01*
X126684172Y-134582488D01*
X126683587Y-134571868D01*
X126682584Y-134570797D01*
X126679244Y-134570000D01*
X125693048Y-134570000D01*
X125683052Y-134573638D01*
X125680000Y-134578925D01*
X125680000Y-135056952D01*
X125180000Y-135056952D01*
X125180000Y-134583048D01*
X125176362Y-134573052D01*
X125171075Y-134570000D01*
X124184323Y-134570000D01*
X124174750Y-134573484D01*
X122363676Y-134573484D01*
X122363587Y-134571868D01*
X122362584Y-134570797D01*
X122359244Y-134570000D01*
X121523048Y-134570000D01*
X121513052Y-134573638D01*
X121510000Y-134578925D01*
X121510000Y-135056952D01*
X121010000Y-135056952D01*
X121010000Y-134500000D01*
X128594540Y-134500000D01*
X128594945Y-134503853D01*
X128613678Y-134682086D01*
X128614326Y-134688256D01*
X128672821Y-134868284D01*
X128767467Y-135032216D01*
X128770058Y-135035093D01*
X128770059Y-135035095D01*
X128789739Y-135056952D01*
X128894129Y-135172888D01*
X128907883Y-135182881D01*
X129032744Y-135273597D01*
X129047270Y-135284151D01*
X129050812Y-135285728D01*
X129216652Y-135359566D01*
X129216655Y-135359567D01*
X129220197Y-135361144D01*
X129223989Y-135361950D01*
X129223992Y-135361951D01*
X129393663Y-135398015D01*
X129405354Y-135400500D01*
X129594646Y-135400500D01*
X129606337Y-135398015D01*
X129776008Y-135361951D01*
X129776011Y-135361950D01*
X129779803Y-135361144D01*
X129783345Y-135359567D01*
X129783348Y-135359566D01*
X129890465Y-135311874D01*
X129940961Y-135308343D01*
X129972890Y-135327150D01*
X132668914Y-138023174D01*
X132690306Y-138069050D01*
X132677205Y-138117945D01*
X132635741Y-138146979D01*
X132616588Y-138149500D01*
X131760962Y-138149500D01*
X131746525Y-138148078D01*
X131736149Y-138146014D01*
X131729000Y-138144592D01*
X131721851Y-138146014D01*
X131704326Y-138149500D01*
X131638407Y-138162612D01*
X131638405Y-138162613D01*
X131631260Y-138164034D01*
X131625203Y-138168081D01*
X131625201Y-138168082D01*
X131591635Y-138190510D01*
X131548399Y-138219399D01*
X131544350Y-138225459D01*
X131538470Y-138234259D01*
X131529267Y-138245473D01*
X131308562Y-138466178D01*
X131262686Y-138487570D01*
X131255788Y-138487851D01*
X131192320Y-138487463D01*
X131134501Y-138487110D01*
X131134500Y-138487110D01*
X131129231Y-138487078D01*
X131005155Y-138522539D01*
X130896019Y-138591399D01*
X130892531Y-138595348D01*
X130892529Y-138595350D01*
X130860781Y-138631298D01*
X130810596Y-138688122D01*
X130808357Y-138692891D01*
X130808355Y-138692894D01*
X130774129Y-138765794D01*
X130755754Y-138804932D01*
X130735901Y-138932440D01*
X130736584Y-138937663D01*
X130736584Y-138937666D01*
X130751866Y-139054527D01*
X130752633Y-139060394D01*
X130754756Y-139065219D01*
X130791051Y-139147705D01*
X130804605Y-139178510D01*
X130887639Y-139277291D01*
X130995060Y-139348796D01*
X131000092Y-139350368D01*
X131000094Y-139350369D01*
X131035714Y-139361497D01*
X131118233Y-139387278D01*
X131123501Y-139387375D01*
X131123504Y-139387375D01*
X131177552Y-139388365D01*
X131247255Y-139389643D01*
X131252338Y-139388257D01*
X131252340Y-139388257D01*
X131366671Y-139357086D01*
X131371755Y-139355700D01*
X131481724Y-139288179D01*
X131568322Y-139192507D01*
X131624588Y-139076375D01*
X131641460Y-138976086D01*
X131645522Y-138951944D01*
X131645522Y-138951943D01*
X131645997Y-138949120D01*
X131646133Y-138938000D01*
X131638744Y-138886405D01*
X131649139Y-138836865D01*
X131659671Y-138823589D01*
X131811086Y-138672174D01*
X131856962Y-138650782D01*
X131863412Y-138650500D01*
X133265588Y-138650500D01*
X133313154Y-138667813D01*
X133317914Y-138672174D01*
X133700267Y-139054527D01*
X133709470Y-139065741D01*
X133719399Y-139080601D01*
X133725459Y-139084650D01*
X133796201Y-139131918D01*
X133796203Y-139131919D01*
X133802260Y-139135966D01*
X133809405Y-139137387D01*
X133809407Y-139137388D01*
X133839894Y-139143452D01*
X133875326Y-139150500D01*
X133875327Y-139150500D01*
X133900000Y-139155408D01*
X133917526Y-139151922D01*
X133931961Y-139150500D01*
X141208116Y-139150500D01*
X141222553Y-139151922D01*
X141240078Y-139155408D01*
X141337819Y-139135966D01*
X141376344Y-139110224D01*
X141420679Y-139080601D01*
X141430608Y-139065741D01*
X141439811Y-139054527D01*
X141507191Y-138987147D01*
X141553067Y-138965755D01*
X141560873Y-138965485D01*
X141590352Y-138966025D01*
X141680302Y-138967674D01*
X141685385Y-138966288D01*
X141685387Y-138966288D01*
X141799718Y-138935117D01*
X141804802Y-138933731D01*
X141914771Y-138866210D01*
X142001369Y-138770538D01*
X142057635Y-138654406D01*
X142077002Y-138539291D01*
X142078569Y-138529975D01*
X142078569Y-138529974D01*
X142079044Y-138527151D01*
X142079180Y-138516031D01*
X142078775Y-138513203D01*
X142061633Y-138393503D01*
X142061632Y-138393500D01*
X142060886Y-138388290D01*
X142058706Y-138383495D01*
X142009657Y-138275617D01*
X142009655Y-138275614D01*
X142007475Y-138270819D01*
X141989394Y-138249834D01*
X141926680Y-138177051D01*
X141926679Y-138177050D01*
X141923240Y-138173059D01*
X141918821Y-138170195D01*
X141918819Y-138170193D01*
X141827612Y-138111077D01*
X141814953Y-138102872D01*
X141809904Y-138101362D01*
X141809902Y-138101361D01*
X141696373Y-138067408D01*
X141696372Y-138067408D01*
X141691320Y-138065897D01*
X141625818Y-138065497D01*
X141567548Y-138065141D01*
X141567547Y-138065141D01*
X141562278Y-138065109D01*
X141557209Y-138066558D01*
X141557207Y-138066558D01*
X141536107Y-138072588D01*
X141485615Y-138069013D01*
X141449233Y-138033817D01*
X141442520Y-138011928D01*
X141437586Y-137977472D01*
X141437585Y-137977469D01*
X141436839Y-137972259D01*
X141434417Y-137966932D01*
X141385610Y-137859586D01*
X141385608Y-137859583D01*
X141383428Y-137854788D01*
X141379977Y-137850782D01*
X141302633Y-137761020D01*
X141302632Y-137761019D01*
X141299193Y-137757028D01*
X141294774Y-137754164D01*
X141294772Y-137754162D01*
X141195329Y-137689708D01*
X141195330Y-137689708D01*
X141190906Y-137686841D01*
X141185857Y-137685331D01*
X141185855Y-137685330D01*
X141072326Y-137651377D01*
X141072325Y-137651377D01*
X141067273Y-137649866D01*
X141001771Y-137649466D01*
X140943501Y-137649110D01*
X140943500Y-137649110D01*
X140938231Y-137649078D01*
X140814155Y-137684539D01*
X140705019Y-137753399D01*
X140701531Y-137757348D01*
X140701529Y-137757350D01*
X140678796Y-137783091D01*
X140619596Y-137850122D01*
X140617357Y-137854891D01*
X140617355Y-137854894D01*
X140590709Y-137911650D01*
X140564754Y-137966932D01*
X140544901Y-138094440D01*
X140545584Y-138099663D01*
X140545584Y-138099665D01*
X140547166Y-138111763D01*
X140551772Y-138146979D01*
X140552479Y-138152389D01*
X140541480Y-138201798D01*
X140531433Y-138214306D01*
X140501693Y-138244047D01*
X140467925Y-138277815D01*
X140422049Y-138299207D01*
X140415599Y-138299489D01*
X138424384Y-138299489D01*
X138376818Y-138282176D01*
X138351508Y-138238339D01*
X138357789Y-138193224D01*
X138400245Y-138105595D01*
X138408588Y-138088375D01*
X138427164Y-137977960D01*
X138429522Y-137963944D01*
X138429522Y-137963943D01*
X138429997Y-137961120D01*
X138430133Y-137950000D01*
X138429682Y-137946848D01*
X138412586Y-137827472D01*
X138412585Y-137827469D01*
X138411839Y-137822259D01*
X138394664Y-137784485D01*
X138360610Y-137709586D01*
X138360608Y-137709583D01*
X138358428Y-137704788D01*
X138353881Y-137699510D01*
X138277633Y-137611020D01*
X138277632Y-137611019D01*
X138274193Y-137607028D01*
X138269774Y-137604164D01*
X138269772Y-137604162D01*
X138259251Y-137597343D01*
X138228752Y-137556943D01*
X138225500Y-137535246D01*
X138225500Y-137381962D01*
X138226922Y-137367525D01*
X138228986Y-137357149D01*
X138230408Y-137350000D01*
X138224917Y-137322394D01*
X138212388Y-137259406D01*
X138212387Y-137259404D01*
X138210966Y-137252259D01*
X138188213Y-137218207D01*
X138155601Y-137169399D01*
X138140742Y-137159470D01*
X138129527Y-137150267D01*
X137272174Y-136292914D01*
X137250782Y-136247038D01*
X137250500Y-136240588D01*
X137250500Y-135422246D01*
X137267813Y-135374680D01*
X137294399Y-135354645D01*
X137452730Y-135284151D01*
X137467257Y-135273597D01*
X137592117Y-135182881D01*
X137605871Y-135172888D01*
X137710261Y-135056952D01*
X137729941Y-135035095D01*
X137729942Y-135035093D01*
X137732533Y-135032216D01*
X137827179Y-134868284D01*
X137885674Y-134688256D01*
X137886323Y-134682086D01*
X137905055Y-134503853D01*
X137905460Y-134500000D01*
X137897626Y-134425459D01*
X137886079Y-134315595D01*
X137886078Y-134315593D01*
X137885674Y-134311744D01*
X137827179Y-134131716D01*
X137732533Y-133967784D01*
X137727341Y-133962017D01*
X137608464Y-133829992D01*
X137605871Y-133827112D01*
X137500994Y-133750915D01*
X137455867Y-133718128D01*
X137455866Y-133718127D01*
X137452730Y-133715849D01*
X137440661Y-133710475D01*
X137283348Y-133640434D01*
X137283345Y-133640433D01*
X137279803Y-133638856D01*
X137276011Y-133638050D01*
X137276008Y-133638049D01*
X137098443Y-133600307D01*
X137098442Y-133600307D01*
X137094646Y-133599500D01*
X136905354Y-133599500D01*
X136901558Y-133600307D01*
X136901557Y-133600307D01*
X136723992Y-133638049D01*
X136723989Y-133638050D01*
X136720197Y-133638856D01*
X136716655Y-133640433D01*
X136716652Y-133640434D01*
X136559339Y-133710475D01*
X136547270Y-133715849D01*
X136544134Y-133718127D01*
X136544133Y-133718128D01*
X136499006Y-133750915D01*
X136394129Y-133827112D01*
X136391536Y-133829992D01*
X136272660Y-133962017D01*
X136267467Y-133967784D01*
X136172821Y-134131716D01*
X136114326Y-134311744D01*
X136113922Y-134315593D01*
X136113921Y-134315595D01*
X136102374Y-134425459D01*
X136094540Y-134500000D01*
X136094945Y-134503853D01*
X136113678Y-134682086D01*
X136114326Y-134688256D01*
X136172821Y-134868284D01*
X136267467Y-135032216D01*
X136270058Y-135035093D01*
X136270059Y-135035095D01*
X136289739Y-135056952D01*
X136394129Y-135172888D01*
X136407883Y-135182881D01*
X136532744Y-135273597D01*
X136547270Y-135284151D01*
X136705600Y-135354645D01*
X136742011Y-135389807D01*
X136749500Y-135422246D01*
X136749500Y-136343038D01*
X136748078Y-136357475D01*
X136744592Y-136375000D01*
X136746014Y-136382149D01*
X136762436Y-136464705D01*
X136764034Y-136472741D01*
X136776575Y-136491510D01*
X136819399Y-136555601D01*
X136825459Y-136559650D01*
X136834259Y-136565530D01*
X136845473Y-136574733D01*
X137069640Y-136798900D01*
X137091032Y-136844776D01*
X137077931Y-136893671D01*
X137036467Y-136922705D01*
X137005438Y-136923041D01*
X137005268Y-136924160D01*
X137002013Y-136923665D01*
X136998810Y-136922881D01*
X136987833Y-136922200D01*
X136862453Y-136922200D01*
X136860328Y-136922448D01*
X136860324Y-136922448D01*
X136737532Y-136936764D01*
X136737531Y-136936764D01*
X136733261Y-136937262D01*
X136729220Y-136938729D01*
X136729219Y-136938729D01*
X136573834Y-136995131D01*
X136573831Y-136995132D01*
X136569788Y-136996600D01*
X136424350Y-137091953D01*
X136304749Y-137218207D01*
X136302593Y-137221918D01*
X136302592Y-137221920D01*
X136269640Y-137278651D01*
X136217401Y-137368588D01*
X136166990Y-137535031D01*
X136166724Y-137539316D01*
X136166724Y-137539317D01*
X136156707Y-137700794D01*
X136156222Y-137708607D01*
X136165228Y-137761020D01*
X136184328Y-137872174D01*
X136185673Y-137880004D01*
X136187355Y-137883957D01*
X136251122Y-138033817D01*
X136253765Y-138040029D01*
X136315966Y-138124551D01*
X136356843Y-138180097D01*
X136355395Y-138181162D01*
X136372568Y-138221608D01*
X136357774Y-138270017D01*
X136315324Y-138297591D01*
X136298670Y-138299489D01*
X134459401Y-138299489D01*
X134411835Y-138282176D01*
X134407075Y-138277815D01*
X132293832Y-136164572D01*
X132272440Y-136118696D01*
X132273183Y-136099970D01*
X132280523Y-136056342D01*
X132280524Y-136056332D01*
X132280997Y-136053520D01*
X132281133Y-136042400D01*
X132262839Y-135914659D01*
X132260622Y-135909783D01*
X132260587Y-135909624D01*
X132259177Y-135904801D01*
X132259521Y-135904700D01*
X132253986Y-135879155D01*
X132253986Y-135875548D01*
X132255408Y-135868400D01*
X132251922Y-135850875D01*
X132250500Y-135836438D01*
X132250500Y-135422246D01*
X132267813Y-135374680D01*
X132294399Y-135354645D01*
X132452730Y-135284151D01*
X132467257Y-135273597D01*
X132592117Y-135182881D01*
X132605871Y-135172888D01*
X132710261Y-135056952D01*
X132729941Y-135035095D01*
X132729942Y-135035093D01*
X132732533Y-135032216D01*
X132827179Y-134868284D01*
X132885674Y-134688256D01*
X132886323Y-134682086D01*
X132905055Y-134503853D01*
X132905460Y-134500000D01*
X133594540Y-134500000D01*
X133594945Y-134503853D01*
X133613678Y-134682086D01*
X133614326Y-134688256D01*
X133672821Y-134868284D01*
X133767467Y-135032216D01*
X133770058Y-135035093D01*
X133770059Y-135035095D01*
X133789739Y-135056952D01*
X133894129Y-135172888D01*
X133907883Y-135182881D01*
X134032744Y-135273597D01*
X134047270Y-135284151D01*
X134205600Y-135354645D01*
X134242011Y-135389807D01*
X134249500Y-135422246D01*
X134249500Y-135525907D01*
X134232187Y-135573473D01*
X134195837Y-135597057D01*
X134180155Y-135601539D01*
X134071019Y-135670399D01*
X134067531Y-135674348D01*
X134067529Y-135674350D01*
X134064288Y-135678020D01*
X133985596Y-135767122D01*
X133983357Y-135771891D01*
X133983355Y-135771894D01*
X133946274Y-135850875D01*
X133930754Y-135883932D01*
X133910901Y-136011440D01*
X133911584Y-136016663D01*
X133911584Y-136016666D01*
X133926205Y-136128472D01*
X133927633Y-136139394D01*
X133929756Y-136144219D01*
X133976741Y-136251000D01*
X133979605Y-136257510D01*
X134062639Y-136356291D01*
X134170060Y-136427796D01*
X134175092Y-136429368D01*
X134175094Y-136429369D01*
X134209110Y-136439996D01*
X134293233Y-136466278D01*
X134298501Y-136466375D01*
X134298504Y-136466375D01*
X134352552Y-136467365D01*
X134422255Y-136468643D01*
X134427338Y-136467257D01*
X134427340Y-136467257D01*
X134541671Y-136436086D01*
X134546755Y-136434700D01*
X134656724Y-136367179D01*
X134743322Y-136271507D01*
X134799588Y-136155375D01*
X134816460Y-136055086D01*
X134820522Y-136030944D01*
X134820522Y-136030943D01*
X134820997Y-136028120D01*
X134821133Y-136017000D01*
X134819591Y-136006234D01*
X134803586Y-135894472D01*
X134803585Y-135894469D01*
X134802839Y-135889259D01*
X134799320Y-135881518D01*
X134757136Y-135788741D01*
X134750500Y-135758112D01*
X134750500Y-135422246D01*
X134767813Y-135374680D01*
X134794399Y-135354645D01*
X134952730Y-135284151D01*
X134967257Y-135273597D01*
X135092117Y-135182881D01*
X135105871Y-135172888D01*
X135210261Y-135056952D01*
X135229941Y-135035095D01*
X135229942Y-135035093D01*
X135232533Y-135032216D01*
X135327179Y-134868284D01*
X135385674Y-134688256D01*
X135386323Y-134682086D01*
X135405055Y-134503853D01*
X135405460Y-134500000D01*
X135397626Y-134425459D01*
X135386079Y-134315595D01*
X135386078Y-134315593D01*
X135385674Y-134311744D01*
X135327179Y-134131716D01*
X135232533Y-133967784D01*
X135227341Y-133962017D01*
X135108464Y-133829992D01*
X135105871Y-133827112D01*
X135000994Y-133750915D01*
X134955867Y-133718128D01*
X134955866Y-133718127D01*
X134952730Y-133715849D01*
X134940661Y-133710475D01*
X134783348Y-133640434D01*
X134783345Y-133640433D01*
X134779803Y-133638856D01*
X134776011Y-133638050D01*
X134776008Y-133638049D01*
X134598443Y-133600307D01*
X134598442Y-133600307D01*
X134594646Y-133599500D01*
X134405354Y-133599500D01*
X134401558Y-133600307D01*
X134401557Y-133600307D01*
X134223992Y-133638049D01*
X134223989Y-133638050D01*
X134220197Y-133638856D01*
X134216655Y-133640433D01*
X134216652Y-133640434D01*
X134059339Y-133710475D01*
X134047270Y-133715849D01*
X134044134Y-133718127D01*
X134044133Y-133718128D01*
X133999006Y-133750915D01*
X133894129Y-133827112D01*
X133891536Y-133829992D01*
X133772660Y-133962017D01*
X133767467Y-133967784D01*
X133672821Y-134131716D01*
X133614326Y-134311744D01*
X133613922Y-134315593D01*
X133613921Y-134315595D01*
X133602374Y-134425459D01*
X133594540Y-134500000D01*
X132905460Y-134500000D01*
X132897626Y-134425459D01*
X132886079Y-134315595D01*
X132886078Y-134315593D01*
X132885674Y-134311744D01*
X132827179Y-134131716D01*
X132732533Y-133967784D01*
X132727341Y-133962017D01*
X132608464Y-133829992D01*
X132605871Y-133827112D01*
X132500994Y-133750915D01*
X132455867Y-133718128D01*
X132455866Y-133718127D01*
X132452730Y-133715849D01*
X132440661Y-133710475D01*
X132283348Y-133640434D01*
X132283345Y-133640433D01*
X132279803Y-133638856D01*
X132276011Y-133638050D01*
X132276008Y-133638049D01*
X132098443Y-133600307D01*
X132098442Y-133600307D01*
X132094646Y-133599500D01*
X131905354Y-133599500D01*
X131901558Y-133600307D01*
X131901557Y-133600307D01*
X131723992Y-133638049D01*
X131723989Y-133638050D01*
X131720197Y-133638856D01*
X131716655Y-133640433D01*
X131716652Y-133640434D01*
X131559339Y-133710475D01*
X131547270Y-133715849D01*
X131544134Y-133718127D01*
X131544133Y-133718128D01*
X131499006Y-133750915D01*
X131394129Y-133827112D01*
X131391536Y-133829992D01*
X131272660Y-133962017D01*
X131267467Y-133967784D01*
X131172821Y-134131716D01*
X131114326Y-134311744D01*
X131113922Y-134315593D01*
X131113921Y-134315595D01*
X131102374Y-134425459D01*
X131094540Y-134500000D01*
X131094945Y-134503853D01*
X131113678Y-134682086D01*
X131114326Y-134688256D01*
X131172821Y-134868284D01*
X131267467Y-135032216D01*
X131270058Y-135035093D01*
X131270059Y-135035095D01*
X131289739Y-135056952D01*
X131394129Y-135172888D01*
X131407883Y-135182881D01*
X131532744Y-135273597D01*
X131547270Y-135284151D01*
X131705600Y-135354645D01*
X131742011Y-135389807D01*
X131749500Y-135422246D01*
X131749500Y-135539875D01*
X131732187Y-135587441D01*
X131695836Y-135611025D01*
X131640155Y-135626939D01*
X131531019Y-135695799D01*
X131527531Y-135699748D01*
X131527529Y-135699750D01*
X131491845Y-135740155D01*
X131445596Y-135792522D01*
X131397758Y-135894414D01*
X131394916Y-135900468D01*
X131359029Y-135936167D01*
X131308592Y-135940447D01*
X131275605Y-135921345D01*
X130329031Y-134974771D01*
X130307639Y-134928895D01*
X130317271Y-134885445D01*
X130325240Y-134871642D01*
X130327179Y-134868284D01*
X130385674Y-134688256D01*
X130386323Y-134682086D01*
X130405055Y-134503853D01*
X130405460Y-134500000D01*
X130397626Y-134425459D01*
X130386079Y-134315595D01*
X130386078Y-134315593D01*
X130385674Y-134311744D01*
X130327179Y-134131716D01*
X130232533Y-133967784D01*
X130227341Y-133962017D01*
X130108464Y-133829992D01*
X130105871Y-133827112D01*
X130000994Y-133750915D01*
X129955867Y-133718128D01*
X129955866Y-133718127D01*
X129952730Y-133715849D01*
X129940661Y-133710475D01*
X129783348Y-133640434D01*
X129783345Y-133640433D01*
X129779803Y-133638856D01*
X129776011Y-133638050D01*
X129776008Y-133638049D01*
X129598443Y-133600307D01*
X129598442Y-133600307D01*
X129594646Y-133599500D01*
X129405354Y-133599500D01*
X129401558Y-133600307D01*
X129401557Y-133600307D01*
X129223992Y-133638049D01*
X129223989Y-133638050D01*
X129220197Y-133638856D01*
X129216655Y-133640433D01*
X129216652Y-133640434D01*
X129059339Y-133710475D01*
X129047270Y-133715849D01*
X129044134Y-133718127D01*
X129044133Y-133718128D01*
X128999006Y-133750915D01*
X128894129Y-133827112D01*
X128891536Y-133829992D01*
X128772660Y-133962017D01*
X128767467Y-133967784D01*
X128672821Y-134131716D01*
X128614326Y-134311744D01*
X128613922Y-134315593D01*
X128613921Y-134315595D01*
X128602374Y-134425459D01*
X128594540Y-134500000D01*
X121010000Y-134500000D01*
X121010000Y-134056952D01*
X121510000Y-134056952D01*
X121513638Y-134066948D01*
X121518925Y-134070000D01*
X122355677Y-134070000D01*
X122365250Y-134066516D01*
X122364517Y-134060111D01*
X122363411Y-134057512D01*
X124175828Y-134057512D01*
X124176413Y-134068132D01*
X124177416Y-134069203D01*
X124180756Y-134070000D01*
X125166952Y-134070000D01*
X125176948Y-134066362D01*
X125180000Y-134061075D01*
X125180000Y-134056952D01*
X125680000Y-134056952D01*
X125683638Y-134066948D01*
X125688925Y-134070000D01*
X126675677Y-134070000D01*
X126685250Y-134066516D01*
X126684517Y-134060111D01*
X126637594Y-133949835D01*
X126633358Y-133942409D01*
X126534796Y-133808478D01*
X126528979Y-133802240D01*
X126402242Y-133694570D01*
X126395135Y-133689830D01*
X126247039Y-133614209D01*
X126239031Y-133611231D01*
X126076535Y-133571468D01*
X126070043Y-133570480D01*
X126063434Y-133570070D01*
X126061176Y-133570000D01*
X125693048Y-133570000D01*
X125683052Y-133573638D01*
X125680000Y-133578925D01*
X125680000Y-134056952D01*
X125180000Y-134056952D01*
X125180000Y-133583048D01*
X125176362Y-133573052D01*
X125171075Y-133570000D01*
X125118505Y-133570000D01*
X125070939Y-133552687D01*
X125045629Y-133508850D01*
X125054419Y-133459000D01*
X125093196Y-133426463D01*
X125095382Y-133425761D01*
X125099432Y-133425206D01*
X125237855Y-133365305D01*
X125324739Y-133294948D01*
X125351151Y-133273560D01*
X125351153Y-133273558D01*
X125355070Y-133270386D01*
X125397314Y-133210943D01*
X125439521Y-133151553D01*
X125439523Y-133151550D01*
X125442442Y-133147442D01*
X125493533Y-133005532D01*
X125493913Y-133000369D01*
X125501387Y-132898584D01*
X125504580Y-132855109D01*
X125498244Y-132823683D01*
X125475764Y-132712200D01*
X125475763Y-132712198D01*
X125474767Y-132707257D01*
X125413999Y-132587992D01*
X126952750Y-132587992D01*
X126971670Y-132731701D01*
X127027139Y-132865617D01*
X127115379Y-132980613D01*
X127230375Y-133068853D01*
X127364291Y-133124322D01*
X127508000Y-133143242D01*
X127512808Y-133142609D01*
X127646901Y-133124955D01*
X127651709Y-133124322D01*
X127785625Y-133068853D01*
X127900621Y-132980613D01*
X127988861Y-132865617D01*
X128044330Y-132731701D01*
X128063250Y-132587992D01*
X128044330Y-132444283D01*
X127988861Y-132310367D01*
X127900621Y-132195371D01*
X127896774Y-132192419D01*
X127896769Y-132192414D01*
X127887451Y-132185264D01*
X127860254Y-132142572D01*
X127858500Y-132126557D01*
X127858500Y-132094440D01*
X132244901Y-132094440D01*
X132245584Y-132099663D01*
X132245584Y-132099666D01*
X132260700Y-132215257D01*
X132261633Y-132222394D01*
X132263756Y-132227219D01*
X132310741Y-132334000D01*
X132313605Y-132340510D01*
X132396639Y-132439291D01*
X132504060Y-132510796D01*
X132509092Y-132512368D01*
X132509094Y-132512369D01*
X132544714Y-132523497D01*
X132627233Y-132549278D01*
X132632501Y-132549375D01*
X132632504Y-132549375D01*
X132686552Y-132550365D01*
X132756255Y-132551643D01*
X132761338Y-132550257D01*
X132761340Y-132550257D01*
X132875671Y-132519086D01*
X132880755Y-132517700D01*
X132990724Y-132450179D01*
X133077322Y-132354507D01*
X133133588Y-132238375D01*
X133154997Y-132111120D01*
X133155133Y-132100000D01*
X133144945Y-132028859D01*
X133137586Y-131977472D01*
X133137585Y-131977469D01*
X133136839Y-131972259D01*
X133125566Y-131947464D01*
X133089719Y-131868624D01*
X133085792Y-131818157D01*
X133115222Y-131776973D01*
X133164240Y-131764342D01*
X133209409Y-131785669D01*
X133658267Y-132234527D01*
X133667470Y-132245741D01*
X133677399Y-132260601D01*
X133683459Y-132264650D01*
X133754201Y-132311918D01*
X133754203Y-132311919D01*
X133760260Y-132315966D01*
X133767405Y-132317387D01*
X133767407Y-132317388D01*
X133797894Y-132323452D01*
X133833326Y-132330500D01*
X133833327Y-132330500D01*
X133858000Y-132335408D01*
X133875526Y-132331922D01*
X133889961Y-132330500D01*
X135172734Y-132330500D01*
X135220300Y-132347813D01*
X135229380Y-132356884D01*
X135277976Y-132414695D01*
X135281839Y-132419291D01*
X135389260Y-132490796D01*
X135394292Y-132492368D01*
X135394294Y-132492369D01*
X135429914Y-132503497D01*
X135512433Y-132529278D01*
X135517701Y-132529375D01*
X135517704Y-132529375D01*
X135571752Y-132530365D01*
X135641455Y-132531643D01*
X135646538Y-132530257D01*
X135646540Y-132530257D01*
X135760871Y-132499086D01*
X135765955Y-132497700D01*
X135875924Y-132430179D01*
X135962522Y-132334507D01*
X136018788Y-132218375D01*
X136039336Y-132096240D01*
X136039722Y-132093944D01*
X136039722Y-132093943D01*
X136040197Y-132091120D01*
X136040333Y-132080000D01*
X136028876Y-132000000D01*
X136022786Y-131957472D01*
X136022785Y-131957469D01*
X136022039Y-131952259D01*
X136019859Y-131947464D01*
X135970810Y-131839586D01*
X135970808Y-131839583D01*
X135968628Y-131834788D01*
X135963364Y-131828678D01*
X135887833Y-131741020D01*
X135887832Y-131741019D01*
X135884393Y-131737028D01*
X135879974Y-131734164D01*
X135879972Y-131734162D01*
X135780529Y-131669708D01*
X135780530Y-131669708D01*
X135776106Y-131666841D01*
X135771057Y-131665331D01*
X135771055Y-131665330D01*
X135657526Y-131631377D01*
X135657525Y-131631377D01*
X135652473Y-131629866D01*
X135586971Y-131629466D01*
X135528701Y-131629110D01*
X135528700Y-131629110D01*
X135523431Y-131629078D01*
X135399355Y-131664539D01*
X135290219Y-131733399D01*
X135286731Y-131737348D01*
X135286729Y-131737350D01*
X135251593Y-131777134D01*
X135229958Y-131801632D01*
X135227437Y-131804486D01*
X135182974Y-131828678D01*
X135171972Y-131829500D01*
X133992412Y-131829500D01*
X133944846Y-131812187D01*
X133940086Y-131807826D01*
X133622174Y-131489914D01*
X133600782Y-131444038D01*
X133600500Y-131437588D01*
X133600500Y-131169440D01*
X137319901Y-131169440D01*
X137320584Y-131174663D01*
X137320584Y-131174666D01*
X137335658Y-131289937D01*
X137336633Y-131297394D01*
X137338756Y-131302219D01*
X137373199Y-131380496D01*
X137388605Y-131415510D01*
X137471639Y-131514291D01*
X137476025Y-131517211D01*
X137476030Y-131517215D01*
X137491505Y-131527516D01*
X137521507Y-131568285D01*
X137524500Y-131589116D01*
X137524500Y-131943038D01*
X137523078Y-131957475D01*
X137519592Y-131975000D01*
X137539034Y-132072741D01*
X137550439Y-132089809D01*
X137553533Y-132094440D01*
X137583559Y-132139377D01*
X137594399Y-132155601D01*
X137600459Y-132159650D01*
X137609259Y-132165530D01*
X137620473Y-132174733D01*
X139027826Y-133582087D01*
X139049218Y-133627964D01*
X139049500Y-133634413D01*
X139049500Y-136068038D01*
X139048078Y-136082475D01*
X139044592Y-136100000D01*
X139046014Y-136107149D01*
X139049219Y-136123259D01*
X139064034Y-136197741D01*
X139083134Y-136226326D01*
X139119399Y-136280601D01*
X139125459Y-136284650D01*
X139134259Y-136290530D01*
X139145473Y-136299733D01*
X139428434Y-136582694D01*
X139448685Y-136620579D01*
X139449499Y-136624670D01*
X139449500Y-136624674D01*
X139462159Y-136688313D01*
X139464034Y-136697740D01*
X139468081Y-136703797D01*
X139468082Y-136703799D01*
X139493960Y-136742528D01*
X139519399Y-136780601D01*
X139538169Y-136793143D01*
X139596201Y-136831918D01*
X139596203Y-136831919D01*
X139602260Y-136835966D01*
X139609405Y-136837387D01*
X139609407Y-136837388D01*
X139692851Y-136853986D01*
X139700000Y-136855408D01*
X139717525Y-136851922D01*
X139731962Y-136850500D01*
X141965588Y-136850500D01*
X142013154Y-136867813D01*
X142017914Y-136872174D01*
X143475267Y-138329527D01*
X143484470Y-138340741D01*
X143494399Y-138355601D01*
X143546339Y-138390305D01*
X143546340Y-138390306D01*
X143559534Y-138399122D01*
X143577259Y-138410966D01*
X143675000Y-138430408D01*
X143692525Y-138426922D01*
X143706962Y-138425500D01*
X146640588Y-138425500D01*
X146688154Y-138442813D01*
X146692914Y-138447174D01*
X146831162Y-138585422D01*
X146852554Y-138631298D01*
X146851955Y-138649132D01*
X146851917Y-138649375D01*
X146844901Y-138694440D01*
X146845584Y-138699663D01*
X146845584Y-138699666D01*
X146860924Y-138816969D01*
X146861633Y-138822394D01*
X146863756Y-138827219D01*
X146909186Y-138930466D01*
X146913605Y-138940510D01*
X146996639Y-139039291D01*
X147104060Y-139110796D01*
X147109092Y-139112368D01*
X147109094Y-139112369D01*
X147144714Y-139123497D01*
X147227233Y-139149278D01*
X147232501Y-139149375D01*
X147232504Y-139149375D01*
X147286552Y-139150365D01*
X147356255Y-139151643D01*
X147361338Y-139150257D01*
X147361340Y-139150257D01*
X147475671Y-139119086D01*
X147480755Y-139117700D01*
X147590724Y-139050179D01*
X147677322Y-138954507D01*
X147733588Y-138838375D01*
X147751561Y-138731541D01*
X147754522Y-138713944D01*
X147754522Y-138713943D01*
X147754997Y-138711120D01*
X147755133Y-138700000D01*
X147754115Y-138692894D01*
X147737586Y-138577472D01*
X147737585Y-138577469D01*
X147736839Y-138572259D01*
X147729136Y-138555317D01*
X147685610Y-138459586D01*
X147685608Y-138459583D01*
X147683428Y-138454788D01*
X147676868Y-138447174D01*
X147602633Y-138361020D01*
X147602632Y-138361019D01*
X147599193Y-138357028D01*
X147594774Y-138354164D01*
X147594772Y-138354162D01*
X147521237Y-138306500D01*
X147490906Y-138286841D01*
X147485857Y-138285331D01*
X147485855Y-138285330D01*
X147372326Y-138251377D01*
X147372325Y-138251377D01*
X147367273Y-138249866D01*
X147238231Y-138249078D01*
X147238240Y-138247586D01*
X147195118Y-138238259D01*
X147182230Y-138227970D01*
X147156086Y-138201826D01*
X147134694Y-138155950D01*
X147147795Y-138107055D01*
X147189259Y-138078021D01*
X147208412Y-138075500D01*
X148040598Y-138075500D01*
X148088164Y-138092813D01*
X148092924Y-138097174D01*
X148331162Y-138335412D01*
X148352554Y-138381288D01*
X148351955Y-138399122D01*
X148344901Y-138444430D01*
X148345584Y-138449653D01*
X148345584Y-138449656D01*
X148358921Y-138551643D01*
X148361633Y-138572384D01*
X148363756Y-138577209D01*
X148403623Y-138667813D01*
X148413605Y-138690500D01*
X148496639Y-138789281D01*
X148604060Y-138860786D01*
X148609092Y-138862358D01*
X148609094Y-138862359D01*
X148633843Y-138870091D01*
X148727233Y-138899268D01*
X148732501Y-138899365D01*
X148732504Y-138899365D01*
X148786552Y-138900355D01*
X148856255Y-138901633D01*
X148861338Y-138900247D01*
X148861340Y-138900247D01*
X148975671Y-138869076D01*
X148980755Y-138867690D01*
X149090724Y-138800169D01*
X149177322Y-138704497D01*
X149233588Y-138588365D01*
X149248454Y-138500000D01*
X149254522Y-138463934D01*
X149254522Y-138463933D01*
X149254997Y-138461110D01*
X149255133Y-138449990D01*
X149247848Y-138399122D01*
X149237586Y-138327462D01*
X149237585Y-138327459D01*
X149236839Y-138322249D01*
X149234659Y-138317454D01*
X149185610Y-138209576D01*
X149185608Y-138209573D01*
X149183428Y-138204778D01*
X149179751Y-138200510D01*
X149102633Y-138111010D01*
X149102632Y-138111009D01*
X149099193Y-138107018D01*
X149094774Y-138104154D01*
X149094772Y-138104152D01*
X148995329Y-138039698D01*
X148995330Y-138039698D01*
X148990906Y-138036831D01*
X148985857Y-138035321D01*
X148985855Y-138035320D01*
X148872326Y-138001367D01*
X148872325Y-138001367D01*
X148867273Y-137999856D01*
X148738231Y-137999068D01*
X148738240Y-137997576D01*
X148695118Y-137988249D01*
X148682230Y-137977960D01*
X148374743Y-137670473D01*
X148365540Y-137659259D01*
X148360273Y-137651377D01*
X148355611Y-137644399D01*
X148294249Y-137603399D01*
X148272751Y-137589034D01*
X148175010Y-137569592D01*
X148167861Y-137571014D01*
X148157485Y-137573078D01*
X148143048Y-137574500D01*
X144559658Y-137574500D01*
X144512092Y-137557187D01*
X144486782Y-137513350D01*
X144498308Y-137459122D01*
X144498785Y-137458414D01*
X144502322Y-137454507D01*
X144558588Y-137338375D01*
X144579997Y-137211120D01*
X144580133Y-137200000D01*
X144579337Y-137194440D01*
X144562586Y-137077472D01*
X144562585Y-137077469D01*
X144561839Y-137072259D01*
X144557247Y-137062159D01*
X144510610Y-136959586D01*
X144510608Y-136959583D01*
X144508428Y-136954788D01*
X144501975Y-136947298D01*
X144427633Y-136861020D01*
X144427632Y-136861019D01*
X144424193Y-136857028D01*
X144419774Y-136854164D01*
X144419772Y-136854162D01*
X144409251Y-136847343D01*
X144378752Y-136806943D01*
X144375500Y-136785246D01*
X144375500Y-136756966D01*
X144376922Y-136742528D01*
X144378987Y-136732147D01*
X144380409Y-136725000D01*
X144360966Y-136627260D01*
X144319578Y-136565317D01*
X144319577Y-136565316D01*
X144305601Y-136544399D01*
X144290745Y-136534472D01*
X144279530Y-136525269D01*
X144097299Y-136343038D01*
X143867086Y-136112826D01*
X143845694Y-136066950D01*
X143858795Y-136018055D01*
X143900259Y-135989022D01*
X143919412Y-135986500D01*
X148027091Y-135986500D01*
X148068094Y-135998898D01*
X148140050Y-136046796D01*
X148263223Y-136085278D01*
X148268491Y-136085375D01*
X148268494Y-136085375D01*
X148322542Y-136086365D01*
X148392245Y-136087643D01*
X148397328Y-136086257D01*
X148397330Y-136086257D01*
X148511661Y-136055086D01*
X148516745Y-136053700D01*
X148626714Y-135986179D01*
X148713312Y-135890507D01*
X148769578Y-135774375D01*
X148781083Y-135705990D01*
X148801731Y-135665941D01*
X149059816Y-135407856D01*
X149072002Y-135398015D01*
X149078011Y-135394135D01*
X149078013Y-135394133D01*
X149083152Y-135390815D01*
X149103894Y-135364504D01*
X149109681Y-135357991D01*
X149112429Y-135355243D01*
X149114200Y-135352765D01*
X149114204Y-135352760D01*
X149123387Y-135339909D01*
X149125482Y-135337119D01*
X149142454Y-135315591D01*
X149155392Y-135299179D01*
X149157420Y-135293405D01*
X149157994Y-135292361D01*
X149158433Y-135291663D01*
X149158714Y-135291123D01*
X149159030Y-135290368D01*
X149159555Y-135289296D01*
X149163111Y-135284320D01*
X149166173Y-135274084D01*
X149176959Y-135238016D01*
X149178036Y-135234700D01*
X149183953Y-135217851D01*
X149194055Y-135189084D01*
X149194500Y-135183946D01*
X149194500Y-135182609D01*
X149194884Y-135178078D01*
X149196544Y-135172526D01*
X149194557Y-135121953D01*
X149194500Y-135119048D01*
X149194500Y-129868834D01*
X149211813Y-129821268D01*
X149255650Y-129795958D01*
X149305500Y-129804748D01*
X149320826Y-129816508D01*
X149620134Y-130115816D01*
X149629975Y-130128002D01*
X149633855Y-130134011D01*
X149633857Y-130134013D01*
X149637175Y-130139152D01*
X149641980Y-130142940D01*
X149663486Y-130159894D01*
X149669999Y-130165681D01*
X149672747Y-130168429D01*
X149675225Y-130170200D01*
X149675230Y-130170204D01*
X149688081Y-130179387D01*
X149690864Y-130181476D01*
X149728811Y-130211392D01*
X149734585Y-130213420D01*
X149735629Y-130213994D01*
X149736327Y-130214433D01*
X149736867Y-130214714D01*
X149737622Y-130215030D01*
X149738694Y-130215555D01*
X149743670Y-130219111D01*
X149775219Y-130228546D01*
X149796037Y-130240196D01*
X149796639Y-130239291D01*
X149904060Y-130310796D01*
X149909092Y-130312368D01*
X149909094Y-130312369D01*
X149934077Y-130320174D01*
X150027233Y-130349278D01*
X150032501Y-130349375D01*
X150032504Y-130349375D01*
X150086552Y-130350365D01*
X150156255Y-130351643D01*
X150161338Y-130350257D01*
X150161340Y-130350257D01*
X150261902Y-130322840D01*
X150280755Y-130317700D01*
X150372386Y-130261438D01*
X150411107Y-130250500D01*
X150774713Y-130250500D01*
X150790288Y-130252158D01*
X150803261Y-130254951D01*
X150809336Y-130254232D01*
X150809337Y-130254232D01*
X150836533Y-130251013D01*
X150845231Y-130250500D01*
X150849115Y-130250500D01*
X150852129Y-130249998D01*
X150852133Y-130249998D01*
X150867701Y-130247407D01*
X150871151Y-130246916D01*
X150913065Y-130241955D01*
X150913066Y-130241955D01*
X150919138Y-130241236D01*
X150924650Y-130238589D01*
X150925787Y-130238259D01*
X150926595Y-130238075D01*
X150927180Y-130237890D01*
X150927932Y-130237582D01*
X150929071Y-130237192D01*
X150935103Y-130236188D01*
X150963507Y-130220862D01*
X150977645Y-130213234D01*
X150980751Y-130211652D01*
X151020125Y-130192745D01*
X151020135Y-130192738D01*
X151024326Y-130190726D01*
X151028274Y-130187408D01*
X151029227Y-130186455D01*
X151032690Y-130183532D01*
X151037794Y-130180778D01*
X151072140Y-130143623D01*
X151074154Y-130141528D01*
X152145562Y-129070120D01*
X152178423Y-129051052D01*
X152258677Y-129029172D01*
X152300755Y-129017700D01*
X152410724Y-128950179D01*
X152497322Y-128854507D01*
X152516905Y-128814088D01*
X152553225Y-128778830D01*
X152603711Y-128775167D01*
X152644740Y-128804812D01*
X152657500Y-128846353D01*
X152657500Y-132302038D01*
X152656078Y-132316475D01*
X152652592Y-132334000D01*
X152672034Y-132431741D01*
X152687295Y-132454580D01*
X152727399Y-132514601D01*
X152734432Y-132519300D01*
X152742259Y-132524530D01*
X152753473Y-132533733D01*
X153893267Y-133673527D01*
X153902470Y-133684741D01*
X153912399Y-133699601D01*
X153918459Y-133703650D01*
X153918461Y-133703652D01*
X153964628Y-133734499D01*
X153964630Y-133734500D01*
X153978598Y-133743833D01*
X153995259Y-133754966D01*
X154093000Y-133774408D01*
X154110525Y-133770922D01*
X154124962Y-133769500D01*
X154159588Y-133769500D01*
X154207154Y-133786813D01*
X154211914Y-133791174D01*
X155431162Y-135010422D01*
X155452554Y-135056298D01*
X155451955Y-135074132D01*
X155450159Y-135085667D01*
X155444901Y-135119440D01*
X155445584Y-135124663D01*
X155445584Y-135124666D01*
X155460407Y-135238016D01*
X155461633Y-135247394D01*
X155463756Y-135252219D01*
X155510297Y-135357991D01*
X155513605Y-135365510D01*
X155596639Y-135464291D01*
X155704060Y-135535796D01*
X155709092Y-135537368D01*
X155709094Y-135537369D01*
X155717116Y-135539875D01*
X155763239Y-135554285D01*
X155803477Y-135584993D01*
X155814563Y-135634383D01*
X155793497Y-135677243D01*
X154467436Y-137003304D01*
X154421560Y-137024696D01*
X154372665Y-137011595D01*
X154343631Y-136970131D01*
X154342532Y-136936541D01*
X154346986Y-136914149D01*
X154348408Y-136907000D01*
X154344922Y-136889475D01*
X154343500Y-136875038D01*
X154343500Y-136667276D01*
X154360813Y-136619710D01*
X154375185Y-136607315D01*
X154375176Y-136607304D01*
X154375755Y-136606823D01*
X154378777Y-136604217D01*
X154379228Y-136603940D01*
X154379230Y-136603938D01*
X154383724Y-136601179D01*
X154470322Y-136505507D01*
X154526588Y-136389375D01*
X154545576Y-136276513D01*
X154547522Y-136264944D01*
X154547522Y-136264943D01*
X154547997Y-136262120D01*
X154548133Y-136251000D01*
X154545934Y-136235646D01*
X154530586Y-136128472D01*
X154530585Y-136128469D01*
X154529839Y-136123259D01*
X154525247Y-136113159D01*
X154478610Y-136010586D01*
X154478608Y-136010583D01*
X154476428Y-136005788D01*
X154471002Y-135999490D01*
X154395633Y-135912020D01*
X154395632Y-135912019D01*
X154392193Y-135908028D01*
X154387774Y-135905164D01*
X154387772Y-135905162D01*
X154304015Y-135850875D01*
X154283906Y-135837841D01*
X154278857Y-135836331D01*
X154278855Y-135836330D01*
X154165326Y-135802377D01*
X154165325Y-135802377D01*
X154160273Y-135800866D01*
X154094771Y-135800466D01*
X154036501Y-135800110D01*
X154036500Y-135800110D01*
X154031231Y-135800078D01*
X153907155Y-135835539D01*
X153798019Y-135904399D01*
X153794531Y-135908348D01*
X153794529Y-135908350D01*
X153781830Y-135922729D01*
X153712596Y-136001122D01*
X153710357Y-136005891D01*
X153710355Y-136005894D01*
X153687260Y-136055086D01*
X153657754Y-136117932D01*
X153637901Y-136245440D01*
X153638584Y-136250663D01*
X153638584Y-136250666D01*
X153653796Y-136366990D01*
X153654633Y-136373394D01*
X153706605Y-136491510D01*
X153789639Y-136590291D01*
X153794025Y-136593211D01*
X153794030Y-136593215D01*
X153809505Y-136603516D01*
X153839507Y-136644285D01*
X153842500Y-136665116D01*
X153842500Y-136772588D01*
X153825187Y-136820154D01*
X153820826Y-136824914D01*
X153317914Y-137327826D01*
X153272038Y-137349218D01*
X153265588Y-137349500D01*
X152131962Y-137349500D01*
X152117525Y-137348078D01*
X152107149Y-137346014D01*
X152100000Y-137344592D01*
X152002259Y-137364034D01*
X151995444Y-137368588D01*
X151919399Y-137419399D01*
X151915350Y-137425459D01*
X151909470Y-137434259D01*
X151900267Y-137445473D01*
X151617562Y-137728178D01*
X151571686Y-137749570D01*
X151564788Y-137749851D01*
X151501320Y-137749463D01*
X151443501Y-137749110D01*
X151443500Y-137749110D01*
X151438231Y-137749078D01*
X151314155Y-137784539D01*
X151205019Y-137853399D01*
X151201531Y-137857348D01*
X151201529Y-137857350D01*
X151192289Y-137867813D01*
X151119596Y-137950122D01*
X151117357Y-137954891D01*
X151117355Y-137954894D01*
X151091776Y-138009377D01*
X151064754Y-138066932D01*
X151044901Y-138194440D01*
X151045584Y-138199663D01*
X151045584Y-138199666D01*
X151060787Y-138315923D01*
X151061633Y-138322394D01*
X151063756Y-138327219D01*
X151092922Y-138393503D01*
X151113605Y-138440510D01*
X151196639Y-138539291D01*
X151304060Y-138610796D01*
X151309092Y-138612368D01*
X151309094Y-138612369D01*
X151344714Y-138623497D01*
X151427233Y-138649278D01*
X151432501Y-138649375D01*
X151432504Y-138649375D01*
X151486552Y-138650365D01*
X151556255Y-138651643D01*
X151561338Y-138650257D01*
X151561340Y-138650257D01*
X151675671Y-138619086D01*
X151680755Y-138617700D01*
X151685245Y-138614943D01*
X151685250Y-138614941D01*
X151718437Y-138594564D01*
X151768031Y-138584428D01*
X151812537Y-138608543D01*
X151830532Y-138648030D01*
X151831004Y-138651643D01*
X151833689Y-138672174D01*
X151834633Y-138679394D01*
X151836756Y-138684219D01*
X151860245Y-138737601D01*
X151886605Y-138797510D01*
X151969639Y-138896291D01*
X152077060Y-138967796D01*
X152082092Y-138969368D01*
X152082094Y-138969369D01*
X152116718Y-138980186D01*
X152200233Y-139006278D01*
X152205501Y-139006375D01*
X152205504Y-139006375D01*
X152259552Y-139007365D01*
X152329255Y-139008643D01*
X152334338Y-139007257D01*
X152334340Y-139007257D01*
X152448671Y-138976086D01*
X152453755Y-138974700D01*
X152563724Y-138907179D01*
X152631918Y-138831840D01*
X152676673Y-138808193D01*
X152686780Y-138807500D01*
X152811038Y-138807500D01*
X152825475Y-138808922D01*
X152843000Y-138812408D01*
X152850149Y-138810986D01*
X152933594Y-138794388D01*
X152933596Y-138794387D01*
X152940741Y-138792966D01*
X152980685Y-138766276D01*
X153023601Y-138737601D01*
X153033530Y-138722741D01*
X153042733Y-138711527D01*
X153268297Y-138485963D01*
X159494757Y-138485963D01*
X159495060Y-138489572D01*
X159495060Y-138489574D01*
X159508985Y-138655408D01*
X159511175Y-138681483D01*
X159524757Y-138728848D01*
X159563041Y-138862359D01*
X159565258Y-138870091D01*
X159578723Y-138896291D01*
X159653288Y-139041380D01*
X159653291Y-139041385D01*
X159654944Y-139044601D01*
X159776818Y-139198369D01*
X159926238Y-139325535D01*
X159929400Y-139327302D01*
X160094354Y-139419492D01*
X160094358Y-139419494D01*
X160097513Y-139421257D01*
X160100949Y-139422374D01*
X160100955Y-139422376D01*
X160219467Y-139460882D01*
X160284118Y-139481889D01*
X160344541Y-139489094D01*
X160475346Y-139504692D01*
X160475349Y-139504692D01*
X160478946Y-139505121D01*
X160543365Y-139500164D01*
X160670965Y-139490346D01*
X160670966Y-139490346D01*
X160674576Y-139490068D01*
X160863556Y-139437303D01*
X160866783Y-139435673D01*
X161035455Y-139350471D01*
X161035458Y-139350469D01*
X161038689Y-139348837D01*
X161193303Y-139228040D01*
X161321509Y-139079511D01*
X161323292Y-139076372D01*
X161323295Y-139076368D01*
X161382616Y-138971943D01*
X161418425Y-138908909D01*
X161420301Y-138903272D01*
X161479215Y-138726168D01*
X161480358Y-138722732D01*
X161481123Y-138716681D01*
X161504691Y-138530115D01*
X161504691Y-138530111D01*
X161504949Y-138528071D01*
X161505047Y-138521091D01*
X161505312Y-138502062D01*
X161505341Y-138500000D01*
X161503011Y-138476231D01*
X161494428Y-138388702D01*
X161486194Y-138304728D01*
X161480338Y-138285330D01*
X161471734Y-138256834D01*
X161429484Y-138116894D01*
X161366041Y-137997576D01*
X161339069Y-137946848D01*
X161339068Y-137946847D01*
X161337370Y-137943653D01*
X161213361Y-137791602D01*
X161086726Y-137686841D01*
X161064975Y-137668847D01*
X161064974Y-137668846D01*
X161062180Y-137666535D01*
X161048724Y-137659259D01*
X160892768Y-137574934D01*
X160889585Y-137573213D01*
X160886135Y-137572145D01*
X160886130Y-137572143D01*
X160752961Y-137530921D01*
X160702152Y-137515193D01*
X160557605Y-137500000D01*
X162394551Y-137500000D01*
X162394779Y-137502897D01*
X162412169Y-137723852D01*
X162414317Y-137751148D01*
X162414995Y-137753972D01*
X162471240Y-137988249D01*
X162473127Y-137996111D01*
X162474240Y-137998798D01*
X162566531Y-138221608D01*
X162569534Y-138228859D01*
X162571055Y-138231341D01*
X162571057Y-138231345D01*
X162668469Y-138390306D01*
X162701164Y-138443659D01*
X162703056Y-138445874D01*
X162703058Y-138445877D01*
X162844938Y-138611997D01*
X162864776Y-138635224D01*
X162866990Y-138637115D01*
X163053324Y-138796259D01*
X163056341Y-138798836D01*
X163058828Y-138800360D01*
X163268655Y-138928943D01*
X163268659Y-138928945D01*
X163271141Y-138930466D01*
X163273834Y-138931581D01*
X163273835Y-138931582D01*
X163451240Y-139005065D01*
X163503889Y-139026873D01*
X163748852Y-139085683D01*
X163751739Y-139085910D01*
X163751744Y-139085911D01*
X163874363Y-139095561D01*
X163937118Y-139100500D01*
X164062882Y-139100500D01*
X164125637Y-139095561D01*
X164248256Y-139085911D01*
X164248261Y-139085910D01*
X164251148Y-139085683D01*
X164496111Y-139026873D01*
X164548760Y-139005065D01*
X164726165Y-138931582D01*
X164726166Y-138931581D01*
X164728859Y-138930466D01*
X164731341Y-138928945D01*
X164731345Y-138928943D01*
X164941172Y-138800360D01*
X164943659Y-138798836D01*
X164946677Y-138796259D01*
X165133010Y-138637115D01*
X165135224Y-138635224D01*
X165155062Y-138611997D01*
X165296942Y-138445877D01*
X165296944Y-138445874D01*
X165298836Y-138443659D01*
X165331531Y-138390306D01*
X165428943Y-138231345D01*
X165428945Y-138231341D01*
X165430466Y-138228859D01*
X165433470Y-138221608D01*
X165525760Y-137998798D01*
X165526873Y-137996111D01*
X165528761Y-137988249D01*
X165585005Y-137753972D01*
X165585683Y-137751148D01*
X165587832Y-137723852D01*
X165605221Y-137502897D01*
X165605449Y-137500000D01*
X165600275Y-137434259D01*
X165585911Y-137251744D01*
X165585910Y-137251739D01*
X165585683Y-137248852D01*
X165526873Y-137003889D01*
X165464538Y-136853399D01*
X165431582Y-136773835D01*
X165431581Y-136773834D01*
X165430466Y-136771141D01*
X165417314Y-136749678D01*
X165304339Y-136565321D01*
X165298836Y-136556341D01*
X165293812Y-136550458D01*
X165137115Y-136366990D01*
X165135224Y-136364776D01*
X165109772Y-136343038D01*
X164945877Y-136203058D01*
X164945874Y-136203056D01*
X164943659Y-136201164D01*
X164923176Y-136188612D01*
X164731345Y-136071057D01*
X164731341Y-136071055D01*
X164728859Y-136069534D01*
X164725248Y-136068038D01*
X164498798Y-135974240D01*
X164496111Y-135973127D01*
X164481208Y-135969549D01*
X164253972Y-135914995D01*
X164251148Y-135914317D01*
X164248261Y-135914090D01*
X164248256Y-135914089D01*
X164125129Y-135904399D01*
X164062882Y-135899500D01*
X163937118Y-135899500D01*
X163874871Y-135904399D01*
X163751744Y-135914089D01*
X163751739Y-135914090D01*
X163748852Y-135914317D01*
X163746028Y-135914995D01*
X163518793Y-135969549D01*
X163503889Y-135973127D01*
X163501202Y-135974240D01*
X163274753Y-136068038D01*
X163271141Y-136069534D01*
X163268659Y-136071055D01*
X163268655Y-136071057D01*
X163076824Y-136188612D01*
X163056341Y-136201164D01*
X163054126Y-136203056D01*
X163054123Y-136203058D01*
X162890228Y-136343038D01*
X162864776Y-136364776D01*
X162862885Y-136366990D01*
X162706189Y-136550458D01*
X162701164Y-136556341D01*
X162695661Y-136565321D01*
X162582687Y-136749678D01*
X162569534Y-136771141D01*
X162568419Y-136773834D01*
X162568418Y-136773835D01*
X162535462Y-136853399D01*
X162473127Y-137003889D01*
X162414317Y-137248852D01*
X162414090Y-137251739D01*
X162414089Y-137251744D01*
X162399725Y-137434259D01*
X162394551Y-137500000D01*
X160557605Y-137500000D01*
X160507019Y-137494683D01*
X160311618Y-137512466D01*
X160308145Y-137513488D01*
X160308146Y-137513488D01*
X160126864Y-137566842D01*
X160126860Y-137566844D01*
X160123393Y-137567864D01*
X160040843Y-137611020D01*
X159952719Y-137657090D01*
X159952716Y-137657092D01*
X159949512Y-137658767D01*
X159946694Y-137661033D01*
X159946692Y-137661034D01*
X159799419Y-137779444D01*
X159799416Y-137779447D01*
X159796600Y-137781711D01*
X159670480Y-137932016D01*
X159668738Y-137935184D01*
X159668737Y-137935186D01*
X159656054Y-137958257D01*
X159575956Y-138103954D01*
X159574864Y-138107397D01*
X159574863Y-138107399D01*
X159518420Y-138285330D01*
X159516628Y-138290978D01*
X159516225Y-138294574D01*
X159516224Y-138294577D01*
X159512304Y-138329527D01*
X159494757Y-138485963D01*
X153268297Y-138485963D01*
X153532076Y-138222184D01*
X153577952Y-138200792D01*
X153584402Y-138200510D01*
X153843028Y-138200510D01*
X153857465Y-138201932D01*
X153874990Y-138205418D01*
X153972731Y-138185976D01*
X154005569Y-138164034D01*
X154055591Y-138130611D01*
X154065520Y-138115751D01*
X154074723Y-138104537D01*
X156754527Y-135424733D01*
X156765741Y-135415530D01*
X156774541Y-135409650D01*
X156780601Y-135405601D01*
X156834718Y-135324608D01*
X156835966Y-135322741D01*
X156855408Y-135225000D01*
X156851922Y-135207475D01*
X156850500Y-135193038D01*
X156850500Y-134631962D01*
X156851922Y-134617525D01*
X156853986Y-134607149D01*
X156855408Y-134600000D01*
X156835966Y-134502259D01*
X156830190Y-134493614D01*
X156810638Y-134464354D01*
X156810637Y-134464353D01*
X156789210Y-134432283D01*
X156780601Y-134419399D01*
X156765742Y-134409470D01*
X156754527Y-134400267D01*
X156184733Y-133830473D01*
X156175530Y-133819259D01*
X156169651Y-133810460D01*
X156169650Y-133810459D01*
X156165601Y-133804399D01*
X156112536Y-133768943D01*
X156082741Y-133749034D01*
X155997976Y-133732173D01*
X155992149Y-133731014D01*
X155985000Y-133729592D01*
X155977851Y-133731014D01*
X155967475Y-133733078D01*
X155953038Y-133734500D01*
X155414402Y-133734500D01*
X155366836Y-133717187D01*
X155362076Y-133712826D01*
X154939751Y-133290501D01*
X160100000Y-133290501D01*
X160100268Y-133294948D01*
X160110283Y-133377705D01*
X160112606Y-133386851D01*
X160164469Y-133517842D01*
X160169378Y-133526555D01*
X160254386Y-133638548D01*
X160261452Y-133645614D01*
X160373445Y-133730622D01*
X160382158Y-133735531D01*
X160513149Y-133787394D01*
X160522295Y-133789717D01*
X160605052Y-133799732D01*
X160609499Y-133800000D01*
X161886952Y-133800000D01*
X161896948Y-133796362D01*
X161900000Y-133791075D01*
X161900000Y-133263048D01*
X161896362Y-133253052D01*
X161891075Y-133250000D01*
X160113048Y-133250000D01*
X160103052Y-133253638D01*
X160100000Y-133258925D01*
X160100000Y-133290501D01*
X154939751Y-133290501D01*
X154386202Y-132736952D01*
X160100000Y-132736952D01*
X160103638Y-132746948D01*
X160108925Y-132750000D01*
X161886952Y-132750000D01*
X161896948Y-132746362D01*
X161900000Y-132741075D01*
X161900000Y-132213048D01*
X161896362Y-132203052D01*
X161891075Y-132200000D01*
X160609500Y-132200000D01*
X160605052Y-132200268D01*
X160522295Y-132210283D01*
X160513149Y-132212606D01*
X160382158Y-132264469D01*
X160373445Y-132269378D01*
X160261452Y-132354386D01*
X160254386Y-132361452D01*
X160169378Y-132473445D01*
X160164469Y-132482158D01*
X160112606Y-132613149D01*
X160110283Y-132622295D01*
X160100268Y-132705052D01*
X160100000Y-132709500D01*
X160100000Y-132736952D01*
X154386202Y-132736952D01*
X153873670Y-132224420D01*
X155578487Y-132224420D01*
X155579170Y-132229643D01*
X155579170Y-132229646D01*
X155594304Y-132345375D01*
X155595219Y-132352374D01*
X155597342Y-132357199D01*
X155644958Y-132465414D01*
X155647191Y-132470490D01*
X155730225Y-132569271D01*
X155837646Y-132640776D01*
X155842678Y-132642348D01*
X155842680Y-132642349D01*
X155864267Y-132649093D01*
X155960819Y-132679258D01*
X155966087Y-132679355D01*
X155966090Y-132679355D01*
X156020138Y-132680345D01*
X156089841Y-132681623D01*
X156094924Y-132680237D01*
X156094926Y-132680237D01*
X156209257Y-132649066D01*
X156214341Y-132647680D01*
X156324310Y-132580159D01*
X156410908Y-132484487D01*
X156412266Y-132485716D01*
X156447163Y-132460365D01*
X156467556Y-132457500D01*
X158718534Y-132457500D01*
X158766100Y-132474813D01*
X158775180Y-132483884D01*
X158813420Y-132529375D01*
X158827639Y-132546291D01*
X158935060Y-132617796D01*
X158940092Y-132619368D01*
X158940094Y-132619369D01*
X158969152Y-132628447D01*
X159058233Y-132656278D01*
X159063501Y-132656375D01*
X159063504Y-132656375D01*
X159117552Y-132657365D01*
X159187255Y-132658643D01*
X159192338Y-132657257D01*
X159192340Y-132657257D01*
X159306671Y-132626086D01*
X159311755Y-132624700D01*
X159421724Y-132557179D01*
X159508322Y-132461507D01*
X159564588Y-132345375D01*
X159584937Y-132224420D01*
X159585522Y-132220944D01*
X159585522Y-132220943D01*
X159585997Y-132218120D01*
X159586133Y-132207000D01*
X159581574Y-132175167D01*
X159568586Y-132084472D01*
X159568585Y-132084469D01*
X159567839Y-132079259D01*
X159565659Y-132074464D01*
X159516610Y-131966586D01*
X159516608Y-131966583D01*
X159514428Y-131961788D01*
X159510710Y-131957472D01*
X159433633Y-131868020D01*
X159433632Y-131868019D01*
X159430193Y-131864028D01*
X159425774Y-131861164D01*
X159425772Y-131861162D01*
X159345494Y-131809130D01*
X159321906Y-131793841D01*
X159316857Y-131792331D01*
X159316855Y-131792330D01*
X159203326Y-131758377D01*
X159203325Y-131758377D01*
X159198273Y-131756866D01*
X159132771Y-131756466D01*
X159074501Y-131756110D01*
X159074500Y-131756110D01*
X159069231Y-131756078D01*
X158945155Y-131791539D01*
X158836019Y-131860399D01*
X158832531Y-131864348D01*
X158832529Y-131864350D01*
X158773237Y-131931486D01*
X158728774Y-131955678D01*
X158717772Y-131956500D01*
X156426576Y-131956500D01*
X156379010Y-131939187D01*
X156370516Y-131930804D01*
X156336219Y-131891000D01*
X156336218Y-131890999D01*
X156332779Y-131887008D01*
X156328360Y-131884144D01*
X156328358Y-131884142D01*
X156246050Y-131830794D01*
X156224492Y-131816821D01*
X156219443Y-131815311D01*
X156219441Y-131815310D01*
X156105912Y-131781357D01*
X156105911Y-131781357D01*
X156100859Y-131779846D01*
X156035357Y-131779446D01*
X155977087Y-131779090D01*
X155977086Y-131779090D01*
X155971817Y-131779058D01*
X155847741Y-131814519D01*
X155738605Y-131883379D01*
X155735117Y-131887328D01*
X155735115Y-131887330D01*
X155731874Y-131891000D01*
X155653182Y-131980102D01*
X155650943Y-131984871D01*
X155650941Y-131984874D01*
X155614341Y-132062831D01*
X155598340Y-132096912D01*
X155578487Y-132224420D01*
X153873670Y-132224420D01*
X153561174Y-131911924D01*
X153539782Y-131866048D01*
X153539500Y-131859598D01*
X153539500Y-128561440D01*
X155477901Y-128561440D01*
X155478584Y-128566663D01*
X155478584Y-128566666D01*
X155493743Y-128682587D01*
X155494633Y-128689394D01*
X155496756Y-128694219D01*
X155533986Y-128778830D01*
X155546605Y-128807510D01*
X155629639Y-128906291D01*
X155737060Y-128977796D01*
X155742092Y-128979368D01*
X155742094Y-128979369D01*
X155773504Y-128989182D01*
X155860233Y-129016278D01*
X155865501Y-129016375D01*
X155865504Y-129016375D01*
X155919552Y-129017365D01*
X155989255Y-129018643D01*
X155994338Y-129017257D01*
X155994340Y-129017257D01*
X156108671Y-128986086D01*
X156113755Y-128984700D01*
X156223724Y-128917179D01*
X156269289Y-128866839D01*
X156314044Y-128843193D01*
X156324151Y-128842500D01*
X157783580Y-128842500D01*
X157798016Y-128843922D01*
X157818000Y-128847897D01*
X157845132Y-128842500D01*
X157845135Y-128842500D01*
X157918348Y-128827937D01*
X157918350Y-128827936D01*
X157925495Y-128826515D01*
X157971113Y-128796034D01*
X157993622Y-128780994D01*
X157993623Y-128780993D01*
X158016624Y-128765624D01*
X158025065Y-128752991D01*
X158065885Y-128723060D01*
X158087949Y-128720116D01*
X158171255Y-128721643D01*
X158176338Y-128720257D01*
X158176340Y-128720257D01*
X158276242Y-128693020D01*
X158295755Y-128687700D01*
X158405724Y-128620179D01*
X158492322Y-128524507D01*
X158548588Y-128408375D01*
X158565460Y-128308086D01*
X158569522Y-128283944D01*
X158569522Y-128283943D01*
X158569997Y-128281120D01*
X158570133Y-128270000D01*
X158564121Y-128228020D01*
X158552586Y-128147472D01*
X158552585Y-128147469D01*
X158551839Y-128142259D01*
X158547247Y-128132159D01*
X158500610Y-128029586D01*
X158500608Y-128029583D01*
X158498428Y-128024788D01*
X158494832Y-128020614D01*
X158417633Y-127931020D01*
X158417632Y-127931019D01*
X158414193Y-127927028D01*
X158409774Y-127924164D01*
X158409772Y-127924162D01*
X158310329Y-127859708D01*
X158310330Y-127859708D01*
X158305906Y-127856841D01*
X158300857Y-127855331D01*
X158300855Y-127855330D01*
X158187326Y-127821377D01*
X158187325Y-127821377D01*
X158182273Y-127819866D01*
X158116771Y-127819466D01*
X158058501Y-127819110D01*
X158058500Y-127819110D01*
X158053231Y-127819078D01*
X157929155Y-127854539D01*
X157820019Y-127923399D01*
X157816531Y-127927348D01*
X157816529Y-127927350D01*
X157794613Y-127952166D01*
X157734596Y-128020122D01*
X157732357Y-128024891D01*
X157732355Y-128024894D01*
X157699149Y-128095622D01*
X157679754Y-128136932D01*
X157669582Y-128202263D01*
X157665437Y-128228885D01*
X157641013Y-128273221D01*
X157592318Y-128291500D01*
X156324249Y-128291500D01*
X156276683Y-128274187D01*
X156268189Y-128265804D01*
X156255077Y-128250587D01*
X156232193Y-128224028D01*
X156227774Y-128221164D01*
X156227772Y-128221162D01*
X156128329Y-128156708D01*
X156128330Y-128156708D01*
X156123906Y-128153841D01*
X156118857Y-128152331D01*
X156118855Y-128152330D01*
X156005326Y-128118377D01*
X156005325Y-128118377D01*
X156000273Y-128116866D01*
X155934771Y-128116466D01*
X155876501Y-128116110D01*
X155876500Y-128116110D01*
X155871231Y-128116078D01*
X155747155Y-128151539D01*
X155638019Y-128220399D01*
X155634531Y-128224348D01*
X155634529Y-128224350D01*
X155611411Y-128250527D01*
X155552596Y-128317122D01*
X155550357Y-128321891D01*
X155550355Y-128321894D01*
X155513589Y-128400205D01*
X155497754Y-128433932D01*
X155477901Y-128561440D01*
X153539500Y-128561440D01*
X153539500Y-126509035D01*
X153556813Y-126461469D01*
X153600650Y-126436159D01*
X153654505Y-126447434D01*
X153728060Y-126496396D01*
X153733092Y-126497968D01*
X153733094Y-126497969D01*
X153763726Y-126507539D01*
X153851233Y-126534878D01*
X153856501Y-126534975D01*
X153856504Y-126534975D01*
X153910552Y-126535965D01*
X153980255Y-126537243D01*
X153985338Y-126535857D01*
X153985340Y-126535857D01*
X154079559Y-126510169D01*
X154104755Y-126503300D01*
X154214724Y-126435779D01*
X154282918Y-126360440D01*
X154327673Y-126336793D01*
X154337780Y-126336100D01*
X155873238Y-126336100D01*
X155887675Y-126337522D01*
X155905200Y-126341008D01*
X156002941Y-126321566D01*
X156038597Y-126297741D01*
X156085801Y-126266201D01*
X156095730Y-126251341D01*
X156104933Y-126240127D01*
X156651944Y-125693116D01*
X156697820Y-125671724D01*
X156705626Y-125671454D01*
X156735105Y-125671994D01*
X156825055Y-125673643D01*
X156830138Y-125672257D01*
X156830140Y-125672257D01*
X156944471Y-125641086D01*
X156949555Y-125639700D01*
X157059524Y-125572179D01*
X157146122Y-125476507D01*
X157202388Y-125360375D01*
X157223797Y-125233120D01*
X157223933Y-125222000D01*
X157217719Y-125178609D01*
X157206386Y-125099472D01*
X157206385Y-125099469D01*
X157205639Y-125094259D01*
X157194713Y-125070228D01*
X157154410Y-124981586D01*
X157154408Y-124981583D01*
X157152228Y-124976788D01*
X157144803Y-124968170D01*
X157071433Y-124883020D01*
X157071432Y-124883019D01*
X157067993Y-124879028D01*
X157063574Y-124876164D01*
X157063572Y-124876162D01*
X156975031Y-124818774D01*
X156959706Y-124808841D01*
X156954657Y-124807331D01*
X156954655Y-124807330D01*
X156841126Y-124773377D01*
X156841125Y-124773377D01*
X156836073Y-124771866D01*
X156770571Y-124771466D01*
X156712301Y-124771110D01*
X156712300Y-124771110D01*
X156707031Y-124771078D01*
X156582955Y-124806539D01*
X156473819Y-124875399D01*
X156470331Y-124879348D01*
X156470329Y-124879350D01*
X156451570Y-124900591D01*
X156388396Y-124972122D01*
X156386157Y-124976891D01*
X156386155Y-124976894D01*
X156360801Y-125030897D01*
X156333554Y-125088932D01*
X156313701Y-125216440D01*
X156314384Y-125221663D01*
X156314384Y-125221665D01*
X156321279Y-125274389D01*
X156310280Y-125323798D01*
X156300234Y-125336305D01*
X156062768Y-125573772D01*
X155823114Y-125813426D01*
X155777238Y-125834818D01*
X155770788Y-125835100D01*
X154336791Y-125835100D01*
X154289225Y-125817787D01*
X154280731Y-125809404D01*
X154226633Y-125746620D01*
X154226632Y-125746619D01*
X154223193Y-125742628D01*
X154218774Y-125739764D01*
X154218772Y-125739762D01*
X154134585Y-125685196D01*
X154114906Y-125672441D01*
X154109857Y-125670931D01*
X154109855Y-125670930D01*
X153996326Y-125636977D01*
X153996325Y-125636977D01*
X153991273Y-125635466D01*
X153980406Y-125635400D01*
X153975091Y-125635367D01*
X153927632Y-125617763D01*
X153902591Y-125573772D01*
X153911686Y-125523977D01*
X153923218Y-125509042D01*
X154279608Y-125152653D01*
X154746570Y-124685691D01*
X154792447Y-124664299D01*
X154841341Y-124677400D01*
X154855541Y-124690401D01*
X154893243Y-124735253D01*
X154893250Y-124735259D01*
X154896639Y-124739291D01*
X155004060Y-124810796D01*
X155009092Y-124812368D01*
X155009094Y-124812369D01*
X155042556Y-124822823D01*
X155127233Y-124849278D01*
X155132501Y-124849375D01*
X155132504Y-124849375D01*
X155186552Y-124850365D01*
X155256255Y-124851643D01*
X155261338Y-124850257D01*
X155261340Y-124850257D01*
X155375671Y-124819086D01*
X155380755Y-124817700D01*
X155490724Y-124750179D01*
X155577322Y-124654507D01*
X155633588Y-124538375D01*
X155654997Y-124411120D01*
X155655133Y-124400000D01*
X155647152Y-124344272D01*
X155637586Y-124277472D01*
X155637585Y-124277469D01*
X155636839Y-124272259D01*
X155624444Y-124244998D01*
X155585610Y-124159586D01*
X155585608Y-124159583D01*
X155583428Y-124154788D01*
X155578164Y-124148678D01*
X155502633Y-124061020D01*
X155502632Y-124061019D01*
X155499193Y-124057028D01*
X155494774Y-124054164D01*
X155494772Y-124054162D01*
X155417381Y-124004001D01*
X155390906Y-123986841D01*
X155385857Y-123985331D01*
X155385855Y-123985330D01*
X155272326Y-123951377D01*
X155272325Y-123951377D01*
X155267273Y-123949866D01*
X155201771Y-123949466D01*
X155143501Y-123949110D01*
X155143500Y-123949110D01*
X155138231Y-123949078D01*
X155014155Y-123984539D01*
X154905019Y-124053399D01*
X154901531Y-124057348D01*
X154901529Y-124057350D01*
X154874647Y-124087788D01*
X154847540Y-124118482D01*
X154842237Y-124124486D01*
X154797774Y-124148678D01*
X154786772Y-124149500D01*
X154709966Y-124149500D01*
X154695531Y-124148078D01*
X154678000Y-124144591D01*
X154670852Y-124146013D01*
X154587407Y-124162612D01*
X154587406Y-124162613D01*
X154580260Y-124164034D01*
X154519560Y-124204592D01*
X154497399Y-124219399D01*
X154493350Y-124225459D01*
X154487472Y-124234256D01*
X154478269Y-124245470D01*
X153134473Y-125589267D01*
X153123259Y-125598470D01*
X153118587Y-125601592D01*
X153108399Y-125608399D01*
X153076828Y-125655650D01*
X153076827Y-125655651D01*
X153061036Y-125679284D01*
X153053034Y-125691259D01*
X153033592Y-125789000D01*
X153035014Y-125796149D01*
X153037078Y-125806525D01*
X153038500Y-125820962D01*
X153038500Y-125904177D01*
X153021187Y-125951743D01*
X152977350Y-125977053D01*
X152927500Y-125968263D01*
X152908440Y-125952481D01*
X152906408Y-125950122D01*
X152826193Y-125857028D01*
X152821774Y-125854164D01*
X152821772Y-125854162D01*
X152722329Y-125789708D01*
X152722330Y-125789708D01*
X152717906Y-125786841D01*
X152712857Y-125785331D01*
X152712855Y-125785330D01*
X152599326Y-125751377D01*
X152599325Y-125751377D01*
X152594273Y-125749866D01*
X152528771Y-125749466D01*
X152470501Y-125749110D01*
X152470500Y-125749110D01*
X152465231Y-125749078D01*
X152341155Y-125784539D01*
X152232019Y-125853399D01*
X152228531Y-125857348D01*
X152228529Y-125857350D01*
X152225288Y-125861020D01*
X152146596Y-125950122D01*
X152144357Y-125954891D01*
X152144355Y-125954894D01*
X152100892Y-126047469D01*
X152091754Y-126066932D01*
X152071901Y-126194440D01*
X152072584Y-126199663D01*
X152072584Y-126199666D01*
X152087035Y-126310170D01*
X152088633Y-126322394D01*
X152090756Y-126327219D01*
X152135988Y-126430016D01*
X152140605Y-126440510D01*
X152223639Y-126539291D01*
X152331060Y-126610796D01*
X152336092Y-126612368D01*
X152336094Y-126612369D01*
X152371714Y-126623497D01*
X152454233Y-126649278D01*
X152459501Y-126649375D01*
X152459504Y-126649375D01*
X152583255Y-126651643D01*
X152583211Y-126654024D01*
X152623711Y-126663310D01*
X152654234Y-126703691D01*
X152657500Y-126725432D01*
X152657500Y-128352109D01*
X152640187Y-128399675D01*
X152596350Y-128424985D01*
X152546500Y-128416195D01*
X152516136Y-128382737D01*
X152505611Y-128359589D01*
X152505611Y-128359588D01*
X152503428Y-128354788D01*
X152499809Y-128350587D01*
X152422633Y-128261020D01*
X152422632Y-128261019D01*
X152419193Y-128257028D01*
X152414774Y-128254164D01*
X152414772Y-128254162D01*
X152326649Y-128197045D01*
X152310906Y-128186841D01*
X152305857Y-128185331D01*
X152305855Y-128185330D01*
X152192326Y-128151377D01*
X152192325Y-128151377D01*
X152187273Y-128149866D01*
X152121771Y-128149466D01*
X152063501Y-128149110D01*
X152063500Y-128149110D01*
X152058231Y-128149078D01*
X151934155Y-128184539D01*
X151825019Y-128253399D01*
X151821531Y-128257348D01*
X151821529Y-128257350D01*
X151792952Y-128289708D01*
X151739596Y-128350122D01*
X151737357Y-128354891D01*
X151737355Y-128354894D01*
X151707113Y-128419308D01*
X151684754Y-128466932D01*
X151675182Y-128528414D01*
X151675076Y-128529093D01*
X151654283Y-128570035D01*
X151320673Y-128903645D01*
X151274797Y-128925037D01*
X151225902Y-128911936D01*
X151196868Y-128870472D01*
X151195094Y-128861810D01*
X151177600Y-128739653D01*
X151177599Y-128739650D01*
X151176853Y-128734440D01*
X151171035Y-128721643D01*
X151125624Y-128621767D01*
X151125622Y-128621764D01*
X151123442Y-128616969D01*
X151118403Y-128611120D01*
X151042647Y-128523201D01*
X151042646Y-128523200D01*
X151039207Y-128519209D01*
X151034788Y-128516345D01*
X151034786Y-128516343D01*
X150935345Y-128451890D01*
X150935344Y-128451890D01*
X150930920Y-128449022D01*
X150925296Y-128447340D01*
X150924965Y-128447094D01*
X150921085Y-128445301D01*
X150921461Y-128444487D01*
X150884685Y-128417124D01*
X150872500Y-128376443D01*
X150872500Y-127543276D01*
X150889813Y-127495710D01*
X150904185Y-127483315D01*
X150904176Y-127483304D01*
X150904755Y-127482823D01*
X150907777Y-127480217D01*
X150908228Y-127479940D01*
X150908230Y-127479938D01*
X150912724Y-127477179D01*
X150999322Y-127381507D01*
X151055588Y-127265375D01*
X151076997Y-127138120D01*
X151077133Y-127127000D01*
X151071562Y-127088101D01*
X151059586Y-127004472D01*
X151059585Y-127004469D01*
X151058839Y-126999259D01*
X151038265Y-126954008D01*
X151007610Y-126886586D01*
X151007608Y-126886583D01*
X151005428Y-126881788D01*
X150998003Y-126873170D01*
X150924633Y-126788020D01*
X150924632Y-126788019D01*
X150921193Y-126784028D01*
X150916774Y-126781164D01*
X150916772Y-126781162D01*
X150820066Y-126718482D01*
X150812906Y-126713841D01*
X150807857Y-126712331D01*
X150807855Y-126712330D01*
X150694326Y-126678377D01*
X150694325Y-126678377D01*
X150689273Y-126676866D01*
X150623771Y-126676466D01*
X150565501Y-126676110D01*
X150565500Y-126676110D01*
X150560231Y-126676078D01*
X150436155Y-126711539D01*
X150327019Y-126780399D01*
X150323531Y-126784348D01*
X150323529Y-126784350D01*
X150308816Y-126801010D01*
X150241596Y-126877122D01*
X150239357Y-126881891D01*
X150239355Y-126881894D01*
X150205498Y-126954008D01*
X150186754Y-126993932D01*
X150166901Y-127121440D01*
X150167584Y-127126663D01*
X150167584Y-127126666D01*
X150180682Y-127226825D01*
X150183633Y-127249394D01*
X150235605Y-127367510D01*
X150318639Y-127466291D01*
X150323025Y-127469211D01*
X150323030Y-127469215D01*
X150338505Y-127479516D01*
X150368507Y-127520285D01*
X150371500Y-127541116D01*
X150371500Y-128573433D01*
X150360011Y-128611849D01*
X150359610Y-128612303D01*
X150304768Y-128729113D01*
X150284915Y-128856621D01*
X150285598Y-128861844D01*
X150285598Y-128861847D01*
X150300761Y-128977796D01*
X150301647Y-128984575D01*
X150303770Y-128989400D01*
X150326148Y-129040257D01*
X150353619Y-129102691D01*
X150436653Y-129201472D01*
X150544074Y-129272977D01*
X150549106Y-129274549D01*
X150549108Y-129274550D01*
X150562104Y-129278610D01*
X150667247Y-129311459D01*
X150672515Y-129311556D01*
X150672518Y-129311556D01*
X150734345Y-129312689D01*
X150781586Y-129330871D01*
X150806088Y-129375165D01*
X150796386Y-129424845D01*
X150785315Y-129439003D01*
X150696492Y-129527826D01*
X150650616Y-129549218D01*
X150644166Y-129549500D01*
X150409464Y-129549500D01*
X150369216Y-129537597D01*
X150295332Y-129489709D01*
X150295328Y-129489707D01*
X150290906Y-129486841D01*
X150285857Y-129485331D01*
X150285855Y-129485330D01*
X150172326Y-129451377D01*
X150172325Y-129451377D01*
X150167273Y-129449866D01*
X150101771Y-129449466D01*
X150043501Y-129449110D01*
X150043500Y-129449110D01*
X150038231Y-129449078D01*
X150007405Y-129457888D01*
X149956914Y-129454313D01*
X149934745Y-129439063D01*
X149132396Y-128636714D01*
X149127375Y-128631019D01*
X149124778Y-128626206D01*
X149087623Y-128591860D01*
X149085528Y-128589846D01*
X148579866Y-128084184D01*
X148570025Y-128071998D01*
X148566145Y-128065989D01*
X148566143Y-128065987D01*
X148562825Y-128060848D01*
X148536514Y-128040106D01*
X148530001Y-128034319D01*
X148527254Y-128031572D01*
X148524776Y-128029801D01*
X148524771Y-128029797D01*
X148511920Y-128020614D01*
X148509157Y-128018540D01*
X148471189Y-127988608D01*
X148465420Y-127986582D01*
X148464383Y-127986012D01*
X148463680Y-127985570D01*
X148463140Y-127985289D01*
X148462383Y-127984972D01*
X148461307Y-127984445D01*
X148456331Y-127980889D01*
X148410023Y-127967040D01*
X148406707Y-127965963D01*
X148382180Y-127957350D01*
X148361094Y-127949945D01*
X148355956Y-127949500D01*
X148354619Y-127949500D01*
X148350088Y-127949116D01*
X148344536Y-127947456D01*
X148338426Y-127947696D01*
X148338425Y-127947696D01*
X148293963Y-127949443D01*
X148291058Y-127949500D01*
X141509464Y-127949500D01*
X141500808Y-127946940D01*
X148896901Y-127946940D01*
X148897584Y-127952163D01*
X148897584Y-127952166D01*
X148912469Y-128065989D01*
X148913633Y-128074894D01*
X148915756Y-128079719D01*
X148963115Y-128187350D01*
X148965605Y-128193010D01*
X149048639Y-128291791D01*
X149156060Y-128363296D01*
X149161092Y-128364868D01*
X149161094Y-128364869D01*
X149196714Y-128375997D01*
X149279233Y-128401778D01*
X149284501Y-128401875D01*
X149284504Y-128401875D01*
X149338552Y-128402865D01*
X149408255Y-128404143D01*
X149413338Y-128402757D01*
X149413340Y-128402757D01*
X149527671Y-128371586D01*
X149532755Y-128370200D01*
X149642724Y-128302679D01*
X149729322Y-128207007D01*
X149785588Y-128090875D01*
X149799839Y-128006167D01*
X149806522Y-127966444D01*
X149806522Y-127966443D01*
X149806997Y-127963620D01*
X149807133Y-127952500D01*
X149797730Y-127886841D01*
X149789586Y-127829972D01*
X149789585Y-127829969D01*
X149788839Y-127824759D01*
X149766145Y-127774846D01*
X149737610Y-127712086D01*
X149737608Y-127712083D01*
X149735428Y-127707288D01*
X149728003Y-127698670D01*
X149654633Y-127613520D01*
X149654632Y-127613519D01*
X149651193Y-127609528D01*
X149646774Y-127606664D01*
X149646772Y-127606662D01*
X149636251Y-127599843D01*
X149605752Y-127559443D01*
X149602500Y-127537746D01*
X149602500Y-124594412D01*
X149619813Y-124546846D01*
X149624174Y-124542086D01*
X150124144Y-124042116D01*
X150170020Y-124020724D01*
X150177826Y-124020454D01*
X150207305Y-124020994D01*
X150297255Y-124022643D01*
X150302338Y-124021257D01*
X150302340Y-124021257D01*
X150414148Y-123990774D01*
X150421755Y-123988700D01*
X150531724Y-123921179D01*
X150618322Y-123825507D01*
X150674588Y-123709375D01*
X150695997Y-123582120D01*
X150696133Y-123571000D01*
X150693550Y-123552966D01*
X150678586Y-123448472D01*
X150678585Y-123448469D01*
X150677839Y-123443259D01*
X150646034Y-123373307D01*
X150626610Y-123330586D01*
X150626608Y-123330583D01*
X150624428Y-123325788D01*
X150617003Y-123317170D01*
X150543633Y-123232020D01*
X150543632Y-123232019D01*
X150540193Y-123228028D01*
X150535774Y-123225164D01*
X150535772Y-123225162D01*
X150436329Y-123160708D01*
X150436330Y-123160708D01*
X150431906Y-123157841D01*
X150426857Y-123156331D01*
X150426855Y-123156330D01*
X150313326Y-123122377D01*
X150313325Y-123122377D01*
X150308273Y-123120866D01*
X150242771Y-123120466D01*
X150184501Y-123120110D01*
X150184500Y-123120110D01*
X150179231Y-123120078D01*
X150055155Y-123155539D01*
X149946019Y-123224399D01*
X149942531Y-123228348D01*
X149942529Y-123228350D01*
X149939884Y-123231345D01*
X149860596Y-123321122D01*
X149858357Y-123325891D01*
X149858355Y-123325894D01*
X149819380Y-123408909D01*
X149805754Y-123437932D01*
X149785901Y-123565440D01*
X149786584Y-123570663D01*
X149786584Y-123570665D01*
X149793479Y-123623389D01*
X149782480Y-123672798D01*
X149772434Y-123685305D01*
X149493709Y-123964031D01*
X149197473Y-124260267D01*
X149186258Y-124269470D01*
X149171399Y-124279399D01*
X149167350Y-124285459D01*
X149139301Y-124327439D01*
X149139300Y-124327440D01*
X149130068Y-124341257D01*
X149116034Y-124362259D01*
X149096592Y-124460000D01*
X149098014Y-124467149D01*
X149100078Y-124477525D01*
X149101500Y-124491962D01*
X149101500Y-127537026D01*
X149084187Y-127584592D01*
X149066993Y-127599606D01*
X149057019Y-127605899D01*
X149053530Y-127609849D01*
X149053527Y-127609852D01*
X149017629Y-127650500D01*
X148971596Y-127702622D01*
X148969357Y-127707391D01*
X148969355Y-127707394D01*
X148942075Y-127765500D01*
X148916754Y-127819432D01*
X148896901Y-127946940D01*
X141500808Y-127946940D01*
X141469216Y-127937597D01*
X141395332Y-127889709D01*
X141395328Y-127889707D01*
X141390906Y-127886841D01*
X141385857Y-127885331D01*
X141385855Y-127885330D01*
X141272326Y-127851377D01*
X141272325Y-127851377D01*
X141267273Y-127849866D01*
X141201771Y-127849466D01*
X141143501Y-127849110D01*
X141143500Y-127849110D01*
X141138231Y-127849078D01*
X141014155Y-127884539D01*
X140905019Y-127953399D01*
X140901531Y-127957348D01*
X140901529Y-127957350D01*
X140876606Y-127985570D01*
X140819596Y-128050122D01*
X140817357Y-128054891D01*
X140817355Y-128054894D01*
X140781080Y-128132159D01*
X140764754Y-128166932D01*
X140744901Y-128294440D01*
X140745584Y-128299663D01*
X140745584Y-128299666D01*
X140760944Y-128417124D01*
X140761633Y-128422394D01*
X140763756Y-128427219D01*
X140806564Y-128524507D01*
X140813605Y-128540510D01*
X140896639Y-128639291D01*
X141004060Y-128710796D01*
X141009092Y-128712368D01*
X141009094Y-128712369D01*
X141038779Y-128721643D01*
X141127233Y-128749278D01*
X141132501Y-128749375D01*
X141132504Y-128749375D01*
X141186552Y-128750365D01*
X141256255Y-128751643D01*
X141261338Y-128750257D01*
X141261340Y-128750257D01*
X141375671Y-128719086D01*
X141380755Y-128717700D01*
X141426928Y-128689350D01*
X141472387Y-128661438D01*
X141511107Y-128650500D01*
X148124166Y-128650500D01*
X148171732Y-128667813D01*
X148176492Y-128672174D01*
X148471826Y-128967508D01*
X148493218Y-129013384D01*
X148493500Y-129019834D01*
X148493500Y-134952156D01*
X148476187Y-134999722D01*
X148471826Y-135004482D01*
X148310665Y-135165643D01*
X148273884Y-135183901D01*
X148274221Y-135185078D01*
X148150145Y-135220539D01*
X148127701Y-135234700D01*
X148065282Y-135274084D01*
X148025794Y-135285500D01*
X141152464Y-135285500D01*
X141112216Y-135273597D01*
X141038332Y-135225709D01*
X141038328Y-135225707D01*
X141033906Y-135222841D01*
X141028857Y-135221331D01*
X141028855Y-135221330D01*
X140955473Y-135199384D01*
X140914861Y-135169168D01*
X140903174Y-135119917D01*
X140925879Y-135074676D01*
X140972352Y-135054613D01*
X140978230Y-135054503D01*
X140981517Y-135054572D01*
X141179602Y-135039330D01*
X141186701Y-135038078D01*
X141378062Y-134984649D01*
X141384770Y-134982047D01*
X141535051Y-134906134D01*
X141542333Y-134898381D01*
X141542388Y-134897391D01*
X141540227Y-134893780D01*
X141009226Y-134362779D01*
X140999587Y-134358284D01*
X140993688Y-134359865D01*
X140464376Y-134889177D01*
X140459881Y-134898816D01*
X140460357Y-134900591D01*
X140462452Y-134902484D01*
X140574439Y-134965071D01*
X140581041Y-134967955D01*
X140769991Y-135029348D01*
X140777036Y-135030897D01*
X140835556Y-135037875D01*
X140880737Y-135060697D01*
X140900679Y-135107223D01*
X140886048Y-135155682D01*
X140843692Y-135183399D01*
X140826343Y-135185353D01*
X140786501Y-135185110D01*
X140786500Y-135185110D01*
X140781231Y-135185078D01*
X140657155Y-135220539D01*
X140548019Y-135289399D01*
X140544531Y-135293348D01*
X140544529Y-135293350D01*
X140524887Y-135315591D01*
X140462596Y-135386122D01*
X140460357Y-135390891D01*
X140460355Y-135390894D01*
X140448789Y-135415530D01*
X140407754Y-135502932D01*
X140387901Y-135630440D01*
X140388584Y-135635663D01*
X140388584Y-135635666D01*
X140396448Y-135695799D01*
X140404633Y-135758394D01*
X140406756Y-135763219D01*
X140453037Y-135868400D01*
X140456605Y-135876510D01*
X140459997Y-135880545D01*
X140462784Y-135885023D01*
X140460807Y-135886253D01*
X140475105Y-135925416D01*
X140457839Y-135972999D01*
X140414027Y-135998352D01*
X140401105Y-135999489D01*
X140079392Y-135999489D01*
X140031826Y-135982176D01*
X140027067Y-135977815D01*
X139970492Y-135921241D01*
X139949099Y-135875365D01*
X139948817Y-135868915D01*
X139948817Y-134557700D01*
X139966130Y-134510134D01*
X140009967Y-134484824D01*
X140059817Y-134493614D01*
X140088634Y-134523874D01*
X140094191Y-134534687D01*
X140101996Y-134541914D01*
X140103126Y-134541969D01*
X140106533Y-134539914D01*
X140637221Y-134009226D01*
X140641331Y-134000413D01*
X141358284Y-134000413D01*
X141359865Y-134006312D01*
X141889004Y-134535451D01*
X141898643Y-134539946D01*
X141900554Y-134539434D01*
X141902297Y-134537517D01*
X141962078Y-134432283D01*
X141965006Y-134425708D01*
X142027719Y-134237189D01*
X142029316Y-134230155D01*
X142054411Y-134031509D01*
X142054699Y-134027400D01*
X142055052Y-134002062D01*
X142054880Y-133997947D01*
X142035340Y-133798670D01*
X142033941Y-133791602D01*
X141976516Y-133601403D01*
X141973772Y-133594745D01*
X141905276Y-133465922D01*
X141897373Y-133458805D01*
X141895959Y-133458756D01*
X141892958Y-133460595D01*
X141362779Y-133990774D01*
X141358284Y-134000413D01*
X140641331Y-134000413D01*
X140641716Y-133999587D01*
X140640135Y-133993688D01*
X140110613Y-133464166D01*
X140100974Y-133459671D01*
X140099335Y-133460111D01*
X140097294Y-133462385D01*
X140087664Y-133479902D01*
X140049577Y-133513244D01*
X139998969Y-133514304D01*
X139959520Y-133482586D01*
X139948817Y-133444252D01*
X139948817Y-133130279D01*
X139950239Y-133115842D01*
X139952303Y-133105466D01*
X139952673Y-133103604D01*
X140458413Y-133103604D01*
X140460360Y-133106807D01*
X140990774Y-133637221D01*
X141000413Y-133641716D01*
X141006312Y-133640135D01*
X141536084Y-133110363D01*
X141540579Y-133100724D01*
X141540176Y-133099222D01*
X141537719Y-133097032D01*
X141412043Y-133029081D01*
X141405405Y-133026290D01*
X141215612Y-132967540D01*
X141208552Y-132966091D01*
X141010961Y-132945323D01*
X141003761Y-132945273D01*
X140805903Y-132963279D01*
X140798826Y-132964629D01*
X140608231Y-133020724D01*
X140601555Y-133023422D01*
X140465639Y-133094477D01*
X140458466Y-133102332D01*
X140458413Y-133103604D01*
X139952673Y-133103604D01*
X139953725Y-133098317D01*
X139934283Y-133000576D01*
X139914374Y-132970781D01*
X139878918Y-132917716D01*
X139864059Y-132907787D01*
X139852844Y-132898584D01*
X139044069Y-132089809D01*
X139022677Y-132043933D01*
X139023421Y-132025205D01*
X139025791Y-132011120D01*
X139029997Y-131986120D01*
X139030133Y-131975000D01*
X139021100Y-131911924D01*
X139012586Y-131852472D01*
X139012585Y-131852469D01*
X139011839Y-131847259D01*
X139004353Y-131830794D01*
X138960610Y-131734586D01*
X138960608Y-131734583D01*
X138958428Y-131729788D01*
X138954590Y-131725333D01*
X138877633Y-131636020D01*
X138877632Y-131636019D01*
X138874193Y-131632028D01*
X138869774Y-131629164D01*
X138869772Y-131629162D01*
X138782157Y-131572374D01*
X138765906Y-131561841D01*
X138760857Y-131560331D01*
X138760855Y-131560330D01*
X138647326Y-131526377D01*
X138647325Y-131526377D01*
X138642273Y-131524866D01*
X138576771Y-131524466D01*
X138518501Y-131524110D01*
X138518500Y-131524110D01*
X138513231Y-131524078D01*
X138389155Y-131559539D01*
X138280019Y-131628399D01*
X138276531Y-131632348D01*
X138276529Y-131632350D01*
X138247040Y-131665741D01*
X138194596Y-131725122D01*
X138192357Y-131729891D01*
X138192355Y-131729894D01*
X138172285Y-131772642D01*
X138170177Y-131777134D01*
X138166485Y-131784997D01*
X138130598Y-131820696D01*
X138080161Y-131824976D01*
X138038772Y-131795834D01*
X138025500Y-131753548D01*
X138025500Y-131591276D01*
X138042813Y-131543710D01*
X138057185Y-131531315D01*
X138057176Y-131531304D01*
X138057755Y-131530823D01*
X138060777Y-131528217D01*
X138061228Y-131527940D01*
X138061230Y-131527938D01*
X138065724Y-131525179D01*
X138152322Y-131429507D01*
X138208588Y-131313375D01*
X138223825Y-131222805D01*
X138229522Y-131188944D01*
X138229522Y-131188943D01*
X138229997Y-131186120D01*
X138230133Y-131175000D01*
X138223934Y-131131716D01*
X138212586Y-131052472D01*
X138212585Y-131052469D01*
X138211839Y-131047259D01*
X138196632Y-131013813D01*
X138160610Y-130934586D01*
X138160608Y-130934583D01*
X138158428Y-130929788D01*
X138154254Y-130924943D01*
X138077633Y-130836020D01*
X138077632Y-130836019D01*
X138074193Y-130832028D01*
X138069774Y-130829164D01*
X138069772Y-130829162D01*
X137995066Y-130780741D01*
X137965906Y-130761841D01*
X137960857Y-130760331D01*
X137960855Y-130760330D01*
X137847326Y-130726377D01*
X137847325Y-130726377D01*
X137842273Y-130724866D01*
X137776771Y-130724466D01*
X137718501Y-130724110D01*
X137718500Y-130724110D01*
X137713231Y-130724078D01*
X137589155Y-130759539D01*
X137480019Y-130828399D01*
X137476531Y-130832348D01*
X137476529Y-130832350D01*
X137441944Y-130871511D01*
X137394596Y-130925122D01*
X137392357Y-130929891D01*
X137392355Y-130929894D01*
X137364857Y-130988464D01*
X137339754Y-131041932D01*
X137319901Y-131169440D01*
X133600500Y-131169440D01*
X133600500Y-129801412D01*
X133617813Y-129753846D01*
X133622174Y-129749086D01*
X133686086Y-129685174D01*
X133731962Y-129663782D01*
X133738412Y-129663500D01*
X136009588Y-129663500D01*
X136057154Y-129680813D01*
X136061914Y-129685174D01*
X136564162Y-130187423D01*
X136585554Y-130233300D01*
X136584955Y-130251133D01*
X136583529Y-130260291D01*
X136577901Y-130296440D01*
X136578584Y-130301663D01*
X136578584Y-130301666D01*
X136591566Y-130400937D01*
X136594633Y-130424394D01*
X136596756Y-130429219D01*
X136626703Y-130497278D01*
X136646605Y-130542510D01*
X136729639Y-130641291D01*
X136837060Y-130712796D01*
X136842092Y-130714368D01*
X136842094Y-130714369D01*
X136873171Y-130724078D01*
X136960233Y-130751278D01*
X136965501Y-130751375D01*
X136965504Y-130751375D01*
X137019552Y-130752365D01*
X137089255Y-130753643D01*
X137094338Y-130752257D01*
X137094340Y-130752257D01*
X137194022Y-130725080D01*
X137213755Y-130719700D01*
X137323724Y-130652179D01*
X137410322Y-130556507D01*
X137466588Y-130440375D01*
X137483460Y-130340086D01*
X137487522Y-130315944D01*
X137487522Y-130315943D01*
X137487997Y-130313120D01*
X137488133Y-130302000D01*
X137480274Y-130247121D01*
X137470586Y-130179472D01*
X137470585Y-130179469D01*
X137469839Y-130174259D01*
X137467188Y-130168429D01*
X137418610Y-130061586D01*
X137418608Y-130061583D01*
X137416428Y-130056788D01*
X137400384Y-130038167D01*
X137335633Y-129963020D01*
X137335632Y-129963019D01*
X137332193Y-129959028D01*
X137327774Y-129956164D01*
X137327772Y-129956162D01*
X137228329Y-129891708D01*
X137228330Y-129891708D01*
X137223906Y-129888841D01*
X137218857Y-129887331D01*
X137218855Y-129887330D01*
X137105326Y-129853377D01*
X137105325Y-129853377D01*
X137100273Y-129851866D01*
X136971231Y-129851078D01*
X136971240Y-129849586D01*
X136928118Y-129840259D01*
X136915230Y-129829970D01*
X136343733Y-129258473D01*
X136334534Y-129247264D01*
X136333166Y-129245217D01*
X136321130Y-129196050D01*
X136343515Y-129150649D01*
X136394691Y-129130100D01*
X137000188Y-129130100D01*
X137047754Y-129147413D01*
X137052514Y-129151774D01*
X137707162Y-129806422D01*
X137728554Y-129852298D01*
X137727955Y-129870132D01*
X137720901Y-129915440D01*
X137721584Y-129920663D01*
X137721584Y-129920666D01*
X137736716Y-130036379D01*
X137737633Y-130043394D01*
X137739756Y-130048219D01*
X137787119Y-130155859D01*
X137789605Y-130161510D01*
X137872639Y-130260291D01*
X137980060Y-130331796D01*
X137985092Y-130333368D01*
X137985094Y-130333369D01*
X138020714Y-130344497D01*
X138103233Y-130370278D01*
X138108501Y-130370375D01*
X138108504Y-130370375D01*
X138162552Y-130371365D01*
X138232255Y-130372643D01*
X138237338Y-130371257D01*
X138237340Y-130371257D01*
X138351671Y-130340086D01*
X138356755Y-130338700D01*
X138466724Y-130271179D01*
X138553322Y-130175507D01*
X138609588Y-130059375D01*
X138625034Y-129967565D01*
X138630522Y-129934944D01*
X138630522Y-129934943D01*
X138630997Y-129932120D01*
X138631133Y-129921000D01*
X138626938Y-129891708D01*
X138613586Y-129798472D01*
X138613585Y-129798469D01*
X138612839Y-129793259D01*
X138603084Y-129771804D01*
X138561610Y-129680586D01*
X138561608Y-129680583D01*
X138559428Y-129675788D01*
X138540623Y-129653963D01*
X138478633Y-129582020D01*
X138478632Y-129582019D01*
X138475193Y-129578028D01*
X138470774Y-129575164D01*
X138470772Y-129575162D01*
X138382212Y-129517762D01*
X138366906Y-129507841D01*
X138361857Y-129506331D01*
X138361855Y-129506330D01*
X138248326Y-129472377D01*
X138248325Y-129472377D01*
X138243273Y-129470866D01*
X138114231Y-129470078D01*
X138114240Y-129468586D01*
X138071118Y-129459259D01*
X138058230Y-129448970D01*
X137334333Y-128725073D01*
X137325130Y-128713859D01*
X137319251Y-128705060D01*
X137319250Y-128705059D01*
X137315201Y-128698999D01*
X137262136Y-128663543D01*
X137258986Y-128661438D01*
X137238404Y-128647685D01*
X137238403Y-128647685D01*
X137232341Y-128643634D01*
X137134600Y-128624192D01*
X137127451Y-128625614D01*
X137117075Y-128627678D01*
X137102638Y-128629100D01*
X133280366Y-128629100D01*
X133265931Y-128627678D01*
X133248400Y-128624191D01*
X133223722Y-128629100D01*
X133157807Y-128642212D01*
X133157806Y-128642213D01*
X133150660Y-128643634D01*
X133106993Y-128672811D01*
X133067799Y-128698999D01*
X133063750Y-128705059D01*
X133057872Y-128713856D01*
X133048669Y-128725070D01*
X132545473Y-129228267D01*
X132534259Y-129237470D01*
X132527131Y-129242233D01*
X132519399Y-129247399D01*
X132495946Y-129282500D01*
X132492667Y-129287408D01*
X132492666Y-129287409D01*
X132473387Y-129316262D01*
X132464034Y-129330259D01*
X132444592Y-129428000D01*
X132446014Y-129435149D01*
X132448078Y-129445525D01*
X132449500Y-129459962D01*
X132449500Y-131684526D01*
X132432187Y-131732092D01*
X132414993Y-131747106D01*
X132405019Y-131753399D01*
X132401530Y-131757349D01*
X132401527Y-131757352D01*
X132366770Y-131796708D01*
X132319596Y-131850122D01*
X132317357Y-131854891D01*
X132317355Y-131854894D01*
X132302278Y-131887008D01*
X132264754Y-131966932D01*
X132244901Y-132094440D01*
X127858500Y-132094440D01*
X127858500Y-131112834D01*
X127875813Y-131065268D01*
X127880174Y-131060508D01*
X127937558Y-131003124D01*
X127983434Y-130981732D01*
X127999539Y-130982083D01*
X128016000Y-130984250D01*
X128020808Y-130983617D01*
X128154901Y-130965963D01*
X128159709Y-130965330D01*
X128164963Y-130963154D01*
X128221195Y-130939862D01*
X128293625Y-130909861D01*
X128408621Y-130821621D01*
X128496861Y-130706625D01*
X128552330Y-130572709D01*
X128571250Y-130429000D01*
X128552330Y-130285291D01*
X128496861Y-130151375D01*
X128408621Y-130036379D01*
X128404774Y-130033427D01*
X128404769Y-130033422D01*
X128395451Y-130026272D01*
X128368254Y-129983580D01*
X128366500Y-129967565D01*
X128366500Y-127410635D01*
X128383813Y-127363069D01*
X128395451Y-127351928D01*
X128404769Y-127344778D01*
X128404774Y-127344773D01*
X128408621Y-127341821D01*
X128496861Y-127226825D01*
X128552330Y-127092909D01*
X128571250Y-126949200D01*
X128552330Y-126805491D01*
X128548963Y-126797361D01*
X128513414Y-126711539D01*
X128496861Y-126671575D01*
X128408621Y-126556579D01*
X128293625Y-126468339D01*
X128159709Y-126412870D01*
X128016000Y-126393950D01*
X127872291Y-126412870D01*
X127738375Y-126468339D01*
X127623379Y-126556579D01*
X127535139Y-126671575D01*
X127518586Y-126711539D01*
X127483038Y-126797361D01*
X127479670Y-126805491D01*
X127460750Y-126949200D01*
X127479670Y-127092909D01*
X127535139Y-127226825D01*
X127623379Y-127341821D01*
X127627226Y-127344773D01*
X127627231Y-127344778D01*
X127636549Y-127351928D01*
X127663746Y-127394620D01*
X127665500Y-127410635D01*
X127665500Y-129967565D01*
X127648187Y-130015131D01*
X127636549Y-130026272D01*
X127627231Y-130033422D01*
X127627226Y-130033427D01*
X127623379Y-130036379D01*
X127535139Y-130151375D01*
X127479670Y-130285291D01*
X127460750Y-130429000D01*
X127462917Y-130445457D01*
X127451962Y-130494875D01*
X127441876Y-130507442D01*
X127292184Y-130657134D01*
X127279998Y-130666975D01*
X127273989Y-130670855D01*
X127273987Y-130670857D01*
X127268848Y-130674175D01*
X127265060Y-130678980D01*
X127248106Y-130700486D01*
X127242319Y-130706999D01*
X127239572Y-130709746D01*
X127237801Y-130712224D01*
X127237797Y-130712229D01*
X127228614Y-130725080D01*
X127226540Y-130727843D01*
X127196608Y-130765811D01*
X127194582Y-130771580D01*
X127194012Y-130772617D01*
X127193570Y-130773320D01*
X127193289Y-130773860D01*
X127192972Y-130774617D01*
X127192445Y-130775693D01*
X127188889Y-130780669D01*
X127187136Y-130786531D01*
X127175040Y-130826977D01*
X127173963Y-130830293D01*
X127157945Y-130875906D01*
X127157500Y-130881044D01*
X127157500Y-130882381D01*
X127157116Y-130886912D01*
X127155456Y-130892464D01*
X127155696Y-130898574D01*
X127155696Y-130898575D01*
X127157443Y-130943037D01*
X127157500Y-130945942D01*
X127157500Y-132126557D01*
X127140187Y-132174123D01*
X127128549Y-132185264D01*
X127119231Y-132192414D01*
X127119226Y-132192419D01*
X127115379Y-132195371D01*
X127027139Y-132310367D01*
X126971670Y-132444283D01*
X126952750Y-132587992D01*
X125413999Y-132587992D01*
X125406293Y-132572868D01*
X125345209Y-132506440D01*
X125307618Y-132465559D01*
X125307614Y-132465556D01*
X125304201Y-132461844D01*
X125299915Y-132459187D01*
X125299912Y-132459184D01*
X125195713Y-132394579D01*
X125176014Y-132382365D01*
X125104032Y-132361452D01*
X125034897Y-132341366D01*
X125034894Y-132341365D01*
X125031175Y-132340285D01*
X125026303Y-132339927D01*
X125021840Y-132339599D01*
X125021826Y-132339599D01*
X125020485Y-132339500D01*
X124912215Y-132339500D01*
X124800568Y-132354794D01*
X124662145Y-132414695D01*
X124609285Y-132457500D01*
X124548849Y-132506440D01*
X124548847Y-132506442D01*
X124544930Y-132509614D01*
X124518865Y-132546291D01*
X124460479Y-132628447D01*
X124460477Y-132628450D01*
X124457558Y-132632558D01*
X124455850Y-132637302D01*
X124427798Y-132715219D01*
X124406467Y-132774468D01*
X124406098Y-132779497D01*
X124406097Y-132779500D01*
X124402498Y-132828510D01*
X124395420Y-132924891D01*
X124396417Y-132929835D01*
X124396417Y-132929837D01*
X124424236Y-133067800D01*
X124425233Y-133072743D01*
X124493707Y-133207132D01*
X124514122Y-133229333D01*
X124592382Y-133314441D01*
X124592386Y-133314444D01*
X124595799Y-133318156D01*
X124600085Y-133320813D01*
X124600088Y-133320816D01*
X124669070Y-133363586D01*
X124723986Y-133397635D01*
X124788303Y-133416321D01*
X124827868Y-133427816D01*
X124868715Y-133457712D01*
X124880789Y-133506870D01*
X124858440Y-133552288D01*
X124815792Y-133572380D01*
X124710560Y-133584649D01*
X124702245Y-133586615D01*
X124545940Y-133643350D01*
X124538295Y-133647179D01*
X124399235Y-133738351D01*
X124392679Y-133743833D01*
X124278319Y-133864554D01*
X124273206Y-133871388D01*
X124189680Y-134015187D01*
X124186276Y-134023016D01*
X124175828Y-134057512D01*
X122363411Y-134057512D01*
X122317594Y-133949835D01*
X122313358Y-133942409D01*
X122214796Y-133808478D01*
X122208979Y-133802240D01*
X122082242Y-133694570D01*
X122075135Y-133689830D01*
X121927039Y-133614209D01*
X121919031Y-133611231D01*
X121756535Y-133571468D01*
X121750043Y-133570480D01*
X121743434Y-133570070D01*
X121741176Y-133570000D01*
X121523048Y-133570000D01*
X121513052Y-133573638D01*
X121510000Y-133578925D01*
X121510000Y-134056952D01*
X121010000Y-134056952D01*
X121010000Y-133583048D01*
X121006362Y-133573052D01*
X121001075Y-133570000D01*
X120818347Y-133570000D01*
X120814077Y-133570248D01*
X120690560Y-133584649D01*
X120682245Y-133586615D01*
X120525940Y-133643350D01*
X120518295Y-133647179D01*
X120379235Y-133738351D01*
X120372679Y-133743833D01*
X120278222Y-133843544D01*
X120232941Y-133866170D01*
X120183711Y-133854396D01*
X120153566Y-133813732D01*
X120150500Y-133792653D01*
X120150500Y-131500000D01*
X121094540Y-131500000D01*
X121094945Y-131503853D01*
X121112980Y-131675446D01*
X121114326Y-131688256D01*
X121172821Y-131868284D01*
X121267467Y-132032216D01*
X121270058Y-132035093D01*
X121270059Y-132035095D01*
X121321422Y-132092139D01*
X121394129Y-132172888D01*
X121435646Y-132203052D01*
X121526937Y-132269378D01*
X121547270Y-132284151D01*
X121550812Y-132285728D01*
X121716652Y-132359566D01*
X121716655Y-132359567D01*
X121720197Y-132361144D01*
X121723989Y-132361950D01*
X121723992Y-132361951D01*
X121901557Y-132399693D01*
X121905354Y-132400500D01*
X122094646Y-132400500D01*
X122098443Y-132399693D01*
X122276008Y-132361951D01*
X122276011Y-132361950D01*
X122279803Y-132361144D01*
X122283345Y-132359567D01*
X122283348Y-132359566D01*
X122449188Y-132285728D01*
X122452730Y-132284151D01*
X122473064Y-132269378D01*
X122564354Y-132203052D01*
X122605871Y-132172888D01*
X122678578Y-132092139D01*
X122729941Y-132035095D01*
X122729942Y-132035093D01*
X122732533Y-132032216D01*
X122779856Y-131950250D01*
X122825241Y-131871641D01*
X122825242Y-131871640D01*
X122827179Y-131868284D01*
X122828458Y-131864350D01*
X122848836Y-131801632D01*
X122880000Y-131761744D01*
X122919214Y-131750500D01*
X123611038Y-131750500D01*
X123625475Y-131751922D01*
X123643000Y-131755408D01*
X123740741Y-131735966D01*
X123749118Y-131730369D01*
X123770536Y-131716057D01*
X123770537Y-131716056D01*
X123784176Y-131706943D01*
X123823601Y-131680601D01*
X123833530Y-131665741D01*
X123842733Y-131654527D01*
X124089144Y-131408116D01*
X124135020Y-131386724D01*
X124142826Y-131386454D01*
X124172305Y-131386994D01*
X124262255Y-131388643D01*
X124267338Y-131387257D01*
X124267340Y-131387257D01*
X124381671Y-131356086D01*
X124386755Y-131354700D01*
X124496724Y-131287179D01*
X124583322Y-131191507D01*
X124639588Y-131075375D01*
X124655798Y-130979021D01*
X124660522Y-130950944D01*
X124660522Y-130950943D01*
X124660997Y-130948120D01*
X124661133Y-130937000D01*
X124653272Y-130882109D01*
X124643586Y-130814472D01*
X124643585Y-130814469D01*
X124642839Y-130809259D01*
X124626711Y-130773787D01*
X124591610Y-130696586D01*
X124591608Y-130696583D01*
X124589428Y-130691788D01*
X124582003Y-130683170D01*
X124508633Y-130598020D01*
X124508632Y-130598019D01*
X124505193Y-130594028D01*
X124500774Y-130591164D01*
X124500772Y-130591162D01*
X124401329Y-130526708D01*
X124401330Y-130526708D01*
X124396906Y-130523841D01*
X124391857Y-130522331D01*
X124391855Y-130522330D01*
X124278326Y-130488377D01*
X124278325Y-130488377D01*
X124273273Y-130486866D01*
X124207771Y-130486466D01*
X124149501Y-130486110D01*
X124149500Y-130486110D01*
X124144231Y-130486078D01*
X124020155Y-130521539D01*
X123911019Y-130590399D01*
X123907531Y-130594348D01*
X123907529Y-130594350D01*
X123897272Y-130605964D01*
X123825596Y-130687122D01*
X123823357Y-130691891D01*
X123823355Y-130691894D01*
X123785456Y-130772617D01*
X123770754Y-130803932D01*
X123750901Y-130931440D01*
X123758479Y-130989390D01*
X123747480Y-131038798D01*
X123737430Y-131051310D01*
X123560914Y-131227826D01*
X123515038Y-131249218D01*
X123508588Y-131249500D01*
X122919214Y-131249500D01*
X122871648Y-131232187D01*
X122848836Y-131198368D01*
X122828377Y-131135402D01*
X122828376Y-131135399D01*
X122827179Y-131131716D01*
X122816278Y-131112834D01*
X122754033Y-131005023D01*
X122732533Y-130967784D01*
X122728653Y-130963474D01*
X122608464Y-130829992D01*
X122605871Y-130827112D01*
X122492292Y-130744592D01*
X122455867Y-130718128D01*
X122455866Y-130718127D01*
X122452730Y-130715849D01*
X122388209Y-130687122D01*
X122283348Y-130640434D01*
X122283345Y-130640433D01*
X122279803Y-130638856D01*
X122276011Y-130638050D01*
X122276008Y-130638049D01*
X122098443Y-130600307D01*
X122098442Y-130600307D01*
X122094646Y-130599500D01*
X121905354Y-130599500D01*
X121901558Y-130600307D01*
X121901557Y-130600307D01*
X121723992Y-130638049D01*
X121723989Y-130638050D01*
X121720197Y-130638856D01*
X121716655Y-130640433D01*
X121716652Y-130640434D01*
X121611791Y-130687122D01*
X121547270Y-130715849D01*
X121544134Y-130718127D01*
X121544133Y-130718128D01*
X121507708Y-130744592D01*
X121394129Y-130827112D01*
X121391536Y-130829992D01*
X121271348Y-130963474D01*
X121267467Y-130967784D01*
X121172821Y-131131716D01*
X121114326Y-131311744D01*
X121113922Y-131315593D01*
X121113921Y-131315595D01*
X121101949Y-131429507D01*
X121094540Y-131500000D01*
X120150500Y-131500000D01*
X120150500Y-129000000D01*
X121094540Y-129000000D01*
X121094945Y-129003853D01*
X121113147Y-129177034D01*
X121114326Y-129188256D01*
X121172821Y-129368284D01*
X121267467Y-129532216D01*
X121270058Y-129535093D01*
X121270059Y-129535095D01*
X121298926Y-129567155D01*
X121394129Y-129672888D01*
X121417932Y-129690182D01*
X121505559Y-129753846D01*
X121547270Y-129784151D01*
X121550812Y-129785728D01*
X121716652Y-129859566D01*
X121716655Y-129859567D01*
X121720197Y-129861144D01*
X121723989Y-129861950D01*
X121723992Y-129861951D01*
X121872294Y-129893473D01*
X121905354Y-129900500D01*
X122094646Y-129900500D01*
X122127706Y-129893473D01*
X122276008Y-129861951D01*
X122276011Y-129861950D01*
X122279803Y-129861144D01*
X122283345Y-129859567D01*
X122283348Y-129859566D01*
X122449188Y-129785728D01*
X122452730Y-129784151D01*
X122494442Y-129753846D01*
X122582068Y-129690182D01*
X122605871Y-129672888D01*
X122701074Y-129567155D01*
X122729941Y-129535095D01*
X122729942Y-129535093D01*
X122732533Y-129532216D01*
X122827179Y-129368284D01*
X122838438Y-129333632D01*
X122869602Y-129293744D01*
X122908816Y-129282500D01*
X123793534Y-129282500D01*
X123841100Y-129299813D01*
X123850180Y-129308884D01*
X123897010Y-129364594D01*
X123902639Y-129371291D01*
X124010060Y-129442796D01*
X124015092Y-129444368D01*
X124015094Y-129444369D01*
X124050714Y-129455497D01*
X124133233Y-129481278D01*
X124138501Y-129481375D01*
X124138504Y-129481375D01*
X124192552Y-129482365D01*
X124262255Y-129483643D01*
X124267338Y-129482257D01*
X124267340Y-129482257D01*
X124374328Y-129453088D01*
X124386755Y-129449700D01*
X124496724Y-129382179D01*
X124583322Y-129286507D01*
X124639588Y-129170375D01*
X124660997Y-129043120D01*
X124661133Y-129032000D01*
X124656550Y-129000000D01*
X124643586Y-128909472D01*
X124643585Y-128909469D01*
X124642839Y-128904259D01*
X124625826Y-128866840D01*
X124591610Y-128791586D01*
X124591608Y-128791583D01*
X124589428Y-128786788D01*
X124584164Y-128780678D01*
X124508633Y-128693020D01*
X124508632Y-128693019D01*
X124505193Y-128689028D01*
X124500774Y-128686164D01*
X124500772Y-128686162D01*
X124408269Y-128626206D01*
X124396906Y-128618841D01*
X124391857Y-128617331D01*
X124391855Y-128617330D01*
X124278326Y-128583377D01*
X124278325Y-128583377D01*
X124273273Y-128581866D01*
X124207771Y-128581466D01*
X124149501Y-128581110D01*
X124149500Y-128581110D01*
X124144231Y-128581078D01*
X124020155Y-128616539D01*
X123911019Y-128685399D01*
X123907531Y-128689348D01*
X123907529Y-128689350D01*
X123848237Y-128756486D01*
X123803774Y-128780678D01*
X123792772Y-128781500D01*
X122929611Y-128781500D01*
X122882045Y-128764187D01*
X122859233Y-128730367D01*
X122828378Y-128635406D01*
X122827179Y-128631716D01*
X122732533Y-128467784D01*
X122725152Y-128459586D01*
X122635821Y-128360375D01*
X122605871Y-128327112D01*
X122511798Y-128258764D01*
X122455867Y-128218128D01*
X122455866Y-128218127D01*
X122452730Y-128215849D01*
X122410496Y-128197045D01*
X122283348Y-128140434D01*
X122283345Y-128140433D01*
X122279803Y-128138856D01*
X122276011Y-128138050D01*
X122276008Y-128138049D01*
X122098443Y-128100307D01*
X122098442Y-128100307D01*
X122094646Y-128099500D01*
X121905354Y-128099500D01*
X121901558Y-128100307D01*
X121901557Y-128100307D01*
X121723992Y-128138049D01*
X121723989Y-128138050D01*
X121720197Y-128138856D01*
X121716655Y-128140433D01*
X121716652Y-128140434D01*
X121589504Y-128197045D01*
X121547270Y-128215849D01*
X121544134Y-128218127D01*
X121544133Y-128218128D01*
X121488202Y-128258764D01*
X121394129Y-128327112D01*
X121364179Y-128360375D01*
X121274849Y-128459586D01*
X121267467Y-128467784D01*
X121172821Y-128631716D01*
X121114326Y-128811744D01*
X121113922Y-128815593D01*
X121113921Y-128815595D01*
X121104389Y-128906291D01*
X121094540Y-129000000D01*
X120150500Y-129000000D01*
X120150500Y-126206705D01*
X120167813Y-126159139D01*
X120211650Y-126133829D01*
X120261500Y-126142619D01*
X120284101Y-126162844D01*
X120305209Y-126191527D01*
X120311021Y-126197760D01*
X120437758Y-126305430D01*
X120444865Y-126310170D01*
X120592961Y-126385791D01*
X120600969Y-126388769D01*
X120763465Y-126428532D01*
X120769957Y-126429520D01*
X120776566Y-126429930D01*
X120778824Y-126430000D01*
X120996952Y-126430000D01*
X121006948Y-126426362D01*
X121010000Y-126421075D01*
X121010000Y-126416952D01*
X121510000Y-126416952D01*
X121513638Y-126426948D01*
X121518925Y-126430000D01*
X121701653Y-126430000D01*
X121705923Y-126429752D01*
X121829440Y-126415351D01*
X121837755Y-126413385D01*
X121994060Y-126356650D01*
X122001705Y-126352821D01*
X122140765Y-126261649D01*
X122147321Y-126256167D01*
X122261681Y-126135446D01*
X122266794Y-126128612D01*
X122350320Y-125984813D01*
X122353724Y-125976984D01*
X122364172Y-125942488D01*
X122363676Y-125933484D01*
X124174750Y-125933484D01*
X124175483Y-125939889D01*
X124222406Y-126050165D01*
X124226642Y-126057591D01*
X124325204Y-126191522D01*
X124331021Y-126197760D01*
X124457758Y-126305430D01*
X124464865Y-126310170D01*
X124612961Y-126385791D01*
X124620969Y-126388769D01*
X124783465Y-126428532D01*
X124793217Y-126430016D01*
X124793013Y-126431359D01*
X124835003Y-126449656D01*
X124857554Y-126494975D01*
X124845698Y-126544186D01*
X124804319Y-126574280D01*
X124800568Y-126574794D01*
X124795940Y-126576797D01*
X124795939Y-126576797D01*
X124770007Y-126588019D01*
X124662145Y-126634695D01*
X124616602Y-126671575D01*
X124548849Y-126726440D01*
X124548847Y-126726442D01*
X124544930Y-126729614D01*
X124542008Y-126733726D01*
X124460479Y-126848447D01*
X124460477Y-126848450D01*
X124457558Y-126852558D01*
X124406467Y-126994468D01*
X124395420Y-127144891D01*
X124396417Y-127149835D01*
X124396417Y-127149837D01*
X124424236Y-127287800D01*
X124425233Y-127292743D01*
X124493707Y-127427132D01*
X124524390Y-127460499D01*
X124592382Y-127534441D01*
X124592386Y-127534444D01*
X124595799Y-127538156D01*
X124600085Y-127540813D01*
X124600088Y-127540816D01*
X124670693Y-127584592D01*
X124723986Y-127617635D01*
X124784341Y-127635170D01*
X124865103Y-127658634D01*
X124865106Y-127658635D01*
X124868825Y-127659715D01*
X124873697Y-127660073D01*
X124878160Y-127660401D01*
X124878174Y-127660401D01*
X124879515Y-127660500D01*
X124987785Y-127660500D01*
X125099432Y-127645206D01*
X125237855Y-127585305D01*
X125296585Y-127537746D01*
X125351151Y-127493560D01*
X125351153Y-127493558D01*
X125355070Y-127490386D01*
X125386368Y-127446345D01*
X125439521Y-127371553D01*
X125439523Y-127371550D01*
X125442442Y-127367442D01*
X125493533Y-127225532D01*
X125504580Y-127075109D01*
X125488320Y-126994468D01*
X125475764Y-126932200D01*
X125475763Y-126932198D01*
X125474767Y-126927257D01*
X125406293Y-126792868D01*
X125345209Y-126726440D01*
X125307618Y-126685559D01*
X125307614Y-126685556D01*
X125304201Y-126681844D01*
X125299915Y-126679187D01*
X125299912Y-126679184D01*
X125203656Y-126619504D01*
X125176014Y-126602365D01*
X125153280Y-126595760D01*
X125082038Y-126575062D01*
X125041190Y-126545166D01*
X125029116Y-126496008D01*
X125051464Y-126450590D01*
X125102683Y-126430000D01*
X125166952Y-126430000D01*
X125176948Y-126426362D01*
X125180000Y-126421075D01*
X125180000Y-126416952D01*
X125680000Y-126416952D01*
X125683638Y-126426948D01*
X125688925Y-126430000D01*
X126021653Y-126430000D01*
X126025923Y-126429752D01*
X126149440Y-126415351D01*
X126157755Y-126413385D01*
X126314060Y-126356650D01*
X126321705Y-126352821D01*
X126460765Y-126261649D01*
X126467321Y-126256167D01*
X126581681Y-126135446D01*
X126586794Y-126128612D01*
X126670320Y-125984813D01*
X126673724Y-125976984D01*
X126684172Y-125942488D01*
X126683587Y-125931868D01*
X126682584Y-125930797D01*
X126679244Y-125930000D01*
X125693048Y-125930000D01*
X125683052Y-125933638D01*
X125680000Y-125938925D01*
X125680000Y-126416952D01*
X125180000Y-126416952D01*
X125180000Y-125943048D01*
X125176362Y-125933052D01*
X125171075Y-125930000D01*
X124184323Y-125930000D01*
X124174750Y-125933484D01*
X122363676Y-125933484D01*
X122363587Y-125931868D01*
X122362584Y-125930797D01*
X122359244Y-125930000D01*
X121523048Y-125930000D01*
X121513052Y-125933638D01*
X121510000Y-125938925D01*
X121510000Y-126416952D01*
X121010000Y-126416952D01*
X121010000Y-125416952D01*
X121510000Y-125416952D01*
X121513638Y-125426948D01*
X121518925Y-125430000D01*
X122355677Y-125430000D01*
X122365250Y-125426516D01*
X122364517Y-125420111D01*
X122363411Y-125417512D01*
X124175828Y-125417512D01*
X124176413Y-125428132D01*
X124177416Y-125429203D01*
X124180756Y-125430000D01*
X125166952Y-125430000D01*
X125176948Y-125426362D01*
X125180000Y-125421075D01*
X125180000Y-125416952D01*
X125680000Y-125416952D01*
X125683638Y-125426948D01*
X125688925Y-125430000D01*
X126675677Y-125430000D01*
X126685250Y-125426516D01*
X126684517Y-125420111D01*
X126637594Y-125309835D01*
X126633358Y-125302409D01*
X126534796Y-125168478D01*
X126528979Y-125162240D01*
X126402242Y-125054570D01*
X126395135Y-125049830D01*
X126247039Y-124974209D01*
X126239031Y-124971231D01*
X126076535Y-124931468D01*
X126070043Y-124930480D01*
X126063434Y-124930070D01*
X126061176Y-124930000D01*
X125693048Y-124930000D01*
X125683052Y-124933638D01*
X125680000Y-124938925D01*
X125680000Y-125416952D01*
X125180000Y-125416952D01*
X125180000Y-124943048D01*
X125176362Y-124933052D01*
X125171075Y-124930000D01*
X124838347Y-124930000D01*
X124834077Y-124930248D01*
X124710560Y-124944649D01*
X124702245Y-124946615D01*
X124545940Y-125003350D01*
X124538295Y-125007179D01*
X124399235Y-125098351D01*
X124392679Y-125103833D01*
X124278319Y-125224554D01*
X124273206Y-125231388D01*
X124189680Y-125375187D01*
X124186276Y-125383016D01*
X124175828Y-125417512D01*
X122363411Y-125417512D01*
X122317594Y-125309835D01*
X122313358Y-125302409D01*
X122214796Y-125168478D01*
X122208979Y-125162240D01*
X122082242Y-125054570D01*
X122075135Y-125049830D01*
X121927039Y-124974209D01*
X121919031Y-124971231D01*
X121756535Y-124931468D01*
X121750043Y-124930480D01*
X121743434Y-124930070D01*
X121741176Y-124930000D01*
X121523048Y-124930000D01*
X121513052Y-124933638D01*
X121510000Y-124938925D01*
X121510000Y-125416952D01*
X121010000Y-125416952D01*
X121010000Y-124943048D01*
X121006362Y-124933052D01*
X121001075Y-124930000D01*
X120818347Y-124930000D01*
X120814077Y-124930248D01*
X120690560Y-124944649D01*
X120682245Y-124946615D01*
X120525940Y-125003350D01*
X120518295Y-125007179D01*
X120379235Y-125098351D01*
X120372679Y-125103833D01*
X120278222Y-125203544D01*
X120232941Y-125226170D01*
X120183711Y-125214396D01*
X120153566Y-125173732D01*
X120150500Y-125152653D01*
X120150500Y-124898816D01*
X127959881Y-124898816D01*
X127960357Y-124900591D01*
X127962452Y-124902484D01*
X128074439Y-124965071D01*
X128081041Y-124967955D01*
X128269991Y-125029348D01*
X128277036Y-125030897D01*
X128474304Y-125054421D01*
X128481516Y-125054572D01*
X128679602Y-125039330D01*
X128686701Y-125038078D01*
X128878062Y-124984649D01*
X128884770Y-124982047D01*
X129035051Y-124906134D01*
X129042333Y-124898381D01*
X129042388Y-124897391D01*
X129040227Y-124893780D01*
X128509226Y-124362779D01*
X128499587Y-124358284D01*
X128493688Y-124359865D01*
X127964376Y-124889177D01*
X127959881Y-124898816D01*
X120150500Y-124898816D01*
X120150500Y-122985963D01*
X120494757Y-122985963D01*
X120495060Y-122989572D01*
X120495060Y-122989574D01*
X120509579Y-123162473D01*
X120511175Y-123181483D01*
X120533119Y-123258010D01*
X120552585Y-123325894D01*
X120565258Y-123370091D01*
X120566911Y-123373307D01*
X120653288Y-123541380D01*
X120653291Y-123541385D01*
X120654944Y-123544601D01*
X120776818Y-123698369D01*
X120926238Y-123825535D01*
X120929400Y-123827302D01*
X121094354Y-123919492D01*
X121094358Y-123919494D01*
X121097513Y-123921257D01*
X121100949Y-123922374D01*
X121100955Y-123922376D01*
X121187596Y-123950527D01*
X121284118Y-123981889D01*
X121342746Y-123988880D01*
X121475346Y-124004692D01*
X121475349Y-124004692D01*
X121478946Y-124005121D01*
X121572180Y-123997947D01*
X121670965Y-123990346D01*
X121670966Y-123990346D01*
X121674576Y-123990068D01*
X121678831Y-123988880D01*
X127445325Y-123988880D01*
X127461949Y-124186854D01*
X127463250Y-124193942D01*
X127518013Y-124384922D01*
X127520663Y-124391617D01*
X127594190Y-124534686D01*
X127601996Y-124541914D01*
X127603126Y-124541969D01*
X127606533Y-124539914D01*
X128137221Y-124009226D01*
X128141331Y-124000413D01*
X128858284Y-124000413D01*
X128859865Y-124006312D01*
X129389004Y-124535451D01*
X129398643Y-124539946D01*
X129400554Y-124539434D01*
X129402297Y-124537517D01*
X129462078Y-124432283D01*
X129465006Y-124425708D01*
X129527719Y-124237189D01*
X129529316Y-124230155D01*
X129554411Y-124031509D01*
X129554699Y-124027400D01*
X129555052Y-124002062D01*
X129554880Y-123997947D01*
X129535340Y-123798670D01*
X129533941Y-123791602D01*
X129476516Y-123601403D01*
X129473772Y-123594745D01*
X129405276Y-123465922D01*
X129397373Y-123458805D01*
X129395959Y-123458756D01*
X129392958Y-123460595D01*
X128862779Y-123990774D01*
X128858284Y-124000413D01*
X128141331Y-124000413D01*
X128141716Y-123999587D01*
X128140135Y-123993688D01*
X127610613Y-123464166D01*
X127600974Y-123459671D01*
X127599335Y-123460111D01*
X127597294Y-123462385D01*
X127531980Y-123581191D01*
X127529144Y-123587808D01*
X127469068Y-123777189D01*
X127467572Y-123784227D01*
X127445426Y-123981671D01*
X127445325Y-123988880D01*
X121678831Y-123988880D01*
X121863556Y-123937303D01*
X121892449Y-123922708D01*
X122035455Y-123850471D01*
X122035458Y-123850469D01*
X122038689Y-123848837D01*
X122193303Y-123728040D01*
X122321509Y-123579511D01*
X122323292Y-123576372D01*
X122323295Y-123576368D01*
X122400097Y-123441172D01*
X122418425Y-123408909D01*
X122430269Y-123373307D01*
X122479215Y-123226168D01*
X122479216Y-123226165D01*
X122480358Y-123222732D01*
X122482395Y-123206612D01*
X122504691Y-123030115D01*
X122504691Y-123030111D01*
X122504949Y-123028071D01*
X122505341Y-123000000D01*
X122504719Y-122993650D01*
X122491801Y-122861909D01*
X122486194Y-122804728D01*
X122429484Y-122616894D01*
X122337370Y-122443653D01*
X122245327Y-122330796D01*
X122215648Y-122294406D01*
X122215647Y-122294405D01*
X122213361Y-122291602D01*
X122091439Y-122190740D01*
X122064975Y-122168847D01*
X122064974Y-122168846D01*
X122062180Y-122166535D01*
X122047814Y-122158767D01*
X121985363Y-122125000D01*
X123819551Y-122125000D01*
X123819779Y-122127897D01*
X123838861Y-122370350D01*
X123839317Y-122376148D01*
X123839995Y-122378972D01*
X123896348Y-122613699D01*
X123898127Y-122621111D01*
X123994534Y-122853859D01*
X123996055Y-122856341D01*
X123996057Y-122856345D01*
X124085353Y-123002062D01*
X124126164Y-123068659D01*
X124128056Y-123070874D01*
X124128058Y-123070877D01*
X124287885Y-123258010D01*
X124289776Y-123260224D01*
X124291990Y-123262115D01*
X124467544Y-123412052D01*
X124481341Y-123423836D01*
X124483828Y-123425360D01*
X124693655Y-123553943D01*
X124693659Y-123553945D01*
X124696141Y-123555466D01*
X124698834Y-123556581D01*
X124698835Y-123556582D01*
X124888695Y-123635224D01*
X124928889Y-123651873D01*
X124931716Y-123652552D01*
X124931717Y-123652552D01*
X125044727Y-123679683D01*
X125173852Y-123710683D01*
X125176739Y-123710910D01*
X125176744Y-123710911D01*
X125299363Y-123720561D01*
X125362118Y-123725500D01*
X125487882Y-123725500D01*
X125550637Y-123720561D01*
X125673256Y-123710911D01*
X125673261Y-123710910D01*
X125676148Y-123710683D01*
X125805273Y-123679683D01*
X125918283Y-123652552D01*
X125918284Y-123652552D01*
X125921111Y-123651873D01*
X125961305Y-123635224D01*
X126151165Y-123556582D01*
X126151166Y-123556581D01*
X126153859Y-123555466D01*
X126156341Y-123553945D01*
X126156345Y-123553943D01*
X126366172Y-123425360D01*
X126368659Y-123423836D01*
X126382457Y-123412052D01*
X126558010Y-123262115D01*
X126560224Y-123260224D01*
X126562115Y-123258010D01*
X126721942Y-123070877D01*
X126721944Y-123070874D01*
X126723836Y-123068659D01*
X126764647Y-123002062D01*
X126853943Y-122856345D01*
X126853945Y-122856341D01*
X126855466Y-122853859D01*
X126951873Y-122621111D01*
X126953653Y-122613699D01*
X127010005Y-122378972D01*
X127010683Y-122376148D01*
X127011140Y-122370350D01*
X127030221Y-122127897D01*
X127030449Y-122125000D01*
X127025516Y-122062325D01*
X127010911Y-121876744D01*
X127010910Y-121876739D01*
X127010683Y-121873852D01*
X126951873Y-121628889D01*
X126928888Y-121573399D01*
X126898485Y-121500000D01*
X127594540Y-121500000D01*
X127596536Y-121518993D01*
X127612922Y-121674894D01*
X127614326Y-121688256D01*
X127672821Y-121868284D01*
X127767467Y-122032216D01*
X127770058Y-122035093D01*
X127770059Y-122035095D01*
X127827810Y-122099234D01*
X127894129Y-122172888D01*
X127931168Y-122199798D01*
X128043912Y-122281711D01*
X128047270Y-122284151D01*
X128050812Y-122285728D01*
X128216652Y-122359566D01*
X128216655Y-122359567D01*
X128220197Y-122361144D01*
X128223989Y-122361950D01*
X128223992Y-122361951D01*
X128342711Y-122387185D01*
X128405354Y-122400500D01*
X128549946Y-122400500D01*
X128597512Y-122417813D01*
X128622822Y-122461650D01*
X128616930Y-122505950D01*
X128596754Y-122548924D01*
X128576901Y-122676432D01*
X128577584Y-122681655D01*
X128577584Y-122681658D01*
X128591880Y-122790978D01*
X128593633Y-122804386D01*
X128611301Y-122844540D01*
X128614612Y-122895049D01*
X128584681Y-122935871D01*
X128535833Y-122947937D01*
X128510961Y-122945323D01*
X128503761Y-122945273D01*
X128305903Y-122963279D01*
X128298826Y-122964629D01*
X128108231Y-123020724D01*
X128101555Y-123023422D01*
X127965639Y-123094477D01*
X127958466Y-123102332D01*
X127958413Y-123103604D01*
X127960360Y-123106807D01*
X128490774Y-123637221D01*
X128500413Y-123641716D01*
X128506312Y-123640135D01*
X128991932Y-123154515D01*
X129037808Y-123133123D01*
X129045607Y-123132853D01*
X129088255Y-123133635D01*
X129093338Y-123132249D01*
X129093340Y-123132249D01*
X129198406Y-123103604D01*
X129212755Y-123099692D01*
X129322724Y-123032171D01*
X129409322Y-122936499D01*
X129465588Y-122820367D01*
X129486997Y-122693112D01*
X129487133Y-122681992D01*
X129477353Y-122613699D01*
X129469586Y-122559464D01*
X129469585Y-122559461D01*
X129468839Y-122554251D01*
X129466417Y-122548924D01*
X129417610Y-122441578D01*
X129417608Y-122441575D01*
X129415428Y-122436780D01*
X129411324Y-122432016D01*
X129400439Y-122419384D01*
X129382500Y-122371081D01*
X129382500Y-122219292D01*
X129384158Y-122203716D01*
X129385664Y-122196721D01*
X129386952Y-122190740D01*
X129383013Y-122157459D01*
X129382500Y-122148761D01*
X129382500Y-122144885D01*
X129379409Y-122126315D01*
X129378918Y-122122863D01*
X129378460Y-122118990D01*
X129373237Y-122074862D01*
X129370589Y-122069348D01*
X129370257Y-122068206D01*
X129370075Y-122067408D01*
X129369886Y-122066810D01*
X129369574Y-122066048D01*
X129369192Y-122064933D01*
X129368188Y-122058897D01*
X129345234Y-122016356D01*
X129343651Y-122013249D01*
X129340515Y-122006717D01*
X129322727Y-121969674D01*
X129319727Y-121966106D01*
X129318372Y-121964007D01*
X129307113Y-121914656D01*
X129316452Y-121886864D01*
X129325240Y-121871642D01*
X129327179Y-121868284D01*
X129385674Y-121688256D01*
X129387079Y-121674894D01*
X129403464Y-121518993D01*
X129405460Y-121500000D01*
X129394909Y-121399607D01*
X129386079Y-121315595D01*
X129386078Y-121315593D01*
X129385674Y-121311744D01*
X129333913Y-121152440D01*
X150039901Y-121152440D01*
X150040584Y-121157663D01*
X150040584Y-121157666D01*
X150051513Y-121241237D01*
X150056633Y-121280394D01*
X150108605Y-121398510D01*
X150191639Y-121497291D01*
X150299060Y-121568796D01*
X150304092Y-121570368D01*
X150304094Y-121570369D01*
X150339714Y-121581497D01*
X150422233Y-121607278D01*
X150427501Y-121607375D01*
X150427504Y-121607375D01*
X150481552Y-121608365D01*
X150551255Y-121609643D01*
X150556338Y-121608257D01*
X150556340Y-121608257D01*
X150670671Y-121577086D01*
X150675755Y-121575700D01*
X150785724Y-121508179D01*
X150853918Y-121432840D01*
X150898673Y-121409193D01*
X150908780Y-121408500D01*
X151851119Y-121408500D01*
X151898685Y-121425813D01*
X151903445Y-121430174D01*
X152606011Y-122132740D01*
X152627403Y-122178616D01*
X152626804Y-122196450D01*
X152619750Y-122241758D01*
X152620433Y-122246981D01*
X152620433Y-122246984D01*
X152635362Y-122361144D01*
X152636482Y-122369712D01*
X152638605Y-122374537D01*
X152663044Y-122430078D01*
X152688454Y-122487828D01*
X152771488Y-122586609D01*
X152878909Y-122658114D01*
X152883941Y-122659686D01*
X152883943Y-122659687D01*
X152904712Y-122666175D01*
X152930940Y-122674370D01*
X152971178Y-122705078D01*
X152982264Y-122754468D01*
X152961198Y-122797328D01*
X152917549Y-122840977D01*
X152871673Y-122862369D01*
X152864775Y-122862650D01*
X152800395Y-122862257D01*
X152743489Y-122861909D01*
X152743488Y-122861909D01*
X152738219Y-122861877D01*
X152614143Y-122897338D01*
X152505007Y-122966198D01*
X152501519Y-122970147D01*
X152501517Y-122970149D01*
X152475154Y-123000000D01*
X152419584Y-123062921D01*
X152417345Y-123067690D01*
X152417343Y-123067693D01*
X152376780Y-123154091D01*
X152364742Y-123179731D01*
X152344889Y-123307239D01*
X152345572Y-123312462D01*
X152345572Y-123312465D01*
X152360136Y-123423836D01*
X152361621Y-123435193D01*
X152363744Y-123440018D01*
X152372392Y-123459671D01*
X152413593Y-123553309D01*
X152496627Y-123652090D01*
X152604048Y-123723595D01*
X152609080Y-123725167D01*
X152609082Y-123725168D01*
X152644702Y-123736296D01*
X152727221Y-123762077D01*
X152732489Y-123762174D01*
X152732492Y-123762174D01*
X152786540Y-123763164D01*
X152856243Y-123764442D01*
X152861326Y-123763056D01*
X152861328Y-123763056D01*
X152975659Y-123731885D01*
X152980743Y-123730499D01*
X153090712Y-123662978D01*
X153177310Y-123567306D01*
X153233576Y-123451174D01*
X153254985Y-123323919D01*
X153255121Y-123312799D01*
X153247732Y-123261205D01*
X153258127Y-123211666D01*
X153268659Y-123198389D01*
X153512874Y-122954174D01*
X153558750Y-122932782D01*
X153565200Y-122932500D01*
X156510401Y-122932500D01*
X156557967Y-122949813D01*
X156583277Y-122993650D01*
X156574487Y-123043500D01*
X156549889Y-123069084D01*
X156530950Y-123081034D01*
X156505013Y-123097399D01*
X156501525Y-123101348D01*
X156501523Y-123101350D01*
X156473096Y-123133538D01*
X156419590Y-123194122D01*
X156417351Y-123198891D01*
X156417349Y-123198894D01*
X156384219Y-123269459D01*
X156364748Y-123310932D01*
X156344895Y-123438440D01*
X156345578Y-123443663D01*
X156345578Y-123443666D01*
X156360444Y-123557344D01*
X156361627Y-123566394D01*
X156363750Y-123571219D01*
X156397559Y-123648055D01*
X156413599Y-123684510D01*
X156496633Y-123783291D01*
X156604054Y-123854796D01*
X156609086Y-123856368D01*
X156609088Y-123856369D01*
X156644102Y-123867308D01*
X156727227Y-123893278D01*
X156732495Y-123893375D01*
X156732498Y-123893375D01*
X156786546Y-123894365D01*
X156856249Y-123895643D01*
X156861332Y-123894257D01*
X156861334Y-123894257D01*
X156960179Y-123867308D01*
X156980749Y-123861700D01*
X157090718Y-123794179D01*
X157158912Y-123718840D01*
X157203667Y-123695193D01*
X157213774Y-123694500D01*
X157345588Y-123694500D01*
X157393154Y-123711813D01*
X157397914Y-123716174D01*
X157900162Y-124218423D01*
X157921554Y-124264300D01*
X157920955Y-124282133D01*
X157913901Y-124327440D01*
X157914584Y-124332663D01*
X157914584Y-124332666D01*
X157927611Y-124432283D01*
X157930633Y-124455394D01*
X157932756Y-124460219D01*
X157968703Y-124541914D01*
X157982605Y-124573510D01*
X158065639Y-124672291D01*
X158173060Y-124743796D01*
X158178092Y-124745368D01*
X158178094Y-124745369D01*
X158202318Y-124752937D01*
X158296233Y-124782278D01*
X158301501Y-124782375D01*
X158301504Y-124782375D01*
X158355552Y-124783365D01*
X158425255Y-124784643D01*
X158430338Y-124783257D01*
X158430340Y-124783257D01*
X158544671Y-124752086D01*
X158549755Y-124750700D01*
X158659724Y-124683179D01*
X158746322Y-124587507D01*
X158802588Y-124471375D01*
X158823997Y-124344120D01*
X158824133Y-124333000D01*
X158815035Y-124269470D01*
X158806586Y-124210472D01*
X158806585Y-124210469D01*
X158805839Y-124205259D01*
X158803659Y-124200464D01*
X158754610Y-124092586D01*
X158754608Y-124092583D01*
X158752428Y-124087788D01*
X158746443Y-124080841D01*
X158671633Y-123994020D01*
X158671632Y-123994019D01*
X158668193Y-123990028D01*
X158663774Y-123987164D01*
X158663772Y-123987162D01*
X158578020Y-123931582D01*
X158559906Y-123919841D01*
X158554857Y-123918331D01*
X158554855Y-123918330D01*
X158441326Y-123884377D01*
X158441325Y-123884377D01*
X158436273Y-123882866D01*
X158307231Y-123882078D01*
X158307240Y-123880586D01*
X158264118Y-123871259D01*
X158251230Y-123860970D01*
X157679733Y-123289473D01*
X157670530Y-123278259D01*
X157664650Y-123269459D01*
X157660601Y-123263399D01*
X157605477Y-123226567D01*
X157577741Y-123208034D01*
X157480000Y-123188592D01*
X157472851Y-123190014D01*
X157462475Y-123192078D01*
X157448038Y-123193500D01*
X157212785Y-123193500D01*
X157165219Y-123176187D01*
X157156725Y-123167804D01*
X157102627Y-123105020D01*
X157102626Y-123105019D01*
X157099187Y-123101028D01*
X157094765Y-123098162D01*
X157094763Y-123098160D01*
X157049152Y-123068597D01*
X157018653Y-123028198D01*
X157021257Y-122977646D01*
X157055747Y-122940595D01*
X157089400Y-122932500D01*
X158234588Y-122932500D01*
X158282154Y-122949813D01*
X158286914Y-122954174D01*
X158804274Y-123471535D01*
X158813470Y-123482742D01*
X158823399Y-123497601D01*
X158844316Y-123511577D01*
X158844317Y-123511578D01*
X158906260Y-123552966D01*
X158913406Y-123554387D01*
X158913407Y-123554388D01*
X158996852Y-123570987D01*
X159004000Y-123572409D01*
X159021531Y-123568922D01*
X159035966Y-123567500D01*
X160774588Y-123567500D01*
X160822154Y-123584813D01*
X160826914Y-123589174D01*
X160896582Y-123658842D01*
X160917974Y-123704718D01*
X160904873Y-123753613D01*
X160864592Y-123782318D01*
X160808155Y-123798448D01*
X160699019Y-123867308D01*
X160695531Y-123871257D01*
X160695529Y-123871259D01*
X160677472Y-123891705D01*
X160613596Y-123964031D01*
X160611357Y-123968800D01*
X160611355Y-123968803D01*
X160586123Y-124022546D01*
X160558754Y-124080841D01*
X160538901Y-124208349D01*
X160539584Y-124213572D01*
X160539584Y-124213575D01*
X160554474Y-124327439D01*
X160555633Y-124336303D01*
X160557756Y-124341128D01*
X160584920Y-124402862D01*
X160607605Y-124454419D01*
X160611000Y-124458457D01*
X160611000Y-124458458D01*
X160662530Y-124519762D01*
X160679884Y-124567313D01*
X160662612Y-124614894D01*
X160658210Y-124619703D01*
X158976473Y-126301440D01*
X158965258Y-126310643D01*
X158950399Y-126320572D01*
X158914943Y-126373637D01*
X158895034Y-126403432D01*
X158875592Y-126501173D01*
X158877014Y-126508322D01*
X158879078Y-126518698D01*
X158880500Y-126533135D01*
X158880500Y-127473526D01*
X158863187Y-127521092D01*
X158845993Y-127536106D01*
X158836019Y-127542399D01*
X158832530Y-127546349D01*
X158832527Y-127546352D01*
X158796357Y-127587308D01*
X158750596Y-127639122D01*
X158748357Y-127643891D01*
X158748355Y-127643894D01*
X158706077Y-127733945D01*
X158695754Y-127755932D01*
X158675901Y-127883440D01*
X158676584Y-127888663D01*
X158676584Y-127888666D01*
X158689314Y-127986012D01*
X158692633Y-128011394D01*
X158694756Y-128016219D01*
X158739042Y-128116866D01*
X158744605Y-128129510D01*
X158827639Y-128228291D01*
X158935060Y-128299796D01*
X158940092Y-128301368D01*
X158940094Y-128301369D01*
X158975714Y-128312497D01*
X159058233Y-128338278D01*
X159063501Y-128338375D01*
X159063504Y-128338375D01*
X159117552Y-128339365D01*
X159187255Y-128340643D01*
X159192338Y-128339257D01*
X159192340Y-128339257D01*
X159306671Y-128308086D01*
X159311755Y-128306700D01*
X159421724Y-128239179D01*
X159496373Y-128156708D01*
X159504783Y-128147417D01*
X159504783Y-128147416D01*
X159508322Y-128143507D01*
X159508660Y-128142810D01*
X159548102Y-128114153D01*
X159598598Y-128117683D01*
X159635010Y-128152846D01*
X159642500Y-128185286D01*
X159642500Y-128492038D01*
X159641078Y-128506475D01*
X159637592Y-128524000D01*
X159639014Y-128531149D01*
X159655507Y-128614063D01*
X159657034Y-128621741D01*
X159673528Y-128646426D01*
X159712399Y-128704601D01*
X159718459Y-128708650D01*
X159727259Y-128714530D01*
X159738473Y-128723733D01*
X160169274Y-129154535D01*
X160178470Y-129165742D01*
X160188399Y-129180601D01*
X160194459Y-129184650D01*
X160209316Y-129194577D01*
X160209323Y-129194582D01*
X160216611Y-129199452D01*
X160218658Y-129202244D01*
X160220530Y-129203780D01*
X160220532Y-129203782D01*
X160220102Y-129204212D01*
X160246544Y-129240272D01*
X160249501Y-129260982D01*
X160249501Y-129281518D01*
X160264354Y-129375304D01*
X160287713Y-129421149D01*
X160319304Y-129483150D01*
X160319306Y-129483152D01*
X160321950Y-129488342D01*
X160411658Y-129578050D01*
X160416848Y-129580694D01*
X160416850Y-129580696D01*
X160519502Y-129633000D01*
X160519505Y-129633001D01*
X160524696Y-129635646D01*
X160530448Y-129636557D01*
X160530451Y-129636558D01*
X160617919Y-129650411D01*
X160662191Y-129674952D01*
X160680332Y-129722208D01*
X160663852Y-129770070D01*
X160620463Y-129796140D01*
X160606343Y-129797500D01*
X160305791Y-129797500D01*
X160258225Y-129780187D01*
X160249731Y-129771804D01*
X160195633Y-129709020D01*
X160195632Y-129709019D01*
X160192193Y-129705028D01*
X160187774Y-129702164D01*
X160187772Y-129702162D01*
X160088329Y-129637708D01*
X160088330Y-129637708D01*
X160083906Y-129634841D01*
X160078857Y-129633331D01*
X160078855Y-129633330D01*
X159965326Y-129599377D01*
X159965325Y-129599377D01*
X159960273Y-129597866D01*
X159894771Y-129597466D01*
X159836501Y-129597110D01*
X159836500Y-129597110D01*
X159831231Y-129597078D01*
X159707155Y-129632539D01*
X159598019Y-129701399D01*
X159594531Y-129705348D01*
X159594529Y-129705350D01*
X159591288Y-129709020D01*
X159512596Y-129798122D01*
X159510357Y-129802891D01*
X159510355Y-129802894D01*
X159479397Y-129868834D01*
X159457754Y-129914932D01*
X159437901Y-130042440D01*
X159438584Y-130047663D01*
X159438584Y-130047666D01*
X159453614Y-130162598D01*
X159454633Y-130170394D01*
X159456756Y-130175219D01*
X159488394Y-130247121D01*
X159506605Y-130288510D01*
X159589639Y-130387291D01*
X159697060Y-130458796D01*
X159702092Y-130460368D01*
X159702094Y-130460369D01*
X159737714Y-130471497D01*
X159820233Y-130497278D01*
X159825501Y-130497375D01*
X159825504Y-130497375D01*
X159879552Y-130498365D01*
X159949255Y-130499643D01*
X159954338Y-130498257D01*
X159954340Y-130498257D01*
X160068671Y-130467086D01*
X160073755Y-130465700D01*
X160183724Y-130398179D01*
X160251918Y-130322840D01*
X160296673Y-130299193D01*
X160306780Y-130298500D01*
X160356456Y-130298500D01*
X160404022Y-130315813D01*
X160429332Y-130359650D01*
X160420542Y-130409500D01*
X160408782Y-130424826D01*
X160321950Y-130511658D01*
X160319306Y-130516848D01*
X160319304Y-130516850D01*
X160273898Y-130605964D01*
X160264354Y-130624696D01*
X160263443Y-130630448D01*
X160263442Y-130630451D01*
X160251225Y-130707591D01*
X160249500Y-130718481D01*
X160249501Y-131281518D01*
X160249956Y-131284390D01*
X160249956Y-131284392D01*
X160250834Y-131289937D01*
X160264354Y-131375304D01*
X160282381Y-131410683D01*
X160319304Y-131483150D01*
X160319306Y-131483152D01*
X160321950Y-131488342D01*
X160411658Y-131578050D01*
X160416848Y-131580694D01*
X160416850Y-131580696D01*
X160519502Y-131633000D01*
X160519505Y-131633001D01*
X160524696Y-131635646D01*
X160530448Y-131636557D01*
X160530451Y-131636558D01*
X160598548Y-131647343D01*
X160618481Y-131650500D01*
X162150000Y-131650500D01*
X163681518Y-131650499D01*
X163684390Y-131650044D01*
X163684392Y-131650044D01*
X163716090Y-131645024D01*
X163775304Y-131635646D01*
X163862385Y-131591276D01*
X163883150Y-131580696D01*
X163883152Y-131580694D01*
X163888342Y-131578050D01*
X163978050Y-131488342D01*
X163980694Y-131483152D01*
X163980696Y-131483150D01*
X164033000Y-131380498D01*
X164033001Y-131380495D01*
X164035646Y-131375304D01*
X164036557Y-131369552D01*
X164036558Y-131369549D01*
X164045526Y-131312924D01*
X164070067Y-131268652D01*
X164118615Y-131250500D01*
X164139588Y-131250500D01*
X164187154Y-131267813D01*
X164191914Y-131272174D01*
X164319826Y-131400086D01*
X164341218Y-131445962D01*
X164341500Y-131452412D01*
X164341500Y-132649093D01*
X164324187Y-132696659D01*
X164280350Y-132721969D01*
X164230500Y-132713179D01*
X164197963Y-132674402D01*
X164194036Y-132657983D01*
X164189717Y-132622295D01*
X164187394Y-132613149D01*
X164135531Y-132482158D01*
X164130622Y-132473445D01*
X164045614Y-132361452D01*
X164038548Y-132354386D01*
X163926555Y-132269378D01*
X163917842Y-132264469D01*
X163786851Y-132212606D01*
X163777705Y-132210283D01*
X163694948Y-132200268D01*
X163690500Y-132200000D01*
X162413048Y-132200000D01*
X162403052Y-132203638D01*
X162400000Y-132208925D01*
X162400000Y-133786952D01*
X162403638Y-133796948D01*
X162408925Y-133800000D01*
X163690501Y-133800000D01*
X163694948Y-133799732D01*
X163777705Y-133789717D01*
X163786851Y-133787394D01*
X163917842Y-133735531D01*
X163926555Y-133730622D01*
X164032052Y-133650545D01*
X164080408Y-133635576D01*
X164127071Y-133655192D01*
X164150168Y-133699893D01*
X164153633Y-133726394D01*
X164155756Y-133731219D01*
X164174760Y-133774408D01*
X164205605Y-133844510D01*
X164209000Y-133848548D01*
X164209000Y-133848549D01*
X164224412Y-133866885D01*
X164241766Y-133914436D01*
X164224494Y-133962017D01*
X164180679Y-133987365D01*
X164167766Y-133988500D01*
X161194966Y-133988500D01*
X161180531Y-133987078D01*
X161163000Y-133983591D01*
X161155852Y-133985013D01*
X161072407Y-134001612D01*
X161072406Y-134001613D01*
X161065260Y-134003034D01*
X160982399Y-134058399D01*
X160978350Y-134064459D01*
X160972472Y-134073256D01*
X160963269Y-134084470D01*
X160373473Y-134674267D01*
X160362258Y-134683470D01*
X160347399Y-134693399D01*
X160329562Y-134720095D01*
X160329562Y-134720096D01*
X160329561Y-134720096D01*
X160315547Y-134741069D01*
X160292034Y-134776259D01*
X160272592Y-134874000D01*
X160274014Y-134881149D01*
X160276078Y-134891525D01*
X160277500Y-134905962D01*
X160277500Y-135601526D01*
X160260187Y-135649092D01*
X160242993Y-135664106D01*
X160233019Y-135670399D01*
X160229530Y-135674349D01*
X160229527Y-135674352D01*
X160210586Y-135695799D01*
X160147596Y-135767122D01*
X160145357Y-135771891D01*
X160145355Y-135771894D01*
X160108274Y-135850875D01*
X160092754Y-135883932D01*
X160072901Y-136011440D01*
X160073584Y-136016663D01*
X160073584Y-136016666D01*
X160088205Y-136128472D01*
X160089633Y-136139394D01*
X160091756Y-136144219D01*
X160138741Y-136251000D01*
X160141605Y-136257510D01*
X160224639Y-136356291D01*
X160332060Y-136427796D01*
X160337092Y-136429368D01*
X160337094Y-136429369D01*
X160371110Y-136439996D01*
X160455233Y-136466278D01*
X160460501Y-136466375D01*
X160460504Y-136466375D01*
X160514552Y-136467365D01*
X160584255Y-136468643D01*
X160589338Y-136467257D01*
X160589340Y-136467257D01*
X160703671Y-136436086D01*
X160708755Y-136434700D01*
X160818724Y-136367179D01*
X160905322Y-136271507D01*
X160961588Y-136155375D01*
X160978460Y-136055086D01*
X160982522Y-136030944D01*
X160982522Y-136030943D01*
X160982997Y-136028120D01*
X160983133Y-136017000D01*
X160981591Y-136006234D01*
X160965586Y-135894472D01*
X160965585Y-135894469D01*
X160964839Y-135889259D01*
X160962417Y-135883932D01*
X160913610Y-135776586D01*
X160913608Y-135776583D01*
X160911428Y-135771788D01*
X160904003Y-135763170D01*
X160830633Y-135678020D01*
X160830632Y-135678019D01*
X160827193Y-135674028D01*
X160822774Y-135671164D01*
X160822772Y-135671162D01*
X160812251Y-135664343D01*
X160781752Y-135623943D01*
X160778500Y-135602246D01*
X160778500Y-135008412D01*
X160795813Y-134960846D01*
X160800174Y-134956086D01*
X161245087Y-134511174D01*
X161290964Y-134489782D01*
X161297413Y-134489500D01*
X165029038Y-134489500D01*
X165043475Y-134490922D01*
X165061000Y-134494408D01*
X165158741Y-134474966D01*
X165196853Y-134449500D01*
X165241601Y-134419601D01*
X165251530Y-134404741D01*
X165260733Y-134393527D01*
X167254527Y-132399733D01*
X167265741Y-132390530D01*
X167274541Y-132384650D01*
X167280601Y-132380601D01*
X167296505Y-132356799D01*
X167331918Y-132303799D01*
X167331919Y-132303797D01*
X167335966Y-132297740D01*
X167338356Y-132285728D01*
X167350500Y-132224674D01*
X167350500Y-132224673D01*
X167353986Y-132207149D01*
X167355408Y-132200000D01*
X167351922Y-132182474D01*
X167350500Y-132168039D01*
X167350500Y-129431961D01*
X167351922Y-129417523D01*
X167355408Y-129400000D01*
X167350500Y-129375326D01*
X167342958Y-129337410D01*
X167337388Y-129309407D01*
X167337387Y-129309405D01*
X167335966Y-129302260D01*
X167326043Y-129287408D01*
X167284650Y-129225459D01*
X167280601Y-129219399D01*
X167265742Y-129209470D01*
X167254527Y-129200267D01*
X166869069Y-128814809D01*
X166847677Y-128768933D01*
X166848421Y-128750205D01*
X166849697Y-128742623D01*
X166854997Y-128711120D01*
X166855133Y-128700000D01*
X166853562Y-128689028D01*
X166837586Y-128577472D01*
X166837585Y-128577469D01*
X166836839Y-128572259D01*
X166834296Y-128566666D01*
X166785610Y-128459586D01*
X166785608Y-128459583D01*
X166783428Y-128454788D01*
X166777011Y-128447340D01*
X166702633Y-128361020D01*
X166702632Y-128361019D01*
X166699193Y-128357028D01*
X166694774Y-128354164D01*
X166694772Y-128354162D01*
X166595329Y-128289708D01*
X166595330Y-128289708D01*
X166590906Y-128286841D01*
X166585857Y-128285331D01*
X166585855Y-128285330D01*
X166472326Y-128251377D01*
X166472325Y-128251377D01*
X166467273Y-128249866D01*
X166401771Y-128249466D01*
X166343501Y-128249110D01*
X166343500Y-128249110D01*
X166338231Y-128249078D01*
X166214155Y-128284539D01*
X166105019Y-128353399D01*
X166101531Y-128357348D01*
X166101529Y-128357350D01*
X166065845Y-128397755D01*
X166019596Y-128450122D01*
X166017357Y-128454891D01*
X166017355Y-128454894D01*
X165996495Y-128499326D01*
X165964754Y-128566932D01*
X165964143Y-128570856D01*
X165934007Y-128610851D01*
X165884686Y-128622240D01*
X165841375Y-128601117D01*
X164072173Y-126831915D01*
X164050781Y-126786039D01*
X164050499Y-126779589D01*
X164050499Y-126718482D01*
X164049400Y-126711539D01*
X164044275Y-126679184D01*
X164035646Y-126624696D01*
X164002427Y-126559500D01*
X163980696Y-126516850D01*
X163980694Y-126516848D01*
X163978050Y-126511658D01*
X163888342Y-126421950D01*
X163883152Y-126419306D01*
X163883150Y-126419304D01*
X163780498Y-126367000D01*
X163780495Y-126366999D01*
X163775304Y-126364354D01*
X163769552Y-126363443D01*
X163769549Y-126363442D01*
X163684392Y-126349955D01*
X163681519Y-126349500D01*
X163620410Y-126349500D01*
X163572844Y-126332187D01*
X163568084Y-126327826D01*
X162942730Y-125702472D01*
X162933528Y-125691259D01*
X162923599Y-125676399D01*
X162868674Y-125639700D01*
X162840739Y-125621034D01*
X162742998Y-125601592D01*
X162735849Y-125603014D01*
X162735848Y-125603014D01*
X162732092Y-125603761D01*
X162682062Y-125596060D01*
X162661596Y-125579487D01*
X162657676Y-125574937D01*
X162605193Y-125514028D01*
X162600774Y-125511164D01*
X162600772Y-125511162D01*
X162590251Y-125504343D01*
X162559752Y-125463943D01*
X162556500Y-125442246D01*
X162556500Y-124745962D01*
X162557922Y-124731525D01*
X162559986Y-124721149D01*
X162561408Y-124714000D01*
X162559986Y-124706851D01*
X162543388Y-124623406D01*
X162543387Y-124623404D01*
X162541966Y-124616259D01*
X162513402Y-124573510D01*
X162486601Y-124533399D01*
X162471742Y-124523470D01*
X162460527Y-124514267D01*
X161108733Y-123162473D01*
X161099530Y-123151259D01*
X161093650Y-123142459D01*
X161089601Y-123136399D01*
X161034477Y-123099567D01*
X161006741Y-123081034D01*
X160909000Y-123061592D01*
X160901851Y-123063014D01*
X160891475Y-123065078D01*
X160877038Y-123066500D01*
X159138413Y-123066500D01*
X159090847Y-123049187D01*
X159086087Y-123044826D01*
X158568733Y-122527473D01*
X158559530Y-122516259D01*
X158553651Y-122507460D01*
X158553650Y-122507459D01*
X158549601Y-122501399D01*
X158547507Y-122500000D01*
X162394551Y-122500000D01*
X162394779Y-122502897D01*
X162410024Y-122696596D01*
X162414317Y-122751148D01*
X162414995Y-122753972D01*
X162461562Y-122947937D01*
X162473127Y-122996111D01*
X162474240Y-122998798D01*
X162567755Y-123224563D01*
X162569534Y-123228859D01*
X162571055Y-123231341D01*
X162571057Y-123231345D01*
X162653949Y-123366612D01*
X162701164Y-123443659D01*
X162703056Y-123445874D01*
X162703058Y-123445877D01*
X162830204Y-123594745D01*
X162864776Y-123635224D01*
X162866990Y-123637115D01*
X163054118Y-123796937D01*
X163056341Y-123798836D01*
X163058828Y-123800360D01*
X163268655Y-123928943D01*
X163268659Y-123928945D01*
X163271141Y-123930466D01*
X163273834Y-123931581D01*
X163273835Y-123931582D01*
X163440009Y-124000413D01*
X163503889Y-124026873D01*
X163506716Y-124027552D01*
X163506717Y-124027552D01*
X163617557Y-124054162D01*
X163748852Y-124085683D01*
X163751739Y-124085910D01*
X163751744Y-124085911D01*
X163874363Y-124095561D01*
X163937118Y-124100500D01*
X164062882Y-124100500D01*
X164125637Y-124095561D01*
X164248256Y-124085911D01*
X164248261Y-124085910D01*
X164251148Y-124085683D01*
X164382443Y-124054162D01*
X164493283Y-124027552D01*
X164493284Y-124027552D01*
X164496111Y-124026873D01*
X164559991Y-124000413D01*
X164726165Y-123931582D01*
X164726166Y-123931581D01*
X164728859Y-123930466D01*
X164731341Y-123928945D01*
X164731345Y-123928943D01*
X164941172Y-123800360D01*
X164943659Y-123798836D01*
X164945883Y-123796937D01*
X165133010Y-123637115D01*
X165135224Y-123635224D01*
X165169796Y-123594745D01*
X165296942Y-123445877D01*
X165296944Y-123445874D01*
X165298836Y-123443659D01*
X165346051Y-123366612D01*
X165428943Y-123231345D01*
X165428945Y-123231341D01*
X165430466Y-123228859D01*
X165432246Y-123224563D01*
X165525760Y-122998798D01*
X165526873Y-122996111D01*
X165538439Y-122947937D01*
X165585005Y-122753972D01*
X165585683Y-122751148D01*
X165589977Y-122696596D01*
X165605221Y-122502897D01*
X165605449Y-122500000D01*
X165585683Y-122248852D01*
X165541280Y-122063898D01*
X165527552Y-122006717D01*
X165527552Y-122006716D01*
X165526873Y-122003889D01*
X165430466Y-121771141D01*
X165368562Y-121670122D01*
X165300360Y-121558828D01*
X165298836Y-121556341D01*
X165275486Y-121529001D01*
X165137115Y-121366990D01*
X165135224Y-121364776D01*
X165133010Y-121362885D01*
X164945877Y-121203058D01*
X164945874Y-121203056D01*
X164943659Y-121201164D01*
X164911311Y-121181341D01*
X164731345Y-121071057D01*
X164731341Y-121071055D01*
X164728859Y-121069534D01*
X164583702Y-121009408D01*
X164498798Y-120974240D01*
X164496111Y-120973127D01*
X164251148Y-120914317D01*
X164248261Y-120914090D01*
X164248256Y-120914089D01*
X164120237Y-120904014D01*
X164062882Y-120899500D01*
X163937118Y-120899500D01*
X163879763Y-120904014D01*
X163751744Y-120914089D01*
X163751739Y-120914090D01*
X163748852Y-120914317D01*
X163503889Y-120973127D01*
X163501202Y-120974240D01*
X163416299Y-121009408D01*
X163271141Y-121069534D01*
X163268659Y-121071055D01*
X163268655Y-121071057D01*
X163088689Y-121181341D01*
X163056341Y-121201164D01*
X163054126Y-121203056D01*
X163054123Y-121203058D01*
X162866990Y-121362885D01*
X162864776Y-121364776D01*
X162862885Y-121366990D01*
X162724515Y-121529001D01*
X162701164Y-121556341D01*
X162699640Y-121558828D01*
X162631439Y-121670122D01*
X162569534Y-121771141D01*
X162473127Y-122003889D01*
X162472448Y-122006716D01*
X162472448Y-122006717D01*
X162458720Y-122063898D01*
X162414317Y-122248852D01*
X162394551Y-122500000D01*
X158547507Y-122500000D01*
X158496536Y-122465943D01*
X158466741Y-122446034D01*
X158369000Y-122426592D01*
X158361851Y-122428014D01*
X158351475Y-122430078D01*
X158337038Y-122431500D01*
X154340934Y-122431500D01*
X154293368Y-122414187D01*
X154268058Y-122370350D01*
X154276848Y-122320500D01*
X154302214Y-122294438D01*
X154310590Y-122289295D01*
X154341724Y-122270179D01*
X154428322Y-122174507D01*
X154484588Y-122058375D01*
X154500507Y-121963752D01*
X154525471Y-121919717D01*
X154573481Y-121902029D01*
X158636362Y-121902029D01*
X158683928Y-121919342D01*
X158693008Y-121928413D01*
X158695284Y-121931120D01*
X158745467Y-121990820D01*
X158852888Y-122062325D01*
X158857920Y-122063897D01*
X158857922Y-122063898D01*
X158884313Y-122072143D01*
X158976061Y-122100807D01*
X158981329Y-122100904D01*
X158981332Y-122100904D01*
X159035380Y-122101894D01*
X159105083Y-122103172D01*
X159110166Y-122101786D01*
X159110168Y-122101786D01*
X159204387Y-122076098D01*
X159229583Y-122069229D01*
X159339552Y-122001708D01*
X159426150Y-121906036D01*
X159482416Y-121789904D01*
X159503825Y-121662649D01*
X159503961Y-121651529D01*
X159500334Y-121626202D01*
X159486414Y-121529001D01*
X159486413Y-121528998D01*
X159485667Y-121523788D01*
X159473620Y-121497291D01*
X159434438Y-121411115D01*
X159434436Y-121411112D01*
X159432256Y-121406317D01*
X159426992Y-121400207D01*
X159351461Y-121312549D01*
X159351460Y-121312548D01*
X159348021Y-121308557D01*
X159343602Y-121305693D01*
X159343600Y-121305691D01*
X159244157Y-121241237D01*
X159244158Y-121241237D01*
X159239734Y-121238370D01*
X159234685Y-121236860D01*
X159234683Y-121236859D01*
X159121154Y-121202906D01*
X159121153Y-121202906D01*
X159116101Y-121201395D01*
X159050599Y-121200995D01*
X158992329Y-121200639D01*
X158992328Y-121200639D01*
X158987059Y-121200607D01*
X158862983Y-121236068D01*
X158753847Y-121304928D01*
X158750359Y-121308877D01*
X158750357Y-121308879D01*
X158747827Y-121311744D01*
X158699036Y-121366990D01*
X158691065Y-121376015D01*
X158646602Y-121400207D01*
X158635600Y-121401029D01*
X154351433Y-121401029D01*
X154336996Y-121399607D01*
X154326620Y-121397543D01*
X154319471Y-121396121D01*
X154221730Y-121415563D01*
X154191935Y-121435472D01*
X154159129Y-121457392D01*
X154117567Y-121469862D01*
X154039273Y-121469384D01*
X153994501Y-121469110D01*
X153994500Y-121469110D01*
X153989231Y-121469078D01*
X153865155Y-121504539D01*
X153756019Y-121573399D01*
X153752531Y-121577348D01*
X153752529Y-121577350D01*
X153727487Y-121605705D01*
X153670596Y-121670122D01*
X153668357Y-121674891D01*
X153668355Y-121674894D01*
X153624892Y-121767469D01*
X153615754Y-121786932D01*
X153595901Y-121914440D01*
X153602608Y-121965726D01*
X153603352Y-121971418D01*
X153592353Y-122020827D01*
X153552168Y-122051607D01*
X153501599Y-122049355D01*
X153462614Y-122011643D01*
X153460461Y-122006908D01*
X153460459Y-122006904D01*
X153458277Y-122002106D01*
X153451069Y-121993740D01*
X153377482Y-121908338D01*
X153377481Y-121908337D01*
X153374042Y-121904346D01*
X153369623Y-121901482D01*
X153369621Y-121901480D01*
X153270178Y-121837026D01*
X153270179Y-121837026D01*
X153265755Y-121834159D01*
X153260706Y-121832649D01*
X153260704Y-121832648D01*
X153147175Y-121798695D01*
X153147174Y-121798695D01*
X153142122Y-121797184D01*
X153013080Y-121796396D01*
X153013089Y-121794904D01*
X152969967Y-121785577D01*
X152957079Y-121775288D01*
X152185264Y-121003473D01*
X152176061Y-120992259D01*
X152170181Y-120983459D01*
X152166132Y-120977399D01*
X152098329Y-120932095D01*
X152083272Y-120922034D01*
X151985531Y-120902592D01*
X151978382Y-120904014D01*
X151968006Y-120906078D01*
X151953569Y-120907500D01*
X150907791Y-120907500D01*
X150860225Y-120890187D01*
X150851731Y-120881804D01*
X150797633Y-120819020D01*
X150797632Y-120819019D01*
X150794193Y-120815028D01*
X150789774Y-120812164D01*
X150789772Y-120812162D01*
X150690329Y-120747708D01*
X150690330Y-120747708D01*
X150685906Y-120744841D01*
X150680857Y-120743331D01*
X150680855Y-120743330D01*
X150567326Y-120709377D01*
X150567325Y-120709377D01*
X150562273Y-120707866D01*
X150496771Y-120707466D01*
X150438501Y-120707110D01*
X150438500Y-120707110D01*
X150433231Y-120707078D01*
X150309155Y-120742539D01*
X150200019Y-120811399D01*
X150196531Y-120815348D01*
X150196529Y-120815350D01*
X150160845Y-120855755D01*
X150114596Y-120908122D01*
X150112357Y-120912891D01*
X150112355Y-120912894D01*
X150069829Y-121003473D01*
X150059754Y-121024932D01*
X150039901Y-121152440D01*
X129333913Y-121152440D01*
X129327179Y-121131716D01*
X129232533Y-120967784D01*
X129200399Y-120932095D01*
X129155116Y-120881804D01*
X129105871Y-120827112D01*
X128952730Y-120715849D01*
X128902350Y-120693418D01*
X128783348Y-120640434D01*
X128783345Y-120640433D01*
X128779803Y-120638856D01*
X128776011Y-120638050D01*
X128776008Y-120638049D01*
X128598443Y-120600307D01*
X128598442Y-120600307D01*
X128594646Y-120599500D01*
X128405354Y-120599500D01*
X128401558Y-120600307D01*
X128401557Y-120600307D01*
X128223992Y-120638049D01*
X128223989Y-120638050D01*
X128220197Y-120638856D01*
X128216655Y-120640433D01*
X128216652Y-120640434D01*
X128097650Y-120693418D01*
X128047270Y-120715849D01*
X127894129Y-120827112D01*
X127844884Y-120881804D01*
X127799602Y-120932095D01*
X127767467Y-120967784D01*
X127672821Y-121131716D01*
X127614326Y-121311744D01*
X127613922Y-121315593D01*
X127613921Y-121315595D01*
X127605091Y-121399607D01*
X127594540Y-121500000D01*
X126898485Y-121500000D01*
X126856582Y-121398835D01*
X126856581Y-121398834D01*
X126855466Y-121396141D01*
X126837603Y-121366990D01*
X126725360Y-121183828D01*
X126723836Y-121181341D01*
X126699153Y-121152440D01*
X126562115Y-120991990D01*
X126560224Y-120989776D01*
X126558010Y-120987885D01*
X126370877Y-120828058D01*
X126370874Y-120828056D01*
X126368659Y-120826164D01*
X126236783Y-120745350D01*
X126156345Y-120696057D01*
X126156341Y-120696055D01*
X126153859Y-120694534D01*
X126106483Y-120674910D01*
X125923798Y-120599240D01*
X125921111Y-120598127D01*
X125676148Y-120539317D01*
X125673261Y-120539090D01*
X125673256Y-120539089D01*
X125550637Y-120529439D01*
X125487882Y-120524500D01*
X125362118Y-120524500D01*
X125299363Y-120529439D01*
X125176744Y-120539089D01*
X125176739Y-120539090D01*
X125173852Y-120539317D01*
X124928889Y-120598127D01*
X124926202Y-120599240D01*
X124743518Y-120674910D01*
X124696141Y-120694534D01*
X124693659Y-120696055D01*
X124693655Y-120696057D01*
X124613217Y-120745350D01*
X124481341Y-120826164D01*
X124479126Y-120828056D01*
X124479123Y-120828058D01*
X124291990Y-120987885D01*
X124289776Y-120989776D01*
X124287885Y-120991990D01*
X124150848Y-121152440D01*
X124126164Y-121181341D01*
X124124640Y-121183828D01*
X124012398Y-121366990D01*
X123994534Y-121396141D01*
X123993419Y-121398834D01*
X123993418Y-121398835D01*
X123921112Y-121573399D01*
X123898127Y-121628889D01*
X123839317Y-121873852D01*
X123839090Y-121876739D01*
X123839089Y-121876744D01*
X123824484Y-122062325D01*
X123819551Y-122125000D01*
X121985363Y-122125000D01*
X121892768Y-122074934D01*
X121889585Y-122073213D01*
X121886135Y-122072145D01*
X121886130Y-122072143D01*
X121766445Y-122035095D01*
X121702152Y-122015193D01*
X121507019Y-121994683D01*
X121311618Y-122012466D01*
X121302353Y-122015193D01*
X121126864Y-122066842D01*
X121126860Y-122066844D01*
X121123393Y-122067864D01*
X121056041Y-122103075D01*
X120952719Y-122157090D01*
X120952716Y-122157092D01*
X120949512Y-122158767D01*
X120946694Y-122161033D01*
X120946692Y-122161034D01*
X120799419Y-122279444D01*
X120799416Y-122279447D01*
X120796600Y-122281711D01*
X120670480Y-122432016D01*
X120668738Y-122435184D01*
X120668737Y-122435186D01*
X120651828Y-122465943D01*
X120575956Y-122603954D01*
X120574864Y-122607397D01*
X120574863Y-122607399D01*
X120528210Y-122754468D01*
X120516628Y-122790978D01*
X120516225Y-122794574D01*
X120516224Y-122794577D01*
X120512799Y-122825114D01*
X120494757Y-122985963D01*
X120150500Y-122985963D01*
X120150500Y-121029557D01*
X120153021Y-121010404D01*
X120153288Y-121009408D01*
X120155809Y-121000000D01*
X120153288Y-120990591D01*
X120153288Y-120980848D01*
X120153962Y-120980848D01*
X120153247Y-120972112D01*
X120166109Y-120841525D01*
X120168939Y-120827297D01*
X120213049Y-120681884D01*
X120218601Y-120668481D01*
X120290232Y-120534470D01*
X120298291Y-120522409D01*
X120394689Y-120404947D01*
X120404947Y-120394689D01*
X120522409Y-120298291D01*
X120534470Y-120290232D01*
X120668481Y-120218601D01*
X120681884Y-120213049D01*
X120827297Y-120168939D01*
X120841525Y-120166109D01*
X120972112Y-120153247D01*
X120980848Y-120153962D01*
X120980848Y-120153288D01*
X120990591Y-120153288D01*
X121000000Y-120155809D01*
X121010406Y-120153021D01*
X121029557Y-120150500D01*
X168970443Y-120150500D01*
X168989594Y-120153021D01*
G37*
%TD.AperFunction*%
%TD*%
M02*
