M48
; DRILL file {KiCad (6.0.7)} date Tue Aug 30 17:51:19 2022
; FORMAT={2:4/ absolute / inch / suppress leading zeros}
; #@! TF.CreationDate,2022-08-30T17:51:19+02:00
; #@! TF.GenerationSoftware,Kicad,Pcbnew,(6.0.7)
; #@! TF.FileFunction,Plated,1,2,PTH
FMAT,2
INCH,TZ
; #@! TA.AperFunction,Plated,PTH,ViaDrill
T1C0.0118
; #@! TA.AperFunction,Plated,PTH,ComponentDrill
T2C0.0400
%
G90
G05
T1
X58662Y-37206
X58662Y-39175
X58662Y-41143
X60630Y-41143
X60827Y-37206
X61713Y-35828
X62205Y-40159
X62648Y-36173
X63780Y-36616
X63780Y-36911
X64075Y-39667
X64371Y-36616
X64567Y-39175
X64863Y-37108
X65453Y-39470
X66634Y-39371
X66930Y-38092
X67077Y-36665
X67372Y-36960
X67422Y-39667
X69193Y-37157
X69193Y-37501
X69193Y-37846
X69193Y-39371
X69292Y-40651
X70178Y-39568
X70227Y-41143
X71162Y-40651
X71762Y-40482
X72048Y-35238
X74016Y-35238
X74016Y-36812
X74016Y-39568
X74016Y-41143
T2
X62748Y-40798
X63748Y-40898
X64748Y-40798
X65748Y-40898
T0
M30
