%TF.GenerationSoftware,KiCad,Pcbnew,(6.0.7)*%
%TF.CreationDate,2022-08-30T17:51:16+02:00*%
%TF.ProjectId,blackmagic_richardeoin,626c6163-6b6d-4616-9769-635f72696368,rev?*%
%TF.SameCoordinates,Original*%
%TF.FileFunction,Copper,L2,Bot*%
%TF.FilePolarity,Positive*%
%FSLAX46Y46*%
G04 Gerber Fmt 4.6, Leading zero omitted, Abs format (unit mm)*
G04 Created by KiCad (PCBNEW (6.0.7)) date 2022-08-30 17:51:16*
%MOMM*%
%LPD*%
G01*
G04 APERTURE LIST*
%ADD10C,0.150000*%
%TA.AperFunction,NonConductor*%
%ADD11C,0.150000*%
%TD*%
%TA.AperFunction,ComponentPad*%
%ADD12R,1.879600X1.879600*%
%TD*%
%TA.AperFunction,ComponentPad*%
%ADD13C,1.879600*%
%TD*%
%TA.AperFunction,ViaPad*%
%ADD14C,0.600000*%
%TD*%
%TA.AperFunction,Conductor*%
%ADD15C,0.150000*%
%TD*%
%TA.AperFunction,Conductor*%
%ADD16C,0.400000*%
%TD*%
G04 APERTURE END LIST*
D10*
D11*
X165321547Y-101509523D02*
X164835833Y-101509523D01*
X165078690Y-102359523D02*
X165078690Y-101509523D01*
X164633452Y-102359523D02*
X164188214Y-101792857D01*
X164633452Y-101792857D02*
X164188214Y-102359523D01*
X163257261Y-101469047D02*
X163985833Y-102561904D01*
X162488214Y-102359523D02*
X162771547Y-101954761D01*
X162973928Y-102359523D02*
X162973928Y-101509523D01*
X162650119Y-101509523D01*
X162569166Y-101550000D01*
X162528690Y-101590476D01*
X162488214Y-101671428D01*
X162488214Y-101792857D01*
X162528690Y-101873809D01*
X162569166Y-101914285D01*
X162650119Y-101954761D01*
X162973928Y-101954761D01*
X162204880Y-102359523D02*
X161759642Y-101792857D01*
X162204880Y-101792857D02*
X161759642Y-102359523D01*
D10*
D11*
X151041576Y-100448719D02*
X150353480Y-100448719D01*
X150272528Y-100408242D01*
X150232052Y-100367766D01*
X150191576Y-100286814D01*
X150191576Y-100124909D01*
X150232052Y-100043957D01*
X150272528Y-100003480D01*
X150353480Y-99963004D01*
X151041576Y-99963004D01*
X150232052Y-99598719D02*
X150191576Y-99477290D01*
X150191576Y-99274909D01*
X150232052Y-99193957D01*
X150272528Y-99153480D01*
X150353480Y-99113004D01*
X150434433Y-99113004D01*
X150515385Y-99153480D01*
X150555861Y-99193957D01*
X150596338Y-99274909D01*
X150636814Y-99436814D01*
X150677290Y-99517766D01*
X150717766Y-99558242D01*
X150798719Y-99598719D01*
X150879671Y-99598719D01*
X150960623Y-99558242D01*
X151001100Y-99517766D01*
X151041576Y-99436814D01*
X151041576Y-99234433D01*
X151001100Y-99113004D01*
X150636814Y-98465385D02*
X150596338Y-98343957D01*
X150555861Y-98303480D01*
X150474909Y-98263004D01*
X150353480Y-98263004D01*
X150272528Y-98303480D01*
X150232052Y-98343957D01*
X150191576Y-98424909D01*
X150191576Y-98748719D01*
X151041576Y-98748719D01*
X151041576Y-98465385D01*
X151001100Y-98384433D01*
X150960623Y-98343957D01*
X150879671Y-98303480D01*
X150798719Y-98303480D01*
X150717766Y-98343957D01*
X150677290Y-98384433D01*
X150636814Y-98465385D01*
X150636814Y-98748719D01*
D10*
D11*
X180917885Y-90017885D02*
X180796457Y-90058361D01*
X180755980Y-90098838D01*
X180715504Y-90179790D01*
X180715504Y-90301219D01*
X180755980Y-90382171D01*
X180796457Y-90422647D01*
X180877409Y-90463123D01*
X181201219Y-90463123D01*
X181201219Y-89613123D01*
X180917885Y-89613123D01*
X180836933Y-89653600D01*
X180796457Y-89694076D01*
X180755980Y-89775028D01*
X180755980Y-89855980D01*
X180796457Y-89936933D01*
X180836933Y-89977409D01*
X180917885Y-90017885D01*
X181201219Y-90017885D01*
X180229790Y-90463123D02*
X180310742Y-90422647D01*
X180351219Y-90341695D01*
X180351219Y-89613123D01*
X179541695Y-90463123D02*
X179541695Y-90017885D01*
X179582171Y-89936933D01*
X179663123Y-89896457D01*
X179825028Y-89896457D01*
X179905980Y-89936933D01*
X179541695Y-90422647D02*
X179622647Y-90463123D01*
X179825028Y-90463123D01*
X179905980Y-90422647D01*
X179946457Y-90341695D01*
X179946457Y-90260742D01*
X179905980Y-90179790D01*
X179825028Y-90139314D01*
X179622647Y-90139314D01*
X179541695Y-90098838D01*
X178772647Y-90422647D02*
X178853600Y-90463123D01*
X179015504Y-90463123D01*
X179096457Y-90422647D01*
X179136933Y-90382171D01*
X179177409Y-90301219D01*
X179177409Y-90058361D01*
X179136933Y-89977409D01*
X179096457Y-89936933D01*
X179015504Y-89896457D01*
X178853600Y-89896457D01*
X178772647Y-89936933D01*
X178408361Y-90463123D02*
X178408361Y-89613123D01*
X178327409Y-90139314D02*
X178084552Y-90463123D01*
X178084552Y-89896457D02*
X178408361Y-90220266D01*
X177720266Y-90463123D02*
X177720266Y-89896457D01*
X177720266Y-89977409D02*
X177679790Y-89936933D01*
X177598838Y-89896457D01*
X177477409Y-89896457D01*
X177396457Y-89936933D01*
X177355980Y-90017885D01*
X177355980Y-90463123D01*
X177355980Y-90017885D02*
X177315504Y-89936933D01*
X177234552Y-89896457D01*
X177113123Y-89896457D01*
X177032171Y-89936933D01*
X176991695Y-90017885D01*
X176991695Y-90463123D01*
X176222647Y-90463123D02*
X176222647Y-90017885D01*
X176263123Y-89936933D01*
X176344076Y-89896457D01*
X176505980Y-89896457D01*
X176586933Y-89936933D01*
X176222647Y-90422647D02*
X176303600Y-90463123D01*
X176505980Y-90463123D01*
X176586933Y-90422647D01*
X176627409Y-90341695D01*
X176627409Y-90260742D01*
X176586933Y-90179790D01*
X176505980Y-90139314D01*
X176303600Y-90139314D01*
X176222647Y-90098838D01*
X175453600Y-89896457D02*
X175453600Y-90584552D01*
X175494076Y-90665504D01*
X175534552Y-90705980D01*
X175615504Y-90746457D01*
X175736933Y-90746457D01*
X175817885Y-90705980D01*
X175453600Y-90422647D02*
X175534552Y-90463123D01*
X175696457Y-90463123D01*
X175777409Y-90422647D01*
X175817885Y-90382171D01*
X175858361Y-90301219D01*
X175858361Y-90058361D01*
X175817885Y-89977409D01*
X175777409Y-89936933D01*
X175696457Y-89896457D01*
X175534552Y-89896457D01*
X175453600Y-89936933D01*
X175048838Y-90463123D02*
X175048838Y-89896457D01*
X175048838Y-89613123D02*
X175089314Y-89653600D01*
X175048838Y-89694076D01*
X175008361Y-89653600D01*
X175048838Y-89613123D01*
X175048838Y-89694076D01*
X174279790Y-90422647D02*
X174360742Y-90463123D01*
X174522647Y-90463123D01*
X174603600Y-90422647D01*
X174644076Y-90382171D01*
X174684552Y-90301219D01*
X174684552Y-90058361D01*
X174644076Y-89977409D01*
X174603600Y-89936933D01*
X174522647Y-89896457D01*
X174360742Y-89896457D01*
X174279790Y-89936933D01*
X173267885Y-90463123D02*
X173267885Y-89613123D01*
X173065504Y-89613123D01*
X172944076Y-89653600D01*
X172863123Y-89734552D01*
X172822647Y-89815504D01*
X172782171Y-89977409D01*
X172782171Y-90098838D01*
X172822647Y-90260742D01*
X172863123Y-90341695D01*
X172944076Y-90422647D01*
X173065504Y-90463123D01*
X173267885Y-90463123D01*
X172094076Y-90422647D02*
X172175028Y-90463123D01*
X172336933Y-90463123D01*
X172417885Y-90422647D01*
X172458361Y-90341695D01*
X172458361Y-90017885D01*
X172417885Y-89936933D01*
X172336933Y-89896457D01*
X172175028Y-89896457D01*
X172094076Y-89936933D01*
X172053600Y-90017885D01*
X172053600Y-90098838D01*
X172458361Y-90179790D01*
X171689314Y-90463123D02*
X171689314Y-89613123D01*
X171689314Y-89936933D02*
X171608361Y-89896457D01*
X171446457Y-89896457D01*
X171365504Y-89936933D01*
X171325028Y-89977409D01*
X171284552Y-90058361D01*
X171284552Y-90301219D01*
X171325028Y-90382171D01*
X171365504Y-90422647D01*
X171446457Y-90463123D01*
X171608361Y-90463123D01*
X171689314Y-90422647D01*
X170555980Y-89896457D02*
X170555980Y-90463123D01*
X170920266Y-89896457D02*
X170920266Y-90341695D01*
X170879790Y-90422647D01*
X170798838Y-90463123D01*
X170677409Y-90463123D01*
X170596457Y-90422647D01*
X170555980Y-90382171D01*
X169786933Y-89896457D02*
X169786933Y-90584552D01*
X169827409Y-90665504D01*
X169867885Y-90705980D01*
X169948838Y-90746457D01*
X170070266Y-90746457D01*
X170151219Y-90705980D01*
X169786933Y-90422647D02*
X169867885Y-90463123D01*
X170029790Y-90463123D01*
X170110742Y-90422647D01*
X170151219Y-90382171D01*
X170191695Y-90301219D01*
X170191695Y-90058361D01*
X170151219Y-89977409D01*
X170110742Y-89936933D01*
X170029790Y-89896457D01*
X169867885Y-89896457D01*
X169786933Y-89936933D01*
X168734552Y-90463123D02*
X168734552Y-89613123D01*
X168410742Y-89613123D01*
X168329790Y-89653600D01*
X168289314Y-89694076D01*
X168248838Y-89775028D01*
X168248838Y-89896457D01*
X168289314Y-89977409D01*
X168329790Y-90017885D01*
X168410742Y-90058361D01*
X168734552Y-90058361D01*
X167884552Y-90463123D02*
X167884552Y-89896457D01*
X167884552Y-90058361D02*
X167844076Y-89977409D01*
X167803600Y-89936933D01*
X167722647Y-89896457D01*
X167641695Y-89896457D01*
X167236933Y-90463123D02*
X167317885Y-90422647D01*
X167358361Y-90382171D01*
X167398838Y-90301219D01*
X167398838Y-90058361D01*
X167358361Y-89977409D01*
X167317885Y-89936933D01*
X167236933Y-89896457D01*
X167115504Y-89896457D01*
X167034552Y-89936933D01*
X166994076Y-89977409D01*
X166953600Y-90058361D01*
X166953600Y-90301219D01*
X166994076Y-90382171D01*
X167034552Y-90422647D01*
X167115504Y-90463123D01*
X167236933Y-90463123D01*
X166589314Y-90463123D02*
X166589314Y-89613123D01*
X166589314Y-89936933D02*
X166508361Y-89896457D01*
X166346457Y-89896457D01*
X166265504Y-89936933D01*
X166225028Y-89977409D01*
X166184552Y-90058361D01*
X166184552Y-90301219D01*
X166225028Y-90382171D01*
X166265504Y-90422647D01*
X166346457Y-90463123D01*
X166508361Y-90463123D01*
X166589314Y-90422647D01*
X165496457Y-90422647D02*
X165577409Y-90463123D01*
X165739314Y-90463123D01*
X165820266Y-90422647D01*
X165860742Y-90341695D01*
X165860742Y-90017885D01*
X165820266Y-89936933D01*
X165739314Y-89896457D01*
X165577409Y-89896457D01*
X165496457Y-89936933D01*
X165455980Y-90017885D01*
X165455980Y-90098838D01*
X165860742Y-90179790D01*
D10*
D11*
X186717766Y-90263004D02*
X186717766Y-90667766D01*
X186960623Y-90182052D02*
X186110623Y-90465385D01*
X186960623Y-90748719D01*
X186960623Y-91517766D02*
X186555861Y-91234433D01*
X186960623Y-91032052D02*
X186110623Y-91032052D01*
X186110623Y-91355861D01*
X186151100Y-91436814D01*
X186191576Y-91477290D01*
X186272528Y-91517766D01*
X186393957Y-91517766D01*
X186474909Y-91477290D01*
X186515385Y-91436814D01*
X186555861Y-91355861D01*
X186555861Y-91032052D01*
X186960623Y-91882052D02*
X186110623Y-91882052D01*
X186717766Y-92165385D01*
X186110623Y-92448719D01*
X186960623Y-92448719D01*
X186879671Y-93986814D02*
X186920147Y-93946338D01*
X186960623Y-93824909D01*
X186960623Y-93743957D01*
X186920147Y-93622528D01*
X186839195Y-93541576D01*
X186758242Y-93501100D01*
X186596338Y-93460623D01*
X186474909Y-93460623D01*
X186313004Y-93501100D01*
X186232052Y-93541576D01*
X186151100Y-93622528D01*
X186110623Y-93743957D01*
X186110623Y-93824909D01*
X186151100Y-93946338D01*
X186191576Y-93986814D01*
X186960623Y-94472528D02*
X186920147Y-94391576D01*
X186879671Y-94351100D01*
X186798719Y-94310623D01*
X186555861Y-94310623D01*
X186474909Y-94351100D01*
X186434433Y-94391576D01*
X186393957Y-94472528D01*
X186393957Y-94593957D01*
X186434433Y-94674909D01*
X186474909Y-94715385D01*
X186555861Y-94755861D01*
X186798719Y-94755861D01*
X186879671Y-94715385D01*
X186920147Y-94674909D01*
X186960623Y-94593957D01*
X186960623Y-94472528D01*
X186960623Y-95120147D02*
X186393957Y-95120147D01*
X186555861Y-95120147D02*
X186474909Y-95160623D01*
X186434433Y-95201100D01*
X186393957Y-95282052D01*
X186393957Y-95363004D01*
X186393957Y-95524909D02*
X186393957Y-95848719D01*
X186110623Y-95646338D02*
X186839195Y-95646338D01*
X186920147Y-95686814D01*
X186960623Y-95767766D01*
X186960623Y-95848719D01*
X186920147Y-96455861D02*
X186960623Y-96374909D01*
X186960623Y-96213004D01*
X186920147Y-96132052D01*
X186839195Y-96091576D01*
X186515385Y-96091576D01*
X186434433Y-96132052D01*
X186393957Y-96213004D01*
X186393957Y-96374909D01*
X186434433Y-96455861D01*
X186515385Y-96496338D01*
X186596338Y-96496338D01*
X186677290Y-96091576D01*
X186960623Y-96779671D02*
X186393957Y-97224909D01*
X186393957Y-96779671D02*
X186960623Y-97224909D01*
X186960623Y-98196338D02*
X186110623Y-98196338D01*
X186110623Y-98398719D01*
X186151100Y-98520147D01*
X186232052Y-98601100D01*
X186313004Y-98641576D01*
X186474909Y-98682052D01*
X186596338Y-98682052D01*
X186758242Y-98641576D01*
X186839195Y-98601100D01*
X186920147Y-98520147D01*
X186960623Y-98398719D01*
X186960623Y-98196338D01*
X186920147Y-99370147D02*
X186960623Y-99289195D01*
X186960623Y-99127290D01*
X186920147Y-99046338D01*
X186839195Y-99005861D01*
X186515385Y-99005861D01*
X186434433Y-99046338D01*
X186393957Y-99127290D01*
X186393957Y-99289195D01*
X186434433Y-99370147D01*
X186515385Y-99410623D01*
X186596338Y-99410623D01*
X186677290Y-99005861D01*
X186960623Y-99774909D02*
X186110623Y-99774909D01*
X186434433Y-99774909D02*
X186393957Y-99855861D01*
X186393957Y-100017766D01*
X186434433Y-100098719D01*
X186474909Y-100139195D01*
X186555861Y-100179671D01*
X186798719Y-100179671D01*
X186879671Y-100139195D01*
X186920147Y-100098719D01*
X186960623Y-100017766D01*
X186960623Y-99855861D01*
X186920147Y-99774909D01*
X186393957Y-100908242D02*
X186960623Y-100908242D01*
X186393957Y-100543957D02*
X186839195Y-100543957D01*
X186920147Y-100584433D01*
X186960623Y-100665385D01*
X186960623Y-100786814D01*
X186920147Y-100867766D01*
X186879671Y-100908242D01*
X186393957Y-101677290D02*
X187082052Y-101677290D01*
X187163004Y-101636814D01*
X187203480Y-101596338D01*
X187243957Y-101515385D01*
X187243957Y-101393957D01*
X187203480Y-101313004D01*
X186920147Y-101677290D02*
X186960623Y-101596338D01*
X186960623Y-101434433D01*
X186920147Y-101353480D01*
X186879671Y-101313004D01*
X186798719Y-101272528D01*
X186555861Y-101272528D01*
X186474909Y-101313004D01*
X186434433Y-101353480D01*
X186393957Y-101434433D01*
X186393957Y-101596338D01*
X186434433Y-101677290D01*
D12*
%TO.P,JP1,1*%
%TO.N,3.3V*%
X167001100Y-103880600D03*
D13*
%TO.P,JP1,2*%
%TO.N,TXD*%
X164461100Y-103626600D03*
%TO.P,JP1,3*%
%TO.N,RXD*%
X161921100Y-103880600D03*
%TO.P,JP1,4*%
%TO.N,GND*%
X159381100Y-103626600D03*
%TD*%
D14*
%TO.N,GND*%
X182275000Y-102825000D03*
X154001100Y-104503600D03*
X183001100Y-89503600D03*
X164751100Y-94253600D03*
X149001100Y-94503600D03*
X158001100Y-102003600D03*
%TO.N,LPC_XTAL2*%
X180751100Y-103253600D03*
%TO.N,GND*%
X156751100Y-91003600D03*
X164001100Y-99503600D03*
X188001100Y-89503600D03*
X169251100Y-100003600D03*
X159126100Y-91878600D03*
X178376100Y-104503600D03*
X188001100Y-93503600D03*
X162001100Y-93753600D03*
X175751100Y-94378600D03*
X149001100Y-104503600D03*
X176001100Y-103253600D03*
X149001100Y-99503600D03*
X170001100Y-96753600D03*
X188001100Y-100503600D03*
X188001100Y-104503600D03*
X175751100Y-100003600D03*
%TO.N,RST*%
X175751100Y-95253600D03*
X171126100Y-93878600D03*
%TO.N,TDI*%
X170376100Y-93128600D03*
X175751100Y-96128600D03*
%TO.N,3.3V*%
X162001100Y-93003600D03*
X178251100Y-100503600D03*
X162751100Y-100753600D03*
X166251100Y-100253600D03*
X171251100Y-100753600D03*
X154501100Y-94503600D03*
X163501100Y-93003600D03*
%TD*%
D15*
%TO.N,RST*%
X172001100Y-95753600D02*
X175251100Y-95753600D01*
X171126100Y-94878600D02*
X172001100Y-95753600D01*
X175251100Y-95753600D02*
X175751100Y-95253600D01*
X171126100Y-94878600D02*
X171126100Y-93878600D01*
%TO.N,TDI*%
X170501100Y-94753600D02*
X171876100Y-96128600D01*
X170501100Y-93253600D02*
X170501100Y-94753600D01*
X170376100Y-93128600D02*
X170501100Y-93253600D01*
X171876100Y-96128600D02*
X175751100Y-96128600D01*
D16*
%TO.N,3.3V*%
X178001100Y-100753600D02*
X178251100Y-100503600D01*
X166251100Y-100753600D02*
X166251100Y-100253600D01*
X162751100Y-100753600D02*
X162751100Y-93003600D01*
X154501100Y-94003600D02*
X154501100Y-94503600D01*
X162751100Y-100753600D02*
X166251100Y-100753600D01*
X166251100Y-100753600D02*
X171251100Y-100753600D01*
X163501100Y-93003600D02*
X162751100Y-93003600D01*
X178001100Y-100753600D02*
X171251100Y-100753600D01*
X155501100Y-93003600D02*
X154501100Y-94003600D01*
X162001100Y-93003600D02*
X155501100Y-93003600D01*
X162751100Y-93003600D02*
X162001100Y-93003600D01*
%TD*%
%TA.AperFunction,Conductor*%
%TO.N,GND*%
G36*
X165026490Y-89115086D02*
G01*
X165041076Y-89150300D01*
X165041076Y-90816600D01*
X181701600Y-90816600D01*
X181701600Y-89150300D01*
X181716186Y-89115086D01*
X181751400Y-89100500D01*
X188349700Y-89100500D01*
X188384914Y-89115086D01*
X188399500Y-89150300D01*
X188399500Y-104849700D01*
X188384914Y-104884914D01*
X188349700Y-104899500D01*
X168190259Y-104899500D01*
X168155045Y-104884914D01*
X168140459Y-104849700D01*
X168140699Y-104844818D01*
X168140923Y-104842548D01*
X168141400Y-104840148D01*
X168141400Y-103831810D01*
X169700149Y-103831810D01*
X169738316Y-103990790D01*
X169739692Y-103993455D01*
X169739693Y-103993459D01*
X169789634Y-104090217D01*
X169813304Y-104136076D01*
X169920783Y-104259281D01*
X169923235Y-104261004D01*
X169923238Y-104261007D01*
X169943490Y-104275240D01*
X170054548Y-104353293D01*
X170057341Y-104354382D01*
X170057343Y-104354383D01*
X170104268Y-104372678D01*
X170206876Y-104412683D01*
X170209850Y-104413075D01*
X170209852Y-104413075D01*
X170311526Y-104426461D01*
X170331573Y-104429100D01*
X170417096Y-104429100D01*
X170418588Y-104428919D01*
X170418595Y-104428919D01*
X170493270Y-104419882D01*
X170538413Y-104414419D01*
X170541221Y-104413358D01*
X170541225Y-104413357D01*
X170688548Y-104357688D01*
X170688550Y-104357687D01*
X170691355Y-104356627D01*
X170694621Y-104354383D01*
X170763599Y-104306975D01*
X170826097Y-104264021D01*
X170828092Y-104261782D01*
X170932865Y-104144188D01*
X170932868Y-104144184D01*
X170934860Y-104141948D01*
X170936771Y-104138340D01*
X171004222Y-104010945D01*
X171011365Y-103997455D01*
X171051195Y-103838884D01*
X171051333Y-103812643D01*
X171051880Y-103708022D01*
X171052051Y-103675390D01*
X171013884Y-103516410D01*
X171012508Y-103513745D01*
X171012507Y-103513741D01*
X170946606Y-103386061D01*
X170938896Y-103371124D01*
X170831417Y-103247919D01*
X170830711Y-103247423D01*
X180245491Y-103247423D01*
X180264080Y-103389579D01*
X180271333Y-103406062D01*
X180318713Y-103513741D01*
X180321820Y-103520803D01*
X180324104Y-103523520D01*
X180387471Y-103598904D01*
X180414070Y-103630548D01*
X180533413Y-103709990D01*
X180536801Y-103711048D01*
X180536802Y-103711049D01*
X180560953Y-103718594D01*
X180670257Y-103752742D01*
X180673802Y-103752807D01*
X180810051Y-103755305D01*
X180813599Y-103755370D01*
X180951917Y-103717660D01*
X181074091Y-103642645D01*
X181170300Y-103536354D01*
X181232810Y-103407333D01*
X181256596Y-103265954D01*
X181256747Y-103253600D01*
X181255934Y-103247919D01*
X181236926Y-103115194D01*
X181236423Y-103111682D01*
X181186958Y-103002888D01*
X181178552Y-102984400D01*
X181178551Y-102984398D01*
X181177084Y-102981172D01*
X181174773Y-102978490D01*
X181174771Y-102978487D01*
X181091529Y-102881881D01*
X181083500Y-102872563D01*
X181080525Y-102870635D01*
X181080522Y-102870632D01*
X180972052Y-102800326D01*
X180963195Y-102794585D01*
X180825839Y-102753507D01*
X180822292Y-102753485D01*
X180822290Y-102753485D01*
X180756705Y-102753085D01*
X180682476Y-102752631D01*
X180544629Y-102792028D01*
X180423380Y-102868530D01*
X180421031Y-102871190D01*
X180331760Y-102972271D01*
X180328477Y-102975988D01*
X180302980Y-103030294D01*
X180269055Y-103102550D01*
X180269054Y-103102553D01*
X180267547Y-103105763D01*
X180245491Y-103247423D01*
X170830711Y-103247423D01*
X170828965Y-103246196D01*
X170828962Y-103246193D01*
X170720958Y-103170287D01*
X170697652Y-103153907D01*
X170694859Y-103152818D01*
X170694857Y-103152817D01*
X170642262Y-103132311D01*
X170545324Y-103094517D01*
X170542350Y-103094125D01*
X170542348Y-103094125D01*
X170422237Y-103078312D01*
X170422238Y-103078312D01*
X170420627Y-103078100D01*
X170335104Y-103078100D01*
X170333612Y-103078281D01*
X170333605Y-103078281D01*
X170258930Y-103087318D01*
X170213787Y-103092781D01*
X170210979Y-103093842D01*
X170210975Y-103093843D01*
X170063652Y-103149512D01*
X170063650Y-103149513D01*
X170060845Y-103150573D01*
X170058373Y-103152272D01*
X170058371Y-103152273D01*
X170055994Y-103153907D01*
X169926103Y-103243179D01*
X169924109Y-103245417D01*
X169924108Y-103245418D01*
X169819335Y-103363012D01*
X169819332Y-103363016D01*
X169817340Y-103365252D01*
X169815939Y-103367898D01*
X169815937Y-103367901D01*
X169788256Y-103420182D01*
X169740835Y-103509745D01*
X169701005Y-103668316D01*
X169700989Y-103671320D01*
X169700989Y-103671322D01*
X169700797Y-103708022D01*
X169700149Y-103831810D01*
X168141400Y-103831810D01*
X168141400Y-102921052D01*
X168140923Y-102918653D01*
X168130724Y-102867379D01*
X168130724Y-102867378D01*
X168129767Y-102862569D01*
X168085452Y-102796248D01*
X168079137Y-102792028D01*
X168023209Y-102754658D01*
X168019131Y-102751933D01*
X168014322Y-102750976D01*
X168014321Y-102750976D01*
X167963047Y-102740777D01*
X167963045Y-102740777D01*
X167960648Y-102740300D01*
X166041552Y-102740300D01*
X166039155Y-102740777D01*
X166039153Y-102740777D01*
X165987879Y-102750976D01*
X165987878Y-102750976D01*
X165983069Y-102751933D01*
X165978991Y-102754658D01*
X165923064Y-102792028D01*
X165916748Y-102796248D01*
X165872433Y-102862569D01*
X165871476Y-102867378D01*
X165871476Y-102867379D01*
X165861277Y-102918653D01*
X165860800Y-102921052D01*
X165860800Y-104840148D01*
X165861277Y-104842548D01*
X165861501Y-104844818D01*
X165850438Y-104881292D01*
X165816823Y-104899260D01*
X165811941Y-104899500D01*
X162617173Y-104899500D01*
X162581959Y-104884914D01*
X162567373Y-104849700D01*
X162581959Y-104814486D01*
X162585329Y-104811412D01*
X162729109Y-104691831D01*
X162730868Y-104690368D01*
X162746429Y-104671658D01*
X162863416Y-104530997D01*
X162863417Y-104530995D01*
X162864877Y-104529240D01*
X162871970Y-104516576D01*
X162966158Y-104348391D01*
X162966159Y-104348389D01*
X162967279Y-104346389D01*
X163034643Y-104147938D01*
X163064716Y-103940534D01*
X163066285Y-103880600D01*
X163047109Y-103671907D01*
X163046097Y-103668316D01*
X162990842Y-103472399D01*
X162990841Y-103472395D01*
X162990222Y-103470202D01*
X162897531Y-103282242D01*
X162772138Y-103114322D01*
X162770466Y-103112776D01*
X162770462Y-103112772D01*
X162619920Y-102973613D01*
X162619918Y-102973612D01*
X162618244Y-102972064D01*
X162441003Y-102860233D01*
X162438880Y-102859386D01*
X162312725Y-102809055D01*
X162285423Y-102782458D01*
X162284924Y-102744346D01*
X162311521Y-102717044D01*
X162331179Y-102713000D01*
X163640982Y-102713000D01*
X163676196Y-102727586D01*
X163690782Y-102762800D01*
X163673817Y-102800242D01*
X163630412Y-102838307D01*
X163629001Y-102840097D01*
X163628998Y-102840100D01*
X163525927Y-102970846D01*
X163500667Y-103002888D01*
X163499605Y-103004906D01*
X163499604Y-103004908D01*
X163414809Y-103166078D01*
X163403087Y-103188357D01*
X163340940Y-103388503D01*
X163340672Y-103390767D01*
X163340671Y-103390772D01*
X163316739Y-103592970D01*
X163316307Y-103596623D01*
X163316456Y-103598898D01*
X163316456Y-103598904D01*
X163324240Y-103717660D01*
X163330014Y-103805746D01*
X163381601Y-104008871D01*
X163382557Y-104010944D01*
X163382557Y-104010945D01*
X163404006Y-104057470D01*
X163469341Y-104199192D01*
X163590294Y-104370338D01*
X163591928Y-104371929D01*
X163591929Y-104371931D01*
X163738774Y-104514981D01*
X163738778Y-104514984D01*
X163740412Y-104516576D01*
X163742312Y-104517845D01*
X163742315Y-104517848D01*
X163912767Y-104631740D01*
X163914665Y-104633008D01*
X164044079Y-104688609D01*
X164105118Y-104714834D01*
X164105120Y-104714835D01*
X164107218Y-104715736D01*
X164109444Y-104716240D01*
X164109448Y-104716241D01*
X164309394Y-104761484D01*
X164309398Y-104761485D01*
X164311623Y-104761988D01*
X164313900Y-104762077D01*
X164313904Y-104762078D01*
X164411254Y-104765903D01*
X164521034Y-104770216D01*
X164523288Y-104769889D01*
X164523292Y-104769889D01*
X164726183Y-104740470D01*
X164728438Y-104740143D01*
X164926889Y-104672779D01*
X165010542Y-104625931D01*
X165107746Y-104571494D01*
X165107748Y-104571492D01*
X165109740Y-104570377D01*
X165120509Y-104561421D01*
X165269109Y-104437831D01*
X165270868Y-104436368D01*
X165338602Y-104354927D01*
X165403416Y-104276997D01*
X165403417Y-104276995D01*
X165404877Y-104275240D01*
X165410209Y-104265720D01*
X165506158Y-104094391D01*
X165506159Y-104094389D01*
X165507279Y-104092389D01*
X165574643Y-103893938D01*
X165604716Y-103686534D01*
X165606285Y-103626600D01*
X165587109Y-103417907D01*
X165585031Y-103410537D01*
X165530842Y-103218399D01*
X165530841Y-103218395D01*
X165530222Y-103216202D01*
X165437531Y-103028242D01*
X165312138Y-102860322D01*
X165246199Y-102799368D01*
X165230241Y-102764755D01*
X165243434Y-102728996D01*
X165280003Y-102713000D01*
X165700500Y-102713000D01*
X165700500Y-102132671D01*
X185319600Y-102132671D01*
X187314100Y-102132671D01*
X187314100Y-89803100D01*
X185319600Y-89803100D01*
X185319600Y-102132671D01*
X165700500Y-102132671D01*
X165700500Y-101203900D01*
X165715086Y-101168686D01*
X165750300Y-101154100D01*
X166215661Y-101154100D01*
X166223452Y-101154713D01*
X166251100Y-101159092D01*
X166254970Y-101158479D01*
X166278749Y-101154713D01*
X166286539Y-101154100D01*
X170934392Y-101154100D01*
X170961988Y-101162445D01*
X171033413Y-101209990D01*
X171036801Y-101211048D01*
X171036802Y-101211049D01*
X171164591Y-101250972D01*
X171170257Y-101252742D01*
X171173802Y-101252807D01*
X171310051Y-101255305D01*
X171313599Y-101255370D01*
X171320565Y-101253471D01*
X171337433Y-101248872D01*
X171451917Y-101217660D01*
X171543447Y-101161461D01*
X171569503Y-101154100D01*
X178064533Y-101154100D01*
X178068262Y-101152888D01*
X178068264Y-101152888D01*
X178079709Y-101149169D01*
X178091157Y-101145449D01*
X178098750Y-101143626D01*
X178126404Y-101139246D01*
X178129896Y-101137467D01*
X178129898Y-101137466D01*
X178140621Y-101132002D01*
X178151347Y-101126537D01*
X178158560Y-101123549D01*
X178170014Y-101119827D01*
X178181464Y-101116107D01*
X178181466Y-101116106D01*
X178185190Y-101114896D01*
X178207841Y-101098439D01*
X178214504Y-101094356D01*
X178239442Y-101081650D01*
X178262005Y-101059087D01*
X178262009Y-101059084D01*
X178307166Y-101013927D01*
X178329281Y-101001095D01*
X178391740Y-100984066D01*
X178451917Y-100967660D01*
X178574091Y-100892645D01*
X178670300Y-100786354D01*
X178732810Y-100657333D01*
X178756596Y-100515954D01*
X178756747Y-100503600D01*
X178736423Y-100361682D01*
X178703299Y-100288829D01*
X178678552Y-100234400D01*
X178678551Y-100234398D01*
X178677084Y-100231172D01*
X178674773Y-100228490D01*
X178674771Y-100228487D01*
X178585815Y-100125250D01*
X178583500Y-100122563D01*
X178580525Y-100120635D01*
X178580522Y-100120632D01*
X178505888Y-100072257D01*
X178463195Y-100044585D01*
X178325839Y-100003507D01*
X178322292Y-100003485D01*
X178322290Y-100003485D01*
X178256705Y-100003085D01*
X178182476Y-100002631D01*
X178044629Y-100042028D01*
X177923380Y-100118530D01*
X177828477Y-100225988D01*
X177798600Y-100289623D01*
X177782241Y-100324465D01*
X177754072Y-100350141D01*
X177737162Y-100353100D01*
X171568200Y-100353100D01*
X171541113Y-100345089D01*
X171509294Y-100324465D01*
X171463195Y-100294585D01*
X171325839Y-100253507D01*
X171322292Y-100253485D01*
X171322290Y-100253485D01*
X171256705Y-100253085D01*
X171182476Y-100252631D01*
X171044629Y-100292028D01*
X171036998Y-100296843D01*
X170960012Y-100345417D01*
X170933438Y-100353100D01*
X166800813Y-100353100D01*
X166765599Y-100338514D01*
X166751013Y-100303300D01*
X166751703Y-100295038D01*
X166756277Y-100267850D01*
X166756596Y-100265954D01*
X166756747Y-100253600D01*
X166737133Y-100116636D01*
X166736926Y-100115194D01*
X166736423Y-100111682D01*
X166703299Y-100038829D01*
X166678552Y-99984400D01*
X166678551Y-99984398D01*
X166677084Y-99981172D01*
X166674773Y-99978490D01*
X166674771Y-99978487D01*
X166585815Y-99875250D01*
X166583500Y-99872563D01*
X166580525Y-99870635D01*
X166580522Y-99870632D01*
X166505888Y-99822257D01*
X166463195Y-99794585D01*
X166325839Y-99753507D01*
X166322292Y-99753485D01*
X166322290Y-99753485D01*
X166256705Y-99753085D01*
X166182476Y-99752631D01*
X166044629Y-99792028D01*
X165923380Y-99868530D01*
X165828477Y-99975988D01*
X165797929Y-100041053D01*
X165769055Y-100102550D01*
X165769054Y-100102553D01*
X165767547Y-100105763D01*
X165745491Y-100247423D01*
X165746420Y-100254524D01*
X165751953Y-100296843D01*
X165742055Y-100333651D01*
X165709030Y-100352680D01*
X165702573Y-100353100D01*
X163201400Y-100353100D01*
X163166186Y-100338514D01*
X163151600Y-100303300D01*
X163151600Y-93465221D01*
X163166186Y-93430007D01*
X163201400Y-93415421D01*
X163228994Y-93423766D01*
X163283413Y-93459990D01*
X163286801Y-93461048D01*
X163286802Y-93461049D01*
X163412280Y-93500250D01*
X163420257Y-93502742D01*
X163423802Y-93502807D01*
X163560051Y-93505305D01*
X163563599Y-93505370D01*
X163701917Y-93467660D01*
X163824091Y-93392645D01*
X163920300Y-93286354D01*
X163982810Y-93157333D01*
X163988683Y-93122423D01*
X169870491Y-93122423D01*
X169889080Y-93264579D01*
X169898299Y-93285531D01*
X169942693Y-93386423D01*
X169946820Y-93395803D01*
X169965957Y-93418569D01*
X170034617Y-93500250D01*
X170039070Y-93505548D01*
X170158413Y-93584990D01*
X170161801Y-93586048D01*
X170161802Y-93586049D01*
X170176974Y-93590789D01*
X170190650Y-93595061D01*
X170219912Y-93619484D01*
X170225600Y-93642595D01*
X170225600Y-94721563D01*
X170224643Y-94731279D01*
X170220203Y-94753600D01*
X170225600Y-94780732D01*
X170225600Y-94780733D01*
X170241585Y-94861095D01*
X170302476Y-94952224D01*
X170306554Y-94954949D01*
X170306556Y-94954951D01*
X170321398Y-94964868D01*
X170328945Y-94971061D01*
X171658639Y-96300755D01*
X171664832Y-96308302D01*
X171674749Y-96323144D01*
X171674751Y-96323146D01*
X171677476Y-96327224D01*
X171700477Y-96342593D01*
X171700478Y-96342594D01*
X171768606Y-96388116D01*
X171773418Y-96389073D01*
X171773420Y-96389074D01*
X171871289Y-96408540D01*
X171876100Y-96409497D01*
X171880911Y-96408540D01*
X171880912Y-96408540D01*
X171898423Y-96405057D01*
X171908138Y-96404100D01*
X175305598Y-96404100D01*
X175340812Y-96418686D01*
X175343719Y-96421856D01*
X175414070Y-96505548D01*
X175533413Y-96584990D01*
X175536801Y-96586048D01*
X175536802Y-96586049D01*
X175666870Y-96626684D01*
X175670257Y-96627742D01*
X175673802Y-96627807D01*
X175810051Y-96630305D01*
X175813599Y-96630370D01*
X175951917Y-96592660D01*
X176074091Y-96517645D01*
X176160794Y-96421856D01*
X176167916Y-96413988D01*
X176167916Y-96413987D01*
X176170300Y-96411354D01*
X176232810Y-96282333D01*
X176256596Y-96140954D01*
X176256747Y-96128600D01*
X176236423Y-95986682D01*
X176177084Y-95856172D01*
X176174773Y-95853490D01*
X176174771Y-95853487D01*
X176085815Y-95750250D01*
X176083500Y-95747563D01*
X176062029Y-95733646D01*
X176040413Y-95702253D01*
X176047327Y-95664770D01*
X176063057Y-95649420D01*
X176074091Y-95642645D01*
X176170300Y-95536354D01*
X176232810Y-95407333D01*
X176256596Y-95265954D01*
X176256747Y-95253600D01*
X176236423Y-95111682D01*
X176188057Y-95005305D01*
X176178552Y-94984400D01*
X176178551Y-94984398D01*
X176177084Y-94981172D01*
X176174773Y-94978490D01*
X176174771Y-94978487D01*
X176085815Y-94875250D01*
X176083500Y-94872563D01*
X176080525Y-94870635D01*
X176080522Y-94870632D01*
X176005888Y-94822257D01*
X175963195Y-94794585D01*
X175825839Y-94753507D01*
X175822292Y-94753485D01*
X175822290Y-94753485D01*
X175756705Y-94753085D01*
X175682476Y-94752631D01*
X175544629Y-94792028D01*
X175423380Y-94868530D01*
X175385553Y-94911361D01*
X175338298Y-94964868D01*
X175328477Y-94975988D01*
X175315121Y-95004436D01*
X175269055Y-95102550D01*
X175269054Y-95102553D01*
X175267547Y-95105763D01*
X175245491Y-95247423D01*
X175248162Y-95267849D01*
X175256438Y-95331141D01*
X175246540Y-95367949D01*
X175242272Y-95372812D01*
X175151570Y-95463514D01*
X175116356Y-95478100D01*
X172135844Y-95478100D01*
X172100630Y-95463514D01*
X171416186Y-94779070D01*
X171401600Y-94743856D01*
X171401600Y-94324666D01*
X171416186Y-94289452D01*
X171425342Y-94282227D01*
X171446070Y-94269500D01*
X171449091Y-94267645D01*
X171451471Y-94265016D01*
X171451473Y-94265014D01*
X171542916Y-94163988D01*
X171542916Y-94163987D01*
X171545300Y-94161354D01*
X171607810Y-94032333D01*
X171631596Y-93890954D01*
X171631747Y-93878600D01*
X171627632Y-93849862D01*
X171611926Y-93740194D01*
X171611423Y-93736682D01*
X171578299Y-93663829D01*
X171553552Y-93609400D01*
X171553551Y-93609398D01*
X171552084Y-93606172D01*
X171549773Y-93603490D01*
X171549771Y-93603487D01*
X171463039Y-93502831D01*
X171458500Y-93497563D01*
X171455525Y-93495635D01*
X171455522Y-93495632D01*
X171368653Y-93439327D01*
X171338195Y-93419585D01*
X171200839Y-93378507D01*
X171197292Y-93378485D01*
X171197290Y-93378485D01*
X171131705Y-93378085D01*
X171057476Y-93377631D01*
X170919629Y-93417028D01*
X170883965Y-93439530D01*
X170846402Y-93445985D01*
X170815275Y-93423987D01*
X170808820Y-93386423D01*
X170812575Y-93375700D01*
X170856261Y-93285531D01*
X170856262Y-93285528D01*
X170857810Y-93282333D01*
X170881596Y-93140954D01*
X170881747Y-93128600D01*
X170865340Y-93014030D01*
X170861926Y-92990194D01*
X170861423Y-92986682D01*
X170806186Y-92865194D01*
X170803552Y-92859400D01*
X170803551Y-92859398D01*
X170802084Y-92856172D01*
X170799773Y-92853490D01*
X170799771Y-92853487D01*
X170710815Y-92750250D01*
X170708500Y-92747563D01*
X170705525Y-92745635D01*
X170705522Y-92745632D01*
X170630888Y-92697257D01*
X170588195Y-92669585D01*
X170450839Y-92628507D01*
X170447292Y-92628485D01*
X170447290Y-92628485D01*
X170381705Y-92628085D01*
X170307476Y-92627631D01*
X170169629Y-92667028D01*
X170048380Y-92743530D01*
X169953477Y-92850988D01*
X169921406Y-92919296D01*
X169894055Y-92977550D01*
X169894054Y-92977553D01*
X169892547Y-92980763D01*
X169870491Y-93122423D01*
X163988683Y-93122423D01*
X164006596Y-93015954D01*
X164006747Y-93003600D01*
X163986423Y-92861682D01*
X163935758Y-92750250D01*
X163928552Y-92734400D01*
X163928551Y-92734398D01*
X163927084Y-92731172D01*
X163924773Y-92728490D01*
X163924771Y-92728487D01*
X163864689Y-92658760D01*
X163833500Y-92622563D01*
X163830525Y-92620635D01*
X163830522Y-92620632D01*
X163755888Y-92572257D01*
X163713195Y-92544585D01*
X163575839Y-92503507D01*
X163572292Y-92503485D01*
X163572290Y-92503485D01*
X163506705Y-92503085D01*
X163432476Y-92502631D01*
X163294629Y-92542028D01*
X163210532Y-92595089D01*
X163210012Y-92595417D01*
X163183438Y-92603100D01*
X162786539Y-92603100D01*
X162778749Y-92602487D01*
X162754970Y-92598721D01*
X162751100Y-92598108D01*
X162747230Y-92598721D01*
X162723451Y-92602487D01*
X162715661Y-92603100D01*
X162318200Y-92603100D01*
X162291113Y-92595089D01*
X162262287Y-92576405D01*
X162213195Y-92544585D01*
X162075839Y-92503507D01*
X162072292Y-92503485D01*
X162072290Y-92503485D01*
X162006705Y-92503085D01*
X161932476Y-92502631D01*
X161794629Y-92542028D01*
X161710532Y-92595089D01*
X161710012Y-92595417D01*
X161683438Y-92603100D01*
X155437667Y-92603100D01*
X155433944Y-92604310D01*
X155433942Y-92604310D01*
X155411041Y-92611751D01*
X155403443Y-92613575D01*
X155394416Y-92615005D01*
X155375796Y-92617954D01*
X155361477Y-92625250D01*
X155350857Y-92630661D01*
X155343639Y-92633650D01*
X155320741Y-92641090D01*
X155320735Y-92641093D01*
X155317011Y-92642303D01*
X155313842Y-92644606D01*
X155313841Y-92644606D01*
X155294360Y-92658760D01*
X155287699Y-92662842D01*
X155262758Y-92675550D01*
X155240195Y-92698113D01*
X155240191Y-92698116D01*
X154195616Y-93742691D01*
X154195613Y-93742695D01*
X154173050Y-93765258D01*
X154160344Y-93790196D01*
X154156261Y-93796859D01*
X154139804Y-93819510D01*
X154138594Y-93823234D01*
X154138593Y-93823236D01*
X154131153Y-93846136D01*
X154128163Y-93853353D01*
X154115454Y-93878296D01*
X154113149Y-93892849D01*
X154111075Y-93905947D01*
X154109251Y-93913543D01*
X154100600Y-93940167D01*
X154100600Y-94182095D01*
X154088127Y-94215060D01*
X154080828Y-94223325D01*
X154080826Y-94223329D01*
X154078477Y-94225988D01*
X154060154Y-94265014D01*
X154019055Y-94352550D01*
X154019054Y-94352553D01*
X154017547Y-94355763D01*
X153995491Y-94497423D01*
X154014080Y-94639579D01*
X154021892Y-94657333D01*
X154069040Y-94764484D01*
X154071820Y-94770803D01*
X154090957Y-94793569D01*
X154159617Y-94875250D01*
X154164070Y-94880548D01*
X154283413Y-94959990D01*
X154286801Y-94961048D01*
X154286802Y-94961049D01*
X154361546Y-94984400D01*
X154420257Y-95002742D01*
X154423802Y-95002807D01*
X154560051Y-95005305D01*
X154563599Y-95005370D01*
X154701917Y-94967660D01*
X154824091Y-94892645D01*
X154913449Y-94793923D01*
X154917916Y-94788988D01*
X154917916Y-94788987D01*
X154920300Y-94786354D01*
X154982810Y-94657333D01*
X155006596Y-94515954D01*
X155006747Y-94503600D01*
X154986423Y-94361682D01*
X154927084Y-94231172D01*
X154916923Y-94219380D01*
X154904986Y-94183182D01*
X154919435Y-94151658D01*
X155652407Y-93418686D01*
X155687621Y-93404100D01*
X161684392Y-93404100D01*
X161711987Y-93412445D01*
X161738370Y-93430007D01*
X161783413Y-93459990D01*
X161786801Y-93461048D01*
X161786802Y-93461049D01*
X161912280Y-93500250D01*
X161920257Y-93502742D01*
X161923802Y-93502807D01*
X162060051Y-93505305D01*
X162063599Y-93505370D01*
X162201917Y-93467660D01*
X162248062Y-93439327D01*
X162274743Y-93422945D01*
X162312383Y-93416950D01*
X162343239Y-93439327D01*
X162350600Y-93465384D01*
X162350600Y-100432095D01*
X162338127Y-100465060D01*
X162330828Y-100473325D01*
X162330826Y-100473329D01*
X162328477Y-100475988D01*
X162315513Y-100503600D01*
X162269055Y-100602550D01*
X162269054Y-100602553D01*
X162267547Y-100605763D01*
X162267001Y-100609272D01*
X162256555Y-100676361D01*
X162236725Y-100708912D01*
X162207348Y-100718500D01*
X161385214Y-100718500D01*
X161385214Y-102713000D01*
X161512363Y-102713000D01*
X161547577Y-102727586D01*
X161562163Y-102762800D01*
X161547577Y-102798014D01*
X161529600Y-102809522D01*
X161428085Y-102846973D01*
X161426120Y-102848142D01*
X161249943Y-102952956D01*
X161249940Y-102952958D01*
X161247977Y-102954126D01*
X161223048Y-102975988D01*
X161106406Y-103078281D01*
X161090412Y-103092307D01*
X161089001Y-103094097D01*
X161088998Y-103094100D01*
X160994356Y-103214154D01*
X160960667Y-103256888D01*
X160959605Y-103258906D01*
X160959604Y-103258908D01*
X160874754Y-103420182D01*
X160863087Y-103442357D01*
X160800940Y-103642503D01*
X160800672Y-103644767D01*
X160800671Y-103644772D01*
X160776575Y-103848356D01*
X160776307Y-103850623D01*
X160776456Y-103852898D01*
X160776456Y-103852904D01*
X160779808Y-103904041D01*
X160790014Y-104059746D01*
X160841601Y-104262871D01*
X160842557Y-104264944D01*
X160842557Y-104264945D01*
X160883789Y-104354383D01*
X160929341Y-104453192D01*
X161050294Y-104624338D01*
X161051928Y-104625929D01*
X161051929Y-104625931D01*
X161198774Y-104768981D01*
X161198778Y-104768984D01*
X161200412Y-104770576D01*
X161202312Y-104771845D01*
X161202315Y-104771848D01*
X161235045Y-104793717D01*
X161246137Y-104801128D01*
X161256860Y-104808293D01*
X161278036Y-104839984D01*
X161270600Y-104877367D01*
X161238909Y-104898543D01*
X161229193Y-104899500D01*
X159607191Y-104899500D01*
X159571977Y-104884914D01*
X159557391Y-104849700D01*
X159571977Y-104814486D01*
X159600045Y-104800415D01*
X159658541Y-104791934D01*
X159662950Y-104790875D01*
X159866248Y-104721865D01*
X159870416Y-104720009D01*
X160057724Y-104615112D01*
X160061475Y-104612534D01*
X160122930Y-104561421D01*
X160126461Y-104554710D01*
X160124790Y-104549329D01*
X159388104Y-103812643D01*
X159381100Y-103809742D01*
X159374096Y-103812643D01*
X158635264Y-104551475D01*
X158632363Y-104558479D01*
X158633933Y-104562270D01*
X158807513Y-104678252D01*
X158811507Y-104680420D01*
X159008763Y-104765169D01*
X159013093Y-104766576D01*
X159165792Y-104801128D01*
X159196918Y-104823126D01*
X159203373Y-104860691D01*
X159181375Y-104891817D01*
X159154801Y-104899500D01*
X148650300Y-104899500D01*
X148615086Y-104884914D01*
X148600500Y-104849700D01*
X148600500Y-103597518D01*
X158183549Y-103597518D01*
X158197591Y-103811750D01*
X158198301Y-103816234D01*
X158251150Y-104024328D01*
X158252665Y-104028607D01*
X158342551Y-104223585D01*
X158344821Y-104227516D01*
X158445244Y-104369613D01*
X158451654Y-104373657D01*
X158455983Y-104372678D01*
X159195057Y-103633604D01*
X159197958Y-103626600D01*
X159564242Y-103626600D01*
X159567143Y-103633604D01*
X160302582Y-104369043D01*
X160309586Y-104371944D01*
X160314792Y-104369788D01*
X160367034Y-104306975D01*
X160369612Y-104303224D01*
X160474509Y-104115916D01*
X160476365Y-104111748D01*
X160545375Y-103908450D01*
X160546434Y-103904041D01*
X160577359Y-103690750D01*
X160577607Y-103687841D01*
X160579173Y-103628061D01*
X160579077Y-103625143D01*
X160559358Y-103410537D01*
X160558529Y-103406062D01*
X160500253Y-103199432D01*
X160498623Y-103195187D01*
X160403670Y-103002641D01*
X160401289Y-102998756D01*
X160316027Y-102884576D01*
X160309511Y-102880699D01*
X160304858Y-102881881D01*
X159567143Y-103619596D01*
X159564242Y-103626600D01*
X159197958Y-103626600D01*
X159195057Y-103619596D01*
X158459653Y-102884192D01*
X158452649Y-102881291D01*
X158447846Y-102883280D01*
X158377692Y-102972271D01*
X158375217Y-102976082D01*
X158275255Y-103166078D01*
X158273512Y-103170287D01*
X158209849Y-103375317D01*
X158208902Y-103379768D01*
X158183668Y-103592970D01*
X158183549Y-103597518D01*
X148600500Y-103597518D01*
X148600500Y-102696905D01*
X158635557Y-102696905D01*
X158638643Y-102705104D01*
X159374096Y-103440557D01*
X159381100Y-103443458D01*
X159388104Y-103440557D01*
X160125349Y-102703312D01*
X160128030Y-102696840D01*
X160124704Y-102689237D01*
X160112141Y-102677625D01*
X160108533Y-102674857D01*
X159926967Y-102560297D01*
X159922908Y-102558228D01*
X159723502Y-102478674D01*
X159719142Y-102477382D01*
X159508576Y-102435497D01*
X159504057Y-102435022D01*
X159289382Y-102432212D01*
X159284845Y-102432569D01*
X159073254Y-102468928D01*
X159068865Y-102470104D01*
X158867441Y-102544413D01*
X158863335Y-102546372D01*
X158678834Y-102656138D01*
X158675150Y-102658814D01*
X158638485Y-102690968D01*
X158635557Y-102696905D01*
X148600500Y-102696905D01*
X148600500Y-101744462D01*
X153246597Y-101744462D01*
X153276234Y-101916940D01*
X153344754Y-102077973D01*
X153346471Y-102080306D01*
X153402344Y-102156228D01*
X153448483Y-102218924D01*
X153581855Y-102332232D01*
X153655545Y-102369860D01*
X153735138Y-102410503D01*
X153735141Y-102410504D01*
X153737716Y-102411819D01*
X153740523Y-102412506D01*
X153740526Y-102412507D01*
X153844530Y-102437956D01*
X153907706Y-102453415D01*
X153918748Y-102454100D01*
X154044922Y-102454100D01*
X154174928Y-102438943D01*
X154339431Y-102379231D01*
X154409112Y-102333546D01*
X154483365Y-102284864D01*
X154483367Y-102284862D01*
X154485785Y-102283277D01*
X154606140Y-102156228D01*
X154694039Y-102004898D01*
X154720679Y-101916940D01*
X154743929Y-101840175D01*
X154743930Y-101840172D01*
X154744767Y-101837407D01*
X154755603Y-101662738D01*
X154725966Y-101490260D01*
X154657446Y-101329227D01*
X154602406Y-101254436D01*
X154555435Y-101190610D01*
X154555433Y-101190608D01*
X154553717Y-101188276D01*
X154420345Y-101074968D01*
X154331413Y-101029557D01*
X154267062Y-100996697D01*
X154267059Y-100996696D01*
X154264484Y-100995381D01*
X154261677Y-100994694D01*
X154261674Y-100994693D01*
X154143604Y-100965802D01*
X154094494Y-100953785D01*
X154083452Y-100953100D01*
X153957278Y-100953100D01*
X153827272Y-100968257D01*
X153662769Y-101027969D01*
X153660347Y-101029557D01*
X153518835Y-101122336D01*
X153518833Y-101122338D01*
X153516415Y-101123923D01*
X153457229Y-101186401D01*
X153433880Y-101211049D01*
X153396060Y-101250972D01*
X153394610Y-101253468D01*
X153394608Y-101253471D01*
X153393543Y-101255305D01*
X153308161Y-101402302D01*
X153307324Y-101405066D01*
X153307323Y-101405068D01*
X153280659Y-101493108D01*
X153257433Y-101569793D01*
X153246597Y-101744462D01*
X148600500Y-101744462D01*
X148600500Y-100904100D01*
X149319600Y-100904100D01*
X151314100Y-100904100D01*
X151314100Y-97803100D01*
X149319600Y-97803100D01*
X149319600Y-100904100D01*
X148600500Y-100904100D01*
X148600500Y-97344462D01*
X153246597Y-97344462D01*
X153276234Y-97516940D01*
X153344754Y-97677973D01*
X153346471Y-97680306D01*
X153444128Y-97813006D01*
X153448483Y-97818924D01*
X153581855Y-97932232D01*
X153655545Y-97969860D01*
X153735138Y-98010503D01*
X153735141Y-98010504D01*
X153737716Y-98011819D01*
X153740523Y-98012506D01*
X153740526Y-98012507D01*
X153844530Y-98037956D01*
X153907706Y-98053415D01*
X153918748Y-98054100D01*
X154044922Y-98054100D01*
X154174928Y-98038943D01*
X154339431Y-97979231D01*
X154409112Y-97933546D01*
X154483365Y-97884864D01*
X154483367Y-97884862D01*
X154485785Y-97883277D01*
X154552354Y-97813006D01*
X154604151Y-97758328D01*
X154604152Y-97758326D01*
X154606140Y-97756228D01*
X154694039Y-97604898D01*
X154720679Y-97516940D01*
X154743929Y-97440175D01*
X154743930Y-97440172D01*
X154744767Y-97437407D01*
X154755603Y-97262738D01*
X154725966Y-97090260D01*
X154657446Y-96929227D01*
X154635004Y-96898732D01*
X154555435Y-96790610D01*
X154555433Y-96790608D01*
X154553717Y-96788276D01*
X154420345Y-96674968D01*
X154346655Y-96637340D01*
X154267062Y-96596697D01*
X154267059Y-96596696D01*
X154264484Y-96595381D01*
X154261677Y-96594694D01*
X154261674Y-96594693D01*
X154145255Y-96566206D01*
X154094494Y-96553785D01*
X154083452Y-96553100D01*
X153957278Y-96553100D01*
X153827272Y-96568257D01*
X153662769Y-96627969D01*
X153660347Y-96629557D01*
X153518835Y-96722336D01*
X153518833Y-96722338D01*
X153516415Y-96723923D01*
X153396060Y-96850972D01*
X153308161Y-97002302D01*
X153307324Y-97005066D01*
X153307323Y-97005068D01*
X153280659Y-97093108D01*
X153257433Y-97169793D01*
X153246597Y-97344462D01*
X148600500Y-97344462D01*
X148600500Y-91081810D01*
X159325149Y-91081810D01*
X159363316Y-91240790D01*
X159364692Y-91243455D01*
X159364693Y-91243459D01*
X159365253Y-91244543D01*
X159438304Y-91386076D01*
X159545783Y-91509281D01*
X159548235Y-91511004D01*
X159548238Y-91511007D01*
X159634351Y-91571528D01*
X159679548Y-91603293D01*
X159682341Y-91604382D01*
X159682343Y-91604383D01*
X159734938Y-91624889D01*
X159831876Y-91662683D01*
X159834850Y-91663075D01*
X159834852Y-91663075D01*
X159936526Y-91676461D01*
X159956573Y-91679100D01*
X160042096Y-91679100D01*
X160043588Y-91678919D01*
X160043595Y-91678919D01*
X160118270Y-91669882D01*
X160163413Y-91664419D01*
X160166221Y-91663358D01*
X160166225Y-91663357D01*
X160313548Y-91607688D01*
X160313550Y-91607687D01*
X160316355Y-91606627D01*
X160319621Y-91604383D01*
X160363293Y-91574367D01*
X160451097Y-91514021D01*
X160453092Y-91511782D01*
X160557865Y-91394188D01*
X160557868Y-91394184D01*
X160559860Y-91391948D01*
X160561771Y-91388340D01*
X160634960Y-91250108D01*
X160636365Y-91247455D01*
X160676195Y-91088884D01*
X160677051Y-90925390D01*
X160638884Y-90766410D01*
X160637508Y-90763745D01*
X160637507Y-90763741D01*
X160565273Y-90623792D01*
X160563896Y-90621124D01*
X160456417Y-90497919D01*
X160453965Y-90496196D01*
X160453962Y-90496193D01*
X160325106Y-90405632D01*
X160322652Y-90403907D01*
X160319859Y-90402818D01*
X160319857Y-90402817D01*
X160267262Y-90382311D01*
X160170324Y-90344517D01*
X160167350Y-90344125D01*
X160167348Y-90344125D01*
X160047237Y-90328312D01*
X160047238Y-90328312D01*
X160045627Y-90328100D01*
X159960104Y-90328100D01*
X159958612Y-90328281D01*
X159958605Y-90328281D01*
X159883930Y-90337318D01*
X159838787Y-90342781D01*
X159835979Y-90343842D01*
X159835975Y-90343843D01*
X159688652Y-90399512D01*
X159688650Y-90399513D01*
X159685845Y-90400573D01*
X159683373Y-90402272D01*
X159683371Y-90402273D01*
X159680994Y-90403907D01*
X159551103Y-90493179D01*
X159549109Y-90495417D01*
X159549108Y-90495418D01*
X159444335Y-90613012D01*
X159444332Y-90613016D01*
X159442340Y-90615252D01*
X159440939Y-90617898D01*
X159440937Y-90617901D01*
X159439231Y-90621124D01*
X159365835Y-90759745D01*
X159326005Y-90918316D01*
X159325149Y-91081810D01*
X148600500Y-91081810D01*
X148600500Y-89150300D01*
X148615086Y-89115086D01*
X148650300Y-89100500D01*
X164991276Y-89100500D01*
X165026490Y-89115086D01*
G37*
%TD.AperFunction*%
%TD*%
M02*
