%TF.GenerationSoftware,KiCad,Pcbnew,(6.0.7)*%
%TF.CreationDate,2022-08-30T17:51:16+02:00*%
%TF.ProjectId,blackmagic_richardeoin,626c6163-6b6d-4616-9769-635f72696368,rev?*%
%TF.SameCoordinates,Original*%
%TF.FileFunction,Paste,Top*%
%TF.FilePolarity,Positive*%
%FSLAX46Y46*%
G04 Gerber Fmt 4.6, Leading zero omitted, Abs format (unit mm)*
G04 Created by KiCad (PCBNEW (6.0.7)) date 2022-08-30 17:51:16*
%MOMM*%
%LPD*%
G01*
G04 APERTURE LIST*
%ADD10R,0.600000X1.700000*%
%ADD11R,2.308000X0.500000*%
%ADD12R,2.400000X2.000000*%
%ADD13R,1.600000X0.350000*%
%ADD14R,0.800000X0.800000*%
%ADD15R,0.900000X0.900000*%
%ADD16R,2.600000X0.650000*%
%ADD17R,1.080000X1.050000*%
%ADD18R,1.900000X1.100000*%
%ADD19R,1.050000X1.080000*%
%ADD20R,1.400000X1.000000*%
%ADD21R,0.800000X0.350000*%
%ADD22R,1.500000X0.300000*%
%ADD23R,0.300000X1.500000*%
G04 APERTURE END LIST*
D10*
%TO.C,BTN2*%
X172126100Y-103753600D03*
X168626100Y-103753600D03*
%TD*%
D11*
%TO.C,CN1*%
X157065100Y-99503600D03*
X157065100Y-98703600D03*
X157065100Y-101103600D03*
D12*
X151001100Y-95103600D03*
X156501100Y-95103600D03*
X156501100Y-103903600D03*
X151001100Y-103903600D03*
D11*
X157065100Y-100303600D03*
X157065100Y-97903600D03*
%TD*%
D13*
%TO.C,IC2*%
X180051100Y-99928600D03*
X180051100Y-99278600D03*
X180051100Y-98628600D03*
X180051100Y-97978600D03*
X180051100Y-97328600D03*
X180051100Y-96678600D03*
X180051100Y-96028600D03*
X180051100Y-95378600D03*
X180051100Y-94728600D03*
X180051100Y-94078600D03*
X174451100Y-94078600D03*
X174451100Y-94728600D03*
X174451100Y-95378600D03*
X174451100Y-96028600D03*
X174451100Y-96678600D03*
X174451100Y-97328600D03*
X174451100Y-97978600D03*
X174451100Y-98628600D03*
X174451100Y-99278600D03*
X174451100Y-99928600D03*
%TD*%
D14*
%TO.C,D2*%
X150751100Y-91753600D03*
X149251100Y-91753600D03*
%TD*%
D15*
%TO.C,R10*%
X154501100Y-92253600D03*
X153001100Y-92253600D03*
%TD*%
%TO.C,R7*%
X160751100Y-96753600D03*
X159251100Y-96753600D03*
%TD*%
%TO.C,R5*%
X162751100Y-91003600D03*
X164251100Y-91003600D03*
%TD*%
%TO.C,R8*%
X176001100Y-90253600D03*
X176001100Y-91753600D03*
%TD*%
%TO.C,R1*%
X160751100Y-100503600D03*
X159251100Y-100503600D03*
%TD*%
D16*
%TO.C,JTAG1*%
X186601100Y-99543600D03*
X182901100Y-99543600D03*
X186601100Y-98273600D03*
X182901100Y-98273600D03*
X186601100Y-97003600D03*
X182901100Y-97003600D03*
X186601100Y-95733600D03*
X182901100Y-95733600D03*
X186601100Y-94463600D03*
X182901100Y-94463600D03*
%TD*%
D15*
%TO.C,R2*%
X160751100Y-99253600D03*
X159251100Y-99253600D03*
%TD*%
%TO.C,R12*%
X154501100Y-89753600D03*
X153001100Y-89753600D03*
%TD*%
D17*
%TO.C,C7*%
X174751100Y-102378600D03*
X174751100Y-104128600D03*
%TD*%
D14*
%TO.C,D3*%
X150751100Y-90753600D03*
X149251100Y-90753600D03*
%TD*%
D18*
%TO.C,Y1*%
X180226100Y-102103600D03*
X176526100Y-102103600D03*
X176526100Y-104403600D03*
X180226100Y-104403600D03*
%TD*%
D19*
%TO.C,C2*%
X160876100Y-93003600D03*
X159126100Y-93003600D03*
%TD*%
D10*
%TO.C,BTN1*%
X161751100Y-91003600D03*
X158251100Y-91003600D03*
%TD*%
D15*
%TO.C,R11*%
X154501100Y-91003600D03*
X153001100Y-91003600D03*
%TD*%
D20*
%TO.C,Q1*%
X177901100Y-90053600D03*
X177901100Y-91953600D03*
X180101100Y-91003600D03*
%TD*%
D21*
%TO.C,IC3*%
X157601100Y-93528600D03*
X157601100Y-92878600D03*
X157601100Y-92228600D03*
X155901100Y-92228600D03*
X155901100Y-93528600D03*
%TD*%
D15*
%TO.C,R6*%
X174501100Y-91753600D03*
X174501100Y-90253600D03*
%TD*%
D19*
%TO.C,C5*%
X160876100Y-101753600D03*
X159126100Y-101753600D03*
%TD*%
%TO.C,C1*%
X159126100Y-94253600D03*
X160876100Y-94253600D03*
%TD*%
%TO.C,C4*%
X185200000Y-104200000D03*
X186950000Y-104200000D03*
%TD*%
D15*
%TO.C,R13*%
X172126100Y-101753600D03*
X170626100Y-101753600D03*
%TD*%
D14*
%TO.C,D1*%
X150751100Y-92753600D03*
X149251100Y-92753600D03*
%TD*%
D17*
%TO.C,C3*%
X173501100Y-102378600D03*
X173501100Y-104128600D03*
%TD*%
D15*
%TO.C,R4*%
X159251100Y-95503600D03*
X160751100Y-95503600D03*
%TD*%
%TO.C,R3*%
X160751100Y-98003600D03*
X159251100Y-98003600D03*
%TD*%
D22*
%TO.C,IC1*%
X171251100Y-100003600D03*
X171251100Y-99503600D03*
X171251100Y-99003600D03*
X171251100Y-98503600D03*
X171251100Y-98003600D03*
X171251100Y-97503600D03*
X171251100Y-97003600D03*
X171251100Y-96503600D03*
X171251100Y-96003600D03*
X171251100Y-95503600D03*
X171251100Y-95003600D03*
X171251100Y-94503600D03*
D23*
X169751100Y-93003600D03*
X169251100Y-93003600D03*
X168751100Y-93003600D03*
X168251100Y-93003600D03*
X167751100Y-93003600D03*
X167251100Y-93003600D03*
X166751100Y-93003600D03*
X166251100Y-93003600D03*
X165751100Y-93003600D03*
X165251100Y-93003600D03*
X164751100Y-93003600D03*
X164251100Y-93003600D03*
D22*
X162751100Y-94503600D03*
X162751100Y-95003600D03*
X162751100Y-95503600D03*
X162751100Y-96003600D03*
X162751100Y-96503600D03*
X162751100Y-97003600D03*
X162751100Y-97503600D03*
X162751100Y-98003600D03*
X162751100Y-98503600D03*
X162751100Y-99003600D03*
X162751100Y-99503600D03*
X162751100Y-100003600D03*
D23*
X164251100Y-101503600D03*
X164751100Y-101503600D03*
X165251100Y-101503600D03*
X165751100Y-101503600D03*
X166251100Y-101503600D03*
X166751100Y-101503600D03*
X167251100Y-101503600D03*
X167751100Y-101503600D03*
X168251100Y-101503600D03*
X168751100Y-101503600D03*
X169251100Y-101503600D03*
X169751100Y-101503600D03*
%TD*%
D19*
%TO.C,C8*%
X182050000Y-104200000D03*
X183800000Y-104200000D03*
%TD*%
D17*
%TO.C,C6*%
X173001100Y-90128600D03*
X173001100Y-91878600D03*
%TD*%
D15*
%TO.C,R9*%
X154501100Y-93503600D03*
X153001100Y-93503600D03*
%TD*%
D14*
%TO.C,D4*%
X150751100Y-89753600D03*
X149251100Y-89753600D03*
%TD*%
M02*
