%TF.GenerationSoftware,KiCad,Pcbnew,(6.0.7)*%
%TF.CreationDate,2022-08-30T17:51:16+02:00*%
%TF.ProjectId,blackmagic_richardeoin,626c6163-6b6d-4616-9769-635f72696368,rev?*%
%TF.SameCoordinates,Original*%
%TF.FileFunction,Soldermask,Top*%
%TF.FilePolarity,Negative*%
%FSLAX46Y46*%
G04 Gerber Fmt 4.6, Leading zero omitted, Abs format (unit mm)*
G04 Created by KiCad (PCBNEW (6.0.7)) date 2022-08-30 17:51:16*
%MOMM*%
%LPD*%
G01*
G04 APERTURE LIST*
G04 Aperture macros list*
%AMRoundRect*
0 Rectangle with rounded corners*
0 $1 Rounding radius*
0 $2 $3 $4 $5 $6 $7 $8 $9 X,Y pos of 4 corners*
0 Add a 4 corners polygon primitive as box body*
4,1,4,$2,$3,$4,$5,$6,$7,$8,$9,$2,$3,0*
0 Add four circle primitives for the rounded corners*
1,1,$1+$1,$2,$3*
1,1,$1+$1,$4,$5*
1,1,$1+$1,$6,$7*
1,1,$1+$1,$8,$9*
0 Add four rect primitives between the rounded corners*
20,1,$1+$1,$2,$3,$4,$5,0*
20,1,$1+$1,$4,$5,$6,$7,0*
20,1,$1+$1,$6,$7,$8,$9,0*
20,1,$1+$1,$8,$9,$2,$3,0*%
G04 Aperture macros list end*
%ADD10C,0.200000*%
%ADD11C,0.150000*%
%ADD12C,0.850000*%
%ADD13C,1.000000*%
%ADD14RoundRect,0.075000X1.154000X-0.250000X1.154000X0.250000X-1.154000X0.250000X-1.154000X-0.250000X0*%
%ADD15RoundRect,0.075000X-1.200000X1.000000X-1.200000X-1.000000X1.200000X-1.000000X1.200000X1.000000X0*%
%ADD16RoundRect,0.075000X0.800000X-0.175000X0.800000X0.175000X-0.800000X0.175000X-0.800000X-0.175000X0*%
%ADD17RoundRect,0.075000X-0.800000X0.175000X-0.800000X-0.175000X0.800000X-0.175000X0.800000X0.175000X0*%
%ADD18RoundRect,0.075000X0.400000X-0.400000X0.400000X0.400000X-0.400000X0.400000X-0.400000X-0.400000X0*%
%ADD19RoundRect,0.075000X0.450000X0.450000X-0.450000X0.450000X-0.450000X-0.450000X0.450000X-0.450000X0*%
%ADD20RoundRect,0.075000X-0.450000X-0.450000X0.450000X-0.450000X0.450000X0.450000X-0.450000X0.450000X0*%
%ADD21RoundRect,0.075000X-0.450000X0.450000X-0.450000X-0.450000X0.450000X-0.450000X0.450000X0.450000X0*%
%ADD22RoundRect,0.075000X1.300000X-0.325000X1.300000X0.325000X-1.300000X0.325000X-1.300000X-0.325000X0*%
%ADD23RoundRect,0.075000X-0.540000X0.525000X-0.540000X-0.525000X0.540000X-0.525000X0.540000X0.525000X0*%
%ADD24RoundRect,0.075000X0.950000X0.550000X-0.950000X0.550000X-0.950000X-0.550000X0.950000X-0.550000X0*%
%ADD25RoundRect,0.075000X0.525000X0.540000X-0.525000X0.540000X-0.525000X-0.540000X0.525000X-0.540000X0*%
%ADD26RoundRect,0.075000X-0.939800X0.939800X-0.939800X-0.939800X0.939800X-0.939800X0.939800X0.939800X0*%
%ADD27C,2.029600*%
%ADD28RoundRect,0.075000X-0.700000X0.500000X-0.700000X-0.500000X0.700000X-0.500000X0.700000X0.500000X0*%
%ADD29RoundRect,0.075000X0.400000X-0.175000X0.400000X0.175000X-0.400000X0.175000X-0.400000X-0.175000X0*%
%ADD30RoundRect,0.075000X0.450000X-0.450000X0.450000X0.450000X-0.450000X0.450000X-0.450000X-0.450000X0*%
%ADD31RoundRect,0.075000X-0.525000X-0.540000X0.525000X-0.540000X0.525000X0.540000X-0.525000X0.540000X0*%
%ADD32RoundRect,0.075000X0.750000X-0.150000X0.750000X0.150000X-0.750000X0.150000X-0.750000X-0.150000X0*%
%ADD33RoundRect,0.075000X0.150000X-0.750000X0.150000X0.750000X-0.150000X0.750000X-0.150000X-0.750000X0*%
G04 APERTURE END LIST*
D10*
X178976100Y-100003600D02*
G75*
G03*
X178976100Y-100003600I-100000J0D01*
G01*
X149851100Y-93503600D02*
G75*
G03*
X149851100Y-93503600I-100000J0D01*
G01*
X170101100Y-100253600D02*
G75*
G03*
X170101100Y-100253600I-100000J0D01*
G01*
D11*
X176985623Y-99450147D02*
X176985623Y-98964433D01*
X177835623Y-99207290D02*
X176985623Y-99207290D01*
X176985623Y-98762052D02*
X177835623Y-98195385D01*
X176985623Y-98195385D02*
X177835623Y-98762052D01*
X177795147Y-97912052D02*
X177835623Y-97790623D01*
X177835623Y-97588242D01*
X177795147Y-97507290D01*
X177754671Y-97466814D01*
X177673719Y-97426338D01*
X177592766Y-97426338D01*
X177511814Y-97466814D01*
X177471338Y-97507290D01*
X177430861Y-97588242D01*
X177390385Y-97750147D01*
X177349909Y-97831100D01*
X177309433Y-97871576D01*
X177228480Y-97912052D01*
X177147528Y-97912052D01*
X177066576Y-97871576D01*
X177026100Y-97831100D01*
X176985623Y-97750147D01*
X176985623Y-97547766D01*
X177026100Y-97426338D01*
X176985623Y-96900147D02*
X176985623Y-96819195D01*
X177026100Y-96738242D01*
X177066576Y-96697766D01*
X177147528Y-96657290D01*
X177309433Y-96616814D01*
X177511814Y-96616814D01*
X177673719Y-96657290D01*
X177754671Y-96697766D01*
X177795147Y-96738242D01*
X177835623Y-96819195D01*
X177835623Y-96900147D01*
X177795147Y-96981100D01*
X177754671Y-97021576D01*
X177673719Y-97062052D01*
X177511814Y-97102528D01*
X177309433Y-97102528D01*
X177147528Y-97062052D01*
X177066576Y-97021576D01*
X177026100Y-96981100D01*
X176985623Y-96900147D01*
X177835623Y-95807290D02*
X177835623Y-96293004D01*
X177835623Y-96050147D02*
X176985623Y-96050147D01*
X177107052Y-96131100D01*
X177188004Y-96212052D01*
X177228480Y-96293004D01*
X176985623Y-95281100D02*
X176985623Y-95200147D01*
X177026100Y-95119195D01*
X177066576Y-95078719D01*
X177147528Y-95038242D01*
X177309433Y-94997766D01*
X177511814Y-94997766D01*
X177673719Y-95038242D01*
X177754671Y-95078719D01*
X177795147Y-95119195D01*
X177835623Y-95200147D01*
X177835623Y-95281100D01*
X177795147Y-95362052D01*
X177754671Y-95402528D01*
X177673719Y-95443004D01*
X177511814Y-95483480D01*
X177309433Y-95483480D01*
X177147528Y-95443004D01*
X177066576Y-95402528D01*
X177026100Y-95362052D01*
X176985623Y-95281100D01*
X177349909Y-94512052D02*
X177309433Y-94593004D01*
X177268957Y-94633480D01*
X177188004Y-94673957D01*
X177147528Y-94673957D01*
X177066576Y-94633480D01*
X177026100Y-94593004D01*
X176985623Y-94512052D01*
X176985623Y-94350147D01*
X177026100Y-94269195D01*
X177066576Y-94228719D01*
X177147528Y-94188242D01*
X177188004Y-94188242D01*
X177268957Y-94228719D01*
X177309433Y-94269195D01*
X177349909Y-94350147D01*
X177349909Y-94512052D01*
X177390385Y-94593004D01*
X177430861Y-94633480D01*
X177511814Y-94673957D01*
X177673719Y-94673957D01*
X177754671Y-94633480D01*
X177795147Y-94593004D01*
X177835623Y-94512052D01*
X177835623Y-94350147D01*
X177795147Y-94269195D01*
X177754671Y-94228719D01*
X177673719Y-94188242D01*
X177511814Y-94188242D01*
X177430861Y-94228719D01*
X177390385Y-94269195D01*
X177349909Y-94350147D01*
X164635504Y-95929147D02*
X164756933Y-95969623D01*
X164959314Y-95969623D01*
X165040266Y-95929147D01*
X165080742Y-95888671D01*
X165121219Y-95807719D01*
X165121219Y-95726766D01*
X165080742Y-95645814D01*
X165040266Y-95605338D01*
X164959314Y-95564861D01*
X164797409Y-95524385D01*
X164716457Y-95483909D01*
X164675980Y-95443433D01*
X164635504Y-95362480D01*
X164635504Y-95281528D01*
X164675980Y-95200576D01*
X164716457Y-95160100D01*
X164797409Y-95119623D01*
X164999790Y-95119623D01*
X165121219Y-95160100D01*
X165364076Y-95119623D02*
X165849790Y-95119623D01*
X165606933Y-95969623D02*
X165606933Y-95119623D01*
X166133123Y-95969623D02*
X166133123Y-95119623D01*
X166416457Y-95726766D01*
X166699790Y-95119623D01*
X166699790Y-95969623D01*
X167023600Y-95119623D02*
X167549790Y-95119623D01*
X167266457Y-95443433D01*
X167387885Y-95443433D01*
X167468838Y-95483909D01*
X167509314Y-95524385D01*
X167549790Y-95605338D01*
X167549790Y-95807719D01*
X167509314Y-95888671D01*
X167468838Y-95929147D01*
X167387885Y-95969623D01*
X167145028Y-95969623D01*
X167064076Y-95929147D01*
X167023600Y-95888671D01*
X167873600Y-95200576D02*
X167914076Y-95160100D01*
X167995028Y-95119623D01*
X168197409Y-95119623D01*
X168278361Y-95160100D01*
X168318838Y-95200576D01*
X168359314Y-95281528D01*
X168359314Y-95362480D01*
X168318838Y-95483909D01*
X167833123Y-95969623D01*
X168359314Y-95969623D01*
X169006933Y-95524385D02*
X168723600Y-95524385D01*
X168723600Y-95969623D02*
X168723600Y-95119623D01*
X169128361Y-95119623D01*
X165121219Y-97338123D02*
X164635504Y-97338123D01*
X164878361Y-97338123D02*
X164878361Y-96488123D01*
X164797409Y-96609552D01*
X164716457Y-96690504D01*
X164635504Y-96730980D01*
X165647409Y-96488123D02*
X165728361Y-96488123D01*
X165809314Y-96528600D01*
X165849790Y-96569076D01*
X165890266Y-96650028D01*
X165930742Y-96811933D01*
X165930742Y-97014314D01*
X165890266Y-97176219D01*
X165849790Y-97257171D01*
X165809314Y-97297647D01*
X165728361Y-97338123D01*
X165647409Y-97338123D01*
X165566457Y-97297647D01*
X165525980Y-97257171D01*
X165485504Y-97176219D01*
X165445028Y-97014314D01*
X165445028Y-96811933D01*
X165485504Y-96650028D01*
X165525980Y-96569076D01*
X165566457Y-96528600D01*
X165647409Y-96488123D01*
X166214076Y-96488123D02*
X166740266Y-96488123D01*
X166456933Y-96811933D01*
X166578361Y-96811933D01*
X166659314Y-96852409D01*
X166699790Y-96892885D01*
X166740266Y-96973838D01*
X166740266Y-97176219D01*
X166699790Y-97257171D01*
X166659314Y-97297647D01*
X166578361Y-97338123D01*
X166335504Y-97338123D01*
X166254552Y-97297647D01*
X166214076Y-97257171D01*
X167590266Y-97257171D02*
X167549790Y-97297647D01*
X167428361Y-97338123D01*
X167347409Y-97338123D01*
X167225980Y-97297647D01*
X167145028Y-97216695D01*
X167104552Y-97135742D01*
X167064076Y-96973838D01*
X167064076Y-96852409D01*
X167104552Y-96690504D01*
X167145028Y-96609552D01*
X167225980Y-96528600D01*
X167347409Y-96488123D01*
X167428361Y-96488123D01*
X167549790Y-96528600D01*
X167590266Y-96569076D01*
X168237885Y-96892885D02*
X168359314Y-96933361D01*
X168399790Y-96973838D01*
X168440266Y-97054790D01*
X168440266Y-97176219D01*
X168399790Y-97257171D01*
X168359314Y-97297647D01*
X168278361Y-97338123D01*
X167954552Y-97338123D01*
X167954552Y-96488123D01*
X168237885Y-96488123D01*
X168318838Y-96528600D01*
X168359314Y-96569076D01*
X168399790Y-96650028D01*
X168399790Y-96730980D01*
X168359314Y-96811933D01*
X168318838Y-96852409D01*
X168237885Y-96892885D01*
X167954552Y-96892885D01*
%TO.C,BTN2*%
G36*
X168926100Y-104603600D02*
G01*
X168326100Y-104603600D01*
X168326100Y-102903600D01*
X168926100Y-102903600D01*
X168926100Y-104603600D01*
G37*
G36*
X172426100Y-104603600D02*
G01*
X171826100Y-104603600D01*
X171826100Y-102903600D01*
X172426100Y-102903600D01*
X172426100Y-104603600D01*
G37*
%TO.C,BTN1*%
G36*
X158551100Y-91853600D02*
G01*
X157951100Y-91853600D01*
X157951100Y-90153600D01*
X158551100Y-90153600D01*
X158551100Y-91853600D01*
G37*
G36*
X162051100Y-91853600D02*
G01*
X161451100Y-91853600D01*
X161451100Y-90153600D01*
X162051100Y-90153600D01*
X162051100Y-91853600D01*
G37*
%TD*%
D12*
%TO.C,BTN2*%
X170376100Y-103753600D03*
%TD*%
D13*
%TO.C,CN1*%
X154001100Y-101703600D03*
X154001100Y-97303600D03*
D14*
X157065100Y-99503600D03*
X157065100Y-98703600D03*
X157065100Y-101103600D03*
D15*
X151001100Y-95103600D03*
X156501100Y-95103600D03*
X156501100Y-103903600D03*
X151001100Y-103903600D03*
D14*
X157065100Y-100303600D03*
X157065100Y-97903600D03*
%TD*%
D16*
%TO.C,IC2*%
X180051100Y-99928600D03*
X180051100Y-99278600D03*
X180051100Y-98628600D03*
X180051100Y-97978600D03*
X180051100Y-97328600D03*
X180051100Y-96678600D03*
X180051100Y-96028600D03*
X180051100Y-95378600D03*
X180051100Y-94728600D03*
X180051100Y-94078600D03*
D17*
X174451100Y-94078600D03*
X174451100Y-94728600D03*
X174451100Y-95378600D03*
X174451100Y-96028600D03*
X174451100Y-96678600D03*
X174451100Y-97328600D03*
X174451100Y-97978600D03*
X174451100Y-98628600D03*
X174451100Y-99278600D03*
X174451100Y-99928600D03*
%TD*%
D18*
%TO.C,D2*%
X150751100Y-91753600D03*
X149251100Y-91753600D03*
%TD*%
D19*
%TO.C,R10*%
X154501100Y-92253600D03*
X153001100Y-92253600D03*
%TD*%
%TO.C,R7*%
X160751100Y-96753600D03*
X159251100Y-96753600D03*
%TD*%
D20*
%TO.C,R5*%
X162751100Y-91003600D03*
X164251100Y-91003600D03*
%TD*%
D21*
%TO.C,R8*%
X176001100Y-90253600D03*
X176001100Y-91753600D03*
%TD*%
D19*
%TO.C,R1*%
X160751100Y-100503600D03*
X159251100Y-100503600D03*
%TD*%
D22*
%TO.C,JTAG1*%
X186601100Y-99543600D03*
X182901100Y-99543600D03*
X186601100Y-98273600D03*
X182901100Y-98273600D03*
X186601100Y-97003600D03*
X182901100Y-97003600D03*
X186601100Y-95733600D03*
X182901100Y-95733600D03*
X186601100Y-94463600D03*
X182901100Y-94463600D03*
%TD*%
D19*
%TO.C,R2*%
X160751100Y-99253600D03*
X159251100Y-99253600D03*
%TD*%
%TO.C,R12*%
X154501100Y-89753600D03*
X153001100Y-89753600D03*
%TD*%
D23*
%TO.C,C7*%
X174751100Y-102378600D03*
X174751100Y-104128600D03*
%TD*%
D18*
%TO.C,D3*%
X150751100Y-90753600D03*
X149251100Y-90753600D03*
%TD*%
D24*
%TO.C,Y1*%
X180226100Y-102103600D03*
X176526100Y-102103600D03*
X176526100Y-104403600D03*
X180226100Y-104403600D03*
%TD*%
D25*
%TO.C,C2*%
X160876100Y-93003600D03*
X159126100Y-93003600D03*
%TD*%
D12*
%TO.C,BTN1*%
X160001100Y-91003600D03*
%TD*%
D19*
%TO.C,R11*%
X154501100Y-91003600D03*
X153001100Y-91003600D03*
%TD*%
D26*
%TO.C,JP1*%
X167001100Y-103880600D03*
D27*
X164461100Y-103626600D03*
X161921100Y-103880600D03*
X159381100Y-103626600D03*
%TD*%
D28*
%TO.C,Q1*%
X177901100Y-90053600D03*
X177901100Y-91953600D03*
X180101100Y-91003600D03*
%TD*%
D29*
%TO.C,IC3*%
X157601100Y-93528600D03*
X157601100Y-92878600D03*
X157601100Y-92228600D03*
X155901100Y-92228600D03*
X155901100Y-93528600D03*
%TD*%
D30*
%TO.C,R6*%
X174501100Y-91753600D03*
X174501100Y-90253600D03*
%TD*%
D25*
%TO.C,C5*%
X160876100Y-101753600D03*
X159126100Y-101753600D03*
%TD*%
D31*
%TO.C,C1*%
X159126100Y-94253600D03*
X160876100Y-94253600D03*
%TD*%
D25*
%TO.C,C4*%
X185200000Y-104200000D03*
X186950000Y-104200000D03*
%TD*%
D19*
%TO.C,R13*%
X172126100Y-101753600D03*
X170626100Y-101753600D03*
%TD*%
D18*
%TO.C,D1*%
X150751100Y-92753600D03*
X149251100Y-92753600D03*
%TD*%
D23*
%TO.C,C3*%
X173501100Y-102378600D03*
X173501100Y-104128600D03*
%TD*%
D20*
%TO.C,R4*%
X159251100Y-95503600D03*
X160751100Y-95503600D03*
%TD*%
D19*
%TO.C,R3*%
X160751100Y-98003600D03*
X159251100Y-98003600D03*
%TD*%
D32*
%TO.C,IC1*%
X171251100Y-100003600D03*
X171251100Y-99503600D03*
X171251100Y-99003600D03*
X171251100Y-98503600D03*
X171251100Y-98003600D03*
X171251100Y-97503600D03*
X171251100Y-97003600D03*
X171251100Y-96503600D03*
X171251100Y-96003600D03*
X171251100Y-95503600D03*
X171251100Y-95003600D03*
X171251100Y-94503600D03*
D33*
X169751100Y-93003600D03*
X169251100Y-93003600D03*
X168751100Y-93003600D03*
X168251100Y-93003600D03*
X167751100Y-93003600D03*
X167251100Y-93003600D03*
X166751100Y-93003600D03*
X166251100Y-93003600D03*
X165751100Y-93003600D03*
X165251100Y-93003600D03*
X164751100Y-93003600D03*
X164251100Y-93003600D03*
D32*
X162751100Y-94503600D03*
X162751100Y-95003600D03*
X162751100Y-95503600D03*
X162751100Y-96003600D03*
X162751100Y-96503600D03*
X162751100Y-97003600D03*
X162751100Y-97503600D03*
X162751100Y-98003600D03*
X162751100Y-98503600D03*
X162751100Y-99003600D03*
X162751100Y-99503600D03*
X162751100Y-100003600D03*
D33*
X164251100Y-101503600D03*
X164751100Y-101503600D03*
X165251100Y-101503600D03*
X165751100Y-101503600D03*
X166251100Y-101503600D03*
X166751100Y-101503600D03*
X167251100Y-101503600D03*
X167751100Y-101503600D03*
X168251100Y-101503600D03*
X168751100Y-101503600D03*
X169251100Y-101503600D03*
X169751100Y-101503600D03*
%TD*%
D25*
%TO.C,C8*%
X182050000Y-104200000D03*
X183800000Y-104200000D03*
%TD*%
D23*
%TO.C,C6*%
X173001100Y-90128600D03*
X173001100Y-91878600D03*
%TD*%
D19*
%TO.C,R9*%
X154501100Y-93503600D03*
X153001100Y-93503600D03*
%TD*%
D18*
%TO.C,D4*%
X150751100Y-89753600D03*
X149251100Y-89753600D03*
%TD*%
M02*
