%TF.GenerationSoftware,KiCad,Pcbnew,(6.0.7)*%
%TF.CreationDate,2022-08-30T17:51:16+02:00*%
%TF.ProjectId,blackmagic_richardeoin,626c6163-6b6d-4616-9769-635f72696368,rev?*%
%TF.SameCoordinates,Original*%
%TF.FileFunction,Soldermask,Bot*%
%TF.FilePolarity,Negative*%
%FSLAX46Y46*%
G04 Gerber Fmt 4.6, Leading zero omitted, Abs format (unit mm)*
G04 Created by KiCad (PCBNEW (6.0.7)) date 2022-08-30 17:51:16*
%MOMM*%
%LPD*%
G01*
G04 APERTURE LIST*
G04 Aperture macros list*
%AMRoundRect*
0 Rectangle with rounded corners*
0 $1 Rounding radius*
0 $2 $3 $4 $5 $6 $7 $8 $9 X,Y pos of 4 corners*
0 Add a 4 corners polygon primitive as box body*
4,1,4,$2,$3,$4,$5,$6,$7,$8,$9,$2,$3,0*
0 Add four circle primitives for the rounded corners*
1,1,$1+$1,$2,$3*
1,1,$1+$1,$4,$5*
1,1,$1+$1,$6,$7*
1,1,$1+$1,$8,$9*
0 Add four rect primitives between the rounded corners*
20,1,$1+$1,$2,$3,$4,$5,0*
20,1,$1+$1,$4,$5,$6,$7,0*
20,1,$1+$1,$6,$7,$8,$9,0*
20,1,$1+$1,$8,$9,$2,$3,0*%
G04 Aperture macros list end*
%ADD10C,0.150000*%
%ADD11C,0.850000*%
%ADD12C,1.000000*%
%ADD13RoundRect,0.075000X-0.939800X0.939800X-0.939800X-0.939800X0.939800X-0.939800X0.939800X0.939800X0*%
%ADD14C,2.029600*%
G04 APERTURE END LIST*
D10*
X180917885Y-90017885D02*
X180796457Y-90058361D01*
X180755980Y-90098838D01*
X180715504Y-90179790D01*
X180715504Y-90301219D01*
X180755980Y-90382171D01*
X180796457Y-90422647D01*
X180877409Y-90463123D01*
X181201219Y-90463123D01*
X181201219Y-89613123D01*
X180917885Y-89613123D01*
X180836933Y-89653600D01*
X180796457Y-89694076D01*
X180755980Y-89775028D01*
X180755980Y-89855980D01*
X180796457Y-89936933D01*
X180836933Y-89977409D01*
X180917885Y-90017885D01*
X181201219Y-90017885D01*
X180229790Y-90463123D02*
X180310742Y-90422647D01*
X180351219Y-90341695D01*
X180351219Y-89613123D01*
X179541695Y-90463123D02*
X179541695Y-90017885D01*
X179582171Y-89936933D01*
X179663123Y-89896457D01*
X179825028Y-89896457D01*
X179905980Y-89936933D01*
X179541695Y-90422647D02*
X179622647Y-90463123D01*
X179825028Y-90463123D01*
X179905980Y-90422647D01*
X179946457Y-90341695D01*
X179946457Y-90260742D01*
X179905980Y-90179790D01*
X179825028Y-90139314D01*
X179622647Y-90139314D01*
X179541695Y-90098838D01*
X178772647Y-90422647D02*
X178853600Y-90463123D01*
X179015504Y-90463123D01*
X179096457Y-90422647D01*
X179136933Y-90382171D01*
X179177409Y-90301219D01*
X179177409Y-90058361D01*
X179136933Y-89977409D01*
X179096457Y-89936933D01*
X179015504Y-89896457D01*
X178853600Y-89896457D01*
X178772647Y-89936933D01*
X178408361Y-90463123D02*
X178408361Y-89613123D01*
X178327409Y-90139314D02*
X178084552Y-90463123D01*
X178084552Y-89896457D02*
X178408361Y-90220266D01*
X177720266Y-90463123D02*
X177720266Y-89896457D01*
X177720266Y-89977409D02*
X177679790Y-89936933D01*
X177598838Y-89896457D01*
X177477409Y-89896457D01*
X177396457Y-89936933D01*
X177355980Y-90017885D01*
X177355980Y-90463123D01*
X177355980Y-90017885D02*
X177315504Y-89936933D01*
X177234552Y-89896457D01*
X177113123Y-89896457D01*
X177032171Y-89936933D01*
X176991695Y-90017885D01*
X176991695Y-90463123D01*
X176222647Y-90463123D02*
X176222647Y-90017885D01*
X176263123Y-89936933D01*
X176344076Y-89896457D01*
X176505980Y-89896457D01*
X176586933Y-89936933D01*
X176222647Y-90422647D02*
X176303600Y-90463123D01*
X176505980Y-90463123D01*
X176586933Y-90422647D01*
X176627409Y-90341695D01*
X176627409Y-90260742D01*
X176586933Y-90179790D01*
X176505980Y-90139314D01*
X176303600Y-90139314D01*
X176222647Y-90098838D01*
X175453600Y-89896457D02*
X175453600Y-90584552D01*
X175494076Y-90665504D01*
X175534552Y-90705980D01*
X175615504Y-90746457D01*
X175736933Y-90746457D01*
X175817885Y-90705980D01*
X175453600Y-90422647D02*
X175534552Y-90463123D01*
X175696457Y-90463123D01*
X175777409Y-90422647D01*
X175817885Y-90382171D01*
X175858361Y-90301219D01*
X175858361Y-90058361D01*
X175817885Y-89977409D01*
X175777409Y-89936933D01*
X175696457Y-89896457D01*
X175534552Y-89896457D01*
X175453600Y-89936933D01*
X175048838Y-90463123D02*
X175048838Y-89896457D01*
X175048838Y-89613123D02*
X175089314Y-89653600D01*
X175048838Y-89694076D01*
X175008361Y-89653600D01*
X175048838Y-89613123D01*
X175048838Y-89694076D01*
X174279790Y-90422647D02*
X174360742Y-90463123D01*
X174522647Y-90463123D01*
X174603600Y-90422647D01*
X174644076Y-90382171D01*
X174684552Y-90301219D01*
X174684552Y-90058361D01*
X174644076Y-89977409D01*
X174603600Y-89936933D01*
X174522647Y-89896457D01*
X174360742Y-89896457D01*
X174279790Y-89936933D01*
X173267885Y-90463123D02*
X173267885Y-89613123D01*
X173065504Y-89613123D01*
X172944076Y-89653600D01*
X172863123Y-89734552D01*
X172822647Y-89815504D01*
X172782171Y-89977409D01*
X172782171Y-90098838D01*
X172822647Y-90260742D01*
X172863123Y-90341695D01*
X172944076Y-90422647D01*
X173065504Y-90463123D01*
X173267885Y-90463123D01*
X172094076Y-90422647D02*
X172175028Y-90463123D01*
X172336933Y-90463123D01*
X172417885Y-90422647D01*
X172458361Y-90341695D01*
X172458361Y-90017885D01*
X172417885Y-89936933D01*
X172336933Y-89896457D01*
X172175028Y-89896457D01*
X172094076Y-89936933D01*
X172053600Y-90017885D01*
X172053600Y-90098838D01*
X172458361Y-90179790D01*
X171689314Y-90463123D02*
X171689314Y-89613123D01*
X171689314Y-89936933D02*
X171608361Y-89896457D01*
X171446457Y-89896457D01*
X171365504Y-89936933D01*
X171325028Y-89977409D01*
X171284552Y-90058361D01*
X171284552Y-90301219D01*
X171325028Y-90382171D01*
X171365504Y-90422647D01*
X171446457Y-90463123D01*
X171608361Y-90463123D01*
X171689314Y-90422647D01*
X170555980Y-89896457D02*
X170555980Y-90463123D01*
X170920266Y-89896457D02*
X170920266Y-90341695D01*
X170879790Y-90422647D01*
X170798838Y-90463123D01*
X170677409Y-90463123D01*
X170596457Y-90422647D01*
X170555980Y-90382171D01*
X169786933Y-89896457D02*
X169786933Y-90584552D01*
X169827409Y-90665504D01*
X169867885Y-90705980D01*
X169948838Y-90746457D01*
X170070266Y-90746457D01*
X170151219Y-90705980D01*
X169786933Y-90422647D02*
X169867885Y-90463123D01*
X170029790Y-90463123D01*
X170110742Y-90422647D01*
X170151219Y-90382171D01*
X170191695Y-90301219D01*
X170191695Y-90058361D01*
X170151219Y-89977409D01*
X170110742Y-89936933D01*
X170029790Y-89896457D01*
X169867885Y-89896457D01*
X169786933Y-89936933D01*
X168734552Y-90463123D02*
X168734552Y-89613123D01*
X168410742Y-89613123D01*
X168329790Y-89653600D01*
X168289314Y-89694076D01*
X168248838Y-89775028D01*
X168248838Y-89896457D01*
X168289314Y-89977409D01*
X168329790Y-90017885D01*
X168410742Y-90058361D01*
X168734552Y-90058361D01*
X167884552Y-90463123D02*
X167884552Y-89896457D01*
X167884552Y-90058361D02*
X167844076Y-89977409D01*
X167803600Y-89936933D01*
X167722647Y-89896457D01*
X167641695Y-89896457D01*
X167236933Y-90463123D02*
X167317885Y-90422647D01*
X167358361Y-90382171D01*
X167398838Y-90301219D01*
X167398838Y-90058361D01*
X167358361Y-89977409D01*
X167317885Y-89936933D01*
X167236933Y-89896457D01*
X167115504Y-89896457D01*
X167034552Y-89936933D01*
X166994076Y-89977409D01*
X166953600Y-90058361D01*
X166953600Y-90301219D01*
X166994076Y-90382171D01*
X167034552Y-90422647D01*
X167115504Y-90463123D01*
X167236933Y-90463123D01*
X166589314Y-90463123D02*
X166589314Y-89613123D01*
X166589314Y-89936933D02*
X166508361Y-89896457D01*
X166346457Y-89896457D01*
X166265504Y-89936933D01*
X166225028Y-89977409D01*
X166184552Y-90058361D01*
X166184552Y-90301219D01*
X166225028Y-90382171D01*
X166265504Y-90422647D01*
X166346457Y-90463123D01*
X166508361Y-90463123D01*
X166589314Y-90422647D01*
X165496457Y-90422647D02*
X165577409Y-90463123D01*
X165739314Y-90463123D01*
X165820266Y-90422647D01*
X165860742Y-90341695D01*
X165860742Y-90017885D01*
X165820266Y-89936933D01*
X165739314Y-89896457D01*
X165577409Y-89896457D01*
X165496457Y-89936933D01*
X165455980Y-90017885D01*
X165455980Y-90098838D01*
X165860742Y-90179790D01*
X151041576Y-100448719D02*
X150353480Y-100448719D01*
X150272528Y-100408242D01*
X150232052Y-100367766D01*
X150191576Y-100286814D01*
X150191576Y-100124909D01*
X150232052Y-100043957D01*
X150272528Y-100003480D01*
X150353480Y-99963004D01*
X151041576Y-99963004D01*
X150232052Y-99598719D02*
X150191576Y-99477290D01*
X150191576Y-99274909D01*
X150232052Y-99193957D01*
X150272528Y-99153480D01*
X150353480Y-99113004D01*
X150434433Y-99113004D01*
X150515385Y-99153480D01*
X150555861Y-99193957D01*
X150596338Y-99274909D01*
X150636814Y-99436814D01*
X150677290Y-99517766D01*
X150717766Y-99558242D01*
X150798719Y-99598719D01*
X150879671Y-99598719D01*
X150960623Y-99558242D01*
X151001100Y-99517766D01*
X151041576Y-99436814D01*
X151041576Y-99234433D01*
X151001100Y-99113004D01*
X150636814Y-98465385D02*
X150596338Y-98343957D01*
X150555861Y-98303480D01*
X150474909Y-98263004D01*
X150353480Y-98263004D01*
X150272528Y-98303480D01*
X150232052Y-98343957D01*
X150191576Y-98424909D01*
X150191576Y-98748719D01*
X151041576Y-98748719D01*
X151041576Y-98465385D01*
X151001100Y-98384433D01*
X150960623Y-98343957D01*
X150879671Y-98303480D01*
X150798719Y-98303480D01*
X150717766Y-98343957D01*
X150677290Y-98384433D01*
X150636814Y-98465385D01*
X150636814Y-98748719D01*
X165322647Y-101613123D02*
X164836933Y-101613123D01*
X165079790Y-102463123D02*
X165079790Y-101613123D01*
X164634552Y-102463123D02*
X164189314Y-101896457D01*
X164634552Y-101896457D02*
X164189314Y-102463123D01*
X163258361Y-101572647D02*
X163986933Y-102665504D01*
X162489314Y-102463123D02*
X162772647Y-102058361D01*
X162975028Y-102463123D02*
X162975028Y-101613123D01*
X162651219Y-101613123D01*
X162570266Y-101653600D01*
X162529790Y-101694076D01*
X162489314Y-101775028D01*
X162489314Y-101896457D01*
X162529790Y-101977409D01*
X162570266Y-102017885D01*
X162651219Y-102058361D01*
X162975028Y-102058361D01*
X162205980Y-102463123D02*
X161760742Y-101896457D01*
X162205980Y-101896457D02*
X161760742Y-102463123D01*
X186717766Y-90263004D02*
X186717766Y-90667766D01*
X186960623Y-90182052D02*
X186110623Y-90465385D01*
X186960623Y-90748719D01*
X186960623Y-91517766D02*
X186555861Y-91234433D01*
X186960623Y-91032052D02*
X186110623Y-91032052D01*
X186110623Y-91355861D01*
X186151100Y-91436814D01*
X186191576Y-91477290D01*
X186272528Y-91517766D01*
X186393957Y-91517766D01*
X186474909Y-91477290D01*
X186515385Y-91436814D01*
X186555861Y-91355861D01*
X186555861Y-91032052D01*
X186960623Y-91882052D02*
X186110623Y-91882052D01*
X186717766Y-92165385D01*
X186110623Y-92448719D01*
X186960623Y-92448719D01*
X186879671Y-93986814D02*
X186920147Y-93946338D01*
X186960623Y-93824909D01*
X186960623Y-93743957D01*
X186920147Y-93622528D01*
X186839195Y-93541576D01*
X186758242Y-93501100D01*
X186596338Y-93460623D01*
X186474909Y-93460623D01*
X186313004Y-93501100D01*
X186232052Y-93541576D01*
X186151100Y-93622528D01*
X186110623Y-93743957D01*
X186110623Y-93824909D01*
X186151100Y-93946338D01*
X186191576Y-93986814D01*
X186960623Y-94472528D02*
X186920147Y-94391576D01*
X186879671Y-94351100D01*
X186798719Y-94310623D01*
X186555861Y-94310623D01*
X186474909Y-94351100D01*
X186434433Y-94391576D01*
X186393957Y-94472528D01*
X186393957Y-94593957D01*
X186434433Y-94674909D01*
X186474909Y-94715385D01*
X186555861Y-94755861D01*
X186798719Y-94755861D01*
X186879671Y-94715385D01*
X186920147Y-94674909D01*
X186960623Y-94593957D01*
X186960623Y-94472528D01*
X186960623Y-95120147D02*
X186393957Y-95120147D01*
X186555861Y-95120147D02*
X186474909Y-95160623D01*
X186434433Y-95201100D01*
X186393957Y-95282052D01*
X186393957Y-95363004D01*
X186393957Y-95524909D02*
X186393957Y-95848719D01*
X186110623Y-95646338D02*
X186839195Y-95646338D01*
X186920147Y-95686814D01*
X186960623Y-95767766D01*
X186960623Y-95848719D01*
X186920147Y-96455861D02*
X186960623Y-96374909D01*
X186960623Y-96213004D01*
X186920147Y-96132052D01*
X186839195Y-96091576D01*
X186515385Y-96091576D01*
X186434433Y-96132052D01*
X186393957Y-96213004D01*
X186393957Y-96374909D01*
X186434433Y-96455861D01*
X186515385Y-96496338D01*
X186596338Y-96496338D01*
X186677290Y-96091576D01*
X186960623Y-96779671D02*
X186393957Y-97224909D01*
X186393957Y-96779671D02*
X186960623Y-97224909D01*
X186960623Y-98196338D02*
X186110623Y-98196338D01*
X186110623Y-98398719D01*
X186151100Y-98520147D01*
X186232052Y-98601100D01*
X186313004Y-98641576D01*
X186474909Y-98682052D01*
X186596338Y-98682052D01*
X186758242Y-98641576D01*
X186839195Y-98601100D01*
X186920147Y-98520147D01*
X186960623Y-98398719D01*
X186960623Y-98196338D01*
X186920147Y-99370147D02*
X186960623Y-99289195D01*
X186960623Y-99127290D01*
X186920147Y-99046338D01*
X186839195Y-99005861D01*
X186515385Y-99005861D01*
X186434433Y-99046338D01*
X186393957Y-99127290D01*
X186393957Y-99289195D01*
X186434433Y-99370147D01*
X186515385Y-99410623D01*
X186596338Y-99410623D01*
X186677290Y-99005861D01*
X186960623Y-99774909D02*
X186110623Y-99774909D01*
X186434433Y-99774909D02*
X186393957Y-99855861D01*
X186393957Y-100017766D01*
X186434433Y-100098719D01*
X186474909Y-100139195D01*
X186555861Y-100179671D01*
X186798719Y-100179671D01*
X186879671Y-100139195D01*
X186920147Y-100098719D01*
X186960623Y-100017766D01*
X186960623Y-99855861D01*
X186920147Y-99774909D01*
X186393957Y-100908242D02*
X186960623Y-100908242D01*
X186393957Y-100543957D02*
X186839195Y-100543957D01*
X186920147Y-100584433D01*
X186960623Y-100665385D01*
X186960623Y-100786814D01*
X186920147Y-100867766D01*
X186879671Y-100908242D01*
X186393957Y-101677290D02*
X187082052Y-101677290D01*
X187163004Y-101636814D01*
X187203480Y-101596338D01*
X187243957Y-101515385D01*
X187243957Y-101393957D01*
X187203480Y-101313004D01*
X186920147Y-101677290D02*
X186960623Y-101596338D01*
X186960623Y-101434433D01*
X186920147Y-101353480D01*
X186879671Y-101313004D01*
X186798719Y-101272528D01*
X186555861Y-101272528D01*
X186474909Y-101313004D01*
X186434433Y-101353480D01*
X186393957Y-101434433D01*
X186393957Y-101596338D01*
X186434433Y-101677290D01*
D11*
%TO.C,BTN2*%
X170376100Y-103753600D03*
%TD*%
D12*
%TO.C,CN1*%
X154001100Y-101703600D03*
X154001100Y-97303600D03*
%TD*%
D11*
%TO.C,BTN1*%
X160001100Y-91003600D03*
%TD*%
D13*
%TO.C,JP1*%
X167001100Y-103880600D03*
D14*
X164461100Y-103626600D03*
X161921100Y-103880600D03*
X159381100Y-103626600D03*
%TD*%
M02*
