%TF.GenerationSoftware,KiCad,Pcbnew,(6.0.7)*%
%TF.CreationDate,2022-09-08T10:14:31+02:00*%
%TF.ProjectId,esp8266_KiCAD,65737038-3236-4365-9f4b-694341442e6b,rev?*%
%TF.SameCoordinates,Original*%
%TF.FileFunction,Soldermask,Top*%
%TF.FilePolarity,Negative*%
%FSLAX46Y46*%
G04 Gerber Fmt 4.6, Leading zero omitted, Abs format (unit mm)*
G04 Created by KiCad (PCBNEW (6.0.7)) date 2022-09-08 10:14:31*
%MOMM*%
%LPD*%
G01*
G04 APERTURE LIST*
G04 Aperture macros list*
%AMRoundRect*
0 Rectangle with rounded corners*
0 $1 Rounding radius*
0 $2 $3 $4 $5 $6 $7 $8 $9 X,Y pos of 4 corners*
0 Add a 4 corners polygon primitive as box body*
4,1,4,$2,$3,$4,$5,$6,$7,$8,$9,$2,$3,0*
0 Add four circle primitives for the rounded corners*
1,1,$1+$1,$2,$3*
1,1,$1+$1,$4,$5*
1,1,$1+$1,$6,$7*
1,1,$1+$1,$8,$9*
0 Add four rect primitives between the rounded corners*
20,1,$1+$1,$2,$3,$4,$5,0*
20,1,$1+$1,$4,$5,$6,$7,0*
20,1,$1+$1,$6,$7,$8,$9,0*
20,1,$1+$1,$8,$9,$2,$3,0*%
G04 Aperture macros list end*
%ADD10R,3.000000X0.900000*%
%ADD11R,1.700000X1.700000*%
%ADD12O,1.700000X1.700000*%
%ADD13RoundRect,0.135000X0.185000X-0.135000X0.185000X0.135000X-0.185000X0.135000X-0.185000X-0.135000X0*%
%ADD14RoundRect,0.135000X-0.185000X0.135000X-0.185000X-0.135000X0.185000X-0.135000X0.185000X0.135000X0*%
%ADD15RoundRect,0.150000X0.150000X-0.587500X0.150000X0.587500X-0.150000X0.587500X-0.150000X-0.587500X0*%
%ADD16RoundRect,0.140000X0.170000X-0.140000X0.170000X0.140000X-0.170000X0.140000X-0.170000X-0.140000X0*%
G04 APERTURE END LIST*
D10*
%TO.C,J3*%
X91750000Y-53740000D03*
X87850000Y-53740000D03*
X91750000Y-52470000D03*
X87850000Y-52470000D03*
X91750000Y-51200000D03*
X87850000Y-51200000D03*
X91750000Y-49930000D03*
X87850000Y-49930000D03*
X91750000Y-48660000D03*
X87850000Y-48660000D03*
%TD*%
D11*
%TO.C,U2*%
X73775000Y-50840000D03*
D12*
X76315000Y-50840000D03*
X78855000Y-50840000D03*
X81395000Y-50840000D03*
X73775000Y-53380000D03*
X76315000Y-53380000D03*
X78855000Y-53380000D03*
X81395000Y-53380000D03*
%TD*%
D13*
%TO.C,R4*%
X85700000Y-41515000D03*
X85700000Y-42535000D03*
%TD*%
D14*
%TO.C,R3*%
X85675000Y-39265000D03*
X85675000Y-40285000D03*
%TD*%
D13*
%TO.C,R2*%
X85675000Y-37065000D03*
X85675000Y-38085000D03*
%TD*%
D14*
%TO.C,R1*%
X85675000Y-45590000D03*
X85675000Y-46610000D03*
%TD*%
D11*
%TO.C,J1*%
X92225000Y-31575000D03*
D12*
X92225000Y-34115000D03*
X92225000Y-36655000D03*
X92225000Y-39195000D03*
X92225000Y-41735000D03*
X92225000Y-44275000D03*
%TD*%
D15*
%TO.C,D2*%
X87050000Y-36612500D03*
X88950000Y-36612500D03*
X88000000Y-34737500D03*
%TD*%
%TO.C,D1*%
X87075000Y-32612500D03*
X88975000Y-32612500D03*
X88025000Y-30737500D03*
%TD*%
D16*
%TO.C,C2*%
X88025000Y-39530000D03*
X88025000Y-38570000D03*
%TD*%
%TO.C,C1*%
X85700000Y-44555000D03*
X85700000Y-43595000D03*
%TD*%
M02*
