M48
; DRILL file {KiCad (6.0.7)} date Thu Sep  8 10:14:33 2022
; FORMAT={2:4/ absolute / inch / suppress leading zeros}
; #@! TF.CreationDate,2022-09-08T10:14:33+02:00
; #@! TF.GenerationSoftware,Kicad,Pcbnew,(6.0.7)
; #@! TF.FileFunction,Plated,1,2,PTH
FMAT,2
INCH,TZ
; #@! TA.AperFunction,Plated,PTH,ViaDrill
T1C0.0120
; #@! TA.AperFunction,Plated,PTH,ComponentDrill
T2C0.0394
%
G90
G05
T1
X28012Y-15187
X28041Y-16122
X28071Y-17126
X28071Y-18169
X28071Y-19016
X28071Y-19941
X28091Y-21102
X28474Y-14744
X29469Y-17490
X29577Y-14803
X30079Y-18504
X30472Y-16024
X30512Y-14774
X31427Y-18957
X31526Y-17362
X31604Y-15364
X32441Y-18858
X32451Y-17657
X32520Y-16831
X32598Y-15384
X32795Y-13957
X33031Y-21378
X33159Y-15010
X33287Y-16033
X33386Y-21063
X33435Y-20443
X34075Y-17992
X34173Y-13652
X34547Y-16201
X35266Y-17992
X35354Y-15787
X35364Y-21486
X35374Y-15039
X36870Y-18278
X36880Y-14596
X36890Y-21457
T2
X29045Y-20016
X29045Y-21016
X30045Y-20016
X30045Y-21016
X31045Y-20016
X31045Y-21016
X32045Y-20016
X32045Y-21016
X36309Y-12431
X36309Y-13431
X36309Y-14431
X36309Y-15431
X36309Y-16431
X36309Y-17431
T0
M30
