%TF.GenerationSoftware,KiCad,Pcbnew,(6.0.7)*%
%TF.CreationDate,2022-09-08T10:14:31+02:00*%
%TF.ProjectId,esp8266_KiCAD,65737038-3236-4365-9f4b-694341442e6b,rev?*%
%TF.SameCoordinates,Original*%
%TF.FileFunction,Copper,L2,Bot*%
%TF.FilePolarity,Positive*%
%FSLAX46Y46*%
G04 Gerber Fmt 4.6, Leading zero omitted, Abs format (unit mm)*
G04 Created by KiCad (PCBNEW (6.0.7)) date 2022-09-08 10:14:31*
%MOMM*%
%LPD*%
G01*
G04 APERTURE LIST*
%TA.AperFunction,ComponentPad*%
%ADD10R,1.700000X1.700000*%
%TD*%
%TA.AperFunction,ComponentPad*%
%ADD11O,1.700000X1.700000*%
%TD*%
%TA.AperFunction,ViaPad*%
%ADD12C,0.558800*%
%TD*%
%TA.AperFunction,Conductor*%
%ADD13C,0.200000*%
%TD*%
G04 APERTURE END LIST*
D10*
%TO.P,U2,1,Pin_2*%
%TO.N,GND*%
X73775000Y-50840000D03*
D11*
%TO.P,U2,2,Pin_4*%
%TO.N,/TMS*%
X76315000Y-50840000D03*
%TO.P,U2,3,Pin_6*%
%TO.N,Net-(D2-Pad1)*%
X78855000Y-50840000D03*
%TO.P,U2,4,Pin_8*%
%TO.N,/TCK*%
X81395000Y-50840000D03*
%TO.P,U2,5,Pin_1*%
%TO.N,Net-(J1-Pad5)*%
X73775000Y-53380000D03*
%TO.P,U2,6,Pin_3*%
%TO.N,Net-(C2-Pad1)*%
X76315000Y-53380000D03*
%TO.P,U2,7,Pin_5*%
%TO.N,unconnected-(U2-Pad7)*%
X78855000Y-53380000D03*
%TO.P,U2,8,Pin_7*%
%TO.N,+3V3*%
X81395000Y-53380000D03*
%TD*%
D10*
%TO.P,J1,1,Pin_1*%
%TO.N,GND*%
X92225000Y-31575000D03*
D11*
%TO.P,J1,2,Pin_2*%
%TO.N,unconnected-(J1-Pad2)*%
X92225000Y-34115000D03*
%TO.P,J1,3,Pin_3*%
%TO.N,unconnected-(J1-Pad3)*%
X92225000Y-36655000D03*
%TO.P,J1,4,Pin_4*%
%TO.N,Net-(D1-Pad3)*%
X92225000Y-39195000D03*
%TO.P,J1,5,Pin_5*%
%TO.N,Net-(J1-Pad5)*%
X92225000Y-41735000D03*
%TO.P,J1,6,Pin_6*%
%TO.N,Net-(D2-Pad2)*%
X92225000Y-44275000D03*
%TD*%
D12*
%TO.N,GND*%
X75125000Y-37600000D03*
X77500000Y-37525000D03*
X76400000Y-47000000D03*
X80275000Y-39025000D03*
X80075000Y-44100000D03*
X79825000Y-48150000D03*
X82400000Y-47900000D03*
X82425000Y-44850000D03*
X82600000Y-42750000D03*
X82800000Y-39075000D03*
X84225000Y-38125000D03*
X93675000Y-37075000D03*
X89800000Y-40100000D03*
X89850000Y-38200000D03*
X93650000Y-46425000D03*
X89575000Y-45700000D03*
X86550000Y-45700000D03*
X93700000Y-54500000D03*
X89825000Y-54575000D03*
X83900000Y-54300000D03*
X71350000Y-53600000D03*
X71300000Y-50650000D03*
X71300000Y-48300000D03*
X71300000Y-46150000D03*
X71300000Y-43500000D03*
X71225000Y-40950000D03*
X71150000Y-38575000D03*
X72325000Y-37450000D03*
%TO.N,Net-(D2-Pad1)*%
X86800000Y-34675000D03*
%TO.N,Net-(C2-Pad1)*%
X87750000Y-41150000D03*
X84550000Y-40725000D03*
%TO.N,/TMS*%
X84800000Y-53500000D03*
%TO.N,/TCK*%
X84925000Y-51925000D03*
%TO.N,Net-(D2-Pad1)*%
X83300000Y-35450000D03*
%TO.N,Net-(C2-Pad1)*%
X77400000Y-40700000D03*
%TO.N,Net-(J1-Pad5)*%
X74850000Y-44425000D03*
%TD*%
D13*
%TO.N,/TMS*%
X77400000Y-52050000D02*
X83350000Y-52050000D01*
X83350000Y-52050000D02*
X84800000Y-53500000D01*
X76190000Y-50840000D02*
X77400000Y-52050000D01*
%TO.N,/TCK*%
X83840000Y-50840000D02*
X84925000Y-51925000D01*
X81270000Y-50840000D02*
X83840000Y-50840000D01*
%TO.N,Net-(J1-Pad5)*%
X74850000Y-44425000D02*
X77540000Y-41735000D01*
X77540000Y-41735000D02*
X92225000Y-41735000D01*
%TO.N,Net-(D2-Pad1)*%
X86025000Y-35450000D02*
X86800000Y-34675000D01*
X83300000Y-35450000D02*
X86025000Y-35450000D01*
%TO.N,Net-(C2-Pad1)*%
X84550000Y-40725000D02*
X87325000Y-40725000D01*
X87325000Y-40725000D02*
X87750000Y-41150000D01*
X84525000Y-40700000D02*
X84550000Y-40725000D01*
X77400000Y-40700000D02*
X84525000Y-40700000D01*
%TD*%
%TA.AperFunction,Conductor*%
%TO.N,GND*%
G36*
X93976025Y-36709240D02*
G01*
X93985100Y-36731052D01*
X93985100Y-54866350D01*
X93976094Y-54888094D01*
X93954350Y-54897100D01*
X70445650Y-54897100D01*
X70423906Y-54888094D01*
X70414900Y-54866350D01*
X70414900Y-53365262D01*
X72719520Y-53365262D01*
X72719646Y-53366763D01*
X72731730Y-53510661D01*
X72736759Y-53570553D01*
X72737173Y-53571996D01*
X72790474Y-53757878D01*
X72793544Y-53768586D01*
X72887712Y-53951818D01*
X72888646Y-53952996D01*
X72888647Y-53952998D01*
X73014745Y-54112095D01*
X73014749Y-54112099D01*
X73015677Y-54113270D01*
X73172564Y-54246791D01*
X73173870Y-54247521D01*
X73173873Y-54247523D01*
X73351084Y-54346563D01*
X73351087Y-54346564D01*
X73352398Y-54347297D01*
X73548329Y-54410959D01*
X73638255Y-54421682D01*
X73751405Y-54435174D01*
X73751411Y-54435174D01*
X73752894Y-54435351D01*
X73754389Y-54435236D01*
X73754392Y-54435236D01*
X73956796Y-54419662D01*
X73956799Y-54419662D01*
X73958300Y-54419546D01*
X73959748Y-54419142D01*
X73959752Y-54419141D01*
X74074046Y-54387229D01*
X74156725Y-54364145D01*
X74340610Y-54271258D01*
X74502951Y-54144424D01*
X74530857Y-54112095D01*
X74636585Y-53989606D01*
X74637564Y-53988472D01*
X74642070Y-53980541D01*
X74738581Y-53810650D01*
X74739323Y-53809344D01*
X74752695Y-53769147D01*
X74803878Y-53615286D01*
X74803879Y-53615282D01*
X74804351Y-53613863D01*
X74810012Y-53569055D01*
X74830065Y-53410313D01*
X74830171Y-53409474D01*
X74830583Y-53380000D01*
X74829138Y-53365262D01*
X75259520Y-53365262D01*
X75259646Y-53366763D01*
X75271730Y-53510661D01*
X75276759Y-53570553D01*
X75277173Y-53571996D01*
X75330474Y-53757878D01*
X75333544Y-53768586D01*
X75427712Y-53951818D01*
X75428646Y-53952996D01*
X75428647Y-53952998D01*
X75554745Y-54112095D01*
X75554749Y-54112099D01*
X75555677Y-54113270D01*
X75712564Y-54246791D01*
X75713870Y-54247521D01*
X75713873Y-54247523D01*
X75891084Y-54346563D01*
X75891087Y-54346564D01*
X75892398Y-54347297D01*
X76088329Y-54410959D01*
X76178255Y-54421682D01*
X76291405Y-54435174D01*
X76291411Y-54435174D01*
X76292894Y-54435351D01*
X76294389Y-54435236D01*
X76294392Y-54435236D01*
X76496796Y-54419662D01*
X76496799Y-54419662D01*
X76498300Y-54419546D01*
X76499748Y-54419142D01*
X76499752Y-54419141D01*
X76614046Y-54387229D01*
X76696725Y-54364145D01*
X76880610Y-54271258D01*
X77042951Y-54144424D01*
X77070857Y-54112095D01*
X77176585Y-53989606D01*
X77177564Y-53988472D01*
X77182070Y-53980541D01*
X77278581Y-53810650D01*
X77279323Y-53809344D01*
X77292695Y-53769147D01*
X77343878Y-53615286D01*
X77343879Y-53615282D01*
X77344351Y-53613863D01*
X77350012Y-53569055D01*
X77370065Y-53410313D01*
X77370171Y-53409474D01*
X77370583Y-53380000D01*
X77350480Y-53174970D01*
X77350048Y-53173539D01*
X77350047Y-53173534D01*
X77303835Y-53020477D01*
X77290935Y-52977749D01*
X77194218Y-52795849D01*
X77139507Y-52728767D01*
X77064961Y-52637364D01*
X77064957Y-52637360D01*
X77064011Y-52636200D01*
X76905275Y-52504882D01*
X76724055Y-52406897D01*
X76527254Y-52345977D01*
X76322369Y-52324443D01*
X76320874Y-52324579D01*
X76320872Y-52324579D01*
X76118705Y-52342977D01*
X76118702Y-52342978D01*
X76117203Y-52343114D01*
X75919572Y-52401280D01*
X75918243Y-52401975D01*
X75918240Y-52401976D01*
X75815158Y-52455866D01*
X75737002Y-52496726D01*
X75735837Y-52497663D01*
X75735835Y-52497664D01*
X75577613Y-52624877D01*
X75577610Y-52624880D01*
X75576447Y-52625815D01*
X75575487Y-52626959D01*
X75575485Y-52626961D01*
X75567733Y-52636200D01*
X75444024Y-52783630D01*
X75344776Y-52964162D01*
X75282484Y-53160532D01*
X75259520Y-53365262D01*
X74829138Y-53365262D01*
X74810480Y-53174970D01*
X74810048Y-53173539D01*
X74810047Y-53173534D01*
X74763835Y-53020477D01*
X74750935Y-52977749D01*
X74654218Y-52795849D01*
X74599507Y-52728767D01*
X74524961Y-52637364D01*
X74524957Y-52637360D01*
X74524011Y-52636200D01*
X74365275Y-52504882D01*
X74184055Y-52406897D01*
X73987254Y-52345977D01*
X73782369Y-52324443D01*
X73780874Y-52324579D01*
X73780872Y-52324579D01*
X73578705Y-52342977D01*
X73578702Y-52342978D01*
X73577203Y-52343114D01*
X73379572Y-52401280D01*
X73378243Y-52401975D01*
X73378240Y-52401976D01*
X73275158Y-52455866D01*
X73197002Y-52496726D01*
X73195837Y-52497663D01*
X73195835Y-52497664D01*
X73037613Y-52624877D01*
X73037610Y-52624880D01*
X73036447Y-52625815D01*
X73035487Y-52626959D01*
X73035485Y-52626961D01*
X73027733Y-52636200D01*
X72904024Y-52783630D01*
X72804776Y-52964162D01*
X72742484Y-53160532D01*
X72719520Y-53365262D01*
X70414900Y-53365262D01*
X70414900Y-51705921D01*
X72748001Y-51705921D01*
X72748296Y-51708920D01*
X72757678Y-51756092D01*
X72759950Y-51761578D01*
X72795707Y-51815091D01*
X72799909Y-51819293D01*
X72853421Y-51855049D01*
X72858909Y-51857322D01*
X72906081Y-51866705D01*
X72909078Y-51867000D01*
X73680383Y-51867000D01*
X73684708Y-51865208D01*
X73686500Y-51860883D01*
X73686500Y-51860882D01*
X73863500Y-51860882D01*
X73865292Y-51865207D01*
X73869617Y-51866999D01*
X74640921Y-51866999D01*
X74643920Y-51866704D01*
X74691092Y-51857322D01*
X74696578Y-51855050D01*
X74750091Y-51819293D01*
X74754293Y-51815091D01*
X74790049Y-51761579D01*
X74792322Y-51756091D01*
X74801705Y-51708919D01*
X74802000Y-51705922D01*
X74802000Y-50934617D01*
X74800208Y-50930292D01*
X74795883Y-50928500D01*
X73869617Y-50928500D01*
X73865292Y-50930292D01*
X73863500Y-50934617D01*
X73863500Y-51860882D01*
X73686500Y-51860882D01*
X73686500Y-50934617D01*
X73684708Y-50930292D01*
X73680383Y-50928500D01*
X72754118Y-50928500D01*
X72749793Y-50930292D01*
X72748001Y-50934617D01*
X72748001Y-51705921D01*
X70414900Y-51705921D01*
X70414900Y-50825262D01*
X75259520Y-50825262D01*
X75276759Y-51030553D01*
X75333544Y-51228586D01*
X75427712Y-51411818D01*
X75428646Y-51412996D01*
X75428647Y-51412998D01*
X75554745Y-51572095D01*
X75554749Y-51572099D01*
X75555677Y-51573270D01*
X75712564Y-51706791D01*
X75713870Y-51707521D01*
X75713873Y-51707523D01*
X75891084Y-51806563D01*
X75891087Y-51806564D01*
X75892398Y-51807297D01*
X76088329Y-51870959D01*
X76178255Y-51881682D01*
X76291405Y-51895174D01*
X76291411Y-51895174D01*
X76292894Y-51895351D01*
X76294389Y-51895236D01*
X76294392Y-51895236D01*
X76496796Y-51879662D01*
X76496799Y-51879662D01*
X76498300Y-51879546D01*
X76499748Y-51879142D01*
X76499752Y-51879141D01*
X76614046Y-51847229D01*
X76696725Y-51824145D01*
X76711703Y-51816579D01*
X76735169Y-51814814D01*
X76747310Y-51822282D01*
X77148345Y-52223317D01*
X77151409Y-52227609D01*
X77151637Y-52227440D01*
X77153327Y-52229716D01*
X77154575Y-52232269D01*
X77156655Y-52234199D01*
X77156657Y-52234201D01*
X77191762Y-52266765D01*
X77192593Y-52267565D01*
X77207276Y-52282248D01*
X77209934Y-52284071D01*
X77213450Y-52286883D01*
X77226702Y-52299176D01*
X77236646Y-52308401D01*
X77239283Y-52309453D01*
X77254390Y-52315480D01*
X77260389Y-52318684D01*
X77273803Y-52327885D01*
X77276146Y-52329492D01*
X77306936Y-52336799D01*
X77311226Y-52338155D01*
X77340622Y-52349883D01*
X77344190Y-52350233D01*
X77346168Y-52350427D01*
X77346173Y-52350427D01*
X77346915Y-52350500D01*
X77361073Y-52350500D01*
X77368173Y-52351331D01*
X77382305Y-52354685D01*
X77382306Y-52354685D01*
X77385066Y-52355340D01*
X77418565Y-52350781D01*
X77422712Y-52350500D01*
X78431514Y-52350500D01*
X78453258Y-52359506D01*
X78462264Y-52381250D01*
X78453258Y-52402994D01*
X78445761Y-52408500D01*
X78277002Y-52496726D01*
X78275837Y-52497663D01*
X78275835Y-52497664D01*
X78117613Y-52624877D01*
X78117610Y-52624880D01*
X78116447Y-52625815D01*
X78115487Y-52626959D01*
X78115485Y-52626961D01*
X78107733Y-52636200D01*
X77984024Y-52783630D01*
X77884776Y-52964162D01*
X77822484Y-53160532D01*
X77799520Y-53365262D01*
X77799646Y-53366763D01*
X77811730Y-53510661D01*
X77816759Y-53570553D01*
X77817173Y-53571996D01*
X77870474Y-53757878D01*
X77873544Y-53768586D01*
X77967712Y-53951818D01*
X77968646Y-53952996D01*
X77968647Y-53952998D01*
X78094745Y-54112095D01*
X78094749Y-54112099D01*
X78095677Y-54113270D01*
X78252564Y-54246791D01*
X78253870Y-54247521D01*
X78253873Y-54247523D01*
X78431084Y-54346563D01*
X78431087Y-54346564D01*
X78432398Y-54347297D01*
X78628329Y-54410959D01*
X78718255Y-54421682D01*
X78831405Y-54435174D01*
X78831411Y-54435174D01*
X78832894Y-54435351D01*
X78834389Y-54435236D01*
X78834392Y-54435236D01*
X79036796Y-54419662D01*
X79036799Y-54419662D01*
X79038300Y-54419546D01*
X79039748Y-54419142D01*
X79039752Y-54419141D01*
X79154046Y-54387229D01*
X79236725Y-54364145D01*
X79420610Y-54271258D01*
X79582951Y-54144424D01*
X79610857Y-54112095D01*
X79716585Y-53989606D01*
X79717564Y-53988472D01*
X79722070Y-53980541D01*
X79818581Y-53810650D01*
X79819323Y-53809344D01*
X79832695Y-53769147D01*
X79883878Y-53615286D01*
X79883879Y-53615282D01*
X79884351Y-53613863D01*
X79890012Y-53569055D01*
X79910065Y-53410313D01*
X79910171Y-53409474D01*
X79910583Y-53380000D01*
X79890480Y-53174970D01*
X79890048Y-53173539D01*
X79890047Y-53173534D01*
X79843835Y-53020477D01*
X79830935Y-52977749D01*
X79734218Y-52795849D01*
X79679507Y-52728767D01*
X79604961Y-52637364D01*
X79604957Y-52637360D01*
X79604011Y-52636200D01*
X79445275Y-52504882D01*
X79266648Y-52408299D01*
X79251805Y-52390035D01*
X79254224Y-52366625D01*
X79272488Y-52351782D01*
X79281273Y-52350500D01*
X80971514Y-52350500D01*
X80993258Y-52359506D01*
X81002264Y-52381250D01*
X80993258Y-52402994D01*
X80985761Y-52408500D01*
X80817002Y-52496726D01*
X80815837Y-52497663D01*
X80815835Y-52497664D01*
X80657613Y-52624877D01*
X80657610Y-52624880D01*
X80656447Y-52625815D01*
X80655487Y-52626959D01*
X80655485Y-52626961D01*
X80647733Y-52636200D01*
X80524024Y-52783630D01*
X80424776Y-52964162D01*
X80362484Y-53160532D01*
X80339520Y-53365262D01*
X80339646Y-53366763D01*
X80351730Y-53510661D01*
X80356759Y-53570553D01*
X80357173Y-53571996D01*
X80410474Y-53757878D01*
X80413544Y-53768586D01*
X80507712Y-53951818D01*
X80508646Y-53952996D01*
X80508647Y-53952998D01*
X80634745Y-54112095D01*
X80634749Y-54112099D01*
X80635677Y-54113270D01*
X80792564Y-54246791D01*
X80793870Y-54247521D01*
X80793873Y-54247523D01*
X80971084Y-54346563D01*
X80971087Y-54346564D01*
X80972398Y-54347297D01*
X81168329Y-54410959D01*
X81258255Y-54421682D01*
X81371405Y-54435174D01*
X81371411Y-54435174D01*
X81372894Y-54435351D01*
X81374389Y-54435236D01*
X81374392Y-54435236D01*
X81576796Y-54419662D01*
X81576799Y-54419662D01*
X81578300Y-54419546D01*
X81579748Y-54419142D01*
X81579752Y-54419141D01*
X81694046Y-54387229D01*
X81776725Y-54364145D01*
X81960610Y-54271258D01*
X82122951Y-54144424D01*
X82150857Y-54112095D01*
X82256585Y-53989606D01*
X82257564Y-53988472D01*
X82262070Y-53980541D01*
X82358581Y-53810650D01*
X82359323Y-53809344D01*
X82372695Y-53769147D01*
X82423878Y-53615286D01*
X82423879Y-53615282D01*
X82424351Y-53613863D01*
X82430012Y-53569055D01*
X82450065Y-53410313D01*
X82450171Y-53409474D01*
X82450583Y-53380000D01*
X82430480Y-53174970D01*
X82430048Y-53173539D01*
X82430047Y-53173534D01*
X82383835Y-53020477D01*
X82370935Y-52977749D01*
X82274218Y-52795849D01*
X82219507Y-52728767D01*
X82144961Y-52637364D01*
X82144957Y-52637360D01*
X82144011Y-52636200D01*
X81985275Y-52504882D01*
X81806648Y-52408299D01*
X81791805Y-52390035D01*
X81794224Y-52366625D01*
X81812488Y-52351782D01*
X81821273Y-52350500D01*
X83212791Y-52350500D01*
X83234535Y-52359506D01*
X84311420Y-53436391D01*
X84320426Y-53458135D01*
X84320060Y-53462865D01*
X84315538Y-53491909D01*
X84315538Y-53491913D01*
X84315201Y-53494077D01*
X84333025Y-53630382D01*
X84388389Y-53756205D01*
X84389794Y-53757877D01*
X84389795Y-53757878D01*
X84469499Y-53852697D01*
X84476842Y-53861433D01*
X84478669Y-53862649D01*
X84478671Y-53862651D01*
X84495985Y-53874176D01*
X84591273Y-53937605D01*
X84593365Y-53938259D01*
X84593366Y-53938259D01*
X84632483Y-53950480D01*
X84722484Y-53978598D01*
X84771303Y-53979493D01*
X84857737Y-53981077D01*
X84857738Y-53981077D01*
X84859926Y-53981117D01*
X84862038Y-53980541D01*
X84862040Y-53980541D01*
X84963067Y-53952998D01*
X84992551Y-53944960D01*
X84994413Y-53943817D01*
X84994417Y-53943815D01*
X85107834Y-53874176D01*
X85107835Y-53874176D01*
X85109697Y-53873032D01*
X85201946Y-53771116D01*
X85261884Y-53647406D01*
X85284690Y-53511846D01*
X85284835Y-53500000D01*
X85284299Y-53496253D01*
X85265658Y-53366096D01*
X85265347Y-53363923D01*
X85208450Y-53238785D01*
X85118719Y-53134646D01*
X85116881Y-53133454D01*
X85116879Y-53133453D01*
X85005203Y-53061069D01*
X85005201Y-53061068D01*
X85003365Y-53059878D01*
X84929233Y-53037707D01*
X84873764Y-53021118D01*
X84873762Y-53021118D01*
X84871663Y-53020490D01*
X84775167Y-53019901D01*
X84757315Y-53019792D01*
X84735759Y-53010787D01*
X83601656Y-51876685D01*
X83598591Y-51872391D01*
X83598363Y-51872560D01*
X83596673Y-51870284D01*
X83595425Y-51867731D01*
X83593345Y-51865801D01*
X83593343Y-51865799D01*
X83558224Y-51833222D01*
X83557393Y-51832422D01*
X83542723Y-51817752D01*
X83540067Y-51815929D01*
X83536554Y-51813120D01*
X83515437Y-51793531D01*
X83515436Y-51793531D01*
X83513354Y-51791599D01*
X83495607Y-51784519D01*
X83489611Y-51781317D01*
X83473854Y-51770508D01*
X83443064Y-51763201D01*
X83438774Y-51761845D01*
X83409378Y-51750117D01*
X83405810Y-51749767D01*
X83403832Y-51749573D01*
X83403827Y-51749573D01*
X83403085Y-51749500D01*
X83388927Y-51749500D01*
X83381827Y-51748669D01*
X83367695Y-51745315D01*
X83367694Y-51745315D01*
X83364934Y-51744660D01*
X83331435Y-51749219D01*
X83327288Y-51749500D01*
X82026566Y-51749500D01*
X82004822Y-51740494D01*
X81995816Y-51718750D01*
X82004822Y-51697006D01*
X82007634Y-51694519D01*
X82121767Y-51605349D01*
X82122951Y-51604424D01*
X82150857Y-51572095D01*
X82256585Y-51449606D01*
X82257564Y-51448472D01*
X82259266Y-51445477D01*
X82358581Y-51270650D01*
X82359323Y-51269344D01*
X82372438Y-51229920D01*
X82395184Y-51161544D01*
X82410594Y-51143755D01*
X82424362Y-51140500D01*
X83702791Y-51140500D01*
X83724535Y-51149506D01*
X84436420Y-51861391D01*
X84445426Y-51883135D01*
X84445060Y-51887865D01*
X84440538Y-51916909D01*
X84440538Y-51916913D01*
X84440201Y-51919077D01*
X84458025Y-52055382D01*
X84513389Y-52181205D01*
X84514794Y-52182877D01*
X84514795Y-52182878D01*
X84585309Y-52266765D01*
X84601842Y-52286433D01*
X84603669Y-52287649D01*
X84603671Y-52287651D01*
X84705359Y-52355340D01*
X84716273Y-52362605D01*
X84718365Y-52363259D01*
X84718366Y-52363259D01*
X84842292Y-52401976D01*
X84847484Y-52403598D01*
X84896303Y-52404493D01*
X84982737Y-52406077D01*
X84982738Y-52406077D01*
X84984926Y-52406117D01*
X84987038Y-52405541D01*
X84987040Y-52405541D01*
X85051238Y-52388039D01*
X85117551Y-52369960D01*
X85119413Y-52368817D01*
X85119417Y-52368815D01*
X85232834Y-52299176D01*
X85232835Y-52299176D01*
X85234697Y-52298032D01*
X85326946Y-52196116D01*
X85386884Y-52072406D01*
X85409690Y-51936846D01*
X85409835Y-51925000D01*
X85409299Y-51921253D01*
X85390658Y-51791096D01*
X85390347Y-51788923D01*
X85333450Y-51663785D01*
X85243719Y-51559646D01*
X85241881Y-51558454D01*
X85241879Y-51558453D01*
X85130203Y-51486069D01*
X85130201Y-51486068D01*
X85128365Y-51484878D01*
X85054233Y-51462707D01*
X84998764Y-51446118D01*
X84998762Y-51446118D01*
X84996663Y-51445490D01*
X84900167Y-51444901D01*
X84882315Y-51444792D01*
X84860759Y-51435787D01*
X84091656Y-50666685D01*
X84088591Y-50662391D01*
X84088363Y-50662560D01*
X84086673Y-50660284D01*
X84085425Y-50657731D01*
X84083345Y-50655801D01*
X84083343Y-50655799D01*
X84048224Y-50623222D01*
X84047393Y-50622422D01*
X84032723Y-50607752D01*
X84030067Y-50605929D01*
X84026554Y-50603120D01*
X84005437Y-50583531D01*
X84005436Y-50583531D01*
X84003354Y-50581599D01*
X83985607Y-50574519D01*
X83979611Y-50571317D01*
X83963854Y-50560508D01*
X83933064Y-50553201D01*
X83928774Y-50551845D01*
X83899378Y-50540117D01*
X83895810Y-50539767D01*
X83893832Y-50539573D01*
X83893827Y-50539573D01*
X83893085Y-50539500D01*
X83878927Y-50539500D01*
X83871827Y-50538669D01*
X83857695Y-50535315D01*
X83857694Y-50535315D01*
X83854934Y-50534660D01*
X83821435Y-50539219D01*
X83817288Y-50539500D01*
X82424493Y-50539500D01*
X82402749Y-50530494D01*
X82395055Y-50517638D01*
X82371367Y-50439181D01*
X82370935Y-50437749D01*
X82274218Y-50255849D01*
X82219507Y-50188767D01*
X82144961Y-50097364D01*
X82144957Y-50097360D01*
X82144011Y-50096200D01*
X82130324Y-50084877D01*
X81986437Y-49965843D01*
X81986435Y-49965842D01*
X81985275Y-49964882D01*
X81804055Y-49866897D01*
X81607254Y-49805977D01*
X81402369Y-49784443D01*
X81400874Y-49784579D01*
X81400872Y-49784579D01*
X81198705Y-49802977D01*
X81198702Y-49802978D01*
X81197203Y-49803114D01*
X80999572Y-49861280D01*
X80998243Y-49861975D01*
X80998240Y-49861976D01*
X80987458Y-49867613D01*
X80817002Y-49956726D01*
X80815837Y-49957663D01*
X80815835Y-49957664D01*
X80657613Y-50084877D01*
X80657610Y-50084880D01*
X80656447Y-50085815D01*
X80655487Y-50086959D01*
X80655485Y-50086961D01*
X80647733Y-50096200D01*
X80524024Y-50243630D01*
X80424776Y-50424162D01*
X80362484Y-50620532D01*
X80339520Y-50825262D01*
X80356759Y-51030553D01*
X80413544Y-51228586D01*
X80507712Y-51411818D01*
X80508646Y-51412996D01*
X80508647Y-51412998D01*
X80634745Y-51572095D01*
X80634749Y-51572099D01*
X80635677Y-51573270D01*
X80778145Y-51694519D01*
X80779101Y-51695333D01*
X80789822Y-51716284D01*
X80782588Y-51738680D01*
X80761637Y-51749401D01*
X80759171Y-51749500D01*
X79486566Y-51749500D01*
X79464822Y-51740494D01*
X79455816Y-51718750D01*
X79464822Y-51697006D01*
X79467634Y-51694519D01*
X79581767Y-51605349D01*
X79582951Y-51604424D01*
X79610857Y-51572095D01*
X79716585Y-51449606D01*
X79717564Y-51448472D01*
X79719266Y-51445477D01*
X79818581Y-51270650D01*
X79819323Y-51269344D01*
X79832438Y-51229920D01*
X79883878Y-51075286D01*
X79883879Y-51075282D01*
X79884351Y-51073863D01*
X79890012Y-51029055D01*
X79910065Y-50870313D01*
X79910171Y-50869474D01*
X79910583Y-50840000D01*
X79892712Y-50657731D01*
X79890627Y-50636466D01*
X79890626Y-50636463D01*
X79890480Y-50634970D01*
X79890048Y-50633539D01*
X79890047Y-50633534D01*
X79831367Y-50439181D01*
X79830935Y-50437749D01*
X79734218Y-50255849D01*
X79679507Y-50188767D01*
X79604961Y-50097364D01*
X79604957Y-50097360D01*
X79604011Y-50096200D01*
X79590324Y-50084877D01*
X79446437Y-49965843D01*
X79446435Y-49965842D01*
X79445275Y-49964882D01*
X79264055Y-49866897D01*
X79067254Y-49805977D01*
X78862369Y-49784443D01*
X78860874Y-49784579D01*
X78860872Y-49784579D01*
X78658705Y-49802977D01*
X78658702Y-49802978D01*
X78657203Y-49803114D01*
X78459572Y-49861280D01*
X78458243Y-49861975D01*
X78458240Y-49861976D01*
X78447458Y-49867613D01*
X78277002Y-49956726D01*
X78275837Y-49957663D01*
X78275835Y-49957664D01*
X78117613Y-50084877D01*
X78117610Y-50084880D01*
X78116447Y-50085815D01*
X78115487Y-50086959D01*
X78115485Y-50086961D01*
X78107733Y-50096200D01*
X77984024Y-50243630D01*
X77884776Y-50424162D01*
X77822484Y-50620532D01*
X77799520Y-50825262D01*
X77816759Y-51030553D01*
X77873544Y-51228586D01*
X77967712Y-51411818D01*
X77968646Y-51412996D01*
X77968647Y-51412998D01*
X78094745Y-51572095D01*
X78094749Y-51572099D01*
X78095677Y-51573270D01*
X78238145Y-51694519D01*
X78239101Y-51695333D01*
X78249822Y-51716284D01*
X78242588Y-51738680D01*
X78221637Y-51749401D01*
X78219171Y-51749500D01*
X77537209Y-51749500D01*
X77515465Y-51740494D01*
X77210749Y-51435778D01*
X77201743Y-51414034D01*
X77205756Y-51398845D01*
X77278581Y-51270650D01*
X77279323Y-51269344D01*
X77292438Y-51229920D01*
X77343878Y-51075286D01*
X77343879Y-51075282D01*
X77344351Y-51073863D01*
X77350012Y-51029055D01*
X77370065Y-50870313D01*
X77370171Y-50869474D01*
X77370583Y-50840000D01*
X77352712Y-50657731D01*
X77350627Y-50636466D01*
X77350626Y-50636463D01*
X77350480Y-50634970D01*
X77350048Y-50633539D01*
X77350047Y-50633534D01*
X77291367Y-50439181D01*
X77290935Y-50437749D01*
X77194218Y-50255849D01*
X77139507Y-50188767D01*
X77064961Y-50097364D01*
X77064957Y-50097360D01*
X77064011Y-50096200D01*
X77050324Y-50084877D01*
X76906437Y-49965843D01*
X76906435Y-49965842D01*
X76905275Y-49964882D01*
X76724055Y-49866897D01*
X76527254Y-49805977D01*
X76322369Y-49784443D01*
X76320874Y-49784579D01*
X76320872Y-49784579D01*
X76118705Y-49802977D01*
X76118702Y-49802978D01*
X76117203Y-49803114D01*
X75919572Y-49861280D01*
X75918243Y-49861975D01*
X75918240Y-49861976D01*
X75907458Y-49867613D01*
X75737002Y-49956726D01*
X75735837Y-49957663D01*
X75735835Y-49957664D01*
X75577613Y-50084877D01*
X75577610Y-50084880D01*
X75576447Y-50085815D01*
X75575487Y-50086959D01*
X75575485Y-50086961D01*
X75567733Y-50096200D01*
X75444024Y-50243630D01*
X75344776Y-50424162D01*
X75282484Y-50620532D01*
X75259520Y-50825262D01*
X70414900Y-50825262D01*
X70414900Y-50745383D01*
X72748000Y-50745383D01*
X72749792Y-50749708D01*
X72754117Y-50751500D01*
X73680383Y-50751500D01*
X73684708Y-50749708D01*
X73686500Y-50745383D01*
X73863500Y-50745383D01*
X73865292Y-50749708D01*
X73869617Y-50751500D01*
X74795882Y-50751500D01*
X74800207Y-50749708D01*
X74801999Y-50745383D01*
X74801999Y-49974079D01*
X74801704Y-49971080D01*
X74792322Y-49923908D01*
X74790050Y-49918422D01*
X74754293Y-49864909D01*
X74750091Y-49860707D01*
X74696579Y-49824951D01*
X74691091Y-49822678D01*
X74643919Y-49813295D01*
X74640922Y-49813000D01*
X73869617Y-49813000D01*
X73865292Y-49814792D01*
X73863500Y-49819117D01*
X73863500Y-50745383D01*
X73686500Y-50745383D01*
X73686500Y-49819118D01*
X73684708Y-49814793D01*
X73680383Y-49813001D01*
X72909079Y-49813001D01*
X72906080Y-49813296D01*
X72858908Y-49822678D01*
X72853422Y-49824950D01*
X72799909Y-49860707D01*
X72795707Y-49864909D01*
X72759951Y-49918421D01*
X72757678Y-49923909D01*
X72748295Y-49971081D01*
X72748000Y-49974078D01*
X72748000Y-50745383D01*
X70414900Y-50745383D01*
X70414900Y-44419077D01*
X74365201Y-44419077D01*
X74383025Y-44555382D01*
X74438389Y-44681205D01*
X74526842Y-44786433D01*
X74528669Y-44787649D01*
X74528671Y-44787651D01*
X74619329Y-44847998D01*
X74641273Y-44862605D01*
X74643365Y-44863259D01*
X74643366Y-44863259D01*
X74708064Y-44883472D01*
X74772484Y-44903598D01*
X74821303Y-44904493D01*
X74907737Y-44906077D01*
X74907738Y-44906077D01*
X74909926Y-44906117D01*
X74912038Y-44905541D01*
X74912040Y-44905541D01*
X74988829Y-44884606D01*
X75042551Y-44869960D01*
X75044413Y-44868817D01*
X75044417Y-44868815D01*
X75157834Y-44799176D01*
X75157835Y-44799176D01*
X75159697Y-44798032D01*
X75251946Y-44696116D01*
X75311884Y-44572406D01*
X75334690Y-44436846D01*
X75334835Y-44425000D01*
X75329516Y-44387860D01*
X75335350Y-44365061D01*
X75338212Y-44361759D01*
X75439709Y-44260262D01*
X91169520Y-44260262D01*
X91169646Y-44261763D01*
X91184447Y-44438015D01*
X91186759Y-44465553D01*
X91243544Y-44663586D01*
X91337712Y-44846818D01*
X91338646Y-44847996D01*
X91338647Y-44847998D01*
X91464745Y-45007095D01*
X91464749Y-45007099D01*
X91465677Y-45008270D01*
X91622564Y-45141791D01*
X91623870Y-45142521D01*
X91623873Y-45142523D01*
X91801084Y-45241563D01*
X91801087Y-45241564D01*
X91802398Y-45242297D01*
X91998329Y-45305959D01*
X92088255Y-45316682D01*
X92201405Y-45330174D01*
X92201411Y-45330174D01*
X92202894Y-45330351D01*
X92204389Y-45330236D01*
X92204392Y-45330236D01*
X92406796Y-45314662D01*
X92406799Y-45314662D01*
X92408300Y-45314546D01*
X92409748Y-45314142D01*
X92409752Y-45314141D01*
X92524046Y-45282229D01*
X92606725Y-45259145D01*
X92790610Y-45166258D01*
X92952951Y-45039424D01*
X92980857Y-45007095D01*
X93039628Y-44939007D01*
X93087564Y-44883472D01*
X93095891Y-44868815D01*
X93188581Y-44705650D01*
X93189323Y-44704344D01*
X93196464Y-44682878D01*
X93253878Y-44510286D01*
X93253879Y-44510282D01*
X93254351Y-44508863D01*
X93260012Y-44464055D01*
X93280065Y-44305313D01*
X93280171Y-44304474D01*
X93280438Y-44285411D01*
X93280571Y-44275861D01*
X93280571Y-44275860D01*
X93280583Y-44275000D01*
X93260480Y-44069970D01*
X93260048Y-44068539D01*
X93260047Y-44068534D01*
X93201367Y-43874181D01*
X93200935Y-43872749D01*
X93104218Y-43690849D01*
X93049507Y-43623767D01*
X92974961Y-43532364D01*
X92974957Y-43532360D01*
X92974011Y-43531200D01*
X92815275Y-43399882D01*
X92634055Y-43301897D01*
X92437254Y-43240977D01*
X92232369Y-43219443D01*
X92230874Y-43219579D01*
X92230872Y-43219579D01*
X92028705Y-43237977D01*
X92028702Y-43237978D01*
X92027203Y-43238114D01*
X91829572Y-43296280D01*
X91828243Y-43296975D01*
X91828240Y-43296976D01*
X91817458Y-43302613D01*
X91647002Y-43391726D01*
X91645837Y-43392663D01*
X91645835Y-43392664D01*
X91487613Y-43519877D01*
X91487610Y-43519880D01*
X91486447Y-43520815D01*
X91485487Y-43521959D01*
X91485485Y-43521961D01*
X91477733Y-43531200D01*
X91354024Y-43678630D01*
X91254776Y-43859162D01*
X91192484Y-44055532D01*
X91169520Y-44260262D01*
X75439709Y-44260262D01*
X77655465Y-42044506D01*
X77677209Y-42035500D01*
X91195114Y-42035500D01*
X91216858Y-42044506D01*
X91224673Y-42057774D01*
X91243544Y-42123586D01*
X91337712Y-42306818D01*
X91338646Y-42307996D01*
X91338647Y-42307998D01*
X91464745Y-42467095D01*
X91464749Y-42467099D01*
X91465677Y-42468270D01*
X91622564Y-42601791D01*
X91623870Y-42602521D01*
X91623873Y-42602523D01*
X91801084Y-42701563D01*
X91801087Y-42701564D01*
X91802398Y-42702297D01*
X91998329Y-42765959D01*
X92088255Y-42776682D01*
X92201405Y-42790174D01*
X92201411Y-42790174D01*
X92202894Y-42790351D01*
X92204389Y-42790236D01*
X92204392Y-42790236D01*
X92406796Y-42774662D01*
X92406799Y-42774662D01*
X92408300Y-42774546D01*
X92409748Y-42774142D01*
X92409752Y-42774141D01*
X92524046Y-42742229D01*
X92606725Y-42719145D01*
X92790610Y-42626258D01*
X92952951Y-42499424D01*
X92980857Y-42467095D01*
X93086585Y-42344606D01*
X93087564Y-42343472D01*
X93108387Y-42306818D01*
X93188581Y-42165650D01*
X93189323Y-42164344D01*
X93202438Y-42124920D01*
X93253878Y-41970286D01*
X93253879Y-41970282D01*
X93254351Y-41968863D01*
X93280171Y-41764474D01*
X93280583Y-41735000D01*
X93280499Y-41734141D01*
X93260627Y-41531466D01*
X93260626Y-41531463D01*
X93260480Y-41529970D01*
X93260048Y-41528539D01*
X93260047Y-41528534D01*
X93201367Y-41334181D01*
X93200935Y-41332749D01*
X93104218Y-41150849D01*
X93009331Y-41034506D01*
X92974961Y-40992364D01*
X92974957Y-40992360D01*
X92974011Y-40991200D01*
X92933732Y-40957878D01*
X92816437Y-40860843D01*
X92816435Y-40860842D01*
X92815275Y-40859882D01*
X92634055Y-40761897D01*
X92437254Y-40700977D01*
X92232369Y-40679443D01*
X92230874Y-40679579D01*
X92230872Y-40679579D01*
X92028705Y-40697977D01*
X92028702Y-40697978D01*
X92027203Y-40698114D01*
X91829572Y-40756280D01*
X91828243Y-40756975D01*
X91828240Y-40756976D01*
X91817458Y-40762613D01*
X91647002Y-40851726D01*
X91645837Y-40852663D01*
X91645835Y-40852664D01*
X91487613Y-40979877D01*
X91487610Y-40979880D01*
X91486447Y-40980815D01*
X91485487Y-40981959D01*
X91485485Y-40981961D01*
X91399233Y-41084752D01*
X91354024Y-41138630D01*
X91254776Y-41319162D01*
X91254322Y-41320592D01*
X91254322Y-41320593D01*
X91224994Y-41413048D01*
X91209834Y-41431050D01*
X91195683Y-41434500D01*
X88194529Y-41434500D01*
X88172785Y-41425494D01*
X88163779Y-41403750D01*
X88166856Y-41390342D01*
X88210929Y-41299377D01*
X88211884Y-41297406D01*
X88234690Y-41161846D01*
X88234835Y-41150000D01*
X88234299Y-41146253D01*
X88221819Y-41059117D01*
X88215347Y-41013923D01*
X88158450Y-40888785D01*
X88127327Y-40852664D01*
X88070151Y-40786308D01*
X88068719Y-40784646D01*
X88066881Y-40783454D01*
X88066879Y-40783453D01*
X87955203Y-40711069D01*
X87955201Y-40711068D01*
X87953365Y-40709878D01*
X87879233Y-40687707D01*
X87823764Y-40671118D01*
X87823762Y-40671118D01*
X87821663Y-40670490D01*
X87725049Y-40669900D01*
X87707314Y-40669792D01*
X87685758Y-40660787D01*
X87576656Y-40551685D01*
X87573591Y-40547391D01*
X87573363Y-40547560D01*
X87571673Y-40545284D01*
X87570425Y-40542731D01*
X87568345Y-40540801D01*
X87568343Y-40540799D01*
X87533224Y-40508222D01*
X87532393Y-40507422D01*
X87517723Y-40492752D01*
X87515067Y-40490929D01*
X87511554Y-40488120D01*
X87490437Y-40468531D01*
X87490436Y-40468531D01*
X87488354Y-40466599D01*
X87470607Y-40459519D01*
X87464611Y-40456317D01*
X87448854Y-40445508D01*
X87418064Y-40438201D01*
X87413774Y-40436845D01*
X87384378Y-40425117D01*
X87380810Y-40424767D01*
X87378832Y-40424573D01*
X87378827Y-40424573D01*
X87378085Y-40424500D01*
X87363927Y-40424500D01*
X87356827Y-40423669D01*
X87342695Y-40420315D01*
X87342694Y-40420315D01*
X87339934Y-40419660D01*
X87306435Y-40424219D01*
X87302288Y-40424500D01*
X84938694Y-40424500D01*
X84915399Y-40413822D01*
X84870151Y-40361308D01*
X84868719Y-40359646D01*
X84866881Y-40358454D01*
X84866879Y-40358453D01*
X84755203Y-40286069D01*
X84755201Y-40286068D01*
X84753365Y-40284878D01*
X84659561Y-40256824D01*
X84623764Y-40246118D01*
X84623762Y-40246118D01*
X84621663Y-40245490D01*
X84553439Y-40245074D01*
X84486396Y-40244664D01*
X84486393Y-40244664D01*
X84484200Y-40244651D01*
X84352027Y-40282426D01*
X84350178Y-40283593D01*
X84350175Y-40283594D01*
X84237621Y-40354611D01*
X84237619Y-40354613D01*
X84235769Y-40355780D01*
X84206588Y-40388822D01*
X84206338Y-40389105D01*
X84183290Y-40399500D01*
X77788694Y-40399500D01*
X77765399Y-40388822D01*
X77738345Y-40357423D01*
X77718719Y-40334646D01*
X77716881Y-40333454D01*
X77716879Y-40333453D01*
X77605203Y-40261069D01*
X77605201Y-40261068D01*
X77603365Y-40259878D01*
X77490542Y-40226136D01*
X77473764Y-40221118D01*
X77473762Y-40221118D01*
X77471663Y-40220490D01*
X77403439Y-40220074D01*
X77336396Y-40219664D01*
X77336393Y-40219664D01*
X77334200Y-40219651D01*
X77332090Y-40220254D01*
X77243791Y-40245490D01*
X77202027Y-40257426D01*
X77200178Y-40258593D01*
X77200175Y-40258594D01*
X77087621Y-40329611D01*
X77087619Y-40329613D01*
X77085769Y-40330780D01*
X76994771Y-40433815D01*
X76993838Y-40435801D01*
X76993838Y-40435802D01*
X76937280Y-40556266D01*
X76937279Y-40556269D01*
X76936350Y-40558248D01*
X76936013Y-40560410D01*
X76936013Y-40560411D01*
X76917480Y-40679443D01*
X76915201Y-40694077D01*
X76933025Y-40830382D01*
X76933907Y-40832386D01*
X76933907Y-40832387D01*
X76946005Y-40859882D01*
X76988389Y-40956205D01*
X76989794Y-40957877D01*
X76989795Y-40957878D01*
X77025623Y-41000500D01*
X77076842Y-41061433D01*
X77078669Y-41062649D01*
X77078671Y-41062651D01*
X77189446Y-41136389D01*
X77191273Y-41137605D01*
X77193365Y-41138259D01*
X77193366Y-41138259D01*
X77234756Y-41151190D01*
X77322484Y-41178598D01*
X77371303Y-41179493D01*
X77457737Y-41181077D01*
X77457738Y-41181077D01*
X77459926Y-41181117D01*
X77462038Y-41180541D01*
X77462040Y-41180541D01*
X77566082Y-41152176D01*
X77592551Y-41144960D01*
X77594413Y-41143817D01*
X77594417Y-41143815D01*
X77707834Y-41074176D01*
X77707835Y-41074176D01*
X77709697Y-41073032D01*
X77766194Y-41010615D01*
X77788991Y-41000500D01*
X84140285Y-41000500D01*
X84162029Y-41009506D01*
X84163824Y-41011464D01*
X84183193Y-41034506D01*
X84226842Y-41086433D01*
X84228669Y-41087649D01*
X84228671Y-41087651D01*
X84339446Y-41161389D01*
X84341273Y-41162605D01*
X84343365Y-41163259D01*
X84343366Y-41163259D01*
X84398683Y-41180541D01*
X84472484Y-41203598D01*
X84521303Y-41204493D01*
X84607737Y-41206077D01*
X84607738Y-41206077D01*
X84609926Y-41206117D01*
X84612038Y-41205541D01*
X84612040Y-41205541D01*
X84676238Y-41188039D01*
X84742551Y-41169960D01*
X84744413Y-41168817D01*
X84744417Y-41168815D01*
X84857834Y-41099176D01*
X84857835Y-41099176D01*
X84859697Y-41098032D01*
X84916194Y-41035615D01*
X84938991Y-41025500D01*
X87187791Y-41025500D01*
X87209535Y-41034506D01*
X87261420Y-41086391D01*
X87270426Y-41108135D01*
X87270060Y-41112865D01*
X87265538Y-41141909D01*
X87265538Y-41141913D01*
X87265201Y-41144077D01*
X87283025Y-41280382D01*
X87283907Y-41282386D01*
X87283907Y-41282387D01*
X87331859Y-41391365D01*
X87332372Y-41414895D01*
X87316098Y-41431896D01*
X87303713Y-41434500D01*
X77595397Y-41434500D01*
X77590194Y-41433631D01*
X77590153Y-41433911D01*
X77587339Y-41433496D01*
X77584658Y-41432575D01*
X77581825Y-41432681D01*
X77581822Y-41432681D01*
X77533972Y-41434478D01*
X77532818Y-41434500D01*
X77512052Y-41434500D01*
X77508876Y-41435091D01*
X77504414Y-41435588D01*
X77492079Y-41436051D01*
X77475629Y-41436668D01*
X77475627Y-41436669D01*
X77472791Y-41436775D01*
X77470183Y-41437896D01*
X77470181Y-41437896D01*
X77455238Y-41444316D01*
X77448730Y-41446293D01*
X77432738Y-41449271D01*
X77432737Y-41449271D01*
X77429947Y-41449791D01*
X77427529Y-41451281D01*
X77427530Y-41451281D01*
X77403009Y-41466396D01*
X77399010Y-41468473D01*
X77369937Y-41480964D01*
X77365051Y-41484978D01*
X77355039Y-41494990D01*
X77349431Y-41499422D01*
X77334652Y-41508532D01*
X77332935Y-41510790D01*
X77332934Y-41510791D01*
X77314190Y-41535441D01*
X77311457Y-41538572D01*
X74913726Y-43936303D01*
X74891795Y-43945308D01*
X74838470Y-43944982D01*
X74786396Y-43944664D01*
X74786393Y-43944664D01*
X74784200Y-43944651D01*
X74652027Y-43982426D01*
X74650178Y-43983593D01*
X74650175Y-43983594D01*
X74537621Y-44054611D01*
X74537619Y-44054613D01*
X74535769Y-44055780D01*
X74444771Y-44158815D01*
X74443838Y-44160801D01*
X74443838Y-44160802D01*
X74387280Y-44281266D01*
X74387279Y-44281269D01*
X74386350Y-44283248D01*
X74386013Y-44285410D01*
X74386013Y-44285411D01*
X74374126Y-44361759D01*
X74365201Y-44419077D01*
X70414900Y-44419077D01*
X70414900Y-39180262D01*
X91169520Y-39180262D01*
X91186759Y-39385553D01*
X91243544Y-39583586D01*
X91337712Y-39766818D01*
X91338646Y-39767996D01*
X91338647Y-39767998D01*
X91464745Y-39927095D01*
X91464749Y-39927099D01*
X91465677Y-39928270D01*
X91622564Y-40061791D01*
X91623870Y-40062521D01*
X91623873Y-40062523D01*
X91801084Y-40161563D01*
X91801087Y-40161564D01*
X91802398Y-40162297D01*
X91998329Y-40225959D01*
X92088255Y-40236682D01*
X92201405Y-40250174D01*
X92201411Y-40250174D01*
X92202894Y-40250351D01*
X92204389Y-40250236D01*
X92204392Y-40250236D01*
X92406796Y-40234662D01*
X92406799Y-40234662D01*
X92408300Y-40234546D01*
X92409748Y-40234142D01*
X92409752Y-40234141D01*
X92524046Y-40202229D01*
X92606725Y-40179145D01*
X92790610Y-40086258D01*
X92952951Y-39959424D01*
X92980857Y-39927095D01*
X93086585Y-39804606D01*
X93087564Y-39803472D01*
X93108387Y-39766818D01*
X93188581Y-39625650D01*
X93189323Y-39624344D01*
X93202438Y-39584920D01*
X93253878Y-39430286D01*
X93253879Y-39430282D01*
X93254351Y-39428863D01*
X93260012Y-39384055D01*
X93280065Y-39225313D01*
X93280171Y-39224474D01*
X93280583Y-39195000D01*
X93260480Y-38989970D01*
X93260048Y-38988539D01*
X93260047Y-38988534D01*
X93201367Y-38794181D01*
X93200935Y-38792749D01*
X93104218Y-38610849D01*
X93049507Y-38543767D01*
X92974961Y-38452364D01*
X92974957Y-38452360D01*
X92974011Y-38451200D01*
X92815275Y-38319882D01*
X92634055Y-38221897D01*
X92437254Y-38160977D01*
X92232369Y-38139443D01*
X92230874Y-38139579D01*
X92230872Y-38139579D01*
X92028705Y-38157977D01*
X92028702Y-38157978D01*
X92027203Y-38158114D01*
X91829572Y-38216280D01*
X91828243Y-38216975D01*
X91828240Y-38216976D01*
X91817458Y-38222613D01*
X91647002Y-38311726D01*
X91645837Y-38312663D01*
X91645835Y-38312664D01*
X91487613Y-38439877D01*
X91487610Y-38439880D01*
X91486447Y-38440815D01*
X91485487Y-38441959D01*
X91485485Y-38441961D01*
X91477733Y-38451200D01*
X91354024Y-38598630D01*
X91254776Y-38779162D01*
X91192484Y-38975532D01*
X91169520Y-39180262D01*
X70414900Y-39180262D01*
X70414900Y-36805212D01*
X70423906Y-36783468D01*
X70445553Y-36774462D01*
X70920667Y-36772963D01*
X91146935Y-36709158D01*
X91168705Y-36718095D01*
X91177671Y-36737333D01*
X91186759Y-36845553D01*
X91243544Y-37043586D01*
X91337712Y-37226818D01*
X91338646Y-37227996D01*
X91338647Y-37227998D01*
X91464745Y-37387095D01*
X91464749Y-37387099D01*
X91465677Y-37388270D01*
X91622564Y-37521791D01*
X91623870Y-37522521D01*
X91623873Y-37522523D01*
X91801084Y-37621563D01*
X91801087Y-37621564D01*
X91802398Y-37622297D01*
X91998329Y-37685959D01*
X92088255Y-37696682D01*
X92201405Y-37710174D01*
X92201411Y-37710174D01*
X92202894Y-37710351D01*
X92204389Y-37710236D01*
X92204392Y-37710236D01*
X92406796Y-37694662D01*
X92406799Y-37694662D01*
X92408300Y-37694546D01*
X92409748Y-37694142D01*
X92409752Y-37694141D01*
X92524046Y-37662229D01*
X92606725Y-37639145D01*
X92790610Y-37546258D01*
X92952951Y-37419424D01*
X92980857Y-37387095D01*
X93086585Y-37264606D01*
X93087564Y-37263472D01*
X93108387Y-37226818D01*
X93188581Y-37085650D01*
X93189323Y-37084344D01*
X93202438Y-37044920D01*
X93253878Y-36890286D01*
X93253879Y-36890282D01*
X93254351Y-36888863D01*
X93260012Y-36844056D01*
X93274515Y-36729247D01*
X93286176Y-36708804D01*
X93304926Y-36702351D01*
X93913276Y-36700431D01*
X93954253Y-36700302D01*
X93976025Y-36709240D01*
G37*
%TD.AperFunction*%
%TD*%
M02*
