%TF.GenerationSoftware,KiCad,Pcbnew,(6.0.7)*%
%TF.CreationDate,2022-09-08T11:38:00+02:00*%
%TF.ProjectId,blackmagic_richardeoin,626c6163-6b6d-4616-9769-635f72696368,rev?*%
%TF.SameCoordinates,Original*%
%TF.FileFunction,Copper,L1,Top*%
%TF.FilePolarity,Positive*%
%FSLAX46Y46*%
G04 Gerber Fmt 4.6, Leading zero omitted, Abs format (unit mm)*
G04 Created by KiCad (PCBNEW (6.0.7)) date 2022-09-08 11:38:00*
%MOMM*%
%LPD*%
G01*
G04 APERTURE LIST*
%TA.AperFunction,NonConductor*%
%ADD10C,0.300000*%
%TD*%
%TA.AperFunction,SMDPad,CuDef*%
%ADD11R,1.500000X0.300000*%
%TD*%
%TA.AperFunction,SMDPad,CuDef*%
%ADD12R,0.300000X1.500000*%
%TD*%
%TA.AperFunction,SMDPad,CuDef*%
%ADD13R,1.400000X1.000000*%
%TD*%
%TA.AperFunction,SMDPad,CuDef*%
%ADD14R,0.900000X0.900000*%
%TD*%
%TA.AperFunction,SMDPad,CuDef*%
%ADD15R,2.308000X0.500000*%
%TD*%
%TA.AperFunction,SMDPad,CuDef*%
%ADD16R,2.400000X2.000000*%
%TD*%
%TA.AperFunction,SMDPad,CuDef*%
%ADD17R,0.800000X1.700000*%
%TD*%
%TA.AperFunction,SMDPad,CuDef*%
%ADD18R,1.600000X0.350000*%
%TD*%
%TA.AperFunction,SMDPad,CuDef*%
%ADD19R,1.050000X1.080000*%
%TD*%
%TA.AperFunction,SMDPad,CuDef*%
%ADD20R,1.900000X1.100000*%
%TD*%
%TA.AperFunction,SMDPad,CuDef*%
%ADD21R,1.080000X1.050000*%
%TD*%
%TA.AperFunction,SMDPad,CuDef*%
%ADD22R,0.800000X0.800000*%
%TD*%
%TA.AperFunction,SMDPad,CuDef*%
%ADD23R,0.700000X0.350000*%
%TD*%
%TA.AperFunction,ComponentPad*%
%ADD24C,1.524000*%
%TD*%
%TA.AperFunction,ViaPad*%
%ADD25C,0.700000*%
%TD*%
%TA.AperFunction,Conductor*%
%ADD26C,0.200000*%
%TD*%
%TA.AperFunction,Conductor*%
%ADD27C,0.250000*%
%TD*%
%TA.AperFunction,Conductor*%
%ADD28C,0.400000*%
%TD*%
%TA.AperFunction,Conductor*%
%ADD29C,0.300000*%
%TD*%
%TA.AperFunction,Conductor*%
%ADD30C,0.500000*%
%TD*%
%TA.AperFunction,Conductor*%
%ADD31C,0.350000*%
%TD*%
G04 APERTURE END LIST*
D10*
X161951100Y-108053600D02*
G75*
G03*
X161951100Y-108053600I-100000J0D01*
G01*
D11*
%TO.P,IC1,1*%
%TO.N,3.3V*%
X150551100Y-107753600D03*
%TO.P,IC1,2*%
%TO.N,N/C*%
X150551100Y-107253600D03*
%TO.P,IC1,3*%
X150551100Y-106753600D03*
%TO.P,IC1,4*%
X150551100Y-106253600D03*
%TO.P,IC1,5*%
%TO.N,OSC_IN*%
X150551100Y-105753600D03*
%TO.P,IC1,6*%
%TO.N,LPC_XTAL2*%
X150551100Y-105253600D03*
%TO.P,IC1,7*%
%TO.N,N/C*%
X150551100Y-104753600D03*
%TO.P,IC1,8*%
%TO.N,GND*%
X150551100Y-104253600D03*
%TO.P,IC1,9*%
%TO.N,3.3V*%
X150551100Y-103753600D03*
%TO.P,IC1,10*%
%TO.N,N/C*%
X150551100Y-103253600D03*
%TO.P,IC1,11*%
X150551100Y-102753600D03*
%TO.P,IC1,12*%
%TO.N,RST*%
X150551100Y-102253600D03*
D12*
%TO.P,IC1,13*%
%TO.N,TDI*%
X149051100Y-100753600D03*
%TO.P,IC1,14*%
%TO.N,TMS*%
X148551100Y-100753600D03*
%TO.P,IC1,15*%
%TO.N,TCK*%
X148051100Y-100753600D03*
%TO.P,IC1,16*%
%TO.N,TDO*%
X147551100Y-100753600D03*
%TO.P,IC1,17*%
%TO.N,N/C*%
X147051100Y-100753600D03*
%TO.P,IC1,18*%
%TO.N,TARGET_POWER_ADC*%
X146551100Y-100753600D03*
%TO.P,IC1,19*%
%TO.N,PWR_BR*%
X146051100Y-100753600D03*
%TO.P,IC1,20*%
%TO.N,LED0*%
X145551100Y-100753600D03*
%TO.P,IC1,21*%
%TO.N,LED1*%
X145051100Y-100753600D03*
%TO.P,IC1,22*%
%TO.N,LED2*%
X144551100Y-100753600D03*
%TO.P,IC1,23*%
%TO.N,GND*%
X144051100Y-100753600D03*
%TO.P,IC1,24*%
%TO.N,3.3V*%
X143551100Y-100753600D03*
D11*
%TO.P,IC1,25*%
%TO.N,FORCE_BOOTLOADER*%
X142051100Y-102253600D03*
%TO.P,IC1,26*%
%TO.N,VBUS*%
X142051100Y-102753600D03*
%TO.P,IC1,27*%
%TO.N,N/C*%
X142051100Y-103253600D03*
%TO.P,IC1,28*%
X142051100Y-103753600D03*
%TO.P,IC1,29*%
%TO.N,USB_ENUMERATE*%
X142051100Y-104253600D03*
%TO.P,IC1,30*%
%TO.N,TXD*%
X142051100Y-104753600D03*
%TO.P,IC1,31*%
%TO.N,RXD*%
X142051100Y-105253600D03*
%TO.P,IC1,32*%
%TO.N,USB_DM*%
X142051100Y-105753600D03*
%TO.P,IC1,33*%
%TO.N,USB_DP*%
X142051100Y-106253600D03*
%TO.P,IC1,34*%
%TO.N,RXD*%
X142051100Y-106753600D03*
%TO.P,IC1,35*%
%TO.N,GND*%
X142051100Y-107253600D03*
%TO.P,IC1,36*%
%TO.N,3.3V*%
X142051100Y-107753600D03*
D12*
%TO.P,IC1,37*%
%TO.N,TXD*%
X143551100Y-109253600D03*
%TO.P,IC1,38*%
%TO.N,N/C*%
X144051100Y-109253600D03*
%TO.P,IC1,39*%
X144551100Y-109253600D03*
%TO.P,IC1,40*%
%TO.N,3.3V*%
X145051100Y-109253600D03*
%TO.P,IC1,41*%
X145551100Y-109253600D03*
%TO.P,IC1,42*%
%TO.N,N/C*%
X146051100Y-109253600D03*
%TO.P,IC1,43*%
X146551100Y-109253600D03*
%TO.P,IC1,44*%
%TO.N,BOOT0*%
X147051100Y-109253600D03*
%TO.P,IC1,45*%
%TO.N,N/C*%
X147551100Y-109253600D03*
%TO.P,IC1,46*%
X148051100Y-109253600D03*
%TO.P,IC1,47*%
%TO.N,GND*%
X148551100Y-109253600D03*
%TO.P,IC1,48*%
%TO.N,3.3V*%
X149051100Y-109253600D03*
%TD*%
D13*
%TO.P,Q1,1*%
%TO.N,PWR_BR*%
X159601100Y-110153600D03*
%TO.P,Q1,2*%
%TO.N,3.3V*%
X159601100Y-112053600D03*
%TO.P,Q1,3*%
%TO.N,T_PWR*%
X161801100Y-111103600D03*
%TD*%
D14*
%TO.P,R4,1*%
%TO.N,GND*%
X138751100Y-101453600D03*
%TO.P,R4,2*%
%TO.N,VBUS*%
X140251100Y-101453600D03*
%TD*%
D15*
%TO.P,CN1,D+*%
%TO.N,D+*%
X136565100Y-106403600D03*
%TO.P,CN1,D-*%
%TO.N,D-*%
X136565100Y-105603600D03*
%TO.P,CN1,GND*%
%TO.N,GND*%
X136565100Y-108003600D03*
D16*
%TO.P,CN1,GND1*%
X130501100Y-102003600D03*
%TO.P,CN1,GND2*%
X136001100Y-102003600D03*
%TO.P,CN1,GND3*%
X136001100Y-110803600D03*
%TO.P,CN1,GND4*%
X130501100Y-110803600D03*
D15*
%TO.P,CN1,ID*%
X136565100Y-107203600D03*
%TO.P,CN1,VBUS*%
%TO.N,5.0V*%
X136565100Y-104803600D03*
%TD*%
D14*
%TO.P,R1,1*%
%TO.N,USB_DP*%
X140251100Y-106653600D03*
%TO.P,R1,2*%
%TO.N,D+*%
X138751100Y-106653600D03*
%TD*%
%TO.P,R2,1*%
%TO.N,USB_DM*%
X140251100Y-105353600D03*
%TO.P,R2,2*%
%TO.N,D-*%
X138751100Y-105353600D03*
%TD*%
%TO.P,R5,1*%
%TO.N,VBUS*%
X140251100Y-102753600D03*
%TO.P,R5,2*%
%TO.N,5.0V*%
X138751100Y-102753600D03*
%TD*%
%TO.P,R3,1*%
%TO.N,USB_ENUMERATE*%
X140251100Y-104053600D03*
%TO.P,R3,2*%
%TO.N,D+*%
X138751100Y-104053600D03*
%TD*%
D17*
%TO.P,BTN1,1*%
%TO.N,FORCE_BOOTLOADER*%
X141701100Y-98203600D03*
%TO.P,BTN1,2*%
%TO.N,GND*%
X138301100Y-98203600D03*
%TD*%
D14*
%TO.P,R6,1*%
%TO.N,FORCE_BOOTLOADER*%
X140351100Y-100153600D03*
%TO.P,R6,2*%
%TO.N,3.3V*%
X141851100Y-100153600D03*
%TD*%
D18*
%TO.P,IC2,1*%
%TO.N,T_TXD*%
X161201100Y-107178600D03*
%TO.P,IC2,2*%
%TO.N,T_PWR*%
X161201100Y-106528600D03*
%TO.P,IC2,3*%
%TO.N,T_RXD*%
X161201100Y-105878600D03*
%TO.P,IC2,4*%
%TO.N,TARGET_TDI*%
X161201100Y-105228600D03*
%TO.P,IC2,5*%
%TO.N,TARGET_TMS*%
X161201100Y-104578600D03*
%TO.P,IC2,6*%
%TO.N,TARGET_TRST*%
X161201100Y-103928600D03*
%TO.P,IC2,7*%
%TO.N,TARGET_TCK*%
X161201100Y-103278600D03*
%TO.P,IC2,8*%
%TO.N,TARGET_TDO*%
X161201100Y-102628600D03*
%TO.P,IC2,9*%
%TO.N,TARGET_RST*%
X161201100Y-101978600D03*
%TO.P,IC2,10*%
%TO.N,T_PWR*%
X161201100Y-101328600D03*
%TO.P,IC2,11*%
%TO.N,GND*%
X155601100Y-101328600D03*
%TO.P,IC2,12*%
%TO.N,RST*%
X155601100Y-101978600D03*
%TO.P,IC2,13*%
%TO.N,TDO*%
X155601100Y-102628600D03*
%TO.P,IC2,14*%
%TO.N,TCK*%
X155601100Y-103278600D03*
%TO.P,IC2,15*%
%TO.N,TRST*%
X155601100Y-103928600D03*
%TO.P,IC2,16*%
%TO.N,TMS*%
X155601100Y-104578600D03*
%TO.P,IC2,17*%
%TO.N,TDI*%
X155601100Y-105228600D03*
%TO.P,IC2,18*%
%TO.N,RXD*%
X155601100Y-105878600D03*
%TO.P,IC2,19*%
%TO.N,3.3V*%
X155601100Y-106528600D03*
%TO.P,IC2,20*%
%TO.N,TXD*%
X155601100Y-107178600D03*
%TD*%
D14*
%TO.P,R7,1*%
%TO.N,GND*%
X157701100Y-100003600D03*
%TO.P,R7,2*%
%TO.N,TARGET_POWER_ADC*%
X156201100Y-100003600D03*
%TD*%
%TO.P,R8,1*%
%TO.N,TARGET_POWER_ADC*%
X156801100Y-98653600D03*
%TO.P,R8,2*%
%TO.N,T_PWR*%
X158301100Y-98653600D03*
%TD*%
D19*
%TO.P,C9,1*%
%TO.N,TARGET_POWER_ADC*%
X152876100Y-98653600D03*
%TO.P,C9,2*%
%TO.N,GND*%
X154626100Y-98653600D03*
%TD*%
D20*
%TO.P,Y1,1*%
%TO.N,LPC_XTAL2*%
X156051100Y-110203600D03*
%TO.P,Y1,2*%
%TO.N,N/C*%
X152351100Y-110203600D03*
%TO.P,Y1,3*%
%TO.N,OSC_IN*%
X152351100Y-112503600D03*
%TO.P,Y1,4*%
%TO.N,N/C*%
X156051100Y-112503600D03*
%TD*%
D21*
%TO.P,C7,1*%
%TO.N,GND*%
X150451100Y-110728600D03*
%TO.P,C7,2*%
%TO.N,OSC_IN*%
X150451100Y-112478600D03*
%TD*%
%TO.P,C8,1*%
%TO.N,GND*%
X157951100Y-111978600D03*
%TO.P,C8,2*%
%TO.N,LPC_XTAL2*%
X157951100Y-110228600D03*
%TD*%
D22*
%TO.P,D2,A*%
%TO.N,N$2*%
X163301100Y-97353600D03*
%TO.P,D2,C*%
%TO.N,GND*%
X164801100Y-97353600D03*
%TD*%
D14*
%TO.P,R11,1*%
%TO.N,LED2*%
X160401100Y-97353600D03*
%TO.P,R11,2*%
%TO.N,N$2*%
X161901100Y-97353600D03*
%TD*%
D22*
%TO.P,D1,A*%
%TO.N,3.3V*%
X130301100Y-98203600D03*
%TO.P,D1,C*%
%TO.N,N$4*%
X130301100Y-99703600D03*
%TD*%
D14*
%TO.P,R10,1*%
%TO.N,N$4*%
X129051100Y-98653600D03*
%TO.P,R10,2*%
%TO.N,GND*%
X129051100Y-100153600D03*
%TD*%
D22*
%TO.P,D3,A*%
%TO.N,N$6*%
X163301100Y-98553600D03*
%TO.P,D3,C*%
%TO.N,GND*%
X164801100Y-98553600D03*
%TD*%
D14*
%TO.P,R12,1*%
%TO.N,LED1*%
X160401100Y-98653600D03*
%TO.P,R12,2*%
%TO.N,N$6*%
X161901100Y-98653600D03*
%TD*%
D22*
%TO.P,D4,A*%
%TO.N,N$8*%
X163301100Y-99753600D03*
%TO.P,D4,C*%
%TO.N,GND*%
X164801100Y-99753600D03*
%TD*%
D14*
%TO.P,R13,1*%
%TO.N,LED0*%
X160401100Y-99953600D03*
%TO.P,R13,2*%
%TO.N,N$8*%
X161901100Y-99953600D03*
%TD*%
D23*
%TO.P,IC3,1*%
%TO.N,5.0V*%
X135451100Y-99803600D03*
%TO.P,IC3,2*%
%TO.N,GND*%
X135451100Y-99153600D03*
%TO.P,IC3,3*%
%TO.N,5.0V*%
X135451100Y-98503600D03*
%TO.P,IC3,4*%
%TO.N,N/C*%
X133651100Y-98503600D03*
%TO.P,IC3,5*%
%TO.N,3.3V*%
X133651100Y-99803600D03*
%TD*%
D21*
%TO.P,C1,1*%
%TO.N,5.0V*%
X136751100Y-100078600D03*
%TO.P,C1,2*%
%TO.N,GND*%
X136751100Y-98328600D03*
%TD*%
%TO.P,C2,1*%
%TO.N,3.3V*%
X132351100Y-100078600D03*
%TO.P,C2,2*%
%TO.N,GND*%
X132351100Y-98328600D03*
%TD*%
%TO.P,C3,1*%
%TO.N,3.3V*%
X152251100Y-102778600D03*
%TO.P,C3,2*%
%TO.N,GND*%
X152251100Y-104528600D03*
%TD*%
%TO.P,C4,1*%
%TO.N,3.3V*%
X143751100Y-97328600D03*
%TO.P,C4,2*%
%TO.N,GND*%
X143751100Y-99078600D03*
%TD*%
D19*
%TO.P,C5,1*%
%TO.N,3.3V*%
X138626100Y-108053600D03*
%TO.P,C5,2*%
%TO.N,GND*%
X140376100Y-108053600D03*
%TD*%
D17*
%TO.P,BTN2,1*%
%TO.N,BOOT0*%
X145501100Y-111603600D03*
%TO.P,BTN2,2*%
%TO.N,3.3V*%
X142101100Y-111603600D03*
%TD*%
D14*
%TO.P,R9,1*%
%TO.N,GND*%
X146751100Y-112553600D03*
%TO.P,R9,2*%
%TO.N,BOOT0*%
X146751100Y-111053600D03*
%TD*%
D24*
%TO.P,JP1,1*%
%TO.N,TARGET_RST*%
X164131100Y-101773600D03*
%TO.P,JP1,2*%
%TO.N,TARGET_TDO*%
X166671100Y-101773600D03*
%TO.P,JP1,3*%
%TO.N,TARGET_TCK*%
X164131100Y-104313600D03*
%TO.P,JP1,4*%
%TO.N,TARGET_TRST*%
X166671100Y-104313600D03*
%TO.P,JP1,5*%
%TO.N,TARGET_TMS*%
X164131100Y-106853600D03*
%TO.P,JP1,6*%
%TO.N,TARGET_TDI*%
X166671100Y-106853600D03*
%TO.P,JP1,7*%
%TO.N,GND*%
X164131100Y-109393600D03*
%TO.P,JP1,8*%
%TO.N,T_RXD*%
X166671100Y-109393600D03*
%TO.P,JP1,9*%
%TO.N,T_PWR*%
X164131100Y-111933600D03*
%TO.P,JP1,10*%
%TO.N,T_TXD*%
X166671100Y-111933600D03*
%TD*%
D21*
%TO.P,C6,1*%
%TO.N,3.3V*%
X148151100Y-112678600D03*
%TO.P,C6,2*%
%TO.N,GND*%
X148151100Y-110928600D03*
%TD*%
D19*
%TO.P,C10,1*%
%TO.N,3.3V*%
X155926100Y-108503600D03*
%TO.P,C10,2*%
%TO.N,GND*%
X157676100Y-108503600D03*
%TD*%
%TO.P,C11,1*%
%TO.N,T_PWR*%
X160876100Y-108503600D03*
%TO.P,C11,2*%
%TO.N,GND*%
X159126100Y-108503600D03*
%TD*%
D25*
%TO.N,TRST*%
X154251100Y-103628600D03*
%TO.N,GND*%
X138751100Y-100453600D03*
X139151100Y-98853600D03*
X130800000Y-109200000D03*
X157701100Y-101003600D03*
X134550000Y-98750000D03*
X165401100Y-100903600D03*
X143351100Y-107403600D03*
X135850000Y-108900000D03*
X155701100Y-98653600D03*
X136900000Y-103900000D03*
X144051100Y-102053600D03*
X134550000Y-100150000D03*
X136550000Y-108900000D03*
X154451100Y-100803600D03*
X131251100Y-100453600D03*
X152951100Y-111303600D03*
X134550000Y-99450000D03*
X157701100Y-107403600D03*
X132300000Y-111200000D03*
X148551100Y-107953600D03*
X137250000Y-108900000D03*
X134200000Y-101400000D03*
X130800000Y-103600000D03*
X154451100Y-111303600D03*
X149251100Y-104253600D03*
X134200000Y-111200000D03*
X132300000Y-101400000D03*
X159101100Y-107403600D03*
%TO.N,RST*%
X150601100Y-101553600D03*
X153801100Y-100153600D03*
%TO.N,PWR_BR*%
X153001100Y-107203600D03*
X148301100Y-105903600D03*
%TO.N,RXD*%
X153001100Y-105903600D03*
X149251100Y-105903600D03*
%TO.N,TXD*%
X143851100Y-106103600D03*
X149251100Y-106803600D03*
X144301100Y-107403600D03*
X153626100Y-106553600D03*
%TO.N,3.3V*%
X142651100Y-97153600D03*
X131251100Y-99553600D03*
X144551100Y-112853600D03*
X131251100Y-98853600D03*
X154851100Y-108103600D03*
X160851100Y-112303600D03*
X150151100Y-100753600D03*
X149251100Y-112853600D03*
X138351100Y-112053600D03*
%TD*%
D26*
%TO.N,TRST*%
X154551100Y-103928600D02*
X154251100Y-103628600D01*
X155601100Y-103928600D02*
X154551100Y-103928600D01*
D27*
%TO.N,GND*%
X130501100Y-110803600D02*
X130501100Y-109498900D01*
D28*
X165001100Y-100503600D02*
X165401100Y-100903600D01*
X157951100Y-111978600D02*
X157276100Y-111303600D01*
D27*
X130501100Y-102003600D02*
X130501100Y-103301100D01*
X136550000Y-108900000D02*
X137250000Y-108900000D01*
X130501100Y-110803600D02*
X130897500Y-111200000D01*
D26*
X148151100Y-111053600D02*
X148151100Y-110928600D01*
D28*
X150451100Y-110728600D02*
X151026100Y-111303600D01*
D29*
X144051100Y-100753600D02*
X144051100Y-99378600D01*
D27*
X136565100Y-108884900D02*
X136550000Y-108900000D01*
X130897500Y-111200000D02*
X132300000Y-111200000D01*
D26*
X146751100Y-112553600D02*
X146751100Y-112453600D01*
D29*
X144051100Y-102053600D02*
X144051100Y-100753600D01*
D27*
X136900000Y-102902500D02*
X136900000Y-103900000D01*
D29*
X142051100Y-107253600D02*
X141126100Y-107253600D01*
D27*
X134550000Y-99450000D02*
X134550000Y-98750000D01*
D28*
X159126100Y-108503600D02*
X159101100Y-108478600D01*
X165001100Y-99753600D02*
X165001100Y-100503600D01*
X165001100Y-98553600D02*
X165001100Y-99753600D01*
D27*
X130501100Y-102003600D02*
X131104700Y-101400000D01*
D28*
X165001100Y-97553600D02*
X165001100Y-98553600D01*
D27*
X136001100Y-102003600D02*
X136900000Y-102902500D01*
D28*
X157676100Y-108503600D02*
X157701100Y-108478600D01*
D29*
X143201100Y-107253600D02*
X143351100Y-107403600D01*
D27*
X130501100Y-103301100D02*
X130800000Y-103600000D01*
D29*
X150551100Y-104253600D02*
X151976100Y-104253600D01*
X140376100Y-108053600D02*
X140376100Y-108003600D01*
D28*
X164801100Y-98553600D02*
X165001100Y-98553600D01*
D27*
X136565100Y-108003600D02*
X136565100Y-108884900D01*
D29*
X142051100Y-107253600D02*
X143201100Y-107253600D01*
X148551100Y-109253600D02*
X148551100Y-110528600D01*
D27*
X134846400Y-99153600D02*
X134550000Y-99450000D01*
X136550000Y-108900000D02*
X135850000Y-108900000D01*
D30*
X157701100Y-108478600D02*
X157701100Y-107403600D01*
D27*
X131104700Y-101400000D02*
X132300000Y-101400000D01*
D29*
X150551100Y-104253600D02*
X149251100Y-104253600D01*
X148551100Y-107953600D02*
X148551100Y-109253600D01*
D26*
X146751100Y-112453600D02*
X148151100Y-111053600D01*
D27*
X135397500Y-101400000D02*
X134200000Y-101400000D01*
D28*
X157276100Y-111303600D02*
X154451100Y-111303600D01*
D27*
X135604700Y-111200000D02*
X134200000Y-111200000D01*
D26*
X138751100Y-101453600D02*
X138751100Y-100453600D01*
X138301100Y-98853600D02*
X139151100Y-98853600D01*
D29*
X148551100Y-110528600D02*
X148151100Y-110928600D01*
D30*
X157701100Y-100003600D02*
X157701100Y-101003600D01*
D27*
X134550000Y-99450000D02*
X134550000Y-100150000D01*
D29*
X151976100Y-104253600D02*
X152251100Y-104528600D01*
X129351100Y-100453600D02*
X131251100Y-100453600D01*
D30*
X159101100Y-108478600D02*
X159101100Y-107403600D01*
D26*
X138301100Y-98203600D02*
X138301100Y-98853600D01*
D27*
X130501100Y-109498900D02*
X130800000Y-109200000D01*
D28*
X154926100Y-101328600D02*
X155601100Y-101328600D01*
D30*
X154626100Y-98653600D02*
X155701100Y-98653600D01*
D27*
X135451100Y-99153600D02*
X134846400Y-99153600D01*
D29*
X140376100Y-108003600D02*
X141126100Y-107253600D01*
D28*
X151026100Y-111303600D02*
X152951100Y-111303600D01*
D29*
X144051100Y-99378600D02*
X143751100Y-99078600D01*
D28*
X154926100Y-101278600D02*
X154926100Y-101328600D01*
X164801100Y-99753600D02*
X165001100Y-99753600D01*
D29*
X129051100Y-100153600D02*
X129351100Y-100453600D01*
D27*
X136001100Y-110803600D02*
X135604700Y-111200000D01*
D28*
X164801100Y-97353600D02*
X165001100Y-97553600D01*
D27*
X136001100Y-102003600D02*
X135397500Y-101400000D01*
D30*
X154926100Y-101278600D02*
X154451100Y-100803600D01*
D26*
%TO.N,OSC_IN*%
X153701100Y-109603600D02*
X153701100Y-111553600D01*
X152751100Y-112503600D02*
X152351100Y-112503600D01*
X150551100Y-105753600D02*
X151401100Y-105753600D01*
X151701100Y-106053600D02*
X151701100Y-107603600D01*
X150451100Y-112478600D02*
X150476100Y-112503600D01*
X150476100Y-112503600D02*
X152351100Y-112503600D01*
X153701100Y-111553600D02*
X152751100Y-112503600D01*
X151701100Y-107603600D02*
X153701100Y-109603600D01*
X151401100Y-105753600D02*
X151701100Y-106053600D01*
%TO.N,USB_ENUMERATE*%
X142051100Y-104253600D02*
X140451100Y-104253600D01*
X140451100Y-104253600D02*
X140251100Y-104053600D01*
%TO.N,USB_DM*%
X142051100Y-105753600D02*
X140651100Y-105753600D01*
X140651100Y-105753600D02*
X140251100Y-105353600D01*
%TO.N,USB_DP*%
X140651100Y-106253600D02*
X140251100Y-106653600D01*
X142051100Y-106253600D02*
X140651100Y-106253600D01*
%TO.N,LED2*%
X147426100Y-96903600D02*
X159951100Y-96903600D01*
X159951100Y-96903600D02*
X160401100Y-97353600D01*
X147426100Y-96903600D02*
X144551100Y-99778600D01*
X144551100Y-100753600D02*
X144551100Y-99778600D01*
%TO.N,LED1*%
X160351100Y-98653600D02*
X160401100Y-98653600D01*
X145051100Y-100753600D02*
X145051100Y-99853600D01*
X147601100Y-97303600D02*
X145051100Y-99853600D01*
X159651100Y-97703600D02*
X159651100Y-97953600D01*
X159251100Y-97303600D02*
X159651100Y-97703600D01*
X147601100Y-97303600D02*
X159251100Y-97303600D01*
X159651100Y-97953600D02*
X160351100Y-98653600D01*
%TO.N,LED0*%
X145551100Y-100753600D02*
X145551100Y-99928600D01*
X159051100Y-97703600D02*
X159251100Y-97903600D01*
X147776100Y-97703600D02*
X159051100Y-97703600D01*
X159251100Y-97903600D02*
X159251100Y-98853600D01*
X147776100Y-97703600D02*
X145551100Y-99928600D01*
X160351100Y-99953600D02*
X160401100Y-99953600D01*
X159251100Y-98853600D02*
X160351100Y-99953600D01*
%TO.N,RST*%
X156701100Y-101003600D02*
X156501100Y-100803600D01*
X156501100Y-100803600D02*
X155401100Y-100803600D01*
X150551100Y-102253600D02*
X150601100Y-102253600D01*
X150601100Y-102253600D02*
X150601100Y-101553600D01*
X156701100Y-101003600D02*
X156701100Y-101653600D01*
X155401100Y-100803600D02*
X154751100Y-100153600D01*
X156376100Y-101978600D02*
X155601100Y-101978600D01*
X156701100Y-101653600D02*
X156376100Y-101978600D01*
X153801100Y-100153600D02*
X154751100Y-100153600D01*
%TO.N,TDI*%
X153201100Y-104078600D02*
X154351100Y-105228600D01*
X154351100Y-105228600D02*
X155601100Y-105228600D01*
X149051100Y-100103600D02*
X151101100Y-100103600D01*
X149051100Y-100753600D02*
X149051100Y-100103600D01*
X151101100Y-100103600D02*
X153201100Y-102203600D01*
X153201100Y-102203600D02*
X153201100Y-104078600D01*
%TO.N,TMS*%
X148551100Y-100753600D02*
X148551100Y-99903600D01*
X151276100Y-99703600D02*
X153601100Y-102028600D01*
X148551100Y-99903600D02*
X148751100Y-99703600D01*
X153601100Y-102028600D02*
X153601100Y-103903600D01*
X154276100Y-104578600D02*
X155601100Y-104578600D01*
X153601100Y-103903600D02*
X154276100Y-104578600D01*
X148751100Y-99703600D02*
X151276100Y-99703600D01*
%TO.N,TCK*%
X154826100Y-103278600D02*
X155601100Y-103278600D01*
X154001100Y-102453600D02*
X154826100Y-103278600D01*
X154001100Y-101853600D02*
X154001100Y-102453600D01*
X148576100Y-99303600D02*
X151451100Y-99303600D01*
X148051100Y-99828600D02*
X148576100Y-99303600D01*
X151451100Y-99303600D02*
X154001100Y-101853600D01*
X148051100Y-100753600D02*
X148051100Y-99828600D01*
%TO.N,TDO*%
X151626100Y-98903600D02*
X154401100Y-101678600D01*
X147551100Y-99753600D02*
X148401100Y-98903600D01*
X154826100Y-102628600D02*
X155601100Y-102628600D01*
X154401100Y-101678600D02*
X154401100Y-102203600D01*
X154401100Y-102203600D02*
X154826100Y-102628600D01*
X147551100Y-100753600D02*
X147551100Y-99753600D01*
X148401100Y-98903600D02*
X151626100Y-98903600D01*
%TO.N,PWR_BR*%
X159501100Y-110153600D02*
X159601100Y-110153600D01*
X146051100Y-103653600D02*
X148301100Y-105903600D01*
X155151100Y-109353600D02*
X153001100Y-107203600D01*
X158701100Y-109353600D02*
X159501100Y-110153600D01*
X146051100Y-100753600D02*
X146051100Y-103653600D01*
X155151100Y-109353600D02*
X158701100Y-109353600D01*
D31*
%TO.N,T_PWR*%
X161201100Y-106528600D02*
X160276100Y-106528600D01*
D30*
X162631100Y-111933600D02*
X164131100Y-111933600D01*
D29*
X160001100Y-101703600D02*
X158601100Y-100303600D01*
D31*
X160276100Y-106528600D02*
X160001100Y-106803600D01*
D29*
X160001100Y-106253600D02*
X160001100Y-101703600D01*
D31*
X160001100Y-107628600D02*
X160876100Y-108503600D01*
D30*
X161801100Y-109428600D02*
X161801100Y-111103600D01*
D29*
X160276100Y-106528600D02*
X160001100Y-106253600D01*
X158601100Y-100303600D02*
X158601100Y-98953600D01*
X160376100Y-101328600D02*
X161201100Y-101328600D01*
D30*
X160876100Y-108503600D02*
X161801100Y-109428600D01*
D31*
X160001100Y-106803600D02*
X160001100Y-107628600D01*
D29*
X160001100Y-101703600D02*
X160376100Y-101328600D01*
D30*
X161801100Y-111103600D02*
X162631100Y-111933600D01*
D29*
X158601100Y-98953600D02*
X158301100Y-98653600D01*
D26*
%TO.N,RXD*%
X142051100Y-105253600D02*
X142951100Y-105253600D01*
X143201100Y-106753600D02*
X148376100Y-106753600D01*
X153026100Y-105878600D02*
X153001100Y-105903600D01*
X148376100Y-106753600D02*
X149226100Y-105903600D01*
X143201100Y-105503600D02*
X143201100Y-106753600D01*
X142951100Y-105253600D02*
X143201100Y-105503600D01*
X142051100Y-106753600D02*
X143201100Y-106753600D01*
X149226100Y-105903600D02*
X149251100Y-105903600D01*
X153026100Y-105878600D02*
X155601100Y-105878600D01*
%TO.N,TXD*%
X154226100Y-106553600D02*
X154851100Y-107178600D01*
X148901100Y-107153600D02*
X149251100Y-106803600D01*
X143851100Y-105553600D02*
X143851100Y-106103600D01*
X143551100Y-108153600D02*
X144301100Y-107403600D01*
X144301100Y-107403600D02*
X144551100Y-107153600D01*
X154851100Y-107178600D02*
X155601100Y-107178600D01*
X143551100Y-109253600D02*
X143551100Y-108153600D01*
X153626100Y-106553600D02*
X154226100Y-106553600D01*
X142051100Y-104753600D02*
X143051100Y-104753600D01*
X144551100Y-107153600D02*
X148901100Y-107153600D01*
X143051100Y-104753600D02*
X143851100Y-105553600D01*
D30*
%TO.N,3.3V*%
X152251100Y-102053600D02*
X152251100Y-102778600D01*
X142651100Y-97153600D02*
X142751100Y-97053600D01*
D31*
X156801100Y-107628600D02*
X155926100Y-108503600D01*
D29*
X142851100Y-99753600D02*
X142851100Y-98228600D01*
D26*
X149501100Y-110003600D02*
X150551100Y-108953600D01*
X142851100Y-112853600D02*
X144551100Y-112853600D01*
D30*
X138351100Y-112048900D02*
X138351100Y-108328600D01*
D29*
X138626100Y-108053600D02*
X139526100Y-108953600D01*
D30*
X149151100Y-112953600D02*
X148426100Y-112953600D01*
D31*
X156526100Y-106528600D02*
X156801100Y-106803600D01*
D26*
X130401100Y-98203600D02*
X130301100Y-98203600D01*
D30*
X138350000Y-112050000D02*
X138351100Y-112048900D01*
D26*
X145051100Y-110353600D02*
X144701100Y-110703600D01*
D30*
X159601100Y-112053600D02*
X159851100Y-112303600D01*
D26*
X142101100Y-111603600D02*
X142101100Y-112103600D01*
D29*
X141051100Y-108953600D02*
X141451100Y-108553600D01*
D31*
X155601100Y-106528600D02*
X156526100Y-106528600D01*
D29*
X149051100Y-111778600D02*
X148151100Y-112678600D01*
D26*
X145551100Y-110153600D02*
X145351100Y-110353600D01*
D30*
X155926100Y-108503600D02*
X155251100Y-108503600D01*
X131251100Y-98953600D02*
X131251100Y-98853600D01*
D29*
X143551100Y-100303600D02*
X143551100Y-100753600D01*
D30*
X138351100Y-108328600D02*
X138626100Y-108053600D01*
D31*
X156801100Y-106803600D02*
X156801100Y-107628600D01*
D30*
X131501100Y-99553600D02*
X132026100Y-100078600D01*
X149251100Y-112853600D02*
X149151100Y-112953600D01*
D29*
X143251100Y-100153600D02*
X142851100Y-99753600D01*
X150551100Y-103753600D02*
X151451100Y-103753600D01*
D26*
X149501100Y-110003600D02*
X149501100Y-112603600D01*
D29*
X143401100Y-100153600D02*
X143551100Y-100303600D01*
D30*
X131251100Y-99553600D02*
X131251100Y-98953600D01*
D29*
X139526100Y-108953600D02*
X141051100Y-108953600D01*
D30*
X159851100Y-112303600D02*
X160851100Y-112303600D01*
D29*
X149051100Y-109253600D02*
X149051100Y-111778600D01*
D26*
X142401100Y-99603600D02*
X142401100Y-97403600D01*
X141851100Y-100153600D02*
X142401100Y-99603600D01*
D30*
X150951100Y-100753600D02*
X152251100Y-102053600D01*
D26*
X145351100Y-110353600D02*
X145051100Y-110353600D01*
X145551100Y-109253600D02*
X145551100Y-110153600D01*
X144701100Y-110703600D02*
X144701100Y-112703600D01*
D29*
X151451100Y-103753600D02*
X152251100Y-102953600D01*
D26*
X142101100Y-112103600D02*
X142851100Y-112853600D01*
D30*
X143476100Y-97053600D02*
X143751100Y-97328600D01*
D29*
X141601100Y-107753600D02*
X142051100Y-107753600D01*
X142851100Y-98228600D02*
X143751100Y-97328600D01*
X152251100Y-102953600D02*
X152251100Y-102778600D01*
D30*
X142751100Y-97053600D02*
X143476100Y-97053600D01*
D26*
X150551100Y-108953600D02*
X150551100Y-107753600D01*
X142401100Y-97403600D02*
X142651100Y-97153600D01*
D29*
X141451100Y-107903600D02*
X141601100Y-107753600D01*
X143401100Y-100153600D02*
X143251100Y-100153600D01*
D26*
X145051100Y-110353600D02*
X145051100Y-109253600D01*
D30*
X131251100Y-99553600D02*
X131501100Y-99553600D01*
X132026100Y-100078600D02*
X132351100Y-100078600D01*
X155251100Y-108503600D02*
X154851100Y-108103600D01*
X132351100Y-100053600D02*
X131251100Y-98953600D01*
X132351100Y-100078600D02*
X132351100Y-100053600D01*
D29*
X141451100Y-108553600D02*
X141451100Y-107903600D01*
D30*
X148426100Y-112953600D02*
X148151100Y-112678600D01*
X150151100Y-100753600D02*
X150951100Y-100753600D01*
D26*
X131051100Y-98853600D02*
X131251100Y-98853600D01*
X131051100Y-98853600D02*
X130401100Y-98203600D01*
X149501100Y-112603600D02*
X149251100Y-112853600D01*
X144701100Y-112703600D02*
X144551100Y-112853600D01*
%TO.N,D+*%
X138751100Y-106653600D02*
X138801100Y-106653600D01*
X138501100Y-106403600D02*
X138751100Y-106653600D01*
X138801100Y-104053600D02*
X139501100Y-104753600D01*
X136565100Y-106403600D02*
X138501100Y-106403600D01*
X138751100Y-104053600D02*
X138801100Y-104053600D01*
X139501100Y-104753600D02*
X139501100Y-105953600D01*
X138801100Y-106653600D02*
X139501100Y-105953600D01*
%TO.N,D-*%
X136565100Y-105603600D02*
X138501100Y-105603600D01*
X138501100Y-105603600D02*
X138751100Y-105353600D01*
D30*
%TO.N,5.0V*%
X136751100Y-100078600D02*
X136801100Y-100128600D01*
D26*
X135701100Y-98303600D02*
X135501100Y-98503600D01*
D30*
X137451100Y-104803600D02*
X136565100Y-104803600D01*
X137751100Y-102753600D02*
X137751100Y-100878600D01*
D26*
X135701100Y-97853600D02*
X135701100Y-98303600D01*
D30*
X136751100Y-100078600D02*
X136951100Y-100078600D01*
D26*
X137401100Y-97453600D02*
X136101100Y-97453600D01*
X137601100Y-97653600D02*
X137401100Y-97453600D01*
D30*
X136951100Y-100078600D02*
X137751100Y-100878600D01*
D26*
X136101100Y-97453600D02*
X135701100Y-97853600D01*
X136751100Y-100078600D02*
X137601100Y-99228600D01*
X135501100Y-98503600D02*
X135451100Y-98503600D01*
X137601100Y-99228600D02*
X137601100Y-97653600D01*
X138751100Y-102753600D02*
X137751100Y-102753600D01*
D30*
X137751100Y-102753600D02*
X137751100Y-104503600D01*
X137751100Y-104503600D02*
X137451100Y-104803600D01*
D26*
%TO.N,VBUS*%
X140251100Y-101453600D02*
X140251100Y-102753600D01*
X142051100Y-102753600D02*
X140251100Y-102753600D01*
%TO.N,FORCE_BOOTLOADER*%
X141101100Y-101903600D02*
X141101100Y-100903600D01*
X140351100Y-100153600D02*
X141701100Y-98803600D01*
X140351100Y-100153600D02*
X141101100Y-100903600D01*
X141701100Y-98803600D02*
X141701100Y-98203600D01*
X141451100Y-102253600D02*
X142051100Y-102253600D01*
X141101100Y-101903600D02*
X141451100Y-102253600D01*
%TO.N,TARGET_POWER_ADC*%
X153726100Y-99503600D02*
X155101100Y-99503600D01*
X146551100Y-100753600D02*
X146551100Y-99903600D01*
X155601100Y-100003600D02*
X155101100Y-99503600D01*
X153726100Y-99503600D02*
X152876100Y-98653600D01*
X152726100Y-98503600D02*
X152876100Y-98653600D01*
X156801100Y-98653600D02*
X156501100Y-98953600D01*
X147951100Y-98503600D02*
X152726100Y-98503600D01*
X146551100Y-99903600D02*
X147951100Y-98503600D01*
X156501100Y-98953600D02*
X156501100Y-99703600D01*
X156201100Y-100003600D02*
X155601100Y-100003600D01*
X156501100Y-99703600D02*
X156201100Y-100003600D01*
%TO.N,TARGET_TMS*%
X161201100Y-104578600D02*
X161976100Y-104578600D01*
X161976100Y-104578600D02*
X164131100Y-106733600D01*
X164131100Y-106733600D02*
X164131100Y-106853600D01*
%TO.N,TARGET_TCK*%
X163096100Y-103278600D02*
X164131100Y-104313600D01*
X161201100Y-103278600D02*
X163096100Y-103278600D01*
%TO.N,TARGET_TDO*%
X163654850Y-102837225D02*
X163446225Y-102628600D01*
X165607475Y-102837225D02*
X163654850Y-102837225D01*
X166671100Y-101773600D02*
X165607475Y-102837225D01*
X161201100Y-102628600D02*
X163446225Y-102628600D01*
%TO.N,TARGET_TDI*%
X161201100Y-105228600D02*
X161976100Y-105228600D01*
X166671100Y-106853600D02*
X165607475Y-107917225D01*
X163654850Y-107917225D02*
X163051600Y-107313975D01*
X165607475Y-107917225D02*
X163654850Y-107917225D01*
X163051600Y-106304100D02*
X163051600Y-107313975D01*
X161976100Y-105228600D02*
X163051600Y-106304100D01*
%TO.N,TARGET_RST*%
X163926100Y-101978600D02*
X164131100Y-101773600D01*
X161201100Y-101978600D02*
X163926100Y-101978600D01*
%TO.N,LPC_XTAL2*%
X150551100Y-105253600D02*
X151476100Y-105253600D01*
X157951100Y-110228600D02*
X157926100Y-110203600D01*
X157926100Y-110203600D02*
X156051100Y-110203600D01*
X154101100Y-109428600D02*
X154101100Y-110453600D01*
X152101100Y-105878600D02*
X152101100Y-107428600D01*
X151476100Y-105253600D02*
X152101100Y-105878600D01*
X152101100Y-107428600D02*
X154101100Y-109428600D01*
X155601100Y-110653600D02*
X156051100Y-110203600D01*
X154301100Y-110653600D02*
X155601100Y-110653600D01*
X154101100Y-110453600D02*
X154301100Y-110653600D01*
%TO.N,N$2*%
X161901100Y-97353600D02*
X163301100Y-97353600D01*
%TO.N,N$6*%
X162001100Y-98553600D02*
X163301100Y-98553600D01*
X161901100Y-98653600D02*
X162001100Y-98553600D01*
%TO.N,N$8*%
X162101100Y-99753600D02*
X163301100Y-99753600D01*
X161901100Y-99953600D02*
X162101100Y-99753600D01*
%TO.N,BOOT0*%
X145501100Y-111403600D02*
X145501100Y-111603600D01*
X147051100Y-110753600D02*
X146751100Y-111053600D01*
X147051100Y-109253600D02*
X147051100Y-110753600D01*
X146401100Y-111403600D02*
X145501100Y-111403600D01*
X146751100Y-111053600D02*
X146401100Y-111403600D01*
%TO.N,TARGET_TRST*%
X165607475Y-105377225D02*
X163654850Y-105377225D01*
X161201100Y-103928600D02*
X162206225Y-103928600D01*
X166671100Y-104313600D02*
X165607475Y-105377225D01*
X162206225Y-103928600D02*
X163654850Y-105377225D01*
%TO.N,T_RXD*%
X161201100Y-105878600D02*
X161976100Y-105878600D01*
X165607475Y-108329975D02*
X163496100Y-108329975D01*
X166671100Y-109393600D02*
X165607475Y-108329975D01*
X163496100Y-108329975D02*
X162638850Y-107472725D01*
X161976100Y-105878600D02*
X162638850Y-106541350D01*
X162638850Y-106541350D02*
X162638850Y-107472725D01*
%TO.N,T_TXD*%
X166671100Y-111933600D02*
X165401100Y-110663600D01*
X161773225Y-107178600D02*
X163051600Y-108456975D01*
X163892975Y-110663600D02*
X163051600Y-109822225D01*
X163051600Y-109822225D02*
X163051600Y-108456975D01*
X165401100Y-110663600D02*
X163892975Y-110663600D01*
X161201100Y-107178600D02*
X161773225Y-107178600D01*
%TO.N,N$4*%
X130201100Y-99703600D02*
X129151100Y-98653600D01*
X129151100Y-98653600D02*
X129051100Y-98653600D01*
X130301100Y-99703600D02*
X130201100Y-99703600D01*
%TD*%
%TA.AperFunction,Conductor*%
%TO.N,3.3V*%
G36*
X133959191Y-99568907D02*
G01*
X133995155Y-99618407D01*
X134000000Y-99649000D01*
X134000000Y-99933992D01*
X133981093Y-99992183D01*
X133971004Y-100003996D01*
X133403996Y-100571004D01*
X133349479Y-100598781D01*
X133333992Y-100600000D01*
X131924000Y-100600000D01*
X131865809Y-100581093D01*
X131829845Y-100531593D01*
X131825000Y-100501000D01*
X131825000Y-99649000D01*
X131843907Y-99590809D01*
X131893407Y-99554845D01*
X131924000Y-99550000D01*
X133901000Y-99550000D01*
X133959191Y-99568907D01*
G37*
%TD.AperFunction*%
%TD*%
%TA.AperFunction,Conductor*%
%TO.N,GND*%
G36*
X132667183Y-97818907D02*
G01*
X132678996Y-97828996D01*
X133073150Y-98223150D01*
X133100927Y-98277667D01*
X133101669Y-98302857D01*
X133101548Y-98304086D01*
X133100600Y-98308852D01*
X133100600Y-98698348D01*
X133112233Y-98756831D01*
X133156548Y-98823152D01*
X133222869Y-98867467D01*
X133232432Y-98869369D01*
X133232434Y-98869370D01*
X133255105Y-98873879D01*
X133281352Y-98879100D01*
X134020848Y-98879100D01*
X134047095Y-98873879D01*
X134069766Y-98869370D01*
X134069768Y-98869369D01*
X134079331Y-98867467D01*
X134145652Y-98823152D01*
X134189967Y-98756831D01*
X134201600Y-98698348D01*
X134201600Y-98499000D01*
X134220507Y-98440809D01*
X134270007Y-98404845D01*
X134300600Y-98400000D01*
X134801600Y-98400000D01*
X134859791Y-98418907D01*
X134895755Y-98468407D01*
X134900600Y-98499000D01*
X134900600Y-98698348D01*
X134912233Y-98756831D01*
X134956548Y-98823152D01*
X135022869Y-98867467D01*
X135032432Y-98869369D01*
X135032434Y-98869370D01*
X135055105Y-98873879D01*
X135081352Y-98879100D01*
X135820848Y-98879100D01*
X135847095Y-98873879D01*
X135869766Y-98869370D01*
X135869768Y-98869369D01*
X135879331Y-98867467D01*
X135945652Y-98823152D01*
X135989967Y-98756831D01*
X136001600Y-98698348D01*
X136001600Y-98350515D01*
X136004275Y-98327656D01*
X136004330Y-98327426D01*
X136006440Y-98318534D01*
X136002504Y-98289612D01*
X136001600Y-98276263D01*
X136001600Y-98039408D01*
X136020507Y-97981217D01*
X136030596Y-97969404D01*
X136171004Y-97828996D01*
X136225521Y-97801219D01*
X136241008Y-97800000D01*
X137201000Y-97800000D01*
X137259191Y-97818907D01*
X137295155Y-97868407D01*
X137300000Y-97899000D01*
X137300000Y-99063721D01*
X137281093Y-99121912D01*
X137271004Y-99133725D01*
X137089225Y-99315504D01*
X137034708Y-99343281D01*
X137019221Y-99344500D01*
X135199000Y-99344500D01*
X135181317Y-99345892D01*
X135168796Y-99346877D01*
X135168788Y-99346878D01*
X135166856Y-99347030D01*
X135158799Y-99348306D01*
X135155799Y-99348781D01*
X135140314Y-99350000D01*
X135000000Y-99350000D01*
X135000000Y-99379317D01*
X134981093Y-99437508D01*
X134976998Y-99442763D01*
X134976243Y-99443668D01*
X134970372Y-99448797D01*
X134923464Y-99527307D01*
X134921746Y-99532596D01*
X134920638Y-99535034D01*
X134920592Y-99535160D01*
X134917650Y-99542261D01*
X134912233Y-99550369D01*
X134910331Y-99559932D01*
X134907431Y-99574509D01*
X134906598Y-99578305D01*
X134905761Y-99581792D01*
X134904557Y-99585498D01*
X134903948Y-99589343D01*
X134903946Y-99589352D01*
X134902171Y-99600559D01*
X134901558Y-99603999D01*
X134901550Y-99604075D01*
X134900601Y-99608848D01*
X134899754Y-99608679D01*
X134899071Y-99610241D01*
X134900600Y-99610483D01*
X134894500Y-99649000D01*
X134894500Y-99933992D01*
X134894537Y-99934924D01*
X134894537Y-99934942D01*
X134894981Y-99946221D01*
X134895134Y-99950117D01*
X134896353Y-99965604D01*
X134897674Y-99970286D01*
X134898528Y-99975070D01*
X134897946Y-99975174D01*
X134899814Y-99988676D01*
X134900123Y-99988646D01*
X134900600Y-99993488D01*
X134900600Y-99998348D01*
X134912233Y-100056831D01*
X134933270Y-100088314D01*
X134951131Y-100115046D01*
X134951133Y-100115048D01*
X134956548Y-100123152D01*
X134964653Y-100128568D01*
X134971005Y-100134920D01*
X134998781Y-100189437D01*
X135000000Y-100204922D01*
X135000000Y-100501000D01*
X134981093Y-100559191D01*
X134931593Y-100595155D01*
X134901000Y-100600000D01*
X134199000Y-100600000D01*
X134140809Y-100581093D01*
X134104845Y-100531593D01*
X134100000Y-100501000D01*
X134100000Y-100206572D01*
X134118907Y-100148381D01*
X134131480Y-100136295D01*
X134130649Y-100135464D01*
X134137542Y-100128571D01*
X134145652Y-100123152D01*
X134189967Y-100056831D01*
X134201600Y-99998348D01*
X134201600Y-99966406D01*
X134202819Y-99950920D01*
X134204891Y-99937840D01*
X134204891Y-99937835D01*
X134205500Y-99933992D01*
X134205500Y-99649000D01*
X134202970Y-99616856D01*
X134198125Y-99586263D01*
X134196436Y-99582185D01*
X134195618Y-99578778D01*
X134191869Y-99559933D01*
X134191869Y-99559932D01*
X134189967Y-99550369D01*
X134177732Y-99532058D01*
X134168585Y-99514944D01*
X134163644Y-99503016D01*
X134161408Y-99497617D01*
X134125444Y-99448117D01*
X134123980Y-99446441D01*
X134122600Y-99444711D01*
X134123256Y-99444188D01*
X134100399Y-99390720D01*
X134100000Y-99381839D01*
X134100000Y-99350000D01*
X133943517Y-99350000D01*
X133928031Y-99348781D01*
X133904848Y-99345109D01*
X133904843Y-99345109D01*
X133901000Y-99344500D01*
X132320111Y-99344500D01*
X132261920Y-99325593D01*
X132250107Y-99315504D01*
X131832864Y-98898261D01*
X131804715Y-98841180D01*
X131800847Y-98811802D01*
X131800000Y-98798879D01*
X131800000Y-97899000D01*
X131818907Y-97840809D01*
X131868407Y-97804845D01*
X131899000Y-97800000D01*
X132608992Y-97800000D01*
X132667183Y-97818907D01*
G37*
%TD.AperFunction*%
%TD*%
%TA.AperFunction,Conductor*%
%TO.N,GND*%
G36*
X137252580Y-101018907D02*
G01*
X137264393Y-101028996D01*
X137271604Y-101036207D01*
X137299381Y-101090724D01*
X137300600Y-101106211D01*
X137300600Y-104254100D01*
X137281693Y-104312291D01*
X137232193Y-104348255D01*
X137201600Y-104353100D01*
X135391352Y-104353100D01*
X135365105Y-104358321D01*
X135342434Y-104362830D01*
X135342432Y-104362831D01*
X135332869Y-104364733D01*
X135266548Y-104409048D01*
X135222233Y-104475369D01*
X135210600Y-104533852D01*
X135210600Y-105073348D01*
X135222233Y-105131831D01*
X135233437Y-105148598D01*
X135250046Y-105207484D01*
X135233437Y-105258602D01*
X135222233Y-105275369D01*
X135210600Y-105333852D01*
X135210600Y-105873348D01*
X135222233Y-105931831D01*
X135233437Y-105948598D01*
X135250046Y-106007484D01*
X135233437Y-106058602D01*
X135222233Y-106075369D01*
X135210600Y-106133852D01*
X135210600Y-106673348D01*
X135222233Y-106731831D01*
X135266548Y-106798152D01*
X135332869Y-106842467D01*
X135342432Y-106844369D01*
X135342434Y-106844370D01*
X135365105Y-106848879D01*
X135391352Y-106854100D01*
X137626000Y-106854100D01*
X137684191Y-106873007D01*
X137720155Y-106922507D01*
X137725000Y-106953100D01*
X137725000Y-109401000D01*
X137706093Y-109459191D01*
X137656593Y-109495155D01*
X137626000Y-109500000D01*
X137225000Y-109500000D01*
X137225000Y-111726000D01*
X137206093Y-111784191D01*
X137156593Y-111820155D01*
X137126000Y-111825000D01*
X128300600Y-111825000D01*
X128242409Y-111806093D01*
X128206445Y-111756593D01*
X128201600Y-111726000D01*
X128201600Y-108644462D01*
X132746597Y-108644462D01*
X132776234Y-108816940D01*
X132844754Y-108977973D01*
X132948483Y-109118924D01*
X132952865Y-109122647D01*
X132952867Y-109122649D01*
X133024231Y-109183277D01*
X133081855Y-109232232D01*
X133161437Y-109272869D01*
X133232592Y-109309203D01*
X133232595Y-109309204D01*
X133237716Y-109311819D01*
X133243301Y-109313186D01*
X133243302Y-109313186D01*
X133403426Y-109352368D01*
X133403429Y-109352368D01*
X133407706Y-109353415D01*
X133412104Y-109353688D01*
X133412105Y-109353688D01*
X133417232Y-109354006D01*
X133417233Y-109354006D01*
X133418748Y-109354100D01*
X133544922Y-109354100D01*
X133550798Y-109353415D01*
X133559778Y-109352368D01*
X133674928Y-109338943D01*
X133680334Y-109336981D01*
X133680337Y-109336980D01*
X133834023Y-109281194D01*
X133839431Y-109279231D01*
X133844240Y-109276078D01*
X133844244Y-109276076D01*
X133980977Y-109186429D01*
X133985785Y-109183277D01*
X133989734Y-109179108D01*
X133989738Y-109179105D01*
X134102184Y-109060404D01*
X134106140Y-109056228D01*
X134194039Y-108904898D01*
X134244767Y-108737407D01*
X134255603Y-108562738D01*
X134225966Y-108390260D01*
X134157446Y-108229227D01*
X134053717Y-108088276D01*
X134049335Y-108084553D01*
X134049333Y-108084551D01*
X133924731Y-107978694D01*
X133924730Y-107978693D01*
X133920345Y-107974968D01*
X133834482Y-107931124D01*
X133769608Y-107897997D01*
X133769605Y-107897996D01*
X133764484Y-107895381D01*
X133758899Y-107894014D01*
X133758898Y-107894014D01*
X133598774Y-107854832D01*
X133598771Y-107854832D01*
X133594494Y-107853785D01*
X133590096Y-107853512D01*
X133590095Y-107853512D01*
X133584968Y-107853194D01*
X133584967Y-107853194D01*
X133583452Y-107853100D01*
X133457278Y-107853100D01*
X133454431Y-107853432D01*
X133454430Y-107853432D01*
X133443762Y-107854676D01*
X133327272Y-107868257D01*
X133321866Y-107870219D01*
X133321863Y-107870220D01*
X133245340Y-107897997D01*
X133162769Y-107927969D01*
X133157960Y-107931122D01*
X133157956Y-107931124D01*
X133066154Y-107991312D01*
X133016415Y-108023923D01*
X133012466Y-108028092D01*
X133012462Y-108028095D01*
X132903551Y-108143064D01*
X132896060Y-108150972D01*
X132808161Y-108302302D01*
X132757433Y-108469793D01*
X132746597Y-108644462D01*
X128201600Y-108644462D01*
X128201600Y-104244462D01*
X132746597Y-104244462D01*
X132776234Y-104416940D01*
X132844754Y-104577973D01*
X132948483Y-104718924D01*
X132952865Y-104722647D01*
X132952867Y-104722649D01*
X133024231Y-104783277D01*
X133081855Y-104832232D01*
X133161437Y-104872869D01*
X133232592Y-104909203D01*
X133232595Y-104909204D01*
X133237716Y-104911819D01*
X133243301Y-104913186D01*
X133243302Y-104913186D01*
X133403426Y-104952368D01*
X133403429Y-104952368D01*
X133407706Y-104953415D01*
X133412104Y-104953688D01*
X133412105Y-104953688D01*
X133417232Y-104954006D01*
X133417233Y-104954006D01*
X133418748Y-104954100D01*
X133544922Y-104954100D01*
X133550798Y-104953415D01*
X133559778Y-104952368D01*
X133674928Y-104938943D01*
X133680334Y-104936981D01*
X133680337Y-104936980D01*
X133834023Y-104881194D01*
X133839431Y-104879231D01*
X133844240Y-104876078D01*
X133844244Y-104876076D01*
X133980977Y-104786429D01*
X133985785Y-104783277D01*
X133989734Y-104779108D01*
X133989738Y-104779105D01*
X134102184Y-104660404D01*
X134106140Y-104656228D01*
X134111962Y-104646206D01*
X134191150Y-104509872D01*
X134191150Y-104509871D01*
X134194039Y-104504898D01*
X134240014Y-104353100D01*
X134243100Y-104342912D01*
X134243100Y-104342910D01*
X134244767Y-104337407D01*
X134255603Y-104162738D01*
X134225966Y-103990260D01*
X134157446Y-103829227D01*
X134053717Y-103688276D01*
X134049335Y-103684553D01*
X134049333Y-103684551D01*
X133924731Y-103578694D01*
X133924730Y-103578693D01*
X133920345Y-103574968D01*
X133834482Y-103531124D01*
X133769608Y-103497997D01*
X133769605Y-103497996D01*
X133764484Y-103495381D01*
X133758899Y-103494014D01*
X133758898Y-103494014D01*
X133598774Y-103454832D01*
X133598771Y-103454832D01*
X133594494Y-103453785D01*
X133590096Y-103453512D01*
X133590095Y-103453512D01*
X133584968Y-103453194D01*
X133584967Y-103453194D01*
X133583452Y-103453100D01*
X133457278Y-103453100D01*
X133454431Y-103453432D01*
X133454430Y-103453432D01*
X133443762Y-103454676D01*
X133327272Y-103468257D01*
X133321866Y-103470219D01*
X133321863Y-103470220D01*
X133245340Y-103497997D01*
X133162769Y-103527969D01*
X133157960Y-103531122D01*
X133157956Y-103531124D01*
X133066154Y-103591312D01*
X133016415Y-103623923D01*
X133012466Y-103628092D01*
X133012462Y-103628095D01*
X132903551Y-103743064D01*
X132896060Y-103750972D01*
X132808161Y-103902302D01*
X132757433Y-104069793D01*
X132746597Y-104244462D01*
X128201600Y-104244462D01*
X128201600Y-101099000D01*
X128220507Y-101040809D01*
X128270007Y-101004845D01*
X128300600Y-101000000D01*
X137194389Y-101000000D01*
X137252580Y-101018907D01*
G37*
%TD.AperFunction*%
%TD*%
%TA.AperFunction,Conductor*%
%TO.N,5.0V*%
G36*
X137234191Y-99568907D02*
G01*
X137270155Y-99618407D01*
X137275000Y-99649000D01*
X137275000Y-100501000D01*
X137256093Y-100559191D01*
X137206593Y-100595155D01*
X137176000Y-100600000D01*
X135766008Y-100600000D01*
X135707817Y-100581093D01*
X135696004Y-100571004D01*
X135128996Y-100003996D01*
X135101219Y-99949479D01*
X135100000Y-99933992D01*
X135100000Y-99649000D01*
X135118907Y-99590809D01*
X135168407Y-99554845D01*
X135199000Y-99550000D01*
X137176000Y-99550000D01*
X137234191Y-99568907D01*
G37*
%TD.AperFunction*%
%TD*%
M02*
