%TF.GenerationSoftware,KiCad,Pcbnew,(6.0.7)*%
%TF.CreationDate,2022-09-08T11:38:00+02:00*%
%TF.ProjectId,blackmagic_richardeoin,626c6163-6b6d-4616-9769-635f72696368,rev?*%
%TF.SameCoordinates,Original*%
%TF.FileFunction,Legend,Top*%
%TF.FilePolarity,Positive*%
%FSLAX46Y46*%
G04 Gerber Fmt 4.6, Leading zero omitted, Abs format (unit mm)*
G04 Created by KiCad (PCBNEW (6.0.7)) date 2022-09-08 11:38:00*
%MOMM*%
%LPD*%
G01*
G04 APERTURE LIST*
%ADD10C,0.150000*%
%ADD11C,0.300000*%
%ADD12C,0.142500*%
%ADD13C,0.108000*%
%ADD14C,0.057000*%
%ADD15C,0.152400*%
%ADD16C,0.127000*%
%ADD17C,0.203200*%
%ADD18C,0.100000*%
G04 APERTURE END LIST*
D10*
X165925000Y-100100000D02*
X166250000Y-100100000D01*
X165900000Y-99725000D02*
X165900000Y-100100000D01*
X166400000Y-99600000D02*
X165900000Y-100100000D01*
X166800000Y-99600000D02*
X166400000Y-99600000D01*
X166800000Y-96800000D02*
X166800000Y-100200000D01*
X165812500Y-98712500D02*
X166012500Y-98637500D01*
X165762500Y-98900000D02*
X166287500Y-98550000D01*
X165762500Y-98200000D02*
X165762500Y-98900000D01*
X165562500Y-98550000D02*
X166512500Y-98550000D01*
X166287500Y-98550000D02*
X165762500Y-98200000D01*
X166287500Y-98875000D02*
X166287500Y-98225000D01*
X165987500Y-98462500D02*
X165812500Y-98437500D01*
X165812500Y-98437500D02*
X165812500Y-98362500D01*
X131012500Y-97525000D02*
X131362500Y-97000000D01*
X131125000Y-97050000D02*
X131200000Y-97050000D01*
X131100000Y-97225000D02*
X131125000Y-97050000D01*
X130925000Y-97250000D02*
X131100000Y-97225000D01*
X130850000Y-97050000D02*
X130925000Y-97250000D01*
X130662500Y-97000000D02*
X131012500Y-97525000D01*
X131362500Y-97000000D02*
X130662500Y-97000000D01*
X130687500Y-97525000D02*
X131337500Y-97525000D01*
X131012500Y-96800000D02*
X131012500Y-97750000D01*
D11*
X163301100Y-100853600D02*
G75*
G03*
X163301100Y-100853600I-100000J0D01*
G01*
X151251100Y-108353600D02*
G75*
G03*
X151251100Y-108353600I-100000J0D01*
G01*
D10*
X151901100Y-99303600D02*
X148451100Y-99303600D01*
X159001100Y-96903600D02*
X159301100Y-97203600D01*
X151901100Y-96903600D02*
X159001100Y-96903600D01*
X151901100Y-99303600D02*
X151901100Y-96903600D01*
X137801100Y-108853600D02*
X137801100Y-110653600D01*
X138001100Y-107403600D02*
X137801100Y-107403600D01*
X139251100Y-108853600D02*
X139251100Y-110653600D01*
X159301100Y-97203600D02*
X159101100Y-97203600D01*
X137801100Y-108853600D02*
X137801100Y-107603600D01*
X137801100Y-107603600D02*
X138001100Y-107403600D01*
X148451100Y-99303600D02*
X148451100Y-96703600D01*
X139251100Y-108853600D02*
X137801100Y-108853600D01*
X139251100Y-110653600D02*
X137801100Y-110653600D01*
X151901100Y-96703600D02*
X148451100Y-96703600D01*
X151901100Y-96903600D02*
X151901100Y-96703600D01*
X159301100Y-97203600D02*
X159301100Y-97003600D01*
X138001100Y-107403600D02*
X138001100Y-107603600D01*
D12*
X167768939Y-113036314D02*
X168203225Y-113036314D01*
X168474653Y-112873457D02*
X168908939Y-113036314D01*
X168474653Y-113199171D01*
D13*
X168130957Y-112467671D02*
X168130957Y-112141957D01*
X168700957Y-112304814D02*
X168130957Y-112304814D01*
X168700957Y-112006242D02*
X168320957Y-111707671D01*
X168320957Y-112006242D02*
X168700957Y-111707671D01*
X168700957Y-111490528D02*
X168130957Y-111490528D01*
X168130957Y-111354814D01*
X168158100Y-111273385D01*
X168212385Y-111219100D01*
X168266671Y-111191957D01*
X168375242Y-111164814D01*
X168456671Y-111164814D01*
X168565242Y-111191957D01*
X168619528Y-111219100D01*
X168673814Y-111273385D01*
X168700957Y-111354814D01*
X168700957Y-111490528D01*
X166143957Y-97796657D02*
X165763957Y-97498085D01*
X165763957Y-97796657D02*
X166143957Y-97498085D01*
X165573957Y-97335228D02*
X165573957Y-96982371D01*
X165791100Y-97172371D01*
X165791100Y-97090942D01*
X165818242Y-97036657D01*
X165845385Y-97009514D01*
X165899671Y-96982371D01*
X166035385Y-96982371D01*
X166089671Y-97009514D01*
X166116814Y-97036657D01*
X166143957Y-97090942D01*
X166143957Y-97253800D01*
X166116814Y-97308085D01*
X166089671Y-97335228D01*
D10*
X143943868Y-103104884D02*
X143990335Y-103197818D01*
X144106503Y-103313986D01*
X144176204Y-103337220D01*
X144222671Y-103337220D01*
X144292371Y-103313986D01*
X144338838Y-103267519D01*
X144362072Y-103197818D01*
X144362072Y-103151351D01*
X144338838Y-103081651D01*
X144269138Y-102965483D01*
X144245904Y-102895783D01*
X144245904Y-102849316D01*
X144269138Y-102779615D01*
X144315605Y-102733148D01*
X144385305Y-102709915D01*
X144431772Y-102709915D01*
X144501473Y-102733148D01*
X144617640Y-102849316D01*
X144664107Y-102942250D01*
X144826742Y-103058417D02*
X145105544Y-103337220D01*
X144478239Y-103685722D02*
X144966143Y-103197818D01*
X144780275Y-103987758D02*
X145268178Y-103499854D01*
X145082310Y-104010991D01*
X145593448Y-103825123D01*
X145105544Y-104313027D01*
X145779316Y-104010991D02*
X146081351Y-104313027D01*
X145732849Y-104336260D01*
X145802549Y-104405961D01*
X145825783Y-104475661D01*
X145825783Y-104522128D01*
X145802549Y-104591829D01*
X145686382Y-104707997D01*
X145616681Y-104731230D01*
X145570214Y-104731230D01*
X145500514Y-104707997D01*
X145361112Y-104568595D01*
X145337879Y-104498895D01*
X145337879Y-104452428D01*
X146220752Y-104545362D02*
X146267219Y-104545362D01*
X146336920Y-104568595D01*
X146453087Y-104684763D01*
X146476321Y-104754464D01*
X146476321Y-104800931D01*
X146453087Y-104870631D01*
X146406620Y-104917098D01*
X146313686Y-104963565D01*
X145756082Y-104963565D01*
X146058118Y-105265601D01*
X143576547Y-103843942D02*
X143413912Y-103681308D01*
X143158343Y-103936876D02*
X143646247Y-103448973D01*
X143878582Y-103681308D01*
X143832115Y-104610648D02*
X143553313Y-104331846D01*
X143692714Y-104471247D02*
X144180618Y-103983343D01*
X144064450Y-104006577D01*
X143971516Y-104006577D01*
X143901816Y-103983343D01*
X144622054Y-104424780D02*
X144668522Y-104471247D01*
X144691755Y-104540948D01*
X144691755Y-104587415D01*
X144668522Y-104657115D01*
X144598821Y-104773283D01*
X144482653Y-104889450D01*
X144366486Y-104959151D01*
X144296785Y-104982384D01*
X144250318Y-104982384D01*
X144180618Y-104959151D01*
X144134151Y-104912684D01*
X144110917Y-104842983D01*
X144110917Y-104796516D01*
X144134151Y-104726816D01*
X144203851Y-104610648D01*
X144320019Y-104494481D01*
X144436186Y-104424780D01*
X144505887Y-104401547D01*
X144552354Y-104401547D01*
X144622054Y-104424780D01*
X144947324Y-104750049D02*
X145249359Y-105052085D01*
X144900857Y-105075318D01*
X144970557Y-105145019D01*
X144993791Y-105214719D01*
X144993791Y-105261186D01*
X144970557Y-105330887D01*
X144854390Y-105447054D01*
X144784689Y-105470288D01*
X144738222Y-105470288D01*
X144668522Y-105447054D01*
X144529120Y-105307653D01*
X144505887Y-105237953D01*
X144505887Y-105191486D01*
X145295826Y-105981425D02*
X145249359Y-105981425D01*
X145156425Y-105934958D01*
X145109958Y-105888491D01*
X145063491Y-105795557D01*
X145063491Y-105702623D01*
X145086725Y-105632923D01*
X145156425Y-105516755D01*
X145226126Y-105447054D01*
X145342293Y-105377354D01*
X145411994Y-105354120D01*
X145504928Y-105354120D01*
X145597862Y-105400587D01*
X145644329Y-105447054D01*
X145690796Y-105539989D01*
X145690796Y-105586456D01*
X145876664Y-106144060D02*
X145923131Y-106236994D01*
X145923131Y-106283461D01*
X145899897Y-106353161D01*
X145830197Y-106422862D01*
X145760496Y-106446095D01*
X145714029Y-106446095D01*
X145644329Y-106422862D01*
X145458461Y-106236994D01*
X145946364Y-105749090D01*
X146108999Y-105911725D01*
X146132233Y-105981425D01*
X146132233Y-106027892D01*
X146108999Y-106097593D01*
X146062532Y-106144060D01*
X145992832Y-106167293D01*
X145946364Y-106167293D01*
X145876664Y-106144060D01*
X145714029Y-105981425D01*
D13*
X168700957Y-109588385D02*
X168429528Y-109778385D01*
X168700957Y-109914100D02*
X168130957Y-109914100D01*
X168130957Y-109696957D01*
X168158100Y-109642671D01*
X168185242Y-109615528D01*
X168239528Y-109588385D01*
X168320957Y-109588385D01*
X168375242Y-109615528D01*
X168402385Y-109642671D01*
X168429528Y-109696957D01*
X168429528Y-109914100D01*
X168700957Y-109398385D02*
X168320957Y-109099814D01*
X168320957Y-109398385D02*
X168700957Y-109099814D01*
X168700957Y-108882671D02*
X168130957Y-108882671D01*
X168130957Y-108746957D01*
X168158100Y-108665528D01*
X168212385Y-108611242D01*
X168266671Y-108584100D01*
X168375242Y-108556957D01*
X168456671Y-108556957D01*
X168565242Y-108584100D01*
X168619528Y-108611242D01*
X168673814Y-108665528D01*
X168700957Y-108746957D01*
X168700957Y-108882671D01*
X168130957Y-105296028D02*
X168130957Y-104970314D01*
X168700957Y-105133171D02*
X168130957Y-105133171D01*
X168700957Y-104454600D02*
X168429528Y-104644600D01*
X168700957Y-104780314D02*
X168130957Y-104780314D01*
X168130957Y-104563171D01*
X168158100Y-104508885D01*
X168185242Y-104481742D01*
X168239528Y-104454600D01*
X168320957Y-104454600D01*
X168375242Y-104481742D01*
X168402385Y-104508885D01*
X168429528Y-104563171D01*
X168429528Y-104780314D01*
X168673814Y-104237457D02*
X168700957Y-104156028D01*
X168700957Y-104020314D01*
X168673814Y-103966028D01*
X168646671Y-103938885D01*
X168592385Y-103911742D01*
X168538100Y-103911742D01*
X168483814Y-103938885D01*
X168456671Y-103966028D01*
X168429528Y-104020314D01*
X168402385Y-104128885D01*
X168375242Y-104183171D01*
X168348100Y-104210314D01*
X168293814Y-104237457D01*
X168239528Y-104237457D01*
X168185242Y-104210314D01*
X168158100Y-104183171D01*
X168130957Y-104128885D01*
X168130957Y-103993171D01*
X168158100Y-103911742D01*
X168130957Y-103748885D02*
X168130957Y-103423171D01*
X168700957Y-103586028D02*
X168130957Y-103586028D01*
D10*
X157723242Y-106422171D02*
X157723242Y-106027885D01*
X158413242Y-106225028D02*
X157723242Y-106225028D01*
X157723242Y-105863600D02*
X158413242Y-105403600D01*
X157723242Y-105403600D02*
X158413242Y-105863600D01*
X158380385Y-105173600D02*
X158413242Y-105075028D01*
X158413242Y-104910742D01*
X158380385Y-104845028D01*
X158347528Y-104812171D01*
X158281814Y-104779314D01*
X158216100Y-104779314D01*
X158150385Y-104812171D01*
X158117528Y-104845028D01*
X158084671Y-104910742D01*
X158051814Y-105042171D01*
X158018957Y-105107885D01*
X157986100Y-105140742D01*
X157920385Y-105173600D01*
X157854671Y-105173600D01*
X157788957Y-105140742D01*
X157756100Y-105107885D01*
X157723242Y-105042171D01*
X157723242Y-104877885D01*
X157756100Y-104779314D01*
X157723242Y-104352171D02*
X157723242Y-104286457D01*
X157756100Y-104220742D01*
X157788957Y-104187885D01*
X157854671Y-104155028D01*
X157986100Y-104122171D01*
X158150385Y-104122171D01*
X158281814Y-104155028D01*
X158347528Y-104187885D01*
X158380385Y-104220742D01*
X158413242Y-104286457D01*
X158413242Y-104352171D01*
X158380385Y-104417885D01*
X158347528Y-104450742D01*
X158281814Y-104483600D01*
X158150385Y-104516457D01*
X157986100Y-104516457D01*
X157854671Y-104483600D01*
X157788957Y-104450742D01*
X157756100Y-104417885D01*
X157723242Y-104352171D01*
X158413242Y-103465028D02*
X158413242Y-103859314D01*
X158413242Y-103662171D02*
X157723242Y-103662171D01*
X157821814Y-103727885D01*
X157887528Y-103793600D01*
X157920385Y-103859314D01*
X157723242Y-103037885D02*
X157723242Y-102972171D01*
X157756100Y-102906457D01*
X157788957Y-102873600D01*
X157854671Y-102840742D01*
X157986100Y-102807885D01*
X158150385Y-102807885D01*
X158281814Y-102840742D01*
X158347528Y-102873600D01*
X158380385Y-102906457D01*
X158413242Y-102972171D01*
X158413242Y-103037885D01*
X158380385Y-103103600D01*
X158347528Y-103136457D01*
X158281814Y-103169314D01*
X158150385Y-103202171D01*
X157986100Y-103202171D01*
X157854671Y-103169314D01*
X157788957Y-103136457D01*
X157756100Y-103103600D01*
X157723242Y-103037885D01*
X158018957Y-102413600D02*
X157986100Y-102479314D01*
X157953242Y-102512171D01*
X157887528Y-102545028D01*
X157854671Y-102545028D01*
X157788957Y-102512171D01*
X157756100Y-102479314D01*
X157723242Y-102413600D01*
X157723242Y-102282171D01*
X157756100Y-102216457D01*
X157788957Y-102183600D01*
X157854671Y-102150742D01*
X157887528Y-102150742D01*
X157953242Y-102183600D01*
X157986100Y-102216457D01*
X158018957Y-102282171D01*
X158018957Y-102413600D01*
X158051814Y-102479314D01*
X158084671Y-102512171D01*
X158150385Y-102545028D01*
X158281814Y-102545028D01*
X158347528Y-102512171D01*
X158380385Y-102479314D01*
X158413242Y-102413600D01*
X158413242Y-102282171D01*
X158380385Y-102216457D01*
X158347528Y-102183600D01*
X158281814Y-102150742D01*
X158150385Y-102150742D01*
X158084671Y-102183600D01*
X158051814Y-102216457D01*
X158018957Y-102282171D01*
D13*
X167645185Y-97246457D02*
X167455185Y-96975028D01*
X167319471Y-97246457D02*
X167319471Y-96676457D01*
X167536614Y-96676457D01*
X167590900Y-96703600D01*
X167618042Y-96730742D01*
X167645185Y-96785028D01*
X167645185Y-96866457D01*
X167618042Y-96920742D01*
X167590900Y-96947885D01*
X167536614Y-96975028D01*
X167319471Y-96975028D01*
X167862328Y-97219314D02*
X167943757Y-97246457D01*
X168079471Y-97246457D01*
X168133757Y-97219314D01*
X168160900Y-97192171D01*
X168188042Y-97137885D01*
X168188042Y-97083600D01*
X168160900Y-97029314D01*
X168133757Y-97002171D01*
X168079471Y-96975028D01*
X167970900Y-96947885D01*
X167916614Y-96920742D01*
X167889471Y-96893600D01*
X167862328Y-96839314D01*
X167862328Y-96785028D01*
X167889471Y-96730742D01*
X167916614Y-96703600D01*
X167970900Y-96676457D01*
X168106614Y-96676457D01*
X168188042Y-96703600D01*
X168350900Y-96676457D02*
X168676614Y-96676457D01*
X168513757Y-97246457D02*
X168513757Y-96676457D01*
X167210900Y-97594157D02*
X167536614Y-97594157D01*
X167373757Y-98164157D02*
X167373757Y-97594157D01*
X168052328Y-98109871D02*
X168025185Y-98137014D01*
X167943757Y-98164157D01*
X167889471Y-98164157D01*
X167808042Y-98137014D01*
X167753757Y-98082728D01*
X167726614Y-98028442D01*
X167699471Y-97919871D01*
X167699471Y-97838442D01*
X167726614Y-97729871D01*
X167753757Y-97675585D01*
X167808042Y-97621300D01*
X167889471Y-97594157D01*
X167943757Y-97594157D01*
X168025185Y-97621300D01*
X168052328Y-97648442D01*
X168296614Y-98164157D02*
X168296614Y-97594157D01*
X168622328Y-98164157D02*
X168378042Y-97838442D01*
X168622328Y-97594157D02*
X168296614Y-97919871D01*
X167156614Y-98511857D02*
X167482328Y-98511857D01*
X167319471Y-99081857D02*
X167319471Y-98511857D01*
X167672328Y-99081857D02*
X167672328Y-98511857D01*
X167862328Y-98919000D01*
X168052328Y-98511857D01*
X168052328Y-99081857D01*
X168296614Y-99054714D02*
X168378042Y-99081857D01*
X168513757Y-99081857D01*
X168568042Y-99054714D01*
X168595185Y-99027571D01*
X168622328Y-98973285D01*
X168622328Y-98919000D01*
X168595185Y-98864714D01*
X168568042Y-98837571D01*
X168513757Y-98810428D01*
X168405185Y-98783285D01*
X168350900Y-98756142D01*
X168323757Y-98729000D01*
X168296614Y-98674714D01*
X168296614Y-98620428D01*
X168323757Y-98566142D01*
X168350900Y-98539000D01*
X168405185Y-98511857D01*
X168540900Y-98511857D01*
X168622328Y-98539000D01*
X167428042Y-99456700D02*
X167373757Y-99429557D01*
X167292328Y-99429557D01*
X167210900Y-99456700D01*
X167156614Y-99510985D01*
X167129471Y-99565271D01*
X167102328Y-99673842D01*
X167102328Y-99755271D01*
X167129471Y-99863842D01*
X167156614Y-99918128D01*
X167210900Y-99972414D01*
X167292328Y-99999557D01*
X167346614Y-99999557D01*
X167428042Y-99972414D01*
X167455185Y-99945271D01*
X167455185Y-99755271D01*
X167346614Y-99755271D01*
X167699471Y-99999557D02*
X167699471Y-99429557D01*
X168025185Y-99999557D01*
X168025185Y-99429557D01*
X168296614Y-99999557D02*
X168296614Y-99429557D01*
X168432328Y-99429557D01*
X168513757Y-99456700D01*
X168568042Y-99510985D01*
X168595185Y-99565271D01*
X168622328Y-99673842D01*
X168622328Y-99755271D01*
X168595185Y-99863842D01*
X168568042Y-99918128D01*
X168513757Y-99972414D01*
X168432328Y-99999557D01*
X168296614Y-99999557D01*
X167156614Y-100347257D02*
X167346614Y-100917257D01*
X167536614Y-100347257D01*
X168052328Y-100862971D02*
X168025185Y-100890114D01*
X167943757Y-100917257D01*
X167889471Y-100917257D01*
X167808042Y-100890114D01*
X167753757Y-100835828D01*
X167726614Y-100781542D01*
X167699471Y-100672971D01*
X167699471Y-100591542D01*
X167726614Y-100482971D01*
X167753757Y-100428685D01*
X167808042Y-100374400D01*
X167889471Y-100347257D01*
X167943757Y-100347257D01*
X168025185Y-100374400D01*
X168052328Y-100401542D01*
X168622328Y-100862971D02*
X168595185Y-100890114D01*
X168513757Y-100917257D01*
X168459471Y-100917257D01*
X168378042Y-100890114D01*
X168323757Y-100835828D01*
X168296614Y-100781542D01*
X168269471Y-100672971D01*
X168269471Y-100591542D01*
X168296614Y-100482971D01*
X168323757Y-100428685D01*
X168378042Y-100374400D01*
X168459471Y-100347257D01*
X168513757Y-100347257D01*
X168595185Y-100374400D01*
X168622328Y-100401542D01*
D12*
X168203225Y-110333457D02*
X167768939Y-110496314D01*
X168203225Y-110659171D01*
X168474653Y-110496314D02*
X168908939Y-110496314D01*
D13*
X168130957Y-107483171D02*
X168130957Y-107157457D01*
X168700957Y-107320314D02*
X168130957Y-107320314D01*
X168700957Y-106967457D02*
X168130957Y-106967457D01*
X168130957Y-106831742D01*
X168158100Y-106750314D01*
X168212385Y-106696028D01*
X168266671Y-106668885D01*
X168375242Y-106641742D01*
X168456671Y-106641742D01*
X168565242Y-106668885D01*
X168619528Y-106696028D01*
X168673814Y-106750314D01*
X168700957Y-106831742D01*
X168700957Y-106967457D01*
X168700957Y-106397457D02*
X168130957Y-106397457D01*
X168130957Y-102566028D02*
X168130957Y-102240314D01*
X168700957Y-102403171D02*
X168130957Y-102403171D01*
X168700957Y-102050314D02*
X168130957Y-102050314D01*
X168130957Y-101914600D01*
X168158100Y-101833171D01*
X168212385Y-101778885D01*
X168266671Y-101751742D01*
X168375242Y-101724600D01*
X168456671Y-101724600D01*
X168565242Y-101751742D01*
X168619528Y-101778885D01*
X168673814Y-101833171D01*
X168700957Y-101914600D01*
X168700957Y-102050314D01*
X168130957Y-101371742D02*
X168130957Y-101263171D01*
X168158100Y-101208885D01*
X168212385Y-101154600D01*
X168320957Y-101127457D01*
X168510957Y-101127457D01*
X168619528Y-101154600D01*
X168673814Y-101208885D01*
X168700957Y-101263171D01*
X168700957Y-101371742D01*
X168673814Y-101426028D01*
X168619528Y-101480314D01*
X168510957Y-101507457D01*
X168320957Y-101507457D01*
X168212385Y-101480314D01*
X168158100Y-101426028D01*
X168130957Y-101371742D01*
D10*
X128464314Y-112580742D02*
X128858600Y-112580742D01*
X128661457Y-113270742D02*
X128661457Y-112580742D01*
X129482885Y-113205028D02*
X129450028Y-113237885D01*
X129351457Y-113270742D01*
X129285742Y-113270742D01*
X129187171Y-113237885D01*
X129121457Y-113172171D01*
X129088600Y-113106457D01*
X129055742Y-112975028D01*
X129055742Y-112876457D01*
X129088600Y-112745028D01*
X129121457Y-112679314D01*
X129187171Y-112613600D01*
X129285742Y-112580742D01*
X129351457Y-112580742D01*
X129450028Y-112613600D01*
X129482885Y-112646457D01*
X129778600Y-113270742D02*
X129778600Y-112580742D01*
X130172885Y-113270742D02*
X129877171Y-112876457D01*
X130172885Y-112580742D02*
X129778600Y-112975028D01*
X130468600Y-112909314D02*
X130994314Y-112909314D01*
X130994314Y-113106457D02*
X130468600Y-113106457D01*
X131290028Y-113237885D02*
X131388600Y-113270742D01*
X131552885Y-113270742D01*
X131618600Y-113237885D01*
X131651457Y-113205028D01*
X131684314Y-113139314D01*
X131684314Y-113073600D01*
X131651457Y-113007885D01*
X131618600Y-112975028D01*
X131552885Y-112942171D01*
X131421457Y-112909314D01*
X131355742Y-112876457D01*
X131322885Y-112843600D01*
X131290028Y-112777885D01*
X131290028Y-112712171D01*
X131322885Y-112646457D01*
X131355742Y-112613600D01*
X131421457Y-112580742D01*
X131585742Y-112580742D01*
X131684314Y-112613600D01*
X131914314Y-112580742D02*
X132078600Y-113270742D01*
X132210028Y-112777885D01*
X132341457Y-113270742D01*
X132505742Y-112580742D01*
X132768600Y-113270742D02*
X132768600Y-112580742D01*
X132932885Y-112580742D01*
X133031457Y-112613600D01*
X133097171Y-112679314D01*
X133130028Y-112745028D01*
X133162885Y-112876457D01*
X133162885Y-112975028D01*
X133130028Y-113106457D01*
X133097171Y-113172171D01*
X133031457Y-113237885D01*
X132932885Y-113270742D01*
X132768600Y-113270742D01*
X133852885Y-113205028D02*
X133820028Y-113237885D01*
X133721457Y-113270742D01*
X133655742Y-113270742D01*
X133557171Y-113237885D01*
X133491457Y-113172171D01*
X133458600Y-113106457D01*
X133425742Y-112975028D01*
X133425742Y-112876457D01*
X133458600Y-112745028D01*
X133491457Y-112679314D01*
X133557171Y-112613600D01*
X133655742Y-112580742D01*
X133721457Y-112580742D01*
X133820028Y-112613600D01*
X133852885Y-112646457D01*
X134477171Y-113270742D02*
X134148600Y-113270742D01*
X134148600Y-112580742D01*
X134707171Y-113270742D02*
X134707171Y-112580742D01*
X135101457Y-113270742D02*
X134805742Y-112876457D01*
X135101457Y-112580742D02*
X134707171Y-112975028D01*
X135824314Y-112580742D02*
X136218600Y-112580742D01*
X136021457Y-113270742D02*
X136021457Y-112580742D01*
X136448600Y-113270742D02*
X136448600Y-112580742D01*
X136678600Y-113073600D01*
X136908600Y-112580742D01*
X136908600Y-113270742D01*
X137204314Y-113237885D02*
X137302885Y-113270742D01*
X137467171Y-113270742D01*
X137532885Y-113237885D01*
X137565742Y-113205028D01*
X137598600Y-113139314D01*
X137598600Y-113073600D01*
X137565742Y-113007885D01*
X137532885Y-112975028D01*
X137467171Y-112942171D01*
X137335742Y-112909314D01*
X137270028Y-112876457D01*
X137237171Y-112843600D01*
X137204314Y-112777885D01*
X137204314Y-112712171D01*
X137237171Y-112646457D01*
X137270028Y-112613600D01*
X137335742Y-112580742D01*
X137500028Y-112580742D01*
X137598600Y-112613600D01*
X137894314Y-112909314D02*
X138420028Y-112909314D01*
X138420028Y-113106457D02*
X137894314Y-113106457D01*
X138715742Y-113237885D02*
X138814314Y-113270742D01*
X138978600Y-113270742D01*
X139044314Y-113237885D01*
X139077171Y-113205028D01*
X139110028Y-113139314D01*
X139110028Y-113073600D01*
X139077171Y-113007885D01*
X139044314Y-112975028D01*
X138978600Y-112942171D01*
X138847171Y-112909314D01*
X138781457Y-112876457D01*
X138748600Y-112843600D01*
X138715742Y-112777885D01*
X138715742Y-112712171D01*
X138748600Y-112646457D01*
X138781457Y-112613600D01*
X138847171Y-112580742D01*
X139011457Y-112580742D01*
X139110028Y-112613600D01*
X139340028Y-112580742D02*
X139504314Y-113270742D01*
X139635742Y-112777885D01*
X139767171Y-113270742D01*
X139931457Y-112580742D01*
X140194314Y-113270742D02*
X140194314Y-112580742D01*
X140358600Y-112580742D01*
X140457171Y-112613600D01*
X140522885Y-112679314D01*
X140555742Y-112745028D01*
X140588600Y-112876457D01*
X140588600Y-112975028D01*
X140555742Y-113106457D01*
X140522885Y-113172171D01*
X140457171Y-113237885D01*
X140358600Y-113270742D01*
X140194314Y-113270742D01*
X140884314Y-113270742D02*
X140884314Y-112580742D01*
X141344314Y-112580742D02*
X141475742Y-112580742D01*
X141541457Y-112613600D01*
X141607171Y-112679314D01*
X141640028Y-112810742D01*
X141640028Y-113040742D01*
X141607171Y-113172171D01*
X141541457Y-113237885D01*
X141475742Y-113270742D01*
X141344314Y-113270742D01*
X141278600Y-113237885D01*
X141212885Y-113172171D01*
X141180028Y-113040742D01*
X141180028Y-112810742D01*
X141212885Y-112679314D01*
X141278600Y-112613600D01*
X141344314Y-112580742D01*
D14*
%TO.C,IC1*%
X147939378Y-102617857D02*
X147939378Y-102047857D01*
X148536521Y-102563571D02*
X148509378Y-102590714D01*
X148427950Y-102617857D01*
X148373664Y-102617857D01*
X148292235Y-102590714D01*
X148237950Y-102536428D01*
X148210807Y-102482142D01*
X148183664Y-102373571D01*
X148183664Y-102292142D01*
X148210807Y-102183571D01*
X148237950Y-102129285D01*
X148292235Y-102075000D01*
X148373664Y-102047857D01*
X148427950Y-102047857D01*
X148509378Y-102075000D01*
X148536521Y-102102142D01*
X149079378Y-102617857D02*
X148753664Y-102617857D01*
X148916521Y-102617857D02*
X148916521Y-102047857D01*
X148862235Y-102129285D01*
X148807950Y-102183571D01*
X148753664Y-102210714D01*
%TO.C,Q1*%
X162002764Y-113127142D02*
X161948478Y-113100000D01*
X161894192Y-113045714D01*
X161812764Y-112964285D01*
X161758478Y-112937142D01*
X161704192Y-112937142D01*
X161731335Y-113072857D02*
X161677050Y-113045714D01*
X161622764Y-112991428D01*
X161595621Y-112882857D01*
X161595621Y-112692857D01*
X161622764Y-112584285D01*
X161677050Y-112530000D01*
X161731335Y-112502857D01*
X161839907Y-112502857D01*
X161894192Y-112530000D01*
X161948478Y-112584285D01*
X161975621Y-112692857D01*
X161975621Y-112882857D01*
X161948478Y-112991428D01*
X161894192Y-113045714D01*
X161839907Y-113072857D01*
X161731335Y-113072857D01*
X162518478Y-113072857D02*
X162192764Y-113072857D01*
X162355621Y-113072857D02*
X162355621Y-112502857D01*
X162301335Y-112584285D01*
X162247050Y-112638571D01*
X162192764Y-112665714D01*
%TO.C,R4*%
X141498478Y-101947857D02*
X141308478Y-101676428D01*
X141172764Y-101947857D02*
X141172764Y-101377857D01*
X141389907Y-101377857D01*
X141444192Y-101405000D01*
X141471335Y-101432142D01*
X141498478Y-101486428D01*
X141498478Y-101567857D01*
X141471335Y-101622142D01*
X141444192Y-101649285D01*
X141389907Y-101676428D01*
X141172764Y-101676428D01*
X141987050Y-101567857D02*
X141987050Y-101947857D01*
X141851335Y-101350714D02*
X141715621Y-101757857D01*
X142068478Y-101757857D01*
%TO.C,CN1*%
X128738571Y-111760621D02*
X128765714Y-111787764D01*
X128792857Y-111869192D01*
X128792857Y-111923478D01*
X128765714Y-112004907D01*
X128711428Y-112059192D01*
X128657142Y-112086335D01*
X128548571Y-112113478D01*
X128467142Y-112113478D01*
X128358571Y-112086335D01*
X128304285Y-112059192D01*
X128250000Y-112004907D01*
X128222857Y-111923478D01*
X128222857Y-111869192D01*
X128250000Y-111787764D01*
X128277142Y-111760621D01*
X128792857Y-111516335D02*
X128222857Y-111516335D01*
X128792857Y-111190621D01*
X128222857Y-111190621D01*
X128792857Y-110620621D02*
X128792857Y-110946335D01*
X128792857Y-110783478D02*
X128222857Y-110783478D01*
X128304285Y-110837764D01*
X128358571Y-110892050D01*
X128385714Y-110946335D01*
%TO.C,R1*%
X138448478Y-110422857D02*
X138258478Y-110151428D01*
X138122764Y-110422857D02*
X138122764Y-109852857D01*
X138339907Y-109852857D01*
X138394192Y-109880000D01*
X138421335Y-109907142D01*
X138448478Y-109961428D01*
X138448478Y-110042857D01*
X138421335Y-110097142D01*
X138394192Y-110124285D01*
X138339907Y-110151428D01*
X138122764Y-110151428D01*
X138991335Y-110422857D02*
X138665621Y-110422857D01*
X138828478Y-110422857D02*
X138828478Y-109852857D01*
X138774192Y-109934285D01*
X138719907Y-109988571D01*
X138665621Y-110015714D01*
%TO.C,R2*%
X138448478Y-109647857D02*
X138258478Y-109376428D01*
X138122764Y-109647857D02*
X138122764Y-109077857D01*
X138339907Y-109077857D01*
X138394192Y-109105000D01*
X138421335Y-109132142D01*
X138448478Y-109186428D01*
X138448478Y-109267857D01*
X138421335Y-109322142D01*
X138394192Y-109349285D01*
X138339907Y-109376428D01*
X138122764Y-109376428D01*
X138665621Y-109132142D02*
X138692764Y-109105000D01*
X138747050Y-109077857D01*
X138882764Y-109077857D01*
X138937050Y-109105000D01*
X138964192Y-109132142D01*
X138991335Y-109186428D01*
X138991335Y-109240714D01*
X138964192Y-109322142D01*
X138638478Y-109647857D01*
X138991335Y-109647857D01*
%TO.C,R5*%
X137947857Y-102776521D02*
X137676428Y-102966521D01*
X137947857Y-103102235D02*
X137377857Y-103102235D01*
X137377857Y-102885092D01*
X137405000Y-102830807D01*
X137432142Y-102803664D01*
X137486428Y-102776521D01*
X137567857Y-102776521D01*
X137622142Y-102803664D01*
X137649285Y-102830807D01*
X137676428Y-102885092D01*
X137676428Y-103102235D01*
X137377857Y-102260807D02*
X137377857Y-102532235D01*
X137649285Y-102559378D01*
X137622142Y-102532235D01*
X137595000Y-102477950D01*
X137595000Y-102342235D01*
X137622142Y-102287950D01*
X137649285Y-102260807D01*
X137703571Y-102233664D01*
X137839285Y-102233664D01*
X137893571Y-102260807D01*
X137920714Y-102287950D01*
X137947857Y-102342235D01*
X137947857Y-102477950D01*
X137920714Y-102532235D01*
X137893571Y-102559378D01*
%TO.C,R3*%
X137947857Y-104001521D02*
X137676428Y-104191521D01*
X137947857Y-104327235D02*
X137377857Y-104327235D01*
X137377857Y-104110092D01*
X137405000Y-104055807D01*
X137432142Y-104028664D01*
X137486428Y-104001521D01*
X137567857Y-104001521D01*
X137622142Y-104028664D01*
X137649285Y-104055807D01*
X137676428Y-104110092D01*
X137676428Y-104327235D01*
X137377857Y-103811521D02*
X137377857Y-103458664D01*
X137595000Y-103648664D01*
X137595000Y-103567235D01*
X137622142Y-103512950D01*
X137649285Y-103485807D01*
X137703571Y-103458664D01*
X137839285Y-103458664D01*
X137893571Y-103485807D01*
X137920714Y-103512950D01*
X137947857Y-103567235D01*
X137947857Y-103730092D01*
X137920714Y-103784378D01*
X137893571Y-103811521D01*
%TO.C,BTN1*%
X144769285Y-98755621D02*
X144796428Y-98674192D01*
X144823571Y-98647050D01*
X144877857Y-98619907D01*
X144959285Y-98619907D01*
X145013571Y-98647050D01*
X145040714Y-98674192D01*
X145067857Y-98728478D01*
X145067857Y-98945621D01*
X144497857Y-98945621D01*
X144497857Y-98755621D01*
X144525000Y-98701335D01*
X144552142Y-98674192D01*
X144606428Y-98647050D01*
X144660714Y-98647050D01*
X144715000Y-98674192D01*
X144742142Y-98701335D01*
X144769285Y-98755621D01*
X144769285Y-98945621D01*
X144497857Y-98457050D02*
X144497857Y-98131335D01*
X145067857Y-98294192D02*
X144497857Y-98294192D01*
X145067857Y-97941335D02*
X144497857Y-97941335D01*
X145067857Y-97615621D01*
X144497857Y-97615621D01*
X145067857Y-97045621D02*
X145067857Y-97371335D01*
X145067857Y-97208478D02*
X144497857Y-97208478D01*
X144579285Y-97262764D01*
X144633571Y-97317050D01*
X144660714Y-97371335D01*
%TO.C,R6*%
X142673478Y-101547857D02*
X142483478Y-101276428D01*
X142347764Y-101547857D02*
X142347764Y-100977857D01*
X142564907Y-100977857D01*
X142619192Y-101005000D01*
X142646335Y-101032142D01*
X142673478Y-101086428D01*
X142673478Y-101167857D01*
X142646335Y-101222142D01*
X142619192Y-101249285D01*
X142564907Y-101276428D01*
X142347764Y-101276428D01*
X143162050Y-100977857D02*
X143053478Y-100977857D01*
X142999192Y-101005000D01*
X142972050Y-101032142D01*
X142917764Y-101113571D01*
X142890621Y-101222142D01*
X142890621Y-101439285D01*
X142917764Y-101493571D01*
X142944907Y-101520714D01*
X142999192Y-101547857D01*
X143107764Y-101547857D01*
X143162050Y-101520714D01*
X143189192Y-101493571D01*
X143216335Y-101439285D01*
X143216335Y-101303571D01*
X143189192Y-101249285D01*
X143162050Y-101222142D01*
X143107764Y-101195000D01*
X142999192Y-101195000D01*
X142944907Y-101222142D01*
X142917764Y-101249285D01*
X142890621Y-101303571D01*
%TO.C,IC2*%
X159014378Y-101817857D02*
X159014378Y-101247857D01*
X159611521Y-101763571D02*
X159584378Y-101790714D01*
X159502950Y-101817857D01*
X159448664Y-101817857D01*
X159367235Y-101790714D01*
X159312950Y-101736428D01*
X159285807Y-101682142D01*
X159258664Y-101573571D01*
X159258664Y-101492142D01*
X159285807Y-101383571D01*
X159312950Y-101329285D01*
X159367235Y-101275000D01*
X159448664Y-101247857D01*
X159502950Y-101247857D01*
X159584378Y-101275000D01*
X159611521Y-101302142D01*
X159828664Y-101302142D02*
X159855807Y-101275000D01*
X159910092Y-101247857D01*
X160045807Y-101247857D01*
X160100092Y-101275000D01*
X160127235Y-101302142D01*
X160154378Y-101356428D01*
X160154378Y-101410714D01*
X160127235Y-101492142D01*
X159801521Y-101817857D01*
X160154378Y-101817857D01*
%TO.C,R7*%
X154711521Y-99992857D02*
X154521521Y-99721428D01*
X154385807Y-99992857D02*
X154385807Y-99422857D01*
X154602950Y-99422857D01*
X154657235Y-99450000D01*
X154684378Y-99477142D01*
X154711521Y-99531428D01*
X154711521Y-99612857D01*
X154684378Y-99667142D01*
X154657235Y-99694285D01*
X154602950Y-99721428D01*
X154385807Y-99721428D01*
X154901521Y-99422857D02*
X155281521Y-99422857D01*
X155037235Y-99992857D01*
%TO.C,R8*%
X156798478Y-97797857D02*
X156608478Y-97526428D01*
X156472764Y-97797857D02*
X156472764Y-97227857D01*
X156689907Y-97227857D01*
X156744192Y-97255000D01*
X156771335Y-97282142D01*
X156798478Y-97336428D01*
X156798478Y-97417857D01*
X156771335Y-97472142D01*
X156744192Y-97499285D01*
X156689907Y-97526428D01*
X156472764Y-97526428D01*
X157124192Y-97472142D02*
X157069907Y-97445000D01*
X157042764Y-97417857D01*
X157015621Y-97363571D01*
X157015621Y-97336428D01*
X157042764Y-97282142D01*
X157069907Y-97255000D01*
X157124192Y-97227857D01*
X157232764Y-97227857D01*
X157287050Y-97255000D01*
X157314192Y-97282142D01*
X157341335Y-97336428D01*
X157341335Y-97363571D01*
X157314192Y-97417857D01*
X157287050Y-97445000D01*
X157232764Y-97472142D01*
X157124192Y-97472142D01*
X157069907Y-97499285D01*
X157042764Y-97526428D01*
X157015621Y-97580714D01*
X157015621Y-97689285D01*
X157042764Y-97743571D01*
X157069907Y-97770714D01*
X157124192Y-97797857D01*
X157232764Y-97797857D01*
X157287050Y-97770714D01*
X157314192Y-97743571D01*
X157341335Y-97689285D01*
X157341335Y-97580714D01*
X157314192Y-97526428D01*
X157287050Y-97499285D01*
X157232764Y-97472142D01*
%TO.C,C9*%
X152873478Y-97743571D02*
X152846335Y-97770714D01*
X152764907Y-97797857D01*
X152710621Y-97797857D01*
X152629192Y-97770714D01*
X152574907Y-97716428D01*
X152547764Y-97662142D01*
X152520621Y-97553571D01*
X152520621Y-97472142D01*
X152547764Y-97363571D01*
X152574907Y-97309285D01*
X152629192Y-97255000D01*
X152710621Y-97227857D01*
X152764907Y-97227857D01*
X152846335Y-97255000D01*
X152873478Y-97282142D01*
X153144907Y-97797857D02*
X153253478Y-97797857D01*
X153307764Y-97770714D01*
X153334907Y-97743571D01*
X153389192Y-97662142D01*
X153416335Y-97553571D01*
X153416335Y-97336428D01*
X153389192Y-97282142D01*
X153362050Y-97255000D01*
X153307764Y-97227857D01*
X153199192Y-97227857D01*
X153144907Y-97255000D01*
X153117764Y-97282142D01*
X153090621Y-97336428D01*
X153090621Y-97472142D01*
X153117764Y-97526428D01*
X153144907Y-97553571D01*
X153199192Y-97580714D01*
X153307764Y-97580714D01*
X153362050Y-97553571D01*
X153389192Y-97526428D01*
X153416335Y-97472142D01*
%TO.C,Y1*%
X154006335Y-112401428D02*
X154006335Y-112672857D01*
X153816335Y-112102857D02*
X154006335Y-112401428D01*
X154196335Y-112102857D01*
X154684907Y-112672857D02*
X154359192Y-112672857D01*
X154522050Y-112672857D02*
X154522050Y-112102857D01*
X154467764Y-112184285D01*
X154413478Y-112238571D01*
X154359192Y-112265714D01*
%TO.C,C7*%
X150423478Y-110018571D02*
X150396335Y-110045714D01*
X150314907Y-110072857D01*
X150260621Y-110072857D01*
X150179192Y-110045714D01*
X150124907Y-109991428D01*
X150097764Y-109937142D01*
X150070621Y-109828571D01*
X150070621Y-109747142D01*
X150097764Y-109638571D01*
X150124907Y-109584285D01*
X150179192Y-109530000D01*
X150260621Y-109502857D01*
X150314907Y-109502857D01*
X150396335Y-109530000D01*
X150423478Y-109557142D01*
X150613478Y-109502857D02*
X150993478Y-109502857D01*
X150749192Y-110072857D01*
%TO.C,C8*%
X157761521Y-113213571D02*
X157734378Y-113240714D01*
X157652950Y-113267857D01*
X157598664Y-113267857D01*
X157517235Y-113240714D01*
X157462950Y-113186428D01*
X157435807Y-113132142D01*
X157408664Y-113023571D01*
X157408664Y-112942142D01*
X157435807Y-112833571D01*
X157462950Y-112779285D01*
X157517235Y-112725000D01*
X157598664Y-112697857D01*
X157652950Y-112697857D01*
X157734378Y-112725000D01*
X157761521Y-112752142D01*
X158087235Y-112942142D02*
X158032950Y-112915000D01*
X158005807Y-112887857D01*
X157978664Y-112833571D01*
X157978664Y-112806428D01*
X158005807Y-112752142D01*
X158032950Y-112725000D01*
X158087235Y-112697857D01*
X158195807Y-112697857D01*
X158250092Y-112725000D01*
X158277235Y-112752142D01*
X158304378Y-112806428D01*
X158304378Y-112833571D01*
X158277235Y-112887857D01*
X158250092Y-112915000D01*
X158195807Y-112942142D01*
X158087235Y-112942142D01*
X158032950Y-112969285D01*
X158005807Y-112996428D01*
X157978664Y-113050714D01*
X157978664Y-113159285D01*
X158005807Y-113213571D01*
X158032950Y-113240714D01*
X158087235Y-113267857D01*
X158195807Y-113267857D01*
X158250092Y-113240714D01*
X158277235Y-113213571D01*
X158304378Y-113159285D01*
X158304378Y-113050714D01*
X158277235Y-112996428D01*
X158250092Y-112969285D01*
X158195807Y-112942142D01*
%TO.C,D2*%
X150747764Y-97497857D02*
X150747764Y-96927857D01*
X150883478Y-96927857D01*
X150964907Y-96955000D01*
X151019192Y-97009285D01*
X151046335Y-97063571D01*
X151073478Y-97172142D01*
X151073478Y-97253571D01*
X151046335Y-97362142D01*
X151019192Y-97416428D01*
X150964907Y-97470714D01*
X150883478Y-97497857D01*
X150747764Y-97497857D01*
X151290621Y-96982142D02*
X151317764Y-96955000D01*
X151372050Y-96927857D01*
X151507764Y-96927857D01*
X151562050Y-96955000D01*
X151589192Y-96982142D01*
X151616335Y-97036428D01*
X151616335Y-97090714D01*
X151589192Y-97172142D01*
X151263478Y-97497857D01*
X151616335Y-97497857D01*
%TO.C,R11*%
X149098478Y-97497857D02*
X148908478Y-97226428D01*
X148772764Y-97497857D02*
X148772764Y-96927857D01*
X148989907Y-96927857D01*
X149044192Y-96955000D01*
X149071335Y-96982142D01*
X149098478Y-97036428D01*
X149098478Y-97117857D01*
X149071335Y-97172142D01*
X149044192Y-97199285D01*
X148989907Y-97226428D01*
X148772764Y-97226428D01*
X149641335Y-97497857D02*
X149315621Y-97497857D01*
X149478478Y-97497857D02*
X149478478Y-96927857D01*
X149424192Y-97009285D01*
X149369907Y-97063571D01*
X149315621Y-97090714D01*
X150184192Y-97497857D02*
X149858478Y-97497857D01*
X150021335Y-97497857D02*
X150021335Y-96927857D01*
X149967050Y-97009285D01*
X149912764Y-97063571D01*
X149858478Y-97090714D01*
%TO.C,D1*%
X130547857Y-97502235D02*
X129977857Y-97502235D01*
X129977857Y-97366521D01*
X130005000Y-97285092D01*
X130059285Y-97230807D01*
X130113571Y-97203664D01*
X130222142Y-97176521D01*
X130303571Y-97176521D01*
X130412142Y-97203664D01*
X130466428Y-97230807D01*
X130520714Y-97285092D01*
X130547857Y-97366521D01*
X130547857Y-97502235D01*
X130547857Y-96633664D02*
X130547857Y-96959378D01*
X130547857Y-96796521D02*
X129977857Y-96796521D01*
X130059285Y-96850807D01*
X130113571Y-96905092D01*
X130140714Y-96959378D01*
%TO.C,R10*%
X128698478Y-97747857D02*
X128508478Y-97476428D01*
X128372764Y-97747857D02*
X128372764Y-97177857D01*
X128589907Y-97177857D01*
X128644192Y-97205000D01*
X128671335Y-97232142D01*
X128698478Y-97286428D01*
X128698478Y-97367857D01*
X128671335Y-97422142D01*
X128644192Y-97449285D01*
X128589907Y-97476428D01*
X128372764Y-97476428D01*
X129241335Y-97747857D02*
X128915621Y-97747857D01*
X129078478Y-97747857D02*
X129078478Y-97177857D01*
X129024192Y-97259285D01*
X128969907Y-97313571D01*
X128915621Y-97340714D01*
X129594192Y-97177857D02*
X129648478Y-97177857D01*
X129702764Y-97205000D01*
X129729907Y-97232142D01*
X129757050Y-97286428D01*
X129784192Y-97395000D01*
X129784192Y-97530714D01*
X129757050Y-97639285D01*
X129729907Y-97693571D01*
X129702764Y-97720714D01*
X129648478Y-97747857D01*
X129594192Y-97747857D01*
X129539907Y-97720714D01*
X129512764Y-97693571D01*
X129485621Y-97639285D01*
X129458478Y-97530714D01*
X129458478Y-97395000D01*
X129485621Y-97286428D01*
X129512764Y-97232142D01*
X129539907Y-97205000D01*
X129594192Y-97177857D01*
%TO.C,D3*%
X150772764Y-98297857D02*
X150772764Y-97727857D01*
X150908478Y-97727857D01*
X150989907Y-97755000D01*
X151044192Y-97809285D01*
X151071335Y-97863571D01*
X151098478Y-97972142D01*
X151098478Y-98053571D01*
X151071335Y-98162142D01*
X151044192Y-98216428D01*
X150989907Y-98270714D01*
X150908478Y-98297857D01*
X150772764Y-98297857D01*
X151288478Y-97727857D02*
X151641335Y-97727857D01*
X151451335Y-97945000D01*
X151532764Y-97945000D01*
X151587050Y-97972142D01*
X151614192Y-97999285D01*
X151641335Y-98053571D01*
X151641335Y-98189285D01*
X151614192Y-98243571D01*
X151587050Y-98270714D01*
X151532764Y-98297857D01*
X151369907Y-98297857D01*
X151315621Y-98270714D01*
X151288478Y-98243571D01*
%TO.C,R12*%
X149098478Y-98297857D02*
X148908478Y-98026428D01*
X148772764Y-98297857D02*
X148772764Y-97727857D01*
X148989907Y-97727857D01*
X149044192Y-97755000D01*
X149071335Y-97782142D01*
X149098478Y-97836428D01*
X149098478Y-97917857D01*
X149071335Y-97972142D01*
X149044192Y-97999285D01*
X148989907Y-98026428D01*
X148772764Y-98026428D01*
X149641335Y-98297857D02*
X149315621Y-98297857D01*
X149478478Y-98297857D02*
X149478478Y-97727857D01*
X149424192Y-97809285D01*
X149369907Y-97863571D01*
X149315621Y-97890714D01*
X149858478Y-97782142D02*
X149885621Y-97755000D01*
X149939907Y-97727857D01*
X150075621Y-97727857D01*
X150129907Y-97755000D01*
X150157050Y-97782142D01*
X150184192Y-97836428D01*
X150184192Y-97890714D01*
X150157050Y-97972142D01*
X149831335Y-98297857D01*
X150184192Y-98297857D01*
%TO.C,D4*%
X150772764Y-99072857D02*
X150772764Y-98502857D01*
X150908478Y-98502857D01*
X150989907Y-98530000D01*
X151044192Y-98584285D01*
X151071335Y-98638571D01*
X151098478Y-98747142D01*
X151098478Y-98828571D01*
X151071335Y-98937142D01*
X151044192Y-98991428D01*
X150989907Y-99045714D01*
X150908478Y-99072857D01*
X150772764Y-99072857D01*
X151587050Y-98692857D02*
X151587050Y-99072857D01*
X151451335Y-98475714D02*
X151315621Y-98882857D01*
X151668478Y-98882857D01*
%TO.C,R13*%
X149098478Y-99072857D02*
X148908478Y-98801428D01*
X148772764Y-99072857D02*
X148772764Y-98502857D01*
X148989907Y-98502857D01*
X149044192Y-98530000D01*
X149071335Y-98557142D01*
X149098478Y-98611428D01*
X149098478Y-98692857D01*
X149071335Y-98747142D01*
X149044192Y-98774285D01*
X148989907Y-98801428D01*
X148772764Y-98801428D01*
X149641335Y-99072857D02*
X149315621Y-99072857D01*
X149478478Y-99072857D02*
X149478478Y-98502857D01*
X149424192Y-98584285D01*
X149369907Y-98638571D01*
X149315621Y-98665714D01*
X149831335Y-98502857D02*
X150184192Y-98502857D01*
X149994192Y-98720000D01*
X150075621Y-98720000D01*
X150129907Y-98747142D01*
X150157050Y-98774285D01*
X150184192Y-98828571D01*
X150184192Y-98964285D01*
X150157050Y-99018571D01*
X150129907Y-99045714D01*
X150075621Y-99072857D01*
X149912764Y-99072857D01*
X149858478Y-99045714D01*
X149831335Y-99018571D01*
%TO.C,IC3*%
X134047764Y-97797857D02*
X134047764Y-97227857D01*
X134644907Y-97743571D02*
X134617764Y-97770714D01*
X134536335Y-97797857D01*
X134482050Y-97797857D01*
X134400621Y-97770714D01*
X134346335Y-97716428D01*
X134319192Y-97662142D01*
X134292050Y-97553571D01*
X134292050Y-97472142D01*
X134319192Y-97363571D01*
X134346335Y-97309285D01*
X134400621Y-97255000D01*
X134482050Y-97227857D01*
X134536335Y-97227857D01*
X134617764Y-97255000D01*
X134644907Y-97282142D01*
X134834907Y-97227857D02*
X135187764Y-97227857D01*
X134997764Y-97445000D01*
X135079192Y-97445000D01*
X135133478Y-97472142D01*
X135160621Y-97499285D01*
X135187764Y-97553571D01*
X135187764Y-97689285D01*
X135160621Y-97743571D01*
X135133478Y-97770714D01*
X135079192Y-97797857D01*
X134916335Y-97797857D01*
X134862050Y-97770714D01*
X134834907Y-97743571D01*
%TO.C,C1*%
X136723478Y-97618571D02*
X136696335Y-97645714D01*
X136614907Y-97672857D01*
X136560621Y-97672857D01*
X136479192Y-97645714D01*
X136424907Y-97591428D01*
X136397764Y-97537142D01*
X136370621Y-97428571D01*
X136370621Y-97347142D01*
X136397764Y-97238571D01*
X136424907Y-97184285D01*
X136479192Y-97130000D01*
X136560621Y-97102857D01*
X136614907Y-97102857D01*
X136696335Y-97130000D01*
X136723478Y-97157142D01*
X137266335Y-97672857D02*
X136940621Y-97672857D01*
X137103478Y-97672857D02*
X137103478Y-97102857D01*
X137049192Y-97184285D01*
X136994907Y-97238571D01*
X136940621Y-97265714D01*
%TO.C,C2*%
X132298478Y-97618571D02*
X132271335Y-97645714D01*
X132189907Y-97672857D01*
X132135621Y-97672857D01*
X132054192Y-97645714D01*
X131999907Y-97591428D01*
X131972764Y-97537142D01*
X131945621Y-97428571D01*
X131945621Y-97347142D01*
X131972764Y-97238571D01*
X131999907Y-97184285D01*
X132054192Y-97130000D01*
X132135621Y-97102857D01*
X132189907Y-97102857D01*
X132271335Y-97130000D01*
X132298478Y-97157142D01*
X132515621Y-97157142D02*
X132542764Y-97130000D01*
X132597050Y-97102857D01*
X132732764Y-97102857D01*
X132787050Y-97130000D01*
X132814192Y-97157142D01*
X132841335Y-97211428D01*
X132841335Y-97265714D01*
X132814192Y-97347142D01*
X132488478Y-97672857D01*
X132841335Y-97672857D01*
%TO.C,C3*%
X152223478Y-102068571D02*
X152196335Y-102095714D01*
X152114907Y-102122857D01*
X152060621Y-102122857D01*
X151979192Y-102095714D01*
X151924907Y-102041428D01*
X151897764Y-101987142D01*
X151870621Y-101878571D01*
X151870621Y-101797142D01*
X151897764Y-101688571D01*
X151924907Y-101634285D01*
X151979192Y-101580000D01*
X152060621Y-101552857D01*
X152114907Y-101552857D01*
X152196335Y-101580000D01*
X152223478Y-101607142D01*
X152413478Y-101552857D02*
X152766335Y-101552857D01*
X152576335Y-101770000D01*
X152657764Y-101770000D01*
X152712050Y-101797142D01*
X152739192Y-101824285D01*
X152766335Y-101878571D01*
X152766335Y-102014285D01*
X152739192Y-102068571D01*
X152712050Y-102095714D01*
X152657764Y-102122857D01*
X152494907Y-102122857D01*
X152440621Y-102095714D01*
X152413478Y-102068571D01*
%TO.C,C4*%
X145813571Y-97613478D02*
X145840714Y-97640621D01*
X145867857Y-97722050D01*
X145867857Y-97776335D01*
X145840714Y-97857764D01*
X145786428Y-97912050D01*
X145732142Y-97939192D01*
X145623571Y-97966335D01*
X145542142Y-97966335D01*
X145433571Y-97939192D01*
X145379285Y-97912050D01*
X145325000Y-97857764D01*
X145297857Y-97776335D01*
X145297857Y-97722050D01*
X145325000Y-97640621D01*
X145352142Y-97613478D01*
X145487857Y-97124907D02*
X145867857Y-97124907D01*
X145270714Y-97260621D02*
X145677857Y-97396335D01*
X145677857Y-97043478D01*
%TO.C,C5*%
X141548478Y-108793571D02*
X141521335Y-108820714D01*
X141439907Y-108847857D01*
X141385621Y-108847857D01*
X141304192Y-108820714D01*
X141249907Y-108766428D01*
X141222764Y-108712142D01*
X141195621Y-108603571D01*
X141195621Y-108522142D01*
X141222764Y-108413571D01*
X141249907Y-108359285D01*
X141304192Y-108305000D01*
X141385621Y-108277857D01*
X141439907Y-108277857D01*
X141521335Y-108305000D01*
X141548478Y-108332142D01*
X142064192Y-108277857D02*
X141792764Y-108277857D01*
X141765621Y-108549285D01*
X141792764Y-108522142D01*
X141847050Y-108495000D01*
X141982764Y-108495000D01*
X142037050Y-108522142D01*
X142064192Y-108549285D01*
X142091335Y-108603571D01*
X142091335Y-108739285D01*
X142064192Y-108793571D01*
X142037050Y-108820714D01*
X141982764Y-108847857D01*
X141847050Y-108847857D01*
X141792764Y-108820714D01*
X141765621Y-108793571D01*
%TO.C,BTN2*%
X140474285Y-112437235D02*
X140501428Y-112355807D01*
X140528571Y-112328664D01*
X140582857Y-112301521D01*
X140664285Y-112301521D01*
X140718571Y-112328664D01*
X140745714Y-112355807D01*
X140772857Y-112410092D01*
X140772857Y-112627235D01*
X140202857Y-112627235D01*
X140202857Y-112437235D01*
X140230000Y-112382950D01*
X140257142Y-112355807D01*
X140311428Y-112328664D01*
X140365714Y-112328664D01*
X140420000Y-112355807D01*
X140447142Y-112382950D01*
X140474285Y-112437235D01*
X140474285Y-112627235D01*
X140202857Y-112138664D02*
X140202857Y-111812950D01*
X140772857Y-111975807D02*
X140202857Y-111975807D01*
X140772857Y-111622950D02*
X140202857Y-111622950D01*
X140772857Y-111297235D01*
X140202857Y-111297235D01*
X140257142Y-111052950D02*
X140230000Y-111025807D01*
X140202857Y-110971521D01*
X140202857Y-110835807D01*
X140230000Y-110781521D01*
X140257142Y-110754378D01*
X140311428Y-110727235D01*
X140365714Y-110727235D01*
X140447142Y-110754378D01*
X140772857Y-111080092D01*
X140772857Y-110727235D01*
%TO.C,R9*%
X141547857Y-112301521D02*
X141276428Y-112491521D01*
X141547857Y-112627235D02*
X140977857Y-112627235D01*
X140977857Y-112410092D01*
X141005000Y-112355807D01*
X141032142Y-112328664D01*
X141086428Y-112301521D01*
X141167857Y-112301521D01*
X141222142Y-112328664D01*
X141249285Y-112355807D01*
X141276428Y-112410092D01*
X141276428Y-112627235D01*
X141547857Y-112030092D02*
X141547857Y-111921521D01*
X141520714Y-111867235D01*
X141493571Y-111840092D01*
X141412142Y-111785807D01*
X141303571Y-111758664D01*
X141086428Y-111758664D01*
X141032142Y-111785807D01*
X141005000Y-111812950D01*
X140977857Y-111867235D01*
X140977857Y-111975807D01*
X141005000Y-112030092D01*
X141032142Y-112057235D01*
X141086428Y-112084378D01*
X141222142Y-112084378D01*
X141276428Y-112057235D01*
X141303571Y-112030092D01*
X141330714Y-111975807D01*
X141330714Y-111867235D01*
X141303571Y-111812950D01*
X141276428Y-111785807D01*
X141222142Y-111758664D01*
%TO.C,JP1*%
X165077857Y-107239378D02*
X165485000Y-107239378D01*
X165566428Y-107266521D01*
X165620714Y-107320807D01*
X165647857Y-107402235D01*
X165647857Y-107456521D01*
X165647857Y-106967950D02*
X165077857Y-106967950D01*
X165077857Y-106750807D01*
X165105000Y-106696521D01*
X165132142Y-106669378D01*
X165186428Y-106642235D01*
X165267857Y-106642235D01*
X165322142Y-106669378D01*
X165349285Y-106696521D01*
X165376428Y-106750807D01*
X165376428Y-106967950D01*
X165647857Y-106099378D02*
X165647857Y-106425092D01*
X165647857Y-106262235D02*
X165077857Y-106262235D01*
X165159285Y-106316521D01*
X165213571Y-106370807D01*
X165240714Y-106425092D01*
%TO.C,C6*%
X149363571Y-112138478D02*
X149390714Y-112165621D01*
X149417857Y-112247050D01*
X149417857Y-112301335D01*
X149390714Y-112382764D01*
X149336428Y-112437050D01*
X149282142Y-112464192D01*
X149173571Y-112491335D01*
X149092142Y-112491335D01*
X148983571Y-112464192D01*
X148929285Y-112437050D01*
X148875000Y-112382764D01*
X148847857Y-112301335D01*
X148847857Y-112247050D01*
X148875000Y-112165621D01*
X148902142Y-112138478D01*
X148847857Y-111649907D02*
X148847857Y-111758478D01*
X148875000Y-111812764D01*
X148902142Y-111839907D01*
X148983571Y-111894192D01*
X149092142Y-111921335D01*
X149309285Y-111921335D01*
X149363571Y-111894192D01*
X149390714Y-111867050D01*
X149417857Y-111812764D01*
X149417857Y-111704192D01*
X149390714Y-111649907D01*
X149363571Y-111622764D01*
X149309285Y-111595621D01*
X149173571Y-111595621D01*
X149119285Y-111622764D01*
X149092142Y-111649907D01*
X149065000Y-111704192D01*
X149065000Y-111812764D01*
X149092142Y-111867050D01*
X149119285Y-111894192D01*
X149173571Y-111921335D01*
%TO.C,C10*%
X154043664Y-108763571D02*
X154016521Y-108790714D01*
X153935092Y-108817857D01*
X153880807Y-108817857D01*
X153799378Y-108790714D01*
X153745092Y-108736428D01*
X153717950Y-108682142D01*
X153690807Y-108573571D01*
X153690807Y-108492142D01*
X153717950Y-108383571D01*
X153745092Y-108329285D01*
X153799378Y-108275000D01*
X153880807Y-108247857D01*
X153935092Y-108247857D01*
X154016521Y-108275000D01*
X154043664Y-108302142D01*
X154586521Y-108817857D02*
X154260807Y-108817857D01*
X154423664Y-108817857D02*
X154423664Y-108247857D01*
X154369378Y-108329285D01*
X154315092Y-108383571D01*
X154260807Y-108410714D01*
X154939378Y-108247857D02*
X154993664Y-108247857D01*
X155047950Y-108275000D01*
X155075092Y-108302142D01*
X155102235Y-108356428D01*
X155129378Y-108465000D01*
X155129378Y-108600714D01*
X155102235Y-108709285D01*
X155075092Y-108763571D01*
X155047950Y-108790714D01*
X154993664Y-108817857D01*
X154939378Y-108817857D01*
X154885092Y-108790714D01*
X154857950Y-108763571D01*
X154830807Y-108709285D01*
X154803664Y-108600714D01*
X154803664Y-108465000D01*
X154830807Y-108356428D01*
X154857950Y-108302142D01*
X154885092Y-108275000D01*
X154939378Y-108247857D01*
%TO.C,C11*%
X161973478Y-108318571D02*
X161946335Y-108345714D01*
X161864907Y-108372857D01*
X161810621Y-108372857D01*
X161729192Y-108345714D01*
X161674907Y-108291428D01*
X161647764Y-108237142D01*
X161620621Y-108128571D01*
X161620621Y-108047142D01*
X161647764Y-107938571D01*
X161674907Y-107884285D01*
X161729192Y-107830000D01*
X161810621Y-107802857D01*
X161864907Y-107802857D01*
X161946335Y-107830000D01*
X161973478Y-107857142D01*
X162516335Y-108372857D02*
X162190621Y-108372857D01*
X162353478Y-108372857D02*
X162353478Y-107802857D01*
X162299192Y-107884285D01*
X162244907Y-107938571D01*
X162190621Y-107965714D01*
X163059192Y-108372857D02*
X162733478Y-108372857D01*
X162896335Y-108372857D02*
X162896335Y-107802857D01*
X162842050Y-107884285D01*
X162787764Y-107938571D01*
X162733478Y-107965714D01*
D15*
%TO.C,IC1*%
X143428100Y-108376600D02*
X149174100Y-108376600D01*
X149174100Y-108376600D02*
X149674100Y-107876600D01*
X142928100Y-107876600D02*
X143428100Y-108376600D01*
X143428100Y-101630600D02*
X142928100Y-102130600D01*
X142928100Y-102130600D02*
X142928100Y-107876600D01*
X149174100Y-101630600D02*
X143428100Y-101630600D01*
X149674100Y-102130600D02*
X149174100Y-101630600D01*
X149674100Y-107876600D02*
X149674100Y-102130600D01*
X149301100Y-107503600D02*
G75*
G03*
X149301100Y-107503600I-500000J0D01*
G01*
D16*
%TO.C,R4*%
X140871100Y-100818600D02*
X140871100Y-102088600D01*
X138131100Y-102088600D02*
X138131100Y-100818600D01*
X140871100Y-102088600D02*
X138131100Y-102088600D01*
X138131100Y-100818600D02*
X140871100Y-100818600D01*
D17*
%TO.C,CN1*%
X137101100Y-108503600D02*
X137101100Y-109603600D01*
X131901100Y-102503600D02*
X134601100Y-102503600D01*
X137101100Y-103203600D02*
X137101100Y-104303600D01*
X134601100Y-110303600D02*
X131901100Y-110303600D01*
D16*
%TO.C,R1*%
X138131100Y-107288600D02*
X138131100Y-106018600D01*
X138131100Y-106018600D02*
X140871100Y-106018600D01*
X140871100Y-107288600D02*
X138131100Y-107288600D01*
X140871100Y-106018600D02*
X140871100Y-107288600D01*
%TO.C,R2*%
X140871100Y-105988600D02*
X138131100Y-105988600D01*
X140871100Y-104718600D02*
X140871100Y-105988600D01*
X138131100Y-104718600D02*
X140871100Y-104718600D01*
X138131100Y-105988600D02*
X138131100Y-104718600D01*
%TO.C,R5*%
X140871100Y-102118600D02*
X140871100Y-103388600D01*
X140871100Y-103388600D02*
X138131100Y-103388600D01*
X138131100Y-103388600D02*
X138131100Y-102118600D01*
X138131100Y-102118600D02*
X140871100Y-102118600D01*
%TO.C,R3*%
X140871100Y-103418600D02*
X140871100Y-104688600D01*
X138131100Y-104688600D02*
X138131100Y-103418600D01*
X138131100Y-103418600D02*
X140871100Y-103418600D01*
X140871100Y-104688600D02*
X138131100Y-104688600D01*
D18*
%TO.C,BTN1*%
X141501100Y-99453600D02*
X138501100Y-99453600D01*
X141501100Y-96953600D02*
X141501100Y-99453600D01*
X138501100Y-96953600D02*
X141501100Y-96953600D01*
X138501100Y-99453600D02*
X138501100Y-96953600D01*
X140751100Y-98203600D02*
G75*
G03*
X140751100Y-98203600I-750000J0D01*
G01*
G36*
X138501100Y-98903600D02*
G01*
X138001100Y-98903600D01*
X138001100Y-97503600D01*
X138501100Y-97503600D01*
X138501100Y-98903600D01*
G37*
G36*
X142001100Y-98903600D02*
G01*
X141501100Y-98903600D01*
X141501100Y-97503600D01*
X142001100Y-97503600D01*
X142001100Y-98903600D01*
G37*
D16*
%TO.C,R6*%
X142471100Y-100788600D02*
X139731100Y-100788600D01*
X139731100Y-99518600D02*
X142471100Y-99518600D01*
X139731100Y-100788600D02*
X139731100Y-99518600D01*
X142471100Y-99518600D02*
X142471100Y-100788600D01*
D17*
%TO.C,IC2*%
X156151100Y-100953600D02*
X160651100Y-100953600D01*
X160651100Y-100953600D02*
X160651100Y-107553600D01*
X160651100Y-107553600D02*
X156151100Y-107553600D01*
X156151100Y-107553600D02*
X156151100Y-100953600D01*
X159951100Y-106853600D02*
G75*
G03*
X159951100Y-106853600I-250000J0D01*
G01*
D16*
%TO.C,R7*%
X158321100Y-99368600D02*
X158321100Y-100638600D01*
X155581100Y-100638600D02*
X155581100Y-99368600D01*
X158321100Y-100638600D02*
X155581100Y-100638600D01*
X155581100Y-99368600D02*
X158321100Y-99368600D01*
%TO.C,R8*%
X156181100Y-99288600D02*
X156181100Y-98018600D01*
X156181100Y-98018600D02*
X158921100Y-98018600D01*
X158921100Y-98018600D02*
X158921100Y-99288600D01*
X158921100Y-99288600D02*
X156181100Y-99288600D01*
D17*
%TO.C,Y1*%
X153601100Y-109753600D02*
X154801100Y-109753600D01*
X151701100Y-111653600D02*
X151701100Y-111053600D01*
X154801100Y-112953600D02*
X153601100Y-112953600D01*
X156701100Y-111653600D02*
X156701100Y-111053600D01*
%TO.C,D2*%
G36*
X164301100Y-97478600D02*
G01*
X164051100Y-97478600D01*
X164051100Y-97228600D01*
X164301100Y-97228600D01*
X164301100Y-97478600D01*
G37*
D16*
%TO.C,R11*%
X159781100Y-96718600D02*
X162521100Y-96718600D01*
X159781100Y-97988600D02*
X159781100Y-96718600D01*
X162521100Y-97988600D02*
X159781100Y-97988600D01*
X162521100Y-96718600D02*
X162521100Y-97988600D01*
%TO.C,D1*%
G36*
X130426100Y-99203600D02*
G01*
X130176100Y-99203600D01*
X130176100Y-98953600D01*
X130426100Y-98953600D01*
X130426100Y-99203600D01*
G37*
%TO.C,R10*%
X129686100Y-100773600D02*
X128416100Y-100773600D01*
X128416100Y-100773600D02*
X128416100Y-98033600D01*
X129686100Y-98033600D02*
X129686100Y-100773600D01*
X128416100Y-98033600D02*
X129686100Y-98033600D01*
%TO.C,D3*%
G36*
X164301100Y-98678600D02*
G01*
X164051100Y-98678600D01*
X164051100Y-98428600D01*
X164301100Y-98428600D01*
X164301100Y-98678600D01*
G37*
%TO.C,R12*%
X159781100Y-98018600D02*
X162521100Y-98018600D01*
X162521100Y-99288600D02*
X159781100Y-99288600D01*
X159781100Y-99288600D02*
X159781100Y-98018600D01*
X162521100Y-98018600D02*
X162521100Y-99288600D01*
%TO.C,D4*%
G36*
X164301100Y-99878600D02*
G01*
X164051100Y-99878600D01*
X164051100Y-99628600D01*
X164301100Y-99628600D01*
X164301100Y-99878600D01*
G37*
%TO.C,R13*%
X162521100Y-99318600D02*
X162521100Y-100588600D01*
X159781100Y-100588600D02*
X159781100Y-99318600D01*
X162521100Y-100588600D02*
X159781100Y-100588600D01*
X159781100Y-99318600D02*
X162521100Y-99318600D01*
D17*
%TO.C,IC3*%
X134051100Y-98053600D02*
X135051100Y-98053600D01*
X135051100Y-100253600D02*
X134051100Y-100253600D01*
D10*
X134826100Y-99803600D02*
G75*
G03*
X134826100Y-99803600I-75000J0D01*
G01*
D18*
%TO.C,BTN2*%
X142301100Y-112853600D02*
X142301100Y-110353600D01*
X145301100Y-110353600D02*
X145301100Y-112853600D01*
X142301100Y-110353600D02*
X145301100Y-110353600D01*
X145301100Y-112853600D02*
X142301100Y-112853600D01*
X144551100Y-111603600D02*
G75*
G03*
X144551100Y-111603600I-750000J0D01*
G01*
G36*
X145801100Y-112303600D02*
G01*
X145301100Y-112303600D01*
X145301100Y-110903600D01*
X145801100Y-110903600D01*
X145801100Y-112303600D01*
G37*
G36*
X142301100Y-112303600D02*
G01*
X141801100Y-112303600D01*
X141801100Y-110903600D01*
X142301100Y-110903600D01*
X142301100Y-112303600D01*
G37*
D16*
%TO.C,R9*%
X147386100Y-110433600D02*
X147386100Y-113173600D01*
X146116100Y-113173600D02*
X146116100Y-110433600D01*
X147386100Y-113173600D02*
X146116100Y-113173600D01*
X146116100Y-110433600D02*
X147386100Y-110433600D01*
D15*
%TO.C,JP1*%
X167306100Y-105583600D02*
X163496100Y-105583600D01*
X163496100Y-105583600D02*
X162861100Y-106218600D01*
X162861100Y-103678600D02*
X162861100Y-104948600D01*
X167941100Y-108758600D02*
X167941100Y-110028600D01*
X167941100Y-102408600D02*
X167306100Y-103043600D01*
X167941100Y-107488600D02*
X167306100Y-108123600D01*
X167306100Y-103043600D02*
X167941100Y-103678600D01*
X167306100Y-108123600D02*
X163496100Y-108123600D01*
X163496100Y-108123600D02*
X162861100Y-108758600D01*
X163496100Y-100503600D02*
X162861100Y-101138600D01*
X167941100Y-101138600D02*
X167941100Y-102408600D01*
X162861100Y-111298600D02*
X162861100Y-112568600D01*
X167306100Y-105583600D02*
X167941100Y-106218600D01*
X162861100Y-108758600D02*
X162861100Y-110028600D01*
X163496100Y-103043600D02*
X162861100Y-103678600D01*
X163496100Y-110663600D02*
X162861100Y-111298600D01*
X167941100Y-103678600D02*
X167941100Y-104948600D01*
X162861100Y-107488600D02*
X163496100Y-108123600D01*
X167941100Y-111298600D02*
X167941100Y-112568600D01*
X162861100Y-112568600D02*
X163496100Y-113203600D01*
X163496100Y-100503600D02*
X167306100Y-100503600D01*
X162861100Y-102408600D02*
X163496100Y-103043600D01*
X162861100Y-110028600D02*
X163496100Y-110663600D01*
X167941100Y-104948600D02*
X167306100Y-105583600D01*
X162861100Y-101138600D02*
X162861100Y-102408600D01*
X167306100Y-110663600D02*
X163496100Y-110663600D01*
X167306100Y-113203600D02*
X163496100Y-113203600D01*
X167941100Y-112568600D02*
X167306100Y-113203600D01*
X167306100Y-110663600D02*
X167941100Y-111298600D01*
X167941100Y-110028600D02*
X167306100Y-110663600D01*
X167941100Y-106218600D02*
X167941100Y-107488600D01*
X162861100Y-106218600D02*
X162861100Y-107488600D01*
X167306100Y-103043600D02*
X163496100Y-103043600D01*
X167306100Y-108123600D02*
X167941100Y-108758600D01*
X162861100Y-104948600D02*
X163496100Y-105583600D01*
X167306100Y-100503600D02*
X167941100Y-101138600D01*
%TO.C,U$32*%
G36*
X134801100Y-105503600D02*
G01*
X134601100Y-105503600D01*
X134601100Y-105303600D01*
X134801100Y-105303600D01*
X134801100Y-105503600D01*
G37*
G36*
X134401100Y-105103600D02*
G01*
X134201100Y-105103600D01*
X134201100Y-104903600D01*
X134401100Y-104903600D01*
X134401100Y-105103600D01*
G37*
G36*
X134601100Y-105103600D02*
G01*
X134401100Y-105103600D01*
X134401100Y-104903600D01*
X134601100Y-104903600D01*
X134601100Y-105103600D01*
G37*
G36*
X134601100Y-105903600D02*
G01*
X134401100Y-105903600D01*
X134401100Y-105703600D01*
X134601100Y-105703600D01*
X134601100Y-105903600D01*
G37*
G36*
X134401100Y-107703600D02*
G01*
X134201100Y-107703600D01*
X134201100Y-107503600D01*
X134401100Y-107503600D01*
X134401100Y-107703600D01*
G37*
G36*
X134801100Y-106703600D02*
G01*
X134601100Y-106703600D01*
X134601100Y-106503600D01*
X134801100Y-106503600D01*
X134801100Y-106703600D01*
G37*
G36*
X134601100Y-107103600D02*
G01*
X134401100Y-107103600D01*
X134401100Y-106903600D01*
X134601100Y-106903600D01*
X134601100Y-107103600D01*
G37*
G36*
X134601100Y-107503600D02*
G01*
X134401100Y-107503600D01*
X134401100Y-107303600D01*
X134601100Y-107303600D01*
X134601100Y-107503600D01*
G37*
G36*
X134601100Y-105503600D02*
G01*
X134401100Y-105503600D01*
X134401100Y-105303600D01*
X134601100Y-105303600D01*
X134601100Y-105503600D01*
G37*
G36*
X134001100Y-105103600D02*
G01*
X133801100Y-105103600D01*
X133801100Y-104903600D01*
X134001100Y-104903600D01*
X134001100Y-105103600D01*
G37*
G36*
X134401100Y-106303600D02*
G01*
X134201100Y-106303600D01*
X134201100Y-106103600D01*
X134401100Y-106103600D01*
X134401100Y-106303600D01*
G37*
G36*
X134001100Y-107103600D02*
G01*
X133801100Y-107103600D01*
X133801100Y-106903600D01*
X134001100Y-106903600D01*
X134001100Y-107103600D01*
G37*
G36*
X134601100Y-106303600D02*
G01*
X134401100Y-106303600D01*
X134401100Y-106103600D01*
X134601100Y-106103600D01*
X134601100Y-106303600D01*
G37*
G36*
X134201100Y-105503600D02*
G01*
X134001100Y-105503600D01*
X134001100Y-105303600D01*
X134201100Y-105303600D01*
X134201100Y-105503600D01*
G37*
G36*
X134401100Y-105503600D02*
G01*
X134201100Y-105503600D01*
X134201100Y-105303600D01*
X134401100Y-105303600D01*
X134401100Y-105503600D01*
G37*
G36*
X134201100Y-105903600D02*
G01*
X134001100Y-105903600D01*
X134001100Y-105703600D01*
X134201100Y-105703600D01*
X134201100Y-105903600D01*
G37*
G36*
X134001100Y-106303600D02*
G01*
X133801100Y-106303600D01*
X133801100Y-106103600D01*
X134001100Y-106103600D01*
X134001100Y-106303600D01*
G37*
G36*
X134401100Y-106903600D02*
G01*
X134201100Y-106903600D01*
X134201100Y-106703600D01*
X134401100Y-106703600D01*
X134401100Y-106903600D01*
G37*
G36*
X134801100Y-106903600D02*
G01*
X134601100Y-106903600D01*
X134601100Y-106703600D01*
X134801100Y-106703600D01*
X134801100Y-106903600D01*
G37*
G36*
X134801100Y-107903600D02*
G01*
X134601100Y-107903600D01*
X134601100Y-107703600D01*
X134801100Y-107703600D01*
X134801100Y-107903600D01*
G37*
G36*
X134201100Y-105103600D02*
G01*
X134001100Y-105103600D01*
X134001100Y-104903600D01*
X134201100Y-104903600D01*
X134201100Y-105103600D01*
G37*
G36*
X134001100Y-105903600D02*
G01*
X133801100Y-105903600D01*
X133801100Y-105703600D01*
X134001100Y-105703600D01*
X134001100Y-105903600D01*
G37*
G36*
X134401100Y-106703600D02*
G01*
X134201100Y-106703600D01*
X134201100Y-106503600D01*
X134401100Y-106503600D01*
X134401100Y-106703600D01*
G37*
G36*
X134001100Y-106703600D02*
G01*
X133801100Y-106703600D01*
X133801100Y-106503600D01*
X134001100Y-106503600D01*
X134001100Y-106703600D01*
G37*
G36*
X134401100Y-107103600D02*
G01*
X134201100Y-107103600D01*
X134201100Y-106903600D01*
X134401100Y-106903600D01*
X134401100Y-107103600D01*
G37*
G36*
X134801100Y-106303600D02*
G01*
X134601100Y-106303600D01*
X134601100Y-106103600D01*
X134801100Y-106103600D01*
X134801100Y-106303600D01*
G37*
G36*
X134401100Y-107903600D02*
G01*
X134201100Y-107903600D01*
X134201100Y-107703600D01*
X134401100Y-107703600D01*
X134401100Y-107903600D01*
G37*
G36*
X134801100Y-105103600D02*
G01*
X134601100Y-105103600D01*
X134601100Y-104903600D01*
X134801100Y-104903600D01*
X134801100Y-105103600D01*
G37*
G36*
X134001100Y-106103600D02*
G01*
X133801100Y-106103600D01*
X133801100Y-105903600D01*
X134001100Y-105903600D01*
X134001100Y-106103600D01*
G37*
G36*
X134201100Y-107103600D02*
G01*
X134001100Y-107103600D01*
X134001100Y-106903600D01*
X134201100Y-106903600D01*
X134201100Y-107103600D01*
G37*
G36*
X134201100Y-106703600D02*
G01*
X134001100Y-106703600D01*
X134001100Y-106503600D01*
X134201100Y-106503600D01*
X134201100Y-106703600D01*
G37*
G36*
X134801100Y-107103600D02*
G01*
X134601100Y-107103600D01*
X134601100Y-106903600D01*
X134801100Y-106903600D01*
X134801100Y-107103600D01*
G37*
G36*
X134201100Y-107903600D02*
G01*
X134001100Y-107903600D01*
X134001100Y-107703600D01*
X134201100Y-107703600D01*
X134201100Y-107903600D01*
G37*
G36*
X134801100Y-107503600D02*
G01*
X134601100Y-107503600D01*
X134601100Y-107303600D01*
X134801100Y-107303600D01*
X134801100Y-107503600D01*
G37*
G36*
X134401100Y-105303600D02*
G01*
X134201100Y-105303600D01*
X134201100Y-105103600D01*
X134401100Y-105103600D01*
X134401100Y-105303600D01*
G37*
G36*
X134001100Y-105303600D02*
G01*
X133801100Y-105303600D01*
X133801100Y-105103600D01*
X134001100Y-105103600D01*
X134001100Y-105303600D01*
G37*
G36*
X134001100Y-107703600D02*
G01*
X133801100Y-107703600D01*
X133801100Y-107503600D01*
X134001100Y-107503600D01*
X134001100Y-107703600D01*
G37*
G36*
X134801100Y-106103600D02*
G01*
X134601100Y-106103600D01*
X134601100Y-105903600D01*
X134801100Y-105903600D01*
X134801100Y-106103600D01*
G37*
G36*
X134601100Y-107903600D02*
G01*
X134401100Y-107903600D01*
X134401100Y-107703600D01*
X134601100Y-107703600D01*
X134601100Y-107903600D01*
G37*
G36*
X134601100Y-106703600D02*
G01*
X134401100Y-106703600D01*
X134401100Y-106503600D01*
X134601100Y-106503600D01*
X134601100Y-106703600D01*
G37*
G36*
X134401100Y-106103600D02*
G01*
X134201100Y-106103600D01*
X134201100Y-105903600D01*
X134401100Y-105903600D01*
X134401100Y-106103600D01*
G37*
G36*
X134001100Y-107903600D02*
G01*
X133801100Y-107903600D01*
X133801100Y-107703600D01*
X134001100Y-107703600D01*
X134001100Y-107903600D01*
G37*
G36*
X134401100Y-105903600D02*
G01*
X134201100Y-105903600D01*
X134201100Y-105703600D01*
X134401100Y-105703600D01*
X134401100Y-105903600D01*
G37*
G36*
X134801100Y-105303600D02*
G01*
X134601100Y-105303600D01*
X134601100Y-105103600D01*
X134801100Y-105103600D01*
X134801100Y-105303600D01*
G37*
G36*
X134001100Y-106903600D02*
G01*
X133801100Y-106903600D01*
X133801100Y-106703600D01*
X134001100Y-106703600D01*
X134001100Y-106903600D01*
G37*
G36*
X134001100Y-107503600D02*
G01*
X133801100Y-107503600D01*
X133801100Y-107303600D01*
X134001100Y-107303600D01*
X134001100Y-107503600D01*
G37*
G36*
X134801100Y-105903600D02*
G01*
X134601100Y-105903600D01*
X134601100Y-105703600D01*
X134801100Y-105703600D01*
X134801100Y-105903600D01*
G37*
G36*
X134201100Y-107503600D02*
G01*
X134001100Y-107503600D01*
X134001100Y-107303600D01*
X134201100Y-107303600D01*
X134201100Y-107503600D01*
G37*
G36*
X134001100Y-105503600D02*
G01*
X133801100Y-105503600D01*
X133801100Y-105303600D01*
X134001100Y-105303600D01*
X134001100Y-105503600D01*
G37*
G36*
X134401100Y-107503600D02*
G01*
X134201100Y-107503600D01*
X134201100Y-107303600D01*
X134401100Y-107303600D01*
X134401100Y-107503600D01*
G37*
G36*
X134201100Y-106303600D02*
G01*
X134001100Y-106303600D01*
X134001100Y-106103600D01*
X134201100Y-106103600D01*
X134201100Y-106303600D01*
G37*
G36*
X134801100Y-107703600D02*
G01*
X134601100Y-107703600D01*
X134601100Y-107503600D01*
X134801100Y-107503600D01*
X134801100Y-107703600D01*
G37*
%TD*%
M02*
