%TF.GenerationSoftware,KiCad,Pcbnew,(6.0.7)*%
%TF.CreationDate,2022-09-08T11:38:00+02:00*%
%TF.ProjectId,blackmagic_richardeoin,626c6163-6b6d-4616-9769-635f72696368,rev?*%
%TF.SameCoordinates,Original*%
%TF.FileFunction,Legend,Bot*%
%TF.FilePolarity,Positive*%
%FSLAX46Y46*%
G04 Gerber Fmt 4.6, Leading zero omitted, Abs format (unit mm)*
G04 Created by KiCad (PCBNEW (6.0.7)) date 2022-09-08 11:38:00*
%MOMM*%
%LPD*%
G01*
G04 APERTURE LIST*
%ADD10C,0.150000*%
%ADD11C,0.190000*%
%ADD12C,0.065000*%
%ADD13C,0.057000*%
%ADD14C,0.406400*%
%ADD15C,0.762000*%
%ADD16C,0.152400*%
G04 APERTURE END LIST*
D10*
X168428528Y-107629064D02*
X168428528Y-107221921D01*
X167716028Y-107425492D02*
X168428528Y-107425492D01*
X167716028Y-106984421D02*
X168428528Y-106984421D01*
X168428528Y-106814778D01*
X168394600Y-106712992D01*
X168326742Y-106645135D01*
X168258885Y-106611207D01*
X168123171Y-106577278D01*
X168021385Y-106577278D01*
X167885671Y-106611207D01*
X167817814Y-106645135D01*
X167749957Y-106712992D01*
X167716028Y-106814778D01*
X167716028Y-106984421D01*
X167716028Y-106271921D02*
X168428528Y-106271921D01*
X168428528Y-105530135D02*
X168428528Y-105122992D01*
X167716028Y-105326564D02*
X168428528Y-105326564D01*
X167716028Y-104478350D02*
X168055314Y-104715850D01*
X167716028Y-104885492D02*
X168428528Y-104885492D01*
X168428528Y-104614064D01*
X168394600Y-104546207D01*
X168360671Y-104512278D01*
X168292814Y-104478350D01*
X168191028Y-104478350D01*
X168123171Y-104512278D01*
X168089242Y-104546207D01*
X168055314Y-104614064D01*
X168055314Y-104885492D01*
X167749957Y-104206921D02*
X167716028Y-104105135D01*
X167716028Y-103935492D01*
X167749957Y-103867635D01*
X167783885Y-103833707D01*
X167851742Y-103799778D01*
X167919600Y-103799778D01*
X167987457Y-103833707D01*
X168021385Y-103867635D01*
X168055314Y-103935492D01*
X168089242Y-104071207D01*
X168123171Y-104139064D01*
X168157100Y-104172992D01*
X168224957Y-104206921D01*
X168292814Y-104206921D01*
X168360671Y-104172992D01*
X168394600Y-104139064D01*
X168428528Y-104071207D01*
X168428528Y-103901564D01*
X168394600Y-103799778D01*
X168428528Y-103596207D02*
X168428528Y-103189064D01*
X167716028Y-103392635D02*
X168428528Y-103392635D01*
X161993528Y-102209778D02*
X162332814Y-102447278D01*
X161993528Y-102616921D02*
X162706028Y-102616921D01*
X162706028Y-102345492D01*
X162672100Y-102277635D01*
X162638171Y-102243707D01*
X162570314Y-102209778D01*
X162468528Y-102209778D01*
X162400671Y-102243707D01*
X162366742Y-102277635D01*
X162332814Y-102345492D01*
X162332814Y-102616921D01*
X162027457Y-101938350D02*
X161993528Y-101836564D01*
X161993528Y-101666921D01*
X162027457Y-101599064D01*
X162061385Y-101565135D01*
X162129242Y-101531207D01*
X162197100Y-101531207D01*
X162264957Y-101565135D01*
X162298885Y-101599064D01*
X162332814Y-101666921D01*
X162366742Y-101802635D01*
X162400671Y-101870492D01*
X162434600Y-101904421D01*
X162502457Y-101938350D01*
X162570314Y-101938350D01*
X162638171Y-101904421D01*
X162672100Y-101870492D01*
X162706028Y-101802635D01*
X162706028Y-101632992D01*
X162672100Y-101531207D01*
X162706028Y-101327635D02*
X162706028Y-100920492D01*
X161993528Y-101124064D02*
X162706028Y-101124064D01*
X168428528Y-112827814D02*
X168428528Y-112420671D01*
X167716028Y-112624242D02*
X168428528Y-112624242D01*
X167716028Y-112251028D02*
X168191028Y-111877814D01*
X168191028Y-112251028D02*
X167716028Y-111877814D01*
X167716028Y-111606385D02*
X168428528Y-111606385D01*
X168428528Y-111436742D01*
X168394600Y-111334957D01*
X168326742Y-111267100D01*
X168258885Y-111233171D01*
X168123171Y-111199242D01*
X168021385Y-111199242D01*
X167885671Y-111233171D01*
X167817814Y-111267100D01*
X167749957Y-111334957D01*
X167716028Y-111436742D01*
X167716028Y-111606385D01*
X167716028Y-109863707D02*
X168055314Y-110101207D01*
X167716028Y-110270850D02*
X168428528Y-110270850D01*
X168428528Y-109999421D01*
X168394600Y-109931564D01*
X168360671Y-109897635D01*
X168292814Y-109863707D01*
X168191028Y-109863707D01*
X168123171Y-109897635D01*
X168089242Y-109931564D01*
X168055314Y-109999421D01*
X168055314Y-110270850D01*
X167716028Y-109626207D02*
X168191028Y-109252992D01*
X168191028Y-109626207D02*
X167716028Y-109252992D01*
X167716028Y-108981564D02*
X168428528Y-108981564D01*
X168428528Y-108811921D01*
X168394600Y-108710135D01*
X168326742Y-108642278D01*
X168258885Y-108608350D01*
X168123171Y-108574421D01*
X168021385Y-108574421D01*
X167885671Y-108608350D01*
X167817814Y-108642278D01*
X167749957Y-108710135D01*
X167716028Y-108811921D01*
X167716028Y-108981564D01*
X162706028Y-107849600D02*
X162706028Y-107442457D01*
X161993528Y-107646028D02*
X162706028Y-107646028D01*
X161993528Y-107204957D02*
X162706028Y-107204957D01*
X162197100Y-106967457D01*
X162706028Y-106729957D01*
X161993528Y-106729957D01*
X162027457Y-106424600D02*
X161993528Y-106322814D01*
X161993528Y-106153171D01*
X162027457Y-106085314D01*
X162061385Y-106051385D01*
X162129242Y-106017457D01*
X162197100Y-106017457D01*
X162264957Y-106051385D01*
X162298885Y-106085314D01*
X162332814Y-106153171D01*
X162366742Y-106288885D01*
X162400671Y-106356742D01*
X162434600Y-106390671D01*
X162502457Y-106424600D01*
X162570314Y-106424600D01*
X162638171Y-106390671D01*
X162672100Y-106356742D01*
X162706028Y-106288885D01*
X162706028Y-106119242D01*
X162672100Y-106017457D01*
X162554957Y-113217100D02*
X161864957Y-112987100D01*
X162554957Y-112757100D01*
X161930671Y-112132814D02*
X161897814Y-112165671D01*
X161864957Y-112264242D01*
X161864957Y-112329957D01*
X161897814Y-112428528D01*
X161963528Y-112494242D01*
X162029242Y-112527100D01*
X162160671Y-112559957D01*
X162259242Y-112559957D01*
X162390671Y-112527100D01*
X162456385Y-112494242D01*
X162522100Y-112428528D01*
X162554957Y-112329957D01*
X162554957Y-112264242D01*
X162522100Y-112165671D01*
X162489242Y-112132814D01*
X161930671Y-111442814D02*
X161897814Y-111475671D01*
X161864957Y-111574242D01*
X161864957Y-111639957D01*
X161897814Y-111738528D01*
X161963528Y-111804242D01*
X162029242Y-111837100D01*
X162160671Y-111869957D01*
X162259242Y-111869957D01*
X162390671Y-111837100D01*
X162456385Y-111804242D01*
X162522100Y-111738528D01*
X162554957Y-111639957D01*
X162554957Y-111574242D01*
X162522100Y-111475671D01*
X162489242Y-111442814D01*
X162706028Y-105275671D02*
X162706028Y-104868528D01*
X161993528Y-105072100D02*
X162706028Y-105072100D01*
X162061385Y-104223885D02*
X162027457Y-104257814D01*
X161993528Y-104359600D01*
X161993528Y-104427457D01*
X162027457Y-104529242D01*
X162095314Y-104597100D01*
X162163171Y-104631028D01*
X162298885Y-104664957D01*
X162400671Y-104664957D01*
X162536385Y-104631028D01*
X162604242Y-104597100D01*
X162672100Y-104529242D01*
X162706028Y-104427457D01*
X162706028Y-104359600D01*
X162672100Y-104257814D01*
X162638171Y-104223885D01*
X161993528Y-103918528D02*
X162706028Y-103918528D01*
X161993528Y-103511385D02*
X162400671Y-103816742D01*
X162706028Y-103511385D02*
X162298885Y-103918528D01*
D11*
X168462719Y-97563123D02*
X168462719Y-96660623D01*
X168462719Y-97004433D02*
X168376766Y-96961457D01*
X168204861Y-96961457D01*
X168118909Y-97004433D01*
X168075933Y-97047409D01*
X168032957Y-97133361D01*
X168032957Y-97391219D01*
X168075933Y-97477171D01*
X168118909Y-97520147D01*
X168204861Y-97563123D01*
X168376766Y-97563123D01*
X168462719Y-97520147D01*
X167517242Y-97563123D02*
X167603195Y-97520147D01*
X167646171Y-97434195D01*
X167646171Y-96660623D01*
X166786647Y-97563123D02*
X166786647Y-97090385D01*
X166829623Y-97004433D01*
X166915576Y-96961457D01*
X167087480Y-96961457D01*
X167173433Y-97004433D01*
X166786647Y-97520147D02*
X166872600Y-97563123D01*
X167087480Y-97563123D01*
X167173433Y-97520147D01*
X167216409Y-97434195D01*
X167216409Y-97348242D01*
X167173433Y-97262290D01*
X167087480Y-97219314D01*
X166872600Y-97219314D01*
X166786647Y-97176338D01*
X165970100Y-97520147D02*
X166056052Y-97563123D01*
X166227957Y-97563123D01*
X166313909Y-97520147D01*
X166356885Y-97477171D01*
X166399861Y-97391219D01*
X166399861Y-97133361D01*
X166356885Y-97047409D01*
X166313909Y-97004433D01*
X166227957Y-96961457D01*
X166056052Y-96961457D01*
X165970100Y-97004433D01*
X165583314Y-97563123D02*
X165583314Y-96660623D01*
X165497361Y-97219314D02*
X165239504Y-97563123D01*
X165239504Y-96961457D02*
X165583314Y-97305266D01*
X164852719Y-97563123D02*
X164852719Y-96961457D01*
X164852719Y-97047409D02*
X164809742Y-97004433D01*
X164723790Y-96961457D01*
X164594861Y-96961457D01*
X164508909Y-97004433D01*
X164465933Y-97090385D01*
X164465933Y-97563123D01*
X164465933Y-97090385D02*
X164422957Y-97004433D01*
X164337004Y-96961457D01*
X164208076Y-96961457D01*
X164122123Y-97004433D01*
X164079147Y-97090385D01*
X164079147Y-97563123D01*
X163262599Y-97563123D02*
X163262599Y-97090385D01*
X163305576Y-97004433D01*
X163391528Y-96961457D01*
X163563433Y-96961457D01*
X163649385Y-97004433D01*
X163262599Y-97520147D02*
X163348552Y-97563123D01*
X163563433Y-97563123D01*
X163649385Y-97520147D01*
X163692361Y-97434195D01*
X163692361Y-97348242D01*
X163649385Y-97262290D01*
X163563433Y-97219314D01*
X163348552Y-97219314D01*
X163262599Y-97176338D01*
X162446052Y-96961457D02*
X162446052Y-97692052D01*
X162489028Y-97778004D01*
X162532004Y-97820980D01*
X162617957Y-97863957D01*
X162746885Y-97863957D01*
X162832838Y-97820980D01*
X162446052Y-97520147D02*
X162532004Y-97563123D01*
X162703909Y-97563123D01*
X162789861Y-97520147D01*
X162832838Y-97477171D01*
X162875814Y-97391219D01*
X162875814Y-97133361D01*
X162832838Y-97047409D01*
X162789861Y-97004433D01*
X162703909Y-96961457D01*
X162532004Y-96961457D01*
X162446052Y-97004433D01*
X162016290Y-97563123D02*
X162016290Y-96961457D01*
X162016290Y-96660623D02*
X162059266Y-96703600D01*
X162016290Y-96746576D01*
X161973314Y-96703600D01*
X162016290Y-96660623D01*
X162016290Y-96746576D01*
X161199742Y-97520147D02*
X161285695Y-97563123D01*
X161457599Y-97563123D01*
X161543552Y-97520147D01*
X161586528Y-97477171D01*
X161629504Y-97391219D01*
X161629504Y-97133361D01*
X161586528Y-97047409D01*
X161543552Y-97004433D01*
X161457599Y-96961457D01*
X161285695Y-96961457D01*
X161199742Y-97004433D01*
X159738552Y-97563123D02*
X159738552Y-96660623D01*
X159738552Y-97520147D02*
X159824504Y-97563123D01*
X159996409Y-97563123D01*
X160082361Y-97520147D01*
X160125338Y-97477171D01*
X160168314Y-97391219D01*
X160168314Y-97133361D01*
X160125338Y-97047409D01*
X160082361Y-97004433D01*
X159996409Y-96961457D01*
X159824504Y-96961457D01*
X159738552Y-97004433D01*
X158964980Y-97520147D02*
X159050933Y-97563123D01*
X159222838Y-97563123D01*
X159308790Y-97520147D01*
X159351766Y-97434195D01*
X159351766Y-97090385D01*
X159308790Y-97004433D01*
X159222838Y-96961457D01*
X159050933Y-96961457D01*
X158964980Y-97004433D01*
X158922004Y-97090385D01*
X158922004Y-97176338D01*
X159351766Y-97262290D01*
X158535219Y-97563123D02*
X158535219Y-96660623D01*
X158535219Y-97004433D02*
X158449266Y-96961457D01*
X158277361Y-96961457D01*
X158191409Y-97004433D01*
X158148433Y-97047409D01*
X158105457Y-97133361D01*
X158105457Y-97391219D01*
X158148433Y-97477171D01*
X158191409Y-97520147D01*
X158277361Y-97563123D01*
X158449266Y-97563123D01*
X158535219Y-97520147D01*
X157331885Y-96961457D02*
X157331885Y-97563123D01*
X157718671Y-96961457D02*
X157718671Y-97434195D01*
X157675695Y-97520147D01*
X157589742Y-97563123D01*
X157460814Y-97563123D01*
X157374861Y-97520147D01*
X157331885Y-97477171D01*
X156515338Y-96961457D02*
X156515338Y-97692052D01*
X156558314Y-97778004D01*
X156601290Y-97820980D01*
X156687242Y-97863957D01*
X156816171Y-97863957D01*
X156902123Y-97820980D01*
X156515338Y-97520147D02*
X156601290Y-97563123D01*
X156773195Y-97563123D01*
X156859147Y-97520147D01*
X156902123Y-97477171D01*
X156945099Y-97391219D01*
X156945099Y-97133361D01*
X156902123Y-97047409D01*
X156859147Y-97004433D01*
X156773195Y-96961457D01*
X156601290Y-96961457D01*
X156515338Y-97004433D01*
X155397957Y-96961457D02*
X155397957Y-97863957D01*
X155397957Y-97004433D02*
X155312004Y-96961457D01*
X155140099Y-96961457D01*
X155054147Y-97004433D01*
X155011171Y-97047409D01*
X154968195Y-97133361D01*
X154968195Y-97391219D01*
X155011171Y-97477171D01*
X155054147Y-97520147D01*
X155140099Y-97563123D01*
X155312004Y-97563123D01*
X155397957Y-97520147D01*
X154581409Y-97563123D02*
X154581409Y-96961457D01*
X154581409Y-97133361D02*
X154538433Y-97047409D01*
X154495457Y-97004433D01*
X154409504Y-96961457D01*
X154323552Y-96961457D01*
X153893790Y-97563123D02*
X153979742Y-97520147D01*
X154022719Y-97477171D01*
X154065695Y-97391219D01*
X154065695Y-97133361D01*
X154022719Y-97047409D01*
X153979742Y-97004433D01*
X153893790Y-96961457D01*
X153764861Y-96961457D01*
X153678909Y-97004433D01*
X153635933Y-97047409D01*
X153592957Y-97133361D01*
X153592957Y-97391219D01*
X153635933Y-97477171D01*
X153678909Y-97520147D01*
X153764861Y-97563123D01*
X153893790Y-97563123D01*
X153206171Y-97563123D02*
X153206171Y-96660623D01*
X153206171Y-97004433D02*
X153120219Y-96961457D01*
X152948314Y-96961457D01*
X152862361Y-97004433D01*
X152819385Y-97047409D01*
X152776409Y-97133361D01*
X152776409Y-97391219D01*
X152819385Y-97477171D01*
X152862361Y-97520147D01*
X152948314Y-97563123D01*
X153120219Y-97563123D01*
X153206171Y-97520147D01*
X152045814Y-97520147D02*
X152131766Y-97563123D01*
X152303671Y-97563123D01*
X152389623Y-97520147D01*
X152432599Y-97434195D01*
X152432599Y-97090385D01*
X152389623Y-97004433D01*
X152303671Y-96961457D01*
X152131766Y-96961457D01*
X152045814Y-97004433D01*
X152002838Y-97090385D01*
X152002838Y-97176338D01*
X152432599Y-97262290D01*
D10*
X168635742Y-98369671D02*
X168228600Y-98369671D01*
X168432171Y-99082171D02*
X168432171Y-98369671D01*
X167583957Y-99014314D02*
X167617885Y-99048242D01*
X167719671Y-99082171D01*
X167787528Y-99082171D01*
X167889314Y-99048242D01*
X167957171Y-98980385D01*
X167991100Y-98912528D01*
X168025028Y-98776814D01*
X168025028Y-98675028D01*
X167991100Y-98539314D01*
X167957171Y-98471457D01*
X167889314Y-98403600D01*
X167787528Y-98369671D01*
X167719671Y-98369671D01*
X167617885Y-98403600D01*
X167583957Y-98437528D01*
X167278600Y-99082171D02*
X167278600Y-98369671D01*
X166871457Y-99082171D02*
X167176814Y-98675028D01*
X166871457Y-98369671D02*
X167278600Y-98776814D01*
X166566100Y-98708957D02*
X166023242Y-98708957D01*
X166023242Y-98912528D02*
X166566100Y-98912528D01*
X165717885Y-99048242D02*
X165616100Y-99082171D01*
X165446457Y-99082171D01*
X165378600Y-99048242D01*
X165344671Y-99014314D01*
X165310742Y-98946457D01*
X165310742Y-98878600D01*
X165344671Y-98810742D01*
X165378600Y-98776814D01*
X165446457Y-98742885D01*
X165582171Y-98708957D01*
X165650028Y-98675028D01*
X165683957Y-98641100D01*
X165717885Y-98573242D01*
X165717885Y-98505385D01*
X165683957Y-98437528D01*
X165650028Y-98403600D01*
X165582171Y-98369671D01*
X165412528Y-98369671D01*
X165310742Y-98403600D01*
X165073242Y-98369671D02*
X164903600Y-99082171D01*
X164767885Y-98573242D01*
X164632171Y-99082171D01*
X164462528Y-98369671D01*
X164191100Y-99082171D02*
X164191100Y-98369671D01*
X164021457Y-98369671D01*
X163919671Y-98403600D01*
X163851814Y-98471457D01*
X163817885Y-98539314D01*
X163783957Y-98675028D01*
X163783957Y-98776814D01*
X163817885Y-98912528D01*
X163851814Y-98980385D01*
X163919671Y-99048242D01*
X164021457Y-99082171D01*
X164191100Y-99082171D01*
X163071457Y-99014314D02*
X163105385Y-99048242D01*
X163207171Y-99082171D01*
X163275028Y-99082171D01*
X163376814Y-99048242D01*
X163444671Y-98980385D01*
X163478600Y-98912528D01*
X163512528Y-98776814D01*
X163512528Y-98675028D01*
X163478600Y-98539314D01*
X163444671Y-98471457D01*
X163376814Y-98403600D01*
X163275028Y-98369671D01*
X163207171Y-98369671D01*
X163105385Y-98403600D01*
X163071457Y-98437528D01*
X162426814Y-99082171D02*
X162766100Y-99082171D01*
X162766100Y-98369671D01*
X162189314Y-99082171D02*
X162189314Y-98369671D01*
X161782171Y-99082171D02*
X162087528Y-98675028D01*
X161782171Y-98369671D02*
X162189314Y-98776814D01*
X168635742Y-99516796D02*
X168228600Y-99516796D01*
X168432171Y-100229296D02*
X168432171Y-99516796D01*
X167991100Y-100229296D02*
X167991100Y-99516796D01*
X167753600Y-100025725D01*
X167516100Y-99516796D01*
X167516100Y-100229296D01*
X167210742Y-100195367D02*
X167108957Y-100229296D01*
X166939314Y-100229296D01*
X166871457Y-100195367D01*
X166837528Y-100161439D01*
X166803600Y-100093582D01*
X166803600Y-100025725D01*
X166837528Y-99957867D01*
X166871457Y-99923939D01*
X166939314Y-99890010D01*
X167075028Y-99856082D01*
X167142885Y-99822153D01*
X167176814Y-99788225D01*
X167210742Y-99720367D01*
X167210742Y-99652510D01*
X167176814Y-99584653D01*
X167142885Y-99550725D01*
X167075028Y-99516796D01*
X166905385Y-99516796D01*
X166803600Y-99550725D01*
X166498242Y-99856082D02*
X165955385Y-99856082D01*
X165955385Y-100059653D02*
X166498242Y-100059653D01*
X165650028Y-100195367D02*
X165548242Y-100229296D01*
X165378600Y-100229296D01*
X165310742Y-100195367D01*
X165276814Y-100161439D01*
X165242885Y-100093582D01*
X165242885Y-100025725D01*
X165276814Y-99957867D01*
X165310742Y-99923939D01*
X165378600Y-99890010D01*
X165514314Y-99856082D01*
X165582171Y-99822153D01*
X165616100Y-99788225D01*
X165650028Y-99720367D01*
X165650028Y-99652510D01*
X165616100Y-99584653D01*
X165582171Y-99550725D01*
X165514314Y-99516796D01*
X165344671Y-99516796D01*
X165242885Y-99550725D01*
X165005385Y-99516796D02*
X164835742Y-100229296D01*
X164700028Y-99720367D01*
X164564314Y-100229296D01*
X164394671Y-99516796D01*
X164123242Y-100229296D02*
X164123242Y-99516796D01*
X163953600Y-99516796D01*
X163851814Y-99550725D01*
X163783957Y-99618582D01*
X163750028Y-99686439D01*
X163716100Y-99822153D01*
X163716100Y-99923939D01*
X163750028Y-100059653D01*
X163783957Y-100127510D01*
X163851814Y-100195367D01*
X163953600Y-100229296D01*
X164123242Y-100229296D01*
X163410742Y-100229296D02*
X163410742Y-99516796D01*
X162935742Y-99516796D02*
X162800028Y-99516796D01*
X162732171Y-99550725D01*
X162664314Y-99618582D01*
X162630385Y-99754296D01*
X162630385Y-99991796D01*
X162664314Y-100127510D01*
X162732171Y-100195367D01*
X162800028Y-100229296D01*
X162935742Y-100229296D01*
X163003600Y-100195367D01*
X163071457Y-100127510D01*
X163105385Y-99991796D01*
X163105385Y-99754296D01*
X163071457Y-99618582D01*
X163003600Y-99550725D01*
X162935742Y-99516796D01*
X168428528Y-102752635D02*
X168428528Y-102345492D01*
X167716028Y-102549064D02*
X168428528Y-102549064D01*
X167716028Y-102107992D02*
X168428528Y-102107992D01*
X168428528Y-101938350D01*
X168394600Y-101836564D01*
X168326742Y-101768707D01*
X168258885Y-101734778D01*
X168123171Y-101700850D01*
X168021385Y-101700850D01*
X167885671Y-101734778D01*
X167817814Y-101768707D01*
X167749957Y-101836564D01*
X167716028Y-101938350D01*
X167716028Y-102107992D01*
X168428528Y-101259778D02*
X168428528Y-101124064D01*
X168394600Y-101056207D01*
X168326742Y-100988350D01*
X168191028Y-100954421D01*
X167953528Y-100954421D01*
X167817814Y-100988350D01*
X167749957Y-101056207D01*
X167716028Y-101124064D01*
X167716028Y-101259778D01*
X167749957Y-101327635D01*
X167817814Y-101395492D01*
X167953528Y-101429421D01*
X168191028Y-101429421D01*
X168326742Y-101395492D01*
X168394600Y-101327635D01*
X168428528Y-101259778D01*
D12*
X148561826Y-102841695D02*
X148561826Y-102224195D01*
X148561826Y-102459433D02*
X148503016Y-102430028D01*
X148385397Y-102430028D01*
X148326588Y-102459433D01*
X148297183Y-102488838D01*
X148267778Y-102547647D01*
X148267778Y-102724076D01*
X148297183Y-102782885D01*
X148326588Y-102812290D01*
X148385397Y-102841695D01*
X148503016Y-102841695D01*
X148561826Y-102812290D01*
X147738492Y-102841695D02*
X147738492Y-102518242D01*
X147767897Y-102459433D01*
X147826707Y-102430028D01*
X147944326Y-102430028D01*
X148003135Y-102459433D01*
X147738492Y-102812290D02*
X147797302Y-102841695D01*
X147944326Y-102841695D01*
X148003135Y-102812290D01*
X148032540Y-102753480D01*
X148032540Y-102694671D01*
X148003135Y-102635861D01*
X147944326Y-102606457D01*
X147797302Y-102606457D01*
X147738492Y-102577052D01*
X147473850Y-102812290D02*
X147415040Y-102841695D01*
X147297421Y-102841695D01*
X147238611Y-102812290D01*
X147209207Y-102753480D01*
X147209207Y-102724076D01*
X147238611Y-102665266D01*
X147297421Y-102635861D01*
X147385635Y-102635861D01*
X147444445Y-102606457D01*
X147473850Y-102547647D01*
X147473850Y-102518242D01*
X147444445Y-102459433D01*
X147385635Y-102430028D01*
X147297421Y-102430028D01*
X147238611Y-102459433D01*
X146709326Y-102812290D02*
X146768135Y-102841695D01*
X146885754Y-102841695D01*
X146944564Y-102812290D01*
X146973969Y-102753480D01*
X146973969Y-102518242D01*
X146944564Y-102459433D01*
X146885754Y-102430028D01*
X146768135Y-102430028D01*
X146709326Y-102459433D01*
X146679921Y-102518242D01*
X146679921Y-102577052D01*
X146973969Y-102635861D01*
X146150635Y-102841695D02*
X146150635Y-102224195D01*
X146150635Y-102812290D02*
X146209445Y-102841695D01*
X146327064Y-102841695D01*
X146385873Y-102812290D01*
X146415278Y-102782885D01*
X146444683Y-102724076D01*
X146444683Y-102547647D01*
X146415278Y-102488838D01*
X146385873Y-102459433D01*
X146327064Y-102430028D01*
X146209445Y-102430028D01*
X146150635Y-102459433D01*
X145297897Y-102841695D02*
X145356707Y-102812290D01*
X145386111Y-102782885D01*
X145415516Y-102724076D01*
X145415516Y-102547647D01*
X145386111Y-102488838D01*
X145356707Y-102459433D01*
X145297897Y-102430028D01*
X145209683Y-102430028D01*
X145150873Y-102459433D01*
X145121469Y-102488838D01*
X145092064Y-102547647D01*
X145092064Y-102724076D01*
X145121469Y-102782885D01*
X145150873Y-102812290D01*
X145209683Y-102841695D01*
X145297897Y-102841695D01*
X144827421Y-102430028D02*
X144827421Y-102841695D01*
X144827421Y-102488838D02*
X144798016Y-102459433D01*
X144739207Y-102430028D01*
X144650992Y-102430028D01*
X144592183Y-102459433D01*
X144562778Y-102518242D01*
X144562778Y-102841695D01*
X143798254Y-102841695D02*
X143798254Y-102430028D01*
X143798254Y-102547647D02*
X143768850Y-102488838D01*
X143739445Y-102459433D01*
X143680635Y-102430028D01*
X143621826Y-102430028D01*
X143415992Y-102841695D02*
X143415992Y-102430028D01*
X143415992Y-102224195D02*
X143445397Y-102253600D01*
X143415992Y-102283004D01*
X143386588Y-102253600D01*
X143415992Y-102224195D01*
X143415992Y-102283004D01*
X142857302Y-102812290D02*
X142916111Y-102841695D01*
X143033730Y-102841695D01*
X143092540Y-102812290D01*
X143121945Y-102782885D01*
X143151350Y-102724076D01*
X143151350Y-102547647D01*
X143121945Y-102488838D01*
X143092540Y-102459433D01*
X143033730Y-102430028D01*
X142916111Y-102430028D01*
X142857302Y-102459433D01*
X142592659Y-102841695D02*
X142592659Y-102224195D01*
X142328016Y-102841695D02*
X142328016Y-102518242D01*
X142357421Y-102459433D01*
X142416230Y-102430028D01*
X142504445Y-102430028D01*
X142563254Y-102459433D01*
X142592659Y-102488838D01*
X141769326Y-102841695D02*
X141769326Y-102518242D01*
X141798730Y-102459433D01*
X141857540Y-102430028D01*
X141975159Y-102430028D01*
X142033969Y-102459433D01*
X141769326Y-102812290D02*
X141828135Y-102841695D01*
X141975159Y-102841695D01*
X142033969Y-102812290D01*
X142063373Y-102753480D01*
X142063373Y-102694671D01*
X142033969Y-102635861D01*
X141975159Y-102606457D01*
X141828135Y-102606457D01*
X141769326Y-102577052D01*
X141475278Y-102841695D02*
X141475278Y-102430028D01*
X141475278Y-102547647D02*
X141445873Y-102488838D01*
X141416469Y-102459433D01*
X141357659Y-102430028D01*
X141298850Y-102430028D01*
X140828373Y-102841695D02*
X140828373Y-102224195D01*
X140828373Y-102812290D02*
X140887183Y-102841695D01*
X141004802Y-102841695D01*
X141063611Y-102812290D01*
X141093016Y-102782885D01*
X141122421Y-102724076D01*
X141122421Y-102547647D01*
X141093016Y-102488838D01*
X141063611Y-102459433D01*
X141004802Y-102430028D01*
X140887183Y-102430028D01*
X140828373Y-102459433D01*
X140299088Y-102812290D02*
X140357897Y-102841695D01*
X140475516Y-102841695D01*
X140534326Y-102812290D01*
X140563730Y-102753480D01*
X140563730Y-102518242D01*
X140534326Y-102459433D01*
X140475516Y-102430028D01*
X140357897Y-102430028D01*
X140299088Y-102459433D01*
X140269683Y-102518242D01*
X140269683Y-102577052D01*
X140563730Y-102635861D01*
X139916826Y-102841695D02*
X139975635Y-102812290D01*
X140005040Y-102782885D01*
X140034445Y-102724076D01*
X140034445Y-102547647D01*
X140005040Y-102488838D01*
X139975635Y-102459433D01*
X139916826Y-102430028D01*
X139828611Y-102430028D01*
X139769802Y-102459433D01*
X139740397Y-102488838D01*
X139710992Y-102547647D01*
X139710992Y-102724076D01*
X139740397Y-102782885D01*
X139769802Y-102812290D01*
X139828611Y-102841695D01*
X139916826Y-102841695D01*
X139446350Y-102841695D02*
X139446350Y-102430028D01*
X139446350Y-102224195D02*
X139475754Y-102253600D01*
X139446350Y-102283004D01*
X139416945Y-102253600D01*
X139446350Y-102224195D01*
X139446350Y-102283004D01*
X139152302Y-102430028D02*
X139152302Y-102841695D01*
X139152302Y-102488838D02*
X139122897Y-102459433D01*
X139064088Y-102430028D01*
X138975873Y-102430028D01*
X138917064Y-102459433D01*
X138887659Y-102518242D01*
X138887659Y-102841695D01*
X138623016Y-102812290D02*
X138564207Y-102841695D01*
X138446588Y-102841695D01*
X138387778Y-102812290D01*
X138358373Y-102753480D01*
X138358373Y-102724076D01*
X138387778Y-102665266D01*
X138446588Y-102635861D01*
X138534802Y-102635861D01*
X138593611Y-102606457D01*
X138623016Y-102547647D01*
X138623016Y-102518242D01*
X138593611Y-102459433D01*
X138534802Y-102430028D01*
X138446588Y-102430028D01*
X138387778Y-102459433D01*
X137358611Y-102841695D02*
X137358611Y-102224195D01*
X137358611Y-102812290D02*
X137417421Y-102841695D01*
X137535040Y-102841695D01*
X137593850Y-102812290D01*
X137623254Y-102782885D01*
X137652659Y-102724076D01*
X137652659Y-102547647D01*
X137623254Y-102488838D01*
X137593850Y-102459433D01*
X137535040Y-102430028D01*
X137417421Y-102430028D01*
X137358611Y-102459433D01*
X136829326Y-102812290D02*
X136888135Y-102841695D01*
X137005754Y-102841695D01*
X137064564Y-102812290D01*
X137093969Y-102753480D01*
X137093969Y-102518242D01*
X137064564Y-102459433D01*
X137005754Y-102430028D01*
X136888135Y-102430028D01*
X136829326Y-102459433D01*
X136799921Y-102518242D01*
X136799921Y-102577052D01*
X137093969Y-102635861D01*
X136564683Y-102812290D02*
X136505873Y-102841695D01*
X136388254Y-102841695D01*
X136329445Y-102812290D01*
X136300040Y-102753480D01*
X136300040Y-102724076D01*
X136329445Y-102665266D01*
X136388254Y-102635861D01*
X136476469Y-102635861D01*
X136535278Y-102606457D01*
X136564683Y-102547647D01*
X136564683Y-102518242D01*
X136535278Y-102459433D01*
X136476469Y-102430028D01*
X136388254Y-102430028D01*
X136329445Y-102459433D01*
X136035397Y-102841695D02*
X136035397Y-102430028D01*
X136035397Y-102224195D02*
X136064802Y-102253600D01*
X136035397Y-102283004D01*
X136005992Y-102253600D01*
X136035397Y-102224195D01*
X136035397Y-102283004D01*
X135476707Y-102430028D02*
X135476707Y-102929909D01*
X135506111Y-102988719D01*
X135535516Y-103018123D01*
X135594326Y-103047528D01*
X135682540Y-103047528D01*
X135741350Y-103018123D01*
X135476707Y-102812290D02*
X135535516Y-102841695D01*
X135653135Y-102841695D01*
X135711945Y-102812290D01*
X135741350Y-102782885D01*
X135770754Y-102724076D01*
X135770754Y-102547647D01*
X135741350Y-102488838D01*
X135711945Y-102459433D01*
X135653135Y-102430028D01*
X135535516Y-102430028D01*
X135476707Y-102459433D01*
X135182659Y-102430028D02*
X135182659Y-102841695D01*
X135182659Y-102488838D02*
X135153254Y-102459433D01*
X135094445Y-102430028D01*
X135006230Y-102430028D01*
X134947421Y-102459433D01*
X134918016Y-102518242D01*
X134918016Y-102841695D01*
X148561826Y-103835870D02*
X148561826Y-103218370D01*
X148297183Y-103835870D02*
X148297183Y-103512417D01*
X148326588Y-103453608D01*
X148385397Y-103424203D01*
X148473611Y-103424203D01*
X148532421Y-103453608D01*
X148561826Y-103483013D01*
X147767897Y-103806465D02*
X147826707Y-103835870D01*
X147944326Y-103835870D01*
X148003135Y-103806465D01*
X148032540Y-103747655D01*
X148032540Y-103512417D01*
X148003135Y-103453608D01*
X147944326Y-103424203D01*
X147826707Y-103424203D01*
X147767897Y-103453608D01*
X147738492Y-103512417D01*
X147738492Y-103571227D01*
X148032540Y-103630036D01*
X147209207Y-103835870D02*
X147209207Y-103512417D01*
X147238611Y-103453608D01*
X147297421Y-103424203D01*
X147415040Y-103424203D01*
X147473850Y-103453608D01*
X147209207Y-103806465D02*
X147268016Y-103835870D01*
X147415040Y-103835870D01*
X147473850Y-103806465D01*
X147503254Y-103747655D01*
X147503254Y-103688846D01*
X147473850Y-103630036D01*
X147415040Y-103600632D01*
X147268016Y-103600632D01*
X147209207Y-103571227D01*
X146650516Y-103835870D02*
X146650516Y-103218370D01*
X146650516Y-103806465D02*
X146709326Y-103835870D01*
X146826945Y-103835870D01*
X146885754Y-103806465D01*
X146915159Y-103777060D01*
X146944564Y-103718251D01*
X146944564Y-103541822D01*
X146915159Y-103483013D01*
X146885754Y-103453608D01*
X146826945Y-103424203D01*
X146709326Y-103424203D01*
X146650516Y-103453608D01*
X146121230Y-103806465D02*
X146180040Y-103835870D01*
X146297659Y-103835870D01*
X146356469Y-103806465D01*
X146385873Y-103747655D01*
X146385873Y-103512417D01*
X146356469Y-103453608D01*
X146297659Y-103424203D01*
X146180040Y-103424203D01*
X146121230Y-103453608D01*
X146091826Y-103512417D01*
X146091826Y-103571227D01*
X146385873Y-103630036D01*
X145827183Y-103835870D02*
X145827183Y-103424203D01*
X145827183Y-103541822D02*
X145797778Y-103483013D01*
X145768373Y-103453608D01*
X145709564Y-103424203D01*
X145650754Y-103424203D01*
X144974445Y-103424203D02*
X144974445Y-104041703D01*
X144974445Y-103453608D02*
X144915635Y-103424203D01*
X144798016Y-103424203D01*
X144739207Y-103453608D01*
X144709802Y-103483013D01*
X144680397Y-103541822D01*
X144680397Y-103718251D01*
X144709802Y-103777060D01*
X144739207Y-103806465D01*
X144798016Y-103835870D01*
X144915635Y-103835870D01*
X144974445Y-103806465D01*
X144415754Y-103835870D02*
X144415754Y-103424203D01*
X144415754Y-103218370D02*
X144445159Y-103247775D01*
X144415754Y-103277179D01*
X144386350Y-103247775D01*
X144415754Y-103218370D01*
X144415754Y-103277179D01*
X144121707Y-103424203D02*
X144121707Y-103835870D01*
X144121707Y-103483013D02*
X144092302Y-103453608D01*
X144033492Y-103424203D01*
X143945278Y-103424203D01*
X143886469Y-103453608D01*
X143857064Y-103512417D01*
X143857064Y-103835870D01*
X143563016Y-103424203D02*
X143563016Y-103835870D01*
X143563016Y-103483013D02*
X143533611Y-103453608D01*
X143474802Y-103424203D01*
X143386588Y-103424203D01*
X143327778Y-103453608D01*
X143298373Y-103512417D01*
X143298373Y-103835870D01*
X143004326Y-103835870D02*
X143004326Y-103424203D01*
X143004326Y-103218370D02*
X143033730Y-103247775D01*
X143004326Y-103277179D01*
X142974921Y-103247775D01*
X143004326Y-103218370D01*
X143004326Y-103277179D01*
X142710278Y-103424203D02*
X142710278Y-103835870D01*
X142710278Y-103483013D02*
X142680873Y-103453608D01*
X142622064Y-103424203D01*
X142533850Y-103424203D01*
X142475040Y-103453608D01*
X142445635Y-103512417D01*
X142445635Y-103835870D01*
X141886945Y-103424203D02*
X141886945Y-103924084D01*
X141916350Y-103982894D01*
X141945754Y-104012298D01*
X142004564Y-104041703D01*
X142092778Y-104041703D01*
X142151588Y-104012298D01*
X141886945Y-103806465D02*
X141945754Y-103835870D01*
X142063373Y-103835870D01*
X142122183Y-103806465D01*
X142151588Y-103777060D01*
X142180992Y-103718251D01*
X142180992Y-103541822D01*
X142151588Y-103483013D01*
X142122183Y-103453608D01*
X142063373Y-103424203D01*
X141945754Y-103424203D01*
X141886945Y-103453608D01*
X141122421Y-103835870D02*
X141122421Y-103218370D01*
X141122421Y-103453608D02*
X141063611Y-103424203D01*
X140945992Y-103424203D01*
X140887183Y-103453608D01*
X140857778Y-103483013D01*
X140828373Y-103541822D01*
X140828373Y-103718251D01*
X140857778Y-103777060D01*
X140887183Y-103806465D01*
X140945992Y-103835870D01*
X141063611Y-103835870D01*
X141122421Y-103806465D01*
X140622540Y-103424203D02*
X140475516Y-103835870D01*
X140328492Y-103424203D02*
X140475516Y-103835870D01*
X140534326Y-103982894D01*
X140563730Y-104012298D01*
X140622540Y-104041703D01*
X139622778Y-103835870D02*
X139622778Y-103424203D01*
X139622778Y-103483013D02*
X139593373Y-103453608D01*
X139534564Y-103424203D01*
X139446350Y-103424203D01*
X139387540Y-103453608D01*
X139358135Y-103512417D01*
X139358135Y-103835870D01*
X139358135Y-103512417D02*
X139328730Y-103453608D01*
X139269921Y-103424203D01*
X139181707Y-103424203D01*
X139122897Y-103453608D01*
X139093492Y-103512417D01*
X139093492Y-103835870D01*
X138799445Y-103835870D02*
X138799445Y-103424203D01*
X138799445Y-103483013D02*
X138770040Y-103453608D01*
X138711230Y-103424203D01*
X138623016Y-103424203D01*
X138564207Y-103453608D01*
X138534802Y-103512417D01*
X138534802Y-103835870D01*
X138534802Y-103512417D02*
X138505397Y-103453608D01*
X138446588Y-103424203D01*
X138358373Y-103424203D01*
X138299564Y-103453608D01*
X138270159Y-103512417D01*
X138270159Y-103835870D01*
X138034921Y-103424203D02*
X137887897Y-103835870D01*
X137740873Y-103424203D01*
X137505635Y-103835870D02*
X137505635Y-103424203D01*
X137505635Y-103218370D02*
X137535040Y-103247775D01*
X137505635Y-103277179D01*
X137476230Y-103247775D01*
X137505635Y-103218370D01*
X137505635Y-103277179D01*
X137240992Y-103806465D02*
X137182183Y-103835870D01*
X137064564Y-103835870D01*
X137005754Y-103806465D01*
X136976350Y-103747655D01*
X136976350Y-103718251D01*
X137005754Y-103659441D01*
X137064564Y-103630036D01*
X137152778Y-103630036D01*
X137211588Y-103600632D01*
X137240992Y-103541822D01*
X137240992Y-103512417D01*
X137211588Y-103453608D01*
X137152778Y-103424203D01*
X137064564Y-103424203D01*
X137005754Y-103453608D01*
X136447064Y-103424203D02*
X136447064Y-103835870D01*
X136711707Y-103424203D02*
X136711707Y-103747655D01*
X136682302Y-103806465D01*
X136623492Y-103835870D01*
X136535278Y-103835870D01*
X136476469Y-103806465D01*
X136447064Y-103777060D01*
X135888373Y-103835870D02*
X135888373Y-103512417D01*
X135917778Y-103453608D01*
X135976588Y-103424203D01*
X136094207Y-103424203D01*
X136153016Y-103453608D01*
X135888373Y-103806465D02*
X135947183Y-103835870D01*
X136094207Y-103835870D01*
X136153016Y-103806465D01*
X136182421Y-103747655D01*
X136182421Y-103688846D01*
X136153016Y-103630036D01*
X136094207Y-103600632D01*
X135947183Y-103600632D01*
X135888373Y-103571227D01*
X135506111Y-103835870D02*
X135564921Y-103806465D01*
X135594326Y-103747655D01*
X135594326Y-103218370D01*
X148650040Y-104418378D02*
X148414802Y-104418378D01*
X148561826Y-104830045D02*
X148561826Y-104300759D01*
X148532421Y-104241950D01*
X148473611Y-104212545D01*
X148414802Y-104212545D01*
X148208969Y-104830045D02*
X148208969Y-104418378D01*
X148208969Y-104212545D02*
X148238373Y-104241950D01*
X148208969Y-104271354D01*
X148179564Y-104241950D01*
X148208969Y-104212545D01*
X148208969Y-104271354D01*
X147914921Y-104830045D02*
X147914921Y-104418378D01*
X147914921Y-104535997D02*
X147885516Y-104477188D01*
X147856111Y-104447783D01*
X147797302Y-104418378D01*
X147738492Y-104418378D01*
X147532659Y-104830045D02*
X147532659Y-104418378D01*
X147532659Y-104477188D02*
X147503254Y-104447783D01*
X147444445Y-104418378D01*
X147356230Y-104418378D01*
X147297421Y-104447783D01*
X147268016Y-104506592D01*
X147268016Y-104830045D01*
X147268016Y-104506592D02*
X147238611Y-104447783D01*
X147179802Y-104418378D01*
X147091588Y-104418378D01*
X147032778Y-104447783D01*
X147003373Y-104506592D01*
X147003373Y-104830045D01*
X146768135Y-104418378D02*
X146650516Y-104830045D01*
X146532897Y-104535997D01*
X146415278Y-104830045D01*
X146297659Y-104418378D01*
X145797778Y-104830045D02*
X145797778Y-104506592D01*
X145827183Y-104447783D01*
X145885992Y-104418378D01*
X146003611Y-104418378D01*
X146062421Y-104447783D01*
X145797778Y-104800640D02*
X145856588Y-104830045D01*
X146003611Y-104830045D01*
X146062421Y-104800640D01*
X146091826Y-104741830D01*
X146091826Y-104683021D01*
X146062421Y-104624211D01*
X146003611Y-104594807D01*
X145856588Y-104594807D01*
X145797778Y-104565402D01*
X145503730Y-104830045D02*
X145503730Y-104418378D01*
X145503730Y-104535997D02*
X145474326Y-104477188D01*
X145444921Y-104447783D01*
X145386111Y-104418378D01*
X145327302Y-104418378D01*
X144886230Y-104800640D02*
X144945040Y-104830045D01*
X145062659Y-104830045D01*
X145121469Y-104800640D01*
X145150873Y-104741830D01*
X145150873Y-104506592D01*
X145121469Y-104447783D01*
X145062659Y-104418378D01*
X144945040Y-104418378D01*
X144886230Y-104447783D01*
X144856826Y-104506592D01*
X144856826Y-104565402D01*
X145150873Y-104624211D01*
X143857064Y-104800640D02*
X143915873Y-104830045D01*
X144033492Y-104830045D01*
X144092302Y-104800640D01*
X144121707Y-104771235D01*
X144151111Y-104712426D01*
X144151111Y-104535997D01*
X144121707Y-104477188D01*
X144092302Y-104447783D01*
X144033492Y-104418378D01*
X143915873Y-104418378D01*
X143857064Y-104447783D01*
X143504207Y-104830045D02*
X143563016Y-104800640D01*
X143592421Y-104771235D01*
X143621826Y-104712426D01*
X143621826Y-104535997D01*
X143592421Y-104477188D01*
X143563016Y-104447783D01*
X143504207Y-104418378D01*
X143415992Y-104418378D01*
X143357183Y-104447783D01*
X143327778Y-104477188D01*
X143298373Y-104535997D01*
X143298373Y-104712426D01*
X143327778Y-104771235D01*
X143357183Y-104800640D01*
X143415992Y-104830045D01*
X143504207Y-104830045D01*
X143033730Y-104830045D02*
X143033730Y-104418378D01*
X143033730Y-104477188D02*
X143004326Y-104447783D01*
X142945516Y-104418378D01*
X142857302Y-104418378D01*
X142798492Y-104447783D01*
X142769088Y-104506592D01*
X142769088Y-104830045D01*
X142769088Y-104506592D02*
X142739683Y-104447783D01*
X142680873Y-104418378D01*
X142592659Y-104418378D01*
X142533850Y-104447783D01*
X142504445Y-104506592D01*
X142504445Y-104830045D01*
X142210397Y-104418378D02*
X142210397Y-105035878D01*
X142210397Y-104447783D02*
X142151588Y-104418378D01*
X142033969Y-104418378D01*
X141975159Y-104447783D01*
X141945754Y-104477188D01*
X141916350Y-104535997D01*
X141916350Y-104712426D01*
X141945754Y-104771235D01*
X141975159Y-104800640D01*
X142033969Y-104830045D01*
X142151588Y-104830045D01*
X142210397Y-104800640D01*
X141387064Y-104830045D02*
X141387064Y-104506592D01*
X141416469Y-104447783D01*
X141475278Y-104418378D01*
X141592897Y-104418378D01*
X141651707Y-104447783D01*
X141387064Y-104800640D02*
X141445873Y-104830045D01*
X141592897Y-104830045D01*
X141651707Y-104800640D01*
X141681111Y-104741830D01*
X141681111Y-104683021D01*
X141651707Y-104624211D01*
X141592897Y-104594807D01*
X141445873Y-104594807D01*
X141387064Y-104565402D01*
X141181230Y-104418378D02*
X140945992Y-104418378D01*
X141093016Y-104212545D02*
X141093016Y-104741830D01*
X141063611Y-104800640D01*
X141004802Y-104830045D01*
X140945992Y-104830045D01*
X140740159Y-104830045D02*
X140740159Y-104418378D01*
X140740159Y-104212545D02*
X140769564Y-104241950D01*
X140740159Y-104271354D01*
X140710754Y-104241950D01*
X140740159Y-104212545D01*
X140740159Y-104271354D01*
X140446111Y-104830045D02*
X140446111Y-104212545D01*
X140446111Y-104447783D02*
X140387302Y-104418378D01*
X140269683Y-104418378D01*
X140210873Y-104447783D01*
X140181469Y-104477188D01*
X140152064Y-104535997D01*
X140152064Y-104712426D01*
X140181469Y-104771235D01*
X140210873Y-104800640D01*
X140269683Y-104830045D01*
X140387302Y-104830045D01*
X140446111Y-104800640D01*
X139799207Y-104830045D02*
X139858016Y-104800640D01*
X139887421Y-104741830D01*
X139887421Y-104212545D01*
X139328730Y-104800640D02*
X139387540Y-104830045D01*
X139505159Y-104830045D01*
X139563969Y-104800640D01*
X139593373Y-104741830D01*
X139593373Y-104506592D01*
X139563969Y-104447783D01*
X139505159Y-104418378D01*
X139387540Y-104418378D01*
X139328730Y-104447783D01*
X139299326Y-104506592D01*
X139299326Y-104565402D01*
X139593373Y-104624211D01*
X138652421Y-104418378D02*
X138417183Y-104418378D01*
X138564207Y-104212545D02*
X138564207Y-104741830D01*
X138534802Y-104800640D01*
X138475992Y-104830045D01*
X138417183Y-104830045D01*
X138123135Y-104830045D02*
X138181945Y-104800640D01*
X138211350Y-104771235D01*
X138240754Y-104712426D01*
X138240754Y-104535997D01*
X138211350Y-104477188D01*
X138181945Y-104447783D01*
X138123135Y-104418378D01*
X138034921Y-104418378D01*
X137976111Y-104447783D01*
X137946707Y-104477188D01*
X137917302Y-104535997D01*
X137917302Y-104712426D01*
X137946707Y-104771235D01*
X137976111Y-104800640D01*
X138034921Y-104830045D01*
X138123135Y-104830045D01*
X148561826Y-105824220D02*
X148561826Y-105206720D01*
X148561826Y-105441958D02*
X148503016Y-105412553D01*
X148385397Y-105412553D01*
X148326588Y-105441958D01*
X148297183Y-105471363D01*
X148267778Y-105530172D01*
X148267778Y-105706601D01*
X148297183Y-105765410D01*
X148326588Y-105794815D01*
X148385397Y-105824220D01*
X148503016Y-105824220D01*
X148561826Y-105794815D01*
X147914921Y-105824220D02*
X147973730Y-105794815D01*
X148003135Y-105736005D01*
X148003135Y-105206720D01*
X147415040Y-105824220D02*
X147415040Y-105500767D01*
X147444445Y-105441958D01*
X147503254Y-105412553D01*
X147620873Y-105412553D01*
X147679683Y-105441958D01*
X147415040Y-105794815D02*
X147473850Y-105824220D01*
X147620873Y-105824220D01*
X147679683Y-105794815D01*
X147709088Y-105736005D01*
X147709088Y-105677196D01*
X147679683Y-105618386D01*
X147620873Y-105588982D01*
X147473850Y-105588982D01*
X147415040Y-105559577D01*
X146856350Y-105794815D02*
X146915159Y-105824220D01*
X147032778Y-105824220D01*
X147091588Y-105794815D01*
X147120992Y-105765410D01*
X147150397Y-105706601D01*
X147150397Y-105530172D01*
X147120992Y-105471363D01*
X147091588Y-105441958D01*
X147032778Y-105412553D01*
X146915159Y-105412553D01*
X146856350Y-105441958D01*
X146591707Y-105824220D02*
X146591707Y-105206720D01*
X146532897Y-105588982D02*
X146356469Y-105824220D01*
X146356469Y-105412553D02*
X146591707Y-105647791D01*
X146091826Y-105824220D02*
X146091826Y-105412553D01*
X146091826Y-105471363D02*
X146062421Y-105441958D01*
X146003611Y-105412553D01*
X145915397Y-105412553D01*
X145856588Y-105441958D01*
X145827183Y-105500767D01*
X145827183Y-105824220D01*
X145827183Y-105500767D02*
X145797778Y-105441958D01*
X145738969Y-105412553D01*
X145650754Y-105412553D01*
X145591945Y-105441958D01*
X145562540Y-105500767D01*
X145562540Y-105824220D01*
X145003850Y-105824220D02*
X145003850Y-105500767D01*
X145033254Y-105441958D01*
X145092064Y-105412553D01*
X145209683Y-105412553D01*
X145268492Y-105441958D01*
X145003850Y-105794815D02*
X145062659Y-105824220D01*
X145209683Y-105824220D01*
X145268492Y-105794815D01*
X145297897Y-105736005D01*
X145297897Y-105677196D01*
X145268492Y-105618386D01*
X145209683Y-105588982D01*
X145062659Y-105588982D01*
X145003850Y-105559577D01*
X144445159Y-105412553D02*
X144445159Y-105912434D01*
X144474564Y-105971244D01*
X144503969Y-106000648D01*
X144562778Y-106030053D01*
X144650992Y-106030053D01*
X144709802Y-106000648D01*
X144445159Y-105794815D02*
X144503969Y-105824220D01*
X144621588Y-105824220D01*
X144680397Y-105794815D01*
X144709802Y-105765410D01*
X144739207Y-105706601D01*
X144739207Y-105530172D01*
X144709802Y-105471363D01*
X144680397Y-105441958D01*
X144621588Y-105412553D01*
X144503969Y-105412553D01*
X144445159Y-105441958D01*
X144151111Y-105824220D02*
X144151111Y-105412553D01*
X144151111Y-105206720D02*
X144180516Y-105236125D01*
X144151111Y-105265529D01*
X144121707Y-105236125D01*
X144151111Y-105206720D01*
X144151111Y-105265529D01*
X143592421Y-105794815D02*
X143651230Y-105824220D01*
X143768850Y-105824220D01*
X143827659Y-105794815D01*
X143857064Y-105765410D01*
X143886469Y-105706601D01*
X143886469Y-105530172D01*
X143857064Y-105471363D01*
X143827659Y-105441958D01*
X143768850Y-105412553D01*
X143651230Y-105412553D01*
X143592421Y-105441958D01*
X142857302Y-105824220D02*
X142857302Y-105412553D01*
X142857302Y-105471363D02*
X142827897Y-105441958D01*
X142769088Y-105412553D01*
X142680873Y-105412553D01*
X142622064Y-105441958D01*
X142592659Y-105500767D01*
X142592659Y-105824220D01*
X142592659Y-105500767D02*
X142563254Y-105441958D01*
X142504445Y-105412553D01*
X142416230Y-105412553D01*
X142357421Y-105441958D01*
X142328016Y-105500767D01*
X142328016Y-105824220D01*
X142033969Y-105824220D02*
X142033969Y-105412553D01*
X142033969Y-105206720D02*
X142063373Y-105236125D01*
X142033969Y-105265529D01*
X142004564Y-105236125D01*
X142033969Y-105206720D01*
X142033969Y-105265529D01*
X141739921Y-105412553D02*
X141739921Y-105824220D01*
X141739921Y-105471363D02*
X141710516Y-105441958D01*
X141651707Y-105412553D01*
X141563492Y-105412553D01*
X141504683Y-105441958D01*
X141475278Y-105500767D01*
X141475278Y-105824220D01*
X141181230Y-105824220D02*
X141181230Y-105412553D01*
X141181230Y-105206720D02*
X141210635Y-105236125D01*
X141181230Y-105265529D01*
X141151826Y-105236125D01*
X141181230Y-105206720D01*
X141181230Y-105265529D01*
X154871695Y-102614135D02*
X154871695Y-102966992D01*
X155489195Y-102790564D02*
X154871695Y-102790564D01*
X155489195Y-103525683D02*
X155195147Y-103319850D01*
X155489195Y-103172826D02*
X154871695Y-103172826D01*
X154871695Y-103408064D01*
X154901100Y-103466873D01*
X154930504Y-103496278D01*
X154989314Y-103525683D01*
X155077528Y-103525683D01*
X155136338Y-103496278D01*
X155165742Y-103466873D01*
X155195147Y-103408064D01*
X155195147Y-103172826D01*
X155459790Y-103760921D02*
X155489195Y-103849135D01*
X155489195Y-103996159D01*
X155459790Y-104054969D01*
X155430385Y-104084373D01*
X155371576Y-104113778D01*
X155312766Y-104113778D01*
X155253957Y-104084373D01*
X155224552Y-104054969D01*
X155195147Y-103996159D01*
X155165742Y-103878540D01*
X155136338Y-103819730D01*
X155106933Y-103790326D01*
X155048123Y-103760921D01*
X154989314Y-103760921D01*
X154930504Y-103790326D01*
X154901100Y-103819730D01*
X154871695Y-103878540D01*
X154871695Y-104025564D01*
X154901100Y-104113778D01*
X154871695Y-104290207D02*
X154871695Y-104643064D01*
X155489195Y-104466635D02*
X154871695Y-104466635D01*
X156071703Y-101335028D02*
X156483370Y-101335028D01*
X156071703Y-101070385D02*
X156395155Y-101070385D01*
X156453965Y-101099790D01*
X156483370Y-101158600D01*
X156483370Y-101246814D01*
X156453965Y-101305623D01*
X156424560Y-101335028D01*
X156071703Y-101629076D02*
X156483370Y-101629076D01*
X156130513Y-101629076D02*
X156101108Y-101658480D01*
X156071703Y-101717290D01*
X156071703Y-101805504D01*
X156101108Y-101864314D01*
X156159917Y-101893719D01*
X156483370Y-101893719D01*
X156071703Y-102452409D02*
X156483370Y-102452409D01*
X156071703Y-102187766D02*
X156395155Y-102187766D01*
X156453965Y-102217171D01*
X156483370Y-102275980D01*
X156483370Y-102364195D01*
X156453965Y-102423004D01*
X156424560Y-102452409D01*
X156453965Y-102717052D02*
X156483370Y-102775861D01*
X156483370Y-102893480D01*
X156453965Y-102952290D01*
X156395155Y-102981695D01*
X156365751Y-102981695D01*
X156306941Y-102952290D01*
X156277536Y-102893480D01*
X156277536Y-102805266D01*
X156248132Y-102746457D01*
X156189322Y-102717052D01*
X156159917Y-102717052D01*
X156101108Y-102746457D01*
X156071703Y-102805266D01*
X156071703Y-102893480D01*
X156101108Y-102952290D01*
X156453965Y-103481576D02*
X156483370Y-103422766D01*
X156483370Y-103305147D01*
X156453965Y-103246338D01*
X156395155Y-103216933D01*
X156159917Y-103216933D01*
X156101108Y-103246338D01*
X156071703Y-103305147D01*
X156071703Y-103422766D01*
X156101108Y-103481576D01*
X156159917Y-103510980D01*
X156218727Y-103510980D01*
X156277536Y-103216933D01*
X156483370Y-104040266D02*
X155865870Y-104040266D01*
X156453965Y-104040266D02*
X156483370Y-103981457D01*
X156483370Y-103863838D01*
X156453965Y-103805028D01*
X156424560Y-103775623D01*
X156365751Y-103746219D01*
X156189322Y-103746219D01*
X156130513Y-103775623D01*
X156101108Y-103805028D01*
X156071703Y-103863838D01*
X156071703Y-103981457D01*
X156101108Y-104040266D01*
X156483370Y-105069433D02*
X156159917Y-105069433D01*
X156101108Y-105040028D01*
X156071703Y-104981219D01*
X156071703Y-104863600D01*
X156101108Y-104804790D01*
X156453965Y-105069433D02*
X156483370Y-105010623D01*
X156483370Y-104863600D01*
X156453965Y-104804790D01*
X156395155Y-104775385D01*
X156336346Y-104775385D01*
X156277536Y-104804790D01*
X156248132Y-104863600D01*
X156248132Y-105010623D01*
X156218727Y-105069433D01*
X156071703Y-105363480D02*
X156483370Y-105363480D01*
X156130513Y-105363480D02*
X156101108Y-105392885D01*
X156071703Y-105451695D01*
X156071703Y-105539909D01*
X156101108Y-105598719D01*
X156159917Y-105628123D01*
X156483370Y-105628123D01*
X156483370Y-106186814D02*
X155865870Y-106186814D01*
X156453965Y-106186814D02*
X156483370Y-106128004D01*
X156483370Y-106010385D01*
X156453965Y-105951576D01*
X156424560Y-105922171D01*
X156365751Y-105892766D01*
X156189322Y-105892766D01*
X156130513Y-105922171D01*
X156101108Y-105951576D01*
X156071703Y-106010385D01*
X156071703Y-106128004D01*
X156101108Y-106186814D01*
X157065878Y-100482290D02*
X157683378Y-100482290D01*
X157095283Y-100482290D02*
X157065878Y-100541100D01*
X157065878Y-100658719D01*
X157095283Y-100717528D01*
X157124688Y-100746933D01*
X157183497Y-100776338D01*
X157359926Y-100776338D01*
X157418735Y-100746933D01*
X157448140Y-100717528D01*
X157477545Y-100658719D01*
X157477545Y-100541100D01*
X157448140Y-100482290D01*
X157065878Y-101305623D02*
X157477545Y-101305623D01*
X157065878Y-101040980D02*
X157389330Y-101040980D01*
X157448140Y-101070385D01*
X157477545Y-101129195D01*
X157477545Y-101217409D01*
X157448140Y-101276219D01*
X157418735Y-101305623D01*
X157477545Y-101687885D02*
X157448140Y-101629076D01*
X157389330Y-101599671D01*
X156860045Y-101599671D01*
X157477545Y-102011338D02*
X157448140Y-101952528D01*
X157389330Y-101923123D01*
X156860045Y-101923123D01*
X157448140Y-102481814D02*
X157477545Y-102423004D01*
X157477545Y-102305385D01*
X157448140Y-102246576D01*
X157389330Y-102217171D01*
X157154092Y-102217171D01*
X157095283Y-102246576D01*
X157065878Y-102305385D01*
X157065878Y-102423004D01*
X157095283Y-102481814D01*
X157154092Y-102511219D01*
X157212902Y-102511219D01*
X157271711Y-102217171D01*
X157477545Y-103040504D02*
X156860045Y-103040504D01*
X157448140Y-103040504D02*
X157477545Y-102981695D01*
X157477545Y-102864076D01*
X157448140Y-102805266D01*
X157418735Y-102775861D01*
X157359926Y-102746457D01*
X157183497Y-102746457D01*
X157124688Y-102775861D01*
X157095283Y-102805266D01*
X157065878Y-102864076D01*
X157065878Y-102981695D01*
X157095283Y-103040504D01*
X157065878Y-103716814D02*
X157065878Y-103952052D01*
X156860045Y-103805028D02*
X157389330Y-103805028D01*
X157448140Y-103834433D01*
X157477545Y-103893242D01*
X157477545Y-103952052D01*
X157477545Y-104246100D02*
X157448140Y-104187290D01*
X157418735Y-104157885D01*
X157359926Y-104128480D01*
X157183497Y-104128480D01*
X157124688Y-104157885D01*
X157095283Y-104187290D01*
X157065878Y-104246100D01*
X157065878Y-104334314D01*
X157095283Y-104393123D01*
X157124688Y-104422528D01*
X157183497Y-104451933D01*
X157359926Y-104451933D01*
X157418735Y-104422528D01*
X157448140Y-104393123D01*
X157477545Y-104334314D01*
X157477545Y-104246100D01*
X156889450Y-105510504D02*
X156860045Y-105451695D01*
X156860045Y-105363480D01*
X156889450Y-105275266D01*
X156948259Y-105216457D01*
X157007069Y-105187052D01*
X157124688Y-105157647D01*
X157212902Y-105157647D01*
X157330521Y-105187052D01*
X157389330Y-105216457D01*
X157448140Y-105275266D01*
X157477545Y-105363480D01*
X157477545Y-105422290D01*
X157448140Y-105510504D01*
X157418735Y-105539909D01*
X157212902Y-105539909D01*
X157212902Y-105422290D01*
X157477545Y-105804552D02*
X156860045Y-105804552D01*
X157477545Y-106157409D01*
X156860045Y-106157409D01*
X157477545Y-106451457D02*
X156860045Y-106451457D01*
X156860045Y-106598480D01*
X156889450Y-106686695D01*
X156948259Y-106745504D01*
X157007069Y-106774909D01*
X157124688Y-106804314D01*
X157212902Y-106804314D01*
X157330521Y-106774909D01*
X157389330Y-106745504D01*
X157448140Y-106686695D01*
X157477545Y-106598480D01*
X157477545Y-106451457D01*
D13*
%TO.C,JP2*%
X157960621Y-110872857D02*
X157960621Y-111280000D01*
X157987764Y-111361428D01*
X158042050Y-111415714D01*
X158123478Y-111442857D01*
X158177764Y-111442857D01*
X157689192Y-111442857D02*
X157689192Y-110872857D01*
X157472050Y-110872857D01*
X157417764Y-110900000D01*
X157390621Y-110927142D01*
X157363478Y-110981428D01*
X157363478Y-111062857D01*
X157390621Y-111117142D01*
X157417764Y-111144285D01*
X157472050Y-111171428D01*
X157689192Y-111171428D01*
X157146335Y-110927142D02*
X157119192Y-110900000D01*
X157064907Y-110872857D01*
X156929192Y-110872857D01*
X156874907Y-110900000D01*
X156847764Y-110927142D01*
X156820621Y-110981428D01*
X156820621Y-111035714D01*
X156847764Y-111117142D01*
X157173478Y-111442857D01*
X156820621Y-111442857D01*
D14*
X157041100Y-109883600D02*
X159581100Y-109883600D01*
D15*
X148468600Y-109883600D02*
X153231100Y-109883600D01*
X148468600Y-112423600D02*
X153231100Y-112423600D01*
D16*
X156406100Y-111153600D02*
X153866100Y-111153600D01*
X153866100Y-111153600D02*
X153866100Y-108613600D01*
D14*
X157041100Y-112423600D02*
X159581100Y-112423600D01*
D16*
X156406100Y-108613600D02*
X156406100Y-111153600D01*
X156406100Y-111153600D02*
X156406100Y-113693600D01*
X153866100Y-108613600D02*
X156406100Y-108613600D01*
X156406100Y-113693600D02*
X153866100Y-113693600D01*
X153866100Y-113693600D02*
X153866100Y-111153600D01*
G36*
X157422100Y-110264600D02*
G01*
X156406100Y-110264600D01*
X156406100Y-109502600D01*
X157422100Y-109502600D01*
X157422100Y-110264600D01*
G37*
G36*
X153866100Y-112804600D02*
G01*
X153358100Y-112804600D01*
X153358100Y-112042600D01*
X153866100Y-112042600D01*
X153866100Y-112804600D01*
G37*
G36*
X157422100Y-112804600D02*
G01*
X156406100Y-112804600D01*
X156406100Y-112042600D01*
X157422100Y-112042600D01*
X157422100Y-112804600D01*
G37*
G36*
X153866100Y-110264600D02*
G01*
X153358100Y-110264600D01*
X153358100Y-109502600D01*
X153866100Y-109502600D01*
X153866100Y-110264600D01*
G37*
%TD*%
M02*
