M48
; DRILL file {KiCad (6.0.7)} date Thu Sep  8 11:38:05 2022
; FORMAT={2:4/ absolute / inch / suppress leading zeros}
; #@! TF.CreationDate,2022-09-08T11:38:05+02:00
; #@! TF.GenerationSoftware,Kicad,Pcbnew,(6.0.7)
; #@! TF.FileFunction,Plated,1,2,PTH
FMAT,2
INCH,TZ
; #@! TA.AperFunction,Plated,PTH,ViaDrill
T1C0.0118
; #@! TA.AperFunction,Plated,PTH,ComponentDrill
T2C0.0400
%
G90
G05
T1
X51496Y-40787
X51496Y-42992
X51674Y-38919
X51674Y-39194
X51674Y-39549
X52087Y-39921
X52087Y-43780
X52835Y-39921
X52835Y-43780
X52972Y-38878
X52972Y-39154
X52972Y-39429
X53484Y-42874
X53760Y-42874
X53898Y-40906
X54035Y-42874
X54469Y-44116
X54626Y-39549
X54784Y-38919
X56162Y-38249
X56437Y-42285
X56634Y-41773
X56713Y-40179
X56811Y-42285
X56910Y-44431
X58386Y-41694
X58485Y-42501
X58760Y-41045
X58760Y-41694
X58760Y-42049
X58760Y-44431
X59115Y-39667
X59292Y-39982
X60217Y-43820
X60237Y-41694
X60237Y-42206
X60483Y-41950
X60552Y-39431
X60729Y-40799
X60808Y-39686
X60808Y-43820
X60965Y-42560
X61300Y-38840
X62087Y-39765
X62087Y-42285
X62638Y-42285
X63327Y-44214
X65119Y-39726
T2
X64619Y-40068
X64619Y-41068
X64619Y-42068
X64619Y-43068
X64619Y-44068
X65619Y-40068
X65619Y-41068
X65619Y-42068
X65619Y-43068
X65619Y-44068
T0
M30
