%TF.GenerationSoftware,KiCad,Pcbnew,(6.0.7)*%
%TF.CreationDate,2022-09-07T18:04:23+02:00*%
%TF.ProjectId,BMP2_Railgun,424d5032-5f52-4616-996c-67756e2e6b69,rev?*%
%TF.SameCoordinates,Original*%
%TF.FileFunction,Copper,L2,Bot*%
%TF.FilePolarity,Positive*%
%FSLAX46Y46*%
G04 Gerber Fmt 4.6, Leading zero omitted, Abs format (unit mm)*
G04 Created by KiCad (PCBNEW (6.0.7)) date 2022-09-07 18:04:23*
%MOMM*%
%LPD*%
G01*
G04 APERTURE LIST*
%TA.AperFunction,SMDPad,CuDef*%
%ADD10R,3.000000X0.850000*%
%TD*%
%TA.AperFunction,ComponentPad*%
%ADD11C,1.000000*%
%TD*%
%TA.AperFunction,SMDPad,CuDef*%
%ADD12R,0.900000X0.700000*%
%TD*%
%TA.AperFunction,SMDPad,CuDef*%
%ADD13R,0.700000X0.900000*%
%TD*%
%TA.AperFunction,ComponentPad*%
%ADD14C,1.308000*%
%TD*%
%TA.AperFunction,SMDPad,CuDef*%
%ADD15R,0.600000X1.200000*%
%TD*%
%TA.AperFunction,SMDPad,CuDef*%
%ADD16R,2.000000X1.200000*%
%TD*%
%TA.AperFunction,SMDPad,CuDef*%
%ADD17R,1.000000X1.100000*%
%TD*%
%TA.AperFunction,ComponentPad*%
%ADD18C,1.600000*%
%TD*%
%TA.AperFunction,ComponentPad*%
%ADD19O,3.500000X2.000000*%
%TD*%
%TA.AperFunction,ViaPad*%
%ADD20C,0.558800*%
%TD*%
%TA.AperFunction,ViaPad*%
%ADD21C,0.800000*%
%TD*%
%TA.AperFunction,Conductor*%
%ADD22C,0.400000*%
%TD*%
%TA.AperFunction,Conductor*%
%ADD23C,0.200000*%
%TD*%
%TA.AperFunction,Conductor*%
%ADD24C,0.800000*%
%TD*%
G04 APERTURE END LIST*
D10*
%TO.P,X2,2,2*%
%TO.N,/TTMS*%
X110850000Y-99250000D03*
%TO.P,X2,4,4*%
%TO.N,/TTCK*%
X110850000Y-101790000D03*
%TO.P,X2,6,6*%
%TO.N,/TTDO*%
X110850000Y-104330000D03*
%TO.P,X2,8,8*%
%TO.N,/TTDI*%
X110850000Y-106870000D03*
%TO.P,X2,10,10*%
%TO.N,/TRST*%
X110850000Y-109410000D03*
%TD*%
D11*
%TO.P,X1,1,1*%
%TO.N,/SWCLK*%
X91130000Y-112970000D03*
%TO.P,X1,2,2*%
%TO.N,/SWDIO*%
X92400000Y-112970000D03*
%TO.P,X1,3,3*%
%TO.N,GND*%
X93670000Y-112970000D03*
%TD*%
D12*
%TO.P,R9,1,1*%
%TO.N,/BMP_D+*%
X81900000Y-108325000D03*
%TO.P,R9,2,2*%
%TO.N,Net-(IC4-Pad29)*%
X83200000Y-108325000D03*
%TD*%
%TO.P,R8,1,1*%
%TO.N,/BMP_D-*%
X81925000Y-109775000D03*
%TO.P,R8,2,2*%
%TO.N,Net-(IC4-Pad32)*%
X83225000Y-109775000D03*
%TD*%
%TO.P,R7,1,1*%
%TO.N,/BMP_D+*%
X81925000Y-111200000D03*
%TO.P,R7,2,2*%
%TO.N,Net-(IC4-Pad33)*%
X83225000Y-111200000D03*
%TD*%
D13*
%TO.P,R6,1,1*%
%TO.N,/VBUS*%
X83325000Y-102225000D03*
%TO.P,R6,2,2*%
%TO.N,GND*%
X83325000Y-100925000D03*
%TD*%
%TO.P,R5,1,1*%
%TO.N,+5V*%
X81850000Y-103675000D03*
%TO.P,R5,2,2*%
%TO.N,/VBUS*%
X81850000Y-102375000D03*
%TD*%
%TO.P,R3,1,1*%
%TO.N,Net-(D1-Pad3)*%
X72600000Y-110950000D03*
%TO.P,R3,2,2*%
%TO.N,Net-(IC3-Pad7)*%
X72600000Y-112250000D03*
%TD*%
%TO.P,R2,1,1*%
%TO.N,Net-(D1-Pad1)*%
X74250000Y-110950000D03*
%TO.P,R2,2,2*%
%TO.N,Net-(IC3-Pad6)*%
X74250000Y-112250000D03*
%TD*%
D14*
%TO.P,IC2,1,GND_IN*%
%TO.N,GND1*%
X73715000Y-99785000D03*
%TO.P,IC2,2,VIN*%
%TO.N,Net-(C5-Pad1)*%
X76255000Y-99785000D03*
%TO.P,IC2,3,GND_OUT*%
%TO.N,GND*%
X78795000Y-99785000D03*
%TO.P,IC2,4,VOUT*%
%TO.N,+5V*%
X81335000Y-99785000D03*
%TD*%
D15*
%TO.P,D1,1,I/O1@1*%
%TO.N,Net-(D1-Pad1)*%
X74375000Y-109150000D03*
%TO.P,D1,2,GND*%
%TO.N,GND1*%
X73425000Y-109150000D03*
%TO.P,D1,3,I/O2@1*%
%TO.N,Net-(D1-Pad3)*%
X72475000Y-109150000D03*
%TO.P,D1,4,I/O2@2*%
%TO.N,Net-(D1-Pad4)*%
X72475000Y-106850000D03*
%TO.P,D1,5,VBUS*%
%TO.N,Net-(C5-Pad1)*%
X73425000Y-106850000D03*
%TO.P,D1,6,I/O1@2*%
%TO.N,Net-(D1-Pad6)*%
X74375000Y-106850000D03*
%TD*%
D12*
%TO.P,C26,1,P$1*%
%TO.N,Net-(C23-Pad1)*%
X104350000Y-99650000D03*
%TO.P,C26,2,P$2*%
%TO.N,GND*%
X103050000Y-99650000D03*
%TD*%
%TO.P,C25,1,P$1*%
%TO.N,Net-(C23-Pad1)*%
X104450000Y-102825000D03*
%TO.P,C25,2,P$2*%
%TO.N,GND*%
X103150000Y-102825000D03*
%TD*%
%TO.P,C24,1,P$1*%
%TO.N,Net-(C23-Pad1)*%
X104300000Y-110025000D03*
%TO.P,C24,2,P$2*%
%TO.N,GND*%
X103000000Y-110025000D03*
%TD*%
%TO.P,C23,1,P$1*%
%TO.N,Net-(C23-Pad1)*%
X104425000Y-106275000D03*
%TO.P,C23,2,P$2*%
%TO.N,GND*%
X103125000Y-106275000D03*
%TD*%
%TO.P,C20,1,P$1*%
%TO.N,+3V3*%
X101350000Y-99675000D03*
%TO.P,C20,2,P$2*%
%TO.N,GND*%
X100050000Y-99675000D03*
%TD*%
D13*
%TO.P,C17,1,P$1*%
%TO.N,+5V*%
X83325000Y-103925000D03*
%TO.P,C17,2,P$2*%
%TO.N,GND*%
X83325000Y-105225000D03*
%TD*%
%TO.P,C16,1,P$1*%
%TO.N,Net-(C16-Pad1)*%
X81900000Y-106725000D03*
%TO.P,C16,2,P$2*%
%TO.N,GND*%
X81900000Y-105425000D03*
%TD*%
D16*
%TO.P,C15,1,-*%
%TO.N,GND*%
X79075000Y-97550000D03*
%TO.P,C15,2,+*%
%TO.N,+5V*%
X81875000Y-97550000D03*
%TD*%
D12*
%TO.P,C14,1,P$1*%
%TO.N,+3V3*%
X86150000Y-108225000D03*
%TO.P,C14,2,P$2*%
%TO.N,GND*%
X84850000Y-108225000D03*
%TD*%
%TO.P,C13,1,P$1*%
%TO.N,+3V3*%
X94850000Y-106275000D03*
%TO.P,C13,2,P$2*%
%TO.N,GND*%
X93550000Y-106275000D03*
%TD*%
D13*
%TO.P,C12,1,P$1*%
%TO.N,+3V3*%
X89525000Y-102775000D03*
%TO.P,C12,2,P$2*%
%TO.N,GND*%
X89525000Y-104075000D03*
%TD*%
D17*
%TO.P,C11,1,P$1*%
%TO.N,+3V3*%
X92325000Y-102775000D03*
%TO.P,C11,2,P$2*%
%TO.N,GND*%
X92325000Y-104475000D03*
%TD*%
D12*
%TO.P,C9,1,P$1*%
%TO.N,+3V3*%
X94925000Y-107850000D03*
%TO.P,C9,2,P$2*%
%TO.N,GND*%
X93625000Y-107850000D03*
%TD*%
D16*
%TO.P,C7,1,-*%
%TO.N,GND1*%
X73225000Y-97550000D03*
%TO.P,C7,2,+*%
%TO.N,Net-(C5-Pad1)*%
X76025000Y-97550000D03*
%TD*%
D12*
%TO.P,C5,1,P$1*%
%TO.N,Net-(C5-Pad1)*%
X73975000Y-101950000D03*
%TO.P,C5,2,P$2*%
%TO.N,GND1*%
X72675000Y-101950000D03*
%TD*%
D18*
%TO.P,X4,1,GND*%
%TO.N,GND1*%
X70080000Y-107380000D03*
%TO.P,X4,2,D+*%
%TO.N,Net-(D1-Pad4)*%
X70080000Y-104880000D03*
%TO.P,X4,3,D-*%
%TO.N,Net-(D1-Pad6)*%
X70080000Y-102880000D03*
%TO.P,X4,4,VBUS*%
%TO.N,Net-(C5-Pad1)*%
X70080000Y-100380000D03*
D19*
%TO.P,X4,5*%
%TO.N,GND*%
X68180000Y-97880000D03*
%TO.P,X4,6*%
X68180000Y-109880000D03*
%TD*%
D20*
%TO.N,GND1*%
X75275000Y-111075000D03*
D21*
%TO.N,+3V3*%
X87975000Y-109450000D03*
D20*
%TO.N,GND*%
X106150000Y-106050000D03*
X100650000Y-106575000D03*
X103100000Y-102975000D03*
D21*
%TO.N,+3V3*%
X102150000Y-104900000D03*
D20*
X91700000Y-105900000D03*
%TO.N,GND*%
X103000000Y-101250000D03*
%TO.N,+3V3*%
X102350000Y-100750000D03*
%TO.N,GND*%
X101775000Y-101400000D03*
D21*
%TO.N,+3V3*%
X105600000Y-97400000D03*
D20*
%TO.N,GND*%
X110850000Y-103100000D03*
X110825000Y-105625000D03*
X92175000Y-106700000D03*
%TO.N,/IRST*%
X98700000Y-100150000D03*
%TO.N,/ITMS*%
X99925000Y-113000000D03*
%TO.N,/ITMS_DIR*%
X96575000Y-104300000D03*
%TO.N,/IRST*%
X94325000Y-103525000D03*
%TO.N,/ITXD*%
X100125000Y-102625000D03*
%TO.N,/IRXD*%
X87675000Y-106950000D03*
X99150000Y-103675000D03*
%TO.N,/ITDO*%
X99975000Y-103825000D03*
%TO.N,Net-(C23-Pad1)*%
X104000000Y-103625000D03*
%TO.N,Net-(C18-Pad1)*%
X102075000Y-95850000D03*
%TO.N,/ITXD*%
X84800000Y-107000000D03*
%TO.N,Net-(C16-Pad1)*%
X80425000Y-106600000D03*
D21*
%TO.N,+5V*%
X80200000Y-103375000D03*
D20*
%TO.N,Net-(C5-Pad1)*%
X74700000Y-103700000D03*
%TO.N,Net-(D1-Pad6)*%
X75750000Y-103375000D03*
%TO.N,Net-(C23-Pad1)*%
X104350000Y-107275000D03*
%TO.N,/ITMS_DIR*%
X105150000Y-113175000D03*
%TO.N,Net-(C23-Pad1)*%
X104800000Y-111450000D03*
D21*
X104950000Y-101025000D03*
%TO.N,/VBUS*%
X84150000Y-102925000D03*
D20*
%TO.N,/SWDIO*%
X85675000Y-110425000D03*
%TO.N,/SWCLK*%
X86475000Y-111975000D03*
D21*
%TO.N,+3V3*%
X85550000Y-113150000D03*
X94575000Y-110825000D03*
D20*
%TO.N,GND*%
X99975000Y-112150000D03*
%TO.N,Net-(IC4-Pad29)*%
X83875000Y-106750000D03*
%TO.N,Net-(IC4-Pad32)*%
X83925000Y-109325000D03*
%TO.N,Net-(IC4-Pad33)*%
X84275000Y-111150000D03*
%TO.N,/BMP_D+*%
X80487500Y-110812500D03*
%TO.N,/BMP_D-*%
X81075000Y-109775000D03*
%TO.N,/ITDO*%
X92900000Y-100725000D03*
%TO.N,/ITMS*%
X95400000Y-102525000D03*
%TO.N,Net-(IC3-Pad6)*%
X75525000Y-112625000D03*
%TO.N,Net-(IC3-Pad7)*%
X71312500Y-112662500D03*
%TO.N,/TTDO*%
X108900000Y-105350000D03*
%TO.N,/TRST*%
X108900000Y-102975000D03*
%TO.N,Net-(C18-Pad1)*%
X91975000Y-98150000D03*
%TO.N,/PWR_BR*%
X91475000Y-97550000D03*
D21*
%TO.N,+3V3*%
X86825000Y-102675000D03*
%TO.N,+5V*%
X92900000Y-95050000D03*
%TO.N,+3V3*%
X101950000Y-97875000D03*
D20*
%TO.N,/PWR_BR*%
X106625000Y-96600000D03*
%TO.N,/TTMS*%
X108600000Y-109700000D03*
%TO.N,/TTCK*%
X108700000Y-108000000D03*
%TO.N,/TTDI*%
X110200000Y-108075000D03*
%TD*%
D22*
%TO.N,+3V3*%
X86950000Y-108225000D02*
X88100000Y-109375000D01*
X86150000Y-108225000D02*
X86950000Y-108225000D01*
D23*
%TO.N,Net-(C23-Pad1)*%
X104000000Y-103625000D02*
X104000000Y-103275000D01*
X104000000Y-105850000D02*
X104425000Y-106275000D01*
X104000000Y-103625000D02*
X104000000Y-105850000D01*
X104000000Y-103275000D02*
X104450000Y-102825000D01*
%TO.N,/IRXD*%
X99150000Y-103050000D02*
X99150000Y-103675000D01*
X96275000Y-100175000D02*
X99150000Y-103050000D01*
X87025000Y-101350000D02*
X93100000Y-101350000D01*
X85300000Y-103075000D02*
X87025000Y-101350000D01*
X87675000Y-106950000D02*
X85300000Y-104575000D01*
X85300000Y-104575000D02*
X85300000Y-103075000D01*
X93100000Y-101350000D02*
X94275000Y-100175000D01*
X94275000Y-100175000D02*
X96275000Y-100175000D01*
%TO.N,/ITDO*%
X99975000Y-103350000D02*
X96375000Y-99750000D01*
X99975000Y-103825000D02*
X99975000Y-103350000D01*
X96375000Y-99750000D02*
X93875000Y-99750000D01*
X93875000Y-99750000D02*
X92900000Y-100725000D01*
%TO.N,/ITXD*%
X84800000Y-103025000D02*
X84800000Y-107000000D01*
X88600000Y-99225000D02*
X84800000Y-103025000D01*
X100025000Y-102325000D02*
X96925000Y-99225000D01*
X96925000Y-99225000D02*
X88600000Y-99225000D01*
X100025000Y-102525000D02*
X100025000Y-102325000D01*
X100125000Y-102625000D02*
X100025000Y-102525000D01*
%TO.N,/IRST*%
X101475000Y-102925000D02*
X98700000Y-100150000D01*
X100475000Y-104675000D02*
X101475000Y-103675000D01*
X94550000Y-101275000D02*
X95950000Y-101275000D01*
X93900000Y-101925000D02*
X94550000Y-101275000D01*
X95950000Y-101275000D02*
X99350000Y-104675000D01*
X99350000Y-104675000D02*
X100475000Y-104675000D01*
X93900000Y-103100000D02*
X93900000Y-101925000D01*
X94325000Y-103525000D02*
X93900000Y-103100000D01*
X101475000Y-103675000D02*
X101475000Y-102925000D01*
D22*
%TO.N,+3V3*%
X101875000Y-105175000D02*
X102150000Y-104900000D01*
X101700000Y-105175000D02*
X101875000Y-105175000D01*
X99100000Y-105175000D02*
X101700000Y-105175000D01*
X95800000Y-101875000D02*
X99100000Y-105175000D01*
X94550000Y-102575000D02*
X94550000Y-102200000D01*
X94550000Y-102200000D02*
X94875000Y-101875000D01*
X95025000Y-103050000D02*
X94550000Y-102575000D01*
X95025000Y-103975000D02*
X95025000Y-103050000D01*
X94875000Y-101875000D02*
X95800000Y-101875000D01*
X94850000Y-104150000D02*
X95025000Y-103975000D01*
X94850000Y-105175000D02*
X94850000Y-104150000D01*
D23*
%TO.N,/ITMS_DIR*%
X104925000Y-113175000D02*
X105150000Y-113175000D01*
X96575000Y-104300000D02*
X96575000Y-104825000D01*
X96575000Y-104825000D02*
X104925000Y-113175000D01*
%TO.N,/ITMS*%
X95625000Y-104900000D02*
X95625000Y-102750000D01*
X95850000Y-105125000D02*
X95625000Y-104900000D01*
X95850000Y-108925000D02*
X99925000Y-113000000D01*
X95850000Y-105125000D02*
X95850000Y-108925000D01*
X95400000Y-102525000D02*
X95625000Y-102750000D01*
%TO.N,+3V3*%
X94575000Y-105425000D02*
X94850000Y-105700000D01*
X92575000Y-105425000D02*
X94575000Y-105425000D01*
D22*
X94850000Y-105700000D02*
X94850000Y-106275000D01*
X94850000Y-105175000D02*
X94850000Y-105700000D01*
D23*
X92100000Y-105900000D02*
X92575000Y-105425000D01*
X91700000Y-105900000D02*
X92100000Y-105900000D01*
X102350000Y-100750000D02*
X102350000Y-100675000D01*
X102350000Y-100675000D02*
X101350000Y-99675000D01*
D22*
X105125000Y-97875000D02*
X105600000Y-97400000D01*
X101950000Y-97875000D02*
X105125000Y-97875000D01*
D23*
%TO.N,GND*%
X108150000Y-104500000D02*
X108150000Y-105825000D01*
X108400000Y-106075000D02*
X110375000Y-106075000D01*
X109550000Y-103100000D02*
X108150000Y-104500000D01*
X108150000Y-105825000D02*
X108400000Y-106075000D01*
X110850000Y-103100000D02*
X109550000Y-103100000D01*
X110375000Y-106075000D02*
X110825000Y-105625000D01*
%TO.N,/TRST*%
X109275000Y-108050000D02*
X110635000Y-109410000D01*
X110635000Y-109410000D02*
X110850000Y-109410000D01*
X107575000Y-106025000D02*
X109275000Y-107725000D01*
X107575000Y-104300000D02*
X107575000Y-106025000D01*
X108900000Y-102975000D02*
X107575000Y-104300000D01*
X109275000Y-107725000D02*
X109275000Y-108050000D01*
%TO.N,/TTCK*%
X108200000Y-108000000D02*
X108700000Y-108000000D01*
X107075000Y-106875000D02*
X108200000Y-108000000D01*
X107075000Y-103850000D02*
X107075000Y-106875000D01*
X109135000Y-101790000D02*
X107075000Y-103850000D01*
X110850000Y-101790000D02*
X109135000Y-101790000D01*
%TO.N,/TTMS*%
X109450000Y-99250000D02*
X110850000Y-99250000D01*
X106700000Y-102000000D02*
X109450000Y-99250000D01*
X106700000Y-107800000D02*
X106700000Y-102000000D01*
X108600000Y-109700000D02*
X106700000Y-107800000D01*
%TO.N,GND*%
X92600000Y-106275000D02*
X92175000Y-106700000D01*
X93550000Y-106275000D02*
X92600000Y-106275000D01*
%TO.N,Net-(C23-Pad1)*%
X104300000Y-110025000D02*
X104300000Y-107325000D01*
X104300000Y-107325000D02*
X104350000Y-107275000D01*
X104300000Y-110950000D02*
X104300000Y-110025000D01*
X104800000Y-111450000D02*
X104300000Y-110950000D01*
D22*
%TO.N,+3V3*%
X86925000Y-102775000D02*
X86825000Y-102675000D01*
X89525000Y-102775000D02*
X86925000Y-102775000D01*
%TO.N,/VBUS*%
X83450000Y-102225000D02*
X83325000Y-102225000D01*
X84150000Y-102925000D02*
X83450000Y-102225000D01*
%TO.N,+3V3*%
X92325000Y-102775000D02*
X92450000Y-102775000D01*
X92450000Y-102775000D02*
X94850000Y-105175000D01*
X92325000Y-102775000D02*
X89525000Y-102775000D01*
%TO.N,+5V*%
X84375000Y-95050000D02*
X81875000Y-97550000D01*
X92900000Y-95050000D02*
X84375000Y-95050000D01*
D23*
%TO.N,Net-(C23-Pad1)*%
X104350000Y-106350000D02*
X104425000Y-106275000D01*
X104350000Y-107275000D02*
X104350000Y-106350000D01*
D22*
%TO.N,+3V3*%
X94575000Y-108200000D02*
X94925000Y-107850000D01*
X94575000Y-110825000D02*
X94575000Y-108200000D01*
X94850000Y-107775000D02*
X94925000Y-107850000D01*
X94850000Y-106275000D02*
X94850000Y-107775000D01*
D23*
%TO.N,Net-(IC4-Pad29)*%
X83200000Y-107425000D02*
X83200000Y-108325000D01*
X83875000Y-106750000D02*
X83200000Y-107425000D01*
%TO.N,Net-(C18-Pad1)*%
X90425000Y-97175000D02*
X91750000Y-95850000D01*
X91750000Y-95850000D02*
X102075000Y-95850000D01*
X90425000Y-97575000D02*
X90425000Y-97175000D01*
X91000000Y-98150000D02*
X90425000Y-97575000D01*
X91975000Y-98150000D02*
X91000000Y-98150000D01*
%TO.N,/SWCLK*%
X90135000Y-111975000D02*
X91130000Y-112970000D01*
X86475000Y-111975000D02*
X90135000Y-111975000D01*
%TO.N,/SWDIO*%
X89855000Y-110425000D02*
X92400000Y-112970000D01*
X85675000Y-110425000D02*
X89855000Y-110425000D01*
%TO.N,Net-(IC4-Pad32)*%
X83475000Y-109775000D02*
X83225000Y-109775000D01*
X83925000Y-109325000D02*
X83475000Y-109775000D01*
%TO.N,Net-(C16-Pad1)*%
X80550000Y-106725000D02*
X80425000Y-106600000D01*
X81900000Y-106725000D02*
X80550000Y-106725000D01*
D22*
%TO.N,+5V*%
X80200000Y-100920000D02*
X81335000Y-99785000D01*
X80200000Y-103375000D02*
X80200000Y-100920000D01*
X80500000Y-103675000D02*
X80200000Y-103375000D01*
X81850000Y-103675000D02*
X80500000Y-103675000D01*
X83075000Y-103675000D02*
X83325000Y-103925000D01*
X81850000Y-103675000D02*
X83075000Y-103675000D01*
D23*
%TO.N,Net-(C5-Pad1)*%
X74200000Y-103700000D02*
X73425000Y-102925000D01*
X74700000Y-103700000D02*
X74200000Y-103700000D01*
%TO.N,Net-(D1-Pad6)*%
X74375000Y-105525000D02*
X74375000Y-106850000D01*
X75775000Y-103400000D02*
X75775000Y-104125000D01*
X75775000Y-104125000D02*
X74375000Y-105525000D01*
X75750000Y-103375000D02*
X75775000Y-103400000D01*
D22*
%TO.N,Net-(C5-Pad1)*%
X73975000Y-102375000D02*
X73975000Y-101950000D01*
X73425000Y-102925000D02*
X73975000Y-102375000D01*
X73425000Y-106850000D02*
X73425000Y-102925000D01*
D23*
%TO.N,/PWR_BR*%
X106425000Y-96400000D02*
X106625000Y-96600000D01*
X101825000Y-96400000D02*
X106425000Y-96400000D01*
X100675000Y-97550000D02*
X101825000Y-96400000D01*
X91475000Y-97550000D02*
X100675000Y-97550000D01*
D22*
%TO.N,Net-(C23-Pad1)*%
X104450000Y-101525000D02*
X104450000Y-102825000D01*
X104950000Y-101025000D02*
X104450000Y-101525000D01*
%TO.N,/VBUS*%
X83175000Y-102375000D02*
X83325000Y-102225000D01*
X81850000Y-102375000D02*
X83175000Y-102375000D01*
D23*
%TO.N,Net-(IC4-Pad33)*%
X84225000Y-111200000D02*
X84275000Y-111150000D01*
X83225000Y-111200000D02*
X84225000Y-111200000D01*
%TO.N,/BMP_D+*%
X80487500Y-110812500D02*
X80875000Y-111200000D01*
X80875000Y-111200000D02*
X81925000Y-111200000D01*
X80100000Y-110425000D02*
X80487500Y-110812500D01*
X80100000Y-109125000D02*
X80100000Y-110425000D01*
X80900000Y-108325000D02*
X80100000Y-109125000D01*
X81900000Y-108325000D02*
X80900000Y-108325000D01*
%TO.N,/BMP_D-*%
X81925000Y-109775000D02*
X81075000Y-109775000D01*
D22*
%TO.N,+3V3*%
X101350000Y-98475000D02*
X101950000Y-97875000D01*
X101350000Y-99675000D02*
X101350000Y-98475000D01*
%TO.N,Net-(C23-Pad1)*%
X104450000Y-99750000D02*
X104450000Y-102825000D01*
X104350000Y-99650000D02*
X104450000Y-99750000D01*
D24*
%TO.N,+5V*%
X81875000Y-99245000D02*
X81335000Y-99785000D01*
X81875000Y-97550000D02*
X81875000Y-99245000D01*
D23*
%TO.N,/TTDO*%
X110850000Y-104330000D02*
X109920000Y-104330000D01*
X109920000Y-104330000D02*
X108900000Y-105350000D01*
%TO.N,/TTDI*%
X110850000Y-107425000D02*
X110200000Y-108075000D01*
X110850000Y-106870000D02*
X110850000Y-107425000D01*
%TO.N,Net-(IC3-Pad7)*%
X71312500Y-112662500D02*
X71275000Y-112700000D01*
%TO.N,Net-(IC3-Pad6)*%
X74625000Y-112625000D02*
X75525000Y-112625000D01*
X74250000Y-112250000D02*
X74625000Y-112625000D01*
%TO.N,Net-(IC3-Pad7)*%
X71725000Y-112250000D02*
X71312500Y-112662500D01*
X72600000Y-112250000D02*
X71725000Y-112250000D01*
%TO.N,Net-(D1-Pad1)*%
X74375000Y-110825000D02*
X74250000Y-110950000D01*
X74375000Y-109150000D02*
X74375000Y-110825000D01*
%TO.N,Net-(D1-Pad3)*%
X72475000Y-110825000D02*
X72600000Y-110950000D01*
X72475000Y-109150000D02*
X72475000Y-110825000D01*
%TO.N,Net-(D1-Pad4)*%
X71230000Y-104880000D02*
X70080000Y-104880000D01*
X72475000Y-106125000D02*
X71230000Y-104880000D01*
X72475000Y-106850000D02*
X72475000Y-106125000D01*
%TO.N,Net-(C5-Pad1)*%
X72975000Y-100950000D02*
X73975000Y-101950000D01*
X70080000Y-100380000D02*
X70650000Y-100950000D01*
X70650000Y-100950000D02*
X72975000Y-100950000D01*
D24*
X74090000Y-101950000D02*
X76255000Y-99785000D01*
X73975000Y-101950000D02*
X74090000Y-101950000D01*
X76025000Y-99555000D02*
X76255000Y-99785000D01*
X76025000Y-97550000D02*
X76025000Y-99555000D01*
%TD*%
%TA.AperFunction,Conductor*%
%TO.N,GND1*%
G36*
X75460648Y-94509852D02*
G01*
X75475000Y-94544500D01*
X75475000Y-96700500D01*
X75460648Y-96735148D01*
X75426000Y-96749500D01*
X75005252Y-96749500D01*
X74946769Y-96761133D01*
X74880448Y-96805448D01*
X74877768Y-96809459D01*
X74851721Y-96848441D01*
X74836133Y-96871769D01*
X74824500Y-96930252D01*
X74824500Y-98169748D01*
X74836133Y-98228231D01*
X74838815Y-98232245D01*
X74858694Y-98261995D01*
X74880448Y-98294552D01*
X74946769Y-98338867D01*
X75005252Y-98350500D01*
X75375500Y-98350500D01*
X75410148Y-98364852D01*
X75424500Y-98399500D01*
X75424500Y-99512426D01*
X75424081Y-99518821D01*
X75419318Y-99555000D01*
X75421314Y-99570158D01*
X75419334Y-99591697D01*
X75416204Y-99601330D01*
X75414569Y-99606361D01*
X75414301Y-99608912D01*
X75396435Y-99778888D01*
X75382351Y-99808414D01*
X73855016Y-101335749D01*
X73820368Y-101350101D01*
X73785720Y-101335749D01*
X73226821Y-100776850D01*
X73222352Y-100771673D01*
X73220425Y-100767731D01*
X73183459Y-100733440D01*
X73182135Y-100732164D01*
X73167723Y-100717752D01*
X73165866Y-100716478D01*
X73164729Y-100715533D01*
X73160572Y-100712209D01*
X73141668Y-100694673D01*
X73138354Y-100691599D01*
X73134159Y-100689925D01*
X73134152Y-100689921D01*
X73122491Y-100685269D01*
X73112931Y-100680165D01*
X73102584Y-100673067D01*
X73102585Y-100673067D01*
X73098854Y-100670508D01*
X73094452Y-100669463D01*
X73094451Y-100669463D01*
X73085163Y-100667259D01*
X73069369Y-100663511D01*
X73062527Y-100661347D01*
X73037597Y-100651401D01*
X73037595Y-100651401D01*
X73034378Y-100650117D01*
X73030933Y-100649779D01*
X73030932Y-100649779D01*
X73029271Y-100649616D01*
X73029265Y-100649616D01*
X73028085Y-100649500D01*
X73016064Y-100649500D01*
X73004750Y-100648176D01*
X72994338Y-100645705D01*
X72994337Y-100645705D01*
X72989934Y-100644660D01*
X72957662Y-100649052D01*
X72951054Y-100649500D01*
X71110030Y-100649500D01*
X71075382Y-100635148D01*
X71061030Y-100600500D01*
X71061416Y-100594359D01*
X71072505Y-100506582D01*
X73174233Y-100506582D01*
X73175971Y-100510778D01*
X73258430Y-100570688D01*
X73262857Y-100573244D01*
X73431768Y-100648447D01*
X73436619Y-100650023D01*
X73617477Y-100688467D01*
X73622550Y-100689000D01*
X73807450Y-100689000D01*
X73812523Y-100688467D01*
X73993381Y-100650023D01*
X73998232Y-100648447D01*
X74167143Y-100573244D01*
X74171570Y-100570688D01*
X74251920Y-100512311D01*
X74255818Y-100505950D01*
X74254757Y-100501534D01*
X73721893Y-99968670D01*
X73715000Y-99965815D01*
X73708107Y-99968670D01*
X73177088Y-100499689D01*
X73174233Y-100506582D01*
X71072505Y-100506582D01*
X71084778Y-100409425D01*
X71084778Y-100409424D01*
X71084949Y-100408071D01*
X71085341Y-100380000D01*
X71066194Y-100184728D01*
X71051021Y-100134471D01*
X71010178Y-99999191D01*
X71010176Y-99999186D01*
X71009484Y-99996894D01*
X70917370Y-99823653D01*
X70904942Y-99808414D01*
X70887926Y-99787550D01*
X72806289Y-99787550D01*
X72825616Y-99971436D01*
X72826677Y-99976427D01*
X72883813Y-100152273D01*
X72885891Y-100156941D01*
X72978335Y-100317056D01*
X72981343Y-100321197D01*
X72984620Y-100324836D01*
X72990673Y-100327723D01*
X72998508Y-100324715D01*
X73531330Y-99791893D01*
X73534185Y-99785000D01*
X73895815Y-99785000D01*
X73898670Y-99791893D01*
X74431964Y-100325187D01*
X74438159Y-100327753D01*
X74445827Y-100324340D01*
X74448657Y-100321197D01*
X74451665Y-100317056D01*
X74544109Y-100156941D01*
X74546187Y-100152273D01*
X74603323Y-99976427D01*
X74604384Y-99971436D01*
X74623711Y-99787550D01*
X74623711Y-99782450D01*
X74604384Y-99598564D01*
X74603323Y-99593573D01*
X74546187Y-99417727D01*
X74544109Y-99413059D01*
X74451665Y-99252944D01*
X74448657Y-99248803D01*
X74445380Y-99245164D01*
X74439327Y-99242277D01*
X74431492Y-99245285D01*
X73898670Y-99778107D01*
X73895815Y-99785000D01*
X73534185Y-99785000D01*
X73531330Y-99778107D01*
X72998036Y-99244813D01*
X72991841Y-99242247D01*
X72984173Y-99245660D01*
X72981343Y-99248803D01*
X72978335Y-99252944D01*
X72885891Y-99413059D01*
X72883813Y-99417727D01*
X72826677Y-99593573D01*
X72825616Y-99598564D01*
X72806289Y-99782450D01*
X72806289Y-99787550D01*
X70887926Y-99787550D01*
X70794878Y-99673462D01*
X70793361Y-99671602D01*
X70642180Y-99546535D01*
X70469585Y-99453213D01*
X70282152Y-99395193D01*
X70279775Y-99394943D01*
X70279774Y-99394943D01*
X70089402Y-99374933D01*
X70089397Y-99374933D01*
X70087019Y-99374683D01*
X70084634Y-99374900D01*
X70084629Y-99374900D01*
X69989319Y-99383574D01*
X69891618Y-99392466D01*
X69756918Y-99432111D01*
X69705696Y-99447186D01*
X69705694Y-99447187D01*
X69703393Y-99447864D01*
X69701267Y-99448975D01*
X69701268Y-99448975D01*
X69573752Y-99515639D01*
X69529512Y-99538767D01*
X69376600Y-99661711D01*
X69375057Y-99663550D01*
X69252020Y-99810180D01*
X69252017Y-99810184D01*
X69250480Y-99812016D01*
X69155956Y-99983954D01*
X69096628Y-100170978D01*
X69074757Y-100365963D01*
X69074957Y-100368345D01*
X69074957Y-100368349D01*
X69079590Y-100423515D01*
X69091175Y-100561483D01*
X69100602Y-100594359D01*
X69135349Y-100715533D01*
X69145258Y-100750091D01*
X69146352Y-100752220D01*
X69146353Y-100752222D01*
X69233495Y-100921781D01*
X69234944Y-100924601D01*
X69236430Y-100926476D01*
X69236432Y-100926479D01*
X69259774Y-100955929D01*
X69356818Y-101078369D01*
X69506238Y-101205535D01*
X69677513Y-101301257D01*
X69723583Y-101316226D01*
X69861836Y-101361148D01*
X69861840Y-101361149D01*
X69864118Y-101361889D01*
X70058946Y-101385121D01*
X70254576Y-101370068D01*
X70443556Y-101317303D01*
X70445685Y-101316228D01*
X70445689Y-101316226D01*
X70566529Y-101255185D01*
X70593398Y-101250155D01*
X70596915Y-101250500D01*
X70608935Y-101250500D01*
X70620248Y-101251824D01*
X70630660Y-101254295D01*
X70630663Y-101254295D01*
X70635066Y-101255340D01*
X70667338Y-101250948D01*
X70673946Y-101250500D01*
X72830233Y-101250500D01*
X72864881Y-101264852D01*
X72866381Y-101266352D01*
X72880733Y-101301000D01*
X72866381Y-101335648D01*
X72831733Y-101350000D01*
X72809747Y-101350000D01*
X72802855Y-101352855D01*
X72800000Y-101359747D01*
X72800000Y-102540253D01*
X72802855Y-102547145D01*
X72809747Y-102550000D01*
X73115311Y-102550000D01*
X73149959Y-102564352D01*
X73164311Y-102599000D01*
X73149959Y-102633648D01*
X73119516Y-102664091D01*
X73119513Y-102664095D01*
X73096950Y-102686658D01*
X73095199Y-102690095D01*
X73095196Y-102690099D01*
X73084213Y-102711654D01*
X73080196Y-102718211D01*
X73063704Y-102740910D01*
X73062514Y-102744573D01*
X73055033Y-102767596D01*
X73052090Y-102774699D01*
X73041105Y-102796259D01*
X73039354Y-102799696D01*
X73038752Y-102803499D01*
X73038751Y-102803501D01*
X73034965Y-102827407D01*
X73033170Y-102834883D01*
X73025691Y-102857900D01*
X73025691Y-102857903D01*
X73024500Y-102861567D01*
X73024500Y-106049822D01*
X73010148Y-106084470D01*
X73002723Y-106090564D01*
X72980448Y-106105448D01*
X72979857Y-106104564D01*
X72950000Y-106116931D01*
X72920143Y-106104564D01*
X72919552Y-106105448D01*
X72857245Y-106063815D01*
X72853231Y-106061133D01*
X72797264Y-106050000D01*
X72766083Y-106029166D01*
X72761111Y-106019584D01*
X72761037Y-106019392D01*
X72760209Y-106014947D01*
X72757837Y-106011098D01*
X72757835Y-106011094D01*
X72744309Y-105989151D01*
X72741000Y-105982783D01*
X72730399Y-105958109D01*
X72730398Y-105958108D01*
X72729036Y-105954937D01*
X72725022Y-105950051D01*
X72716524Y-105941553D01*
X72709460Y-105932617D01*
X72703843Y-105923504D01*
X72703841Y-105923502D01*
X72701468Y-105919652D01*
X72697534Y-105916660D01*
X72675540Y-105899936D01*
X72670551Y-105895580D01*
X71481821Y-104706850D01*
X71477352Y-104701673D01*
X71475425Y-104697731D01*
X71438459Y-104663440D01*
X71437135Y-104662164D01*
X71422723Y-104647752D01*
X71420866Y-104646478D01*
X71419729Y-104645533D01*
X71415572Y-104642209D01*
X71396668Y-104624673D01*
X71393354Y-104621599D01*
X71389159Y-104619925D01*
X71389152Y-104619921D01*
X71377491Y-104615269D01*
X71367931Y-104610165D01*
X71357584Y-104603067D01*
X71357585Y-104603067D01*
X71353854Y-104600508D01*
X71349452Y-104599463D01*
X71349451Y-104599463D01*
X71340163Y-104597259D01*
X71324369Y-104593511D01*
X71317527Y-104591347D01*
X71292597Y-104581401D01*
X71292595Y-104581401D01*
X71289378Y-104580117D01*
X71285933Y-104579779D01*
X71285932Y-104579779D01*
X71284271Y-104579616D01*
X71284265Y-104579616D01*
X71283085Y-104579500D01*
X71271064Y-104579500D01*
X71259750Y-104578176D01*
X71249338Y-104575705D01*
X71249337Y-104575705D01*
X71244934Y-104574660D01*
X71219099Y-104578176D01*
X71212662Y-104579052D01*
X71206054Y-104579500D01*
X71070815Y-104579500D01*
X71036167Y-104565148D01*
X71023906Y-104544663D01*
X71009484Y-104496894D01*
X70917370Y-104323653D01*
X70793361Y-104171602D01*
X70642180Y-104046535D01*
X70630581Y-104040263D01*
X70471690Y-103954351D01*
X70471689Y-103954350D01*
X70469585Y-103953213D01*
X70434478Y-103942346D01*
X70385442Y-103927166D01*
X70356587Y-103903210D01*
X70353123Y-103865867D01*
X70377079Y-103837012D01*
X70386752Y-103833163D01*
X70443556Y-103817303D01*
X70445685Y-103816228D01*
X70445689Y-103816226D01*
X70528323Y-103774484D01*
X70618689Y-103728837D01*
X70773303Y-103608040D01*
X70797572Y-103579924D01*
X70899938Y-103461332D01*
X70899942Y-103461327D01*
X70901509Y-103459511D01*
X70998425Y-103288909D01*
X71060358Y-103102732D01*
X71084949Y-102908071D01*
X71085341Y-102880000D01*
X71066194Y-102684728D01*
X71050772Y-102633648D01*
X71010178Y-102499191D01*
X71010176Y-102499186D01*
X71009484Y-102496894D01*
X70917370Y-102323653D01*
X70916196Y-102322214D01*
X71975000Y-102322214D01*
X71975471Y-102326990D01*
X71988563Y-102392808D01*
X71992187Y-102401559D01*
X72042080Y-102476229D01*
X72048771Y-102482920D01*
X72123441Y-102532813D01*
X72132192Y-102536437D01*
X72198010Y-102549529D01*
X72202786Y-102550000D01*
X72540253Y-102550000D01*
X72547145Y-102547145D01*
X72550000Y-102540253D01*
X72550000Y-102084747D01*
X72547145Y-102077855D01*
X72540253Y-102075000D01*
X71984747Y-102075000D01*
X71977855Y-102077855D01*
X71975000Y-102084747D01*
X71975000Y-102322214D01*
X70916196Y-102322214D01*
X70901400Y-102304071D01*
X70794878Y-102173462D01*
X70793361Y-102171602D01*
X70642180Y-102046535D01*
X70469585Y-101953213D01*
X70282152Y-101895193D01*
X70279775Y-101894943D01*
X70279774Y-101894943D01*
X70089402Y-101874933D01*
X70089397Y-101874933D01*
X70087019Y-101874683D01*
X70084634Y-101874900D01*
X70084629Y-101874900D01*
X69989319Y-101883574D01*
X69891618Y-101892466D01*
X69768955Y-101928568D01*
X69705696Y-101947186D01*
X69705694Y-101947187D01*
X69703393Y-101947864D01*
X69701267Y-101948975D01*
X69701268Y-101948975D01*
X69590910Y-102006669D01*
X69529512Y-102038767D01*
X69376600Y-102161711D01*
X69375057Y-102163550D01*
X69252020Y-102310180D01*
X69252017Y-102310184D01*
X69250480Y-102312016D01*
X69211871Y-102382245D01*
X69179823Y-102440541D01*
X69155956Y-102483954D01*
X69096628Y-102670978D01*
X69074757Y-102865963D01*
X69074957Y-102868345D01*
X69074957Y-102868349D01*
X69080338Y-102932426D01*
X69091175Y-103061483D01*
X69091835Y-103063784D01*
X69142056Y-103238923D01*
X69145258Y-103250091D01*
X69146352Y-103252220D01*
X69146353Y-103252222D01*
X69215541Y-103386846D01*
X69234944Y-103424601D01*
X69356818Y-103578369D01*
X69358644Y-103579923D01*
X69358645Y-103579924D01*
X69389548Y-103606224D01*
X69506238Y-103705535D01*
X69677513Y-103801257D01*
X69715122Y-103813477D01*
X69776022Y-103833265D01*
X69804539Y-103857622D01*
X69807482Y-103895009D01*
X69783125Y-103923526D01*
X69774718Y-103926872D01*
X69748912Y-103934467D01*
X69705696Y-103947186D01*
X69705694Y-103947187D01*
X69703393Y-103947864D01*
X69701267Y-103948975D01*
X69701268Y-103948975D01*
X69575202Y-104014881D01*
X69529512Y-104038767D01*
X69376600Y-104161711D01*
X69375057Y-104163550D01*
X69252020Y-104310180D01*
X69252017Y-104310184D01*
X69250480Y-104312016D01*
X69155956Y-104483954D01*
X69096628Y-104670978D01*
X69074757Y-104865963D01*
X69091175Y-105061483D01*
X69145258Y-105250091D01*
X69146352Y-105252220D01*
X69146353Y-105252222D01*
X69233495Y-105421781D01*
X69234944Y-105424601D01*
X69236430Y-105426476D01*
X69236432Y-105426479D01*
X69302682Y-105510066D01*
X69356818Y-105578369D01*
X69358644Y-105579923D01*
X69358645Y-105579924D01*
X69464211Y-105669767D01*
X69506238Y-105705535D01*
X69677513Y-105801257D01*
X69723583Y-105816226D01*
X69861836Y-105861148D01*
X69861840Y-105861149D01*
X69864118Y-105861889D01*
X70058946Y-105885121D01*
X70254576Y-105870068D01*
X70443556Y-105817303D01*
X70445685Y-105816228D01*
X70445689Y-105816226D01*
X70560461Y-105758250D01*
X70618689Y-105728837D01*
X70738643Y-105635119D01*
X70771414Y-105609516D01*
X70771415Y-105609515D01*
X70773303Y-105608040D01*
X70797572Y-105579924D01*
X70899938Y-105461332D01*
X70899942Y-105461327D01*
X70901509Y-105459511D01*
X70998425Y-105288909D01*
X71023333Y-105214033D01*
X71047888Y-105185686D01*
X71069828Y-105180500D01*
X71085233Y-105180500D01*
X71119881Y-105194852D01*
X72002024Y-106076995D01*
X72016376Y-106111643D01*
X72008118Y-106138866D01*
X71988815Y-106167754D01*
X71988815Y-106167755D01*
X71986133Y-106171769D01*
X71974500Y-106230252D01*
X71974500Y-107469748D01*
X71986133Y-107528231D01*
X72030448Y-107594552D01*
X72096769Y-107638867D01*
X72155252Y-107650500D01*
X72794748Y-107650500D01*
X72853231Y-107638867D01*
X72919552Y-107594552D01*
X72920143Y-107595436D01*
X72950000Y-107583069D01*
X72979857Y-107595436D01*
X72980448Y-107594552D01*
X73046769Y-107638867D01*
X73105252Y-107650500D01*
X73744748Y-107650500D01*
X73803231Y-107638867D01*
X73869552Y-107594552D01*
X73870143Y-107595436D01*
X73900000Y-107583069D01*
X73929857Y-107595436D01*
X73930448Y-107594552D01*
X73996769Y-107638867D01*
X74055252Y-107650500D01*
X74694748Y-107650500D01*
X74753231Y-107638867D01*
X74819552Y-107594552D01*
X74863867Y-107528231D01*
X74875500Y-107469748D01*
X74875500Y-106230252D01*
X74863867Y-106171769D01*
X74819552Y-106105448D01*
X74753231Y-106061133D01*
X74714938Y-106053516D01*
X74683758Y-106032682D01*
X74675500Y-106005459D01*
X74675500Y-105669767D01*
X74689852Y-105635119D01*
X75391352Y-104933619D01*
X75426000Y-104919267D01*
X75460648Y-104933619D01*
X75475000Y-104968267D01*
X75475000Y-112103177D01*
X75460648Y-112137825D01*
X75439465Y-112150291D01*
X75376068Y-112168410D01*
X75327027Y-112182426D01*
X75210769Y-112255780D01*
X75164706Y-112307936D01*
X75127979Y-112324500D01*
X74849500Y-112324500D01*
X74814852Y-112310148D01*
X74800500Y-112275500D01*
X74800500Y-111780252D01*
X74788867Y-111721769D01*
X74744552Y-111655448D01*
X74722543Y-111640742D01*
X74701708Y-111609559D01*
X74709024Y-111572777D01*
X74722543Y-111559258D01*
X74740541Y-111547232D01*
X74744552Y-111544552D01*
X74788867Y-111478231D01*
X74800500Y-111419748D01*
X74800500Y-110480252D01*
X74788867Y-110421769D01*
X74744552Y-110355448D01*
X74730050Y-110345758D01*
X74697277Y-110323859D01*
X74676441Y-110292676D01*
X74675500Y-110283117D01*
X74675500Y-109994541D01*
X74689852Y-109959893D01*
X74714937Y-109946484D01*
X74753231Y-109938867D01*
X74819552Y-109894552D01*
X74863867Y-109828231D01*
X74875500Y-109769748D01*
X74875500Y-108530252D01*
X74863867Y-108471769D01*
X74819552Y-108405448D01*
X74753231Y-108361133D01*
X74694748Y-108349500D01*
X74055252Y-108349500D01*
X73996769Y-108361133D01*
X73992755Y-108363815D01*
X73969368Y-108379442D01*
X73932586Y-108386759D01*
X73907497Y-108373348D01*
X73901229Y-108367080D01*
X73826559Y-108317187D01*
X73817808Y-108313563D01*
X73751990Y-108300471D01*
X73747214Y-108300000D01*
X73559747Y-108300000D01*
X73552855Y-108302855D01*
X73550000Y-108309747D01*
X73550000Y-109990253D01*
X73552855Y-109997145D01*
X73559747Y-110000000D01*
X73747214Y-110000000D01*
X73751990Y-109999529D01*
X73817808Y-109986437D01*
X73826559Y-109982813D01*
X73901229Y-109932920D01*
X73907497Y-109926652D01*
X73942145Y-109912300D01*
X73969368Y-109920558D01*
X73996769Y-109938867D01*
X74035062Y-109946484D01*
X74066242Y-109967318D01*
X74074500Y-109994541D01*
X74074500Y-110250500D01*
X74060148Y-110285148D01*
X74025500Y-110299500D01*
X73880252Y-110299500D01*
X73821769Y-110311133D01*
X73817755Y-110313815D01*
X73788005Y-110333694D01*
X73755448Y-110355448D01*
X73711133Y-110421769D01*
X73699500Y-110480252D01*
X73699500Y-111419748D01*
X73711133Y-111478231D01*
X73755448Y-111544552D01*
X73759459Y-111547232D01*
X73777457Y-111559258D01*
X73798292Y-111590441D01*
X73790976Y-111627223D01*
X73777458Y-111640741D01*
X73755448Y-111655448D01*
X73711133Y-111721769D01*
X73699500Y-111780252D01*
X73699500Y-112719748D01*
X73711133Y-112778231D01*
X73713815Y-112782245D01*
X73729996Y-112806461D01*
X73755448Y-112844552D01*
X73821769Y-112888867D01*
X73880252Y-112900500D01*
X74483811Y-112900500D01*
X74500464Y-112904024D01*
X74501146Y-112904492D01*
X74505546Y-112905536D01*
X74505548Y-112905537D01*
X74520836Y-112909165D01*
X74530631Y-112911489D01*
X74537473Y-112913653D01*
X74562403Y-112923599D01*
X74562405Y-112923599D01*
X74565622Y-112924883D01*
X74569067Y-112925221D01*
X74569068Y-112925221D01*
X74570729Y-112925384D01*
X74570735Y-112925384D01*
X74571915Y-112925500D01*
X74583936Y-112925500D01*
X74595250Y-112926824D01*
X74605662Y-112929295D01*
X74605663Y-112929295D01*
X74610066Y-112930340D01*
X74642338Y-112925948D01*
X74648946Y-112925500D01*
X75127800Y-112925500D01*
X75162448Y-112939852D01*
X75165306Y-112942968D01*
X75201842Y-112986433D01*
X75316273Y-113062605D01*
X75319605Y-113063646D01*
X75440612Y-113101451D01*
X75469404Y-113125482D01*
X75475000Y-113148222D01*
X75475000Y-113545500D01*
X75460648Y-113580148D01*
X75426000Y-113594500D01*
X67174500Y-113594500D01*
X67139852Y-113580148D01*
X67125500Y-113545500D01*
X67125500Y-112656577D01*
X70827701Y-112656577D01*
X70828153Y-112660034D01*
X70828153Y-112660037D01*
X70843609Y-112778231D01*
X70845525Y-112792882D01*
X70900889Y-112918705D01*
X70903135Y-112921377D01*
X70955572Y-112983758D01*
X70989342Y-113023933D01*
X71103773Y-113100105D01*
X71234984Y-113141098D01*
X71238474Y-113141162D01*
X71270895Y-113141756D01*
X71372426Y-113143617D01*
X71505051Y-113107460D01*
X71514838Y-113101451D01*
X71619224Y-113037358D01*
X71619227Y-113037356D01*
X71622197Y-113035532D01*
X71635118Y-113021258D01*
X71712101Y-112936207D01*
X71712102Y-112936206D01*
X71714446Y-112933616D01*
X71718378Y-112925500D01*
X71772861Y-112813050D01*
X71772862Y-112813048D01*
X71774384Y-112809906D01*
X71777831Y-112789420D01*
X71796876Y-112676210D01*
X71797190Y-112674346D01*
X71797335Y-112662500D01*
X71796487Y-112656577D01*
X71793311Y-112634396D01*
X71802606Y-112598064D01*
X71807168Y-112592803D01*
X71835119Y-112564852D01*
X71869767Y-112550500D01*
X72000500Y-112550500D01*
X72035148Y-112564852D01*
X72049500Y-112599500D01*
X72049500Y-112719748D01*
X72061133Y-112778231D01*
X72063815Y-112782245D01*
X72079996Y-112806461D01*
X72105448Y-112844552D01*
X72171769Y-112888867D01*
X72230252Y-112900500D01*
X72969748Y-112900500D01*
X73028231Y-112888867D01*
X73094552Y-112844552D01*
X73120004Y-112806461D01*
X73136185Y-112782245D01*
X73138867Y-112778231D01*
X73150500Y-112719748D01*
X73150500Y-111780252D01*
X73138867Y-111721769D01*
X73094552Y-111655448D01*
X73072543Y-111640742D01*
X73051708Y-111609559D01*
X73059024Y-111572777D01*
X73072543Y-111559258D01*
X73090541Y-111547232D01*
X73094552Y-111544552D01*
X73138867Y-111478231D01*
X73150500Y-111419748D01*
X73150500Y-110480252D01*
X73138867Y-110421769D01*
X73094552Y-110355448D01*
X73061995Y-110333694D01*
X73032245Y-110313815D01*
X73028231Y-110311133D01*
X72969748Y-110299500D01*
X72824500Y-110299500D01*
X72789852Y-110285148D01*
X72775500Y-110250500D01*
X72775500Y-109994541D01*
X72789852Y-109959893D01*
X72814937Y-109946484D01*
X72853231Y-109938867D01*
X72880632Y-109920558D01*
X72917414Y-109913241D01*
X72942503Y-109926652D01*
X72948771Y-109932920D01*
X73023441Y-109982813D01*
X73032192Y-109986437D01*
X73098010Y-109999529D01*
X73102786Y-110000000D01*
X73290253Y-110000000D01*
X73297145Y-109997145D01*
X73300000Y-109990253D01*
X73300000Y-108309747D01*
X73297145Y-108302855D01*
X73290253Y-108300000D01*
X73102786Y-108300000D01*
X73098010Y-108300471D01*
X73032192Y-108313563D01*
X73023441Y-108317187D01*
X72948771Y-108367080D01*
X72942503Y-108373348D01*
X72907855Y-108387700D01*
X72880632Y-108379442D01*
X72857245Y-108363815D01*
X72853231Y-108361133D01*
X72794748Y-108349500D01*
X72155252Y-108349500D01*
X72096769Y-108361133D01*
X72030448Y-108405448D01*
X71986133Y-108471769D01*
X71974500Y-108530252D01*
X71974500Y-109769748D01*
X71986133Y-109828231D01*
X72030448Y-109894552D01*
X72096769Y-109938867D01*
X72135062Y-109946484D01*
X72166242Y-109967318D01*
X72174500Y-109994541D01*
X72174500Y-110283117D01*
X72160148Y-110317765D01*
X72152723Y-110323859D01*
X72119950Y-110345758D01*
X72105448Y-110355448D01*
X72061133Y-110421769D01*
X72049500Y-110480252D01*
X72049500Y-111419748D01*
X72061133Y-111478231D01*
X72105448Y-111544552D01*
X72109459Y-111547232D01*
X72127457Y-111559258D01*
X72148292Y-111590441D01*
X72140976Y-111627223D01*
X72127458Y-111640741D01*
X72105448Y-111655448D01*
X72061133Y-111721769D01*
X72049500Y-111780252D01*
X72049500Y-111900500D01*
X72035148Y-111935148D01*
X72000500Y-111949500D01*
X71780626Y-111949500D01*
X71773805Y-111948999D01*
X71769658Y-111947575D01*
X71719280Y-111949466D01*
X71717442Y-111949500D01*
X71697052Y-111949500D01*
X71694831Y-111949914D01*
X71693362Y-111950049D01*
X71688074Y-111950637D01*
X71662317Y-111951604D01*
X71662316Y-111951604D01*
X71657792Y-111951774D01*
X71653633Y-111953561D01*
X71653632Y-111953561D01*
X71642106Y-111958513D01*
X71631736Y-111961664D01*
X71619392Y-111963963D01*
X71619391Y-111963963D01*
X71614947Y-111964791D01*
X71611098Y-111967163D01*
X71611094Y-111967165D01*
X71589151Y-111980691D01*
X71582783Y-111984000D01*
X71554937Y-111995964D01*
X71550051Y-111999978D01*
X71541553Y-112008476D01*
X71532617Y-112015540D01*
X71523504Y-112021157D01*
X71523502Y-112021159D01*
X71519652Y-112023532D01*
X71516913Y-112027134D01*
X71516912Y-112027135D01*
X71499936Y-112049460D01*
X71495580Y-112054449D01*
X71381619Y-112168410D01*
X71346672Y-112182761D01*
X71250192Y-112182172D01*
X71250190Y-112182172D01*
X71246700Y-112182151D01*
X71243345Y-112183110D01*
X71243344Y-112183110D01*
X71237158Y-112184878D01*
X71114527Y-112219926D01*
X70998269Y-112293280D01*
X70907271Y-112396315D01*
X70848850Y-112520748D01*
X70848313Y-112524197D01*
X70831155Y-112634396D01*
X70827701Y-112656577D01*
X67125500Y-112656577D01*
X67125500Y-111800892D01*
X67125540Y-111754956D01*
X67125545Y-111749437D01*
X67123157Y-111744463D01*
X67123156Y-111744460D01*
X67117862Y-111733435D01*
X67114262Y-111723125D01*
X67111540Y-111711196D01*
X67111539Y-111711194D01*
X67110312Y-111705815D01*
X67099386Y-111692104D01*
X67093536Y-111682778D01*
X67088337Y-111671951D01*
X67085948Y-111666976D01*
X67076549Y-111659459D01*
X67072083Y-111655887D01*
X67064368Y-111648158D01*
X67056745Y-111638593D01*
X67053305Y-111634276D01*
X67038682Y-111627223D01*
X67037515Y-111626660D01*
X67028202Y-111620795D01*
X67014508Y-111609844D01*
X67009131Y-111608608D01*
X67009130Y-111608607D01*
X66997205Y-111605865D01*
X66986899Y-111602245D01*
X66975884Y-111596932D01*
X66975881Y-111596931D01*
X66970913Y-111594535D01*
X66965397Y-111594530D01*
X66965396Y-111594530D01*
X66947868Y-111594515D01*
X66947837Y-111594513D01*
X66947781Y-111594500D01*
X66930892Y-111594500D01*
X66879682Y-111594455D01*
X66879437Y-111594455D01*
X66879362Y-111594491D01*
X66879281Y-111594500D01*
X65174500Y-111594500D01*
X65139852Y-111580148D01*
X65125500Y-111545500D01*
X65125500Y-109974594D01*
X66228074Y-109974594D01*
X66228455Y-109976811D01*
X66228455Y-109976812D01*
X66232439Y-110000000D01*
X66265438Y-110192043D01*
X66266214Y-110194147D01*
X66266215Y-110194150D01*
X66327201Y-110359459D01*
X66341804Y-110399043D01*
X66342951Y-110400971D01*
X66342952Y-110400973D01*
X66358143Y-110426506D01*
X66454614Y-110588659D01*
X66456094Y-110590347D01*
X66456095Y-110590348D01*
X66478241Y-110615600D01*
X66600090Y-110754543D01*
X66601847Y-110755928D01*
X66601850Y-110755931D01*
X66625168Y-110774313D01*
X66773360Y-110891137D01*
X66968620Y-110993869D01*
X67179333Y-111059297D01*
X67181565Y-111059561D01*
X67181569Y-111059562D01*
X67258901Y-111068715D01*
X67358476Y-111080500D01*
X68985970Y-111080500D01*
X69058875Y-111073801D01*
X69147474Y-111065660D01*
X69147479Y-111065659D01*
X69149711Y-111065454D01*
X69250972Y-111036896D01*
X69359895Y-111006177D01*
X69359898Y-111006176D01*
X69362064Y-111005565D01*
X69387909Y-110992820D01*
X69557931Y-110908974D01*
X69559947Y-110907980D01*
X69736733Y-110775967D01*
X69886501Y-110613949D01*
X70004236Y-110427350D01*
X70050602Y-110311133D01*
X70085163Y-110224505D01*
X70085164Y-110224501D01*
X70085994Y-110222421D01*
X70091618Y-110194150D01*
X70128599Y-110008230D01*
X70129038Y-110006024D01*
X70131313Y-109832245D01*
X70131897Y-109787654D01*
X70131897Y-109787649D01*
X70131926Y-109785406D01*
X70094562Y-109567957D01*
X70093785Y-109565850D01*
X70018974Y-109363065D01*
X70018973Y-109363062D01*
X70018196Y-109360957D01*
X70002598Y-109334738D01*
X69906535Y-109173272D01*
X69906534Y-109173271D01*
X69905386Y-109171341D01*
X69884874Y-109147951D01*
X69761388Y-109007142D01*
X69761386Y-109007140D01*
X69759910Y-109005457D01*
X69758153Y-109004072D01*
X69758150Y-109004069D01*
X69588402Y-108870252D01*
X69586640Y-108868863D01*
X69391380Y-108766131D01*
X69180667Y-108700703D01*
X69178435Y-108700439D01*
X69178431Y-108700438D01*
X69101099Y-108691285D01*
X69001524Y-108679500D01*
X67374030Y-108679500D01*
X67301125Y-108686199D01*
X67212526Y-108694340D01*
X67212521Y-108694341D01*
X67210289Y-108694546D01*
X67188458Y-108700703D01*
X67000105Y-108753823D01*
X67000102Y-108753824D01*
X66997936Y-108754435D01*
X66995920Y-108755429D01*
X66995918Y-108755430D01*
X66902827Y-108801338D01*
X66800053Y-108852020D01*
X66623267Y-108984033D01*
X66473499Y-109146051D01*
X66355764Y-109332650D01*
X66274006Y-109537579D01*
X66273568Y-109539780D01*
X66273567Y-109539784D01*
X66267963Y-109567957D01*
X66230962Y-109753976D01*
X66229586Y-109859080D01*
X66228542Y-109938867D01*
X66228074Y-109974594D01*
X65125500Y-109974594D01*
X65125500Y-108206171D01*
X69434644Y-108206171D01*
X69436842Y-108211478D01*
X69476025Y-108244825D01*
X69479948Y-108247551D01*
X69655506Y-108345667D01*
X69659877Y-108347577D01*
X69851155Y-108409727D01*
X69855822Y-108410752D01*
X70055525Y-108434566D01*
X70060289Y-108434666D01*
X70260828Y-108419235D01*
X70265518Y-108418408D01*
X70459240Y-108364320D01*
X70463676Y-108362600D01*
X70643202Y-108271914D01*
X70647230Y-108269359D01*
X70721149Y-108211606D01*
X70724822Y-108205114D01*
X70723473Y-108200250D01*
X70086893Y-107563670D01*
X70080000Y-107560815D01*
X70073107Y-107563670D01*
X69437499Y-108199278D01*
X69434644Y-108206171D01*
X65125500Y-108206171D01*
X65125500Y-107367655D01*
X69025222Y-107367655D01*
X69042052Y-107568076D01*
X69042912Y-107572763D01*
X69098350Y-107766100D01*
X69100105Y-107770532D01*
X69192038Y-107949414D01*
X69194622Y-107953424D01*
X69248336Y-108021194D01*
X69254854Y-108024823D01*
X69259813Y-108023410D01*
X69896330Y-107386893D01*
X69899185Y-107380000D01*
X70260815Y-107380000D01*
X70263670Y-107386893D01*
X70899498Y-108022721D01*
X70905411Y-108025171D01*
X70913373Y-108021526D01*
X70940583Y-107990003D01*
X70943341Y-107986093D01*
X71042679Y-107811226D01*
X71044621Y-107806865D01*
X71108106Y-107616024D01*
X71109162Y-107611378D01*
X71134499Y-107410814D01*
X71134689Y-107408090D01*
X71135062Y-107381371D01*
X71134947Y-107378636D01*
X71115221Y-107177448D01*
X71114296Y-107172779D01*
X71056163Y-106980233D01*
X71054344Y-106975821D01*
X70959925Y-106798245D01*
X70957283Y-106794268D01*
X70911886Y-106738606D01*
X70905317Y-106735069D01*
X70900162Y-106736615D01*
X70263670Y-107373107D01*
X70260815Y-107380000D01*
X69899185Y-107380000D01*
X69896330Y-107373107D01*
X69260907Y-106737684D01*
X69254014Y-106734829D01*
X69248821Y-106736979D01*
X69210979Y-106782078D01*
X69208283Y-106786015D01*
X69111390Y-106962263D01*
X69109514Y-106966641D01*
X69048699Y-107158355D01*
X69047709Y-107163010D01*
X69025289Y-107362893D01*
X69025222Y-107367655D01*
X65125500Y-107367655D01*
X65125500Y-106170862D01*
X67325497Y-106170862D01*
X67355134Y-106343340D01*
X67356249Y-106345960D01*
X67356250Y-106345964D01*
X67356359Y-106346219D01*
X67423654Y-106504373D01*
X67527383Y-106645324D01*
X67529551Y-106647166D01*
X67529553Y-106647168D01*
X67634839Y-106736615D01*
X67660755Y-106758632D01*
X67816616Y-106838219D01*
X67819384Y-106838896D01*
X67819383Y-106838896D01*
X67984487Y-106879297D01*
X67984493Y-106879298D01*
X67986606Y-106879815D01*
X67997648Y-106880500D01*
X68123822Y-106880500D01*
X68253828Y-106865343D01*
X68418331Y-106805631D01*
X68420708Y-106804072D01*
X68420711Y-106804071D01*
X68471613Y-106770698D01*
X68564685Y-106709677D01*
X68685040Y-106582628D01*
X68701212Y-106554786D01*
X69435141Y-106554786D01*
X69436620Y-106559843D01*
X70073107Y-107196330D01*
X70080000Y-107199185D01*
X70086893Y-107196330D01*
X70722168Y-106561055D01*
X70725023Y-106554162D01*
X70722919Y-106549081D01*
X70671840Y-106506825D01*
X70667886Y-106504158D01*
X70490966Y-106408499D01*
X70486575Y-106406653D01*
X70294437Y-106347176D01*
X70289776Y-106346219D01*
X70089749Y-106325195D01*
X70084976Y-106325162D01*
X69884688Y-106343390D01*
X69879996Y-106344285D01*
X69687059Y-106401069D01*
X69682637Y-106402856D01*
X69504401Y-106496035D01*
X69500408Y-106498648D01*
X69438723Y-106548245D01*
X69435141Y-106554786D01*
X68701212Y-106554786D01*
X68729070Y-106506825D01*
X68771508Y-106433763D01*
X68771510Y-106433758D01*
X68772939Y-106431298D01*
X68781553Y-106402856D01*
X68822842Y-106266532D01*
X68822842Y-106266529D01*
X68823667Y-106263807D01*
X68833546Y-106104564D01*
X68834327Y-106091978D01*
X68834327Y-106091976D01*
X68834503Y-106089138D01*
X68804866Y-105916660D01*
X68803751Y-105914040D01*
X68803750Y-105914036D01*
X68737462Y-105758250D01*
X68736346Y-105755627D01*
X68632617Y-105614676D01*
X68630449Y-105612834D01*
X68630447Y-105612832D01*
X68501412Y-105503209D01*
X68499245Y-105501368D01*
X68343384Y-105421781D01*
X68277049Y-105405549D01*
X68175513Y-105380703D01*
X68175507Y-105380702D01*
X68173394Y-105380185D01*
X68162352Y-105379500D01*
X68036178Y-105379500D01*
X67906172Y-105394657D01*
X67741669Y-105454369D01*
X67739292Y-105455928D01*
X67739289Y-105455929D01*
X67729415Y-105462403D01*
X67595315Y-105550323D01*
X67474960Y-105677372D01*
X67473530Y-105679834D01*
X67388492Y-105826237D01*
X67388490Y-105826242D01*
X67387061Y-105828702D01*
X67386235Y-105831431D01*
X67386234Y-105831432D01*
X67338466Y-105989151D01*
X67336333Y-105996193D01*
X67325497Y-106170862D01*
X65125500Y-106170862D01*
X65125500Y-101670862D01*
X67325497Y-101670862D01*
X67355134Y-101843340D01*
X67356249Y-101845960D01*
X67356250Y-101845964D01*
X67377498Y-101895900D01*
X67423654Y-102004373D01*
X67527383Y-102145324D01*
X67529551Y-102147166D01*
X67529553Y-102147168D01*
X67649868Y-102249383D01*
X67660755Y-102258632D01*
X67663284Y-102259924D01*
X67663285Y-102259924D01*
X67689133Y-102273122D01*
X67816616Y-102338219D01*
X67819384Y-102338896D01*
X67819383Y-102338896D01*
X67984487Y-102379297D01*
X67984493Y-102379298D01*
X67986606Y-102379815D01*
X67997648Y-102380500D01*
X68123822Y-102380500D01*
X68253828Y-102365343D01*
X68418331Y-102305631D01*
X68420708Y-102304072D01*
X68420711Y-102304071D01*
X68482233Y-102263735D01*
X68564685Y-102209677D01*
X68685040Y-102082628D01*
X68705117Y-102048063D01*
X68771508Y-101933763D01*
X68771510Y-101933758D01*
X68772939Y-101931298D01*
X68800430Y-101840529D01*
X68808086Y-101815253D01*
X71975000Y-101815253D01*
X71977855Y-101822145D01*
X71984747Y-101825000D01*
X72540253Y-101825000D01*
X72547145Y-101822145D01*
X72550000Y-101815253D01*
X72550000Y-101359747D01*
X72547145Y-101352855D01*
X72540253Y-101350000D01*
X72202786Y-101350000D01*
X72198010Y-101350471D01*
X72132192Y-101363563D01*
X72123441Y-101367187D01*
X72048771Y-101417080D01*
X72042080Y-101423771D01*
X71992187Y-101498441D01*
X71988563Y-101507192D01*
X71975471Y-101573010D01*
X71975000Y-101577786D01*
X71975000Y-101815253D01*
X68808086Y-101815253D01*
X68822842Y-101766532D01*
X68822842Y-101766529D01*
X68823667Y-101763807D01*
X68834503Y-101589138D01*
X68804866Y-101416660D01*
X68803751Y-101414040D01*
X68803750Y-101414036D01*
X68747616Y-101282114D01*
X68736346Y-101255627D01*
X68632617Y-101114676D01*
X68630449Y-101112834D01*
X68630447Y-101112832D01*
X68501412Y-101003209D01*
X68499245Y-101001368D01*
X68343384Y-100921781D01*
X68319317Y-100915892D01*
X68175513Y-100880703D01*
X68175507Y-100880702D01*
X68173394Y-100880185D01*
X68162352Y-100879500D01*
X68036178Y-100879500D01*
X67906172Y-100894657D01*
X67741669Y-100954369D01*
X67739292Y-100955928D01*
X67739289Y-100955929D01*
X67688387Y-100989302D01*
X67595315Y-101050323D01*
X67474960Y-101177372D01*
X67473530Y-101179834D01*
X67388492Y-101326237D01*
X67388490Y-101326242D01*
X67387061Y-101328702D01*
X67386235Y-101331431D01*
X67386234Y-101331432D01*
X67374728Y-101369424D01*
X67336333Y-101496193D01*
X67325497Y-101670862D01*
X65125500Y-101670862D01*
X65125500Y-97974594D01*
X66228074Y-97974594D01*
X66265438Y-98192043D01*
X66266214Y-98194147D01*
X66266215Y-98194150D01*
X66323896Y-98350500D01*
X66341804Y-98399043D01*
X66342951Y-98400971D01*
X66342952Y-98400973D01*
X66358645Y-98427350D01*
X66454614Y-98588659D01*
X66456094Y-98590347D01*
X66456095Y-98590348D01*
X66478241Y-98615600D01*
X66600090Y-98754543D01*
X66601847Y-98755928D01*
X66601850Y-98755931D01*
X66625168Y-98774313D01*
X66773360Y-98891137D01*
X66968620Y-98993869D01*
X67179333Y-99059297D01*
X67181565Y-99059561D01*
X67181569Y-99059562D01*
X67256801Y-99068466D01*
X67358476Y-99080500D01*
X68985970Y-99080500D01*
X69058875Y-99073801D01*
X69147474Y-99065660D01*
X69147479Y-99065659D01*
X69149711Y-99065454D01*
X69154686Y-99064051D01*
X73174183Y-99064051D01*
X73175243Y-99068466D01*
X73708107Y-99601330D01*
X73715000Y-99604185D01*
X73721893Y-99601330D01*
X74252912Y-99070311D01*
X74255767Y-99063418D01*
X74254029Y-99059222D01*
X74171570Y-98999312D01*
X74167143Y-98996756D01*
X73998232Y-98921553D01*
X73993381Y-98919977D01*
X73812523Y-98881533D01*
X73807450Y-98881000D01*
X73622550Y-98881000D01*
X73617477Y-98881533D01*
X73436619Y-98919977D01*
X73431768Y-98921553D01*
X73262856Y-98996757D01*
X73258435Y-98999309D01*
X73178081Y-99057690D01*
X73174183Y-99064051D01*
X69154686Y-99064051D01*
X69250972Y-99036896D01*
X69359895Y-99006177D01*
X69359898Y-99006176D01*
X69362064Y-99005565D01*
X69387909Y-98992820D01*
X69457173Y-98958662D01*
X69559947Y-98907980D01*
X69736733Y-98775967D01*
X69886501Y-98613949D01*
X70004236Y-98427350D01*
X70014759Y-98400973D01*
X70085163Y-98224505D01*
X70085164Y-98224501D01*
X70085994Y-98222421D01*
X70091618Y-98194150D01*
X70095981Y-98172214D01*
X71975000Y-98172214D01*
X71975471Y-98176990D01*
X71988563Y-98242808D01*
X71992187Y-98251559D01*
X72042080Y-98326229D01*
X72048771Y-98332920D01*
X72123441Y-98382813D01*
X72132192Y-98386437D01*
X72198010Y-98399529D01*
X72202786Y-98400000D01*
X73090253Y-98400000D01*
X73097145Y-98397145D01*
X73100000Y-98390253D01*
X73350000Y-98390253D01*
X73352855Y-98397145D01*
X73359747Y-98400000D01*
X74247214Y-98400000D01*
X74251990Y-98399529D01*
X74317808Y-98386437D01*
X74326559Y-98382813D01*
X74401229Y-98332920D01*
X74407920Y-98326229D01*
X74457813Y-98251559D01*
X74461437Y-98242808D01*
X74474529Y-98176990D01*
X74475000Y-98172214D01*
X74475000Y-97684747D01*
X74472145Y-97677855D01*
X74465253Y-97675000D01*
X73359747Y-97675000D01*
X73352855Y-97677855D01*
X73350000Y-97684747D01*
X73350000Y-98390253D01*
X73100000Y-98390253D01*
X73100000Y-97684747D01*
X73097145Y-97677855D01*
X73090253Y-97675000D01*
X71984747Y-97675000D01*
X71977855Y-97677855D01*
X71975000Y-97684747D01*
X71975000Y-98172214D01*
X70095981Y-98172214D01*
X70128599Y-98008230D01*
X70129038Y-98006024D01*
X70131926Y-97785406D01*
X70094562Y-97567957D01*
X70093785Y-97565850D01*
X70038227Y-97415253D01*
X71975000Y-97415253D01*
X71977855Y-97422145D01*
X71984747Y-97425000D01*
X73090253Y-97425000D01*
X73097145Y-97422145D01*
X73100000Y-97415253D01*
X73350000Y-97415253D01*
X73352855Y-97422145D01*
X73359747Y-97425000D01*
X74465253Y-97425000D01*
X74472145Y-97422145D01*
X74475000Y-97415253D01*
X74475000Y-96927786D01*
X74474529Y-96923010D01*
X74461437Y-96857192D01*
X74457813Y-96848441D01*
X74407920Y-96773771D01*
X74401229Y-96767080D01*
X74326559Y-96717187D01*
X74317808Y-96713563D01*
X74251990Y-96700471D01*
X74247214Y-96700000D01*
X73359747Y-96700000D01*
X73352855Y-96702855D01*
X73350000Y-96709747D01*
X73350000Y-97415253D01*
X73100000Y-97415253D01*
X73100000Y-96709747D01*
X73097145Y-96702855D01*
X73090253Y-96700000D01*
X72202786Y-96700000D01*
X72198010Y-96700471D01*
X72132192Y-96713563D01*
X72123441Y-96717187D01*
X72048771Y-96767080D01*
X72042080Y-96773771D01*
X71992187Y-96848441D01*
X71988563Y-96857192D01*
X71975471Y-96923010D01*
X71975000Y-96927786D01*
X71975000Y-97415253D01*
X70038227Y-97415253D01*
X70018974Y-97363065D01*
X70018973Y-97363062D01*
X70018196Y-97360957D01*
X70002598Y-97334738D01*
X69906535Y-97173272D01*
X69906534Y-97173271D01*
X69905386Y-97171341D01*
X69884874Y-97147951D01*
X69761388Y-97007142D01*
X69761386Y-97007140D01*
X69759910Y-97005457D01*
X69758153Y-97004072D01*
X69758150Y-97004069D01*
X69588402Y-96870252D01*
X69586640Y-96868863D01*
X69552738Y-96851026D01*
X69393374Y-96767180D01*
X69393373Y-96767180D01*
X69391380Y-96766131D01*
X69180667Y-96700703D01*
X69178435Y-96700439D01*
X69178431Y-96700438D01*
X69101099Y-96691285D01*
X69001524Y-96679500D01*
X67374030Y-96679500D01*
X67301125Y-96686199D01*
X67212526Y-96694340D01*
X67212521Y-96694341D01*
X67210289Y-96694546D01*
X67156390Y-96709747D01*
X67000105Y-96753823D01*
X67000102Y-96753824D01*
X66997936Y-96754435D01*
X66995920Y-96755429D01*
X66995918Y-96755430D01*
X66958726Y-96773771D01*
X66800053Y-96852020D01*
X66623267Y-96984033D01*
X66473499Y-97146051D01*
X66355764Y-97332650D01*
X66274006Y-97537579D01*
X66273568Y-97539780D01*
X66273567Y-97539784D01*
X66267963Y-97567957D01*
X66230962Y-97753976D01*
X66228074Y-97974594D01*
X65125500Y-97974594D01*
X65125500Y-96544500D01*
X65139852Y-96509852D01*
X65174500Y-96495500D01*
X66919108Y-96495500D01*
X66970563Y-96495545D01*
X66975537Y-96493157D01*
X66975540Y-96493156D01*
X66986565Y-96487862D01*
X66996875Y-96484262D01*
X67008804Y-96481540D01*
X67008806Y-96481539D01*
X67014185Y-96480312D01*
X67027896Y-96469386D01*
X67037222Y-96463536D01*
X67048049Y-96458337D01*
X67053024Y-96455948D01*
X67056471Y-96451638D01*
X67064113Y-96442083D01*
X67071842Y-96434368D01*
X67081407Y-96426745D01*
X67085724Y-96423305D01*
X67093340Y-96407515D01*
X67099205Y-96398202D01*
X67110156Y-96384508D01*
X67114135Y-96367205D01*
X67117755Y-96356899D01*
X67123068Y-96345884D01*
X67123069Y-96345881D01*
X67125465Y-96340913D01*
X67125485Y-96317868D01*
X67125487Y-96317837D01*
X67125500Y-96317781D01*
X67125500Y-96300892D01*
X67125545Y-96249437D01*
X67125509Y-96249362D01*
X67125500Y-96249281D01*
X67125500Y-94544500D01*
X67139852Y-94509852D01*
X67174500Y-94495500D01*
X75426000Y-94495500D01*
X75460648Y-94509852D01*
G37*
%TD.AperFunction*%
%TD*%
%TA.AperFunction,Conductor*%
%TO.N,GND*%
G36*
X87060648Y-94509852D02*
G01*
X87075000Y-94544500D01*
X87075000Y-94600500D01*
X87060648Y-94635148D01*
X87026000Y-94649500D01*
X84311567Y-94649500D01*
X84307903Y-94650691D01*
X84307900Y-94650691D01*
X84284883Y-94658170D01*
X84277407Y-94659965D01*
X84253501Y-94663751D01*
X84253499Y-94663752D01*
X84249696Y-94664354D01*
X84246260Y-94666105D01*
X84246259Y-94666105D01*
X84224699Y-94677090D01*
X84217596Y-94680033D01*
X84190910Y-94688704D01*
X84187796Y-94690966D01*
X84187795Y-94690967D01*
X84168211Y-94705196D01*
X84161654Y-94709213D01*
X84140099Y-94720196D01*
X84140095Y-94720199D01*
X84136658Y-94721950D01*
X84114095Y-94744513D01*
X84114091Y-94744516D01*
X82123459Y-96735148D01*
X82088811Y-96749500D01*
X80855252Y-96749500D01*
X80796769Y-96761133D01*
X80730448Y-96805448D01*
X80727768Y-96809459D01*
X80701721Y-96848441D01*
X80686133Y-96871769D01*
X80674500Y-96930252D01*
X80674500Y-98169748D01*
X80686133Y-98228231D01*
X80688815Y-98232245D01*
X80706622Y-98258895D01*
X80730448Y-98294552D01*
X80763005Y-98316306D01*
X80786895Y-98332269D01*
X80796769Y-98338867D01*
X80855252Y-98350500D01*
X81225500Y-98350500D01*
X81260148Y-98364852D01*
X81274500Y-98399500D01*
X81274500Y-98884590D01*
X81260148Y-98919238D01*
X81235688Y-98932519D01*
X81174581Y-98945508D01*
X81069490Y-98967846D01*
X80942333Y-99024460D01*
X80908205Y-99039655D01*
X80905397Y-99040905D01*
X80903318Y-99042415D01*
X80903317Y-99042416D01*
X80769168Y-99139881D01*
X80760078Y-99146485D01*
X80731911Y-99177768D01*
X80646155Y-99273010D01*
X80639887Y-99279971D01*
X80575376Y-99391707D01*
X80569571Y-99401762D01*
X80550075Y-99435529D01*
X80494569Y-99606361D01*
X80475793Y-99785000D01*
X80494569Y-99963639D01*
X80495361Y-99966075D01*
X80495362Y-99966082D01*
X80508685Y-100007087D01*
X80505742Y-100044474D01*
X80496731Y-100056876D01*
X79894516Y-100659091D01*
X79894513Y-100659095D01*
X79871950Y-100681658D01*
X79870199Y-100685095D01*
X79870196Y-100685099D01*
X79859213Y-100706654D01*
X79855196Y-100713211D01*
X79838704Y-100735910D01*
X79837514Y-100739573D01*
X79830033Y-100762596D01*
X79827090Y-100769699D01*
X79816618Y-100790253D01*
X79814354Y-100794696D01*
X79813752Y-100798499D01*
X79813751Y-100798501D01*
X79809965Y-100822407D01*
X79808170Y-100829883D01*
X79800691Y-100852900D01*
X79800691Y-100852903D01*
X79799500Y-100856567D01*
X79799500Y-102901237D01*
X79785148Y-102935885D01*
X79780335Y-102940106D01*
X79771718Y-102946718D01*
X79769762Y-102949267D01*
X79749811Y-102975268D01*
X79675464Y-103072159D01*
X79674237Y-103075122D01*
X79674235Y-103075125D01*
X79616184Y-103215272D01*
X79616183Y-103215276D01*
X79614956Y-103218238D01*
X79614537Y-103221419D01*
X79614537Y-103221420D01*
X79603431Y-103305780D01*
X79594318Y-103375000D01*
X79594737Y-103378183D01*
X79613861Y-103523441D01*
X79614956Y-103531762D01*
X79616183Y-103534724D01*
X79616184Y-103534728D01*
X79668342Y-103660648D01*
X79675464Y-103677841D01*
X79696281Y-103704970D01*
X79764943Y-103794452D01*
X79771718Y-103803282D01*
X79774267Y-103805238D01*
X79802327Y-103826769D01*
X79897159Y-103899536D01*
X79900122Y-103900763D01*
X79900125Y-103900765D01*
X80040272Y-103958816D01*
X80040276Y-103958817D01*
X80043238Y-103960044D01*
X80046419Y-103960463D01*
X80046420Y-103960463D01*
X80196817Y-103980263D01*
X80200000Y-103980682D01*
X80210762Y-103979265D01*
X80246987Y-103988971D01*
X80251806Y-103993198D01*
X80261658Y-104003050D01*
X80265095Y-104004801D01*
X80265099Y-104004804D01*
X80286654Y-104015787D01*
X80293211Y-104019804D01*
X80303219Y-104027075D01*
X80315910Y-104036296D01*
X80331925Y-104041500D01*
X80342596Y-104044967D01*
X80349699Y-104047910D01*
X80371259Y-104058895D01*
X80371260Y-104058895D01*
X80374696Y-104060646D01*
X80378499Y-104061248D01*
X80378501Y-104061249D01*
X80402407Y-104065035D01*
X80409883Y-104066830D01*
X80432900Y-104074309D01*
X80432903Y-104074309D01*
X80436567Y-104075500D01*
X81250500Y-104075500D01*
X81285148Y-104089852D01*
X81299500Y-104124500D01*
X81299500Y-104144748D01*
X81311133Y-104203231D01*
X81355448Y-104269552D01*
X81421769Y-104313867D01*
X81480252Y-104325500D01*
X82219748Y-104325500D01*
X82278231Y-104313867D01*
X82344552Y-104269552D01*
X82388867Y-104203231D01*
X82400500Y-104144748D01*
X82400500Y-104124500D01*
X82414852Y-104089852D01*
X82449500Y-104075500D01*
X82725500Y-104075500D01*
X82760148Y-104089852D01*
X82774500Y-104124500D01*
X82774500Y-104394748D01*
X82786133Y-104453231D01*
X82788815Y-104457245D01*
X82826951Y-104514319D01*
X82834268Y-104551101D01*
X82813432Y-104582284D01*
X82798771Y-104592080D01*
X82792080Y-104598771D01*
X82742187Y-104673441D01*
X82738563Y-104682192D01*
X82725471Y-104748010D01*
X82725000Y-104752786D01*
X82725000Y-105090253D01*
X82727855Y-105097145D01*
X82734747Y-105100000D01*
X83915253Y-105100000D01*
X83922145Y-105097145D01*
X83925000Y-105090253D01*
X83925000Y-104752786D01*
X83924529Y-104748010D01*
X83911437Y-104682192D01*
X83907813Y-104673441D01*
X83857920Y-104598771D01*
X83851229Y-104592080D01*
X83836568Y-104582284D01*
X83815733Y-104551102D01*
X83823049Y-104514319D01*
X83861185Y-104457245D01*
X83863867Y-104453231D01*
X83875500Y-104394748D01*
X83875500Y-103534609D01*
X83889852Y-103499961D01*
X83924500Y-103485609D01*
X83943252Y-103489339D01*
X83990272Y-103508816D01*
X83990276Y-103508817D01*
X83993238Y-103510044D01*
X83996419Y-103510463D01*
X83996420Y-103510463D01*
X84146817Y-103530263D01*
X84150000Y-103530682D01*
X84153183Y-103530263D01*
X84303580Y-103510463D01*
X84303581Y-103510463D01*
X84306762Y-103510044D01*
X84309724Y-103508817D01*
X84309728Y-103508816D01*
X84431748Y-103458273D01*
X84469251Y-103458273D01*
X84495770Y-103484791D01*
X84499500Y-103503543D01*
X84499500Y-106597103D01*
X84485609Y-106630639D01*
X84485769Y-106630780D01*
X84483870Y-106632930D01*
X84483867Y-106632933D01*
X84471343Y-106647114D01*
X84434541Y-106688785D01*
X84432914Y-106690627D01*
X84399221Y-106707097D01*
X84363751Y-106694918D01*
X84347682Y-106665138D01*
X84342741Y-106630639D01*
X84340347Y-106613923D01*
X84332700Y-106597103D01*
X84284894Y-106491962D01*
X84283450Y-106488785D01*
X84267125Y-106469838D01*
X84195999Y-106387292D01*
X84193719Y-106384646D01*
X84078365Y-106309878D01*
X84075021Y-106308878D01*
X84075019Y-106308877D01*
X83961268Y-106274858D01*
X83946663Y-106270490D01*
X83876078Y-106270059D01*
X83812692Y-106269672D01*
X83812690Y-106269672D01*
X83809200Y-106269651D01*
X83805845Y-106270610D01*
X83805844Y-106270610D01*
X83687408Y-106304459D01*
X83677027Y-106307426D01*
X83560769Y-106380780D01*
X83469771Y-106483815D01*
X83411350Y-106608248D01*
X83410813Y-106611697D01*
X83391437Y-106736141D01*
X83390201Y-106744077D01*
X83390653Y-106747534D01*
X83390653Y-106747537D01*
X83394675Y-106778290D01*
X83384937Y-106814507D01*
X83380737Y-106819292D01*
X83026850Y-107173179D01*
X83021673Y-107177648D01*
X83017731Y-107179575D01*
X83014655Y-107182891D01*
X82983440Y-107216541D01*
X82982164Y-107217865D01*
X82967752Y-107232277D01*
X82966478Y-107234134D01*
X82965533Y-107235271D01*
X82962210Y-107239427D01*
X82941599Y-107261646D01*
X82939925Y-107265841D01*
X82939921Y-107265848D01*
X82935269Y-107277509D01*
X82930166Y-107287067D01*
X82920508Y-107301146D01*
X82919463Y-107305548D01*
X82919463Y-107305549D01*
X82918138Y-107311133D01*
X82915929Y-107320444D01*
X82913512Y-107330628D01*
X82911347Y-107337473D01*
X82908836Y-107343767D01*
X82900117Y-107365622D01*
X82899500Y-107371915D01*
X82899500Y-107383936D01*
X82898176Y-107395250D01*
X82895772Y-107405382D01*
X82894660Y-107410066D01*
X82897182Y-107428598D01*
X82899052Y-107442338D01*
X82899500Y-107448946D01*
X82899500Y-107725500D01*
X82885148Y-107760148D01*
X82850500Y-107774500D01*
X82730252Y-107774500D01*
X82671769Y-107786133D01*
X82605448Y-107830448D01*
X82601120Y-107836926D01*
X82590742Y-107852457D01*
X82559559Y-107873292D01*
X82522777Y-107865976D01*
X82509258Y-107852457D01*
X82498881Y-107836926D01*
X82494552Y-107830448D01*
X82428231Y-107786133D01*
X82369748Y-107774500D01*
X81430252Y-107774500D01*
X81371769Y-107786133D01*
X81305448Y-107830448D01*
X81261133Y-107896769D01*
X81249500Y-107955252D01*
X81249500Y-107975500D01*
X81235148Y-108010148D01*
X81200500Y-108024500D01*
X80955626Y-108024500D01*
X80948805Y-108023999D01*
X80944658Y-108022575D01*
X80894280Y-108024466D01*
X80892442Y-108024500D01*
X80872052Y-108024500D01*
X80869831Y-108024914D01*
X80868362Y-108025049D01*
X80863074Y-108025637D01*
X80837317Y-108026604D01*
X80837316Y-108026604D01*
X80832792Y-108026774D01*
X80828633Y-108028561D01*
X80828632Y-108028561D01*
X80817106Y-108033513D01*
X80806736Y-108036664D01*
X80794392Y-108038963D01*
X80794391Y-108038963D01*
X80789947Y-108039791D01*
X80786098Y-108042163D01*
X80786094Y-108042165D01*
X80764151Y-108055691D01*
X80757783Y-108059000D01*
X80729937Y-108070964D01*
X80725051Y-108074978D01*
X80716553Y-108083476D01*
X80707617Y-108090540D01*
X80698504Y-108096157D01*
X80698502Y-108096159D01*
X80694652Y-108098532D01*
X80691913Y-108102134D01*
X80691912Y-108102135D01*
X80674936Y-108124460D01*
X80670580Y-108129449D01*
X79926850Y-108873179D01*
X79921673Y-108877648D01*
X79917731Y-108879575D01*
X79914655Y-108882891D01*
X79883440Y-108916541D01*
X79882164Y-108917865D01*
X79867752Y-108932277D01*
X79866478Y-108934134D01*
X79865533Y-108935271D01*
X79862209Y-108939428D01*
X79846245Y-108956638D01*
X79841599Y-108961646D01*
X79839925Y-108965841D01*
X79839921Y-108965848D01*
X79835269Y-108977509D01*
X79830166Y-108987067D01*
X79820508Y-109001146D01*
X79819463Y-109005548D01*
X79819463Y-109005549D01*
X79813512Y-109030628D01*
X79811347Y-109037473D01*
X79801401Y-109062403D01*
X79800117Y-109065622D01*
X79799500Y-109071915D01*
X79799500Y-109083936D01*
X79798176Y-109095250D01*
X79794660Y-109110066D01*
X79795271Y-109114553D01*
X79799052Y-109142338D01*
X79799500Y-109148946D01*
X79799500Y-110369374D01*
X79798999Y-110376195D01*
X79797575Y-110380342D01*
X79798900Y-110415632D01*
X79799466Y-110430720D01*
X79799500Y-110432558D01*
X79799500Y-110452948D01*
X79799914Y-110455169D01*
X79800049Y-110456638D01*
X79800637Y-110461926D01*
X79801774Y-110492208D01*
X79803561Y-110496367D01*
X79803561Y-110496368D01*
X79808513Y-110507894D01*
X79811664Y-110518264D01*
X79812390Y-110522159D01*
X79814791Y-110535053D01*
X79817163Y-110538902D01*
X79817165Y-110538906D01*
X79830691Y-110560849D01*
X79834000Y-110567217D01*
X79845964Y-110595063D01*
X79849978Y-110599949D01*
X79858476Y-110608447D01*
X79865540Y-110617383D01*
X79871157Y-110626496D01*
X79871159Y-110626498D01*
X79873532Y-110630348D01*
X79877134Y-110633087D01*
X79877135Y-110633088D01*
X79899460Y-110650064D01*
X79904449Y-110654420D01*
X79992366Y-110742337D01*
X80006718Y-110776985D01*
X80006135Y-110784518D01*
X80002701Y-110806577D01*
X80003153Y-110810034D01*
X80003153Y-110810037D01*
X80020072Y-110939420D01*
X80020525Y-110942882D01*
X80075889Y-111068705D01*
X80078135Y-111071377D01*
X80158258Y-111166695D01*
X80164342Y-111173933D01*
X80278773Y-111250105D01*
X80409984Y-111291098D01*
X80413474Y-111291162D01*
X80523807Y-111293184D01*
X80557557Y-111307528D01*
X80623179Y-111373150D01*
X80627648Y-111378327D01*
X80629575Y-111382269D01*
X80632891Y-111385345D01*
X80666541Y-111416560D01*
X80667865Y-111417836D01*
X80682277Y-111432248D01*
X80684134Y-111433522D01*
X80685271Y-111434467D01*
X80689427Y-111437790D01*
X80711646Y-111458401D01*
X80724953Y-111463710D01*
X80727502Y-111464727D01*
X80737061Y-111469831D01*
X80751146Y-111479493D01*
X80755546Y-111480537D01*
X80755548Y-111480538D01*
X80780635Y-111486491D01*
X80787478Y-111488655D01*
X80812413Y-111498603D01*
X80812415Y-111498603D01*
X80815622Y-111499883D01*
X80819707Y-111500284D01*
X80820729Y-111500384D01*
X80820735Y-111500384D01*
X80821915Y-111500500D01*
X80833935Y-111500500D01*
X80845248Y-111501824D01*
X80855660Y-111504295D01*
X80855663Y-111504295D01*
X80860066Y-111505340D01*
X80892338Y-111500948D01*
X80898946Y-111500500D01*
X81225500Y-111500500D01*
X81260148Y-111514852D01*
X81274500Y-111549500D01*
X81274500Y-111569748D01*
X81286133Y-111628231D01*
X81330448Y-111694552D01*
X81396769Y-111738867D01*
X81455252Y-111750500D01*
X82394748Y-111750500D01*
X82453231Y-111738867D01*
X82519552Y-111694552D01*
X82534258Y-111672543D01*
X82565441Y-111651708D01*
X82602223Y-111659024D01*
X82615741Y-111672542D01*
X82630448Y-111694552D01*
X82696769Y-111738867D01*
X82755252Y-111750500D01*
X83694748Y-111750500D01*
X83753231Y-111738867D01*
X83819552Y-111694552D01*
X83863867Y-111628231D01*
X83875500Y-111569748D01*
X83875500Y-111552052D01*
X83889852Y-111517404D01*
X83924500Y-111503052D01*
X83950746Y-111513079D01*
X83951842Y-111511433D01*
X84066273Y-111587605D01*
X84197484Y-111628598D01*
X84200974Y-111628662D01*
X84233395Y-111629256D01*
X84334926Y-111631117D01*
X84467551Y-111594960D01*
X84470527Y-111593133D01*
X84581724Y-111524858D01*
X84581727Y-111524856D01*
X84584697Y-111523032D01*
X84589792Y-111517404D01*
X84674601Y-111423707D01*
X84674602Y-111423706D01*
X84676946Y-111421116D01*
X84678535Y-111417836D01*
X84735361Y-111300550D01*
X84735362Y-111300548D01*
X84736884Y-111297406D01*
X84737534Y-111293546D01*
X84755378Y-111187474D01*
X84759690Y-111161846D01*
X84759835Y-111150000D01*
X84758745Y-111142383D01*
X84744549Y-111043264D01*
X84740347Y-111013923D01*
X84724278Y-110978580D01*
X84709499Y-110946077D01*
X84683450Y-110888785D01*
X84678628Y-110883188D01*
X84595999Y-110787292D01*
X84593719Y-110784646D01*
X84478365Y-110709878D01*
X84475021Y-110708878D01*
X84475019Y-110708877D01*
X84366501Y-110676423D01*
X84346663Y-110670490D01*
X84276078Y-110670059D01*
X84212692Y-110669672D01*
X84212690Y-110669672D01*
X84209200Y-110669651D01*
X84205845Y-110670610D01*
X84205844Y-110670610D01*
X84080382Y-110706467D01*
X84077027Y-110707426D01*
X83960769Y-110780780D01*
X83948610Y-110794548D01*
X83914918Y-110811016D01*
X83879447Y-110798837D01*
X83866614Y-110780861D01*
X83864808Y-110776501D01*
X83863867Y-110771769D01*
X83861188Y-110767760D01*
X83861187Y-110767757D01*
X83822232Y-110709459D01*
X83819552Y-110705448D01*
X83763864Y-110668238D01*
X83757245Y-110663815D01*
X83753231Y-110661133D01*
X83694748Y-110649500D01*
X82755252Y-110649500D01*
X82696769Y-110661133D01*
X82692755Y-110663815D01*
X82686136Y-110668238D01*
X82630448Y-110705448D01*
X82617050Y-110725500D01*
X82615742Y-110727457D01*
X82584559Y-110748292D01*
X82547777Y-110740976D01*
X82534258Y-110727457D01*
X82532951Y-110725500D01*
X82519552Y-110705448D01*
X82463864Y-110668238D01*
X82457245Y-110663815D01*
X82453231Y-110661133D01*
X82394748Y-110649500D01*
X81455252Y-110649500D01*
X81396769Y-110661133D01*
X81392755Y-110663815D01*
X81386136Y-110668238D01*
X81330448Y-110705448D01*
X81286133Y-110771769D01*
X81274500Y-110830252D01*
X81274500Y-110850500D01*
X81260148Y-110885148D01*
X81225500Y-110899500D01*
X81019768Y-110899500D01*
X80985120Y-110885148D01*
X80983160Y-110883188D01*
X80968808Y-110848540D01*
X80969487Y-110840410D01*
X80971877Y-110826207D01*
X80971877Y-110826206D01*
X80972190Y-110824346D01*
X80972335Y-110812500D01*
X80971983Y-110810037D01*
X80955647Y-110695975D01*
X80952847Y-110676423D01*
X80950573Y-110671420D01*
X80923784Y-110612503D01*
X80895950Y-110551285D01*
X80868658Y-110519610D01*
X80808499Y-110449792D01*
X80806219Y-110447146D01*
X80711704Y-110385885D01*
X80693795Y-110374277D01*
X80693794Y-110374277D01*
X80690865Y-110372378D01*
X80687521Y-110371378D01*
X80687519Y-110371377D01*
X80562513Y-110333992D01*
X80562514Y-110333992D01*
X80559163Y-110332990D01*
X80452307Y-110332338D01*
X80417958Y-110317987D01*
X80414852Y-110314881D01*
X80400500Y-110280233D01*
X80400500Y-109269767D01*
X80414852Y-109235119D01*
X81010119Y-108639852D01*
X81044767Y-108625500D01*
X81200500Y-108625500D01*
X81235148Y-108639852D01*
X81249500Y-108674500D01*
X81249500Y-108694748D01*
X81261133Y-108753231D01*
X81263815Y-108757245D01*
X81281709Y-108784024D01*
X81305448Y-108819552D01*
X81371769Y-108863867D01*
X81430252Y-108875500D01*
X82369748Y-108875500D01*
X82428231Y-108863867D01*
X82494552Y-108819552D01*
X82509258Y-108797543D01*
X82540441Y-108776708D01*
X82577223Y-108784024D01*
X82590741Y-108797542D01*
X82605448Y-108819552D01*
X82671769Y-108863867D01*
X82730252Y-108875500D01*
X83573021Y-108875500D01*
X83607669Y-108889852D01*
X83622021Y-108924500D01*
X83609748Y-108956936D01*
X83541570Y-109034133D01*
X83519771Y-109058815D01*
X83461350Y-109183248D01*
X83460813Y-109186697D01*
X83459856Y-109189827D01*
X83436000Y-109218765D01*
X83412997Y-109224500D01*
X82755252Y-109224500D01*
X82696769Y-109236133D01*
X82630448Y-109280448D01*
X82627768Y-109284459D01*
X82615742Y-109302457D01*
X82584559Y-109323292D01*
X82547777Y-109315976D01*
X82534258Y-109302457D01*
X82522232Y-109284459D01*
X82519552Y-109280448D01*
X82453231Y-109236133D01*
X82394748Y-109224500D01*
X81455252Y-109224500D01*
X81396769Y-109236133D01*
X81330448Y-109280448D01*
X81311568Y-109308704D01*
X81280387Y-109329538D01*
X81256788Y-109328425D01*
X81146663Y-109295490D01*
X81076078Y-109295059D01*
X81012692Y-109294672D01*
X81012690Y-109294672D01*
X81009200Y-109294651D01*
X81005845Y-109295610D01*
X81005844Y-109295610D01*
X80880382Y-109331467D01*
X80877027Y-109332426D01*
X80760769Y-109405780D01*
X80743353Y-109425500D01*
X80687435Y-109488815D01*
X80669771Y-109508815D01*
X80611350Y-109633248D01*
X80610813Y-109636697D01*
X80593191Y-109749875D01*
X80590201Y-109769077D01*
X80590653Y-109772534D01*
X80590653Y-109772537D01*
X80606948Y-109897145D01*
X80608025Y-109905382D01*
X80663389Y-110031205D01*
X80665635Y-110033877D01*
X80742046Y-110124779D01*
X80751842Y-110136433D01*
X80866273Y-110212605D01*
X80997484Y-110253598D01*
X81000974Y-110253662D01*
X81033395Y-110254256D01*
X81134926Y-110256117D01*
X81147985Y-110252557D01*
X81258693Y-110222375D01*
X81295896Y-110227108D01*
X81312322Y-110242425D01*
X81330448Y-110269552D01*
X81396769Y-110313867D01*
X81455252Y-110325500D01*
X82394748Y-110325500D01*
X82453231Y-110313867D01*
X82519552Y-110269552D01*
X82534258Y-110247543D01*
X82565441Y-110226708D01*
X82602223Y-110234024D01*
X82615741Y-110247542D01*
X82630448Y-110269552D01*
X82696769Y-110313867D01*
X82755252Y-110325500D01*
X83694748Y-110325500D01*
X83753231Y-110313867D01*
X83819552Y-110269552D01*
X83858897Y-110210669D01*
X83861185Y-110207245D01*
X83863867Y-110203231D01*
X83875500Y-110144748D01*
X83875500Y-109854018D01*
X83889852Y-109819370D01*
X83925398Y-109805026D01*
X83966851Y-109805786D01*
X83984926Y-109806117D01*
X84117551Y-109769960D01*
X84141281Y-109755390D01*
X84231724Y-109699858D01*
X84231727Y-109699856D01*
X84234697Y-109698032D01*
X84241395Y-109690633D01*
X84324601Y-109598707D01*
X84324602Y-109598706D01*
X84326946Y-109596116D01*
X84328469Y-109592973D01*
X84385361Y-109475550D01*
X84385362Y-109475548D01*
X84386884Y-109472406D01*
X84388947Y-109460148D01*
X84398678Y-109402302D01*
X84409690Y-109336846D01*
X84409756Y-109331467D01*
X84409812Y-109326902D01*
X84409812Y-109326898D01*
X84409835Y-109325000D01*
X84405753Y-109296492D01*
X84395703Y-109226325D01*
X84390347Y-109188923D01*
X84374660Y-109154420D01*
X84354493Y-109110066D01*
X84333450Y-109063785D01*
X84310779Y-109037473D01*
X84245999Y-108962292D01*
X84243719Y-108959646D01*
X84128365Y-108884878D01*
X84125021Y-108883878D01*
X84125019Y-108883877D01*
X84000013Y-108846492D01*
X84000014Y-108846492D01*
X83996663Y-108845490D01*
X83869113Y-108844712D01*
X83834554Y-108830149D01*
X83820414Y-108795414D01*
X83828671Y-108768490D01*
X83836185Y-108757245D01*
X83838867Y-108753231D01*
X83850500Y-108694748D01*
X83850500Y-108597214D01*
X84150000Y-108597214D01*
X84150471Y-108601990D01*
X84163563Y-108667808D01*
X84167187Y-108676559D01*
X84217080Y-108751229D01*
X84223771Y-108757920D01*
X84298441Y-108807813D01*
X84307192Y-108811437D01*
X84373010Y-108824529D01*
X84377786Y-108825000D01*
X84715253Y-108825000D01*
X84722145Y-108822145D01*
X84725000Y-108815253D01*
X84725000Y-108359747D01*
X84722145Y-108352855D01*
X84715253Y-108350000D01*
X84159747Y-108350000D01*
X84152855Y-108352855D01*
X84150000Y-108359747D01*
X84150000Y-108597214D01*
X83850500Y-108597214D01*
X83850500Y-108090253D01*
X84150000Y-108090253D01*
X84152855Y-108097145D01*
X84159747Y-108100000D01*
X84715253Y-108100000D01*
X84722145Y-108097145D01*
X84725000Y-108090253D01*
X84725000Y-107634747D01*
X84722145Y-107627855D01*
X84715253Y-107625000D01*
X84377786Y-107625000D01*
X84373010Y-107625471D01*
X84307192Y-107638563D01*
X84298441Y-107642187D01*
X84223771Y-107692080D01*
X84217080Y-107698771D01*
X84167187Y-107773441D01*
X84163563Y-107782192D01*
X84150471Y-107848010D01*
X84150000Y-107852786D01*
X84150000Y-108090253D01*
X83850500Y-108090253D01*
X83850500Y-107955252D01*
X83838867Y-107896769D01*
X83794552Y-107830448D01*
X83728231Y-107786133D01*
X83669748Y-107774500D01*
X83549500Y-107774500D01*
X83514852Y-107760148D01*
X83500500Y-107725500D01*
X83500500Y-107569767D01*
X83514852Y-107535119D01*
X83806217Y-107243754D01*
X83841763Y-107229410D01*
X83911245Y-107230683D01*
X83934926Y-107231117D01*
X83941188Y-107229410D01*
X83971610Y-107221116D01*
X84067551Y-107194960D01*
X84070527Y-107193133D01*
X84181724Y-107124858D01*
X84181727Y-107124856D01*
X84184697Y-107123032D01*
X84242299Y-107059393D01*
X84276188Y-107043338D01*
X84311507Y-107055948D01*
X84327211Y-107085923D01*
X84332572Y-107126920D01*
X84333025Y-107130382D01*
X84388389Y-107256205D01*
X84390635Y-107258877D01*
X84468872Y-107351951D01*
X84476842Y-107361433D01*
X84591273Y-107437605D01*
X84722484Y-107478598D01*
X84725974Y-107478662D01*
X84758395Y-107479256D01*
X84859926Y-107481117D01*
X84992551Y-107444960D01*
X84995527Y-107443133D01*
X85106724Y-107374858D01*
X85106727Y-107374856D01*
X85109697Y-107373032D01*
X85116405Y-107365622D01*
X85199601Y-107273707D01*
X85199602Y-107273706D01*
X85201946Y-107271116D01*
X85203850Y-107267187D01*
X85260361Y-107150550D01*
X85260362Y-107150548D01*
X85261884Y-107147406D01*
X85262730Y-107142381D01*
X85274149Y-107074500D01*
X85284690Y-107011846D01*
X85284835Y-107000000D01*
X85277675Y-106950000D01*
X85272150Y-106911427D01*
X85265347Y-106863923D01*
X85255512Y-106842291D01*
X85226412Y-106778290D01*
X85208450Y-106738785D01*
X85177815Y-106703231D01*
X85121000Y-106637293D01*
X85120999Y-106637292D01*
X85118719Y-106634646D01*
X85117073Y-106633579D01*
X85100500Y-106597131D01*
X85100500Y-104918767D01*
X85114852Y-104884119D01*
X85149500Y-104869767D01*
X85184148Y-104884119D01*
X86183358Y-105883330D01*
X87179866Y-106879838D01*
X87194218Y-106914486D01*
X87193636Y-106922018D01*
X87190201Y-106944077D01*
X87190653Y-106947534D01*
X87190653Y-106947537D01*
X87207256Y-107074500D01*
X87208025Y-107080382D01*
X87263389Y-107206205D01*
X87265635Y-107208877D01*
X87340060Y-107297416D01*
X87351842Y-107311433D01*
X87466273Y-107387605D01*
X87597484Y-107428598D01*
X87600974Y-107428662D01*
X87633395Y-107429256D01*
X87734926Y-107431117D01*
X87867551Y-107394960D01*
X87876165Y-107389671D01*
X87981724Y-107324858D01*
X87981727Y-107324856D01*
X87984697Y-107323032D01*
X87990085Y-107317080D01*
X88074601Y-107223707D01*
X88074602Y-107223706D01*
X88076946Y-107221116D01*
X88078521Y-107217865D01*
X88135361Y-107100550D01*
X88135362Y-107100548D01*
X88136884Y-107097406D01*
X88139625Y-107081117D01*
X88149719Y-107021116D01*
X88159690Y-106961846D01*
X88159835Y-106950000D01*
X88159483Y-106947537D01*
X88142005Y-106825500D01*
X88140347Y-106813923D01*
X88134576Y-106801229D01*
X88106184Y-106738785D01*
X88083450Y-106688785D01*
X88047631Y-106647214D01*
X92850000Y-106647214D01*
X92850471Y-106651990D01*
X92863563Y-106717808D01*
X92867187Y-106726559D01*
X92917080Y-106801229D01*
X92923771Y-106807920D01*
X92998441Y-106857813D01*
X93007192Y-106861437D01*
X93073010Y-106874529D01*
X93077786Y-106875000D01*
X93415253Y-106875000D01*
X93422145Y-106872145D01*
X93425000Y-106865253D01*
X93425000Y-106409747D01*
X93422145Y-106402855D01*
X93415253Y-106400000D01*
X92859747Y-106400000D01*
X92852855Y-106402855D01*
X92850000Y-106409747D01*
X92850000Y-106647214D01*
X88047631Y-106647214D01*
X87995999Y-106587292D01*
X87993719Y-106584646D01*
X87878365Y-106509878D01*
X87875021Y-106508878D01*
X87875019Y-106508877D01*
X87750013Y-106471492D01*
X87750014Y-106471492D01*
X87746663Y-106470490D01*
X87639807Y-106469838D01*
X87605458Y-106455487D01*
X85697185Y-104547214D01*
X88925000Y-104547214D01*
X88925471Y-104551990D01*
X88938563Y-104617808D01*
X88942187Y-104626559D01*
X88992080Y-104701229D01*
X88998771Y-104707920D01*
X89073441Y-104757813D01*
X89082192Y-104761437D01*
X89148010Y-104774529D01*
X89152786Y-104775000D01*
X89390253Y-104775000D01*
X89397145Y-104772145D01*
X89400000Y-104765253D01*
X89650000Y-104765253D01*
X89652855Y-104772145D01*
X89659747Y-104775000D01*
X89897214Y-104775000D01*
X89901990Y-104774529D01*
X89967808Y-104761437D01*
X89976559Y-104757813D01*
X90051229Y-104707920D01*
X90057920Y-104701229D01*
X90107813Y-104626559D01*
X90111437Y-104617808D01*
X90124529Y-104551990D01*
X90125000Y-104547214D01*
X90125000Y-104340253D01*
X91575000Y-104340253D01*
X91577855Y-104347145D01*
X91584747Y-104350000D01*
X92190253Y-104350000D01*
X92197145Y-104347145D01*
X92200000Y-104340253D01*
X92200000Y-103684747D01*
X92197145Y-103677855D01*
X92190253Y-103675000D01*
X91802786Y-103675000D01*
X91798010Y-103675471D01*
X91732192Y-103688563D01*
X91723441Y-103692187D01*
X91648771Y-103742080D01*
X91642080Y-103748771D01*
X91592187Y-103823441D01*
X91588563Y-103832192D01*
X91575471Y-103898010D01*
X91575000Y-103902786D01*
X91575000Y-104340253D01*
X90125000Y-104340253D01*
X90125000Y-104209747D01*
X90122145Y-104202855D01*
X90115253Y-104200000D01*
X89659747Y-104200000D01*
X89652855Y-104202855D01*
X89650000Y-104209747D01*
X89650000Y-104765253D01*
X89400000Y-104765253D01*
X89400000Y-104209747D01*
X89397145Y-104202855D01*
X89390253Y-104200000D01*
X88934747Y-104200000D01*
X88927855Y-104202855D01*
X88925000Y-104209747D01*
X88925000Y-104547214D01*
X85697185Y-104547214D01*
X85614852Y-104464881D01*
X85600500Y-104430233D01*
X85600500Y-103219767D01*
X85614852Y-103185119D01*
X86138082Y-102661889D01*
X86172730Y-102647537D01*
X86207378Y-102661889D01*
X86221311Y-102690141D01*
X86238701Y-102822232D01*
X86239956Y-102831762D01*
X86241183Y-102834724D01*
X86241184Y-102834728D01*
X86298508Y-102973119D01*
X86300464Y-102977841D01*
X86302420Y-102980390D01*
X86377764Y-103078580D01*
X86396718Y-103103282D01*
X86399267Y-103105238D01*
X86428863Y-103127948D01*
X86522159Y-103199536D01*
X86525122Y-103200763D01*
X86525125Y-103200765D01*
X86665272Y-103258816D01*
X86665276Y-103258817D01*
X86668238Y-103260044D01*
X86671419Y-103260463D01*
X86671420Y-103260463D01*
X86821817Y-103280263D01*
X86825000Y-103280682D01*
X86828183Y-103280263D01*
X86978580Y-103260463D01*
X86978581Y-103260463D01*
X86981762Y-103260044D01*
X86984724Y-103258817D01*
X86984728Y-103258816D01*
X87119753Y-103202886D01*
X87127841Y-103199536D01*
X87130387Y-103197582D01*
X87130391Y-103197580D01*
X87145970Y-103185626D01*
X87175799Y-103175500D01*
X88925500Y-103175500D01*
X88960148Y-103189852D01*
X88974500Y-103224500D01*
X88974500Y-103244748D01*
X88986133Y-103303231D01*
X88988815Y-103307245D01*
X89026951Y-103364319D01*
X89034268Y-103401101D01*
X89013432Y-103432284D01*
X88998771Y-103442080D01*
X88992080Y-103448771D01*
X88942187Y-103523441D01*
X88938563Y-103532192D01*
X88925471Y-103598010D01*
X88925000Y-103602786D01*
X88925000Y-103940253D01*
X88927855Y-103947145D01*
X88934747Y-103950000D01*
X90115253Y-103950000D01*
X90122145Y-103947145D01*
X90125000Y-103940253D01*
X90125000Y-103602786D01*
X90124529Y-103598010D01*
X90111437Y-103532192D01*
X90107813Y-103523441D01*
X90057920Y-103448771D01*
X90051229Y-103442080D01*
X90036568Y-103432284D01*
X90015733Y-103401102D01*
X90023049Y-103364319D01*
X90061185Y-103307245D01*
X90063867Y-103303231D01*
X90075500Y-103244748D01*
X90075500Y-103224500D01*
X90089852Y-103189852D01*
X90124500Y-103175500D01*
X91575500Y-103175500D01*
X91610148Y-103189852D01*
X91624500Y-103224500D01*
X91624500Y-103344748D01*
X91636133Y-103403231D01*
X91638815Y-103407245D01*
X91648762Y-103422131D01*
X91680448Y-103469552D01*
X91684459Y-103472232D01*
X91741675Y-103510463D01*
X91746769Y-103513867D01*
X91805252Y-103525500D01*
X92613811Y-103525500D01*
X92648459Y-103539852D01*
X92699959Y-103591352D01*
X92714311Y-103626000D01*
X92699959Y-103660648D01*
X92665311Y-103675000D01*
X92459747Y-103675000D01*
X92452855Y-103677855D01*
X92450000Y-103684747D01*
X92450000Y-104340253D01*
X92452855Y-104347145D01*
X92459747Y-104350000D01*
X93065253Y-104350000D01*
X93072145Y-104347145D01*
X93075000Y-104340253D01*
X93075000Y-104084689D01*
X93089352Y-104050041D01*
X93124000Y-104035689D01*
X93158648Y-104050041D01*
X94149459Y-105040852D01*
X94163811Y-105075500D01*
X94149459Y-105110148D01*
X94114811Y-105124500D01*
X93119812Y-105124500D01*
X93085164Y-105110148D01*
X93070812Y-105075500D01*
X93071754Y-105065940D01*
X93074530Y-105051988D01*
X93075000Y-105047214D01*
X93075000Y-104609747D01*
X93072145Y-104602855D01*
X93065253Y-104600000D01*
X91584747Y-104600000D01*
X91577855Y-104602855D01*
X91575000Y-104609747D01*
X91575000Y-105047214D01*
X91575471Y-105051990D01*
X91588563Y-105117808D01*
X91592187Y-105126559D01*
X91642080Y-105201229D01*
X91648771Y-105207920D01*
X91723441Y-105257813D01*
X91732192Y-105261437D01*
X91798010Y-105274529D01*
X91802786Y-105275000D01*
X92181733Y-105275000D01*
X92216381Y-105289352D01*
X92230733Y-105324000D01*
X92216381Y-105358648D01*
X92059896Y-105515133D01*
X92025248Y-105529485D01*
X91998597Y-105521603D01*
X91906296Y-105461777D01*
X91906292Y-105461775D01*
X91903365Y-105459878D01*
X91900021Y-105458878D01*
X91900019Y-105458877D01*
X91789301Y-105425765D01*
X91771663Y-105420490D01*
X91701078Y-105420059D01*
X91637692Y-105419672D01*
X91637690Y-105419672D01*
X91634200Y-105419651D01*
X91630845Y-105420610D01*
X91630844Y-105420610D01*
X91612807Y-105425765D01*
X91502027Y-105457426D01*
X91385769Y-105530780D01*
X91294771Y-105633815D01*
X91236350Y-105758248D01*
X91235813Y-105761697D01*
X91217357Y-105880233D01*
X91215201Y-105894077D01*
X91215653Y-105897534D01*
X91215653Y-105897537D01*
X91232572Y-106026920D01*
X91233025Y-106030382D01*
X91288389Y-106156205D01*
X91290635Y-106158877D01*
X91372387Y-106256133D01*
X91376842Y-106261433D01*
X91491273Y-106337605D01*
X91622484Y-106378598D01*
X91625974Y-106378662D01*
X91658395Y-106379256D01*
X91759926Y-106381117D01*
X91767989Y-106378919D01*
X91805226Y-106368767D01*
X91892551Y-106344960D01*
X91902608Y-106338785D01*
X92006724Y-106274858D01*
X92006727Y-106274856D01*
X92009697Y-106273032D01*
X92060392Y-106217024D01*
X92094881Y-106200942D01*
X92105719Y-106200535D01*
X92107558Y-106200500D01*
X92127948Y-106200500D01*
X92130169Y-106200086D01*
X92131638Y-106199951D01*
X92136926Y-106199363D01*
X92162683Y-106198396D01*
X92162684Y-106198396D01*
X92167208Y-106198226D01*
X92171367Y-106196439D01*
X92171368Y-106196439D01*
X92182894Y-106191487D01*
X92193264Y-106188336D01*
X92205608Y-106186037D01*
X92205609Y-106186037D01*
X92210053Y-106185209D01*
X92213902Y-106182837D01*
X92213906Y-106182835D01*
X92235849Y-106169309D01*
X92242217Y-106166000D01*
X92266891Y-106155399D01*
X92266892Y-106155398D01*
X92270063Y-106154036D01*
X92274949Y-106150022D01*
X92283447Y-106141524D01*
X92292383Y-106134460D01*
X92301496Y-106128843D01*
X92301498Y-106128841D01*
X92305348Y-106126468D01*
X92309803Y-106120610D01*
X92325064Y-106100540D01*
X92329420Y-106095551D01*
X92685119Y-105739852D01*
X92719767Y-105725500D01*
X92840957Y-105725500D01*
X92875605Y-105739852D01*
X92889957Y-105774500D01*
X92881699Y-105801723D01*
X92867187Y-105823441D01*
X92863563Y-105832192D01*
X92850471Y-105898010D01*
X92850000Y-105902786D01*
X92850000Y-106140253D01*
X92852855Y-106147145D01*
X92859747Y-106150000D01*
X93626000Y-106150000D01*
X93660648Y-106164352D01*
X93675000Y-106199000D01*
X93675000Y-106865253D01*
X93677855Y-106872145D01*
X93684747Y-106875000D01*
X94022214Y-106875000D01*
X94026990Y-106874529D01*
X94092808Y-106861437D01*
X94101559Y-106857813D01*
X94176229Y-106807920D01*
X94182920Y-106801229D01*
X94192716Y-106786568D01*
X94223898Y-106765733D01*
X94260681Y-106773049D01*
X94302855Y-106801229D01*
X94321769Y-106813867D01*
X94380252Y-106825500D01*
X94400500Y-106825500D01*
X94435148Y-106839852D01*
X94449500Y-106874500D01*
X94449500Y-107260431D01*
X94435148Y-107295079D01*
X94410060Y-107308489D01*
X94401502Y-107310191D01*
X94401500Y-107310192D01*
X94396769Y-107311133D01*
X94371046Y-107328321D01*
X94335681Y-107351951D01*
X94298899Y-107359268D01*
X94267716Y-107338432D01*
X94257920Y-107323771D01*
X94251229Y-107317080D01*
X94176559Y-107267187D01*
X94167808Y-107263563D01*
X94101990Y-107250471D01*
X94097214Y-107250000D01*
X93759747Y-107250000D01*
X93752855Y-107252855D01*
X93750000Y-107259747D01*
X93750000Y-108440253D01*
X93752855Y-108447145D01*
X93759747Y-108450000D01*
X94097214Y-108450000D01*
X94101988Y-108449530D01*
X94115940Y-108446754D01*
X94152722Y-108454069D01*
X94173558Y-108485252D01*
X94174500Y-108494812D01*
X94174500Y-110351237D01*
X94160148Y-110385885D01*
X94155335Y-110390106D01*
X94146718Y-110396718D01*
X94050464Y-110522159D01*
X94049237Y-110525122D01*
X94049235Y-110525125D01*
X93991184Y-110665272D01*
X93991183Y-110665276D01*
X93989956Y-110668238D01*
X93969318Y-110825000D01*
X93969737Y-110828183D01*
X93986528Y-110955720D01*
X93989956Y-110981762D01*
X93991183Y-110984724D01*
X93991184Y-110984728D01*
X94048900Y-111124066D01*
X94050464Y-111127841D01*
X94065869Y-111147917D01*
X94143696Y-111249343D01*
X94146718Y-111253282D01*
X94272159Y-111349536D01*
X94275122Y-111350763D01*
X94275125Y-111350765D01*
X94415272Y-111408816D01*
X94415276Y-111408817D01*
X94418238Y-111410044D01*
X94421419Y-111410463D01*
X94421420Y-111410463D01*
X94571817Y-111430263D01*
X94575000Y-111430682D01*
X94578183Y-111430263D01*
X94728580Y-111410463D01*
X94728581Y-111410463D01*
X94731762Y-111410044D01*
X94734724Y-111408817D01*
X94734728Y-111408816D01*
X94874875Y-111350765D01*
X94874878Y-111350763D01*
X94877841Y-111349536D01*
X95003282Y-111253282D01*
X95006305Y-111249343D01*
X95084131Y-111147917D01*
X95099536Y-111127841D01*
X95101100Y-111124066D01*
X95158816Y-110984728D01*
X95158817Y-110984724D01*
X95160044Y-110981762D01*
X95163473Y-110955720D01*
X95180263Y-110828183D01*
X95180682Y-110825000D01*
X95160044Y-110668238D01*
X95158817Y-110665276D01*
X95158816Y-110665272D01*
X95100765Y-110525125D01*
X95100763Y-110525122D01*
X95099536Y-110522159D01*
X95003282Y-110396718D01*
X94994671Y-110390111D01*
X94975919Y-110357634D01*
X94975500Y-110351237D01*
X94975500Y-108449500D01*
X94989852Y-108414852D01*
X95024500Y-108400500D01*
X95394748Y-108400500D01*
X95453231Y-108388867D01*
X95473276Y-108375473D01*
X95510058Y-108368155D01*
X95541241Y-108388990D01*
X95549500Y-108416214D01*
X95549500Y-108869374D01*
X95548999Y-108876195D01*
X95547575Y-108880342D01*
X95549223Y-108924235D01*
X95549466Y-108930720D01*
X95549500Y-108932558D01*
X95549500Y-108952948D01*
X95549914Y-108955169D01*
X95550049Y-108956638D01*
X95550637Y-108961926D01*
X95551774Y-108992208D01*
X95553561Y-108996367D01*
X95553561Y-108996368D01*
X95558513Y-109007894D01*
X95561664Y-109018264D01*
X95564791Y-109035053D01*
X95567163Y-109038902D01*
X95567165Y-109038906D01*
X95580691Y-109060849D01*
X95584000Y-109067217D01*
X95586019Y-109071915D01*
X95595964Y-109095063D01*
X95599978Y-109099949D01*
X95608476Y-109108447D01*
X95615540Y-109117383D01*
X95621157Y-109126496D01*
X95621159Y-109126498D01*
X95623532Y-109130348D01*
X95627134Y-109133087D01*
X95627135Y-109133088D01*
X95649460Y-109150064D01*
X95654449Y-109154420D01*
X99429866Y-112929838D01*
X99444218Y-112964486D01*
X99443636Y-112972018D01*
X99441649Y-112984778D01*
X99440910Y-112989526D01*
X99440201Y-112994077D01*
X99440653Y-112997534D01*
X99440653Y-112997537D01*
X99446065Y-113038923D01*
X99458025Y-113130382D01*
X99513389Y-113256205D01*
X99515635Y-113258877D01*
X99598342Y-113357269D01*
X99601842Y-113361433D01*
X99716273Y-113437605D01*
X99847484Y-113478598D01*
X99850974Y-113478662D01*
X99883395Y-113479256D01*
X99984926Y-113481117D01*
X100117551Y-113444960D01*
X100120527Y-113443133D01*
X100231724Y-113374858D01*
X100231727Y-113374856D01*
X100234697Y-113373032D01*
X100241940Y-113365031D01*
X100324601Y-113273707D01*
X100324602Y-113273706D01*
X100326946Y-113271116D01*
X100332876Y-113258877D01*
X100385361Y-113150550D01*
X100385362Y-113150548D01*
X100386884Y-113147406D01*
X100390331Y-113126920D01*
X100404553Y-113042381D01*
X100409690Y-113011846D01*
X100409835Y-113000000D01*
X100409483Y-112997537D01*
X100390842Y-112867381D01*
X100390347Y-112863923D01*
X100384074Y-112850125D01*
X100362047Y-112801680D01*
X100333450Y-112738785D01*
X100329213Y-112733867D01*
X100245999Y-112637292D01*
X100243719Y-112634646D01*
X100138094Y-112566184D01*
X100131295Y-112561777D01*
X100131294Y-112561777D01*
X100128365Y-112559878D01*
X100125021Y-112558878D01*
X100125019Y-112558877D01*
X100034199Y-112531716D01*
X99996663Y-112520490D01*
X99889807Y-112519838D01*
X99855458Y-112505487D01*
X96164852Y-108814881D01*
X96150500Y-108780233D01*
X96150500Y-105180626D01*
X96151001Y-105173805D01*
X96152425Y-105169658D01*
X96150534Y-105119280D01*
X96150500Y-105117442D01*
X96150500Y-105097052D01*
X96150086Y-105094831D01*
X96149951Y-105093362D01*
X96149363Y-105088074D01*
X96148396Y-105062317D01*
X96148396Y-105062316D01*
X96148226Y-105057792D01*
X96146417Y-105053580D01*
X96141487Y-105042106D01*
X96138336Y-105031736D01*
X96136037Y-105019392D01*
X96136037Y-105019391D01*
X96135209Y-105014947D01*
X96132837Y-105011098D01*
X96132835Y-105011094D01*
X96119309Y-104989151D01*
X96116000Y-104982783D01*
X96105399Y-104958109D01*
X96105398Y-104958108D01*
X96104036Y-104954937D01*
X96100022Y-104950051D01*
X96091524Y-104941553D01*
X96084460Y-104932617D01*
X96078843Y-104923504D01*
X96078841Y-104923502D01*
X96076468Y-104919652D01*
X96061006Y-104907894D01*
X96050540Y-104899936D01*
X96045551Y-104895580D01*
X95939852Y-104789881D01*
X95925500Y-104755233D01*
X95925500Y-102805626D01*
X95926001Y-102798805D01*
X95927425Y-102794658D01*
X95925534Y-102744280D01*
X95925500Y-102742442D01*
X95925500Y-102722052D01*
X95925086Y-102719831D01*
X95924951Y-102718362D01*
X95924363Y-102713074D01*
X95923301Y-102684794D01*
X95936342Y-102649631D01*
X95970427Y-102633990D01*
X96006914Y-102648307D01*
X98839091Y-105480484D01*
X98839095Y-105480487D01*
X98861658Y-105503050D01*
X98865095Y-105504801D01*
X98865099Y-105504804D01*
X98886656Y-105515788D01*
X98893212Y-105519805D01*
X98912792Y-105534031D01*
X98912796Y-105534033D01*
X98915911Y-105536296D01*
X98931940Y-105541504D01*
X98942594Y-105544966D01*
X98949697Y-105547909D01*
X98971259Y-105558895D01*
X98971260Y-105558895D01*
X98974696Y-105560646D01*
X98978499Y-105561248D01*
X98978501Y-105561249D01*
X99002407Y-105565035D01*
X99009883Y-105566830D01*
X99032900Y-105574309D01*
X99032903Y-105574309D01*
X99036567Y-105575500D01*
X101938433Y-105575500D01*
X101942097Y-105574309D01*
X101942100Y-105574309D01*
X101965117Y-105566830D01*
X101972593Y-105565035D01*
X101996499Y-105561249D01*
X101996501Y-105561248D01*
X102000304Y-105560646D01*
X102003740Y-105558895D01*
X102003741Y-105558895D01*
X102025301Y-105547910D01*
X102032404Y-105544967D01*
X102043075Y-105541500D01*
X102059090Y-105536296D01*
X102062208Y-105534031D01*
X102081789Y-105519804D01*
X102088344Y-105515787D01*
X102092717Y-105513559D01*
X102103207Y-105508214D01*
X102131849Y-105503292D01*
X102150000Y-105505682D01*
X102153183Y-105505263D01*
X102303580Y-105485463D01*
X102303581Y-105485463D01*
X102306762Y-105485044D01*
X102309724Y-105483817D01*
X102309728Y-105483816D01*
X102449875Y-105425765D01*
X102449878Y-105425763D01*
X102452841Y-105424536D01*
X102547498Y-105351903D01*
X102575733Y-105330238D01*
X102578282Y-105328282D01*
X102599984Y-105300000D01*
X102655920Y-105227102D01*
X102674536Y-105202841D01*
X102676321Y-105198532D01*
X102733816Y-105059728D01*
X102733817Y-105059724D01*
X102735044Y-105056762D01*
X102736974Y-105042106D01*
X102755263Y-104903183D01*
X102755682Y-104900000D01*
X102753338Y-104882192D01*
X102735463Y-104746420D01*
X102735463Y-104746419D01*
X102735044Y-104743238D01*
X102733817Y-104740276D01*
X102733816Y-104740272D01*
X102675765Y-104600125D01*
X102675763Y-104600122D01*
X102674536Y-104597159D01*
X102578282Y-104471718D01*
X102452841Y-104375464D01*
X102449878Y-104374237D01*
X102449875Y-104374235D01*
X102309728Y-104316184D01*
X102309724Y-104316183D01*
X102306762Y-104314956D01*
X102303581Y-104314537D01*
X102303580Y-104314537D01*
X102153183Y-104294737D01*
X102150000Y-104294318D01*
X102146817Y-104294737D01*
X101996420Y-104314537D01*
X101996419Y-104314537D01*
X101993238Y-104314956D01*
X101990276Y-104316183D01*
X101990272Y-104316184D01*
X101850125Y-104374235D01*
X101850122Y-104374237D01*
X101847159Y-104375464D01*
X101721718Y-104471718D01*
X101625464Y-104597159D01*
X101624237Y-104600122D01*
X101624235Y-104600125D01*
X101591697Y-104678679D01*
X101564956Y-104743238D01*
X101563373Y-104742582D01*
X101543902Y-104767942D01*
X101519414Y-104774500D01*
X100918767Y-104774500D01*
X100884119Y-104760148D01*
X100869767Y-104725500D01*
X100884119Y-104690852D01*
X101648150Y-103926821D01*
X101653327Y-103922352D01*
X101657269Y-103920425D01*
X101691560Y-103883459D01*
X101692836Y-103882135D01*
X101707248Y-103867723D01*
X101708522Y-103865866D01*
X101709467Y-103864729D01*
X101712791Y-103860572D01*
X101730324Y-103841671D01*
X101733401Y-103838354D01*
X101739728Y-103822497D01*
X101744831Y-103812939D01*
X101747574Y-103808940D01*
X101754493Y-103798854D01*
X101761491Y-103769365D01*
X101763655Y-103762522D01*
X101773603Y-103737587D01*
X101773603Y-103737585D01*
X101774883Y-103734378D01*
X101775500Y-103728085D01*
X101775500Y-103716065D01*
X101776824Y-103704752D01*
X101779295Y-103694340D01*
X101779295Y-103694337D01*
X101780340Y-103689934D01*
X101775948Y-103657662D01*
X101775500Y-103651054D01*
X101775500Y-103197214D01*
X102450000Y-103197214D01*
X102450471Y-103201990D01*
X102463563Y-103267808D01*
X102467187Y-103276559D01*
X102517080Y-103351229D01*
X102523771Y-103357920D01*
X102598441Y-103407813D01*
X102607192Y-103411437D01*
X102673010Y-103424529D01*
X102677786Y-103425000D01*
X103015253Y-103425000D01*
X103022145Y-103422145D01*
X103025000Y-103415253D01*
X103025000Y-102959747D01*
X103022145Y-102952855D01*
X103015253Y-102950000D01*
X102459747Y-102950000D01*
X102452855Y-102952855D01*
X102450000Y-102959747D01*
X102450000Y-103197214D01*
X101775500Y-103197214D01*
X101775500Y-102980632D01*
X101776002Y-102973807D01*
X101777426Y-102969658D01*
X101775534Y-102919264D01*
X101775500Y-102917427D01*
X101775500Y-102897052D01*
X101775087Y-102894832D01*
X101774948Y-102893331D01*
X101774363Y-102888076D01*
X101773396Y-102862311D01*
X101773396Y-102862309D01*
X101773226Y-102857792D01*
X101771442Y-102853639D01*
X101771441Y-102853636D01*
X101766487Y-102842106D01*
X101763336Y-102831736D01*
X101761566Y-102822232D01*
X101760209Y-102814947D01*
X101744306Y-102789147D01*
X101740998Y-102782779D01*
X101730401Y-102758114D01*
X101730400Y-102758112D01*
X101729036Y-102754938D01*
X101725023Y-102750051D01*
X101716522Y-102741550D01*
X101709458Y-102732614D01*
X101703843Y-102723504D01*
X101703841Y-102723502D01*
X101701468Y-102719652D01*
X101697547Y-102716670D01*
X101675544Y-102699939D01*
X101670555Y-102695583D01*
X101665225Y-102690253D01*
X102450000Y-102690253D01*
X102452855Y-102697145D01*
X102459747Y-102700000D01*
X103015253Y-102700000D01*
X103022145Y-102697145D01*
X103025000Y-102690253D01*
X103025000Y-102234747D01*
X103022145Y-102227855D01*
X103015253Y-102225000D01*
X102677786Y-102225000D01*
X102673010Y-102225471D01*
X102607192Y-102238563D01*
X102598441Y-102242187D01*
X102523771Y-102292080D01*
X102517080Y-102298771D01*
X102467187Y-102373441D01*
X102463563Y-102382192D01*
X102450471Y-102448010D01*
X102450000Y-102452786D01*
X102450000Y-102690253D01*
X101665225Y-102690253D01*
X100442780Y-101467808D01*
X99195660Y-100220689D01*
X99181308Y-100186041D01*
X99181987Y-100177911D01*
X99184377Y-100163707D01*
X99184377Y-100163706D01*
X99184690Y-100161846D01*
X99184835Y-100150000D01*
X99183481Y-100140541D01*
X99170115Y-100047214D01*
X99350000Y-100047214D01*
X99350471Y-100051990D01*
X99363563Y-100117808D01*
X99367187Y-100126559D01*
X99417080Y-100201229D01*
X99423771Y-100207920D01*
X99498441Y-100257813D01*
X99507192Y-100261437D01*
X99573010Y-100274529D01*
X99577786Y-100275000D01*
X99915253Y-100275000D01*
X99922145Y-100272145D01*
X99925000Y-100265253D01*
X100175000Y-100265253D01*
X100177855Y-100272145D01*
X100184747Y-100275000D01*
X100522214Y-100275000D01*
X100526990Y-100274529D01*
X100592808Y-100261437D01*
X100601559Y-100257813D01*
X100676229Y-100207920D01*
X100682920Y-100201229D01*
X100692716Y-100186568D01*
X100723898Y-100165733D01*
X100760681Y-100173049D01*
X100812869Y-100207920D01*
X100821769Y-100213867D01*
X100880252Y-100225500D01*
X101455233Y-100225500D01*
X101489881Y-100239852D01*
X101864970Y-100614941D01*
X101879322Y-100649589D01*
X101878739Y-100657127D01*
X101865737Y-100740631D01*
X101865737Y-100740635D01*
X101865201Y-100744077D01*
X101865653Y-100747534D01*
X101865653Y-100747537D01*
X101880415Y-100860423D01*
X101883025Y-100880382D01*
X101938389Y-101006205D01*
X101940635Y-101008877D01*
X102018787Y-101101850D01*
X102026842Y-101111433D01*
X102141273Y-101187605D01*
X102272484Y-101228598D01*
X102275974Y-101228662D01*
X102308395Y-101229256D01*
X102409926Y-101231117D01*
X102542551Y-101194960D01*
X102545527Y-101193133D01*
X102656724Y-101124858D01*
X102656727Y-101124856D01*
X102659697Y-101123032D01*
X102672618Y-101108758D01*
X102749601Y-101023707D01*
X102749602Y-101023706D01*
X102751946Y-101021116D01*
X102754948Y-101014921D01*
X102810361Y-100900550D01*
X102810362Y-100900548D01*
X102811884Y-100897406D01*
X102815331Y-100876920D01*
X102829163Y-100794696D01*
X102834690Y-100761846D01*
X102834835Y-100750000D01*
X102834483Y-100747537D01*
X102819010Y-100639500D01*
X102815347Y-100613923D01*
X102811172Y-100604739D01*
X102789593Y-100557281D01*
X102758450Y-100488785D01*
X102732627Y-100458815D01*
X102670999Y-100387292D01*
X102668719Y-100384646D01*
X102600020Y-100340118D01*
X102578751Y-100309230D01*
X102585553Y-100272349D01*
X102616441Y-100251080D01*
X102626671Y-100250000D01*
X102915253Y-100250000D01*
X102922145Y-100247145D01*
X102925000Y-100240253D01*
X102925000Y-99784747D01*
X102922145Y-99777855D01*
X102915253Y-99775000D01*
X102359747Y-99775000D01*
X102352855Y-99777855D01*
X102350000Y-99784747D01*
X102350000Y-100022214D01*
X102350471Y-100026990D01*
X102363563Y-100092808D01*
X102367187Y-100101559D01*
X102417080Y-100176229D01*
X102427185Y-100186334D01*
X102425343Y-100188176D01*
X102441097Y-100211772D01*
X102433768Y-100248552D01*
X102402578Y-100269377D01*
X102392740Y-100270314D01*
X102390268Y-100270299D01*
X102355919Y-100255948D01*
X102014852Y-99914881D01*
X102000500Y-99880233D01*
X102000500Y-99515253D01*
X102350000Y-99515253D01*
X102352855Y-99522145D01*
X102359747Y-99525000D01*
X102915253Y-99525000D01*
X102922145Y-99522145D01*
X102925000Y-99515253D01*
X102925000Y-99059747D01*
X102922145Y-99052855D01*
X102915253Y-99050000D01*
X102577786Y-99050000D01*
X102573010Y-99050471D01*
X102507192Y-99063563D01*
X102498441Y-99067187D01*
X102423771Y-99117080D01*
X102417080Y-99123771D01*
X102367187Y-99198441D01*
X102363563Y-99207192D01*
X102350471Y-99273010D01*
X102350000Y-99277786D01*
X102350000Y-99515253D01*
X102000500Y-99515253D01*
X102000500Y-99305252D01*
X101988867Y-99246769D01*
X101985866Y-99242277D01*
X101947232Y-99184459D01*
X101944552Y-99180448D01*
X101878231Y-99136133D01*
X101819748Y-99124500D01*
X101799500Y-99124500D01*
X101764852Y-99110148D01*
X101750500Y-99075500D01*
X101750500Y-98661189D01*
X101764852Y-98626541D01*
X101898194Y-98493198D01*
X101932842Y-98478846D01*
X101939236Y-98479265D01*
X101950000Y-98480682D01*
X101953183Y-98480263D01*
X102103580Y-98460463D01*
X102103581Y-98460463D01*
X102106762Y-98460044D01*
X102109724Y-98458817D01*
X102109728Y-98458816D01*
X102249875Y-98400765D01*
X102249878Y-98400763D01*
X102252841Y-98399536D01*
X102350371Y-98324699D01*
X102375733Y-98305238D01*
X102378282Y-98303282D01*
X102384889Y-98294671D01*
X102417366Y-98275919D01*
X102423763Y-98275500D01*
X105188433Y-98275500D01*
X105192097Y-98274309D01*
X105192100Y-98274309D01*
X105215117Y-98266830D01*
X105222593Y-98265035D01*
X105246499Y-98261249D01*
X105246501Y-98261248D01*
X105250304Y-98260646D01*
X105253740Y-98258895D01*
X105253741Y-98258895D01*
X105275301Y-98247910D01*
X105282404Y-98244967D01*
X105293075Y-98241500D01*
X105309090Y-98236296D01*
X105320191Y-98228231D01*
X105331789Y-98219804D01*
X105338346Y-98215787D01*
X105359901Y-98204804D01*
X105359905Y-98204801D01*
X105363342Y-98203050D01*
X105385905Y-98180487D01*
X105385909Y-98180484D01*
X105548194Y-98018198D01*
X105582842Y-98003846D01*
X105589236Y-98004265D01*
X105600000Y-98005682D01*
X105603183Y-98005263D01*
X105753580Y-97985463D01*
X105753581Y-97985463D01*
X105756762Y-97985044D01*
X105759724Y-97983817D01*
X105759728Y-97983816D01*
X105899875Y-97925765D01*
X105899878Y-97925763D01*
X105902841Y-97924536D01*
X105971546Y-97871817D01*
X106025733Y-97830238D01*
X106028282Y-97828282D01*
X106036618Y-97817419D01*
X106122580Y-97705390D01*
X106124536Y-97702841D01*
X106125765Y-97699875D01*
X106183816Y-97559728D01*
X106183817Y-97559724D01*
X106185044Y-97556762D01*
X106186259Y-97547537D01*
X106205263Y-97403183D01*
X106205263Y-97403181D01*
X106205682Y-97400000D01*
X106199418Y-97352420D01*
X106185463Y-97246420D01*
X106185463Y-97246419D01*
X106185044Y-97243238D01*
X106183817Y-97240276D01*
X106183816Y-97240272D01*
X106125765Y-97100125D01*
X106125763Y-97100122D01*
X106124536Y-97097159D01*
X106039848Y-96986791D01*
X106030238Y-96974267D01*
X106028282Y-96971718D01*
X105902841Y-96875464D01*
X105899878Y-96874237D01*
X105899875Y-96874235D01*
X105759728Y-96816184D01*
X105759724Y-96816183D01*
X105756762Y-96814956D01*
X105753581Y-96814537D01*
X105753580Y-96814537D01*
X105628583Y-96798081D01*
X105600592Y-96781920D01*
X105599669Y-96784148D01*
X105571417Y-96798081D01*
X105446420Y-96814537D01*
X105446419Y-96814537D01*
X105443238Y-96814956D01*
X105440276Y-96816183D01*
X105440272Y-96816184D01*
X105300125Y-96874235D01*
X105300122Y-96874237D01*
X105297159Y-96875464D01*
X105171718Y-96971718D01*
X105169762Y-96974267D01*
X105160152Y-96986791D01*
X105075464Y-97097159D01*
X105074237Y-97100122D01*
X105074235Y-97100125D01*
X105016184Y-97240272D01*
X105016183Y-97240276D01*
X105014956Y-97243238D01*
X105014537Y-97246419D01*
X105014537Y-97246420D01*
X105000582Y-97352420D01*
X104994318Y-97400000D01*
X104994737Y-97403181D01*
X104995735Y-97410760D01*
X104986029Y-97446985D01*
X104981800Y-97451807D01*
X104973456Y-97460150D01*
X104938810Y-97474500D01*
X102423763Y-97474500D01*
X102389115Y-97460148D01*
X102384894Y-97455335D01*
X102378282Y-97446718D01*
X102349979Y-97425000D01*
X102255390Y-97352420D01*
X102252841Y-97350464D01*
X102249878Y-97349237D01*
X102249875Y-97349235D01*
X102109728Y-97291184D01*
X102109724Y-97291183D01*
X102106762Y-97289956D01*
X102103581Y-97289537D01*
X102103580Y-97289537D01*
X101953183Y-97269737D01*
X101950000Y-97269318D01*
X101946817Y-97269737D01*
X101796420Y-97289537D01*
X101796419Y-97289537D01*
X101793238Y-97289956D01*
X101790276Y-97291183D01*
X101790272Y-97291184D01*
X101650125Y-97349235D01*
X101650122Y-97349237D01*
X101647159Y-97350464D01*
X101644610Y-97352420D01*
X101550022Y-97425000D01*
X101521718Y-97446718D01*
X101425464Y-97572159D01*
X101424237Y-97575122D01*
X101424235Y-97575125D01*
X101366184Y-97715272D01*
X101366183Y-97715276D01*
X101364956Y-97718238D01*
X101364537Y-97721419D01*
X101364537Y-97721420D01*
X101349145Y-97838336D01*
X101344318Y-97875000D01*
X101344737Y-97878182D01*
X101345735Y-97885762D01*
X101336029Y-97921987D01*
X101331802Y-97926806D01*
X101044516Y-98214091D01*
X101044513Y-98214095D01*
X101021950Y-98236658D01*
X101020199Y-98240095D01*
X101020196Y-98240099D01*
X101009213Y-98261654D01*
X101005196Y-98268211D01*
X101000766Y-98274309D01*
X100988704Y-98290910D01*
X100987514Y-98294573D01*
X100980033Y-98317596D01*
X100977090Y-98324699D01*
X100966105Y-98346259D01*
X100964354Y-98349696D01*
X100963752Y-98353499D01*
X100963751Y-98353501D01*
X100959965Y-98377407D01*
X100958170Y-98384883D01*
X100950691Y-98407900D01*
X100950691Y-98407903D01*
X100949500Y-98411567D01*
X100949500Y-99075500D01*
X100935148Y-99110148D01*
X100900500Y-99124500D01*
X100880252Y-99124500D01*
X100821769Y-99136133D01*
X100817755Y-99138815D01*
X100760681Y-99176951D01*
X100723899Y-99184268D01*
X100692716Y-99163432D01*
X100682920Y-99148771D01*
X100676229Y-99142080D01*
X100601559Y-99092187D01*
X100592808Y-99088563D01*
X100526990Y-99075471D01*
X100522214Y-99075000D01*
X100184747Y-99075000D01*
X100177855Y-99077855D01*
X100175000Y-99084747D01*
X100175000Y-100265253D01*
X99925000Y-100265253D01*
X99925000Y-99809747D01*
X99922145Y-99802855D01*
X99915253Y-99800000D01*
X99359747Y-99800000D01*
X99352855Y-99802855D01*
X99350000Y-99809747D01*
X99350000Y-100047214D01*
X99170115Y-100047214D01*
X99165347Y-100013923D01*
X99163402Y-100009644D01*
X99120083Y-99914370D01*
X99108450Y-99888785D01*
X99089858Y-99867207D01*
X99020999Y-99787292D01*
X99018719Y-99784646D01*
X98903365Y-99709878D01*
X98900021Y-99708878D01*
X98900019Y-99708877D01*
X98787539Y-99675238D01*
X98771663Y-99670490D01*
X98701078Y-99670059D01*
X98637692Y-99669672D01*
X98637690Y-99669672D01*
X98634200Y-99669651D01*
X98630845Y-99670610D01*
X98630844Y-99670610D01*
X98505382Y-99706467D01*
X98502027Y-99707426D01*
X98385769Y-99780780D01*
X98366273Y-99802855D01*
X98297935Y-99880233D01*
X98294771Y-99883815D01*
X98280186Y-99914881D01*
X98258492Y-99961088D01*
X98236350Y-100008248D01*
X98236061Y-100010104D01*
X98212584Y-100038581D01*
X98175253Y-100042173D01*
X98154934Y-100029963D01*
X97665224Y-99540253D01*
X99350000Y-99540253D01*
X99352855Y-99547145D01*
X99359747Y-99550000D01*
X99915253Y-99550000D01*
X99922145Y-99547145D01*
X99925000Y-99540253D01*
X99925000Y-99084747D01*
X99922145Y-99077855D01*
X99915253Y-99075000D01*
X99577786Y-99075000D01*
X99573010Y-99075471D01*
X99507192Y-99088563D01*
X99498441Y-99092187D01*
X99423771Y-99142080D01*
X99417080Y-99148771D01*
X99367187Y-99223441D01*
X99363563Y-99232192D01*
X99350471Y-99298010D01*
X99350000Y-99302786D01*
X99350000Y-99540253D01*
X97665224Y-99540253D01*
X97176821Y-99051850D01*
X97172352Y-99046673D01*
X97170425Y-99042731D01*
X97133459Y-99008440D01*
X97132135Y-99007164D01*
X97117723Y-98992752D01*
X97115866Y-98991478D01*
X97114729Y-98990533D01*
X97110572Y-98987209D01*
X97091668Y-98969673D01*
X97088354Y-98966599D01*
X97084159Y-98964925D01*
X97084152Y-98964921D01*
X97072491Y-98960269D01*
X97062931Y-98955165D01*
X97052584Y-98948067D01*
X97052585Y-98948067D01*
X97048854Y-98945508D01*
X97044452Y-98944463D01*
X97044451Y-98944463D01*
X97034771Y-98942166D01*
X97019369Y-98938511D01*
X97012527Y-98936347D01*
X96987597Y-98926401D01*
X96987595Y-98926401D01*
X96984378Y-98925117D01*
X96980933Y-98924779D01*
X96980932Y-98924779D01*
X96979271Y-98924616D01*
X96979265Y-98924616D01*
X96978085Y-98924500D01*
X96966064Y-98924500D01*
X96954750Y-98923176D01*
X96944338Y-98920705D01*
X96944337Y-98920705D01*
X96939934Y-98919660D01*
X96914099Y-98923176D01*
X96907662Y-98924052D01*
X96901054Y-98924500D01*
X88655632Y-98924500D01*
X88648807Y-98923998D01*
X88644658Y-98922574D01*
X88594265Y-98924466D01*
X88592427Y-98924500D01*
X88572052Y-98924500D01*
X88569832Y-98924913D01*
X88568331Y-98925052D01*
X88563076Y-98925637D01*
X88537311Y-98926604D01*
X88537309Y-98926604D01*
X88532792Y-98926774D01*
X88528639Y-98928558D01*
X88528636Y-98928559D01*
X88517106Y-98933513D01*
X88506736Y-98936664D01*
X88503164Y-98937329D01*
X88489947Y-98939791D01*
X88486094Y-98942166D01*
X88464147Y-98955694D01*
X88457779Y-98959002D01*
X88433119Y-98969597D01*
X88433117Y-98969598D01*
X88429938Y-98970964D01*
X88425052Y-98974977D01*
X88416553Y-98983476D01*
X88407617Y-98990540D01*
X88398504Y-98996157D01*
X88398502Y-98996159D01*
X88394652Y-98998532D01*
X88391913Y-99002134D01*
X88391912Y-99002135D01*
X88374936Y-99024460D01*
X88370580Y-99029449D01*
X84756657Y-102643372D01*
X84722009Y-102657724D01*
X84687361Y-102643372D01*
X84676741Y-102627480D01*
X84675767Y-102625130D01*
X84675766Y-102625128D01*
X84674536Y-102622159D01*
X84578282Y-102496718D01*
X84452841Y-102400464D01*
X84449878Y-102399237D01*
X84449875Y-102399235D01*
X84309728Y-102341184D01*
X84309724Y-102341183D01*
X84306762Y-102339956D01*
X84303581Y-102339537D01*
X84303580Y-102339537D01*
X84153183Y-102319737D01*
X84150000Y-102319318D01*
X84139238Y-102320735D01*
X84103013Y-102311029D01*
X84098194Y-102306802D01*
X83994279Y-102202886D01*
X83889852Y-102098459D01*
X83875500Y-102063811D01*
X83875500Y-101755252D01*
X83863867Y-101696769D01*
X83850351Y-101676541D01*
X83823049Y-101635681D01*
X83815732Y-101598899D01*
X83836568Y-101567716D01*
X83851229Y-101557920D01*
X83857920Y-101551229D01*
X83907813Y-101476559D01*
X83911437Y-101467808D01*
X83924529Y-101401990D01*
X83925000Y-101397214D01*
X83925000Y-101059747D01*
X83922145Y-101052855D01*
X83915253Y-101050000D01*
X82734747Y-101050000D01*
X82727855Y-101052855D01*
X82725000Y-101059747D01*
X82725000Y-101397214D01*
X82725471Y-101401990D01*
X82738563Y-101467808D01*
X82742187Y-101476559D01*
X82792080Y-101551229D01*
X82798771Y-101557920D01*
X82813432Y-101567716D01*
X82834267Y-101598898D01*
X82826951Y-101635681D01*
X82799649Y-101676541D01*
X82786133Y-101696769D01*
X82774500Y-101755252D01*
X82774500Y-101925500D01*
X82760148Y-101960148D01*
X82725500Y-101974500D01*
X82449500Y-101974500D01*
X82414852Y-101960148D01*
X82400500Y-101925500D01*
X82400500Y-101905252D01*
X82388867Y-101846769D01*
X82344552Y-101780448D01*
X82278231Y-101736133D01*
X82219748Y-101724500D01*
X81480252Y-101724500D01*
X81421769Y-101736133D01*
X81355448Y-101780448D01*
X81311133Y-101846769D01*
X81299500Y-101905252D01*
X81299500Y-102844748D01*
X81311133Y-102903231D01*
X81355448Y-102969552D01*
X81364003Y-102975268D01*
X81377457Y-102984258D01*
X81398292Y-103015441D01*
X81390976Y-103052223D01*
X81377458Y-103065741D01*
X81355448Y-103080448D01*
X81311133Y-103146769D01*
X81299500Y-103205252D01*
X81299500Y-103225500D01*
X81285148Y-103260148D01*
X81250500Y-103274500D01*
X80835423Y-103274500D01*
X80800775Y-103260148D01*
X80786842Y-103231895D01*
X80785463Y-103221420D01*
X80785463Y-103221419D01*
X80785044Y-103218238D01*
X80783817Y-103215276D01*
X80783816Y-103215272D01*
X80725765Y-103075125D01*
X80725763Y-103075122D01*
X80724536Y-103072159D01*
X80650189Y-102975268D01*
X80630238Y-102949267D01*
X80628282Y-102946718D01*
X80619671Y-102940111D01*
X80600919Y-102907634D01*
X80600500Y-102901237D01*
X80600500Y-101106189D01*
X80614852Y-101071541D01*
X80896139Y-100790253D01*
X82725000Y-100790253D01*
X82727855Y-100797145D01*
X82734747Y-100800000D01*
X83190253Y-100800000D01*
X83197145Y-100797145D01*
X83200000Y-100790253D01*
X83450000Y-100790253D01*
X83452855Y-100797145D01*
X83459747Y-100800000D01*
X83915253Y-100800000D01*
X83922145Y-100797145D01*
X83925000Y-100790253D01*
X83925000Y-100452786D01*
X83924529Y-100448010D01*
X83911437Y-100382192D01*
X83907813Y-100373441D01*
X83857920Y-100298771D01*
X83851229Y-100292080D01*
X83776559Y-100242187D01*
X83767808Y-100238563D01*
X83701990Y-100225471D01*
X83697214Y-100225000D01*
X83459747Y-100225000D01*
X83452855Y-100227855D01*
X83450000Y-100234747D01*
X83450000Y-100790253D01*
X83200000Y-100790253D01*
X83200000Y-100234747D01*
X83197145Y-100227855D01*
X83190253Y-100225000D01*
X82952786Y-100225000D01*
X82948010Y-100225471D01*
X82882192Y-100238563D01*
X82873441Y-100242187D01*
X82798771Y-100292080D01*
X82792080Y-100298771D01*
X82742187Y-100373441D01*
X82738563Y-100382192D01*
X82725471Y-100448010D01*
X82725000Y-100452786D01*
X82725000Y-100790253D01*
X80896139Y-100790253D01*
X81062840Y-100623552D01*
X81097488Y-100609200D01*
X81107676Y-100610271D01*
X81242679Y-100638967D01*
X81242682Y-100638967D01*
X81245188Y-100639500D01*
X81424812Y-100639500D01*
X81427318Y-100638967D01*
X81427321Y-100638967D01*
X81540352Y-100614941D01*
X81600510Y-100602154D01*
X81764604Y-100529095D01*
X81766680Y-100527587D01*
X81907851Y-100425020D01*
X81907853Y-100425018D01*
X81909922Y-100423515D01*
X81911634Y-100421613D01*
X81911638Y-100421610D01*
X82028390Y-100291943D01*
X82028392Y-100291941D01*
X82030113Y-100290029D01*
X82101876Y-100165733D01*
X82118640Y-100136697D01*
X82118641Y-100136696D01*
X82119925Y-100134471D01*
X82175431Y-99963639D01*
X82183489Y-99886976D01*
X82193565Y-99791112D01*
X82207649Y-99761586D01*
X82269513Y-99699722D01*
X82274332Y-99695496D01*
X82300733Y-99675238D01*
X82303282Y-99673282D01*
X82305441Y-99670469D01*
X82397580Y-99550390D01*
X82399536Y-99547841D01*
X82400765Y-99544875D01*
X82458816Y-99404728D01*
X82458817Y-99404724D01*
X82460044Y-99401762D01*
X82475500Y-99284361D01*
X82479636Y-99252944D01*
X82480263Y-99248183D01*
X82480682Y-99245000D01*
X82475919Y-99208821D01*
X82475500Y-99202426D01*
X82475500Y-98399500D01*
X82489852Y-98364852D01*
X82524500Y-98350500D01*
X82894748Y-98350500D01*
X82953231Y-98338867D01*
X82963106Y-98332269D01*
X82986995Y-98316306D01*
X83019552Y-98294552D01*
X83043378Y-98258895D01*
X83061185Y-98232245D01*
X83063867Y-98228231D01*
X83075500Y-98169748D01*
X83075500Y-96936189D01*
X83089852Y-96901541D01*
X84526541Y-95464852D01*
X84561189Y-95450500D01*
X91769083Y-95450500D01*
X91782300Y-95455975D01*
X91798854Y-95450500D01*
X92426237Y-95450500D01*
X92460885Y-95464852D01*
X92465117Y-95469679D01*
X92465884Y-95470679D01*
X92475583Y-95506906D01*
X92456825Y-95539380D01*
X92427004Y-95549500D01*
X91805626Y-95549500D01*
X91798805Y-95548999D01*
X91794658Y-95547575D01*
X91791243Y-95547703D01*
X91783411Y-95543016D01*
X91770921Y-95548466D01*
X91744280Y-95549466D01*
X91742442Y-95549500D01*
X91722052Y-95549500D01*
X91719831Y-95549914D01*
X91718362Y-95550049D01*
X91713074Y-95550637D01*
X91687317Y-95551604D01*
X91687316Y-95551604D01*
X91682792Y-95551774D01*
X91678633Y-95553561D01*
X91678632Y-95553561D01*
X91667106Y-95558513D01*
X91656736Y-95561664D01*
X91644392Y-95563963D01*
X91644391Y-95563963D01*
X91639947Y-95564791D01*
X91636098Y-95567163D01*
X91636094Y-95567165D01*
X91614151Y-95580691D01*
X91607783Y-95584000D01*
X91589252Y-95591962D01*
X91579937Y-95595964D01*
X91575051Y-95599978D01*
X91566553Y-95608476D01*
X91557617Y-95615540D01*
X91548504Y-95621157D01*
X91548502Y-95621159D01*
X91544652Y-95623532D01*
X91541913Y-95627134D01*
X91541912Y-95627135D01*
X91524936Y-95649460D01*
X91520580Y-95654449D01*
X90251850Y-96923179D01*
X90246673Y-96927648D01*
X90242731Y-96929575D01*
X90239655Y-96932891D01*
X90208440Y-96966541D01*
X90207164Y-96967865D01*
X90192752Y-96982277D01*
X90191478Y-96984134D01*
X90190533Y-96985271D01*
X90187210Y-96989427D01*
X90166599Y-97011646D01*
X90164925Y-97015841D01*
X90164921Y-97015848D01*
X90160269Y-97027509D01*
X90155166Y-97037067D01*
X90145508Y-97051146D01*
X90138614Y-97080200D01*
X90138512Y-97080628D01*
X90136347Y-97087473D01*
X90126651Y-97111777D01*
X90125117Y-97115622D01*
X90124500Y-97121915D01*
X90124500Y-97133936D01*
X90123176Y-97145250D01*
X90119660Y-97160066D01*
X90120271Y-97164553D01*
X90124052Y-97192338D01*
X90124500Y-97198946D01*
X90124500Y-97519374D01*
X90123999Y-97526195D01*
X90122575Y-97530342D01*
X90123567Y-97556762D01*
X90124466Y-97580720D01*
X90124500Y-97582558D01*
X90124500Y-97602948D01*
X90124914Y-97605169D01*
X90125049Y-97606638D01*
X90125637Y-97611926D01*
X90126774Y-97642208D01*
X90128561Y-97646367D01*
X90128561Y-97646368D01*
X90133513Y-97657894D01*
X90136664Y-97668264D01*
X90139791Y-97685053D01*
X90142163Y-97688902D01*
X90142165Y-97688906D01*
X90155691Y-97710849D01*
X90159000Y-97717217D01*
X90170964Y-97745063D01*
X90174978Y-97749949D01*
X90183476Y-97758447D01*
X90190540Y-97767383D01*
X90196157Y-97776496D01*
X90196159Y-97776498D01*
X90198532Y-97780348D01*
X90202134Y-97783087D01*
X90202135Y-97783088D01*
X90224460Y-97800064D01*
X90229449Y-97804420D01*
X90748179Y-98323150D01*
X90752648Y-98328327D01*
X90754575Y-98332269D01*
X90761688Y-98338867D01*
X90791541Y-98366560D01*
X90792865Y-98367836D01*
X90807277Y-98382248D01*
X90809134Y-98383522D01*
X90810271Y-98384467D01*
X90814427Y-98387790D01*
X90836646Y-98408401D01*
X90851562Y-98414352D01*
X90852502Y-98414727D01*
X90862061Y-98419831D01*
X90876146Y-98429493D01*
X90880546Y-98430537D01*
X90880548Y-98430538D01*
X90905635Y-98436491D01*
X90912478Y-98438655D01*
X90937413Y-98448603D01*
X90937415Y-98448603D01*
X90940622Y-98449883D01*
X90944707Y-98450284D01*
X90945729Y-98450384D01*
X90945735Y-98450384D01*
X90946915Y-98450500D01*
X90958935Y-98450500D01*
X90970248Y-98451824D01*
X90980660Y-98454295D01*
X90980663Y-98454295D01*
X90985066Y-98455340D01*
X91017338Y-98450948D01*
X91023946Y-98450500D01*
X91577800Y-98450500D01*
X91612448Y-98464852D01*
X91615306Y-98467968D01*
X91651842Y-98511433D01*
X91766273Y-98587605D01*
X91897484Y-98628598D01*
X91900974Y-98628662D01*
X91933395Y-98629256D01*
X92034926Y-98631117D01*
X92167551Y-98594960D01*
X92170527Y-98593133D01*
X92281724Y-98524858D01*
X92281727Y-98524856D01*
X92284697Y-98523032D01*
X92297618Y-98508758D01*
X92374601Y-98423707D01*
X92374602Y-98423706D01*
X92376946Y-98421116D01*
X92378469Y-98417973D01*
X92435361Y-98300550D01*
X92435362Y-98300548D01*
X92436884Y-98297406D01*
X92440570Y-98275500D01*
X92450900Y-98214095D01*
X92459690Y-98161846D01*
X92459835Y-98150000D01*
X92440347Y-98013923D01*
X92435766Y-98003846D01*
X92397543Y-97919781D01*
X92396267Y-97882300D01*
X92421868Y-97854894D01*
X92442149Y-97850500D01*
X100619374Y-97850500D01*
X100626195Y-97851001D01*
X100630342Y-97852425D01*
X100680720Y-97850534D01*
X100682558Y-97850500D01*
X100702948Y-97850500D01*
X100705169Y-97850086D01*
X100706638Y-97849951D01*
X100711926Y-97849363D01*
X100737683Y-97848396D01*
X100737684Y-97848396D01*
X100742208Y-97848226D01*
X100746367Y-97846439D01*
X100746368Y-97846439D01*
X100757894Y-97841487D01*
X100768264Y-97838336D01*
X100780608Y-97836037D01*
X100780609Y-97836037D01*
X100785053Y-97835209D01*
X100788902Y-97832837D01*
X100788906Y-97832835D01*
X100810849Y-97819309D01*
X100817217Y-97816000D01*
X100841891Y-97805399D01*
X100841892Y-97805398D01*
X100845063Y-97804036D01*
X100849949Y-97800022D01*
X100858447Y-97791524D01*
X100867383Y-97784460D01*
X100876496Y-97778843D01*
X100876498Y-97778841D01*
X100880348Y-97776468D01*
X100887257Y-97767383D01*
X100900064Y-97750540D01*
X100904420Y-97745551D01*
X101935119Y-96714852D01*
X101969767Y-96700500D01*
X105565021Y-96700500D01*
X105599669Y-96714852D01*
X105600939Y-96717919D01*
X105605150Y-96710626D01*
X105634979Y-96700500D01*
X106113003Y-96700500D01*
X106147651Y-96714852D01*
X106156988Y-96730838D01*
X106158025Y-96730382D01*
X106213389Y-96856205D01*
X106215635Y-96858877D01*
X106299059Y-96958122D01*
X106301842Y-96961433D01*
X106416273Y-97037605D01*
X106547484Y-97078598D01*
X106550974Y-97078662D01*
X106583395Y-97079256D01*
X106684926Y-97081117D01*
X106817551Y-97044960D01*
X106820527Y-97043133D01*
X106931724Y-96974858D01*
X106931727Y-96974856D01*
X106934697Y-96973032D01*
X106938159Y-96969208D01*
X107024601Y-96873707D01*
X107024602Y-96873706D01*
X107026946Y-96871116D01*
X107028469Y-96867973D01*
X107085361Y-96750550D01*
X107085362Y-96750548D01*
X107086884Y-96747406D01*
X107088947Y-96735148D01*
X107105916Y-96634276D01*
X107109690Y-96611846D01*
X107109835Y-96600000D01*
X107109053Y-96594535D01*
X107090842Y-96467381D01*
X107090347Y-96463923D01*
X107033450Y-96338785D01*
X106943719Y-96234646D01*
X106828365Y-96159878D01*
X106825021Y-96158878D01*
X106825019Y-96158877D01*
X106734199Y-96131716D01*
X106696663Y-96120490D01*
X106623436Y-96120043D01*
X106562688Y-96119672D01*
X106562686Y-96119672D01*
X106559200Y-96119651D01*
X106558566Y-96119832D01*
X106542786Y-96119068D01*
X106519365Y-96113510D01*
X106512527Y-96111347D01*
X106487597Y-96101401D01*
X106487595Y-96101401D01*
X106484378Y-96100117D01*
X106480933Y-96099779D01*
X106480932Y-96099779D01*
X106479271Y-96099616D01*
X106479265Y-96099616D01*
X106478085Y-96099500D01*
X106466064Y-96099500D01*
X106454750Y-96098176D01*
X106444338Y-96095705D01*
X106444337Y-96095705D01*
X106439934Y-96094660D01*
X106414099Y-96098176D01*
X106407662Y-96099052D01*
X106401054Y-96099500D01*
X102565608Y-96099500D01*
X102530960Y-96085148D01*
X102516608Y-96050500D01*
X102521511Y-96029135D01*
X102535361Y-96000549D01*
X102536884Y-95997406D01*
X102559690Y-95861846D01*
X102559835Y-95850000D01*
X102540347Y-95713923D01*
X102483450Y-95588785D01*
X102478105Y-95582581D01*
X102395999Y-95487292D01*
X102393719Y-95484646D01*
X102278365Y-95409878D01*
X102275021Y-95408878D01*
X102275019Y-95408877D01*
X102150013Y-95371492D01*
X102150014Y-95371492D01*
X102146663Y-95370490D01*
X102076078Y-95370059D01*
X102012692Y-95369672D01*
X102012690Y-95369672D01*
X102009200Y-95369651D01*
X102005845Y-95370610D01*
X102005844Y-95370610D01*
X102002758Y-95371492D01*
X101877027Y-95407426D01*
X101760769Y-95480780D01*
X101758459Y-95483396D01*
X101714706Y-95532936D01*
X101677979Y-95549500D01*
X93372996Y-95549500D01*
X93338348Y-95535148D01*
X93323996Y-95500500D01*
X93334122Y-95470671D01*
X93382652Y-95407426D01*
X93424536Y-95352841D01*
X93425765Y-95349875D01*
X93483816Y-95209728D01*
X93483817Y-95209724D01*
X93485044Y-95206762D01*
X93505682Y-95050000D01*
X93485044Y-94893238D01*
X93483817Y-94890276D01*
X93483816Y-94890272D01*
X93425765Y-94750125D01*
X93425763Y-94750122D01*
X93424536Y-94747159D01*
X93328282Y-94621718D01*
X93278311Y-94583374D01*
X93259559Y-94550896D01*
X93269266Y-94514671D01*
X93301744Y-94495919D01*
X93308140Y-94495500D01*
X108275500Y-94495500D01*
X108310148Y-94509852D01*
X108324500Y-94544500D01*
X108324500Y-96789108D01*
X108324455Y-96840563D01*
X108326843Y-96845537D01*
X108326844Y-96845540D01*
X108332138Y-96856565D01*
X108335738Y-96866875D01*
X108338460Y-96878804D01*
X108339688Y-96884185D01*
X108343125Y-96888498D01*
X108350614Y-96897896D01*
X108356464Y-96907222D01*
X108364052Y-96923024D01*
X108368362Y-96926470D01*
X108368362Y-96926471D01*
X108377917Y-96934113D01*
X108385632Y-96941842D01*
X108392278Y-96950181D01*
X108396695Y-96955724D01*
X108401667Y-96958122D01*
X108412485Y-96963340D01*
X108421798Y-96969205D01*
X108435492Y-96980156D01*
X108440869Y-96981392D01*
X108440870Y-96981393D01*
X108452795Y-96984135D01*
X108463101Y-96987755D01*
X108474116Y-96993068D01*
X108474119Y-96993069D01*
X108479087Y-96995465D01*
X108484603Y-96995470D01*
X108484604Y-96995470D01*
X108502132Y-96995485D01*
X108502163Y-96995487D01*
X108502219Y-96995500D01*
X108519108Y-96995500D01*
X108570318Y-96995545D01*
X108570563Y-96995545D01*
X108570638Y-96995509D01*
X108570719Y-96995500D01*
X112425500Y-96995500D01*
X112460148Y-97009852D01*
X112474500Y-97044500D01*
X112474500Y-98585630D01*
X112460148Y-98620278D01*
X112425500Y-98634630D01*
X112415947Y-98633690D01*
X112369748Y-98624500D01*
X109330252Y-98624500D01*
X109271769Y-98636133D01*
X109205448Y-98680448D01*
X109161133Y-98746769D01*
X109149500Y-98805252D01*
X109149500Y-99105233D01*
X109135148Y-99139881D01*
X106526850Y-101748179D01*
X106521673Y-101752648D01*
X106517731Y-101754575D01*
X106514655Y-101757891D01*
X106483440Y-101791541D01*
X106482164Y-101792865D01*
X106467752Y-101807277D01*
X106466478Y-101809134D01*
X106465533Y-101810271D01*
X106462210Y-101814427D01*
X106441599Y-101836646D01*
X106439925Y-101840841D01*
X106439921Y-101840848D01*
X106435269Y-101852509D01*
X106430166Y-101862067D01*
X106420508Y-101876146D01*
X106414163Y-101902886D01*
X106413512Y-101905628D01*
X106411347Y-101912473D01*
X106406150Y-101925500D01*
X106400117Y-101940622D01*
X106399500Y-101946915D01*
X106399500Y-101958936D01*
X106398176Y-101970250D01*
X106394660Y-101985066D01*
X106395271Y-101989553D01*
X106399052Y-102017338D01*
X106399500Y-102023946D01*
X106399500Y-107744374D01*
X106398999Y-107751195D01*
X106397575Y-107755342D01*
X106399130Y-107796769D01*
X106399466Y-107805720D01*
X106399500Y-107807558D01*
X106399500Y-107827948D01*
X106399914Y-107830169D01*
X106400049Y-107831638D01*
X106400637Y-107836926D01*
X106401233Y-107852786D01*
X106401774Y-107867208D01*
X106403561Y-107871367D01*
X106403561Y-107871368D01*
X106408513Y-107882894D01*
X106411664Y-107893264D01*
X106412351Y-107896950D01*
X106414791Y-107910053D01*
X106417163Y-107913902D01*
X106417165Y-107913906D01*
X106430691Y-107935849D01*
X106434000Y-107942217D01*
X106439601Y-107955252D01*
X106445964Y-107970063D01*
X106449978Y-107974949D01*
X106458476Y-107983447D01*
X106465540Y-107992383D01*
X106471157Y-108001496D01*
X106471159Y-108001498D01*
X106473532Y-108005348D01*
X106477134Y-108008087D01*
X106477135Y-108008088D01*
X106499460Y-108025064D01*
X106504449Y-108029420D01*
X108104866Y-109629837D01*
X108119218Y-109664485D01*
X108118635Y-109672018D01*
X108115201Y-109694077D01*
X108115653Y-109697534D01*
X108115653Y-109697537D01*
X108129852Y-109806117D01*
X108133025Y-109830382D01*
X108188389Y-109956205D01*
X108190635Y-109958877D01*
X108273743Y-110057746D01*
X108276842Y-110061433D01*
X108391273Y-110137605D01*
X108522484Y-110178598D01*
X108525974Y-110178662D01*
X108558395Y-110179256D01*
X108659926Y-110181117D01*
X108792551Y-110144960D01*
X108795527Y-110143133D01*
X108906724Y-110074858D01*
X108906727Y-110074856D01*
X108909697Y-110073032D01*
X108917139Y-110064811D01*
X108999601Y-109973707D01*
X108999602Y-109973706D01*
X109001946Y-109971116D01*
X109007876Y-109958877D01*
X109059296Y-109852748D01*
X109087319Y-109827824D01*
X109124758Y-109830016D01*
X109149682Y-109858039D01*
X109151447Y-109864534D01*
X109161133Y-109913231D01*
X109205448Y-109979552D01*
X109271769Y-110023867D01*
X109330252Y-110035500D01*
X112369748Y-110035500D01*
X112415943Y-110026311D01*
X112452723Y-110033628D01*
X112473559Y-110064811D01*
X112474500Y-110074370D01*
X112474500Y-111045500D01*
X112460148Y-111080148D01*
X112425500Y-111094500D01*
X108530892Y-111094500D01*
X108479437Y-111094455D01*
X108474463Y-111096843D01*
X108474460Y-111096844D01*
X108463435Y-111102138D01*
X108453125Y-111105738D01*
X108441196Y-111108460D01*
X108441194Y-111108461D01*
X108435815Y-111109688D01*
X108431502Y-111113125D01*
X108422104Y-111120614D01*
X108412778Y-111126464D01*
X108409911Y-111127841D01*
X108396976Y-111134052D01*
X108393530Y-111138362D01*
X108393529Y-111138362D01*
X108385887Y-111147917D01*
X108378158Y-111155632D01*
X108372735Y-111159954D01*
X108364276Y-111166695D01*
X108361878Y-111171667D01*
X108356660Y-111182485D01*
X108350795Y-111191798D01*
X108339844Y-111205492D01*
X108338608Y-111210869D01*
X108338607Y-111210870D01*
X108335865Y-111222795D01*
X108332245Y-111233101D01*
X108326932Y-111244116D01*
X108326931Y-111244119D01*
X108324535Y-111249087D01*
X108324530Y-111254603D01*
X108324530Y-111254604D01*
X108324515Y-111272132D01*
X108324513Y-111272163D01*
X108324500Y-111272219D01*
X108324500Y-111289108D01*
X108324455Y-111340563D01*
X108324491Y-111340638D01*
X108324500Y-111340719D01*
X108324500Y-113545500D01*
X108310148Y-113580148D01*
X108275500Y-113594500D01*
X105528080Y-113594500D01*
X105493432Y-113580148D01*
X105479080Y-113545500D01*
X105491752Y-113512618D01*
X105549601Y-113448707D01*
X105549602Y-113448706D01*
X105551946Y-113446116D01*
X105557876Y-113433877D01*
X105610361Y-113325550D01*
X105610362Y-113325548D01*
X105611884Y-113322406D01*
X105615052Y-113303580D01*
X105634376Y-113188710D01*
X105634690Y-113186846D01*
X105634835Y-113175000D01*
X105632725Y-113160262D01*
X105615842Y-113042381D01*
X105615347Y-113038923D01*
X105603884Y-113013710D01*
X105584712Y-112971545D01*
X105558450Y-112913785D01*
X105512748Y-112860744D01*
X105470999Y-112812292D01*
X105468719Y-112809646D01*
X105353365Y-112734878D01*
X105350021Y-112733878D01*
X105350019Y-112733877D01*
X105225013Y-112696492D01*
X105225014Y-112696492D01*
X105221663Y-112695490D01*
X105151078Y-112695059D01*
X105087692Y-112694672D01*
X105087690Y-112694672D01*
X105084200Y-112694651D01*
X105080845Y-112695610D01*
X105080844Y-112695610D01*
X104955382Y-112731467D01*
X104952027Y-112732426D01*
X104951366Y-112732843D01*
X104914882Y-112733867D01*
X104897708Y-112722737D01*
X102870946Y-110695975D01*
X102856594Y-110661327D01*
X102864958Y-110641136D01*
X102864378Y-110640896D01*
X102875000Y-110615253D01*
X103125000Y-110615253D01*
X103127855Y-110622145D01*
X103134747Y-110625000D01*
X103472214Y-110625000D01*
X103476990Y-110624529D01*
X103542808Y-110611437D01*
X103551559Y-110607813D01*
X103626229Y-110557920D01*
X103632920Y-110551229D01*
X103642716Y-110536568D01*
X103673898Y-110515733D01*
X103710681Y-110523049D01*
X103762869Y-110557920D01*
X103771769Y-110563867D01*
X103830252Y-110575500D01*
X103950500Y-110575500D01*
X103985148Y-110589852D01*
X103999500Y-110624500D01*
X103999500Y-110894374D01*
X103998999Y-110901195D01*
X103997575Y-110905342D01*
X103997745Y-110909858D01*
X103999466Y-110955720D01*
X103999500Y-110957558D01*
X103999500Y-110977948D01*
X103999914Y-110980169D01*
X104000049Y-110981638D01*
X104000637Y-110986926D01*
X104001774Y-111017208D01*
X104003561Y-111021367D01*
X104003561Y-111021368D01*
X104008513Y-111032894D01*
X104011664Y-111043264D01*
X104012081Y-111045500D01*
X104014791Y-111060053D01*
X104017163Y-111063902D01*
X104017165Y-111063906D01*
X104030691Y-111085849D01*
X104034000Y-111092217D01*
X104038263Y-111102138D01*
X104045964Y-111120063D01*
X104049978Y-111124949D01*
X104058476Y-111133447D01*
X104065540Y-111142383D01*
X104071157Y-111151496D01*
X104071159Y-111151498D01*
X104073532Y-111155348D01*
X104077134Y-111158087D01*
X104077135Y-111158088D01*
X104099460Y-111175064D01*
X104104449Y-111179420D01*
X104304866Y-111379837D01*
X104319218Y-111414485D01*
X104318635Y-111422018D01*
X104315201Y-111444077D01*
X104315653Y-111447534D01*
X104315653Y-111447537D01*
X104329320Y-111552052D01*
X104333025Y-111580382D01*
X104388389Y-111706205D01*
X104390635Y-111708877D01*
X104468787Y-111801850D01*
X104476842Y-111811433D01*
X104591273Y-111887605D01*
X104722484Y-111928598D01*
X104725974Y-111928662D01*
X104758395Y-111929256D01*
X104859926Y-111931117D01*
X104992551Y-111894960D01*
X104995527Y-111893133D01*
X105106724Y-111824858D01*
X105106727Y-111824856D01*
X105109697Y-111823032D01*
X105122618Y-111808758D01*
X105199601Y-111723707D01*
X105199602Y-111723706D01*
X105201946Y-111721116D01*
X105204948Y-111714921D01*
X105260361Y-111600550D01*
X105260362Y-111600548D01*
X105261884Y-111597406D01*
X105265331Y-111576920D01*
X105275343Y-111517404D01*
X105284690Y-111461846D01*
X105284835Y-111450000D01*
X105284483Y-111447537D01*
X105269212Y-111340913D01*
X105265347Y-111313923D01*
X105262440Y-111307528D01*
X105235450Y-111248169D01*
X105208450Y-111188785D01*
X105198359Y-111177073D01*
X105120999Y-111087292D01*
X105118719Y-111084646D01*
X105003365Y-111009878D01*
X105000021Y-111008878D01*
X105000019Y-111008877D01*
X104908939Y-110981638D01*
X104871663Y-110970490D01*
X104764807Y-110969838D01*
X104730458Y-110955487D01*
X104614852Y-110839881D01*
X104600500Y-110805233D01*
X104600500Y-110624500D01*
X104614852Y-110589852D01*
X104649500Y-110575500D01*
X104769748Y-110575500D01*
X104828231Y-110563867D01*
X104840930Y-110555382D01*
X104878006Y-110530608D01*
X104894552Y-110519552D01*
X104938867Y-110453231D01*
X104950500Y-110394748D01*
X104950500Y-109655252D01*
X104938867Y-109596769D01*
X104923280Y-109573441D01*
X104897232Y-109534459D01*
X104894552Y-109530448D01*
X104828231Y-109486133D01*
X104769748Y-109474500D01*
X104649500Y-109474500D01*
X104614852Y-109460148D01*
X104600500Y-109425500D01*
X104600500Y-107711792D01*
X104614852Y-107677144D01*
X104623859Y-107670036D01*
X104638990Y-107660746D01*
X104656724Y-107649858D01*
X104656727Y-107649856D01*
X104659697Y-107648032D01*
X104672138Y-107634288D01*
X104749601Y-107548707D01*
X104749602Y-107548706D01*
X104751946Y-107546116D01*
X104753469Y-107542973D01*
X104810361Y-107425550D01*
X104810362Y-107425548D01*
X104811884Y-107422406D01*
X104813206Y-107414553D01*
X104828737Y-107322232D01*
X104834690Y-107286846D01*
X104834749Y-107282048D01*
X104834812Y-107276902D01*
X104834812Y-107276898D01*
X104834835Y-107275000D01*
X104834483Y-107272537D01*
X104816562Y-107147406D01*
X104815347Y-107138923D01*
X104812917Y-107133577D01*
X104787156Y-107076920D01*
X104758450Y-107013785D01*
X104746572Y-107000000D01*
X104671000Y-106912293D01*
X104670999Y-106912292D01*
X104668719Y-106909646D01*
X104669002Y-106909402D01*
X104653330Y-106877836D01*
X104665289Y-106842291D01*
X104702216Y-106825500D01*
X104894748Y-106825500D01*
X104953231Y-106813867D01*
X105019552Y-106769552D01*
X105048038Y-106726920D01*
X105061185Y-106707245D01*
X105063867Y-106703231D01*
X105075500Y-106644748D01*
X105075500Y-105905252D01*
X105063867Y-105846769D01*
X105053409Y-105831117D01*
X105022232Y-105784459D01*
X105019552Y-105780448D01*
X104953231Y-105736133D01*
X104894748Y-105724500D01*
X104349500Y-105724500D01*
X104314852Y-105710148D01*
X104300500Y-105675500D01*
X104300500Y-104027075D01*
X104313172Y-103994193D01*
X104399601Y-103898707D01*
X104399602Y-103898706D01*
X104401946Y-103896116D01*
X104407876Y-103883877D01*
X104460361Y-103775550D01*
X104460362Y-103775548D01*
X104461884Y-103772406D01*
X104465331Y-103751920D01*
X104476464Y-103685744D01*
X104484690Y-103636846D01*
X104484835Y-103625000D01*
X104484483Y-103622537D01*
X104465842Y-103492381D01*
X104465347Y-103488923D01*
X104463841Y-103485609D01*
X104445277Y-103444781D01*
X104444001Y-103407300D01*
X104469602Y-103379894D01*
X104489883Y-103375500D01*
X104919748Y-103375500D01*
X104978231Y-103363867D01*
X105044552Y-103319552D01*
X105070525Y-103280682D01*
X105086185Y-103257245D01*
X105088867Y-103253231D01*
X105100500Y-103194748D01*
X105100500Y-102455252D01*
X105088867Y-102396769D01*
X105073280Y-102373441D01*
X105047232Y-102334459D01*
X105044552Y-102330448D01*
X104978231Y-102286133D01*
X104919748Y-102274500D01*
X104899500Y-102274500D01*
X104864852Y-102260148D01*
X104850500Y-102225500D01*
X104850500Y-101711189D01*
X104864852Y-101676541D01*
X104898195Y-101643198D01*
X104932843Y-101628846D01*
X104939235Y-101629265D01*
X104950000Y-101630682D01*
X104953183Y-101630263D01*
X105103580Y-101610463D01*
X105103581Y-101610463D01*
X105106762Y-101610044D01*
X105109724Y-101608817D01*
X105109728Y-101608816D01*
X105249875Y-101550765D01*
X105249878Y-101550763D01*
X105252841Y-101549536D01*
X105378282Y-101453282D01*
X105474536Y-101327841D01*
X105475765Y-101324875D01*
X105533816Y-101184728D01*
X105533817Y-101184724D01*
X105535044Y-101181762D01*
X105551108Y-101059747D01*
X105555263Y-101028183D01*
X105555682Y-101025000D01*
X105549183Y-100975637D01*
X105535463Y-100871420D01*
X105535463Y-100871419D01*
X105535044Y-100868238D01*
X105533817Y-100865276D01*
X105533816Y-100865272D01*
X105475765Y-100725125D01*
X105475763Y-100725122D01*
X105474536Y-100722159D01*
X105391484Y-100613923D01*
X105380238Y-100599267D01*
X105378282Y-100596718D01*
X105252841Y-100500464D01*
X105249878Y-100499237D01*
X105249875Y-100499235D01*
X105109728Y-100441184D01*
X105109724Y-100441183D01*
X105106762Y-100439956D01*
X105103581Y-100439537D01*
X105103580Y-100439537D01*
X104953183Y-100419737D01*
X104950000Y-100419318D01*
X104946817Y-100419737D01*
X104946816Y-100419737D01*
X104905895Y-100425124D01*
X104869670Y-100415417D01*
X104850919Y-100382938D01*
X104850500Y-100376543D01*
X104850500Y-100232075D01*
X104864852Y-100197427D01*
X104877422Y-100189028D01*
X104878231Y-100188867D01*
X104882461Y-100186041D01*
X104933552Y-100151902D01*
X104944552Y-100144552D01*
X104972162Y-100103231D01*
X104986185Y-100082245D01*
X104988867Y-100078231D01*
X105000500Y-100019748D01*
X105000500Y-99280252D01*
X104988867Y-99221769D01*
X104973280Y-99198441D01*
X104947232Y-99159459D01*
X104944552Y-99155448D01*
X104878231Y-99111133D01*
X104819748Y-99099500D01*
X103880252Y-99099500D01*
X103821769Y-99111133D01*
X103817755Y-99113815D01*
X103760681Y-99151951D01*
X103723899Y-99159268D01*
X103692716Y-99138432D01*
X103682920Y-99123771D01*
X103676229Y-99117080D01*
X103601559Y-99067187D01*
X103592808Y-99063563D01*
X103526990Y-99050471D01*
X103522214Y-99050000D01*
X103184747Y-99050000D01*
X103177855Y-99052855D01*
X103175000Y-99059747D01*
X103175000Y-100240253D01*
X103177855Y-100247145D01*
X103184747Y-100250000D01*
X103522214Y-100250000D01*
X103526990Y-100249529D01*
X103592808Y-100236437D01*
X103601559Y-100232813D01*
X103676229Y-100182920D01*
X103682920Y-100176229D01*
X103692716Y-100161568D01*
X103723898Y-100140733D01*
X103760681Y-100148049D01*
X103817755Y-100186185D01*
X103821769Y-100188867D01*
X103880252Y-100200500D01*
X104000500Y-100200500D01*
X104035148Y-100214852D01*
X104049500Y-100249500D01*
X104049500Y-102225500D01*
X104035148Y-102260148D01*
X104000500Y-102274500D01*
X103980252Y-102274500D01*
X103921769Y-102286133D01*
X103917755Y-102288815D01*
X103860681Y-102326951D01*
X103823899Y-102334268D01*
X103792716Y-102313432D01*
X103782920Y-102298771D01*
X103776229Y-102292080D01*
X103701559Y-102242187D01*
X103692808Y-102238563D01*
X103626990Y-102225471D01*
X103622214Y-102225000D01*
X103284747Y-102225000D01*
X103277855Y-102227855D01*
X103275000Y-102234747D01*
X103275000Y-103415253D01*
X103277855Y-103422145D01*
X103284747Y-103425000D01*
X103488456Y-103425000D01*
X103523104Y-103439352D01*
X103537456Y-103474000D01*
X103536079Y-103483206D01*
X103536350Y-103483248D01*
X103517738Y-103602786D01*
X103515201Y-103619077D01*
X103515653Y-103622534D01*
X103515653Y-103622537D01*
X103532572Y-103751920D01*
X103533025Y-103755382D01*
X103588389Y-103881205D01*
X103676842Y-103986433D01*
X103679752Y-103988370D01*
X103682351Y-103990694D01*
X103681096Y-103992098D01*
X103698546Y-104018139D01*
X103699500Y-104027762D01*
X103699500Y-105635161D01*
X103685148Y-105669809D01*
X103650500Y-105684161D01*
X103640940Y-105683219D01*
X103601988Y-105675470D01*
X103597214Y-105675000D01*
X103259747Y-105675000D01*
X103252855Y-105677855D01*
X103250000Y-105684747D01*
X103250000Y-106865253D01*
X103252855Y-106872145D01*
X103259747Y-106875000D01*
X103597214Y-106875000D01*
X103601990Y-106874529D01*
X103667808Y-106861437D01*
X103676559Y-106857813D01*
X103751229Y-106807920D01*
X103757920Y-106801229D01*
X103767716Y-106786568D01*
X103798898Y-106765733D01*
X103835681Y-106773049D01*
X103877855Y-106801229D01*
X103896769Y-106813867D01*
X103955252Y-106825500D01*
X103998021Y-106825500D01*
X104032669Y-106839852D01*
X104047021Y-106874500D01*
X104034748Y-106906936D01*
X103944771Y-107008815D01*
X103886350Y-107133248D01*
X103885813Y-107136697D01*
X103866060Y-107263563D01*
X103865201Y-107269077D01*
X103865653Y-107272534D01*
X103865653Y-107272537D01*
X103881423Y-107393133D01*
X103883025Y-107405382D01*
X103938389Y-107531205D01*
X103940635Y-107533877D01*
X103988009Y-107590236D01*
X103999500Y-107621765D01*
X103999500Y-109425500D01*
X103985148Y-109460148D01*
X103950500Y-109474500D01*
X103830252Y-109474500D01*
X103771769Y-109486133D01*
X103767755Y-109488815D01*
X103710681Y-109526951D01*
X103673899Y-109534268D01*
X103642716Y-109513432D01*
X103632920Y-109498771D01*
X103626229Y-109492080D01*
X103551559Y-109442187D01*
X103542808Y-109438563D01*
X103476990Y-109425471D01*
X103472214Y-109425000D01*
X103134747Y-109425000D01*
X103127855Y-109427855D01*
X103125000Y-109434747D01*
X103125000Y-110615253D01*
X102875000Y-110615253D01*
X102875000Y-110159747D01*
X102872145Y-110152855D01*
X102865253Y-110150000D01*
X102345267Y-110150000D01*
X102310619Y-110135648D01*
X102065224Y-109890253D01*
X102300000Y-109890253D01*
X102302855Y-109897145D01*
X102309747Y-109900000D01*
X102865253Y-109900000D01*
X102872145Y-109897145D01*
X102875000Y-109890253D01*
X102875000Y-109434747D01*
X102872145Y-109427855D01*
X102865253Y-109425000D01*
X102527786Y-109425000D01*
X102523010Y-109425471D01*
X102457192Y-109438563D01*
X102448441Y-109442187D01*
X102373771Y-109492080D01*
X102367080Y-109498771D01*
X102317187Y-109573441D01*
X102313563Y-109582192D01*
X102300471Y-109648010D01*
X102300000Y-109652786D01*
X102300000Y-109890253D01*
X102065224Y-109890253D01*
X98822185Y-106647214D01*
X102425000Y-106647214D01*
X102425471Y-106651990D01*
X102438563Y-106717808D01*
X102442187Y-106726559D01*
X102492080Y-106801229D01*
X102498771Y-106807920D01*
X102573441Y-106857813D01*
X102582192Y-106861437D01*
X102648010Y-106874529D01*
X102652786Y-106875000D01*
X102990253Y-106875000D01*
X102997145Y-106872145D01*
X103000000Y-106865253D01*
X103000000Y-106409747D01*
X102997145Y-106402855D01*
X102990253Y-106400000D01*
X102434747Y-106400000D01*
X102427855Y-106402855D01*
X102425000Y-106409747D01*
X102425000Y-106647214D01*
X98822185Y-106647214D01*
X98315224Y-106140253D01*
X102425000Y-106140253D01*
X102427855Y-106147145D01*
X102434747Y-106150000D01*
X102990253Y-106150000D01*
X102997145Y-106147145D01*
X103000000Y-106140253D01*
X103000000Y-105684747D01*
X102997145Y-105677855D01*
X102990253Y-105675000D01*
X102652786Y-105675000D01*
X102648010Y-105675471D01*
X102582192Y-105688563D01*
X102573441Y-105692187D01*
X102498771Y-105742080D01*
X102492080Y-105748771D01*
X102442187Y-105823441D01*
X102438563Y-105832192D01*
X102425471Y-105898010D01*
X102425000Y-105902786D01*
X102425000Y-106140253D01*
X98315224Y-106140253D01*
X96900229Y-104725258D01*
X96885877Y-104690610D01*
X96898548Y-104657729D01*
X96976946Y-104571116D01*
X96982876Y-104558877D01*
X97035361Y-104450550D01*
X97035362Y-104450548D01*
X97036884Y-104447406D01*
X97040331Y-104426920D01*
X97059167Y-104314956D01*
X97059690Y-104311846D01*
X97059835Y-104300000D01*
X97059483Y-104297537D01*
X97043571Y-104186433D01*
X97040347Y-104163923D01*
X97032705Y-104147114D01*
X96995385Y-104065035D01*
X96983450Y-104038785D01*
X96980783Y-104035689D01*
X96895999Y-103937292D01*
X96893719Y-103934646D01*
X96792928Y-103869317D01*
X96781295Y-103861777D01*
X96781294Y-103861777D01*
X96778365Y-103859878D01*
X96775021Y-103858878D01*
X96775019Y-103858877D01*
X96656530Y-103823441D01*
X96646663Y-103820490D01*
X96576078Y-103820059D01*
X96512692Y-103819672D01*
X96512690Y-103819672D01*
X96509200Y-103819651D01*
X96505845Y-103820610D01*
X96505844Y-103820610D01*
X96449035Y-103836846D01*
X96377027Y-103857426D01*
X96260769Y-103930780D01*
X96224006Y-103972406D01*
X96175724Y-104027075D01*
X96169771Y-104033815D01*
X96111350Y-104158248D01*
X96110813Y-104161697D01*
X96092591Y-104278729D01*
X96090201Y-104294077D01*
X96090653Y-104297534D01*
X96090653Y-104297537D01*
X96105375Y-104410119D01*
X96108025Y-104430382D01*
X96163389Y-104556205D01*
X96251842Y-104661433D01*
X96254752Y-104663370D01*
X96257351Y-104665694D01*
X96256096Y-104667098D01*
X96273546Y-104693139D01*
X96274500Y-104702762D01*
X96274500Y-104769374D01*
X96273999Y-104776195D01*
X96272575Y-104780342D01*
X96272745Y-104784858D01*
X96274466Y-104830720D01*
X96274500Y-104832558D01*
X96274500Y-104852948D01*
X96274914Y-104855169D01*
X96275049Y-104856638D01*
X96275637Y-104861926D01*
X96276774Y-104892208D01*
X96278561Y-104896367D01*
X96278561Y-104896368D01*
X96283513Y-104907894D01*
X96286664Y-104918264D01*
X96289791Y-104935053D01*
X96292163Y-104938902D01*
X96292165Y-104938906D01*
X96305691Y-104960849D01*
X96309000Y-104967217D01*
X96317889Y-104987905D01*
X96320964Y-104995063D01*
X96324978Y-104999949D01*
X96333476Y-105008447D01*
X96340540Y-105017383D01*
X96346157Y-105026496D01*
X96346159Y-105026498D01*
X96348532Y-105030348D01*
X96352134Y-105033087D01*
X96352135Y-105033088D01*
X96374460Y-105050064D01*
X96379449Y-105054420D01*
X104673182Y-113348154D01*
X104677649Y-113353328D01*
X104679575Y-113357269D01*
X104682891Y-113360345D01*
X104716527Y-113391547D01*
X104717851Y-113392823D01*
X104717868Y-113392840D01*
X104728070Y-113407754D01*
X104736981Y-113428007D01*
X104736984Y-113428012D01*
X104738389Y-113431205D01*
X104806824Y-113512618D01*
X104807961Y-113513971D01*
X104819269Y-113549728D01*
X104801981Y-113583009D01*
X104770452Y-113594500D01*
X94138019Y-113594500D01*
X94103371Y-113580148D01*
X93676893Y-113153670D01*
X93670000Y-113150815D01*
X93663107Y-113153670D01*
X93236629Y-113580148D01*
X93201981Y-113594500D01*
X92880286Y-113594500D01*
X92845638Y-113580148D01*
X92831286Y-113545500D01*
X92848463Y-113508240D01*
X92917179Y-113449551D01*
X92917181Y-113449549D01*
X92919423Y-113447634D01*
X92964578Y-113384794D01*
X92996451Y-113365031D01*
X93032963Y-113373595D01*
X93046282Y-113388003D01*
X93052147Y-113397688D01*
X93058161Y-113402105D01*
X93061652Y-113401571D01*
X93486330Y-112976893D01*
X93489185Y-112970000D01*
X93850815Y-112970000D01*
X93853670Y-112976893D01*
X94274707Y-113397930D01*
X94281600Y-113400785D01*
X94285301Y-113399252D01*
X94339765Y-113317278D01*
X94342258Y-113312427D01*
X94400060Y-113160262D01*
X94401415Y-113154984D01*
X94424237Y-112992606D01*
X94424474Y-112989526D01*
X94424724Y-112971545D01*
X94424574Y-112968469D01*
X94406296Y-112805511D01*
X94405088Y-112800195D01*
X94351554Y-112646471D01*
X94349203Y-112641562D01*
X94287458Y-112542749D01*
X94281385Y-112538418D01*
X94277751Y-112539026D01*
X93853670Y-112963107D01*
X93850815Y-112970000D01*
X93489185Y-112970000D01*
X93486330Y-112963107D01*
X93065000Y-112541777D01*
X93058107Y-112538922D01*
X93054557Y-112540392D01*
X93046145Y-112553445D01*
X93015313Y-112574795D01*
X92978414Y-112568090D01*
X92964575Y-112554656D01*
X92930987Y-112505786D01*
X92929312Y-112503349D01*
X92927107Y-112501384D01*
X92927104Y-112501381D01*
X92804930Y-112392528D01*
X92804929Y-112392527D01*
X92802721Y-112390560D01*
X92741985Y-112358402D01*
X93238170Y-112358402D01*
X93238740Y-112361963D01*
X93663107Y-112786330D01*
X93670000Y-112789185D01*
X93676893Y-112786330D01*
X94098409Y-112364814D01*
X94101264Y-112357921D01*
X94099825Y-112354445D01*
X94003171Y-112293106D01*
X93998279Y-112290720D01*
X93844928Y-112236114D01*
X93839624Y-112234870D01*
X93677992Y-112215597D01*
X93672545Y-112215558D01*
X93510653Y-112232575D01*
X93505335Y-112233744D01*
X93351240Y-112286202D01*
X93346311Y-112288521D01*
X93242544Y-112352359D01*
X93238170Y-112358402D01*
X92741985Y-112358402D01*
X92652881Y-112311224D01*
X92650023Y-112310506D01*
X92650020Y-112310505D01*
X92562498Y-112288521D01*
X92488441Y-112269919D01*
X92402311Y-112269468D01*
X92321848Y-112269046D01*
X92321844Y-112269046D01*
X92318895Y-112269031D01*
X92316026Y-112269720D01*
X92316024Y-112269720D01*
X92291950Y-112275500D01*
X92188417Y-112300357D01*
X92151376Y-112294491D01*
X92142330Y-112287359D01*
X90106821Y-110251850D01*
X90102352Y-110246673D01*
X90100425Y-110242731D01*
X90063459Y-110208440D01*
X90062135Y-110207164D01*
X90047723Y-110192752D01*
X90045866Y-110191478D01*
X90044729Y-110190533D01*
X90040572Y-110187209D01*
X90021668Y-110169673D01*
X90018354Y-110166599D01*
X90014159Y-110164925D01*
X90014152Y-110164921D01*
X90002491Y-110160269D01*
X89992931Y-110155165D01*
X89982584Y-110148067D01*
X89982585Y-110148067D01*
X89978854Y-110145508D01*
X89974452Y-110144463D01*
X89974451Y-110144463D01*
X89965163Y-110142259D01*
X89949369Y-110138511D01*
X89942527Y-110136347D01*
X89917597Y-110126401D01*
X89917595Y-110126401D01*
X89914378Y-110125117D01*
X89910933Y-110124779D01*
X89910932Y-110124779D01*
X89909271Y-110124616D01*
X89909265Y-110124616D01*
X89908085Y-110124500D01*
X89896064Y-110124500D01*
X89884750Y-110123176D01*
X89874338Y-110120705D01*
X89874337Y-110120705D01*
X89869934Y-110119660D01*
X89844099Y-110123176D01*
X89837662Y-110124052D01*
X89831054Y-110124500D01*
X88162136Y-110124500D01*
X88127488Y-110110148D01*
X88113136Y-110075500D01*
X88127488Y-110040852D01*
X88143384Y-110030230D01*
X88274875Y-109975765D01*
X88274878Y-109975763D01*
X88277841Y-109974536D01*
X88363902Y-109908499D01*
X88400733Y-109880238D01*
X88403282Y-109878282D01*
X88499536Y-109752841D01*
X88516517Y-109711846D01*
X88558816Y-109609728D01*
X88558817Y-109609724D01*
X88560044Y-109606762D01*
X88561105Y-109598707D01*
X88580263Y-109453183D01*
X88580682Y-109450000D01*
X88574460Y-109402738D01*
X88560463Y-109296420D01*
X88560463Y-109296419D01*
X88560044Y-109293238D01*
X88558817Y-109290276D01*
X88558816Y-109290272D01*
X88500765Y-109150125D01*
X88500763Y-109150122D01*
X88499536Y-109147159D01*
X88403282Y-109021718D01*
X88277841Y-108925464D01*
X88182740Y-108886072D01*
X88166843Y-108875450D01*
X87513607Y-108222214D01*
X92925000Y-108222214D01*
X92925471Y-108226990D01*
X92938563Y-108292808D01*
X92942187Y-108301559D01*
X92992080Y-108376229D01*
X92998771Y-108382920D01*
X93073441Y-108432813D01*
X93082192Y-108436437D01*
X93148010Y-108449529D01*
X93152786Y-108450000D01*
X93490253Y-108450000D01*
X93497145Y-108447145D01*
X93500000Y-108440253D01*
X93500000Y-107984747D01*
X93497145Y-107977855D01*
X93490253Y-107975000D01*
X92934747Y-107975000D01*
X92927855Y-107977855D01*
X92925000Y-107984747D01*
X92925000Y-108222214D01*
X87513607Y-108222214D01*
X87210909Y-107919516D01*
X87210905Y-107919513D01*
X87188342Y-107896950D01*
X87184905Y-107895199D01*
X87184901Y-107895196D01*
X87163346Y-107884213D01*
X87156789Y-107880196D01*
X87137205Y-107865967D01*
X87137204Y-107865966D01*
X87134090Y-107863704D01*
X87107404Y-107855033D01*
X87100301Y-107852090D01*
X87078741Y-107841105D01*
X87078740Y-107841105D01*
X87075304Y-107839354D01*
X87071501Y-107838752D01*
X87071499Y-107838751D01*
X87047593Y-107834965D01*
X87040117Y-107833170D01*
X87017100Y-107825691D01*
X87017097Y-107825691D01*
X87013433Y-107824500D01*
X86832075Y-107824500D01*
X86797427Y-107810148D01*
X86789028Y-107797578D01*
X86788867Y-107796769D01*
X86773280Y-107773441D01*
X86747232Y-107734459D01*
X86744552Y-107730448D01*
X86721812Y-107715253D01*
X92925000Y-107715253D01*
X92927855Y-107722145D01*
X92934747Y-107725000D01*
X93490253Y-107725000D01*
X93497145Y-107722145D01*
X93500000Y-107715253D01*
X93500000Y-107259747D01*
X93497145Y-107252855D01*
X93490253Y-107250000D01*
X93152786Y-107250000D01*
X93148010Y-107250471D01*
X93082192Y-107263563D01*
X93073441Y-107267187D01*
X92998771Y-107317080D01*
X92992080Y-107323771D01*
X92942187Y-107398441D01*
X92938563Y-107407192D01*
X92925471Y-107473010D01*
X92925000Y-107477786D01*
X92925000Y-107715253D01*
X86721812Y-107715253D01*
X86698236Y-107699500D01*
X86682245Y-107688815D01*
X86678231Y-107686133D01*
X86619748Y-107674500D01*
X85680252Y-107674500D01*
X85621769Y-107686133D01*
X85617755Y-107688815D01*
X85560681Y-107726951D01*
X85523899Y-107734268D01*
X85492716Y-107713432D01*
X85482920Y-107698771D01*
X85476229Y-107692080D01*
X85401559Y-107642187D01*
X85392808Y-107638563D01*
X85326990Y-107625471D01*
X85322214Y-107625000D01*
X84984747Y-107625000D01*
X84977855Y-107627855D01*
X84975000Y-107634747D01*
X84975000Y-108815253D01*
X84977855Y-108822145D01*
X84984747Y-108825000D01*
X85322214Y-108825000D01*
X85326990Y-108824529D01*
X85392808Y-108811437D01*
X85401559Y-108807813D01*
X85476229Y-108757920D01*
X85482920Y-108751229D01*
X85492716Y-108736568D01*
X85523898Y-108715733D01*
X85560681Y-108723049D01*
X85612869Y-108757920D01*
X85621769Y-108763867D01*
X85680252Y-108775500D01*
X86619748Y-108775500D01*
X86678231Y-108763867D01*
X86744552Y-108719552D01*
X86747232Y-108715541D01*
X86747234Y-108715539D01*
X86764898Y-108689104D01*
X86796081Y-108668269D01*
X86832863Y-108675587D01*
X86840287Y-108681680D01*
X87384932Y-109226325D01*
X87399284Y-109260973D01*
X87395553Y-109279725D01*
X87395254Y-109280448D01*
X87391184Y-109290272D01*
X87391183Y-109290276D01*
X87389956Y-109293238D01*
X87389537Y-109296419D01*
X87389537Y-109296420D01*
X87375540Y-109402738D01*
X87369318Y-109450000D01*
X87369737Y-109453183D01*
X87388896Y-109598707D01*
X87389956Y-109606762D01*
X87391183Y-109609724D01*
X87391184Y-109609728D01*
X87433483Y-109711846D01*
X87450464Y-109752841D01*
X87546718Y-109878282D01*
X87549267Y-109880238D01*
X87586098Y-109908499D01*
X87672159Y-109974536D01*
X87675122Y-109975763D01*
X87675125Y-109975765D01*
X87806616Y-110030230D01*
X87833134Y-110056749D01*
X87833134Y-110094252D01*
X87806615Y-110120770D01*
X87787864Y-110124500D01*
X86072060Y-110124500D01*
X86034939Y-110107485D01*
X85995999Y-110062292D01*
X85993719Y-110059646D01*
X85878365Y-109984878D01*
X85875021Y-109983878D01*
X85875019Y-109983877D01*
X85750013Y-109946492D01*
X85750014Y-109946492D01*
X85746663Y-109945490D01*
X85676078Y-109945059D01*
X85612692Y-109944672D01*
X85612690Y-109944672D01*
X85609200Y-109944651D01*
X85605845Y-109945610D01*
X85605844Y-109945610D01*
X85480382Y-109981467D01*
X85477027Y-109982426D01*
X85360769Y-110055780D01*
X85300473Y-110124052D01*
X85272995Y-110155165D01*
X85269771Y-110158815D01*
X85211350Y-110283248D01*
X85210813Y-110286697D01*
X85193621Y-110397114D01*
X85190201Y-110419077D01*
X85190653Y-110422534D01*
X85190653Y-110422537D01*
X85207482Y-110551229D01*
X85208025Y-110555382D01*
X85263389Y-110681205D01*
X85265635Y-110683877D01*
X85349287Y-110783393D01*
X85351842Y-110786433D01*
X85466273Y-110862605D01*
X85597484Y-110903598D01*
X85600974Y-110903662D01*
X85633395Y-110904256D01*
X85734926Y-110906117D01*
X85867551Y-110869960D01*
X85870527Y-110868133D01*
X85981724Y-110799858D01*
X85981727Y-110799856D01*
X85984697Y-110798032D01*
X85987852Y-110794547D01*
X86035760Y-110741618D01*
X86072088Y-110725500D01*
X89710233Y-110725500D01*
X89744881Y-110739852D01*
X91190974Y-112185945D01*
X91205326Y-112220593D01*
X91190974Y-112255241D01*
X91156070Y-112269592D01*
X91051849Y-112269046D01*
X91051845Y-112269046D01*
X91048895Y-112269031D01*
X91046026Y-112269720D01*
X91046024Y-112269720D01*
X91021950Y-112275500D01*
X90918417Y-112300357D01*
X90881376Y-112294491D01*
X90872330Y-112287359D01*
X90386821Y-111801850D01*
X90382352Y-111796673D01*
X90380425Y-111792731D01*
X90343459Y-111758440D01*
X90342135Y-111757164D01*
X90327723Y-111742752D01*
X90325866Y-111741478D01*
X90324729Y-111740533D01*
X90320572Y-111737209D01*
X90301668Y-111719673D01*
X90298354Y-111716599D01*
X90294159Y-111714925D01*
X90294152Y-111714921D01*
X90282491Y-111710269D01*
X90272931Y-111705165D01*
X90269789Y-111703009D01*
X90258854Y-111695508D01*
X90254452Y-111694463D01*
X90254451Y-111694463D01*
X90237923Y-111690541D01*
X90229369Y-111688511D01*
X90222527Y-111686347D01*
X90197597Y-111676401D01*
X90197595Y-111676401D01*
X90194378Y-111675117D01*
X90190933Y-111674779D01*
X90190932Y-111674779D01*
X90189271Y-111674616D01*
X90189265Y-111674616D01*
X90188085Y-111674500D01*
X90176064Y-111674500D01*
X90164750Y-111673176D01*
X90154338Y-111670705D01*
X90154337Y-111670705D01*
X90149934Y-111669660D01*
X90124099Y-111673176D01*
X90117662Y-111674052D01*
X90111054Y-111674500D01*
X86872060Y-111674500D01*
X86834939Y-111657485D01*
X86795999Y-111612292D01*
X86793719Y-111609646D01*
X86678365Y-111534878D01*
X86675021Y-111533878D01*
X86675019Y-111533877D01*
X86584199Y-111506716D01*
X86546663Y-111495490D01*
X86476078Y-111495059D01*
X86412692Y-111494672D01*
X86412690Y-111494672D01*
X86409200Y-111494651D01*
X86405845Y-111495610D01*
X86405844Y-111495610D01*
X86329588Y-111517404D01*
X86277027Y-111532426D01*
X86160769Y-111605780D01*
X86100473Y-111674052D01*
X86072995Y-111705165D01*
X86069771Y-111708815D01*
X86011350Y-111833248D01*
X86010813Y-111836697D01*
X85996494Y-111928662D01*
X85990201Y-111969077D01*
X86008025Y-112105382D01*
X86063389Y-112231205D01*
X86065635Y-112233877D01*
X86131812Y-112312604D01*
X86151842Y-112336433D01*
X86266273Y-112412605D01*
X86397484Y-112453598D01*
X86400974Y-112453662D01*
X86433395Y-112454256D01*
X86534926Y-112456117D01*
X86667551Y-112419960D01*
X86670527Y-112418133D01*
X86781724Y-112349858D01*
X86781727Y-112349856D01*
X86784697Y-112348032D01*
X86816765Y-112312604D01*
X86835760Y-112291618D01*
X86872088Y-112275500D01*
X89990233Y-112275500D01*
X90024881Y-112289852D01*
X90095881Y-112360852D01*
X90110233Y-112395500D01*
X90095881Y-112430148D01*
X90061233Y-112444500D01*
X87080892Y-112444500D01*
X87029437Y-112444455D01*
X87024463Y-112446843D01*
X87024460Y-112446844D01*
X87013435Y-112452138D01*
X87003125Y-112455738D01*
X86991196Y-112458460D01*
X86991194Y-112458461D01*
X86985815Y-112459688D01*
X86981502Y-112463125D01*
X86972104Y-112470614D01*
X86962778Y-112476464D01*
X86946976Y-112484052D01*
X86943530Y-112488362D01*
X86943529Y-112488362D01*
X86935887Y-112497917D01*
X86928158Y-112505632D01*
X86919819Y-112512278D01*
X86914276Y-112516695D01*
X86911878Y-112521667D01*
X86906660Y-112532485D01*
X86900795Y-112541798D01*
X86889844Y-112555492D01*
X86888608Y-112560869D01*
X86888607Y-112560870D01*
X86885865Y-112572795D01*
X86882245Y-112583101D01*
X86876932Y-112594116D01*
X86876931Y-112594119D01*
X86874535Y-112599087D01*
X86874530Y-112604603D01*
X86874530Y-112604604D01*
X86874515Y-112622132D01*
X86874513Y-112622163D01*
X86874500Y-112622219D01*
X86874500Y-112639108D01*
X86874455Y-112690563D01*
X86874491Y-112690638D01*
X86874500Y-112690719D01*
X86874500Y-113545500D01*
X86860148Y-113580148D01*
X86825500Y-113594500D01*
X86065199Y-113594500D01*
X86030551Y-113580148D01*
X86016199Y-113545500D01*
X86026325Y-113515671D01*
X86072580Y-113455390D01*
X86074536Y-113452841D01*
X86075899Y-113449551D01*
X86133816Y-113309728D01*
X86133817Y-113309724D01*
X86135044Y-113306762D01*
X86139781Y-113270785D01*
X86155263Y-113153183D01*
X86155682Y-113150000D01*
X86153099Y-113130382D01*
X86135463Y-112996420D01*
X86135463Y-112996419D01*
X86135044Y-112993238D01*
X86133817Y-112990276D01*
X86133816Y-112990272D01*
X86075765Y-112850125D01*
X86075763Y-112850122D01*
X86074536Y-112847159D01*
X85978282Y-112721718D01*
X85852841Y-112625464D01*
X85849878Y-112624237D01*
X85849875Y-112624235D01*
X85709728Y-112566184D01*
X85709724Y-112566183D01*
X85706762Y-112564956D01*
X85703581Y-112564537D01*
X85703580Y-112564537D01*
X85553183Y-112544737D01*
X85550000Y-112544318D01*
X85546817Y-112544737D01*
X85396420Y-112564537D01*
X85396419Y-112564537D01*
X85393238Y-112564956D01*
X85390276Y-112566183D01*
X85390272Y-112566184D01*
X85250125Y-112624235D01*
X85250122Y-112624237D01*
X85247159Y-112625464D01*
X85121718Y-112721718D01*
X85025464Y-112847159D01*
X85024237Y-112850122D01*
X85024235Y-112850125D01*
X84966184Y-112990272D01*
X84966183Y-112990276D01*
X84964956Y-112993238D01*
X84964537Y-112996419D01*
X84964537Y-112996420D01*
X84946901Y-113130382D01*
X84944318Y-113150000D01*
X84944737Y-113153183D01*
X84960220Y-113270785D01*
X84964956Y-113306762D01*
X84966183Y-113309724D01*
X84966184Y-113309728D01*
X85024101Y-113449551D01*
X85025464Y-113452841D01*
X85027420Y-113455390D01*
X85073675Y-113515671D01*
X85083382Y-113551896D01*
X85064630Y-113584374D01*
X85034801Y-113594500D01*
X78074000Y-113594500D01*
X78039352Y-113580148D01*
X78025000Y-113545500D01*
X78025000Y-106594077D01*
X79940201Y-106594077D01*
X79940653Y-106597534D01*
X79940653Y-106597537D01*
X79957525Y-106726559D01*
X79958025Y-106730382D01*
X80013389Y-106856205D01*
X80015635Y-106858877D01*
X80092232Y-106950000D01*
X80101842Y-106961433D01*
X80216273Y-107037605D01*
X80347484Y-107078598D01*
X80350974Y-107078662D01*
X80383395Y-107079256D01*
X80484926Y-107081117D01*
X80617551Y-107044960D01*
X80620527Y-107043133D01*
X80620531Y-107043131D01*
X80637450Y-107032743D01*
X80663088Y-107025500D01*
X81300500Y-107025500D01*
X81335148Y-107039852D01*
X81349500Y-107074500D01*
X81349500Y-107194748D01*
X81361133Y-107253231D01*
X81363815Y-107257245D01*
X81370458Y-107267187D01*
X81405448Y-107319552D01*
X81471769Y-107363867D01*
X81530252Y-107375500D01*
X82269748Y-107375500D01*
X82328231Y-107363867D01*
X82394552Y-107319552D01*
X82429542Y-107267187D01*
X82436185Y-107257245D01*
X82438867Y-107253231D01*
X82450500Y-107194748D01*
X82450500Y-106255252D01*
X82438867Y-106196769D01*
X82431143Y-106185209D01*
X82398049Y-106135681D01*
X82390732Y-106098899D01*
X82411568Y-106067716D01*
X82426229Y-106057920D01*
X82432920Y-106051229D01*
X82482813Y-105976559D01*
X82486437Y-105967808D01*
X82499529Y-105901990D01*
X82500000Y-105897214D01*
X82500000Y-105697214D01*
X82725000Y-105697214D01*
X82725471Y-105701990D01*
X82738563Y-105767808D01*
X82742187Y-105776559D01*
X82792080Y-105851229D01*
X82798771Y-105857920D01*
X82873441Y-105907813D01*
X82882192Y-105911437D01*
X82948010Y-105924529D01*
X82952786Y-105925000D01*
X83190253Y-105925000D01*
X83197145Y-105922145D01*
X83200000Y-105915253D01*
X83450000Y-105915253D01*
X83452855Y-105922145D01*
X83459747Y-105925000D01*
X83697214Y-105925000D01*
X83701990Y-105924529D01*
X83767808Y-105911437D01*
X83776559Y-105907813D01*
X83851229Y-105857920D01*
X83857920Y-105851229D01*
X83907813Y-105776559D01*
X83911437Y-105767808D01*
X83924529Y-105701990D01*
X83925000Y-105697214D01*
X83925000Y-105359747D01*
X83922145Y-105352855D01*
X83915253Y-105350000D01*
X83459747Y-105350000D01*
X83452855Y-105352855D01*
X83450000Y-105359747D01*
X83450000Y-105915253D01*
X83200000Y-105915253D01*
X83200000Y-105359747D01*
X83197145Y-105352855D01*
X83190253Y-105350000D01*
X82734747Y-105350000D01*
X82727855Y-105352855D01*
X82725000Y-105359747D01*
X82725000Y-105697214D01*
X82500000Y-105697214D01*
X82500000Y-105559747D01*
X82497145Y-105552855D01*
X82490253Y-105550000D01*
X81309747Y-105550000D01*
X81302855Y-105552855D01*
X81300000Y-105559747D01*
X81300000Y-105897214D01*
X81300471Y-105901990D01*
X81313563Y-105967808D01*
X81317187Y-105976559D01*
X81367080Y-106051229D01*
X81373771Y-106057920D01*
X81388432Y-106067716D01*
X81409267Y-106098898D01*
X81401951Y-106135681D01*
X81368857Y-106185209D01*
X81361133Y-106196769D01*
X81349500Y-106255252D01*
X81349500Y-106375500D01*
X81335148Y-106410148D01*
X81300500Y-106424500D01*
X80903970Y-106424500D01*
X80869322Y-106410148D01*
X80859364Y-106395781D01*
X80833450Y-106338785D01*
X80808543Y-106309878D01*
X80745999Y-106237292D01*
X80743719Y-106234646D01*
X80642915Y-106169309D01*
X80631295Y-106161777D01*
X80631294Y-106161777D01*
X80628365Y-106159878D01*
X80625021Y-106158878D01*
X80625019Y-106158877D01*
X80524593Y-106128843D01*
X80496663Y-106120490D01*
X80426078Y-106120059D01*
X80362692Y-106119672D01*
X80362690Y-106119672D01*
X80359200Y-106119651D01*
X80355845Y-106120610D01*
X80355844Y-106120610D01*
X80238888Y-106154036D01*
X80227027Y-106157426D01*
X80110769Y-106230780D01*
X80061074Y-106287049D01*
X80045698Y-106304459D01*
X80019771Y-106333815D01*
X79961350Y-106458248D01*
X79940201Y-106594077D01*
X78025000Y-106594077D01*
X78025000Y-105290253D01*
X81300000Y-105290253D01*
X81302855Y-105297145D01*
X81309747Y-105300000D01*
X81765253Y-105300000D01*
X81772145Y-105297145D01*
X81775000Y-105290253D01*
X82025000Y-105290253D01*
X82027855Y-105297145D01*
X82034747Y-105300000D01*
X82490253Y-105300000D01*
X82497145Y-105297145D01*
X82500000Y-105290253D01*
X82500000Y-104952786D01*
X82499529Y-104948010D01*
X82486437Y-104882192D01*
X82482813Y-104873441D01*
X82432920Y-104798771D01*
X82426229Y-104792080D01*
X82351559Y-104742187D01*
X82342808Y-104738563D01*
X82276990Y-104725471D01*
X82272214Y-104725000D01*
X82034747Y-104725000D01*
X82027855Y-104727855D01*
X82025000Y-104734747D01*
X82025000Y-105290253D01*
X81775000Y-105290253D01*
X81775000Y-104734747D01*
X81772145Y-104727855D01*
X81765253Y-104725000D01*
X81527786Y-104725000D01*
X81523010Y-104725471D01*
X81457192Y-104738563D01*
X81448441Y-104742187D01*
X81373771Y-104792080D01*
X81367080Y-104798771D01*
X81317187Y-104873441D01*
X81313563Y-104882192D01*
X81300471Y-104948010D01*
X81300000Y-104952786D01*
X81300000Y-105290253D01*
X78025000Y-105290253D01*
X78025000Y-100506582D01*
X78254233Y-100506582D01*
X78255971Y-100510778D01*
X78338430Y-100570688D01*
X78342857Y-100573244D01*
X78511768Y-100648447D01*
X78516619Y-100650023D01*
X78697477Y-100688467D01*
X78702550Y-100689000D01*
X78887450Y-100689000D01*
X78892523Y-100688467D01*
X79073381Y-100650023D01*
X79078232Y-100648447D01*
X79247143Y-100573244D01*
X79251570Y-100570688D01*
X79331920Y-100512311D01*
X79335818Y-100505950D01*
X79334757Y-100501534D01*
X78801893Y-99968670D01*
X78795000Y-99965815D01*
X78788107Y-99968670D01*
X78257088Y-100499689D01*
X78254233Y-100506582D01*
X78025000Y-100506582D01*
X78025000Y-100378932D01*
X78039352Y-100344284D01*
X78056439Y-100333187D01*
X78078508Y-100324715D01*
X78611330Y-99791893D01*
X78614185Y-99785000D01*
X78975815Y-99785000D01*
X78978670Y-99791893D01*
X79511964Y-100325187D01*
X79518159Y-100327753D01*
X79525827Y-100324340D01*
X79528657Y-100321197D01*
X79531665Y-100317056D01*
X79624109Y-100156941D01*
X79626187Y-100152273D01*
X79683323Y-99976427D01*
X79684384Y-99971436D01*
X79703711Y-99787550D01*
X79703711Y-99782450D01*
X79684384Y-99598564D01*
X79683323Y-99593573D01*
X79626187Y-99417727D01*
X79624109Y-99413059D01*
X79531665Y-99252944D01*
X79528657Y-99248803D01*
X79525380Y-99245164D01*
X79519327Y-99242277D01*
X79511492Y-99245285D01*
X78978670Y-99778107D01*
X78975815Y-99785000D01*
X78614185Y-99785000D01*
X78611330Y-99778107D01*
X78078035Y-99244812D01*
X78055248Y-99235373D01*
X78028730Y-99208854D01*
X78025000Y-99190103D01*
X78025000Y-99064051D01*
X78254183Y-99064051D01*
X78255243Y-99068466D01*
X78788107Y-99601330D01*
X78795000Y-99604185D01*
X78801893Y-99601330D01*
X79332912Y-99070311D01*
X79335767Y-99063418D01*
X79334029Y-99059222D01*
X79251570Y-98999312D01*
X79247143Y-98996756D01*
X79078232Y-98921553D01*
X79073381Y-98919977D01*
X78892523Y-98881533D01*
X78887450Y-98881000D01*
X78702550Y-98881000D01*
X78697477Y-98881533D01*
X78516619Y-98919977D01*
X78511768Y-98921553D01*
X78342856Y-98996757D01*
X78338435Y-98999309D01*
X78258081Y-99057690D01*
X78254183Y-99064051D01*
X78025000Y-99064051D01*
X78025000Y-98449000D01*
X78039352Y-98414352D01*
X78074000Y-98400000D01*
X78940253Y-98400000D01*
X78947145Y-98397145D01*
X78950000Y-98390253D01*
X79200000Y-98390253D01*
X79202855Y-98397145D01*
X79209747Y-98400000D01*
X80097214Y-98400000D01*
X80101990Y-98399529D01*
X80167808Y-98386437D01*
X80176559Y-98382813D01*
X80251229Y-98332920D01*
X80257920Y-98326229D01*
X80307813Y-98251559D01*
X80311437Y-98242808D01*
X80324529Y-98176990D01*
X80325000Y-98172214D01*
X80325000Y-97684747D01*
X80322145Y-97677855D01*
X80315253Y-97675000D01*
X79209747Y-97675000D01*
X79202855Y-97677855D01*
X79200000Y-97684747D01*
X79200000Y-98390253D01*
X78950000Y-98390253D01*
X78950000Y-97415253D01*
X79200000Y-97415253D01*
X79202855Y-97422145D01*
X79209747Y-97425000D01*
X80315253Y-97425000D01*
X80322145Y-97422145D01*
X80325000Y-97415253D01*
X80325000Y-96927786D01*
X80324529Y-96923010D01*
X80311437Y-96857192D01*
X80307813Y-96848441D01*
X80257920Y-96773771D01*
X80251229Y-96767080D01*
X80176559Y-96717187D01*
X80167808Y-96713563D01*
X80101990Y-96700471D01*
X80097214Y-96700000D01*
X79209747Y-96700000D01*
X79202855Y-96702855D01*
X79200000Y-96709747D01*
X79200000Y-97415253D01*
X78950000Y-97415253D01*
X78950000Y-96709747D01*
X78947145Y-96702855D01*
X78940253Y-96700000D01*
X78074000Y-96700000D01*
X78039352Y-96685648D01*
X78025000Y-96651000D01*
X78025000Y-94544500D01*
X78039352Y-94509852D01*
X78074000Y-94495500D01*
X87026000Y-94495500D01*
X87060648Y-94509852D01*
G37*
%TD.AperFunction*%
%TA.AperFunction,Conductor*%
G36*
X109148719Y-102270548D02*
G01*
X109159341Y-102286445D01*
X109160192Y-102288499D01*
X109161133Y-102293231D01*
X109205448Y-102359552D01*
X109271769Y-102403867D01*
X109330252Y-102415500D01*
X112369748Y-102415500D01*
X112415943Y-102406311D01*
X112452723Y-102413628D01*
X112473559Y-102444811D01*
X112474500Y-102454370D01*
X112474500Y-103665630D01*
X112460148Y-103700278D01*
X112425500Y-103714630D01*
X112415947Y-103713690D01*
X112369748Y-103704500D01*
X109330252Y-103704500D01*
X109271769Y-103716133D01*
X109205448Y-103760448D01*
X109202768Y-103764459D01*
X109165329Y-103820490D01*
X109161133Y-103826769D01*
X109149500Y-103885252D01*
X109149500Y-104655233D01*
X109135148Y-104689881D01*
X108969119Y-104855910D01*
X108934172Y-104870261D01*
X108837692Y-104869672D01*
X108837690Y-104869672D01*
X108834200Y-104869651D01*
X108830845Y-104870610D01*
X108830844Y-104870610D01*
X108728234Y-104899936D01*
X108702027Y-104907426D01*
X108585769Y-104980780D01*
X108532715Y-105040852D01*
X108502115Y-105075500D01*
X108494771Y-105083815D01*
X108436350Y-105208248D01*
X108435813Y-105211697D01*
X108417356Y-105330238D01*
X108415201Y-105344077D01*
X108415653Y-105347534D01*
X108415653Y-105347537D01*
X108430592Y-105461777D01*
X108433025Y-105480382D01*
X108488389Y-105606205D01*
X108490635Y-105608877D01*
X108564890Y-105697214D01*
X108576842Y-105711433D01*
X108691273Y-105787605D01*
X108822484Y-105828598D01*
X108825974Y-105828662D01*
X108858395Y-105829256D01*
X108959926Y-105831117D01*
X109092551Y-105794960D01*
X109095527Y-105793133D01*
X109206724Y-105724858D01*
X109206727Y-105724856D01*
X109209697Y-105723032D01*
X109222618Y-105708758D01*
X109299601Y-105623707D01*
X109299602Y-105623706D01*
X109301946Y-105621116D01*
X109307876Y-105608877D01*
X109360361Y-105500550D01*
X109360362Y-105500548D01*
X109361884Y-105497406D01*
X109363894Y-105485463D01*
X109374824Y-105420490D01*
X109384690Y-105361846D01*
X109384835Y-105350000D01*
X109383987Y-105344077D01*
X109380811Y-105321896D01*
X109390106Y-105285564D01*
X109394668Y-105280303D01*
X109705119Y-104969852D01*
X109739767Y-104955500D01*
X112369748Y-104955500D01*
X112415943Y-104946311D01*
X112452723Y-104953628D01*
X112473559Y-104984811D01*
X112474500Y-104994370D01*
X112474500Y-106205630D01*
X112460148Y-106240278D01*
X112425500Y-106254630D01*
X112415947Y-106253690D01*
X112369748Y-106244500D01*
X109330252Y-106244500D01*
X109271769Y-106256133D01*
X109267755Y-106258815D01*
X109238005Y-106278694D01*
X109205448Y-106300448D01*
X109161133Y-106366769D01*
X109149500Y-106425252D01*
X109149500Y-107056233D01*
X109135148Y-107090881D01*
X109100500Y-107105233D01*
X109065852Y-107090881D01*
X107889852Y-105914881D01*
X107875500Y-105880233D01*
X107875500Y-104444767D01*
X107889852Y-104410119D01*
X108831217Y-103468754D01*
X108866763Y-103454410D01*
X108937887Y-103455713D01*
X108959926Y-103456117D01*
X108966188Y-103454410D01*
X109011414Y-103442080D01*
X109092551Y-103419960D01*
X109095527Y-103418133D01*
X109206724Y-103349858D01*
X109206727Y-103349856D01*
X109209697Y-103348032D01*
X109213094Y-103344280D01*
X109299601Y-103248707D01*
X109299602Y-103248706D01*
X109301946Y-103246116D01*
X109303469Y-103242973D01*
X109360361Y-103125550D01*
X109360362Y-103125548D01*
X109361884Y-103122406D01*
X109363695Y-103111646D01*
X109376663Y-103034559D01*
X109384690Y-102986846D01*
X109384835Y-102975000D01*
X109383481Y-102965541D01*
X109365842Y-102842381D01*
X109365347Y-102838923D01*
X109362080Y-102831736D01*
X109333537Y-102768961D01*
X109308450Y-102713785D01*
X109263912Y-102662095D01*
X109220999Y-102612292D01*
X109218719Y-102609646D01*
X109103365Y-102534878D01*
X109100021Y-102533878D01*
X109100019Y-102533877D01*
X109046289Y-102517808D01*
X108971663Y-102495490D01*
X108968167Y-102495469D01*
X108965427Y-102495059D01*
X108933281Y-102475743D01*
X108924208Y-102439354D01*
X108938022Y-102411949D01*
X109079423Y-102270548D01*
X109114071Y-102256196D01*
X109148719Y-102270548D01*
G37*
%TD.AperFunction*%
%TD*%
M02*
