M48
; DRILL file {KiCad (6.0.7)} date Wed Sep  7 18:04:27 2022
; FORMAT={2:4/ absolute / inch / suppress leading zeros}
; #@! TF.CreationDate,2022-09-07T18:04:27+02:00
; #@! TF.GenerationSoftware,Kicad,Pcbnew,(6.0.7)
; #@! TF.FileFunction,Plated,1,2,PTH
FMAT,2
INCH,TZ
; #@! TA.AperFunction,Plated,PTH,ViaDrill
T1C0.0120
; #@! TA.AperFunction,Plated,PTH,ViaDrill
T2C0.0157
; #@! TA.AperFunction,Plated,PTH,ComponentDrill
T3C0.0236
; #@! TA.AperFunction,Plated,PTH,ComponentDrill
T4C0.0315
; #@! TA.AperFunction,Plated,PTH,ComponentDrill
T5C0.0394
; #@! TA.AperFunction,Plated,PTH,ComponentDrill
T6C0.0472
%
G90
G05
T1
X28076Y-44355
X29409Y-40827
X29636Y-43730
X29734Y-44341
X29823Y-40699
X31663Y-41969
X31688Y-43627
X31919Y-43219
X33022Y-42028
X33041Y-43041
X33179Y-43760
X33386Y-42126
X33730Y-43474
X34045Y-44085
X34518Y-42106
X36014Y-38406
X36102Y-41693
X36211Y-38642
X36289Y-42008
X36575Y-39656
X37136Y-40758
X37559Y-40364
X38022Y-41063
X38858Y-39429
X39035Y-40817
X39341Y-44488
X39360Y-40876
X39360Y-44154
X39419Y-40404
X39626Y-41959
X40069Y-39921
X40187Y-37736
X40295Y-39665
X40551Y-39862
X40591Y-40541
X40945Y-40797
X41083Y-42234
X41260Y-43878
X41398Y-44557
X41791Y-41752
X41978Y-38031
X42756Y-43189
X42795Y-42520
X42874Y-40541
X42874Y-41476
X43386Y-42549
X43632Y-41585
X43642Y-40591
T2
X31575Y-40699
X33130Y-40522
X33681Y-44547
X34183Y-40423
X34636Y-43091
X36575Y-37421
X37234Y-43632
X40138Y-38533
X40217Y-41299
X41319Y-39774
X41575Y-38346
T3
X35878Y-44476
X36378Y-44476
X36878Y-44476
T4
X29022Y-39285
X30022Y-39285
X31022Y-39285
X32022Y-39285
T5
X27591Y-39520
X27591Y-40504
X27591Y-41291
X27591Y-42276
T6
G00X27138Y-38535
M15
G01X26547Y-38535
M16
G05
G00X27138Y-43260
M15
G01X26547Y-43260
M16
G05
T0
M30
