%TF.GenerationSoftware,KiCad,Pcbnew,(6.0.7)*%
%TF.CreationDate,2022-09-07T18:04:23+02:00*%
%TF.ProjectId,BMP2_Railgun,424d5032-5f52-4616-996c-67756e2e6b69,rev?*%
%TF.SameCoordinates,Original*%
%TF.FileFunction,Legend,Top*%
%TF.FilePolarity,Positive*%
%FSLAX46Y46*%
G04 Gerber Fmt 4.6, Leading zero omitted, Abs format (unit mm)*
G04 Created by KiCad (PCBNEW (6.0.7)) date 2022-09-07 18:04:23*
%MOMM*%
%LPD*%
G01*
G04 APERTURE LIST*
%ADD10C,0.048000*%
%ADD11C,0.150000*%
%ADD12C,0.066000*%
%ADD13C,0.127000*%
%ADD14C,0.120000*%
%ADD15C,0.152400*%
G04 APERTURE END LIST*
D10*
%TO.C,R1*%
X88878057Y-99373714D02*
X88694057Y-99110857D01*
X88562628Y-99373714D02*
X88562628Y-98821714D01*
X88772914Y-98821714D01*
X88825485Y-98848000D01*
X88851771Y-98874285D01*
X88878057Y-98926857D01*
X88878057Y-99005714D01*
X88851771Y-99058285D01*
X88825485Y-99084571D01*
X88772914Y-99110857D01*
X88562628Y-99110857D01*
X89403771Y-99373714D02*
X89088342Y-99373714D01*
X89246057Y-99373714D02*
X89246057Y-98821714D01*
X89193485Y-98900571D01*
X89140914Y-98953142D01*
X89088342Y-98979428D01*
D11*
%TO.C,X2*%
X110068928Y-97534523D02*
X110635595Y-98384523D01*
X110635595Y-97534523D02*
X110068928Y-98384523D01*
X110918928Y-97615476D02*
X110959404Y-97575000D01*
X111040357Y-97534523D01*
X111242738Y-97534523D01*
X111323690Y-97575000D01*
X111364166Y-97615476D01*
X111404642Y-97696428D01*
X111404642Y-97777380D01*
X111364166Y-97898809D01*
X110878452Y-98384523D01*
X111404642Y-98384523D01*
%TO.C,X1*%
X91918928Y-112534523D02*
X92485595Y-113384523D01*
X92485595Y-112534523D02*
X91918928Y-113384523D01*
X93254642Y-113384523D02*
X92768928Y-113384523D01*
X93011785Y-113384523D02*
X93011785Y-112534523D01*
X92930833Y-112655952D01*
X92849880Y-112736904D01*
X92768928Y-112777380D01*
%TO.C,VT3*%
X105522738Y-97484523D02*
X105806071Y-98334523D01*
X106089404Y-97484523D01*
X106251309Y-97484523D02*
X106737023Y-97484523D01*
X106494166Y-98334523D02*
X106494166Y-97484523D01*
X106939404Y-97484523D02*
X107465595Y-97484523D01*
X107182261Y-97808333D01*
X107303690Y-97808333D01*
X107384642Y-97848809D01*
X107425119Y-97889285D01*
X107465595Y-97970238D01*
X107465595Y-98172619D01*
X107425119Y-98253571D01*
X107384642Y-98294047D01*
X107303690Y-98334523D01*
X107060833Y-98334523D01*
X106979880Y-98294047D01*
X106939404Y-98253571D01*
%TO.C,VT2*%
X93184523Y-100521547D02*
X94034523Y-100238214D01*
X93184523Y-99954880D01*
X93184523Y-99792976D02*
X93184523Y-99307261D01*
X94034523Y-99550119D02*
X93184523Y-99550119D01*
X93265476Y-99064404D02*
X93225000Y-99023928D01*
X93184523Y-98942976D01*
X93184523Y-98740595D01*
X93225000Y-98659642D01*
X93265476Y-98619166D01*
X93346428Y-98578690D01*
X93427380Y-98578690D01*
X93548809Y-98619166D01*
X94034523Y-99104880D01*
X94034523Y-98578690D01*
%TO.C,VT1*%
X97709523Y-102577261D02*
X98559523Y-102293928D01*
X97709523Y-102010595D01*
X97709523Y-101848690D02*
X97709523Y-101362976D01*
X98559523Y-101605833D02*
X97709523Y-101605833D01*
X98559523Y-100634404D02*
X98559523Y-101120119D01*
X98559523Y-100877261D02*
X97709523Y-100877261D01*
X97830952Y-100958214D01*
X97911904Y-101039166D01*
X97952380Y-101120119D01*
D12*
%TO.C,SW1*%
X85124142Y-97555385D02*
X85149571Y-97479100D01*
X85149571Y-97351957D01*
X85124142Y-97301100D01*
X85098714Y-97275671D01*
X85047857Y-97250242D01*
X84997000Y-97250242D01*
X84946142Y-97275671D01*
X84920714Y-97301100D01*
X84895285Y-97351957D01*
X84869857Y-97453671D01*
X84844428Y-97504528D01*
X84819000Y-97529957D01*
X84768142Y-97555385D01*
X84717285Y-97555385D01*
X84666428Y-97529957D01*
X84641000Y-97504528D01*
X84615571Y-97453671D01*
X84615571Y-97326528D01*
X84641000Y-97250242D01*
X84615571Y-97072242D02*
X85149571Y-96945100D01*
X84768142Y-96843385D01*
X85149571Y-96741671D01*
X84615571Y-96614528D01*
X85149571Y-96131385D02*
X85149571Y-96436528D01*
X85149571Y-96283957D02*
X84615571Y-96283957D01*
X84691857Y-96334814D01*
X84742714Y-96385671D01*
X84768142Y-96436528D01*
D10*
%TO.C,R15*%
X106973714Y-108762771D02*
X106710857Y-108946771D01*
X106973714Y-109078200D02*
X106421714Y-109078200D01*
X106421714Y-108867914D01*
X106448000Y-108815342D01*
X106474285Y-108789057D01*
X106526857Y-108762771D01*
X106605714Y-108762771D01*
X106658285Y-108789057D01*
X106684571Y-108815342D01*
X106710857Y-108867914D01*
X106710857Y-109078200D01*
X106973714Y-108237057D02*
X106973714Y-108552485D01*
X106973714Y-108394771D02*
X106421714Y-108394771D01*
X106500571Y-108447342D01*
X106553142Y-108499914D01*
X106579428Y-108552485D01*
X106421714Y-107737628D02*
X106421714Y-108000485D01*
X106684571Y-108026771D01*
X106658285Y-108000485D01*
X106632000Y-107947914D01*
X106632000Y-107816485D01*
X106658285Y-107763914D01*
X106684571Y-107737628D01*
X106737142Y-107711342D01*
X106868571Y-107711342D01*
X106921142Y-107737628D01*
X106947428Y-107763914D01*
X106973714Y-107816485D01*
X106973714Y-107947914D01*
X106947428Y-108000485D01*
X106921142Y-108026771D01*
%TO.C,R14*%
X107023714Y-104537771D02*
X106760857Y-104721771D01*
X107023714Y-104853200D02*
X106471714Y-104853200D01*
X106471714Y-104642914D01*
X106498000Y-104590342D01*
X106524285Y-104564057D01*
X106576857Y-104537771D01*
X106655714Y-104537771D01*
X106708285Y-104564057D01*
X106734571Y-104590342D01*
X106760857Y-104642914D01*
X106760857Y-104853200D01*
X107023714Y-104012057D02*
X107023714Y-104327485D01*
X107023714Y-104169771D02*
X106471714Y-104169771D01*
X106550571Y-104222342D01*
X106603142Y-104274914D01*
X106629428Y-104327485D01*
X106655714Y-103538914D02*
X107023714Y-103538914D01*
X106445428Y-103670342D02*
X106839714Y-103801771D01*
X106839714Y-103460057D01*
D11*
%TO.C,R13*%
X105960595Y-95559523D02*
X105677261Y-95154761D01*
X105474880Y-95559523D02*
X105474880Y-94709523D01*
X105798690Y-94709523D01*
X105879642Y-94750000D01*
X105920119Y-94790476D01*
X105960595Y-94871428D01*
X105960595Y-94992857D01*
X105920119Y-95073809D01*
X105879642Y-95114285D01*
X105798690Y-95154761D01*
X105474880Y-95154761D01*
X106770119Y-95559523D02*
X106284404Y-95559523D01*
X106527261Y-95559523D02*
X106527261Y-94709523D01*
X106446309Y-94830952D01*
X106365357Y-94911904D01*
X106284404Y-94952380D01*
X107053452Y-94709523D02*
X107579642Y-94709523D01*
X107296309Y-95033333D01*
X107417738Y-95033333D01*
X107498690Y-95073809D01*
X107539166Y-95114285D01*
X107579642Y-95195238D01*
X107579642Y-95397619D01*
X107539166Y-95478571D01*
X107498690Y-95519047D01*
X107417738Y-95559523D01*
X107174880Y-95559523D01*
X107093928Y-95519047D01*
X107053452Y-95478571D01*
%TO.C,R12*%
X101260595Y-99759523D02*
X100977261Y-99354761D01*
X100774880Y-99759523D02*
X100774880Y-98909523D01*
X101098690Y-98909523D01*
X101179642Y-98950000D01*
X101220119Y-98990476D01*
X101260595Y-99071428D01*
X101260595Y-99192857D01*
X101220119Y-99273809D01*
X101179642Y-99314285D01*
X101098690Y-99354761D01*
X100774880Y-99354761D01*
X102070119Y-99759523D02*
X101584404Y-99759523D01*
X101827261Y-99759523D02*
X101827261Y-98909523D01*
X101746309Y-99030952D01*
X101665357Y-99111904D01*
X101584404Y-99152380D01*
X102393928Y-98990476D02*
X102434404Y-98950000D01*
X102515357Y-98909523D01*
X102717738Y-98909523D01*
X102798690Y-98950000D01*
X102839166Y-98990476D01*
X102879642Y-99071428D01*
X102879642Y-99152380D01*
X102839166Y-99273809D01*
X102353452Y-99759523D01*
X102879642Y-99759523D01*
%TO.C,R11*%
X102735595Y-97109523D02*
X102452261Y-96704761D01*
X102249880Y-97109523D02*
X102249880Y-96259523D01*
X102573690Y-96259523D01*
X102654642Y-96300000D01*
X102695119Y-96340476D01*
X102735595Y-96421428D01*
X102735595Y-96542857D01*
X102695119Y-96623809D01*
X102654642Y-96664285D01*
X102573690Y-96704761D01*
X102249880Y-96704761D01*
X103545119Y-97109523D02*
X103059404Y-97109523D01*
X103302261Y-97109523D02*
X103302261Y-96259523D01*
X103221309Y-96380952D01*
X103140357Y-96461904D01*
X103059404Y-96502380D01*
X104354642Y-97109523D02*
X103868928Y-97109523D01*
X104111785Y-97109523D02*
X104111785Y-96259523D01*
X104030833Y-96380952D01*
X103949880Y-96461904D01*
X103868928Y-96502380D01*
%TO.C,R10*%
X104309523Y-99214404D02*
X103904761Y-99497738D01*
X104309523Y-99700119D02*
X103459523Y-99700119D01*
X103459523Y-99376309D01*
X103500000Y-99295357D01*
X103540476Y-99254880D01*
X103621428Y-99214404D01*
X103742857Y-99214404D01*
X103823809Y-99254880D01*
X103864285Y-99295357D01*
X103904761Y-99376309D01*
X103904761Y-99700119D01*
X104309523Y-98404880D02*
X104309523Y-98890595D01*
X104309523Y-98647738D02*
X103459523Y-98647738D01*
X103580952Y-98728690D01*
X103661904Y-98809642D01*
X103702380Y-98890595D01*
X103459523Y-97878690D02*
X103459523Y-97797738D01*
X103500000Y-97716785D01*
X103540476Y-97676309D01*
X103621428Y-97635833D01*
X103783333Y-97595357D01*
X103985714Y-97595357D01*
X104147619Y-97635833D01*
X104228571Y-97676309D01*
X104269047Y-97716785D01*
X104309523Y-97797738D01*
X104309523Y-97878690D01*
X104269047Y-97959642D01*
X104228571Y-98000119D01*
X104147619Y-98040595D01*
X103985714Y-98081071D01*
X103783333Y-98081071D01*
X103621428Y-98040595D01*
X103540476Y-98000119D01*
X103500000Y-97959642D01*
X103459523Y-97878690D01*
%TO.C,R4*%
X84991785Y-100621428D02*
X84791785Y-100335714D01*
X84648928Y-100621428D02*
X84648928Y-100021428D01*
X84877500Y-100021428D01*
X84934642Y-100050000D01*
X84963214Y-100078571D01*
X84991785Y-100135714D01*
X84991785Y-100221428D01*
X84963214Y-100278571D01*
X84934642Y-100307142D01*
X84877500Y-100335714D01*
X84648928Y-100335714D01*
X85506071Y-100221428D02*
X85506071Y-100621428D01*
X85363214Y-99992857D02*
X85220357Y-100421428D01*
X85591785Y-100421428D01*
%TO.C,Q1*%
X98340476Y-109853452D02*
X98300000Y-109934404D01*
X98219047Y-110015357D01*
X98097619Y-110136785D01*
X98057142Y-110217738D01*
X98057142Y-110298690D01*
X98259523Y-110258214D02*
X98219047Y-110339166D01*
X98138095Y-110420119D01*
X97976190Y-110460595D01*
X97692857Y-110460595D01*
X97530952Y-110420119D01*
X97450000Y-110339166D01*
X97409523Y-110258214D01*
X97409523Y-110096309D01*
X97450000Y-110015357D01*
X97530952Y-109934404D01*
X97692857Y-109893928D01*
X97976190Y-109893928D01*
X98138095Y-109934404D01*
X98219047Y-110015357D01*
X98259523Y-110096309D01*
X98259523Y-110258214D01*
X98259523Y-109084404D02*
X98259523Y-109570119D01*
X98259523Y-109327261D02*
X97409523Y-109327261D01*
X97530952Y-109408214D01*
X97611904Y-109489166D01*
X97652380Y-109570119D01*
%TO.C,LED4*%
X91921428Y-96473928D02*
X91921428Y-96759642D01*
X91321428Y-96759642D01*
X91607142Y-96273928D02*
X91607142Y-96073928D01*
X91921428Y-95988214D02*
X91921428Y-96273928D01*
X91321428Y-96273928D01*
X91321428Y-95988214D01*
X91921428Y-95731071D02*
X91321428Y-95731071D01*
X91321428Y-95588214D01*
X91350000Y-95502500D01*
X91407142Y-95445357D01*
X91464285Y-95416785D01*
X91578571Y-95388214D01*
X91664285Y-95388214D01*
X91778571Y-95416785D01*
X91835714Y-95445357D01*
X91892857Y-95502500D01*
X91921428Y-95588214D01*
X91921428Y-95731071D01*
X91521428Y-94873928D02*
X91921428Y-94873928D01*
X91292857Y-95016785D02*
X91721428Y-95159642D01*
X91721428Y-94788214D01*
%TO.C,LED3*%
X90396428Y-96498928D02*
X90396428Y-96784642D01*
X89796428Y-96784642D01*
X90082142Y-96298928D02*
X90082142Y-96098928D01*
X90396428Y-96013214D02*
X90396428Y-96298928D01*
X89796428Y-96298928D01*
X89796428Y-96013214D01*
X90396428Y-95756071D02*
X89796428Y-95756071D01*
X89796428Y-95613214D01*
X89825000Y-95527500D01*
X89882142Y-95470357D01*
X89939285Y-95441785D01*
X90053571Y-95413214D01*
X90139285Y-95413214D01*
X90253571Y-95441785D01*
X90310714Y-95470357D01*
X90367857Y-95527500D01*
X90396428Y-95613214D01*
X90396428Y-95756071D01*
X89796428Y-95213214D02*
X89796428Y-94841785D01*
X90025000Y-95041785D01*
X90025000Y-94956071D01*
X90053571Y-94898928D01*
X90082142Y-94870357D01*
X90139285Y-94841785D01*
X90282142Y-94841785D01*
X90339285Y-94870357D01*
X90367857Y-94898928D01*
X90396428Y-94956071D01*
X90396428Y-95127500D01*
X90367857Y-95184642D01*
X90339285Y-95213214D01*
%TO.C,LED2*%
X88996428Y-96548928D02*
X88996428Y-96834642D01*
X88396428Y-96834642D01*
X88682142Y-96348928D02*
X88682142Y-96148928D01*
X88996428Y-96063214D02*
X88996428Y-96348928D01*
X88396428Y-96348928D01*
X88396428Y-96063214D01*
X88996428Y-95806071D02*
X88396428Y-95806071D01*
X88396428Y-95663214D01*
X88425000Y-95577500D01*
X88482142Y-95520357D01*
X88539285Y-95491785D01*
X88653571Y-95463214D01*
X88739285Y-95463214D01*
X88853571Y-95491785D01*
X88910714Y-95520357D01*
X88967857Y-95577500D01*
X88996428Y-95663214D01*
X88996428Y-95806071D01*
X88453571Y-95234642D02*
X88425000Y-95206071D01*
X88396428Y-95148928D01*
X88396428Y-95006071D01*
X88425000Y-94948928D01*
X88453571Y-94920357D01*
X88510714Y-94891785D01*
X88567857Y-94891785D01*
X88653571Y-94920357D01*
X88996428Y-95263214D01*
X88996428Y-94891785D01*
%TO.C,LED1*%
X87421428Y-96448928D02*
X87421428Y-96734642D01*
X86821428Y-96734642D01*
X87107142Y-96248928D02*
X87107142Y-96048928D01*
X87421428Y-95963214D02*
X87421428Y-96248928D01*
X86821428Y-96248928D01*
X86821428Y-95963214D01*
X87421428Y-95706071D02*
X86821428Y-95706071D01*
X86821428Y-95563214D01*
X86850000Y-95477500D01*
X86907142Y-95420357D01*
X86964285Y-95391785D01*
X87078571Y-95363214D01*
X87164285Y-95363214D01*
X87278571Y-95391785D01*
X87335714Y-95420357D01*
X87392857Y-95477500D01*
X87421428Y-95563214D01*
X87421428Y-95706071D01*
X87421428Y-94791785D02*
X87421428Y-95134642D01*
X87421428Y-94963214D02*
X86821428Y-94963214D01*
X86907142Y-95020357D01*
X86964285Y-95077500D01*
X86992857Y-95134642D01*
%TO.C,IC8*%
X102759523Y-113050119D02*
X101909523Y-113050119D01*
X102678571Y-112159642D02*
X102719047Y-112200119D01*
X102759523Y-112321547D01*
X102759523Y-112402500D01*
X102719047Y-112523928D01*
X102638095Y-112604880D01*
X102557142Y-112645357D01*
X102395238Y-112685833D01*
X102273809Y-112685833D01*
X102111904Y-112645357D01*
X102030952Y-112604880D01*
X101950000Y-112523928D01*
X101909523Y-112402500D01*
X101909523Y-112321547D01*
X101950000Y-112200119D01*
X101990476Y-112159642D01*
X102273809Y-111673928D02*
X102233333Y-111754880D01*
X102192857Y-111795357D01*
X102111904Y-111835833D01*
X102071428Y-111835833D01*
X101990476Y-111795357D01*
X101950000Y-111754880D01*
X101909523Y-111673928D01*
X101909523Y-111512023D01*
X101950000Y-111431071D01*
X101990476Y-111390595D01*
X102071428Y-111350119D01*
X102111904Y-111350119D01*
X102192857Y-111390595D01*
X102233333Y-111431071D01*
X102273809Y-111512023D01*
X102273809Y-111673928D01*
X102314285Y-111754880D01*
X102354761Y-111795357D01*
X102435714Y-111835833D01*
X102597619Y-111835833D01*
X102678571Y-111795357D01*
X102719047Y-111754880D01*
X102759523Y-111673928D01*
X102759523Y-111512023D01*
X102719047Y-111431071D01*
X102678571Y-111390595D01*
X102597619Y-111350119D01*
X102435714Y-111350119D01*
X102354761Y-111390595D01*
X102314285Y-111431071D01*
X102273809Y-111512023D01*
%TO.C,IC7*%
X102784523Y-105675119D02*
X101934523Y-105675119D01*
X102703571Y-104784642D02*
X102744047Y-104825119D01*
X102784523Y-104946547D01*
X102784523Y-105027500D01*
X102744047Y-105148928D01*
X102663095Y-105229880D01*
X102582142Y-105270357D01*
X102420238Y-105310833D01*
X102298809Y-105310833D01*
X102136904Y-105270357D01*
X102055952Y-105229880D01*
X101975000Y-105148928D01*
X101934523Y-105027500D01*
X101934523Y-104946547D01*
X101975000Y-104825119D01*
X102015476Y-104784642D01*
X101934523Y-104501309D02*
X101934523Y-103934642D01*
X102784523Y-104298928D01*
%TO.C,IC6*%
X102959523Y-109400119D02*
X102109523Y-109400119D01*
X102878571Y-108509642D02*
X102919047Y-108550119D01*
X102959523Y-108671547D01*
X102959523Y-108752500D01*
X102919047Y-108873928D01*
X102838095Y-108954880D01*
X102757142Y-108995357D01*
X102595238Y-109035833D01*
X102473809Y-109035833D01*
X102311904Y-108995357D01*
X102230952Y-108954880D01*
X102150000Y-108873928D01*
X102109523Y-108752500D01*
X102109523Y-108671547D01*
X102150000Y-108550119D01*
X102190476Y-108509642D01*
X102109523Y-107781071D02*
X102109523Y-107942976D01*
X102150000Y-108023928D01*
X102190476Y-108064404D01*
X102311904Y-108145357D01*
X102473809Y-108185833D01*
X102797619Y-108185833D01*
X102878571Y-108145357D01*
X102919047Y-108104880D01*
X102959523Y-108023928D01*
X102959523Y-107862023D01*
X102919047Y-107781071D01*
X102878571Y-107740595D01*
X102797619Y-107700119D01*
X102595238Y-107700119D01*
X102514285Y-107740595D01*
X102473809Y-107781071D01*
X102433333Y-107862023D01*
X102433333Y-108023928D01*
X102473809Y-108104880D01*
X102514285Y-108145357D01*
X102595238Y-108185833D01*
%TO.C,IC5*%
X102834523Y-102175119D02*
X101984523Y-102175119D01*
X102753571Y-101284642D02*
X102794047Y-101325119D01*
X102834523Y-101446547D01*
X102834523Y-101527500D01*
X102794047Y-101648928D01*
X102713095Y-101729880D01*
X102632142Y-101770357D01*
X102470238Y-101810833D01*
X102348809Y-101810833D01*
X102186904Y-101770357D01*
X102105952Y-101729880D01*
X102025000Y-101648928D01*
X101984523Y-101527500D01*
X101984523Y-101446547D01*
X102025000Y-101325119D01*
X102065476Y-101284642D01*
X101984523Y-100515595D02*
X101984523Y-100920357D01*
X102389285Y-100960833D01*
X102348809Y-100920357D01*
X102308333Y-100839404D01*
X102308333Y-100637023D01*
X102348809Y-100556071D01*
X102389285Y-100515595D01*
X102470238Y-100475119D01*
X102672619Y-100475119D01*
X102753571Y-100515595D01*
X102794047Y-100556071D01*
X102834523Y-100637023D01*
X102834523Y-100839404D01*
X102794047Y-100920357D01*
X102753571Y-100960833D01*
%TO.C,IC3*%
X77174880Y-108484523D02*
X77174880Y-107634523D01*
X78065357Y-108403571D02*
X78024880Y-108444047D01*
X77903452Y-108484523D01*
X77822500Y-108484523D01*
X77701071Y-108444047D01*
X77620119Y-108363095D01*
X77579642Y-108282142D01*
X77539166Y-108120238D01*
X77539166Y-107998809D01*
X77579642Y-107836904D01*
X77620119Y-107755952D01*
X77701071Y-107675000D01*
X77822500Y-107634523D01*
X77903452Y-107634523D01*
X78024880Y-107675000D01*
X78065357Y-107715476D01*
X78348690Y-107634523D02*
X78874880Y-107634523D01*
X78591547Y-107958333D01*
X78712976Y-107958333D01*
X78793928Y-107998809D01*
X78834404Y-108039285D01*
X78874880Y-108120238D01*
X78874880Y-108322619D01*
X78834404Y-108403571D01*
X78793928Y-108444047D01*
X78712976Y-108484523D01*
X78470119Y-108484523D01*
X78389166Y-108444047D01*
X78348690Y-108403571D01*
D10*
%TO.C,IC2*%
X77137628Y-95948714D02*
X77137628Y-95396714D01*
X77715914Y-95896142D02*
X77689628Y-95922428D01*
X77610771Y-95948714D01*
X77558200Y-95948714D01*
X77479342Y-95922428D01*
X77426771Y-95869857D01*
X77400485Y-95817285D01*
X77374200Y-95712142D01*
X77374200Y-95633285D01*
X77400485Y-95528142D01*
X77426771Y-95475571D01*
X77479342Y-95423000D01*
X77558200Y-95396714D01*
X77610771Y-95396714D01*
X77689628Y-95423000D01*
X77715914Y-95449285D01*
X77926200Y-95449285D02*
X77952485Y-95423000D01*
X78005057Y-95396714D01*
X78136485Y-95396714D01*
X78189057Y-95423000D01*
X78215342Y-95449285D01*
X78241628Y-95501857D01*
X78241628Y-95554428D01*
X78215342Y-95633285D01*
X77899914Y-95948714D01*
X78241628Y-95948714D01*
D11*
%TO.C,IC1*%
X98334523Y-97109404D02*
X97484523Y-97109404D01*
X98253571Y-96218928D02*
X98294047Y-96259404D01*
X98334523Y-96380833D01*
X98334523Y-96461785D01*
X98294047Y-96583214D01*
X98213095Y-96664166D01*
X98132142Y-96704642D01*
X97970238Y-96745119D01*
X97848809Y-96745119D01*
X97686904Y-96704642D01*
X97605952Y-96664166D01*
X97525000Y-96583214D01*
X97484523Y-96461785D01*
X97484523Y-96380833D01*
X97525000Y-96259404D01*
X97565476Y-96218928D01*
X98334523Y-95409404D02*
X98334523Y-95895119D01*
X98334523Y-95652261D02*
X97484523Y-95652261D01*
X97605952Y-95733214D01*
X97686904Y-95814166D01*
X97727380Y-95895119D01*
%TO.C,C22*%
X101860595Y-110803571D02*
X101820119Y-110844047D01*
X101698690Y-110884523D01*
X101617738Y-110884523D01*
X101496309Y-110844047D01*
X101415357Y-110763095D01*
X101374880Y-110682142D01*
X101334404Y-110520238D01*
X101334404Y-110398809D01*
X101374880Y-110236904D01*
X101415357Y-110155952D01*
X101496309Y-110075000D01*
X101617738Y-110034523D01*
X101698690Y-110034523D01*
X101820119Y-110075000D01*
X101860595Y-110115476D01*
X102184404Y-110115476D02*
X102224880Y-110075000D01*
X102305833Y-110034523D01*
X102508214Y-110034523D01*
X102589166Y-110075000D01*
X102629642Y-110115476D01*
X102670119Y-110196428D01*
X102670119Y-110277380D01*
X102629642Y-110398809D01*
X102143928Y-110884523D01*
X102670119Y-110884523D01*
X102993928Y-110115476D02*
X103034404Y-110075000D01*
X103115357Y-110034523D01*
X103317738Y-110034523D01*
X103398690Y-110075000D01*
X103439166Y-110115476D01*
X103479642Y-110196428D01*
X103479642Y-110277380D01*
X103439166Y-110398809D01*
X102953452Y-110884523D01*
X103479642Y-110884523D01*
%TO.C,C21*%
X101810595Y-107028571D02*
X101770119Y-107069047D01*
X101648690Y-107109523D01*
X101567738Y-107109523D01*
X101446309Y-107069047D01*
X101365357Y-106988095D01*
X101324880Y-106907142D01*
X101284404Y-106745238D01*
X101284404Y-106623809D01*
X101324880Y-106461904D01*
X101365357Y-106380952D01*
X101446309Y-106300000D01*
X101567738Y-106259523D01*
X101648690Y-106259523D01*
X101770119Y-106300000D01*
X101810595Y-106340476D01*
X102134404Y-106340476D02*
X102174880Y-106300000D01*
X102255833Y-106259523D01*
X102458214Y-106259523D01*
X102539166Y-106300000D01*
X102579642Y-106340476D01*
X102620119Y-106421428D01*
X102620119Y-106502380D01*
X102579642Y-106623809D01*
X102093928Y-107109523D01*
X102620119Y-107109523D01*
X103429642Y-107109523D02*
X102943928Y-107109523D01*
X103186785Y-107109523D02*
X103186785Y-106259523D01*
X103105833Y-106380952D01*
X103024880Y-106461904D01*
X102943928Y-106502380D01*
%TO.C,C19*%
X101810595Y-103503571D02*
X101770119Y-103544047D01*
X101648690Y-103584523D01*
X101567738Y-103584523D01*
X101446309Y-103544047D01*
X101365357Y-103463095D01*
X101324880Y-103382142D01*
X101284404Y-103220238D01*
X101284404Y-103098809D01*
X101324880Y-102936904D01*
X101365357Y-102855952D01*
X101446309Y-102775000D01*
X101567738Y-102734523D01*
X101648690Y-102734523D01*
X101770119Y-102775000D01*
X101810595Y-102815476D01*
X102620119Y-103584523D02*
X102134404Y-103584523D01*
X102377261Y-103584523D02*
X102377261Y-102734523D01*
X102296309Y-102855952D01*
X102215357Y-102936904D01*
X102134404Y-102977380D01*
X103024880Y-103584523D02*
X103186785Y-103584523D01*
X103267738Y-103544047D01*
X103308214Y-103503571D01*
X103389166Y-103382142D01*
X103429642Y-103220238D01*
X103429642Y-102896428D01*
X103389166Y-102815476D01*
X103348690Y-102775000D01*
X103267738Y-102734523D01*
X103105833Y-102734523D01*
X103024880Y-102775000D01*
X102984404Y-102815476D01*
X102943928Y-102896428D01*
X102943928Y-103098809D01*
X102984404Y-103179761D01*
X103024880Y-103220238D01*
X103105833Y-103260714D01*
X103267738Y-103260714D01*
X103348690Y-103220238D01*
X103389166Y-103179761D01*
X103429642Y-103098809D01*
%TO.C,C18*%
X102760595Y-95653571D02*
X102720119Y-95694047D01*
X102598690Y-95734523D01*
X102517738Y-95734523D01*
X102396309Y-95694047D01*
X102315357Y-95613095D01*
X102274880Y-95532142D01*
X102234404Y-95370238D01*
X102234404Y-95248809D01*
X102274880Y-95086904D01*
X102315357Y-95005952D01*
X102396309Y-94925000D01*
X102517738Y-94884523D01*
X102598690Y-94884523D01*
X102720119Y-94925000D01*
X102760595Y-94965476D01*
X103570119Y-95734523D02*
X103084404Y-95734523D01*
X103327261Y-95734523D02*
X103327261Y-94884523D01*
X103246309Y-95005952D01*
X103165357Y-95086904D01*
X103084404Y-95127380D01*
X104055833Y-95248809D02*
X103974880Y-95208333D01*
X103934404Y-95167857D01*
X103893928Y-95086904D01*
X103893928Y-95046428D01*
X103934404Y-94965476D01*
X103974880Y-94925000D01*
X104055833Y-94884523D01*
X104217738Y-94884523D01*
X104298690Y-94925000D01*
X104339166Y-94965476D01*
X104379642Y-95046428D01*
X104379642Y-95086904D01*
X104339166Y-95167857D01*
X104298690Y-95208333D01*
X104217738Y-95248809D01*
X104055833Y-95248809D01*
X103974880Y-95289285D01*
X103934404Y-95329761D01*
X103893928Y-95410714D01*
X103893928Y-95572619D01*
X103934404Y-95653571D01*
X103974880Y-95694047D01*
X104055833Y-95734523D01*
X104217738Y-95734523D01*
X104298690Y-95694047D01*
X104339166Y-95653571D01*
X104379642Y-95572619D01*
X104379642Y-95410714D01*
X104339166Y-95329761D01*
X104298690Y-95289285D01*
X104217738Y-95248809D01*
%TO.C,C10*%
X96710595Y-105728571D02*
X96670119Y-105769047D01*
X96548690Y-105809523D01*
X96467738Y-105809523D01*
X96346309Y-105769047D01*
X96265357Y-105688095D01*
X96224880Y-105607142D01*
X96184404Y-105445238D01*
X96184404Y-105323809D01*
X96224880Y-105161904D01*
X96265357Y-105080952D01*
X96346309Y-105000000D01*
X96467738Y-104959523D01*
X96548690Y-104959523D01*
X96670119Y-105000000D01*
X96710595Y-105040476D01*
X97520119Y-105809523D02*
X97034404Y-105809523D01*
X97277261Y-105809523D02*
X97277261Y-104959523D01*
X97196309Y-105080952D01*
X97115357Y-105161904D01*
X97034404Y-105202380D01*
X98046309Y-104959523D02*
X98127261Y-104959523D01*
X98208214Y-105000000D01*
X98248690Y-105040476D01*
X98289166Y-105121428D01*
X98329642Y-105283333D01*
X98329642Y-105485714D01*
X98289166Y-105647619D01*
X98248690Y-105728571D01*
X98208214Y-105769047D01*
X98127261Y-105809523D01*
X98046309Y-105809523D01*
X97965357Y-105769047D01*
X97924880Y-105728571D01*
X97884404Y-105647619D01*
X97843928Y-105485714D01*
X97843928Y-105283333D01*
X97884404Y-105121428D01*
X97924880Y-105040476D01*
X97965357Y-105000000D01*
X98046309Y-104959523D01*
%TO.C,C8*%
X69166785Y-113189285D02*
X69138214Y-113217857D01*
X69052500Y-113246428D01*
X68995357Y-113246428D01*
X68909642Y-113217857D01*
X68852500Y-113160714D01*
X68823928Y-113103571D01*
X68795357Y-112989285D01*
X68795357Y-112903571D01*
X68823928Y-112789285D01*
X68852500Y-112732142D01*
X68909642Y-112675000D01*
X68995357Y-112646428D01*
X69052500Y-112646428D01*
X69138214Y-112675000D01*
X69166785Y-112703571D01*
X69509642Y-112903571D02*
X69452500Y-112875000D01*
X69423928Y-112846428D01*
X69395357Y-112789285D01*
X69395357Y-112760714D01*
X69423928Y-112703571D01*
X69452500Y-112675000D01*
X69509642Y-112646428D01*
X69623928Y-112646428D01*
X69681071Y-112675000D01*
X69709642Y-112703571D01*
X69738214Y-112760714D01*
X69738214Y-112789285D01*
X69709642Y-112846428D01*
X69681071Y-112875000D01*
X69623928Y-112903571D01*
X69509642Y-112903571D01*
X69452500Y-112932142D01*
X69423928Y-112960714D01*
X69395357Y-113017857D01*
X69395357Y-113132142D01*
X69423928Y-113189285D01*
X69452500Y-113217857D01*
X69509642Y-113246428D01*
X69623928Y-113246428D01*
X69681071Y-113217857D01*
X69709642Y-113189285D01*
X69738214Y-113132142D01*
X69738214Y-113017857D01*
X69709642Y-112960714D01*
X69681071Y-112932142D01*
X69623928Y-112903571D01*
%TO.C,C6*%
X97060595Y-107128571D02*
X97020119Y-107169047D01*
X96898690Y-107209523D01*
X96817738Y-107209523D01*
X96696309Y-107169047D01*
X96615357Y-107088095D01*
X96574880Y-107007142D01*
X96534404Y-106845238D01*
X96534404Y-106723809D01*
X96574880Y-106561904D01*
X96615357Y-106480952D01*
X96696309Y-106400000D01*
X96817738Y-106359523D01*
X96898690Y-106359523D01*
X97020119Y-106400000D01*
X97060595Y-106440476D01*
X97789166Y-106359523D02*
X97627261Y-106359523D01*
X97546309Y-106400000D01*
X97505833Y-106440476D01*
X97424880Y-106561904D01*
X97384404Y-106723809D01*
X97384404Y-107047619D01*
X97424880Y-107128571D01*
X97465357Y-107169047D01*
X97546309Y-107209523D01*
X97708214Y-107209523D01*
X97789166Y-107169047D01*
X97829642Y-107128571D01*
X97870119Y-107047619D01*
X97870119Y-106845238D01*
X97829642Y-106764285D01*
X97789166Y-106723809D01*
X97708214Y-106683333D01*
X97546309Y-106683333D01*
X97465357Y-106723809D01*
X97424880Y-106764285D01*
X97384404Y-106845238D01*
%TO.C,C4*%
X101153571Y-96264404D02*
X101194047Y-96304880D01*
X101234523Y-96426309D01*
X101234523Y-96507261D01*
X101194047Y-96628690D01*
X101113095Y-96709642D01*
X101032142Y-96750119D01*
X100870238Y-96790595D01*
X100748809Y-96790595D01*
X100586904Y-96750119D01*
X100505952Y-96709642D01*
X100425000Y-96628690D01*
X100384523Y-96507261D01*
X100384523Y-96426309D01*
X100425000Y-96304880D01*
X100465476Y-96264404D01*
X100667857Y-95535833D02*
X101234523Y-95535833D01*
X100344047Y-95738214D02*
X100951190Y-95940595D01*
X100951190Y-95414404D01*
%TO.C,C3*%
X97331071Y-113053571D02*
X97290595Y-113094047D01*
X97169166Y-113134523D01*
X97088214Y-113134523D01*
X96966785Y-113094047D01*
X96885833Y-113013095D01*
X96845357Y-112932142D01*
X96804880Y-112770238D01*
X96804880Y-112648809D01*
X96845357Y-112486904D01*
X96885833Y-112405952D01*
X96966785Y-112325000D01*
X97088214Y-112284523D01*
X97169166Y-112284523D01*
X97290595Y-112325000D01*
X97331071Y-112365476D01*
X97614404Y-112284523D02*
X98140595Y-112284523D01*
X97857261Y-112608333D01*
X97978690Y-112608333D01*
X98059642Y-112648809D01*
X98100119Y-112689285D01*
X98140595Y-112770238D01*
X98140595Y-112972619D01*
X98100119Y-113053571D01*
X98059642Y-113094047D01*
X97978690Y-113134523D01*
X97735833Y-113134523D01*
X97654880Y-113094047D01*
X97614404Y-113053571D01*
%TO.C,C2*%
X97485595Y-99403571D02*
X97445119Y-99444047D01*
X97323690Y-99484523D01*
X97242738Y-99484523D01*
X97121309Y-99444047D01*
X97040357Y-99363095D01*
X96999880Y-99282142D01*
X96959404Y-99120238D01*
X96959404Y-98998809D01*
X96999880Y-98836904D01*
X97040357Y-98755952D01*
X97121309Y-98675000D01*
X97242738Y-98634523D01*
X97323690Y-98634523D01*
X97445119Y-98675000D01*
X97485595Y-98715476D01*
X97809404Y-98715476D02*
X97849880Y-98675000D01*
X97930833Y-98634523D01*
X98133214Y-98634523D01*
X98214166Y-98675000D01*
X98254642Y-98715476D01*
X98295119Y-98796428D01*
X98295119Y-98877380D01*
X98254642Y-98998809D01*
X97768928Y-99484523D01*
X98295119Y-99484523D01*
%TO.C,C1*%
X95203571Y-96293928D02*
X95244047Y-96334404D01*
X95284523Y-96455833D01*
X95284523Y-96536785D01*
X95244047Y-96658214D01*
X95163095Y-96739166D01*
X95082142Y-96779642D01*
X94920238Y-96820119D01*
X94798809Y-96820119D01*
X94636904Y-96779642D01*
X94555952Y-96739166D01*
X94475000Y-96658214D01*
X94434523Y-96536785D01*
X94434523Y-96455833D01*
X94475000Y-96334404D01*
X94515476Y-96293928D01*
X95284523Y-95484404D02*
X95284523Y-95970119D01*
X95284523Y-95727261D02*
X94434523Y-95727261D01*
X94555952Y-95808214D01*
X94636904Y-95889166D01*
X94677380Y-95970119D01*
%TO.C,X4*%
X68272619Y-103090476D02*
X67272619Y-103757142D01*
X68272619Y-103757142D02*
X67272619Y-103090476D01*
X67939285Y-104566666D02*
X67272619Y-104566666D01*
X68320238Y-104328571D02*
X67605952Y-104090476D01*
X67605952Y-104709523D01*
D13*
%TO.C,IC4*%
X90720571Y-107895307D02*
X89577571Y-107895307D01*
X90611714Y-106697878D02*
X90666142Y-106752307D01*
X90720571Y-106915592D01*
X90720571Y-107024450D01*
X90666142Y-107187735D01*
X90557285Y-107296592D01*
X90448428Y-107351021D01*
X90230714Y-107405450D01*
X90067428Y-107405450D01*
X89849714Y-107351021D01*
X89740857Y-107296592D01*
X89632000Y-107187735D01*
X89577571Y-107024450D01*
X89577571Y-106915592D01*
X89632000Y-106752307D01*
X89686428Y-106697878D01*
X89958571Y-105718164D02*
X90720571Y-105718164D01*
X89523142Y-105990307D02*
X90339571Y-106262450D01*
X90339571Y-105554878D01*
D14*
%TO.C,R1*%
X90785000Y-100910000D02*
X90785000Y-97390000D01*
X87015000Y-100910000D02*
X90785000Y-100910000D01*
X90785000Y-97390000D02*
X87015000Y-97390000D01*
X87015000Y-97390000D02*
X87015000Y-100910000D01*
%TO.C,X1*%
X90291800Y-113732000D02*
X90291800Y-112208000D01*
X94508200Y-112208000D02*
X94508200Y-113732000D01*
X94508200Y-113732000D02*
X90291800Y-113732000D01*
X90291800Y-112208000D02*
X94508200Y-112208000D01*
%TO.C,VT3*%
X105035000Y-98640000D02*
X105035000Y-97860000D01*
X105715000Y-98640000D02*
X105035000Y-98640000D01*
X108185000Y-100060000D02*
X108185000Y-95940000D01*
X107235000Y-98640000D02*
X107915000Y-98640000D01*
X104765000Y-95940000D02*
X104765000Y-100060000D01*
X104765000Y-100060000D02*
X108185000Y-100060000D01*
X107915000Y-98640000D02*
X107915000Y-97860000D01*
X108185000Y-95940000D02*
X104765000Y-95940000D01*
%TO.C,VT2*%
X93060000Y-98210000D02*
X93840000Y-98210000D01*
X93060000Y-98890000D02*
X93060000Y-98210000D01*
X91640000Y-101360000D02*
X95760000Y-101360000D01*
X93060000Y-100410000D02*
X93060000Y-101090000D01*
X95760000Y-97940000D02*
X91640000Y-97940000D01*
X91640000Y-97940000D02*
X91640000Y-101360000D01*
X93060000Y-101090000D02*
X93840000Y-101090000D01*
X95760000Y-101360000D02*
X95760000Y-97940000D01*
%TO.C,VT1*%
X98690000Y-103040000D02*
X97910000Y-103040000D01*
X98690000Y-102360000D02*
X98690000Y-103040000D01*
X100110000Y-99890000D02*
X95990000Y-99890000D01*
X98690000Y-100840000D02*
X98690000Y-100160000D01*
X95990000Y-103310000D02*
X100110000Y-103310000D01*
X100110000Y-103310000D02*
X100110000Y-99890000D01*
X98690000Y-100160000D02*
X97910000Y-100160000D01*
X95990000Y-99890000D02*
X95990000Y-103310000D01*
%TO.C,SW1*%
X83735000Y-95505000D02*
X83735000Y-98385000D01*
X86115000Y-98385000D02*
X86115000Y-95505000D01*
%TO.C,R15*%
X105015000Y-110285000D02*
X108535000Y-110285000D01*
X105015000Y-106515000D02*
X105015000Y-110285000D01*
X108535000Y-110285000D02*
X108535000Y-106515000D01*
X108535000Y-106515000D02*
X105015000Y-106515000D01*
%TO.C,R14*%
X105015000Y-105860000D02*
X108535000Y-105860000D01*
X105015000Y-102090000D02*
X105015000Y-105860000D01*
X108535000Y-105860000D02*
X108535000Y-102090000D01*
X108535000Y-102090000D02*
X105015000Y-102090000D01*
%TO.C,R13*%
X107810000Y-95735000D02*
X105090000Y-95735000D01*
X105090000Y-95735000D02*
X105090000Y-94515000D01*
X105090000Y-94515000D02*
X107810000Y-94515000D01*
X107810000Y-94515000D02*
X107810000Y-95735000D01*
%TO.C,R12*%
X103060000Y-99985000D02*
X100340000Y-99985000D01*
X100340000Y-99985000D02*
X100340000Y-98765000D01*
X100340000Y-98765000D02*
X103060000Y-98765000D01*
X103060000Y-98765000D02*
X103060000Y-99985000D01*
%TO.C,R11*%
X104585000Y-97310000D02*
X101865000Y-97310000D01*
X101865000Y-97310000D02*
X101865000Y-96090000D01*
X101865000Y-96090000D02*
X104585000Y-96090000D01*
X104585000Y-96090000D02*
X104585000Y-97310000D01*
%TO.C,R10*%
X104510000Y-97440000D02*
X104510000Y-100160000D01*
X104510000Y-100160000D02*
X103290000Y-100160000D01*
X103290000Y-100160000D02*
X103290000Y-97440000D01*
X103290000Y-97440000D02*
X104510000Y-97440000D01*
%TO.C,R4*%
X83740000Y-99660000D02*
X86460000Y-99660000D01*
X86460000Y-99660000D02*
X86460000Y-100880000D01*
X86460000Y-100880000D02*
X83740000Y-100880000D01*
X83740000Y-100880000D02*
X83740000Y-99660000D01*
%TO.C,Q1*%
X96140000Y-111810000D02*
X96140000Y-107690000D01*
X99660000Y-111810000D02*
X96140000Y-111810000D01*
X96140000Y-107690000D02*
X99660000Y-107690000D01*
X99660000Y-107690000D02*
X99660000Y-111810000D01*
%TO.C,LED4*%
X90940000Y-94390000D02*
X92260000Y-94390000D01*
X92260000Y-95630000D02*
X92260000Y-97210000D01*
X92260000Y-97210000D02*
X90940000Y-97210000D01*
X90940000Y-95630000D02*
X90940000Y-94390000D01*
X90940000Y-97210000D02*
X90940000Y-95630000D01*
X92260000Y-94390000D02*
X92260000Y-95630000D01*
X90940000Y-95630000D02*
X92260000Y-95630000D01*
%TO.C,LED3*%
X89465000Y-94390000D02*
X90785000Y-94390000D01*
X90785000Y-95630000D02*
X90785000Y-97210000D01*
X90785000Y-97210000D02*
X89465000Y-97210000D01*
X89465000Y-95630000D02*
X89465000Y-94390000D01*
X89465000Y-97210000D02*
X89465000Y-95630000D01*
X90785000Y-94390000D02*
X90785000Y-95630000D01*
X89465000Y-95630000D02*
X90785000Y-95630000D01*
%TO.C,LED2*%
X87965000Y-94390000D02*
X89285000Y-94390000D01*
X89285000Y-95630000D02*
X89285000Y-97210000D01*
X89285000Y-97210000D02*
X87965000Y-97210000D01*
X87965000Y-95630000D02*
X87965000Y-94390000D01*
X87965000Y-97210000D02*
X87965000Y-95630000D01*
X89285000Y-94390000D02*
X89285000Y-95630000D01*
X87965000Y-95630000D02*
X89285000Y-95630000D01*
%TO.C,LED1*%
X86440000Y-94390000D02*
X87760000Y-94390000D01*
X87760000Y-95630000D02*
X87760000Y-97210000D01*
X87760000Y-97210000D02*
X86440000Y-97210000D01*
X86440000Y-95630000D02*
X86440000Y-94390000D01*
X86440000Y-97210000D02*
X86440000Y-95630000D01*
X87760000Y-94390000D02*
X87760000Y-95630000D01*
X86440000Y-95630000D02*
X87760000Y-95630000D01*
%TO.C,IC8*%
X101450000Y-111310000D02*
X101450000Y-113290000D01*
X101450000Y-111310000D02*
X101867500Y-111310000D01*
X103250000Y-113290000D02*
X103250000Y-111310000D01*
X103250000Y-111310000D02*
X102832500Y-111310000D01*
X101450000Y-113290000D02*
X103250000Y-113290000D01*
X101867500Y-111310000D02*
G75*
G03*
X102832500Y-111310000I482500J0D01*
G01*
%TO.C,IC7*%
X101425000Y-103910000D02*
X101425000Y-105890000D01*
X101425000Y-103910000D02*
X101842500Y-103910000D01*
X103225000Y-105890000D02*
X103225000Y-103910000D01*
X103225000Y-103910000D02*
X102807500Y-103910000D01*
X101425000Y-105890000D02*
X103225000Y-105890000D01*
X101842500Y-103910000D02*
G75*
G03*
X102807500Y-103910000I482500J0D01*
G01*
%TO.C,IC6*%
X101650000Y-107585000D02*
X101650000Y-109565000D01*
X101650000Y-107585000D02*
X102067500Y-107585000D01*
X103450000Y-109565000D02*
X103450000Y-107585000D01*
X103450000Y-107585000D02*
X103032500Y-107585000D01*
X101650000Y-109565000D02*
X103450000Y-109565000D01*
X102067500Y-107585000D02*
G75*
G03*
X103032500Y-107585000I482500J0D01*
G01*
%TO.C,IC5*%
X101500000Y-100410000D02*
X101500000Y-102390000D01*
X101500000Y-100410000D02*
X101917500Y-100410000D01*
X103300000Y-102390000D02*
X103300000Y-100410000D01*
X103300000Y-100410000D02*
X102882500Y-100410000D01*
X101500000Y-102390000D02*
X103300000Y-102390000D01*
X101917500Y-100410000D02*
G75*
G03*
X102882500Y-100410000I482500J0D01*
G01*
%TO.C,IC3*%
X83785000Y-102655000D02*
X71865000Y-102655000D01*
X71865000Y-113435000D02*
X83785000Y-113435000D01*
X83785000Y-113435000D02*
X83785000Y-102655000D01*
X71865000Y-102655000D02*
X71865000Y-113435000D01*
G36*
X71805000Y-103309853D02*
G01*
X71805000Y-102595000D01*
X72519853Y-102595000D01*
X71805000Y-103309853D01*
G37*
%TO.C,IC2*%
X71775000Y-95055000D02*
X83275000Y-95055000D01*
X83275000Y-95055000D02*
X83275000Y-100935000D01*
X71775000Y-100935000D02*
X71775000Y-95055000D01*
X83275000Y-100935000D02*
X71775000Y-100935000D01*
%TO.C,IC1*%
X95865000Y-94390000D02*
X99885000Y-94390000D01*
X95865000Y-97960000D02*
X95865000Y-94390000D01*
X99885000Y-94390000D02*
X99885000Y-97960000D01*
X99885000Y-97960000D02*
X95865000Y-97960000D01*
G36*
X95805000Y-95044853D02*
G01*
X95805000Y-94330000D01*
X96519853Y-94330000D01*
X95805000Y-95044853D01*
G37*
%TO.C,C22*%
X103710000Y-111085000D02*
X100990000Y-111085000D01*
X100990000Y-111085000D02*
X100990000Y-109865000D01*
X100990000Y-109865000D02*
X103710000Y-109865000D01*
X103710000Y-109865000D02*
X103710000Y-111085000D01*
%TO.C,C21*%
X103660000Y-107310000D02*
X100940000Y-107310000D01*
X100940000Y-107310000D02*
X100940000Y-106090000D01*
X100940000Y-106090000D02*
X103660000Y-106090000D01*
X103660000Y-106090000D02*
X103660000Y-107310000D01*
%TO.C,C19*%
X103685000Y-103760000D02*
X100965000Y-103760000D01*
X100965000Y-103760000D02*
X100965000Y-102540000D01*
X100965000Y-102540000D02*
X103685000Y-102540000D01*
X103685000Y-102540000D02*
X103685000Y-103760000D01*
%TO.C,C18*%
X104585000Y-95910000D02*
X101865000Y-95910000D01*
X101865000Y-95910000D02*
X101865000Y-94690000D01*
X101865000Y-94690000D02*
X104585000Y-94690000D01*
X104585000Y-94690000D02*
X104585000Y-95910000D01*
%TO.C,C10*%
X98585000Y-106010000D02*
X95865000Y-106010000D01*
X95865000Y-106010000D02*
X95865000Y-104790000D01*
X95865000Y-104790000D02*
X98585000Y-104790000D01*
X98585000Y-104790000D02*
X98585000Y-106010000D01*
%TO.C,C8*%
X67940000Y-112315000D02*
X70660000Y-112315000D01*
X70660000Y-112315000D02*
X70660000Y-113535000D01*
X70660000Y-113535000D02*
X67940000Y-113535000D01*
X67940000Y-113535000D02*
X67940000Y-112315000D01*
%TO.C,C6*%
X98585000Y-107410000D02*
X95865000Y-107410000D01*
X95865000Y-107410000D02*
X95865000Y-106190000D01*
X95865000Y-106190000D02*
X98585000Y-106190000D01*
X98585000Y-106190000D02*
X98585000Y-107410000D01*
%TO.C,C4*%
X100090000Y-97910000D02*
X100090000Y-94590000D01*
X101610000Y-94590000D02*
X101610000Y-97910000D01*
X100090000Y-94590000D02*
X101610000Y-94590000D01*
X101610000Y-97910000D02*
X100090000Y-97910000D01*
%TO.C,C3*%
X96140000Y-112090000D02*
X98860000Y-112090000D01*
X98860000Y-112090000D02*
X98860000Y-113310000D01*
X98860000Y-113310000D02*
X96140000Y-113310000D01*
X96140000Y-113310000D02*
X96140000Y-112090000D01*
%TO.C,C2*%
X99010000Y-99710000D02*
X96290000Y-99710000D01*
X96290000Y-99710000D02*
X96290000Y-98490000D01*
X96290000Y-98490000D02*
X99010000Y-98490000D01*
X99010000Y-98490000D02*
X99010000Y-99710000D01*
%TO.C,C1*%
X95660000Y-94440000D02*
X95660000Y-97760000D01*
X94140000Y-97760000D02*
X94140000Y-94440000D01*
X95660000Y-97760000D02*
X94140000Y-97760000D01*
X94140000Y-94440000D02*
X95660000Y-94440000D01*
%TO.C,X4*%
X70010000Y-97950000D02*
X51110000Y-97950000D01*
X51110000Y-97950000D02*
X51110000Y-109870000D01*
X51110000Y-109870000D02*
X70010000Y-109870000D01*
X70010000Y-109870000D02*
X70010000Y-97950000D01*
D15*
%TO.C,IC4*%
X86977000Y-104102000D02*
X86977000Y-109848000D01*
X87477000Y-103602000D02*
X86977000Y-104102000D01*
X93723000Y-109848000D02*
X93723000Y-104102000D01*
X87477000Y-110348000D02*
X93223000Y-110348000D01*
X93723000Y-104102000D02*
X93223000Y-103602000D01*
X93223000Y-110348000D02*
X93723000Y-109848000D01*
X86977000Y-109848000D02*
X87477000Y-110348000D01*
X93223000Y-103602000D02*
X87477000Y-103602000D01*
X93350000Y-109475000D02*
G75*
G03*
X93350000Y-109475000I-500000J0D01*
G01*
%TD*%
M02*
