%TF.GenerationSoftware,KiCad,Pcbnew,(6.0.7)*%
%TF.CreationDate,2022-09-07T18:04:23+02:00*%
%TF.ProjectId,BMP2_Railgun,424d5032-5f52-4616-996c-67756e2e6b69,rev?*%
%TF.SameCoordinates,Original*%
%TF.FileFunction,Soldermask,Top*%
%TF.FilePolarity,Negative*%
%FSLAX46Y46*%
G04 Gerber Fmt 4.6, Leading zero omitted, Abs format (unit mm)*
G04 Created by KiCad (PCBNEW (6.0.7)) date 2022-09-07 18:04:23*
%MOMM*%
%LPD*%
G01*
G04 APERTURE LIST*
G04 Aperture macros list*
%AMRoundRect*
0 Rectangle with rounded corners*
0 $1 Rounding radius*
0 $2 $3 $4 $5 $6 $7 $8 $9 X,Y pos of 4 corners*
0 Add a 4 corners polygon primitive as box body*
4,1,4,$2,$3,$4,$5,$6,$7,$8,$9,$2,$3,0*
0 Add four circle primitives for the rounded corners*
1,1,$1+$1,$2,$3*
1,1,$1+$1,$4,$5*
1,1,$1+$1,$6,$7*
1,1,$1+$1,$8,$9*
0 Add four rect primitives between the rounded corners*
20,1,$1+$1,$2,$3,$4,$5,0*
20,1,$1+$1,$4,$5,$6,$7,0*
20,1,$1+$1,$6,$7,$8,$9,0*
20,1,$1+$1,$8,$9,$2,$3,0*%
G04 Aperture macros list end*
%ADD10RoundRect,0.050800X0.325000X-0.550000X0.325000X0.550000X-0.325000X0.550000X-0.325000X-0.550000X0*%
%ADD11RoundRect,0.050800X0.225000X-0.550000X0.225000X0.550000X-0.225000X0.550000X-0.225000X-0.550000X0*%
%ADD12RoundRect,0.050800X-1.500000X-0.425000X1.500000X-0.425000X1.500000X0.425000X-1.500000X0.425000X0*%
%ADD13C,1.101600*%
%ADD14RoundRect,0.050800X0.500000X0.700000X-0.500000X0.700000X-0.500000X-0.700000X0.500000X-0.700000X0*%
%ADD15RoundRect,0.050800X0.700000X-0.500000X0.700000X0.500000X-0.700000X0.500000X-0.700000X-0.500000X0*%
%ADD16RoundRect,0.050800X-0.700000X0.500000X-0.700000X-0.500000X0.700000X-0.500000X0.700000X0.500000X0*%
%ADD17RoundRect,0.050800X0.850000X0.600000X-0.850000X0.600000X-0.850000X-0.600000X0.850000X-0.600000X0*%
%ADD18RoundRect,0.050800X-0.550000X-0.325000X0.550000X-0.325000X0.550000X0.325000X-0.550000X0.325000X0*%
%ADD19RoundRect,0.050800X-0.550000X-0.225000X0.550000X-0.225000X0.550000X0.225000X-0.550000X0.225000X0*%
%ADD20RoundRect,0.050800X-0.450000X-0.350000X0.450000X-0.350000X0.450000X0.350000X-0.450000X0.350000X0*%
%ADD21RoundRect,0.050800X0.350000X-0.450000X0.350000X0.450000X-0.350000X0.450000X-0.350000X-0.450000X0*%
%ADD22RoundRect,0.050800X0.450000X0.350000X-0.450000X0.350000X-0.450000X-0.350000X0.450000X-0.350000X0*%
%ADD23RoundRect,0.050800X-0.550000X0.650000X-0.550000X-0.650000X0.550000X-0.650000X0.550000X0.650000X0*%
%ADD24RoundRect,0.050800X-0.400000X-0.400000X0.400000X-0.400000X0.400000X0.400000X-0.400000X0.400000X0*%
%ADD25RoundRect,0.050800X0.400000X-0.150000X0.400000X0.150000X-0.400000X0.150000X-0.400000X-0.150000X0*%
%ADD26RoundRect,0.050800X-1.000000X-0.300000X1.000000X-0.300000X1.000000X0.300000X-1.000000X0.300000X0*%
%ADD27RoundRect,0.050800X1.000000X0.300000X-1.000000X0.300000X-1.000000X-0.300000X1.000000X-0.300000X0*%
%ADD28C,1.409600*%
%ADD29RoundRect,0.050800X-0.600000X-0.300000X0.600000X-0.300000X0.600000X0.300000X-0.600000X0.300000X0*%
%ADD30RoundRect,0.050800X-0.500000X-0.550000X0.500000X-0.550000X0.500000X0.550000X-0.500000X0.550000X0*%
%ADD31RoundRect,0.050800X0.500000X0.550000X-0.500000X0.550000X-0.500000X-0.550000X0.500000X-0.550000X0*%
%ADD32C,1.000000*%
%ADD33C,1.600000*%
%ADD34O,3.500000X2.000000*%
%ADD35RoundRect,0.076200X0.750000X-0.150000X0.750000X0.150000X-0.750000X0.150000X-0.750000X-0.150000X0*%
%ADD36RoundRect,0.076200X0.150000X-0.750000X0.150000X0.750000X-0.150000X0.750000X-0.150000X-0.750000X0*%
G04 APERTURE END LIST*
D10*
%TO.C,R1*%
X87600000Y-100100000D03*
D11*
X88500000Y-100100000D03*
X89300000Y-100100000D03*
D10*
X90200000Y-100100000D03*
X90200000Y-98200000D03*
D11*
X89300000Y-98200000D03*
X88500000Y-98200000D03*
D10*
X87600000Y-98200000D03*
%TD*%
D12*
%TO.C,X2*%
X110850000Y-99250000D03*
X110850000Y-101790000D03*
X110850000Y-104330000D03*
X110850000Y-106870000D03*
X110850000Y-109410000D03*
%TD*%
D13*
%TO.C,X1*%
X91130000Y-112970000D03*
X92400000Y-112970000D03*
X93670000Y-112970000D03*
%TD*%
D14*
%TO.C,VT3*%
X107425000Y-96900000D03*
X105525000Y-96900000D03*
X106475000Y-99100000D03*
%TD*%
D15*
%TO.C,VT2*%
X94800000Y-100600000D03*
X94800000Y-98700000D03*
X92600000Y-99650000D03*
%TD*%
D16*
%TO.C,VT1*%
X96950000Y-100650000D03*
X96950000Y-102550000D03*
X99150000Y-101600000D03*
%TD*%
D17*
%TO.C,SW1*%
X84925000Y-98645000D03*
X84925000Y-95245000D03*
%TD*%
D18*
%TO.C,R15*%
X105825000Y-107100000D03*
D19*
X105825000Y-108000000D03*
X105825000Y-108800000D03*
D18*
X105825000Y-109700000D03*
X107725000Y-109700000D03*
D19*
X107725000Y-108800000D03*
X107725000Y-108000000D03*
D18*
X107725000Y-107100000D03*
%TD*%
%TO.C,R14*%
X105825000Y-102675000D03*
D19*
X105825000Y-103575000D03*
X105825000Y-104375000D03*
D18*
X105825000Y-105275000D03*
X107725000Y-105275000D03*
D19*
X107725000Y-104375000D03*
X107725000Y-103575000D03*
D18*
X107725000Y-102675000D03*
%TD*%
D20*
%TO.C,R13*%
X105800000Y-95125000D03*
X107100000Y-95125000D03*
%TD*%
%TO.C,R12*%
X101050000Y-99375000D03*
X102350000Y-99375000D03*
%TD*%
%TO.C,R11*%
X102575000Y-96700000D03*
X103875000Y-96700000D03*
%TD*%
D21*
%TO.C,R10*%
X103900000Y-99450000D03*
X103900000Y-98150000D03*
%TD*%
D22*
%TO.C,R4*%
X85750000Y-100270000D03*
X84450000Y-100270000D03*
%TD*%
D23*
%TO.C,Q1*%
X98850000Y-110900000D03*
X98850000Y-108600000D03*
X96950000Y-108600000D03*
X96950000Y-110900000D03*
%TD*%
D24*
%TO.C,LED4*%
X91600000Y-96550000D03*
X91600000Y-95050000D03*
%TD*%
%TO.C,LED3*%
X90125000Y-96550000D03*
X90125000Y-95050000D03*
%TD*%
%TO.C,LED2*%
X88625000Y-96550000D03*
X88625000Y-95050000D03*
%TD*%
%TO.C,LED1*%
X87100000Y-96550000D03*
X87100000Y-95050000D03*
%TD*%
D25*
%TO.C,IC8*%
X100800000Y-111550000D03*
X100800000Y-112050000D03*
X100800000Y-112550000D03*
X100800000Y-113050000D03*
X103900000Y-113050000D03*
X103900000Y-112550000D03*
X103900000Y-112050000D03*
X103900000Y-111550000D03*
%TD*%
%TO.C,IC7*%
X100775000Y-104150000D03*
X100775000Y-104650000D03*
X100775000Y-105150000D03*
X100775000Y-105650000D03*
X103875000Y-105650000D03*
X103875000Y-105150000D03*
X103875000Y-104650000D03*
X103875000Y-104150000D03*
%TD*%
%TO.C,IC6*%
X101000000Y-107825000D03*
X101000000Y-108325000D03*
X101000000Y-108825000D03*
X101000000Y-109325000D03*
X104100000Y-109325000D03*
X104100000Y-108825000D03*
X104100000Y-108325000D03*
X104100000Y-107825000D03*
%TD*%
%TO.C,IC5*%
X100850000Y-100650000D03*
X100850000Y-101150000D03*
X100850000Y-101650000D03*
X100850000Y-102150000D03*
X103950000Y-102150000D03*
X103950000Y-101650000D03*
X103950000Y-101150000D03*
X103950000Y-100650000D03*
%TD*%
D26*
%TO.C,IC3*%
X73125000Y-103600000D03*
X73125000Y-104870000D03*
X73125000Y-106140000D03*
X73125000Y-107410000D03*
X73125000Y-108680000D03*
X73125000Y-109950000D03*
X73125000Y-111220000D03*
X73125000Y-112490000D03*
D27*
X82525000Y-112490000D03*
X82525000Y-111220000D03*
X82525000Y-109950000D03*
X82525000Y-108680000D03*
X82525000Y-107410000D03*
X82525000Y-106140000D03*
X82525000Y-104870000D03*
X82525000Y-103600000D03*
%TD*%
D28*
%TO.C,IC2*%
X73715000Y-99785000D03*
X76255000Y-99785000D03*
X78795000Y-99785000D03*
X81335000Y-99785000D03*
%TD*%
D29*
%TO.C,IC1*%
X96725000Y-95225000D03*
X96725000Y-96175000D03*
X96725000Y-97125000D03*
X99025000Y-97125000D03*
X99025000Y-95225000D03*
%TD*%
D20*
%TO.C,C22*%
X101700000Y-110475000D03*
X103000000Y-110475000D03*
%TD*%
%TO.C,C21*%
X101650000Y-106700000D03*
X102950000Y-106700000D03*
%TD*%
%TO.C,C19*%
X101675000Y-103150000D03*
X102975000Y-103150000D03*
%TD*%
%TO.C,C18*%
X102575000Y-95300000D03*
X103875000Y-95300000D03*
%TD*%
%TO.C,C10*%
X96575000Y-105400000D03*
X97875000Y-105400000D03*
%TD*%
D22*
%TO.C,C8*%
X69950000Y-112925000D03*
X68650000Y-112925000D03*
%TD*%
D20*
%TO.C,C6*%
X96575000Y-106800000D03*
X97875000Y-106800000D03*
%TD*%
D30*
%TO.C,C4*%
X100850000Y-97100000D03*
X100850000Y-95400000D03*
%TD*%
D22*
%TO.C,C3*%
X98150000Y-112700000D03*
X96850000Y-112700000D03*
%TD*%
D20*
%TO.C,C2*%
X97000000Y-99100000D03*
X98300000Y-99100000D03*
%TD*%
D31*
%TO.C,C1*%
X94900000Y-95250000D03*
X94900000Y-96950000D03*
%TD*%
D32*
%TO.C,X4*%
X68080000Y-106130000D03*
X68080000Y-101630000D03*
D33*
X70080000Y-107380000D03*
X70080000Y-104880000D03*
X70080000Y-102880000D03*
X70080000Y-100380000D03*
D34*
X68180000Y-97880000D03*
X68180000Y-109880000D03*
%TD*%
D35*
%TO.C,IC4*%
X94600000Y-109725000D03*
X94600000Y-109225000D03*
X94600000Y-108725000D03*
X94600000Y-108225000D03*
X94600000Y-107725000D03*
X94600000Y-107225000D03*
X94600000Y-106725000D03*
X94600000Y-106225000D03*
X94600000Y-105725000D03*
X94600000Y-105225000D03*
X94600000Y-104725000D03*
X94600000Y-104225000D03*
D36*
X93100000Y-102725000D03*
X92600000Y-102725000D03*
X92100000Y-102725000D03*
X91600000Y-102725000D03*
X91100000Y-102725000D03*
X90600000Y-102725000D03*
X90100000Y-102725000D03*
X89600000Y-102725000D03*
X89100000Y-102725000D03*
X88600000Y-102725000D03*
X88100000Y-102725000D03*
X87600000Y-102725000D03*
D35*
X86100000Y-104225000D03*
X86100000Y-104725000D03*
X86100000Y-105225000D03*
X86100000Y-105725000D03*
X86100000Y-106225000D03*
X86100000Y-106725000D03*
X86100000Y-107225000D03*
X86100000Y-107725000D03*
X86100000Y-108225000D03*
X86100000Y-108725000D03*
X86100000Y-109225000D03*
X86100000Y-109725000D03*
D36*
X87600000Y-111225000D03*
X88100000Y-111225000D03*
X88600000Y-111225000D03*
X89100000Y-111225000D03*
X89600000Y-111225000D03*
X90100000Y-111225000D03*
X90600000Y-111225000D03*
X91100000Y-111225000D03*
X91600000Y-111225000D03*
X92100000Y-111225000D03*
X92600000Y-111225000D03*
X93100000Y-111225000D03*
%TD*%
M02*
